<?xml version="1.0" encoding="utf-8" standalone="no"?>
<!DOCTYPE svg PUBLIC "-//W3C//DTD SVG 1.1//EN"
  "http://www.w3.org/Graphics/SVG/1.1/DTD/svg11.dtd">
<svg xmlns:xlink="http://www.w3.org/1999/xlink" width="459.825646pt" height="457.92pt" viewBox="0 0 459.825646 457.92" xmlns="http://www.w3.org/2000/svg" version="1.1">
 <metadata>
  <rdf:RDF xmlns:dc="http://purl.org/dc/elements/1.1/" xmlns:cc="http://creativecommons.org/ns#" xmlns:rdf="http://www.w3.org/1999/02/22-rdf-syntax-ns#">
   <cc:Work>
    <dc:type rdf:resource="http://purl.org/dc/dcmitype/StillImage"/>
    <dc:date>2025-05-15T15:26:13.292565</dc:date>
    <dc:format>image/svg+xml</dc:format>
    <dc:creator>
     <cc:Agent>
      <dc:title>Matplotlib v3.6.1, https://matplotlib.org/</dc:title>
     </cc:Agent>
    </dc:creator>
   </cc:Work>
  </rdf:RDF>
 </metadata>
 <defs>
  <style type="text/css">*{stroke-linejoin: round; stroke-linecap: butt}</style>
 </defs>
 <g id="figure_1">
  <g id="patch_1">
   <path d="M 0 457.92 
L 459.825646 457.92 
L 459.825646 0 
L 0 0 
z
" style="fill: #ffffff"/>
  </g>
  <g id="patch_2">
   <path d="M 7.2 450.72 
L 450.72 450.72 
L 450.72 7.2 
L 7.2 7.2 
z
" style="fill: #ffffff"/>
  </g>
  <g id="pane3d_1">
   <g id="patch_3">
    <path d="M 40.688819 341.362182 
L 187.153607 218.592492 
L 185.117607 41.536652 
L 31.643723 153.534902 
" style="fill: #f2f2f2; opacity: 0.5; stroke: #f2f2f2; stroke-linejoin: miter"/>
   </g>
  </g>
  <g id="pane3d_2">
   <g id="patch_4">
    <path d="M 187.153607 218.592492 
L 422.177334 286.90461 
L 430.564503 103.750285 
L 185.117607 41.536652 
" style="fill: #e6e6e6; opacity: 0.5; stroke: #e6e6e6; stroke-linejoin: miter"/>
   </g>
  </g>
  <g id="pane3d_3">
   <g id="patch_5">
    <path d="M 40.688819 341.362182 
L 289.825448 422.730204 
L 422.177334 286.90461 
L 187.153607 218.592492 
" style="fill: #ececec; opacity: 0.5; stroke: #ececec; stroke-linejoin: miter"/>
   </g>
  </g>
  <g id="axis3d_1">
   <g id="line2d_1">
    <path d="M 40.688819 341.362182 
L 289.825448 422.730204 
" style="fill: none; stroke: #000000; stroke-width: 0.8; stroke-linecap: square"/>
   </g>
   <g id="text_1">
    <!-- x -->
    <g transform="translate(142.776246 418.888264) scale(0.1 -0.1)">
     <defs>
      <path id="DejaVuSans-78" d="M 3513 3500 
L 2247 1797 
L 3578 0 
L 2900 0 
L 1881 1375 
L 863 0 
L 184 0 
L 1544 1831 
L 300 3500 
L 978 3500 
L 1906 2253 
L 2834 3500 
L 3513 3500 
z
" transform="scale(0.015625)"/>
     </defs>
     <use xlink:href="#DejaVuSans-78"/>
    </g>
   </g>
   <g id="Line3DCollection_1">
    <path d="M 55.77784 346.290256 
L 201.447031 222.747025 
L 200.015367 45.312799 
" style="fill: none; stroke: #b0b0b0; stroke-width: 0.8"/>
    <path d="M 161.973136 380.973639 
L 301.826747 251.923446 
L 304.746975 71.859209 
" style="fill: none; stroke: #b0b0b0; stroke-width: 0.8"/>
    <path d="M 273.170135 417.290579 
L 406.530106 282.356579 
L 414.191098 99.600104 
" style="fill: none; stroke: #b0b0b0; stroke-width: 0.8"/>
   </g>
   <g id="xtick_1">
    <g id="line2d_2">
     <path d="M 57.046319 345.214449 
L 53.235439 348.446487 
" style="fill: none; stroke: #000000; stroke-width: 0.8; stroke-linecap: square"/>
    </g>
    <g id="text_2">
     <!-- −1 -->
     <g transform="translate(40.888875 369.57608) scale(0.1 -0.1)">
      <defs>
       <path id="DejaVuSans-2212" d="M 678 2272 
L 4684 2272 
L 4684 1741 
L 678 1741 
L 678 2272 
z
" transform="scale(0.015625)"/>
       <path id="DejaVuSans-31" d="M 794 531 
L 1825 531 
L 1825 4091 
L 703 3866 
L 703 4441 
L 1819 4666 
L 2450 4666 
L 2450 531 
L 3481 531 
L 3481 0 
L 794 0 
L 794 531 
z
" transform="scale(0.015625)"/>
      </defs>
      <use xlink:href="#DejaVuSans-2212"/>
      <use xlink:href="#DejaVuSans-31" x="83.789062"/>
     </g>
    </g>
   </g>
   <g id="xtick_2">
    <g id="line2d_3">
     <path d="M 163.193249 379.847777 
L 159.527552 383.230306 
" style="fill: none; stroke: #000000; stroke-width: 0.8; stroke-linecap: square"/>
    </g>
    <g id="text_3">
     <!-- 0 -->
     <g transform="translate(151.342607 404.700239) scale(0.1 -0.1)">
      <defs>
       <path id="DejaVuSans-30" d="M 2034 4250 
Q 1547 4250 1301 3770 
Q 1056 3291 1056 2328 
Q 1056 1369 1301 889 
Q 1547 409 2034 409 
Q 2525 409 2770 889 
Q 3016 1369 3016 2328 
Q 3016 3291 2770 3770 
Q 2525 4250 2034 4250 
z
M 2034 4750 
Q 2819 4750 3233 4129 
Q 3647 3509 3647 2328 
Q 3647 1150 3233 529 
Q 2819 -91 2034 -91 
Q 1250 -91 836 529 
Q 422 1150 422 2328 
Q 422 3509 836 4129 
Q 1250 4750 2034 4750 
z
" transform="scale(0.015625)"/>
      </defs>
      <use xlink:href="#DejaVuSans-30"/>
     </g>
    </g>
   </g>
   <g id="xtick_3">
    <g id="line2d_4">
     <path d="M 274.335869 416.111086 
L 270.833428 419.654866 
" style="fill: none; stroke: #000000; stroke-width: 0.8; stroke-linecap: square"/>
    </g>
    <g id="text_4">
     <!-- 1 -->
     <g transform="translate(262.623101 441.482573) scale(0.1 -0.1)">
      <use xlink:href="#DejaVuSans-31"/>
     </g>
    </g>
   </g>
  </g>
  <g id="axis3d_2">
   <g id="line2d_5">
    <path d="M 422.177334 286.90461 
L 289.825448 422.730204 
" style="fill: none; stroke: #000000; stroke-width: 0.8; stroke-linecap: square"/>
   </g>
   <g id="text_5">
    <!-- y -->
    <g transform="translate(382.962276 382.532712) scale(0.1 -0.1)">
     <defs>
      <path id="DejaVuSans-79" d="M 2059 -325 
Q 1816 -950 1584 -1140 
Q 1353 -1331 966 -1331 
L 506 -1331 
L 506 -850 
L 844 -850 
Q 1081 -850 1212 -737 
Q 1344 -625 1503 -206 
L 1606 56 
L 191 3500 
L 800 3500 
L 1894 763 
L 2988 3500 
L 3597 3500 
L 2059 -325 
z
" transform="scale(0.015625)"/>
     </defs>
     <use xlink:href="#DejaVuSans-79"/>
    </g>
   </g>
   <g id="Line3DCollection_2">
    <path d="M 42.256822 145.789945 
L 50.78148 332.902312 
L 298.983174 413.332125 
" style="fill: none; stroke: #b0b0b0; stroke-width: 0.8"/>
    <path d="M 111.794632 95.044419 
L 117.040492 277.362695 
L 358.965911 351.77508 
" style="fill: none; stroke: #b0b0b0; stroke-width: 0.8"/>
    <path d="M 176.134383 48.092199 
L 178.549945 225.804252 
L 414.434941 294.85021 
" style="fill: none; stroke: #b0b0b0; stroke-width: 0.8"/>
   </g>
   <g id="xtick_4">
    <g id="line2d_6">
     <path d="M 296.891571 412.65434 
L 303.17179 414.689446 
" style="fill: none; stroke: #000000; stroke-width: 0.8; stroke-linecap: square"/>
    </g>
    <g id="text_6">
     <!-- −1 -->
     <g transform="translate(304.48963 434.35064) scale(0.1 -0.1)">
      <use xlink:href="#DejaVuSans-2212"/>
      <use xlink:href="#DejaVuSans-31" x="83.789062"/>
     </g>
    </g>
   </g>
   <g id="xtick_5">
    <g id="line2d_7">
     <path d="M 356.931236 351.149247 
L 363.040318 353.028303 
" style="fill: none; stroke: #000000; stroke-width: 0.8; stroke-linecap: square"/>
    </g>
    <g id="text_7">
     <!-- 0 -->
     <g transform="translate(368.179278 372.247498) scale(0.1 -0.1)">
      <use xlink:href="#DejaVuSans-30"/>
     </g>
    </g>
   </g>
   <g id="xtick_6">
    <g id="line2d_8">
     <path d="M 412.454708 294.270576 
L 418.400143 296.010866 
" style="fill: none; stroke: #000000; stroke-width: 0.8; stroke-linecap: square"/>
    </g>
    <g id="text_8">
     <!-- 1 -->
     <g transform="translate(423.200228 314.819176) scale(0.1 -0.1)">
      <use xlink:href="#DejaVuSans-31"/>
     </g>
    </g>
   </g>
  </g>
  <g id="axis3d_3">
   <g id="line2d_9">
    <path d="M 422.177334 286.90461 
L 430.564503 103.750285 
" style="fill: none; stroke: #000000; stroke-width: 0.8; stroke-linecap: square"/>
   </g>
   <g id="Line3DCollection_3">
    <path d="M 422.338023 283.395576 
L 187.114519 215.193266 
L 40.515811 337.769565 
" style="fill: none; stroke: #b0b0b0; stroke-width: 0.8"/>
    <path d="M 426.279045 197.333726 
L 186.156835 131.910645 
L 36.269162 249.585142 
" style="fill: none; stroke: #b0b0b0; stroke-width: 0.8"/>
    <path d="M 430.389402 107.574043 
L 185.160025 45.225457 
L 31.832871 157.462697 
" style="fill: none; stroke: #b0b0b0; stroke-width: 0.8"/>
   </g>
   <g id="xtick_7">
    <g id="line2d_10">
     <path d="M 420.363771 282.823148 
L 426.291227 284.541795 
" style="fill: none; stroke: #000000; stroke-width: 0.8; stroke-linecap: square"/>
    </g>
    <g id="text_9">
     <!-- −1 -->
     <g transform="translate(433.252843 288.389979) scale(0.1 -0.1)">
      <use xlink:href="#DejaVuSans-2212"/>
      <use xlink:href="#DejaVuSans-31" x="83.789062"/>
     </g>
    </g>
   </g>
   <g id="xtick_8">
    <g id="line2d_11">
     <path d="M 424.261693 196.784083 
L 430.318652 198.434347 
" style="fill: none; stroke: #000000; stroke-width: 0.8; stroke-linecap: square"/>
    </g>
    <g id="text_10">
     <!-- 0 -->
     <g transform="translate(441.760333 202.431857) scale(0.1 -0.1)">
      <use xlink:href="#DejaVuSans-30"/>
     </g>
    </g>
   </g>
   <g id="xtick_9">
    <g id="line2d_12">
     <path d="M 428.327029 107.049693 
L 434.519268 108.624045 
" style="fill: none; stroke: #000000; stroke-width: 0.8; stroke-linecap: square"/>
    </g>
    <g id="text_11">
     <!-- 1 -->
     <g transform="translate(446.263146 112.787303) scale(0.1 -0.1)">
      <use xlink:href="#DejaVuSans-31"/>
     </g>
    </g>
   </g>
  </g>
  <g id="axes_1">
   <g id="line2d_13">
    <defs>
     <path id="med457fc4b9" d="M -3 3 
L 3 -3 
M -3 -3 
L 3 3 
" style="stroke: #ff0000"/>
    </defs>
    <g clip-path="url(#p1f60501f38)">
     <use xlink:href="#med457fc4b9" x="234.953514" y="222.966486" style="fill: #ff0000; stroke: #ff0000"/>
    </g>
   </g>
   <g id="Line3DCollection_4">
    <path d="M 61.979632 246.140592 
L 63.233779 241.462665 
L 64.491079 236.856209 
L 65.751458 232.3215 
L 67.014854 227.858774 
L 68.281206 223.468254 
L 69.55044 219.150198 
L 70.822492 214.904809 
L 72.097297 210.732312 
L 73.374791 206.63289 
L 74.654898 202.606775 
L 75.93756 198.654124 
L 77.2227 194.775162 
L 78.510254 190.970038 
L 79.800154 187.238921 
L 81.092331 183.581982 
L 82.386721 179.999354 
L 83.683251 176.491191 
L 84.981848 173.057653 
L 86.282446 169.69884 
L 87.584977 166.414883 
L 88.88937 163.205894 
L 90.195561 160.071972 
L 91.503471 157.013223 
L 92.81304 154.029732 
L 94.124188 151.121585 
L 95.436849 148.288852 
L 96.750955 145.531599 
L 98.066439 142.849869 
L 99.383222 140.243734 
L 100.70124 137.713226 
L 102.020424 135.258371 
L 103.340699 132.879206 
L 104.661996 130.575745 
L 105.984251 128.347995 
L 107.307386 126.195963 
L 108.631333 124.119636 
L 109.956028 122.119002 
L 111.281392 120.194045 
L 112.60736 118.344727 
L 113.933863 116.571022 
L 115.260834 114.872872 
L 116.588196 113.250234 
L 117.915884 111.703047 
L 119.243833 110.231233 
L 120.571965 108.834727 
L 121.900216 107.513446 
L 123.228522 106.267294 
L 124.556806 105.096179 
L 125.885003 103.999988 
L 127.213049 102.97861 
L 128.540873 102.031928 
L 129.868404 101.159818 
L 131.195577 100.362136 
L 132.52233 99.638743 
L 133.848587 98.989495 
L 135.174288 98.414234 
L 136.499368 97.912793 
L 137.823754 97.485004 
L 139.147385 97.13069 
L 140.470199 96.849666 
L 141.792123 96.641741 
L 143.113096 96.506726 
L 144.433055 96.444406 
L 145.751939 96.454573 
L 147.069676 96.537015 
L 148.386207 96.691501 
L 149.701474 96.917803 
L 151.015405 97.215691 
L 152.327944 97.58492 
L 153.639031 98.025237 
L 154.948599 98.536389 
L 156.256589 99.118117 
L 157.562946 99.770157 
L 158.867602 100.492227 
L 160.1705 101.284055 
L 161.471583 102.145358 
L 162.770795 103.075844 
L 164.06807 104.075222 
L 165.363358 105.143187 
L 166.656595 106.279434 
L 167.947728 107.483652 
L 169.2367 108.755527 
L 170.523455 110.094725 
L 171.807943 111.500944 
L 173.090105 112.973834 
L 174.369882 114.513056 
L 175.647225 116.118283 
L 176.922081 117.789156 
L 178.194397 119.525327 
L 179.464124 121.326458 
L 180.731205 123.192165 
L 181.995594 125.122104 
L 183.257235 127.115886 
L 184.516081 129.173158 
L 185.772083 131.293534 
L 187.025196 133.476645 
L 188.275364 135.722093 
L 189.522544 138.029498 
L 190.766691 140.39847 
L 192.007752 142.828605 
" clip-path="url(#p1f60501f38)" style="fill: none; stroke: #1f77b4; stroke-width: 1.5"/>
    <path d="M 84.404029 284.838924 
L 85.655666 280.178961 
L 86.910054 275.589566 
L 88.167122 271.071013 
L 89.426808 266.623536 
L 90.68905 262.247356 
L 91.953776 257.94273 
L 93.220922 253.70986 
L 94.490422 249.548969 
L 95.762215 245.460238 
L 97.036224 241.4439 
L 98.312392 237.50011 
L 99.590643 233.629092 
L 100.870913 229.830995 
L 102.153136 226.105987 
L 103.437243 222.454239 
L 104.723171 218.875884 
L 106.010847 215.371077 
L 107.3002 211.939969 
L 108.591165 208.582674 
L 109.883674 205.299315 
L 111.177659 202.090009 
L 112.473055 198.954846 
L 113.769786 195.893945 
L 115.06779 192.907379 
L 116.366992 189.995244 
L 117.667326 187.157609 
L 118.968724 184.394538 
L 120.271121 181.706082 
L 121.57444 179.092307 
L 122.878617 176.55325 
L 124.183587 174.088937 
L 125.489273 171.699407 
L 126.795611 169.384681 
L 128.102536 167.144752 
L 129.409972 164.979641 
L 130.717854 162.889346 
L 132.026118 160.873841 
L 133.334689 158.93312 
L 134.643501 157.067145 
L 135.952487 155.275894 
L 137.261583 153.55931 
L 138.570714 151.917355 
L 139.879816 150.349968 
L 141.188825 148.857076 
L 142.497668 147.438619 
L 143.80628 146.094512 
L 145.1146 144.824666 
L 146.422553 143.628993 
L 147.730075 142.507381 
L 149.037107 141.459724 
L 150.343577 140.485909 
L 151.649416 139.585814 
L 152.954564 138.759301 
L 154.258958 138.006234 
L 155.562527 137.326473 
L 156.865211 136.719865 
L 158.166948 136.186246 
L 159.467668 135.725453 
L 160.767312 135.337314 
L 162.065819 135.021648 
L 163.363119 134.778269 
L 164.659155 134.606992 
L 165.953863 134.507607 
L 167.247187 134.479912 
L 168.539058 134.523693 
L 169.829418 134.638741 
L 171.11821 134.824823 
L 172.405368 135.081702 
L 173.690835 135.409155 
L 174.974557 135.80693 
L 176.256466 136.274778 
L 177.536508 136.812446 
L 178.81463 137.419674 
L 180.090765 138.096192 
L 181.364862 138.841726 
L 182.636863 139.656003 
L 183.906717 140.538737 
L 185.17436 141.489638 
L 186.439744 142.508414 
L 187.702808 143.594758 
L 188.963502 144.748373 
L 190.221771 145.968944 
L 191.477563 147.256155 
L 192.73083 148.609695 
L 193.981514 150.029229 
L 195.229562 151.514424 
L 196.474925 153.064957 
L 197.717554 154.680478 
L 198.957399 156.360644 
L 200.194414 158.105123 
L 201.428542 159.913538 
L 202.659744 161.785552 
L 203.887963 163.720783 
L 205.113157 165.718884 
L 206.33528 167.779475 
L 207.554288 169.902196 
L 208.770128 172.086653 
L 209.982761 174.332475 
L 211.192145 176.639278 
L 212.39823 179.006664 
" clip-path="url(#p1f60501f38)" style="fill: none; stroke: #1f77b4; stroke-width: 1.5"/>
    <path d="M 106.460249 316.256808 
L 107.711532 311.606129 
L 108.96518 307.025367 
L 110.22112 302.514795 
L 111.479293 298.074645 
L 112.739635 293.705139 
L 114.002073 289.406532 
L 115.266547 285.179025 
L 116.532989 281.022842 
L 117.801337 276.938163 
L 119.071518 272.92522 
L 120.343471 268.984169 
L 121.617124 265.115232 
L 122.892413 261.318559 
L 124.16927 257.594318 
L 125.44763 253.94268 
L 126.727427 250.363777 
L 128.008592 246.857765 
L 129.291053 243.424796 
L 130.574746 240.064984 
L 131.859603 236.778451 
L 133.145558 233.565317 
L 134.432546 230.42567 
L 135.720492 227.359631 
L 137.009335 224.367274 
L 138.299001 221.448695 
L 139.589426 218.603964 
L 140.880541 215.833147 
L 142.172284 213.136295 
L 143.464578 210.513477 
L 144.75736 207.964726 
L 146.050567 205.490075 
L 147.344122 203.089564 
L 148.637964 200.763208 
L 149.932027 198.511014 
L 151.226238 196.332998 
L 152.520534 194.229154 
L 153.81485 192.199466 
L 155.109113 190.243923 
L 156.403261 188.362503 
L 157.697226 186.555166 
L 158.990946 184.821871 
L 160.284347 183.162577 
L 161.577368 181.577225 
L 162.869946 180.06575 
L 164.162009 178.628086 
L 165.453495 177.264158 
L 166.744343 175.97387 
L 168.034481 174.757141 
L 169.323847 173.613869 
L 170.612382 172.543941 
L 171.900018 171.54725 
L 173.186687 170.623675 
L 174.472329 169.773087 
L 175.756887 168.995348 
L 177.040289 168.290317 
L 178.322476 167.657851 
L 179.603392 167.097784 
L 180.882965 166.609964 
L 182.161139 166.194214 
L 183.437856 165.850359 
L 184.713049 165.578219 
L 185.986661 165.377602 
L 187.258632 165.248317 
L 188.528906 165.190155 
L 189.797417 165.202912 
L 191.06411 165.286372 
L 192.328931 165.440313 
L 193.591814 165.664508 
L 194.852705 165.958725 
L 196.111552 166.322723 
L 197.368291 166.756257 
L 198.622869 167.259074 
L 199.875235 167.830921 
L 201.125326 168.47153 
L 202.373091 169.180635 
L 203.618477 169.957963 
L 204.861433 170.803233 
L 206.101898 171.716159 
L 207.339828 172.696455 
L 208.575164 173.743815 
L 209.807856 174.857949 
L 211.037855 176.038546 
L 212.265109 177.285293 
L 213.489573 178.597884 
L 214.711193 179.975988 
L 215.929917 181.419277 
L 217.145699 182.927432 
L 218.358493 184.500108 
L 219.56825 186.136966 
L 220.774927 187.837678 
L 221.978472 189.601873 
L 223.178846 191.429217 
L 224.375997 193.319335 
L 225.569883 195.271882 
L 226.76046 197.286483 
L 227.94769 199.362783 
L 229.131522 201.500395 
L 230.311917 203.698948 
L 231.488838 205.958067 
L 232.662236 208.277357 
" clip-path="url(#p1f60501f38)" style="fill: none; stroke: #1f77b4; stroke-width: 1.5"/>
    <path d="M 128.264773 340.590954 
L 129.517857 335.94098 
L 130.772927 331.360516 
L 132.029913 326.849834 
L 133.288752 322.409168 
L 134.549384 318.038738 
L 135.811733 313.738801 
L 137.07574 309.509557 
L 138.341337 305.35123 
L 139.608463 301.264001 
L 140.877043 297.248101 
L 142.147018 293.303687 
L 143.418315 289.430982 
L 144.690872 285.630137 
L 145.96462 281.901318 
L 147.239493 278.244698 
L 148.515428 274.660409 
L 149.792355 271.148608 
L 151.070203 267.709447 
L 152.348908 264.343042 
L 153.628403 261.049514 
L 154.908622 257.828984 
L 156.1895 254.681541 
L 157.470964 251.607308 
L 158.752954 248.606357 
L 160.035395 245.678788 
L 161.318224 242.82467 
L 162.601375 240.04407 
L 163.884783 237.337041 
L 165.168375 234.703652 
L 166.452089 232.143937 
L 167.73586 229.657931 
L 169.019615 227.245673 
L 170.303292 224.907183 
L 171.586828 222.642465 
L 172.87015 220.45154 
L 174.153194 218.3344 
L 175.4359 216.291031 
L 176.718194 214.321428 
L 178.000015 212.425562 
L 179.281297 210.603401 
L 180.561979 208.854901 
L 181.84199 207.180028 
L 183.121267 205.578721 
L 184.399751 204.050914 
L 185.67737 202.596548 
L 186.954064 201.215543 
L 188.229773 199.907813 
L 189.504427 198.673273 
L 190.777967 197.511824 
L 192.050333 196.423354 
L 193.321459 195.407759 
L 194.59128 194.464918 
L 195.859738 193.594706 
L 197.126775 192.796985 
L 198.392323 192.071621 
L 199.656324 191.418464 
L 200.918723 190.837357 
L 202.179452 190.328145 
L 203.438455 189.890656 
L 204.695677 189.524719 
L 205.951052 189.230153 
L 207.204524 189.006769 
L 208.456037 188.854375 
L 209.705536 188.77277 
L 210.952957 188.761747 
L 212.198247 188.821095 
L 213.441353 188.950594 
L 214.682213 189.150018 
L 215.920775 189.419139 
L 217.156987 189.757716 
L 218.390788 190.165507 
L 219.622129 190.642263 
L 220.850958 191.187731 
L 222.077217 191.801646 
L 223.300856 192.483746 
L 224.521823 193.233758 
L 225.740071 194.051405 
L 226.955541 194.936403 
L 228.168192 195.888468 
L 229.377964 196.907297 
L 230.584814 197.992602 
L 231.788691 199.144075 
L 232.989549 200.361406 
L 234.187342 201.644289 
L 235.382021 202.992399 
L 236.573534 204.405407 
L 237.761841 205.883 
L 238.946894 207.424833 
L 240.12865 209.030571 
L 241.307067 210.699888 
L 242.482095 212.432416 
L 243.653698 214.227823 
L 244.821825 216.085736 
L 245.98644 218.005815 
L 247.147499 219.987686 
L 248.304966 222.030997 
L 249.458794 224.135363 
L 250.608946 226.300418 
L 251.755387 228.525786 
L 252.898071 230.811077 
" clip-path="url(#p1f60501f38)" style="fill: none; stroke: #1f77b4; stroke-width: 1.5"/>
    <path d="M 149.931157 357.963684 
L 151.188214 353.305842 
L 152.446885 348.717344 
L 153.707099 344.198461 
L 154.968793 339.749429 
L 156.231906 335.37047 
L 157.496364 331.061839 
L 158.762104 326.823739 
L 160.029061 322.656394 
L 161.297172 318.559987 
L 162.566364 314.534748 
L 163.836576 310.580838 
L 165.107736 306.698477 
L 166.379781 302.887819 
L 167.652642 299.149032 
L 168.926255 295.482287 
L 170.200556 291.88772 
L 171.475475 288.365488 
L 172.75094 284.915742 
L 174.026889 281.538601 
L 175.303255 278.234186 
L 176.579972 275.002618 
L 177.856976 271.843989 
L 179.134194 268.758422 
L 180.411565 265.74599 
L 181.689017 262.806794 
L 182.966486 259.940902 
L 184.243906 257.148385 
L 185.521215 254.429295 
L 186.798338 251.783702 
L 188.075214 249.211642 
L 189.351781 246.713149 
L 190.627965 244.288266 
L 191.903704 241.93701 
L 193.178937 239.659389 
L 194.453592 237.455422 
L 195.727605 235.325105 
L 197.000918 233.268423 
L 198.273457 231.285373 
L 199.545162 229.375925 
L 200.815969 227.54005 
L 202.085818 225.777704 
L 203.354637 224.088853 
L 204.622366 222.473438 
L 205.888948 220.931394 
L 207.15431 219.462663 
L 208.418395 218.067165 
L 209.681143 216.744814 
L 210.942486 215.495528 
L 212.202365 214.319207 
L 213.460724 213.215742 
L 214.717497 212.185026 
L 215.97262 211.226945 
L 217.226037 210.341368 
L 218.477691 209.528163 
L 219.727516 208.787193 
L 220.975456 208.118311 
L 222.221456 207.521361 
L 223.465451 206.996188 
L 224.707386 206.542623 
L 225.947208 206.160491 
L 227.184852 205.849616 
L 228.420266 205.609809 
L 229.653392 205.440878 
L 230.88418 205.342622 
L 232.112567 205.314838 
L 233.3385 205.357312 
L 234.561931 205.469826 
L 235.782798 205.652156 
L 237.00105 205.904074 
L 238.216639 206.225339 
L 239.429506 206.615712 
L 240.639601 207.074942 
L 241.846877 207.602778 
L 243.051277 208.198957 
L 244.252753 208.863216 
L 245.451255 209.595283 
L 246.646739 210.394882 
L 247.839147 211.26173 
L 249.02844 212.195543 
L 250.214562 213.19602 
L 251.397469 214.262873 
L 252.577116 215.395793 
L 253.753456 216.594474 
L 254.926447 217.858609 
L 256.096041 219.187873 
L 257.26219 220.58194 
L 258.424854 222.040495 
L 259.583989 223.563196 
L 260.739554 225.149707 
L 261.89151 226.799704 
L 263.039808 228.512819 
L 264.184414 230.28872 
L 265.325282 232.127036 
L 266.462375 234.027427 
L 267.595654 235.989521 
L 268.725085 238.012964 
L 269.850622 240.097374 
L 270.972231 242.242385 
L 272.08988 244.447621 
L 273.203526 246.712695 
" clip-path="url(#p1f60501f38)" style="fill: none; stroke: #1f77b4; stroke-width: 1.5"/>
    <path d="M 171.572009 368.424968 
L 172.835253 363.750599 
L 174.099741 359.145645 
L 175.3654 354.610383 
L 176.632167 350.145046 
L 177.899979 345.749861 
L 179.168764 341.425084 
L 180.438457 337.170919 
L 181.708994 332.987593 
L 182.980309 328.875288 
L 184.25233 324.834239 
L 185.524998 320.864605 
L 186.798237 316.966611 
L 188.071985 313.14041 
L 189.346175 309.386171 
L 190.62074 305.704069 
L 191.895617 302.094239 
L 193.170735 298.556839 
L 194.446024 295.092024 
L 195.721422 291.699911 
L 196.99686 288.380625 
L 198.272273 285.134287 
L 199.547597 281.960989 
L 200.822759 278.860855 
L 202.0977 275.833961 
L 203.372346 272.880408 
L 204.646634 270.000264 
L 205.920499 267.193603 
L 207.193878 264.460475 
L 208.466698 261.800953 
L 209.738898 259.215073 
L 211.010416 256.70287 
L 212.281178 254.264387 
L 213.551124 251.899642 
L 214.820193 249.608644 
L 216.088312 247.391413 
L 217.355421 245.247944 
L 218.62146 243.178224 
L 219.886357 241.182248 
L 221.150053 239.25999 
L 222.412484 237.411418 
L 223.67359 235.636491 
L 224.933302 233.935173 
L 226.19156 232.307406 
L 227.448307 230.753126 
L 228.703473 229.272275 
L 229.957001 227.864772 
L 231.208832 226.530532 
L 232.458899 225.269472 
L 233.707145 224.081493 
L 234.953514 222.966486 
L 236.197941 221.924345 
L 237.440365 220.954953 
L 238.680729 220.058181 
L 239.91898 219.233896 
L 241.155051 218.481961 
L 242.388889 217.802229 
L 243.62044 217.194543 
L 244.84964 216.658749 
L 246.076435 216.194675 
L 247.300775 215.802149 
L 248.522595 215.480992 
L 249.741845 215.231016 
L 250.958471 215.052027 
L 252.172421 214.943825 
L 253.383635 214.906205 
L 254.592063 214.938955 
L 255.797656 215.041854 
L 257.000356 215.214677 
L 258.200114 215.457196 
L 259.396882 215.769171 
L 260.590604 216.15036 
L 261.781232 216.600511 
L 262.968721 217.119375 
L 264.153014 217.706685 
L 265.334067 218.362179 
L 266.511832 219.085583 
L 267.686265 219.876621 
L 268.857312 220.735009 
L 270.024935 221.660462 
L 271.18908 222.652677 
L 272.349707 223.711366 
L 273.50677 224.83622 
L 274.660226 226.026929 
L 275.810036 227.283188 
L 276.956151 228.604669 
L 278.098529 229.991046 
L 279.237129 231.442001 
L 280.371912 232.957193 
L 281.502837 234.536284 
L 282.629867 236.178948 
L 283.752957 237.884817 
L 284.872076 239.653558 
L 285.987177 241.484798 
L 287.098228 243.378195 
L 288.205192 245.333377 
L 289.308036 247.349989 
L 290.406717 249.427646 
L 291.501205 251.565982 
L 292.591469 253.76462 
L 293.677467 256.02317 
" clip-path="url(#p1f60501f38)" style="fill: none; stroke: #1f77b4; stroke-width: 1.5"/>
    <path d="M 193.30094 371.952585 
L 194.572651 367.252842 
L 195.845233 362.622831 
L 197.118611 358.062829 
L 198.392722 353.573075 
L 199.667503 349.153796 
L 200.942878 344.805252 
L 202.218786 340.527649 
L 203.495158 336.321217 
L 204.771931 332.186139 
L 206.04903 328.122653 
L 207.326395 324.130921 
L 208.603952 320.211168 
L 209.881637 316.363551 
L 211.159383 312.58824 
L 212.437122 308.885411 
L 213.714792 305.255203 
L 214.992321 301.697774 
L 216.269638 298.21328 
L 217.54668 294.801841 
L 218.823381 291.463583 
L 220.099673 288.198628 
L 221.375495 285.00707 
L 222.65077 281.889034 
L 223.925441 278.844596 
L 225.199435 275.873858 
L 226.472688 272.976892 
L 227.745134 270.153769 
L 229.016712 267.404543 
L 230.287349 264.729285 
L 231.556983 262.128034 
L 232.825553 259.600823 
L 234.092986 257.147697 
L 235.359221 254.768675 
L 236.624199 252.463765 
L 237.887846 250.232988 
L 239.150103 248.076339 
L 240.41091 245.993803 
L 241.670197 243.985379 
L 242.927904 242.051038 
L 244.183968 240.190749 
L 245.438331 238.404469 
L 246.690923 236.692164 
L 247.941686 235.053775 
L 249.190563 233.489237 
L 250.437486 231.99849 
L 251.682396 230.581455 
L 252.925238 229.238045 
L 254.165945 227.968177 
L 255.404461 226.77175 
L 256.640729 225.648655 
L 257.874689 224.598784 
L 259.106278 223.622019 
L 260.335442 222.718231 
L 261.562127 221.887284 
L 262.78627 221.129042 
L 264.007816 220.443355 
L 265.226715 219.830065 
L 266.442903 219.289016 
L 267.656328 218.820036 
L 268.86694 218.422949 
L 270.074678 218.097575 
L 271.279492 217.843726 
L 272.481327 217.661205 
L 273.680137 217.54981 
L 274.87586 217.509333 
L 276.06845 217.539562 
L 277.257859 217.640272 
L 278.444029 217.811238 
L 279.626915 218.052228 
L 280.806469 218.363001 
L 281.982637 218.743312 
L 283.155374 219.192907 
L 284.324635 219.711533 
L 285.490366 220.298924 
L 286.652524 220.954812 
L 287.811064 221.678922 
L 288.965944 222.470976 
L 290.117111 223.330686 
L 291.264528 224.257765 
L 292.408146 225.251908 
L 293.547923 226.312823 
L 294.683819 227.440198 
L 295.815791 228.633721 
L 296.943801 229.893083 
L 298.067805 231.217955 
L 299.18776 232.608006 
L 300.30363 234.062917 
L 301.415377 235.582342 
L 302.522961 237.165941 
L 303.626349 238.813385 
L 304.725498 240.524301 
L 305.820377 242.298355 
L 306.910945 244.13517 
L 307.99717 246.034401 
L 309.079017 247.995672 
L 310.156456 250.018625 
L 311.229447 252.102873 
L 312.297961 254.248045 
L 313.36197 256.45376 
L 314.421435 258.719627 
" clip-path="url(#p1f60501f38)" style="fill: none; stroke: #1f77b4; stroke-width: 1.5"/>
    <path d="M 215.234603 368.450389 
L 216.517152 363.716138 
L 217.800192 359.052186 
L 219.083646 354.458814 
L 220.367451 349.936263 
L 221.651542 345.484765 
L 222.935844 341.104583 
L 224.220293 336.795926 
L 225.50482 332.559027 
L 226.78936 328.394073 
L 228.073839 324.301305 
L 229.358196 320.280885 
L 230.642355 316.333045 
L 231.926251 312.457941 
L 233.209818 308.655748 
L 234.492987 304.926643 
L 235.775694 301.270766 
L 237.057868 297.68828 
L 238.339438 294.179342 
L 239.620339 290.744073 
L 240.900505 287.3826 
L 242.179868 284.095049 
L 243.458366 280.881514 
L 244.735923 277.742121 
L 246.012481 274.676948 
L 247.287966 271.686098 
L 248.562315 268.769644 
L 249.835463 265.927657 
L 251.107346 263.160192 
L 252.377893 260.467322 
L 253.647042 257.849085 
L 254.914731 255.305515 
L 256.180888 252.836658 
L 257.445452 250.442531 
L 258.708363 248.123143 
L 259.96955 245.878515 
L 261.228952 243.708642 
L 262.48651 241.613509 
L 263.742154 239.593114 
L 264.995825 237.647427 
L 266.247461 235.776416 
L 267.497003 233.980038 
L 268.744382 232.258259 
L 269.989542 230.611016 
L 271.232425 229.038244 
L 272.472963 227.539883 
L 273.711101 226.115852 
L 274.946781 224.766062 
L 276.179939 223.490428 
L 277.410519 222.288848 
L 278.638466 221.161211 
L 279.863719 220.107406 
L 281.086218 219.127314 
L 282.305908 218.220804 
L 283.522738 217.387737 
L 284.736644 216.627975 
L 285.947574 215.941365 
L 287.155478 215.327747 
L 288.360294 214.786961 
L 289.561971 214.318832 
L 290.76046 213.923184 
L 291.955701 213.599832 
L 293.147645 213.348584 
L 294.336241 213.169241 
L 295.52144 213.061597 
L 296.703186 213.025442 
L 297.881432 213.060559 
L 299.056132 213.166721 
L 300.227229 213.343697 
L 301.39468 213.591254 
L 302.55844 213.909144 
L 303.718454 214.29712 
L 304.874681 214.754925 
L 306.027076 215.2823 
L 307.175589 215.878975 
L 308.320177 216.544679 
L 309.460796 217.279133 
L 310.597407 218.082052 
L 311.72996 218.953146 
L 312.858419 219.892123 
L 313.982736 220.898673 
L 315.102872 221.972499 
L 316.218788 223.113285 
L 317.330445 224.320715 
L 318.437805 225.594473 
L 319.540827 226.934227 
L 320.63947 228.33964 
L 321.7337 229.810389 
L 322.823481 231.346122 
L 323.908777 232.946494 
L 324.989554 234.611172 
L 326.065774 236.339776 
L 327.137406 238.131969 
L 328.204413 239.987366 
L 329.266765 241.905619 
L 330.324429 243.886346 
L 331.377377 245.929183 
L 332.425572 248.033737 
L 333.468987 250.199633 
L 334.507596 252.426485 
L 335.541364 254.713894 
" clip-path="url(#p1f60501f38)" style="fill: none; stroke: #1f77b4; stroke-width: 1.5"/>
    <path d="M 237.494869 357.744527 
L 238.790746 352.966236 
L 240.086722 348.259073 
L 241.382721 343.623323 
L 242.678676 339.059233 
L 243.974522 334.567038 
L 245.270183 330.147006 
L 246.565592 325.799351 
L 247.860681 321.524309 
L 249.155384 317.322071 
L 250.449625 313.192882 
L 251.743341 309.136908 
L 253.036456 305.154383 
L 254.328905 301.245467 
L 255.620619 297.410338 
L 256.91153 293.649176 
L 258.201572 289.962124 
L 259.490674 286.349346 
L 260.778763 282.811002 
L 262.065776 279.347217 
L 263.351643 275.958118 
L 264.636298 272.643834 
L 265.919677 269.404459 
L 267.201705 266.240122 
L 268.482322 263.150903 
L 269.761454 260.136905 
L 271.039038 257.198201 
L 272.315007 254.334865 
L 273.5893 251.546952 
L 274.861844 248.834535 
L 276.132576 246.197652 
L 277.401434 243.636338 
L 278.668348 241.150638 
L 279.933255 238.74057 
L 281.196096 236.406143 
L 282.456799 234.147375 
L 283.715305 231.964263 
L 284.971553 229.856791 
L 286.225474 227.824951 
L 287.47701 225.86872 
L 288.726098 223.98806 
L 289.97268 222.182928 
L 291.216688 220.453284 
L 292.458065 218.799068 
L 293.696754 217.220213 
L 294.932689 215.716654 
L 296.165813 214.288312 
L 297.396071 212.93509 
L 298.623398 211.656904 
L 299.84774 210.453649 
L 301.069042 209.325209 
L 302.287244 208.271473 
L 303.502285 207.292317 
L 304.714115 206.387607 
L 305.92268 205.557201 
L 307.127919 204.800954 
L 308.329781 204.118715 
L 309.528216 203.510315 
L 310.723163 202.975595 
L 311.914573 202.514373 
L 313.102398 202.126467 
L 314.28658 201.81169 
L 315.46707 201.569842 
L 316.643818 201.400727 
L 317.816779 201.304126 
L 318.985895 201.279828 
L 320.151122 201.32761 
L 321.312415 201.447239 
L 322.46972 201.638481 
L 323.622994 201.901094 
L 324.772193 202.234829 
L 325.917266 202.639431 
L 327.058171 203.114636 
L 328.194867 203.660182 
L 329.327303 204.275791 
L 330.455441 204.961186 
L 331.579237 205.716082 
L 332.698654 206.54019 
L 333.813644 207.43321 
L 334.924172 208.394845 
L 336.030193 209.424779 
L 337.131671 210.522709 
L 338.228567 211.688311 
L 339.320843 212.921262 
L 340.408467 214.221241 
L 341.491397 215.587907 
L 342.569596 217.020917 
L 343.64303 218.519941 
L 344.711667 220.084619 
L 345.775472 221.714599 
L 346.834415 223.409541 
L 347.888457 225.169059 
L 348.937573 226.992807 
L 349.981727 228.880392 
L 351.020889 230.83146 
L 352.055032 232.84562 
L 353.084128 234.922502 
L 354.108144 237.061704 
L 355.127055 239.262844 
L 356.140836 241.525527 
L 357.149456 243.849349 
" clip-path="url(#p1f60501f38)" style="fill: none; stroke: #1f77b4; stroke-width: 1.5"/>
    <path d="M 260.211203 339.577408 
L 261.523048 334.745024 
L 262.834586 329.984874 
L 264.145737 325.29725 
L 265.456434 320.682407 
L 266.766612 316.140582 
L 268.07619 311.672051 
L 269.385102 307.277031 
L 270.693277 302.955764 
L 272.000649 298.708447 
L 273.307139 294.535327 
L 274.612685 290.436576 
L 275.917208 286.412431 
L 277.220643 282.463057 
L 278.522918 278.588635 
L 279.823965 274.789349 
L 281.123718 271.065344 
L 282.422103 267.416788 
L 283.719047 263.843845 
L 285.014485 260.346639 
L 286.308348 256.925303 
L 287.600568 253.579965 
L 288.89108 250.310724 
L 290.179808 247.117708 
L 291.466693 244.001 
L 292.75166 240.960704 
L 294.034644 237.996896 
L 295.315579 235.109645 
L 296.594402 232.299011 
L 297.87104 229.565066 
L 299.14543 226.907852 
L 300.417511 224.327399 
L 301.687211 221.823752 
L 302.954467 219.396935 
L 304.219219 217.046945 
L 305.481397 214.773805 
L 306.74094 212.577516 
L 307.997788 210.458055 
L 309.251872 208.415414 
L 310.503134 206.44956 
L 311.75151 204.560468 
L 312.996944 202.748083 
L 314.239368 201.012365 
L 315.478724 199.353253 
L 316.714956 197.770671 
L 317.947998 196.264558 
L 319.177795 194.834826 
L 320.404291 193.481383 
L 321.627422 192.204136 
L 322.847133 191.002971 
L 324.063372 189.877777 
L 325.276079 188.828434 
L 326.485194 187.854818 
L 327.690667 186.956782 
L 328.892445 186.134184 
L 330.090468 185.386879 
L 331.284686 184.714705 
L 332.475049 184.117492 
L 333.661499 183.595066 
L 334.843987 183.14725 
L 336.022467 182.77385 
L 337.196879 182.474674 
L 338.367179 182.249526 
L 339.533317 182.098185 
L 340.695248 182.020438 
L 341.852917 182.016062 
L 343.006281 182.084836 
L 344.155296 182.226513 
L 345.29991 182.440847 
L 346.44008 182.7276 
L 347.575766 183.086508 
L 348.706917 183.517309 
L 349.833493 184.019737 
L 350.955455 184.593516 
L 352.072754 185.238363 
L 353.185352 185.953991 
L 354.293209 186.740109 
L 355.396288 187.596418 
L 356.494544 188.522611 
L 357.587944 189.518382 
L 358.676445 190.583406 
L 359.760012 191.717371 
L 360.838609 192.919944 
L 361.9122 194.190795 
L 362.980754 195.529592 
L 364.044233 196.935985 
L 365.102601 198.409623 
L 366.155827 199.950164 
L 367.20388 201.557241 
L 368.246728 203.230492 
L 369.284343 204.969568 
L 370.316689 206.774071 
L 371.343743 208.643647 
L 372.365471 210.577893 
L 373.381846 212.576445 
L 374.392843 214.638901 
L 375.398438 216.764883 
L 376.398598 218.953977 
L 377.393302 221.205792 
L 378.382528 223.519923 
L 379.366247 225.895954 
" clip-path="url(#p1f60501f38)" style="fill: none; stroke: #1f77b4; stroke-width: 1.5"/>
    <path d="M 283.523387 313.599104 
L 284.854026 308.701912 
L 286.183931 303.878362 
L 287.513019 299.128754 
L 288.841222 294.453347 
L 290.168471 289.852387 
L 291.494685 285.326157 
L 292.819796 280.874879 
L 294.143731 276.498801 
L 295.466422 272.198124 
L 296.787788 267.973103 
L 298.107766 263.823914 
L 299.426276 259.7508 
L 300.74325 255.75393 
L 302.058616 251.833488 
L 303.372304 247.989663 
L 304.684246 244.222604 
L 305.994367 240.53248 
L 307.302594 236.919468 
L 308.60886 233.38368 
L 309.913094 229.925261 
L 311.215228 226.544338 
L 312.515196 223.241018 
L 313.812921 220.015422 
L 315.108342 216.867645 
L 316.401383 213.797782 
L 317.69198 210.805915 
L 318.980065 207.892117 
L 320.265575 205.056439 
L 321.548436 202.298962 
L 322.828585 199.619723 
L 324.105959 197.018755 
L 325.380485 194.496101 
L 326.652103 192.051779 
L 327.920751 189.6858 
L 329.186356 187.398175 
L 330.44886 185.188894 
L 331.708203 183.057946 
L 332.964314 181.005318 
L 334.217135 179.030972 
L 335.466604 177.134883 
L 336.712663 175.31699 
L 337.955244 173.577252 
L 339.19429 171.915604 
L 340.429747 170.331966 
L 341.661546 168.826271 
L 342.889633 167.398431 
L 344.113954 166.048346 
L 345.334444 164.77592 
L 346.55105 163.581033 
L 347.763719 162.463568 
L 348.972392 161.423403 
L 350.177009 160.460404 
L 351.377522 159.574421 
L 352.573879 158.765305 
L 353.766019 158.032904 
L 354.953894 157.37705 
L 356.137456 156.797566 
L 357.316646 156.294271 
L 358.491417 155.86698 
L 359.661723 155.515493 
L 360.827508 155.239609 
L 361.988726 155.039124 
L 363.145329 154.913811 
L 364.297275 154.863446 
L 365.444509 154.887805 
L 366.586988 154.98664 
L 367.724672 155.159708 
L 368.857509 155.406763 
L 369.985459 155.727543 
L 371.108482 156.121779 
L 372.226529 156.5892 
L 373.339562 157.12953 
L 374.447543 157.742486 
L 375.550426 158.427766 
L 376.648174 159.185081 
L 377.740749 160.014128 
L 378.828117 160.914593 
L 379.910232 161.886169 
L 380.987066 162.928526 
L 382.058576 164.041339 
L 383.124731 165.224278 
L 384.185496 166.477004 
L 385.240837 167.799162 
L 386.290726 169.190429 
L 387.335126 170.65043 
L 388.374004 172.178805 
L 389.407331 173.775201 
L 390.435079 175.439239 
L 391.457219 177.170544 
L 392.473723 178.968755 
L 393.484561 180.833463 
L 394.489709 182.764299 
L 395.489137 184.760852 
L 396.482822 186.82274 
L 397.470739 188.949553 
L 398.452867 191.140897 
L 399.429178 193.396348 
L 400.399651 195.7155 
L 401.364269 198.097936 
L 402.323004 200.543227 
" clip-path="url(#p1f60501f38)" style="fill: none; stroke: #1f77b4; stroke-width: 1.5"/>
    <path d="M 61.979632 246.140592 
L 64.242051 250.345244 
L 66.49971 254.474732 
L 68.75272 258.52934 
L 71.001209 262.50937 
L 73.245307 266.41512 
L 75.485121 270.246844 
L 77.72078 274.004831 
L 79.952403 277.689331 
L 82.180118 281.300624 
L 84.404029 284.838924 
L 86.62427 288.3045 
L 88.840944 291.697548 
L 91.054177 295.018314 
L 93.264085 298.267013 
L 95.470786 301.443842 
L 97.674402 304.549019 
L 99.875042 307.58273 
L 102.072817 310.545135 
L 104.267847 313.436442 
L 106.460249 316.256808 
L 108.650136 319.006397 
L 110.837629 321.685371 
L 113.022829 324.293868 
L 115.205864 326.832034 
L 117.386834 329.299995 
L 119.565858 331.697882 
L 121.743051 334.025811 
L 123.918531 336.283907 
L 126.092399 338.472253 
L 128.264773 340.590954 
L 130.435774 342.640106 
L 132.605499 344.619783 
L 134.774069 346.530061 
L 136.941603 348.371011 
L 139.108199 350.142689 
L 141.273977 351.845155 
L 143.439055 353.478453 
L 145.603532 355.042619 
L 147.767529 356.537691 
L 149.931157 357.963684 
L 152.094535 359.320627 
L 154.257763 360.608523 
L 156.42096 361.827376 
L 158.584246 362.97719 
L 160.747721 364.057944 
L 162.911505 365.069623 
L 165.075716 366.012201 
L 167.240457 366.885643 
L 169.405848 367.689916 
L 171.572009 368.424968 
L 173.739048 369.090744 
L 175.907074 369.687178 
L 178.076208 370.214208 
L 180.246572 370.671755 
L 182.418269 371.059729 
L 184.591422 371.378041 
L 186.766153 371.626594 
L 188.942567 371.805281 
L 191.120788 371.913984 
L 193.30094 371.952585 
L 195.483129 371.920953 
L 197.667479 371.818943 
L 199.854111 371.646419 
L 202.043152 371.403226 
L 204.234708 371.089197 
L 206.428908 370.704172 
L 208.625879 370.247969 
L 210.825732 369.7204 
L 213.028597 369.121273 
L 215.234603 368.450389 
L 217.443862 367.707538 
L 219.656506 366.892501 
L 221.872669 366.005047 
L 224.092463 365.044953 
L 226.316024 364.011966 
L 228.543479 362.905835 
L 230.774966 361.726301 
L 233.010601 360.47309 
L 235.250529 359.145927 
L 237.494869 357.744527 
L 239.743762 356.268588 
L 241.997341 354.717806 
L 244.255742 353.091875 
L 246.519109 351.390448 
L 248.787571 349.613207 
L 251.061263 347.759815 
L 253.340329 345.829902 
L 255.624912 343.823117 
L 257.915153 341.739087 
L 260.211203 339.577408 
L 262.513195 337.337716 
L 264.821286 335.019583 
L 267.135613 332.622619 
L 269.45633 330.146378 
L 271.783588 327.590437 
L 274.117546 324.954334 
L 276.458345 322.237628 
L 278.806145 319.439843 
L 281.161111 316.560495 
L 283.523387 313.599104 
" clip-path="url(#p1f60501f38)" style="fill: none; stroke: #1f77b4; stroke-width: 1.5"/>
    <path d="M 74.654898 202.606775 
L 76.912002 206.828732 
L 79.164572 210.97476 
L 81.412717 215.045144 
L 83.656565 219.040187 
L 85.896246 222.960191 
L 88.131867 226.805409 
L 90.363555 230.576132 
L 92.59143 234.272612 
L 94.815618 237.895129 
L 97.036224 241.4439 
L 99.253381 244.919194 
L 101.467193 248.321208 
L 103.677783 251.650188 
L 105.88527 254.906352 
L 108.089768 258.089896 
L 110.291402 261.20104 
L 112.490281 264.239967 
L 114.686513 267.206848 
L 116.88022 270.101876 
L 119.071518 272.92522 
L 121.260519 275.677037 
L 123.447346 278.357498 
L 125.6321 280.966732 
L 127.814906 283.504892 
L 129.995867 285.972101 
L 132.175101 288.368489 
L 134.352722 290.694175 
L 136.528849 292.949277 
L 138.703583 295.133885 
L 140.877043 297.248101 
L 143.049347 299.29202 
L 145.220597 301.265716 
L 147.39091 303.16926 
L 149.560406 305.002735 
L 151.729185 306.766189 
L 153.897366 308.45967 
L 156.065067 310.083237 
L 158.232389 311.636917 
L 160.39945 313.12075 
L 162.566364 314.534748 
L 164.733249 315.878941 
L 166.900207 317.153328 
L 169.067356 318.357914 
L 171.234817 319.492699 
L 173.402689 320.557663 
L 175.571094 321.552787 
L 177.740151 322.478045 
L 179.909962 323.333399 
L 182.080648 324.118815 
L 184.25233 324.834239 
L 186.425117 325.479613 
L 188.599117 326.054869 
L 190.774453 326.559945 
L 192.951248 326.994756 
L 195.129604 327.359213 
L 197.309645 327.653223 
L 199.491496 327.876685 
L 201.67526 328.029492 
L 203.861063 328.111522 
L 206.04903 328.122653 
L 208.239267 328.062754 
L 210.4319 327.931674 
L 212.62705 327.729276 
L 214.824845 327.4554 
L 217.025393 327.109882 
L 219.228823 326.692543 
L 221.435263 326.203207 
L 223.644825 325.641694 
L 225.85764 325.007793 
L 228.073839 324.301305 
L 230.293535 323.522017 
L 232.51686 322.669705 
L 234.743949 321.744138 
L 236.974917 320.74508 
L 239.2099 319.672282 
L 241.449027 318.525486 
L 243.692436 317.304425 
L 245.940245 316.008829 
L 248.192601 314.638408 
L 250.449625 313.192882 
L 252.711456 311.671937 
L 254.978232 310.075269 
L 257.25009 308.402556 
L 259.527174 306.65346 
L 261.809616 304.827651 
L 264.097551 302.924785 
L 266.391127 300.944489 
L 268.690486 298.886405 
L 270.995773 296.750154 
L 273.307139 294.535327 
L 275.624719 292.241553 
L 277.948674 289.868398 
L 280.27914 287.415465 
L 282.616275 284.882303 
L 284.96023 282.268481 
L 287.311168 279.573529 
L 289.66923 276.797003 
L 292.03458 273.938417 
L 294.407384 270.997279 
L 296.787788 267.973103 
" clip-path="url(#p1f60501f38)" style="fill: none; stroke: #1f77b4; stroke-width: 1.5"/>
    <path d="M 87.584977 166.414883 
L 89.832748 170.643801 
L 92.076225 174.796294 
L 94.315517 178.872647 
L 96.55075 182.873163 
L 98.782054 186.798144 
L 101.009533 190.647845 
L 103.233316 194.422555 
L 105.45352 198.122527 
L 107.670271 201.748042 
L 109.883674 205.299315 
L 112.09386 208.776617 
L 114.300932 212.180145 
L 116.505014 215.510144 
L 118.706223 218.766832 
L 120.904673 221.950407 
L 123.100488 225.061085 
L 125.293775 228.099051 
L 127.484644 231.064478 
L 129.673215 233.957554 
L 131.859603 236.778451 
L 134.043922 239.527326 
L 136.226291 242.204349 
L 138.406813 244.809646 
L 140.585612 247.343374 
L 142.762789 249.805652 
L 144.938464 252.196612 
L 147.11275 254.51637 
L 149.285765 256.765044 
L 151.45761 258.942725 
L 153.628403 261.049514 
L 155.798264 263.085505 
L 157.967291 265.050769 
L 160.135604 266.945383 
L 162.303322 268.76942 
L 164.470544 270.52293 
L 166.637389 272.205967 
L 168.803976 273.81858 
L 170.970404 275.360803 
L 173.136793 276.832662 
L 175.303255 278.234186 
L 177.469911 279.56539 
L 179.636858 280.826278 
L 181.804219 282.016854 
L 183.972111 283.13711 
L 186.140637 284.187032 
L 188.309915 285.166595 
L 190.480068 286.07578 
L 192.651195 286.914542 
L 194.823419 287.682839 
L 196.99686 288.380625 
L 199.171627 289.007837 
L 201.34783 289.564409 
L 203.52559 290.050268 
L 205.705032 290.465334 
L 207.886257 290.809521 
L 210.069391 291.082726 
L 212.254557 291.284853 
L 214.441861 291.415783 
L 216.631427 291.475402 
L 218.823381 291.463583 
L 221.01783 291.380188 
L 223.214901 291.225078 
L 225.414714 290.998096 
L 227.617398 290.699092 
L 229.823062 290.327893 
L 232.031834 289.884326 
L 234.243845 289.368209 
L 236.459206 288.779351 
L 238.678049 288.11755 
L 240.900505 287.3826 
L 243.126688 286.574287 
L 245.356732 285.692384 
L 247.590771 284.736656 
L 249.828921 283.706867 
L 252.071319 282.602762 
L 254.318095 281.424082 
L 256.569387 280.170558 
L 258.825316 278.841917 
L 261.086028 277.437864 
L 263.351643 275.958118 
L 265.622306 274.402362 
L 267.898152 272.770288 
L 270.17932 271.061571 
L 272.465954 269.275871 
L 274.75819 267.412852 
L 277.056161 265.47217 
L 279.360017 263.453447 
L 281.669902 261.356322 
L 283.985961 259.180411 
L 286.308348 256.925303 
L 288.637197 254.590623 
L 290.97267 252.175933 
L 293.314906 249.680834 
L 295.664063 247.104868 
L 298.020296 244.447602 
L 300.383766 241.708563 
L 302.754616 238.8873 
L 305.133013 235.983325 
L 307.519123 232.996143 
L 309.913094 229.925261 
" clip-path="url(#p1f60501f38)" style="fill: none; stroke: #1f77b4; stroke-width: 1.5"/>
    <path d="M 100.70124 137.713226 
L 102.935758 141.938723 
L 105.166235 146.08757 
L 107.392778 150.160052 
L 109.615512 154.156472 
L 111.834565 158.07713 
L 114.050042 161.922279 
L 116.262067 165.69221 
L 118.470758 169.387173 
L 120.676241 173.007448 
L 122.878617 176.55325 
L 125.078017 180.024848 
L 127.274543 183.422438 
L 129.468319 186.746266 
L 131.659458 189.996547 
L 133.848076 193.173477 
L 136.034294 196.277275 
L 138.21822 199.308122 
L 140.39996 202.26619 
L 142.579636 205.151669 
L 144.75736 207.964726 
L 146.933246 210.70552 
L 149.107413 213.374218 
L 151.279961 215.970948 
L 153.451015 218.495863 
L 155.620675 220.949083 
L 157.789059 223.330738 
L 159.95628 225.640943 
L 162.122456 227.879817 
L 164.287686 230.047448 
L 166.452089 232.143937 
L 168.615782 234.169377 
L 170.778864 236.123838 
L 172.941455 238.007395 
L 175.103671 239.820122 
L 177.265612 241.562066 
L 179.427397 243.233282 
L 181.589143 244.83382 
L 183.75095 246.363705 
L 185.912936 247.822972 
L 188.075214 249.211642 
L 190.237903 250.529735 
L 192.401102 251.777246 
L 194.564931 252.954183 
L 196.729508 254.060541 
L 198.894935 255.096297 
L 201.061331 256.061433 
L 203.228816 256.955921 
L 205.397492 257.77972 
L 207.567479 258.532787 
L 209.738898 259.215073 
L 211.911859 259.826516 
L 214.086469 260.367048 
L 216.262851 260.836595 
L 218.441128 261.235078 
L 220.621404 261.562404 
L 222.803802 261.818477 
L 224.988445 262.003193 
L 227.17544 262.116439 
L 229.364911 262.158097 
L 231.556983 262.128034 
L 233.751764 262.026118 
L 235.949381 261.852204 
L 238.149953 261.606141 
L 240.353609 261.287768 
L 242.560459 260.89692 
L 244.770631 260.433418 
L 246.984256 259.89708 
L 249.201445 259.287714 
L 251.422329 258.605119 
L 253.647042 257.849085 
L 255.875695 257.019397 
L 258.108424 256.115831 
L 260.345363 255.138146 
L 262.586629 254.086108 
L 264.832357 252.959459 
L 267.082679 251.757941 
L 269.337734 250.481282 
L 271.597641 249.129209 
L 273.862548 247.701427 
L 276.132576 246.197652 
L 278.407868 244.617566 
L 280.688561 242.960861 
L 282.974794 241.227211 
L 285.266713 239.416274 
L 287.564452 237.527714 
L 289.868145 235.561185 
L 292.177944 233.516308 
L 294.493993 231.392721 
L 296.816437 229.19004 
L 299.14543 226.907852 
L 301.481108 224.54578 
L 303.823634 222.103387 
L 306.173146 219.580271 
L 308.529803 216.975975 
L 310.89376 214.290062 
L 313.265181 211.522061 
L 315.644209 208.671518 
L 318.03101 205.737945 
L 320.425752 202.720843 
L 322.828585 199.619723 
" clip-path="url(#p1f60501f38)" style="fill: none; stroke: #1f77b4; stroke-width: 1.5"/>
    <path d="M 113.933863 116.571022 
L 116.151347 120.782812 
L 118.365051 124.918002 
L 120.575082 128.976872 
L 122.781563 132.959724 
L 124.98462 136.866856 
L 127.184355 140.698519 
L 129.380893 144.455 
L 131.574349 148.136549 
L 133.764847 151.743442 
L 135.952487 155.275894 
L 138.137398 158.734171 
L 140.319681 162.118467 
L 142.499458 165.429026 
L 144.676841 168.666062 
L 146.851944 171.829769 
L 149.024887 174.920363 
L 151.195776 177.938024 
L 153.364718 180.882924 
L 155.53183 183.755249 
L 157.697226 186.555166 
L 159.861016 189.282832 
L 162.023319 191.938412 
L 164.184234 194.522033 
L 166.343885 197.033847 
L 168.502371 199.473972 
L 170.659807 201.842537 
L 172.816307 204.139656 
L 174.971987 206.365447 
L 177.126944 208.519994 
L 179.281297 210.603401 
L 181.435162 212.615757 
L 183.588638 214.557132 
L 185.741841 216.4276 
L 187.89489 218.227233 
L 190.047881 219.956078 
L 192.200932 221.61419 
L 194.354161 223.201615 
L 196.507666 224.71838 
L 198.661565 226.164518 
L 200.815969 227.54005 
L 202.970996 228.844993 
L 205.126746 230.079346 
L 207.283336 231.243111 
L 209.440885 232.336284 
L 211.599493 233.358843 
L 213.75928 234.310768 
L 215.920364 235.192031 
L 218.082845 236.00259 
L 220.246845 236.742403 
L 222.412484 237.411418 
L 224.579869 238.009575 
L 226.749108 238.536804 
L 228.920324 238.993031 
L 231.093639 239.378178 
L 233.269155 239.69215 
L 235.446996 239.934853 
L 237.627285 240.106181 
L 239.810127 240.206021 
L 241.995646 240.234253 
L 244.183968 240.190749 
L 246.375198 240.075373 
L 248.569463 239.887982 
L 250.766884 239.628423 
L 252.967588 239.296537 
L 255.171683 238.892158 
L 257.379299 238.415109 
L 259.590566 237.865206 
L 261.805594 237.242258 
L 264.024515 236.546064 
L 266.247461 235.776416 
L 268.474544 234.933098 
L 270.705899 234.015886 
L 272.941661 233.024541 
L 275.181944 231.958828 
L 277.426886 230.818491 
L 279.676617 229.603271 
L 281.931275 228.312899 
L 284.190981 226.9471 
L 286.455882 225.505581 
L 288.726098 223.98806 
L 291.001772 222.394219 
L 293.283042 220.72375 
L 295.570046 218.97633 
L 297.86293 217.151615 
L 300.161828 215.249274 
L 302.466875 213.268958 
L 304.778221 211.210293 
L 307.09601 209.072916 
L 309.420388 206.856445 
L 311.75151 204.560468 
L 314.089509 202.184611 
L 316.434551 199.728436 
L 318.786772 197.191544 
L 321.146332 194.57348 
L 323.513386 191.873809 
L 325.888097 189.09206 
L 328.27061 186.227783 
L 330.661089 183.28049 
L 333.059704 180.249687 
L 335.466604 177.134883 
" clip-path="url(#p1f60501f38)" style="fill: none; stroke: #1f77b4; stroke-width: 1.5"/>
    <path d="M 127.213049 102.97861 
L 129.40989 107.166645 
L 131.603221 111.278395 
L 133.793146 115.314139 
L 135.979786 119.274172 
L 138.163263 123.15879 
L 140.343681 126.968242 
L 142.521159 130.70281 
L 144.695813 134.362741 
L 146.867762 137.948309 
L 149.037107 141.459724 
L 151.203973 144.897252 
L 153.368461 148.261081 
L 155.530688 151.551455 
L 157.690768 154.768583 
L 159.848811 157.912657 
L 162.004935 160.983892 
L 164.159246 163.982465 
L 166.311847 166.908544 
L 168.462855 169.762315 
L 170.612382 172.543941 
L 172.760536 175.253578 
L 174.907436 177.891389 
L 177.053177 180.457498 
L 179.197882 182.952056 
L 181.341648 185.37518 
L 183.484592 187.726995 
L 185.626822 190.007616 
L 187.768454 192.217157 
L 189.909586 194.355703 
L 192.050333 196.423354 
L 194.19081 198.4202 
L 196.331114 200.346308 
L 198.471362 202.201752 
L 200.611669 203.986603 
L 202.752131 205.700906 
L 204.892865 207.344714 
L 207.033987 208.918075 
L 209.175595 210.421014 
L 211.317803 211.853563 
L 213.460724 213.215742 
L 215.604473 214.507567 
L 217.749149 215.729038 
L 219.894868 216.880156 
L 222.041749 217.960916 
L 224.189889 218.971297 
L 226.339407 219.911277 
L 228.490421 220.780829 
L 230.643031 221.579911 
L 232.797355 222.308481 
L 234.953514 222.966486 
L 237.111613 223.553867 
L 239.27176 224.070555 
L 241.434077 224.516476 
L 243.598683 224.89155 
L 245.765681 225.195686 
L 247.935194 225.428788 
L 250.107343 225.590752 
L 252.282233 225.681466 
L 254.459987 225.700809 
L 256.640729 225.648655 
L 258.824565 225.524869 
L 261.01162 225.329309 
L 263.202014 225.061823 
L 265.395873 224.722253 
L 267.593306 224.310434 
L 269.79444 223.826191 
L 271.999405 223.269341 
L 274.208311 222.639696 
L 276.421287 221.937054 
L 278.638466 221.161211 
L 280.859959 220.311951 
L 283.085901 219.389053 
L 285.316424 218.39228 
L 287.551643 217.321399 
L 289.791695 216.176156 
L 292.03671 214.956295 
L 294.286824 213.661547 
L 296.542158 212.291643 
L 298.802857 210.84629 
L 301.069042 209.325209 
L 303.340855 207.728086 
L 305.618433 206.054614 
L 307.901913 204.304474 
L 310.191442 202.477327 
L 312.487151 200.572841 
L 314.789175 198.590674 
L 317.097664 196.530454 
L 319.412762 194.391822 
L 321.734614 192.174399 
L 324.063372 189.877777 
L 326.399172 187.501586 
L 328.742177 185.045393 
L 331.092523 182.508802 
L 333.45037 179.891362 
L 335.815871 177.192644 
L 338.18919 174.41218 
L 340.57047 171.549526 
L 342.959876 168.604198 
L 345.357576 165.575707 
L 347.763719 162.463568 
" clip-path="url(#p1f60501f38)" style="fill: none; stroke: #1f77b4; stroke-width: 1.5"/>
    <path d="M 140.470199 96.849666 
L 142.642997 101.004259 
L 144.812557 105.083141 
L 146.978982 109.086586 
L 149.14239 113.014887 
L 151.302902 116.868331 
L 153.460617 120.647165 
L 155.615654 124.351667 
L 157.768124 127.982079 
L 159.918147 131.53867 
L 162.065819 135.021648 
L 164.211264 138.431273 
L 166.35458 141.767732 
L 168.495883 145.031263 
L 170.635284 148.222073 
L 172.772891 151.340351 
L 174.908821 154.386307 
L 177.043175 157.360115 
L 179.176057 160.261942 
L 181.307581 163.091969 
L 183.437856 165.850359 
L 185.56699 168.537261 
L 187.695098 171.15284 
L 189.822274 173.697216 
L 191.948639 176.170536 
L 194.07429 178.572916 
L 196.199338 180.904481 
L 198.323893 183.165341 
L 200.448068 185.355609 
L 202.571958 187.475369 
L 204.695677 189.524719 
L 206.81934 191.503747 
L 208.94304 193.41252 
L 211.066893 195.251109 
L 213.191012 197.019584 
L 215.315493 198.717991 
L 217.440449 200.34638 
L 219.565997 201.904799 
L 221.69223 203.393271 
L 223.819264 204.811829 
L 225.947208 206.160491 
L 228.076176 207.439275 
L 230.206266 208.648178 
L 232.337593 209.787202 
L 234.470272 210.856342 
L 236.604402 211.855576 
L 238.740098 212.784884 
L 240.877477 213.644238 
L 243.016638 214.433596 
L 245.157698 215.152916 
L 247.300775 215.802149 
L 249.445974 216.381233 
L 251.593402 216.8901 
L 253.743178 217.32868 
L 255.895421 217.696891 
L 258.050232 217.994644 
L 260.207733 218.221845 
L 262.368043 218.37839 
L 264.531266 218.464169 
L 266.697525 218.479064 
L 268.86694 218.422949 
L 271.039618 218.295692 
L 273.215683 218.097151 
L 275.395251 217.827179 
L 277.578449 217.485618 
L 279.765384 217.072307 
L 281.956183 216.587072 
L 284.150973 216.029733 
L 286.349862 215.400105 
L 288.552981 214.69799 
L 290.76046 213.923184 
L 292.972409 213.075477 
L 295.18896 212.15465 
L 297.410246 211.16047 
L 299.636381 210.092706 
L 301.867499 208.95111 
L 304.103729 207.735428 
L 306.345208 206.445396 
L 308.592054 205.080748 
L 310.84441 203.641197 
L 313.102398 202.126467 
L 315.366159 200.536248 
L 317.635826 198.870241 
L 319.911537 197.128128 
L 322.193435 195.309577 
L 324.481654 193.414261 
L 326.776326 191.441844 
L 329.077599 189.391958 
L 331.385616 187.26425 
L 333.700521 185.058349 
L 336.022467 182.77385 
L 338.351585 180.410392 
L 340.688038 177.967547 
L 343.031962 175.444926 
L 345.383516 172.842085 
L 347.74285 170.158601 
L 350.110129 167.394014 
L 352.485491 164.547888 
L 354.869104 161.619746 
L 357.261132 158.609106 
L 359.661723 155.515493 
" clip-path="url(#p1f60501f38)" style="fill: none; stroke: #1f77b4; stroke-width: 1.5"/>
    <path d="M 153.639031 98.025237 
L 155.784618 102.137178 
L 157.927242 106.174228 
L 160.067001 110.136656 
L 162.204013 114.024748 
L 164.338395 117.838786 
L 166.470243 121.579011 
L 168.599673 125.245696 
L 170.726796 128.839079 
L 172.851725 132.359422 
L 174.974557 135.80693 
L 177.095412 139.181857 
L 179.214386 142.484385 
L 181.331593 145.714749 
L 183.44714 148.873152 
L 185.561133 151.959777 
L 187.673687 154.974832 
L 189.784901 157.918488 
L 191.894876 160.790906 
L 194.003725 163.592264 
L 196.111552 166.322723 
L 198.218465 168.982429 
L 200.324576 171.571542 
L 202.429977 174.090181 
L 204.534787 176.53849 
L 206.6391 178.916583 
L 208.743026 181.22458 
L 210.846672 183.462591 
L 212.950148 185.630727 
L 215.05355 187.72907 
L 217.156987 189.757716 
L 219.260572 191.71675 
L 221.364398 193.606238 
L 223.468578 195.426252 
L 225.573223 197.176857 
L 227.678426 198.8581 
L 229.7843 200.470031 
L 231.890957 202.012694 
L 233.998492 203.486115 
L 236.107017 204.890324 
L 238.216639 206.225339 
L 240.327471 207.491179 
L 242.439608 208.687838 
L 244.553164 209.815322 
L 246.668252 210.873623 
L 248.784968 211.862721 
L 250.903427 212.782596 
L 253.023744 213.63322 
L 255.146015 214.414553 
L 257.270356 215.126552 
L 259.396882 215.769171 
L 261.525699 216.342347 
L 263.65691 216.846017 
L 265.790633 217.280108 
L 267.926985 217.644543 
L 270.066066 217.939234 
L 272.207995 218.164087 
L 274.352891 218.319002 
L 276.500855 218.403871 
L 278.652007 218.418579 
L 280.806469 218.363001 
L 282.964344 218.237008 
L 285.125753 218.040463 
L 287.290813 217.773219 
L 289.459649 217.435123 
L 291.632365 217.026017 
L 293.809086 216.54573 
L 295.989939 215.994086 
L 298.17503 215.370904 
L 300.364488 214.67599 
L 302.55844 213.909144 
L 304.756996 213.070161 
L 306.960287 212.158825 
L 309.168443 211.174909 
L 311.381576 210.118188 
L 313.59982 208.988416 
L 315.823301 207.785347 
L 318.052154 206.508721 
L 320.286496 205.158279 
L 322.52647 203.733738 
L 324.772193 202.234829 
L 327.023805 200.661249 
L 329.28144 199.012704 
L 331.545232 197.288884 
L 333.815324 195.489462 
L 336.091846 193.614121 
L 338.37493 191.66253 
L 340.664721 189.634328 
L 342.961362 187.529172 
L 345.264993 185.346697 
L 347.575766 183.086508 
L 349.893812 180.74825 
L 352.219291 178.331506 
L 354.552336 175.835894 
L 356.893105 173.26098 
L 359.241748 170.606351 
L 361.598425 167.871557 
L 363.963275 165.05617 
L 366.336462 162.159725 
L 368.718149 159.181749 
L 371.108482 156.121779 
" clip-path="url(#p1f60501f38)" style="fill: none; stroke: #1f77b4; stroke-width: 1.5"/>
    <path d="M 166.656595 106.279434 
L 168.772059 110.34009 
L 170.884832 114.326906 
L 172.995011 118.240143 
L 175.102709 122.08008 
L 177.20804 125.846996 
L 179.3111 129.541121 
L 181.411999 133.162724 
L 183.510846 136.712036 
L 185.607751 140.189315 
L 187.702808 143.594758 
L 189.796135 146.928615 
L 191.887825 150.191063 
L 193.977988 153.382331 
L 196.06673 156.502618 
L 198.154154 159.552102 
L 200.24037 162.530986 
L 202.325478 165.439437 
L 204.409574 168.277612 
L 206.492768 171.045687 
L 208.575164 173.743815 
L 210.656865 176.372142 
L 212.73798 178.930823 
L 214.818602 181.419974 
L 216.898845 183.839737 
L 218.9788 186.190221 
L 221.058576 188.471546 
L 223.138277 190.683817 
L 225.218011 192.827144 
L 227.297871 194.901606 
L 229.377964 196.907297 
L 231.458401 198.844302 
L 233.539273 200.712684 
L 235.620688 202.512512 
L 237.702758 204.243853 
L 239.785572 205.906751 
L 241.869242 207.501254 
L 243.953877 209.027406 
L 246.03957 210.485235 
L 248.126429 211.874765 
L 250.214562 213.19602 
L 252.304077 214.449013 
L 254.395069 215.633744 
L 256.487648 216.750215 
L 258.581926 217.798419 
L 260.677997 218.778338 
L 262.775973 219.689948 
L 264.875968 220.533231 
L 266.978075 221.308141 
L 269.082408 222.014638 
L 271.18908 222.652677 
L 273.298195 223.222199 
L 275.409854 223.72314 
L 277.524173 224.15543 
L 279.641266 224.518993 
L 281.761233 224.813748 
L 283.884188 225.039597 
L 286.010251 225.196448 
L 288.139519 225.284192 
L 290.272111 225.302718 
L 292.408146 225.251908 
L 294.547725 225.131633 
L 296.690967 224.94176 
L 298.837989 224.682144 
L 300.988911 224.352642 
L 303.143836 223.953093 
L 305.302888 223.483335 
L 307.466191 222.943197 
L 309.633849 222.3325 
L 311.805989 221.651057 
L 313.982736 220.898673 
L 316.164198 220.075147 
L 318.350503 219.180272 
L 320.54178 218.213823 
L 322.738139 217.175583 
L 324.939712 216.065313 
L 327.146622 214.882773 
L 329.359003 213.62771 
L 331.576968 212.299871 
L 333.80066 210.898981 
L 336.030193 209.424779 
L 338.265705 207.876969 
L 340.507327 206.255265 
L 342.755192 204.559366 
L 345.00944 202.788953 
L 347.2702 200.943717 
L 349.537599 199.023337 
L 351.811784 197.027461 
L 354.092892 194.955756 
L 356.381062 192.807865 
L 358.676445 190.583406 
L 360.979167 188.282032 
L 363.289388 185.903337 
L 365.607239 183.446951 
L 367.932873 180.912451 
L 370.266439 178.299435 
L 372.608095 175.607464 
L 374.957978 172.836124 
L 377.316248 169.984961 
L 379.683066 167.053517 
L 382.058576 164.041339 
" clip-path="url(#p1f60501f38)" style="fill: none; stroke: #1f77b4; stroke-width: 1.5"/>
    <path d="M 179.464124 121.326458 
L 181.546823 125.327857 
L 183.627101 129.256677 
L 185.70505 133.113174 
L 187.780782 136.897618 
L 189.854405 140.610279 
L 191.926013 144.251383 
L 193.995714 147.82119 
L 196.063612 151.319926 
L 198.129815 154.747839 
L 200.194414 158.105123 
L 202.257523 161.392021 
L 204.319232 164.608704 
L 206.37965 167.755395 
L 208.438877 170.832287 
L 210.497016 173.839554 
L 212.554173 176.777394 
L 214.610443 179.645968 
L 216.665922 182.44543 
L 218.720717 185.17595 
L 220.774927 187.837678 
L 222.828655 190.430756 
L 224.882006 192.955334 
L 226.935069 195.411526 
L 228.987957 197.799469 
L 231.040757 200.11927 
L 233.093577 202.371045 
L 235.146517 204.5549 
L 237.199683 206.670937 
L 239.253164 208.719237 
L 241.307067 210.699888 
L 243.361498 212.612976 
L 245.416546 214.458562 
L 247.472318 216.236708 
L 249.528921 217.94749 
L 251.586444 219.590946 
L 253.644995 221.167117 
L 255.70468 222.676054 
L 257.76559 224.11778 
L 259.827833 225.492327 
L 261.89151 226.799704 
L 263.95673 228.039936 
L 266.023583 229.213019 
L 268.092179 230.318954 
L 270.162627 231.35774 
L 272.235018 232.329356 
L 274.309462 233.233781 
L 276.386069 234.070991 
L 278.464931 234.840947 
L 280.54616 235.543617 
L 282.629867 236.178948 
L 284.716152 236.746886 
L 286.805114 237.247368 
L 288.896867 237.680333 
L 290.991524 238.045703 
L 293.089179 238.343394 
L 295.189948 238.57332 
L 297.293945 238.735387 
L 299.401267 238.829495 
L 301.512029 238.855532 
L 303.626349 238.813385 
L 305.744325 238.702931 
L 307.866075 238.524033 
L 309.99171 238.276564 
L 312.12135 237.960377 
L 314.255097 237.575322 
L 316.39307 237.121232 
L 318.535391 236.597948 
L 320.682164 236.005304 
L 322.83351 235.343106 
L 324.989554 234.611172 
L 327.150402 233.809308 
L 329.316178 232.937309 
L 331.487009 231.994962 
L 333.663003 230.982054 
L 335.844287 229.898357 
L 338.030986 228.743635 
L 340.223228 227.517644 
L 342.421125 226.22014 
L 344.624816 224.850857 
L 346.834415 223.409541 
L 349.050055 221.895907 
L 351.271866 220.309677 
L 353.499977 218.650559 
L 355.734526 216.918246 
L 357.975638 215.112438 
L 360.223441 213.232825 
L 362.478076 211.279065 
L 364.739678 209.250836 
L 367.008385 207.147795 
L 369.284343 204.969568 
L 371.567676 202.715822 
L 373.858541 200.386164 
L 376.157065 197.980236 
L 378.463401 195.497627 
L 380.777694 192.93795 
L 383.100097 190.30078 
L 385.430746 187.585715 
L 387.769797 184.792317 
L 390.11741 181.920143 
L 392.473723 178.968755 
" clip-path="url(#p1f60501f38)" style="fill: none; stroke: #1f77b4; stroke-width: 1.5"/>
    <path d="M 192.007752 142.828605 
L 194.055327 146.763497 
L 196.100744 150.627265 
L 198.144092 154.420155 
L 200.185479 158.14243 
L 202.22501 161.794351 
L 204.262775 165.376137 
L 206.298879 168.888038 
L 208.333422 172.330275 
L 210.36651 175.703088 
L 212.39823 179.006664 
L 214.428693 182.241239 
L 216.457986 185.406979 
L 218.486213 188.504099 
L 220.513473 191.532787 
L 222.539865 194.493212 
L 224.565492 197.385565 
L 226.590446 200.210005 
L 228.61482 202.966671 
L 230.638718 205.655743 
L 232.662236 208.277357 
L 234.685473 210.831655 
L 236.708533 213.318776 
L 238.7315 215.73884 
L 240.754485 218.09197 
L 242.777573 220.378278 
L 244.800867 222.597873 
L 246.824466 224.750856 
L 248.848473 226.837335 
L 250.872973 228.857379 
L 252.898071 230.811077 
L 254.923871 232.698513 
L 256.950457 234.519747 
L 258.977935 236.274844 
L 261.006409 237.963863 
L 263.035964 239.58685 
L 265.066707 241.143857 
L 267.09874 242.634917 
L 269.132152 244.06006 
L 271.167048 245.419316 
L 273.203526 246.712695 
L 275.241693 247.94022 
L 277.281637 249.10189 
L 279.323463 250.197705 
L 281.367279 251.227666 
L 283.413172 252.191751 
L 285.461251 253.089942 
L 287.511623 253.922216 
L 289.564377 254.688535 
L 291.619622 255.38887 
L 293.677467 256.02317 
L 295.738009 256.591382 
L 297.801344 257.093447 
L 299.867584 257.529307 
L 301.936838 257.898886 
L 304.0092 258.202104 
L 306.084781 258.438878 
L 308.163693 258.609118 
L 310.246031 258.712728 
L 312.331907 258.749601 
L 314.421435 258.719627 
L 316.514712 258.62269 
L 318.611852 258.458656 
L 320.712965 258.227403 
L 322.818168 257.928791 
L 324.927558 257.562669 
L 327.041254 257.128892 
L 329.159374 256.627298 
L 331.282019 256.057716 
L 333.409309 255.419975 
L 335.541364 254.713894 
L 337.678288 253.939288 
L 339.820203 253.095957 
L 341.967232 252.183696 
L 344.119481 251.202305 
L 346.277075 250.151559 
L 348.440134 249.031232 
L 350.608784 247.841093 
L 352.783135 246.580898 
L 354.963322 245.250401 
L 357.149456 243.849349 
L 359.341669 242.377473 
L 361.540085 240.834501 
L 363.744832 239.220164 
L 365.956045 237.534148 
L 368.173846 235.776176 
L 370.398358 233.945946 
L 372.62972 232.043131 
L 374.868065 230.067419 
L 377.113527 228.018479 
L 379.366247 225.895954 
L 381.626349 223.699521 
L 383.893984 221.428802 
L 386.169279 219.083452 
L 388.45238 216.663078 
L 390.743429 214.167304 
L 393.042578 211.595722 
L 395.349958 208.947947 
L 397.665722 206.223557 
L 399.990025 203.422123 
L 402.323004 200.543227 
" clip-path="url(#p1f60501f38)" style="fill: none; stroke: #1f77b4; stroke-width: 1.5"/>
   </g>
  </g>
 </g>
 <defs>
  <clipPath id="p1f60501f38">
   <rect x="7.2" y="7.2" width="443.52" height="443.52"/>
  </clipPath>
 </defs>
</svg>
