<?xml version="1.0" encoding="utf-8" standalone="no"?>
<!DOCTYPE svg PUBLIC "-//W3C//DTD SVG 1.1//EN"
  "http://www.w3.org/Graphics/SVG/1.1/DTD/svg11.dtd">
<svg xmlns:xlink="http://www.w3.org/1999/xlink" width="735.460937pt" height="331.634375pt" viewBox="0 0 735.460937 331.634375" xmlns="http://www.w3.org/2000/svg" version="1.1">
 <metadata>
  <rdf:RDF xmlns:dc="http://purl.org/dc/elements/1.1/" xmlns:cc="http://creativecommons.org/ns#" xmlns:rdf="http://www.w3.org/1999/02/22-rdf-syntax-ns#">
   <cc:Work>
    <dc:type rdf:resource="http://purl.org/dc/dcmitype/StillImage"/>
    <dc:date>2025-06-30T15:23:13.636657</dc:date>
    <dc:format>image/svg+xml</dc:format>
    <dc:creator>
     <cc:Agent>
      <dc:title>Matplotlib v3.7.2, https://matplotlib.org/</dc:title>
     </cc:Agent>
    </dc:creator>
   </cc:Work>
  </rdf:RDF>
 </metadata>
 <defs>
  <style type="text/css">*{stroke-linejoin: round; stroke-linecap: butt}</style>
 </defs>
 <g id="figure_1">
  <g id="patch_1">
   <path d="M 0 331.634375 
L 735.460937 331.634375 
L 735.460937 0 
L 0 0 
z
" style="fill: #ffffff"/>
  </g>
  <g id="axes_1">
   <g id="patch_2">
    <path d="M 58.660938 284.4 
L 728.260938 284.4 
L 728.260938 7.2 
L 58.660938 7.2 
z
" style="fill: #ffffff"/>
   </g>
   <g id="PolyCollection_1">
    <path d="M 89.097301 89.374449 
L 89.097301 235.683799 
L 101.520307 232.815082 
L 113.943312 229.951455 
L 126.366318 227.093596 
L 138.789323 224.242305 
L 151.212329 221.398538 
L 163.635335 218.56344 
L 176.05834 215.738396 
L 188.481346 212.925097 
L 200.904351 210.125627 
L 213.327357 207.342576 
L 225.750362 204.579205 
L 238.173368 201.839664 
L 250.596373 199.129305 
L 263.019379 196.455123 
L 275.442385 193.826393 
L 287.86539 191.255594 
L 300.288396 188.759765 
L 312.711401 186.362471 
L 325.134407 184.096595 
L 337.557412 182.008051 
L 349.980418 180.159973 
L 362.403424 178.63535 
L 374.826429 177.533111 
L 387.249435 176.950434 
L 399.67244 176.950434 
L 412.095446 177.533111 
L 424.518451 178.63535 
L 436.941457 180.159973 
L 449.364463 182.008051 
L 461.787468 184.096595 
L 474.210474 186.362471 
L 486.633479 188.759765 
L 499.056485 191.255594 
L 511.47949 193.826393 
L 523.902496 196.455123 
L 536.325502 199.129305 
L 548.748507 201.839664 
L 561.171513 204.579205 
L 573.594518 207.342576 
L 586.017524 210.125627 
L 598.440529 212.925097 
L 610.863535 215.738396 
L 623.28654 218.56344 
L 635.709546 221.398538 
L 648.132552 224.242305 
L 660.555557 227.093596 
L 672.978563 229.951455 
L 685.401568 232.815082 
L 697.824574 235.683799 
L 697.824574 89.374449 
L 697.824574 89.374449 
L 685.401568 92.243166 
L 672.978563 95.106793 
L 660.555557 97.964652 
L 648.132552 100.815942 
L 635.709546 103.659709 
L 623.28654 106.494808 
L 610.863535 109.319851 
L 598.440529 112.13315 
L 586.017524 114.932621 
L 573.594518 117.715672 
L 561.171513 120.479043 
L 548.748507 123.218583 
L 536.325502 125.928942 
L 523.902496 128.603124 
L 511.47949 131.231855 
L 499.056485 133.802654 
L 486.633479 136.298482 
L 474.210474 138.695776 
L 461.787468 140.961653 
L 449.364463 143.050196 
L 436.941457 144.898274 
L 424.518451 146.422898 
L 412.095446 147.525136 
L 399.67244 148.107813 
L 387.249435 148.107813 
L 374.826429 147.525136 
L 362.403424 146.422898 
L 349.980418 144.898274 
L 337.557412 143.050196 
L 325.134407 140.961653 
L 312.711401 138.695776 
L 300.288396 136.298482 
L 287.86539 133.802654 
L 275.442385 131.231855 
L 263.019379 128.603124 
L 250.596373 125.928942 
L 238.173368 123.218583 
L 225.750362 120.479043 
L 213.327357 117.715672 
L 200.904351 114.932621 
L 188.481346 112.13315 
L 176.05834 109.319851 
L 163.635335 106.494808 
L 151.212329 103.659709 
L 138.789323 100.815942 
L 126.366318 97.964652 
L 113.943312 95.106793 
L 101.520307 92.243166 
L 89.097301 89.374449 
z
" clip-path="url(#pc595e8c271)" style="fill: #1f77b4; fill-opacity: 0.25"/>
   </g>
   <g id="matplotlib.axis_1">
    <g id="xtick_1">
     <g id="line2d_1">
      <defs>
       <path id="m38f2881d12" d="M 0 0 
L 0 3.5 
" style="stroke: #000000; stroke-width: 0.8"/>
      </defs>
      <g>
       <use xlink:href="#m38f2881d12" x="149.970028" y="284.4" style="stroke: #000000; stroke-width: 0.8"/>
      </g>
     </g>
     <g id="text_1">
      <!-- −4 -->
      <g transform="translate(142.598935 298.998437) scale(0.1 -0.1)">
       <defs>
        <path id="DejaVuSans-2212" d="M 678 2272 
L 4684 2272 
L 4684 1741 
L 678 1741 
L 678 2272 
z
" transform="scale(0.015625)"/>
        <path id="DejaVuSans-34" d="M 2419 4116 
L 825 1625 
L 2419 1625 
L 2419 4116 
z
M 2253 4666 
L 3047 4666 
L 3047 1625 
L 3713 1625 
L 3713 1100 
L 3047 1100 
L 3047 0 
L 2419 0 
L 2419 1100 
L 313 1100 
L 313 1709 
L 2253 4666 
z
" transform="scale(0.015625)"/>
       </defs>
       <use xlink:href="#DejaVuSans-2212"/>
       <use xlink:href="#DejaVuSans-34" x="83.789062"/>
      </g>
     </g>
    </g>
    <g id="xtick_2">
     <g id="line2d_2">
      <g>
       <use xlink:href="#m38f2881d12" x="271.715483" y="284.4" style="stroke: #000000; stroke-width: 0.8"/>
      </g>
     </g>
     <g id="text_2">
      <!-- −2 -->
      <g transform="translate(264.344389 298.998437) scale(0.1 -0.1)">
       <defs>
        <path id="DejaVuSans-32" d="M 1228 531 
L 3431 531 
L 3431 0 
L 469 0 
L 469 531 
Q 828 903 1448 1529 
Q 2069 2156 2228 2338 
Q 2531 2678 2651 2914 
Q 2772 3150 2772 3378 
Q 2772 3750 2511 3984 
Q 2250 4219 1831 4219 
Q 1534 4219 1204 4116 
Q 875 4013 500 3803 
L 500 4441 
Q 881 4594 1212 4672 
Q 1544 4750 1819 4750 
Q 2544 4750 2975 4387 
Q 3406 4025 3406 3419 
Q 3406 3131 3298 2873 
Q 3191 2616 2906 2266 
Q 2828 2175 2409 1742 
Q 1991 1309 1228 531 
z
" transform="scale(0.015625)"/>
       </defs>
       <use xlink:href="#DejaVuSans-2212"/>
       <use xlink:href="#DejaVuSans-32" x="83.789062"/>
      </g>
     </g>
    </g>
    <g id="xtick_3">
     <g id="line2d_3">
      <g>
       <use xlink:href="#m38f2881d12" x="393.460938" y="284.4" style="stroke: #000000; stroke-width: 0.8"/>
      </g>
     </g>
     <g id="text_3">
      <!-- 0 -->
      <g transform="translate(390.279688 298.998437) scale(0.1 -0.1)">
       <defs>
        <path id="DejaVuSans-30" d="M 2034 4250 
Q 1547 4250 1301 3770 
Q 1056 3291 1056 2328 
Q 1056 1369 1301 889 
Q 1547 409 2034 409 
Q 2525 409 2770 889 
Q 3016 1369 3016 2328 
Q 3016 3291 2770 3770 
Q 2525 4250 2034 4250 
z
M 2034 4750 
Q 2819 4750 3233 4129 
Q 3647 3509 3647 2328 
Q 3647 1150 3233 529 
Q 2819 -91 2034 -91 
Q 1250 -91 836 529 
Q 422 1150 422 2328 
Q 422 3509 836 4129 
Q 1250 4750 2034 4750 
z
" transform="scale(0.015625)"/>
       </defs>
       <use xlink:href="#DejaVuSans-30"/>
      </g>
     </g>
    </g>
    <g id="xtick_4">
     <g id="line2d_4">
      <g>
       <use xlink:href="#m38f2881d12" x="515.206392" y="284.4" style="stroke: #000000; stroke-width: 0.8"/>
      </g>
     </g>
     <g id="text_4">
      <!-- 2 -->
      <g transform="translate(512.025142 298.998437) scale(0.1 -0.1)">
       <use xlink:href="#DejaVuSans-32"/>
      </g>
     </g>
    </g>
    <g id="xtick_5">
     <g id="line2d_5">
      <g>
       <use xlink:href="#m38f2881d12" x="636.951847" y="284.4" style="stroke: #000000; stroke-width: 0.8"/>
      </g>
     </g>
     <g id="text_5">
      <!-- 4 -->
      <g transform="translate(633.770597 298.998437) scale(0.1 -0.1)">
       <use xlink:href="#DejaVuSans-34"/>
      </g>
     </g>
    </g>
    <g id="text_6">
     <!-- x -->
     <g transform="translate(387.542188 320.275) scale(0.2 -0.2)">
      <defs>
       <path id="DejaVuSans-78" d="M 3513 3500 
L 2247 1797 
L 3578 0 
L 2900 0 
L 1881 1375 
L 863 0 
L 184 0 
L 1544 1831 
L 300 3500 
L 978 3500 
L 1906 2253 
L 2834 3500 
L 3513 3500 
z
" transform="scale(0.015625)"/>
      </defs>
      <use xlink:href="#DejaVuSans-78"/>
     </g>
    </g>
   </g>
   <g id="matplotlib.axis_2">
    <g id="ytick_1">
     <g id="line2d_6">
      <defs>
       <path id="m4d83526ca1" d="M 0 0 
L -3.5 0 
" style="stroke: #000000; stroke-width: 0.8"/>
      </defs>
      <g>
       <use xlink:href="#m4d83526ca1" x="58.660938" y="270.130215" style="stroke: #000000; stroke-width: 0.8"/>
      </g>
     </g>
     <g id="text_7">
      <!-- −15 -->
      <g transform="translate(30.55625 273.929433) scale(0.1 -0.1)">
       <defs>
        <path id="DejaVuSans-31" d="M 794 531 
L 1825 531 
L 1825 4091 
L 703 3866 
L 703 4441 
L 1819 4666 
L 2450 4666 
L 2450 531 
L 3481 531 
L 3481 0 
L 794 0 
L 794 531 
z
" transform="scale(0.015625)"/>
        <path id="DejaVuSans-35" d="M 691 4666 
L 3169 4666 
L 3169 4134 
L 1269 4134 
L 1269 2991 
Q 1406 3038 1543 3061 
Q 1681 3084 1819 3084 
Q 2600 3084 3056 2656 
Q 3513 2228 3513 1497 
Q 3513 744 3044 326 
Q 2575 -91 1722 -91 
Q 1428 -91 1123 -41 
Q 819 9 494 109 
L 494 744 
Q 775 591 1075 516 
Q 1375 441 1709 441 
Q 2250 441 2565 725 
Q 2881 1009 2881 1497 
Q 2881 1984 2565 2268 
Q 2250 2553 1709 2553 
Q 1456 2553 1204 2497 
Q 953 2441 691 2322 
L 691 4666 
z
" transform="scale(0.015625)"/>
       </defs>
       <use xlink:href="#DejaVuSans-2212"/>
       <use xlink:href="#DejaVuSans-31" x="83.789062"/>
       <use xlink:href="#DejaVuSans-35" x="147.412109"/>
      </g>
     </g>
    </g>
    <g id="ytick_2">
     <g id="line2d_7">
      <g>
       <use xlink:href="#m4d83526ca1" x="58.660938" y="234.263184" style="stroke: #000000; stroke-width: 0.8"/>
      </g>
     </g>
     <g id="text_8">
      <!-- −10 -->
      <g transform="translate(30.55625 238.062403) scale(0.1 -0.1)">
       <use xlink:href="#DejaVuSans-2212"/>
       <use xlink:href="#DejaVuSans-31" x="83.789062"/>
       <use xlink:href="#DejaVuSans-30" x="147.412109"/>
      </g>
     </g>
    </g>
    <g id="ytick_3">
     <g id="line2d_8">
      <g>
       <use xlink:href="#m4d83526ca1" x="58.660938" y="198.396154" style="stroke: #000000; stroke-width: 0.8"/>
      </g>
     </g>
     <g id="text_9">
      <!-- −5 -->
      <g transform="translate(36.91875 202.195373) scale(0.1 -0.1)">
       <use xlink:href="#DejaVuSans-2212"/>
       <use xlink:href="#DejaVuSans-35" x="83.789062"/>
      </g>
     </g>
    </g>
    <g id="ytick_4">
     <g id="line2d_9">
      <g>
       <use xlink:href="#m4d83526ca1" x="58.660938" y="162.529124" style="stroke: #000000; stroke-width: 0.8"/>
      </g>
     </g>
     <g id="text_10">
      <!-- 0 -->
      <g transform="translate(45.298438 166.328342) scale(0.1 -0.1)">
       <use xlink:href="#DejaVuSans-30"/>
      </g>
     </g>
    </g>
    <g id="ytick_5">
     <g id="line2d_10">
      <g>
       <use xlink:href="#m4d83526ca1" x="58.660938" y="126.662093" style="stroke: #000000; stroke-width: 0.8"/>
      </g>
     </g>
     <g id="text_11">
      <!-- 5 -->
      <g transform="translate(45.298438 130.461312) scale(0.1 -0.1)">
       <use xlink:href="#DejaVuSans-35"/>
      </g>
     </g>
    </g>
    <g id="ytick_6">
     <g id="line2d_11">
      <g>
       <use xlink:href="#m4d83526ca1" x="58.660938" y="90.795063" style="stroke: #000000; stroke-width: 0.8"/>
      </g>
     </g>
     <g id="text_12">
      <!-- 10 -->
      <g transform="translate(38.935938 94.594282) scale(0.1 -0.1)">
       <use xlink:href="#DejaVuSans-31"/>
       <use xlink:href="#DejaVuSans-30" x="63.623047"/>
      </g>
     </g>
    </g>
    <g id="ytick_7">
     <g id="line2d_12">
      <g>
       <use xlink:href="#m4d83526ca1" x="58.660938" y="54.928033" style="stroke: #000000; stroke-width: 0.8"/>
      </g>
     </g>
     <g id="text_13">
      <!-- 15 -->
      <g transform="translate(38.935938 58.727252) scale(0.1 -0.1)">
       <use xlink:href="#DejaVuSans-31"/>
       <use xlink:href="#DejaVuSans-35" x="63.623047"/>
      </g>
     </g>
    </g>
    <g id="ytick_8">
     <g id="line2d_13">
      <g>
       <use xlink:href="#m4d83526ca1" x="58.660938" y="19.061003" style="stroke: #000000; stroke-width: 0.8"/>
      </g>
     </g>
     <g id="text_14">
      <!-- 20 -->
      <g transform="translate(38.935938 22.860221) scale(0.1 -0.1)">
       <use xlink:href="#DejaVuSans-32"/>
       <use xlink:href="#DejaVuSans-30" x="63.623047"/>
      </g>
     </g>
    </g>
    <g id="text_15">
     <!-- f(x) -->
     <g transform="translate(22.396875 163.042187) rotate(-90) scale(0.2 -0.2)">
      <defs>
       <path id="DejaVuSans-66" d="M 2375 4863 
L 2375 4384 
L 1825 4384 
Q 1516 4384 1395 4259 
Q 1275 4134 1275 3809 
L 1275 3500 
L 2222 3500 
L 2222 3053 
L 1275 3053 
L 1275 0 
L 697 0 
L 697 3053 
L 147 3053 
L 147 3500 
L 697 3500 
L 697 3744 
Q 697 4328 969 4595 
Q 1241 4863 1831 4863 
L 2375 4863 
z
" transform="scale(0.015625)"/>
       <path id="DejaVuSans-28" d="M 1984 4856 
Q 1566 4138 1362 3434 
Q 1159 2731 1159 2009 
Q 1159 1288 1364 580 
Q 1569 -128 1984 -844 
L 1484 -844 
Q 1016 -109 783 600 
Q 550 1309 550 2009 
Q 550 2706 781 3412 
Q 1013 4119 1484 4856 
L 1984 4856 
z
" transform="scale(0.015625)"/>
       <path id="DejaVuSans-29" d="M 513 4856 
L 1013 4856 
Q 1481 4119 1714 3412 
Q 1947 2706 1947 2009 
Q 1947 1309 1714 600 
Q 1481 -109 1013 -844 
L 513 -844 
Q 928 -128 1133 580 
Q 1338 1288 1338 2009 
Q 1338 2731 1133 3434 
Q 928 4138 513 4856 
z
" transform="scale(0.015625)"/>
      </defs>
      <use xlink:href="#DejaVuSans-66"/>
      <use xlink:href="#DejaVuSans-28" x="35.205078"/>
      <use xlink:href="#DejaVuSans-78" x="74.21875"/>
      <use xlink:href="#DejaVuSans-29" x="133.398438"/>
     </g>
    </g>
   </g>
   <g id="line2d_14">
    <path d="M 89.097301 162.529124 
L 101.520307 162.529124 
L 113.943312 162.529124 
L 126.366318 162.529124 
L 138.789323 162.529124 
L 151.212329 162.529124 
L 163.635335 162.529124 
L 176.05834 162.529124 
L 188.481346 162.529124 
L 200.904351 162.529124 
L 213.327357 162.529124 
L 225.750362 162.529124 
L 238.173368 162.529124 
L 250.596373 162.529124 
L 263.019379 162.529124 
L 275.442385 162.529124 
L 287.86539 162.529124 
L 300.288396 162.529124 
L 312.711401 162.529124 
L 325.134407 162.529124 
L 337.557412 162.529124 
L 349.980418 162.529124 
L 362.403424 162.529124 
L 374.826429 162.529124 
L 387.249435 162.529124 
L 399.67244 162.529124 
L 412.095446 162.529124 
L 424.518451 162.529124 
L 436.941457 162.529124 
L 449.364463 162.529124 
L 461.787468 162.529124 
L 474.210474 162.529124 
L 486.633479 162.529124 
L 499.056485 162.529124 
L 511.47949 162.529124 
L 523.902496 162.529124 
L 536.325502 162.529124 
L 548.748507 162.529124 
L 561.171513 162.529124 
L 573.594518 162.529124 
L 586.017524 162.529124 
L 598.440529 162.529124 
L 610.863535 162.529124 
L 623.28654 162.529124 
L 635.709546 162.529124 
L 648.132552 162.529124 
L 660.555557 162.529124 
L 672.978563 162.529124 
L 685.401568 162.529124 
L 697.824574 162.529124 
" clip-path="url(#pc595e8c271)" style="fill: none; stroke: #000000; stroke-width: 4; stroke-linecap: square"/>
   </g>
   <g id="line2d_15">
    <path d="M 89.097301 183.209912 
L 101.520307 181.8429 
L 113.943312 180.475887 
L 126.366318 179.108874 
L 138.789323 177.741861 
L 151.212329 176.374849 
L 163.635335 175.007836 
L 176.05834 173.640823 
L 188.481346 172.27381 
L 200.904351 170.906798 
L 213.327357 169.539785 
L 225.750362 168.172772 
L 238.173368 166.805759 
L 250.596373 165.438747 
L 263.019379 164.071734 
L 275.442385 162.704721 
L 287.86539 161.337709 
L 300.288396 159.970696 
L 312.711401 158.603683 
L 325.134407 157.23667 
L 337.557412 155.869658 
L 349.980418 154.502645 
L 362.403424 153.135632 
L 374.826429 151.768619 
L 387.249435 150.401607 
L 399.67244 149.034594 
L 412.095446 147.667581 
L 424.518451 146.300568 
L 436.941457 144.933556 
L 449.364463 143.566543 
L 461.787468 142.19953 
L 474.210474 140.832518 
L 486.633479 139.465505 
L 499.056485 138.098492 
L 511.47949 136.731479 
L 523.902496 135.364467 
L 536.325502 133.997454 
L 548.748507 132.630441 
L 561.171513 131.263428 
L 573.594518 129.896416 
L 586.017524 128.529403 
L 598.440529 127.16239 
L 610.863535 125.795377 
L 623.28654 124.428365 
L 635.709546 123.061352 
L 648.132552 121.694339 
L 660.555557 120.327327 
L 672.978563 118.960314 
L 685.401568 117.593301 
L 697.824574 116.226288 
" clip-path="url(#pc595e8c271)" style="fill: none; stroke: #1f77b4; stroke-width: 1.5; stroke-linecap: square"/>
   </g>
   <g id="line2d_16">
    <path d="M 89.097301 145.678347 
L 101.520307 146.283199 
L 113.943312 146.88805 
L 126.366318 147.492901 
L 138.789323 148.097753 
L 151.212329 148.702604 
L 163.635335 149.307455 
L 176.05834 149.912306 
L 188.481346 150.517158 
L 200.904351 151.122009 
L 213.327357 151.72686 
L 225.750362 152.331712 
L 238.173368 152.936563 
L 250.596373 153.541414 
L 263.019379 154.146265 
L 275.442385 154.751117 
L 287.86539 155.355968 
L 300.288396 155.960819 
L 312.711401 156.56567 
L 325.134407 157.170522 
L 337.557412 157.775373 
L 349.980418 158.380224 
L 362.403424 158.985076 
L 374.826429 159.589927 
L 387.249435 160.194778 
L 399.67244 160.799629 
L 412.095446 161.404481 
L 424.518451 162.009332 
L 436.941457 162.614183 
L 449.364463 163.219035 
L 461.787468 163.823886 
L 474.210474 164.428737 
L 486.633479 165.033588 
L 499.056485 165.63844 
L 511.47949 166.243291 
L 523.902496 166.848142 
L 536.325502 167.452993 
L 548.748507 168.057845 
L 561.171513 168.662696 
L 573.594518 169.267547 
L 586.017524 169.872399 
L 598.440529 170.47725 
L 610.863535 171.082101 
L 623.28654 171.686952 
L 635.709546 172.291804 
L 648.132552 172.896655 
L 660.555557 173.501506 
L 672.978563 174.106357 
L 685.401568 174.711209 
L 697.824574 175.31606 
" clip-path="url(#pc595e8c271)" style="fill: none; stroke: #ff7f0e; stroke-width: 1.5; stroke-linecap: square"/>
   </g>
   <g id="line2d_17">
    <path d="M 89.097301 271.8 
L 101.520307 266.657143 
L 113.943312 261.514286 
L 126.366318 256.371429 
L 138.789323 251.228571 
L 151.212329 246.085714 
L 163.635335 240.942857 
L 176.05834 235.8 
L 188.481346 230.657143 
L 200.904351 225.514286 
L 213.327357 220.371429 
L 225.750362 215.228571 
L 238.173368 210.085714 
L 250.596373 204.942857 
L 263.019379 199.8 
L 275.442385 194.657143 
L 287.86539 189.514286 
L 300.288396 184.371429 
L 312.711401 179.228571 
L 325.134407 174.085714 
L 337.557412 168.942857 
L 349.980418 163.8 
L 362.403424 158.657143 
L 374.826429 153.514286 
L 387.249435 148.371429 
L 399.67244 143.228571 
L 412.095446 138.085714 
L 424.518451 132.942857 
L 436.941457 127.8 
L 449.364463 122.657143 
L 461.787468 117.514286 
L 474.210474 112.371429 
L 486.633479 107.228571 
L 499.056485 102.085714 
L 511.47949 96.942857 
L 523.902496 91.8 
L 536.325502 86.657143 
L 548.748507 81.514286 
L 561.171513 76.371429 
L 573.594518 71.228571 
L 586.017524 66.085714 
L 598.440529 60.942857 
L 610.863535 55.8 
L 623.28654 50.657143 
L 635.709546 45.514286 
L 648.132552 40.371429 
L 660.555557 35.228571 
L 672.978563 30.085714 
L 685.401568 24.942857 
L 697.824574 19.8 
" clip-path="url(#pc595e8c271)" style="fill: none; stroke: #2ca02c; stroke-width: 1.5; stroke-linecap: square"/>
   </g>
   <g id="line2d_18">
    <path d="M 89.097301 128.175197 
L 101.520307 129.524182 
L 113.943312 130.873168 
L 126.366318 132.222153 
L 138.789323 133.571138 
L 151.212329 134.920124 
L 163.635335 136.269109 
L 176.05834 137.618094 
L 188.481346 138.967079 
L 200.904351 140.316065 
L 213.327357 141.66505 
L 225.750362 143.014035 
L 238.173368 144.363021 
L 250.596373 145.712006 
L 263.019379 147.060991 
L 275.442385 148.409976 
L 287.86539 149.758962 
L 300.288396 151.107947 
L 312.711401 152.456932 
L 325.134407 153.805918 
L 337.557412 155.154903 
L 349.980418 156.503888 
L 362.403424 157.852873 
L 374.826429 159.201859 
L 387.249435 160.550844 
L 399.67244 161.899829 
L 412.095446 163.248815 
L 424.518451 164.5978 
L 436.941457 165.946785 
L 449.364463 167.29577 
L 461.787468 168.644756 
L 474.210474 169.993741 
L 486.633479 171.342726 
L 499.056485 172.691712 
L 511.47949 174.040697 
L 523.902496 175.389682 
L 536.325502 176.738667 
L 548.748507 178.087653 
L 561.171513 179.436638 
L 573.594518 180.785623 
L 586.017524 182.134609 
L 598.440529 183.483594 
L 610.863535 184.832579 
L 623.28654 186.181564 
L 635.709546 187.53055 
L 648.132552 188.879535 
L 660.555557 190.22852 
L 672.978563 191.577506 
L 685.401568 192.926491 
L 697.824574 194.275476 
" clip-path="url(#pc595e8c271)" style="fill: none; stroke: #d62728; stroke-width: 1.5; stroke-linecap: square"/>
   </g>
   <g id="line2d_19">
    <path d="M 89.097301 194.84869 
L 101.520307 194.010563 
L 113.943312 193.172436 
L 126.366318 192.33431 
L 138.789323 191.496183 
L 151.212329 190.658056 
L 163.635335 189.81993 
L 176.05834 188.981803 
L 188.481346 188.143676 
L 200.904351 187.30555 
L 213.327357 186.467423 
L 225.750362 185.629296 
L 238.173368 184.79117 
L 250.596373 183.953043 
L 263.019379 183.114917 
L 275.442385 182.27679 
L 287.86539 181.438663 
L 300.288396 180.600537 
L 312.711401 179.76241 
L 325.134407 178.924283 
L 337.557412 178.086157 
L 349.980418 177.24803 
L 362.403424 176.409903 
L 374.826429 175.571777 
L 387.249435 174.73365 
L 399.67244 173.895523 
L 412.095446 173.057397 
L 424.518451 172.21927 
L 436.941457 171.381143 
L 449.364463 170.543017 
L 461.787468 169.70489 
L 474.210474 168.866763 
L 486.633479 168.028637 
L 499.056485 167.19051 
L 511.47949 166.352383 
L 523.902496 165.514257 
L 536.325502 164.67613 
L 548.748507 163.838003 
L 561.171513 162.999877 
L 573.594518 162.16175 
L 586.017524 161.323623 
L 598.440529 160.485497 
L 610.863535 159.64737 
L 623.28654 158.809243 
L 635.709546 157.971117 
L 648.132552 157.13299 
L 660.555557 156.294863 
L 672.978563 155.456737 
L 685.401568 154.61861 
L 697.824574 153.780483 
" clip-path="url(#pc595e8c271)" style="fill: none; stroke: #9467bd; stroke-width: 1.5; stroke-linecap: square"/>
   </g>
   <g id="line2d_20">
    <path d="M 89.097301 218.574344 
L 101.520307 216.55974 
L 113.943312 214.545137 
L 126.366318 212.530533 
L 138.789323 210.515929 
L 151.212329 208.501325 
L 163.635335 206.486722 
L 176.05834 204.472118 
L 188.481346 202.457514 
L 200.904351 200.442911 
L 213.327357 198.428307 
L 225.750362 196.413703 
L 238.173368 194.3991 
L 250.596373 192.384496 
L 263.019379 190.369892 
L 275.442385 188.355289 
L 287.86539 186.340685 
L 300.288396 184.326081 
L 312.711401 182.311477 
L 325.134407 180.296874 
L 337.557412 178.28227 
L 349.980418 176.267666 
L 362.403424 174.253063 
L 374.826429 172.238459 
L 387.249435 170.223855 
L 399.67244 168.209252 
L 412.095446 166.194648 
L 424.518451 164.180044 
L 436.941457 162.16544 
L 449.364463 160.150837 
L 461.787468 158.136233 
L 474.210474 156.121629 
L 486.633479 154.107026 
L 499.056485 152.092422 
L 511.47949 150.077818 
L 523.902496 148.063215 
L 536.325502 146.048611 
L 548.748507 144.034007 
L 561.171513 142.019404 
L 573.594518 140.0048 
L 586.017524 137.990196 
L 598.440529 135.975592 
L 610.863535 133.960989 
L 623.28654 131.946385 
L 635.709546 129.931781 
L 648.132552 127.917178 
L 660.555557 125.902574 
L 672.978563 123.88797 
L 685.401568 121.873367 
L 697.824574 119.858763 
" clip-path="url(#pc595e8c271)" style="fill: none; stroke: #8c564b; stroke-width: 1.5; stroke-linecap: square"/>
   </g>
   <g id="line2d_21">
    <path d="M 89.097301 147.839045 
L 101.520307 148.034625 
L 113.943312 148.230206 
L 126.366318 148.425786 
L 138.789323 148.621367 
L 151.212329 148.816948 
L 163.635335 149.012528 
L 176.05834 149.208109 
L 188.481346 149.403689 
L 200.904351 149.59927 
L 213.327357 149.79485 
L 225.750362 149.990431 
L 238.173368 150.186012 
L 250.596373 150.381592 
L 263.019379 150.577173 
L 275.442385 150.772753 
L 287.86539 150.968334 
L 300.288396 151.163914 
L 312.711401 151.359495 
L 325.134407 151.555076 
L 337.557412 151.750656 
L 349.980418 151.946237 
L 362.403424 152.141817 
L 374.826429 152.337398 
L 387.249435 152.532978 
L 399.67244 152.728559 
L 412.095446 152.92414 
L 424.518451 153.11972 
L 436.941457 153.315301 
L 449.364463 153.510881 
L 461.787468 153.706462 
L 474.210474 153.902042 
L 486.633479 154.097623 
L 499.056485 154.293204 
L 511.47949 154.488784 
L 523.902496 154.684365 
L 536.325502 154.879945 
L 548.748507 155.075526 
L 561.171513 155.271106 
L 573.594518 155.466687 
L 586.017524 155.662268 
L 598.440529 155.857848 
L 610.863535 156.053429 
L 623.28654 156.249009 
L 635.709546 156.44459 
L 648.132552 156.64017 
L 660.555557 156.835751 
L 672.978563 157.031332 
L 685.401568 157.226912 
L 697.824574 157.422493 
" clip-path="url(#pc595e8c271)" style="fill: none; stroke: #e377c2; stroke-width: 1.5; stroke-linecap: square"/>
   </g>
   <g id="line2d_22">
    <path d="M 89.097301 153.090121 
L 101.520307 153.529008 
L 113.943312 153.967895 
L 126.366318 154.406781 
L 138.789323 154.845668 
L 151.212329 155.284555 
L 163.635335 155.723441 
L 176.05834 156.162328 
L 188.481346 156.601215 
L 200.904351 157.040101 
L 213.327357 157.478988 
L 225.750362 157.917875 
L 238.173368 158.356761 
L 250.596373 158.795648 
L 263.019379 159.234534 
L 275.442385 159.673421 
L 287.86539 160.112308 
L 300.288396 160.551194 
L 312.711401 160.990081 
L 325.134407 161.428968 
L 337.557412 161.867854 
L 349.980418 162.306741 
L 362.403424 162.745628 
L 374.826429 163.184514 
L 387.249435 163.623401 
L 399.67244 164.062288 
L 412.095446 164.501174 
L 424.518451 164.940061 
L 436.941457 165.378947 
L 449.364463 165.817834 
L 461.787468 166.256721 
L 474.210474 166.695607 
L 486.633479 167.134494 
L 499.056485 167.573381 
L 511.47949 168.012267 
L 523.902496 168.451154 
L 536.325502 168.890041 
L 548.748507 169.328927 
L 561.171513 169.767814 
L 573.594518 170.2067 
L 586.017524 170.645587 
L 598.440529 171.084474 
L 610.863535 171.52336 
L 623.28654 171.962247 
L 635.709546 172.401134 
L 648.132552 172.84002 
L 660.555557 173.278907 
L 672.978563 173.717794 
L 685.401568 174.15668 
L 697.824574 174.595567 
" clip-path="url(#pc595e8c271)" style="fill: none; stroke: #7f7f7f; stroke-width: 1.5; stroke-linecap: square"/>
   </g>
   <g id="line2d_23">
    <path d="M 89.097301 121.500582 
L 101.520307 122.966531 
L 113.943312 124.432479 
L 126.366318 125.898427 
L 138.789323 127.364376 
L 151.212329 128.830324 
L 163.635335 130.296272 
L 176.05834 131.762221 
L 188.481346 133.228169 
L 200.904351 134.694117 
L 213.327357 136.160066 
L 225.750362 137.626014 
L 238.173368 139.091962 
L 250.596373 140.557911 
L 263.019379 142.023859 
L 275.442385 143.489807 
L 287.86539 144.955756 
L 300.288396 146.421704 
L 312.711401 147.887653 
L 325.134407 149.353601 
L 337.557412 150.819549 
L 349.980418 152.285498 
L 362.403424 153.751446 
L 374.826429 155.217394 
L 387.249435 156.683343 
L 399.67244 158.149291 
L 412.095446 159.615239 
L 424.518451 161.081188 
L 436.941457 162.547136 
L 449.364463 164.013084 
L 461.787468 165.479033 
L 474.210474 166.944981 
L 486.633479 168.410929 
L 499.056485 169.876878 
L 511.47949 171.342826 
L 523.902496 172.808775 
L 536.325502 174.274723 
L 548.748507 175.740671 
L 561.171513 177.20662 
L 573.594518 178.672568 
L 586.017524 180.138516 
L 598.440529 181.604465 
L 610.863535 183.070413 
L 623.28654 184.536361 
L 635.709546 186.00231 
L 648.132552 187.468258 
L 660.555557 188.934206 
L 672.978563 190.400155 
L 685.401568 191.866103 
L 697.824574 193.332051 
" clip-path="url(#pc595e8c271)" style="fill: none; stroke: #bcbd22; stroke-width: 1.5; stroke-linecap: square"/>
   </g>
   <g id="line2d_24">
    <path d="M 89.097301 85.923631 
L 101.520307 88.952999 
L 113.943312 91.982366 
L 126.366318 95.011734 
L 138.789323 98.041102 
L 151.212329 101.07047 
L 163.635335 104.099837 
L 176.05834 107.129205 
L 188.481346 110.158573 
L 200.904351 113.18794 
L 213.327357 116.217308 
L 225.750362 119.246676 
L 238.173368 122.276043 
L 250.596373 125.305411 
L 263.019379 128.334779 
L 275.442385 131.364146 
L 287.86539 134.393514 
L 300.288396 137.422882 
L 312.711401 140.452249 
L 325.134407 143.481617 
L 337.557412 146.510985 
L 349.980418 149.540353 
L 362.403424 152.56972 
L 374.826429 155.599088 
L 387.249435 158.628456 
L 399.67244 161.657823 
L 412.095446 164.687191 
L 424.518451 167.716559 
L 436.941457 170.745926 
L 449.364463 173.775294 
L 461.787468 176.804662 
L 474.210474 179.834029 
L 486.633479 182.863397 
L 499.056485 185.892765 
L 511.47949 188.922132 
L 523.902496 191.9515 
L 536.325502 194.980868 
L 548.748507 198.010236 
L 561.171513 201.039603 
L 573.594518 204.068971 
L 586.017524 207.098339 
L 598.440529 210.127706 
L 610.863535 213.157074 
L 623.28654 216.186442 
L 635.709546 219.215809 
L 648.132552 222.245177 
L 660.555557 225.274545 
L 672.978563 228.303912 
L 685.401568 231.33328 
L 697.824574 234.362648 
" clip-path="url(#pc595e8c271)" style="fill: none; stroke: #17becf; stroke-width: 1.5; stroke-linecap: square"/>
   </g>
   <g id="patch_3">
    <path d="M 58.660938 284.4 
L 58.660938 7.2 
" style="fill: none; stroke: #000000; stroke-width: 0.8; stroke-linejoin: miter; stroke-linecap: square"/>
   </g>
   <g id="patch_4">
    <path d="M 728.260938 284.4 
L 728.260938 7.2 
" style="fill: none; stroke: #000000; stroke-width: 0.8; stroke-linejoin: miter; stroke-linecap: square"/>
   </g>
   <g id="patch_5">
    <path d="M 58.660937 284.4 
L 728.260937 284.4 
" style="fill: none; stroke: #000000; stroke-width: 0.8; stroke-linejoin: miter; stroke-linecap: square"/>
   </g>
   <g id="patch_6">
    <path d="M 58.660937 7.2 
L 728.260937 7.2 
" style="fill: none; stroke: #000000; stroke-width: 0.8; stroke-linejoin: miter; stroke-linecap: square"/>
   </g>
  </g>
 </g>
 <defs>
  <clipPath id="pc595e8c271">
   <rect x="58.660938" y="7.2" width="669.6" height="277.2"/>
  </clipPath>
 </defs>
</svg>
