<?xml version="1.0" encoding="utf-8" standalone="no"?>
<!DOCTYPE svg PUBLIC "-//W3C//DTD SVG 1.1//EN"
  "http://www.w3.org/Graphics/SVG/1.1/DTD/svg11.dtd">
<svg xmlns:xlink="http://www.w3.org/1999/xlink" width="745.001562pt" height="331.634375pt" viewBox="0 0 745.001562 331.634375" xmlns="http://www.w3.org/2000/svg" version="1.1">
 <metadata>
  <rdf:RDF xmlns:dc="http://purl.org/dc/elements/1.1/" xmlns:cc="http://creativecommons.org/ns#" xmlns:rdf="http://www.w3.org/1999/02/22-rdf-syntax-ns#">
   <cc:Work>
    <dc:type rdf:resource="http://purl.org/dc/dcmitype/StillImage"/>
    <dc:date>2025-07-08T14:30:07.870369</dc:date>
    <dc:format>image/svg+xml</dc:format>
    <dc:creator>
     <cc:Agent>
      <dc:title>Matplotlib v3.7.2, https://matplotlib.org/</dc:title>
     </cc:Agent>
    </dc:creator>
   </cc:Work>
  </rdf:RDF>
 </metadata>
 <defs>
  <style type="text/css">*{stroke-linejoin: round; stroke-linecap: butt}</style>
 </defs>
 <g id="figure_1">
  <g id="patch_1">
   <path d="M 0 331.634375 
L 745.001562 331.634375 
L 745.001562 0 
L 0 0 
z
" style="fill: #ffffff"/>
  </g>
  <g id="axes_1">
   <g id="patch_2">
    <path d="M 68.201563 284.4 
L 737.801563 284.4 
L 737.801563 7.2 
L 68.201563 7.2 
z
" style="fill: #ffffff"/>
   </g>
   <g id="PolyCollection_1">
    <path d="M 98.637926 19.8 
L 98.637926 271.8 
L 111.060932 266.858985 
L 123.483937 261.926737 
L 135.906943 257.004424 
L 148.329948 252.093424 
L 160.752954 247.195382 
L 173.17596 242.312271 
L 185.598965 237.446478 
L 198.021971 232.600914 
L 210.444976 227.779168 
L 222.867982 222.985702 
L 235.290987 218.226133 
L 247.713993 213.507609 
L 260.136998 208.839346 
L 272.560004 204.233394 
L 284.98301 199.705726 
L 297.406015 195.277839 
L 309.829021 190.979079 
L 322.252026 186.850033 
L 334.675032 182.947337 
L 347.098037 179.350075 
L 359.521043 176.166986 
L 371.944049 173.541009 
L 384.367054 171.642537 
L 396.79006 170.638947 
L 409.213065 170.638947 
L 421.636071 171.642537 
L 434.059076 173.541009 
L 446.482082 176.166986 
L 458.905088 179.350075 
L 471.328093 182.947337 
L 483.751099 186.850033 
L 496.174104 190.979079 
L 508.59711 195.277839 
L 521.020115 199.705726 
L 533.443121 204.233394 
L 545.866127 208.839346 
L 558.289132 213.507609 
L 570.712138 218.226133 
L 583.135143 222.985702 
L 595.558149 227.779168 
L 607.981154 232.600914 
L 620.40416 237.446478 
L 632.827165 242.312271 
L 645.250171 247.195382 
L 657.673177 252.093424 
L 670.096182 257.004424 
L 682.519188 261.926737 
L 694.942193 266.858985 
L 707.365199 271.8 
L 707.365199 19.8 
L 707.365199 19.8 
L 694.942193 24.741015 
L 682.519188 29.673263 
L 670.096182 34.595576 
L 657.673177 39.506576 
L 645.250171 44.404618 
L 632.827165 49.287729 
L 620.40416 54.153522 
L 607.981154 58.999086 
L 595.558149 63.820832 
L 583.135143 68.614298 
L 570.712138 73.373867 
L 558.289132 78.092391 
L 545.866127 82.760654 
L 533.443121 87.366606 
L 521.020115 91.894274 
L 508.59711 96.322161 
L 496.174104 100.620921 
L 483.751099 104.749967 
L 471.328093 108.652663 
L 458.905088 112.249925 
L 446.482082 115.433014 
L 434.059076 118.058991 
L 421.636071 119.957463 
L 409.213065 120.961053 
L 396.79006 120.961053 
L 384.367054 119.957463 
L 371.944049 118.058991 
L 359.521043 115.433014 
L 347.098037 112.249925 
L 334.675032 108.652663 
L 322.252026 104.749967 
L 309.829021 100.620921 
L 297.406015 96.322161 
L 284.98301 91.894274 
L 272.560004 87.366606 
L 260.136998 82.760654 
L 247.713993 78.092391 
L 235.290987 73.373867 
L 222.867982 68.614298 
L 210.444976 63.820832 
L 198.021971 58.999086 
L 185.598965 54.153522 
L 173.17596 49.287729 
L 160.752954 44.404618 
L 148.329948 39.506576 
L 135.906943 34.595576 
L 123.483937 29.673263 
L 111.060932 24.741015 
L 98.637926 19.8 
z
" clip-path="url(#p9b06857660)" style="fill: #1f77b4; fill-opacity: 0.25"/>
   </g>
   <g id="matplotlib.axis_1">
    <g id="xtick_1">
     <g id="line2d_1">
      <defs>
       <path id="m49030aae61" d="M 0 0 
L 0 3.5 
" style="stroke: #000000; stroke-width: 0.8"/>
      </defs>
      <g>
       <use xlink:href="#m49030aae61" x="159.510653" y="284.4" style="stroke: #000000; stroke-width: 0.8"/>
      </g>
     </g>
     <g id="text_1">
      <!-- −4 -->
      <g transform="translate(152.13956 298.998437) scale(0.1 -0.1)">
       <defs>
        <path id="DejaVuSans-2212" d="M 678 2272 
L 4684 2272 
L 4684 1741 
L 678 1741 
L 678 2272 
z
" transform="scale(0.015625)"/>
        <path id="DejaVuSans-34" d="M 2419 4116 
L 825 1625 
L 2419 1625 
L 2419 4116 
z
M 2253 4666 
L 3047 4666 
L 3047 1625 
L 3713 1625 
L 3713 1100 
L 3047 1100 
L 3047 0 
L 2419 0 
L 2419 1100 
L 313 1100 
L 313 1709 
L 2253 4666 
z
" transform="scale(0.015625)"/>
       </defs>
       <use xlink:href="#DejaVuSans-2212"/>
       <use xlink:href="#DejaVuSans-34" x="83.789062"/>
      </g>
     </g>
    </g>
    <g id="xtick_2">
     <g id="line2d_2">
      <g>
       <use xlink:href="#m49030aae61" x="281.256108" y="284.4" style="stroke: #000000; stroke-width: 0.8"/>
      </g>
     </g>
     <g id="text_2">
      <!-- −2 -->
      <g transform="translate(273.885014 298.998437) scale(0.1 -0.1)">
       <defs>
        <path id="DejaVuSans-32" d="M 1228 531 
L 3431 531 
L 3431 0 
L 469 0 
L 469 531 
Q 828 903 1448 1529 
Q 2069 2156 2228 2338 
Q 2531 2678 2651 2914 
Q 2772 3150 2772 3378 
Q 2772 3750 2511 3984 
Q 2250 4219 1831 4219 
Q 1534 4219 1204 4116 
Q 875 4013 500 3803 
L 500 4441 
Q 881 4594 1212 4672 
Q 1544 4750 1819 4750 
Q 2544 4750 2975 4387 
Q 3406 4025 3406 3419 
Q 3406 3131 3298 2873 
Q 3191 2616 2906 2266 
Q 2828 2175 2409 1742 
Q 1991 1309 1228 531 
z
" transform="scale(0.015625)"/>
       </defs>
       <use xlink:href="#DejaVuSans-2212"/>
       <use xlink:href="#DejaVuSans-32" x="83.789062"/>
      </g>
     </g>
    </g>
    <g id="xtick_3">
     <g id="line2d_3">
      <g>
       <use xlink:href="#m49030aae61" x="403.001563" y="284.4" style="stroke: #000000; stroke-width: 0.8"/>
      </g>
     </g>
     <g id="text_3">
      <!-- 0 -->
      <g transform="translate(399.820313 298.998437) scale(0.1 -0.1)">
       <defs>
        <path id="DejaVuSans-30" d="M 2034 4250 
Q 1547 4250 1301 3770 
Q 1056 3291 1056 2328 
Q 1056 1369 1301 889 
Q 1547 409 2034 409 
Q 2525 409 2770 889 
Q 3016 1369 3016 2328 
Q 3016 3291 2770 3770 
Q 2525 4250 2034 4250 
z
M 2034 4750 
Q 2819 4750 3233 4129 
Q 3647 3509 3647 2328 
Q 3647 1150 3233 529 
Q 2819 -91 2034 -91 
Q 1250 -91 836 529 
Q 422 1150 422 2328 
Q 422 3509 836 4129 
Q 1250 4750 2034 4750 
z
" transform="scale(0.015625)"/>
       </defs>
       <use xlink:href="#DejaVuSans-30"/>
      </g>
     </g>
    </g>
    <g id="xtick_4">
     <g id="line2d_4">
      <g>
       <use xlink:href="#m49030aae61" x="524.747017" y="284.4" style="stroke: #000000; stroke-width: 0.8"/>
      </g>
     </g>
     <g id="text_4">
      <!-- 2 -->
      <g transform="translate(521.565767 298.998437) scale(0.1 -0.1)">
       <use xlink:href="#DejaVuSans-32"/>
      </g>
     </g>
    </g>
    <g id="xtick_5">
     <g id="line2d_5">
      <g>
       <use xlink:href="#m49030aae61" x="646.492472" y="284.4" style="stroke: #000000; stroke-width: 0.8"/>
      </g>
     </g>
     <g id="text_5">
      <!-- 4 -->
      <g transform="translate(643.311222 298.998437) scale(0.1 -0.1)">
       <use xlink:href="#DejaVuSans-34"/>
      </g>
     </g>
    </g>
    <g id="text_6">
     <!-- x -->
     <g transform="translate(397.082813 320.275) scale(0.2 -0.2)">
      <defs>
       <path id="DejaVuSans-78" d="M 3513 3500 
L 2247 1797 
L 3578 0 
L 2900 0 
L 1881 1375 
L 863 0 
L 184 0 
L 1544 1831 
L 300 3500 
L 978 3500 
L 1906 2253 
L 2834 3500 
L 3513 3500 
z
" transform="scale(0.015625)"/>
      </defs>
      <use xlink:href="#DejaVuSans-78"/>
     </g>
    </g>
   </g>
   <g id="matplotlib.axis_2">
    <g id="ytick_1">
     <g id="line2d_6">
      <defs>
       <path id="m193277f5f2" d="M 0 0 
L -3.5 0 
" style="stroke: #000000; stroke-width: 0.8"/>
      </defs>
      <g>
       <use xlink:href="#m193277f5f2" x="68.201563" y="269.353165" style="stroke: #000000; stroke-width: 0.8"/>
      </g>
     </g>
     <g id="text_7">
      <!-- −10.0 -->
      <g transform="translate(30.55625 273.152384) scale(0.1 -0.1)">
       <defs>
        <path id="DejaVuSans-31" d="M 794 531 
L 1825 531 
L 1825 4091 
L 703 3866 
L 703 4441 
L 1819 4666 
L 2450 4666 
L 2450 531 
L 3481 531 
L 3481 0 
L 794 0 
L 794 531 
z
" transform="scale(0.015625)"/>
        <path id="DejaVuSans-2e" d="M 684 794 
L 1344 794 
L 1344 0 
L 684 0 
L 684 794 
z
" transform="scale(0.015625)"/>
       </defs>
       <use xlink:href="#DejaVuSans-2212"/>
       <use xlink:href="#DejaVuSans-31" x="83.789062"/>
       <use xlink:href="#DejaVuSans-30" x="147.412109"/>
       <use xlink:href="#DejaVuSans-2e" x="211.035156"/>
       <use xlink:href="#DejaVuSans-30" x="242.822266"/>
      </g>
     </g>
    </g>
    <g id="ytick_2">
     <g id="line2d_7">
      <g>
       <use xlink:href="#m193277f5f2" x="68.201563" y="238.464874" style="stroke: #000000; stroke-width: 0.8"/>
      </g>
     </g>
     <g id="text_8">
      <!-- −7.5 -->
      <g transform="translate(36.91875 242.264093) scale(0.1 -0.1)">
       <defs>
        <path id="DejaVuSans-37" d="M 525 4666 
L 3525 4666 
L 3525 4397 
L 1831 0 
L 1172 0 
L 2766 4134 
L 525 4134 
L 525 4666 
z
" transform="scale(0.015625)"/>
        <path id="DejaVuSans-35" d="M 691 4666 
L 3169 4666 
L 3169 4134 
L 1269 4134 
L 1269 2991 
Q 1406 3038 1543 3061 
Q 1681 3084 1819 3084 
Q 2600 3084 3056 2656 
Q 3513 2228 3513 1497 
Q 3513 744 3044 326 
Q 2575 -91 1722 -91 
Q 1428 -91 1123 -41 
Q 819 9 494 109 
L 494 744 
Q 775 591 1075 516 
Q 1375 441 1709 441 
Q 2250 441 2565 725 
Q 2881 1009 2881 1497 
Q 2881 1984 2565 2268 
Q 2250 2553 1709 2553 
Q 1456 2553 1204 2497 
Q 953 2441 691 2322 
L 691 4666 
z
" transform="scale(0.015625)"/>
       </defs>
       <use xlink:href="#DejaVuSans-2212"/>
       <use xlink:href="#DejaVuSans-37" x="83.789062"/>
       <use xlink:href="#DejaVuSans-2e" x="147.412109"/>
       <use xlink:href="#DejaVuSans-35" x="179.199219"/>
      </g>
     </g>
    </g>
    <g id="ytick_3">
     <g id="line2d_8">
      <g>
       <use xlink:href="#m193277f5f2" x="68.201563" y="207.576583" style="stroke: #000000; stroke-width: 0.8"/>
      </g>
     </g>
     <g id="text_9">
      <!-- −5.0 -->
      <g transform="translate(36.91875 211.375801) scale(0.1 -0.1)">
       <use xlink:href="#DejaVuSans-2212"/>
       <use xlink:href="#DejaVuSans-35" x="83.789062"/>
       <use xlink:href="#DejaVuSans-2e" x="147.412109"/>
       <use xlink:href="#DejaVuSans-30" x="179.199219"/>
      </g>
     </g>
    </g>
    <g id="ytick_4">
     <g id="line2d_9">
      <g>
       <use xlink:href="#m193277f5f2" x="68.201563" y="176.688291" style="stroke: #000000; stroke-width: 0.8"/>
      </g>
     </g>
     <g id="text_10">
      <!-- −2.5 -->
      <g transform="translate(36.91875 180.48751) scale(0.1 -0.1)">
       <use xlink:href="#DejaVuSans-2212"/>
       <use xlink:href="#DejaVuSans-32" x="83.789062"/>
       <use xlink:href="#DejaVuSans-2e" x="147.412109"/>
       <use xlink:href="#DejaVuSans-35" x="179.199219"/>
      </g>
     </g>
    </g>
    <g id="ytick_5">
     <g id="line2d_10">
      <g>
       <use xlink:href="#m193277f5f2" x="68.201563" y="145.8" style="stroke: #000000; stroke-width: 0.8"/>
      </g>
     </g>
     <g id="text_11">
      <!-- 0.0 -->
      <g transform="translate(45.298438 149.599219) scale(0.1 -0.1)">
       <use xlink:href="#DejaVuSans-30"/>
       <use xlink:href="#DejaVuSans-2e" x="63.623047"/>
       <use xlink:href="#DejaVuSans-30" x="95.410156"/>
      </g>
     </g>
    </g>
    <g id="ytick_6">
     <g id="line2d_11">
      <g>
       <use xlink:href="#m193277f5f2" x="68.201563" y="114.911709" style="stroke: #000000; stroke-width: 0.8"/>
      </g>
     </g>
     <g id="text_12">
      <!-- 2.5 -->
      <g transform="translate(45.298438 118.710927) scale(0.1 -0.1)">
       <use xlink:href="#DejaVuSans-32"/>
       <use xlink:href="#DejaVuSans-2e" x="63.623047"/>
       <use xlink:href="#DejaVuSans-35" x="95.410156"/>
      </g>
     </g>
    </g>
    <g id="ytick_7">
     <g id="line2d_12">
      <g>
       <use xlink:href="#m193277f5f2" x="68.201563" y="84.023417" style="stroke: #000000; stroke-width: 0.8"/>
      </g>
     </g>
     <g id="text_13">
      <!-- 5.0 -->
      <g transform="translate(45.298438 87.822636) scale(0.1 -0.1)">
       <use xlink:href="#DejaVuSans-35"/>
       <use xlink:href="#DejaVuSans-2e" x="63.623047"/>
       <use xlink:href="#DejaVuSans-30" x="95.410156"/>
      </g>
     </g>
    </g>
    <g id="ytick_8">
     <g id="line2d_13">
      <g>
       <use xlink:href="#m193277f5f2" x="68.201563" y="53.135126" style="stroke: #000000; stroke-width: 0.8"/>
      </g>
     </g>
     <g id="text_14">
      <!-- 7.5 -->
      <g transform="translate(45.298438 56.934345) scale(0.1 -0.1)">
       <use xlink:href="#DejaVuSans-37"/>
       <use xlink:href="#DejaVuSans-2e" x="63.623047"/>
       <use xlink:href="#DejaVuSans-35" x="95.410156"/>
      </g>
     </g>
    </g>
    <g id="ytick_9">
     <g id="line2d_14">
      <g>
       <use xlink:href="#m193277f5f2" x="68.201563" y="22.246835" style="stroke: #000000; stroke-width: 0.8"/>
      </g>
     </g>
     <g id="text_15">
      <!-- 10.0 -->
      <g transform="translate(38.935938 26.046054) scale(0.1 -0.1)">
       <use xlink:href="#DejaVuSans-31"/>
       <use xlink:href="#DejaVuSans-30" x="63.623047"/>
       <use xlink:href="#DejaVuSans-2e" x="127.246094"/>
       <use xlink:href="#DejaVuSans-30" x="159.033203"/>
      </g>
     </g>
    </g>
    <g id="text_16">
     <!-- f(x) -->
     <g transform="translate(22.396875 163.042187) rotate(-90) scale(0.2 -0.2)">
      <defs>
       <path id="DejaVuSans-66" d="M 2375 4863 
L 2375 4384 
L 1825 4384 
Q 1516 4384 1395 4259 
Q 1275 4134 1275 3809 
L 1275 3500 
L 2222 3500 
L 2222 3053 
L 1275 3053 
L 1275 0 
L 697 0 
L 697 3053 
L 147 3053 
L 147 3500 
L 697 3500 
L 697 3744 
Q 697 4328 969 4595 
Q 1241 4863 1831 4863 
L 2375 4863 
z
" transform="scale(0.015625)"/>
       <path id="DejaVuSans-28" d="M 1984 4856 
Q 1566 4138 1362 3434 
Q 1159 2731 1159 2009 
Q 1159 1288 1364 580 
Q 1569 -128 1984 -844 
L 1484 -844 
Q 1016 -109 783 600 
Q 550 1309 550 2009 
Q 550 2706 781 3412 
Q 1013 4119 1484 4856 
L 1984 4856 
z
" transform="scale(0.015625)"/>
       <path id="DejaVuSans-29" d="M 513 4856 
L 1013 4856 
Q 1481 4119 1714 3412 
Q 1947 2706 1947 2009 
Q 1947 1309 1714 600 
Q 1481 -109 1013 -844 
L 513 -844 
Q 928 -128 1133 580 
Q 1338 1288 1338 2009 
Q 1338 2731 1133 3434 
Q 928 4138 513 4856 
z
" transform="scale(0.015625)"/>
      </defs>
      <use xlink:href="#DejaVuSans-66"/>
      <use xlink:href="#DejaVuSans-28" x="35.205078"/>
      <use xlink:href="#DejaVuSans-78" x="74.21875"/>
      <use xlink:href="#DejaVuSans-29" x="133.398438"/>
     </g>
    </g>
   </g>
   <g id="line2d_15">
    <path d="M 98.637926 145.8 
L 111.060932 145.8 
L 123.483937 145.8 
L 135.906943 145.8 
L 148.329948 145.8 
L 160.752954 145.8 
L 173.17596 145.8 
L 185.598965 145.8 
L 198.021971 145.8 
L 210.444976 145.8 
L 222.867982 145.8 
L 235.290987 145.8 
L 247.713993 145.8 
L 260.136998 145.8 
L 272.560004 145.8 
L 284.98301 145.8 
L 297.406015 145.8 
L 309.829021 145.8 
L 322.252026 145.8 
L 334.675032 145.8 
L 347.098037 145.8 
L 359.521043 145.8 
L 371.944049 145.8 
L 384.367054 145.8 
L 396.79006 145.8 
L 409.213065 145.8 
L 421.636071 145.8 
L 434.059076 145.8 
L 446.482082 145.8 
L 458.905088 145.8 
L 471.328093 145.8 
L 483.751099 145.8 
L 496.174104 145.8 
L 508.59711 145.8 
L 521.020115 145.8 
L 533.443121 145.8 
L 545.866127 145.8 
L 558.289132 145.8 
L 570.712138 145.8 
L 583.135143 145.8 
L 595.558149 145.8 
L 607.981154 145.8 
L 620.40416 145.8 
L 632.827165 145.8 
L 645.250171 145.8 
L 657.673177 145.8 
L 670.096182 145.8 
L 682.519188 145.8 
L 694.942193 145.8 
L 707.365199 145.8 
" clip-path="url(#p9b06857660)" style="fill: none; stroke: #000000; stroke-width: 4; stroke-linecap: square"/>
   </g>
   <g id="line2d_16">
    <path d="M 98.637926 159.187172 
L 111.060932 158.97497 
L 123.483937 158.762769 
L 135.906943 158.550568 
L 148.329948 158.338366 
L 160.752954 158.126165 
L 173.17596 157.913963 
L 185.598965 157.701762 
L 198.021971 157.48956 
L 210.444976 157.277359 
L 222.867982 157.065157 
L 235.290987 156.852956 
L 247.713993 156.640755 
L 260.136998 156.428553 
L 272.560004 156.216352 
L 284.98301 156.00415 
L 297.406015 155.791949 
L 309.829021 155.579747 
L 322.252026 155.367546 
L 334.675032 155.155345 
L 347.098037 154.943143 
L 359.521043 154.730942 
L 371.944049 154.51874 
L 384.367054 154.306539 
L 396.79006 154.094337 
L 409.213065 153.882136 
L 421.636071 153.669934 
L 434.059076 153.457733 
L 446.482082 153.245532 
L 458.905088 153.03333 
L 471.328093 152.821129 
L 483.751099 152.608927 
L 496.174104 152.396726 
L 508.59711 152.184524 
L 521.020115 151.972323 
L 533.443121 151.760122 
L 545.866127 151.54792 
L 558.289132 151.335719 
L 570.712138 151.123517 
L 583.135143 150.911316 
L 595.558149 150.699114 
L 607.981154 150.486913 
L 620.40416 150.274712 
L 632.827165 150.06251 
L 645.250171 149.850309 
L 657.673177 149.638107 
L 670.096182 149.425906 
L 682.519188 149.213704 
L 694.942193 149.001503 
L 707.365199 148.789301 
" clip-path="url(#p9b06857660)" style="fill: none; stroke: #1f77b4; stroke-width: 1.5; stroke-linecap: square"/>
   </g>
   <g id="line2d_17">
    <path d="M 98.637926 40.990012 
L 111.060932 44.728148 
L 123.483937 48.466284 
L 135.906943 52.20442 
L 148.329948 55.942556 
L 160.752954 59.680692 
L 173.17596 63.418828 
L 185.598965 67.156965 
L 198.021971 70.895101 
L 210.444976 74.633237 
L 222.867982 78.371373 
L 235.290987 82.109509 
L 247.713993 85.847645 
L 260.136998 89.585781 
L 272.560004 93.323917 
L 284.98301 97.062053 
L 297.406015 100.800189 
L 309.829021 104.538325 
L 322.252026 108.276462 
L 334.675032 112.014598 
L 347.098037 115.752734 
L 359.521043 119.49087 
L 371.944049 123.229006 
L 384.367054 126.967142 
L 396.79006 130.705278 
L 409.213065 134.443414 
L 421.636071 138.18155 
L 434.059076 141.919686 
L 446.482082 145.657822 
L 458.905088 149.395959 
L 471.328093 153.134095 
L 483.751099 156.872231 
L 496.174104 160.610367 
L 508.59711 164.348503 
L 521.020115 168.086639 
L 533.443121 171.824775 
L 545.866127 175.562911 
L 558.289132 179.301047 
L 570.712138 183.039183 
L 583.135143 186.77732 
L 595.558149 190.515456 
L 607.981154 194.253592 
L 620.40416 197.991728 
L 632.827165 201.729864 
L 645.250171 205.468 
L 657.673177 209.206136 
L 670.096182 212.944272 
L 682.519188 216.682408 
L 694.942193 220.420544 
L 707.365199 224.15868 
" clip-path="url(#p9b06857660)" style="fill: none; stroke: #ff7f0e; stroke-width: 1.5; stroke-linecap: square"/>
   </g>
   <g id="line2d_18">
    <path d="M 98.637926 203.594948 
L 111.060932 200.84679 
L 123.483937 198.098632 
L 135.906943 195.350475 
L 148.329948 192.602317 
L 160.752954 189.854159 
L 173.17596 187.106001 
L 185.598965 184.357843 
L 198.021971 181.609685 
L 210.444976 178.861528 
L 222.867982 176.11337 
L 235.290987 173.365212 
L 247.713993 170.617054 
L 260.136998 167.868896 
L 272.560004 165.120738 
L 284.98301 162.37258 
L 297.406015 159.624423 
L 309.829021 156.876265 
L 322.252026 154.128107 
L 334.675032 151.379949 
L 347.098037 148.631791 
L 359.521043 145.883633 
L 371.944049 143.135476 
L 384.367054 140.387318 
L 396.79006 137.63916 
L 409.213065 134.891002 
L 421.636071 132.142844 
L 434.059076 129.394686 
L 446.482082 126.646529 
L 458.905088 123.898371 
L 471.328093 121.150213 
L 483.751099 118.402055 
L 496.174104 115.653897 
L 508.59711 112.905739 
L 521.020115 110.157582 
L 533.443121 107.409424 
L 545.866127 104.661266 
L 558.289132 101.913108 
L 570.712138 99.16495 
L 583.135143 96.416792 
L 595.558149 93.668635 
L 607.981154 90.920477 
L 620.40416 88.172319 
L 632.827165 85.424161 
L 645.250171 82.676003 
L 657.673177 79.927845 
L 670.096182 77.179687 
L 682.519188 74.43153 
L 694.942193 71.683372 
L 707.365199 68.935214 
" clip-path="url(#p9b06857660)" style="fill: none; stroke: #2ca02c; stroke-width: 1.5; stroke-linecap: square"/>
   </g>
   <g id="line2d_19">
    <path d="M 98.637926 138.373918 
L 111.060932 138.551292 
L 123.483937 138.728666 
L 135.906943 138.906039 
L 148.329948 139.083413 
L 160.752954 139.260787 
L 173.17596 139.43816 
L 185.598965 139.615534 
L 198.021971 139.792907 
L 210.444976 139.970281 
L 222.867982 140.147655 
L 235.290987 140.325028 
L 247.713993 140.502402 
L 260.136998 140.679776 
L 272.560004 140.857149 
L 284.98301 141.034523 
L 297.406015 141.211897 
L 309.829021 141.38927 
L 322.252026 141.566644 
L 334.675032 141.744017 
L 347.098037 141.921391 
L 359.521043 142.098765 
L 371.944049 142.276138 
L 384.367054 142.453512 
L 396.79006 142.630886 
L 409.213065 142.808259 
L 421.636071 142.985633 
L 434.059076 143.163007 
L 446.482082 143.34038 
L 458.905088 143.517754 
L 471.328093 143.695127 
L 483.751099 143.872501 
L 496.174104 144.049875 
L 508.59711 144.227248 
L 521.020115 144.404622 
L 533.443121 144.581996 
L 545.866127 144.759369 
L 558.289132 144.936743 
L 570.712138 145.114116 
L 583.135143 145.29149 
L 595.558149 145.468864 
L 607.981154 145.646237 
L 620.40416 145.823611 
L 632.827165 146.000985 
L 645.250171 146.178358 
L 657.673177 146.355732 
L 670.096182 146.533106 
L 682.519188 146.710479 
L 694.942193 146.887853 
L 707.365199 147.065226 
" clip-path="url(#p9b06857660)" style="fill: none; stroke: #d62728; stroke-width: 1.5; stroke-linecap: square"/>
   </g>
   <g id="line2d_20">
    <path d="M 98.637926 162.870002 
L 111.060932 161.421321 
L 123.483937 159.972639 
L 135.906943 158.523958 
L 148.329948 157.075277 
L 160.752954 155.626596 
L 173.17596 154.177914 
L 185.598965 152.729233 
L 198.021971 151.280552 
L 210.444976 149.83187 
L 222.867982 148.383189 
L 235.290987 146.934508 
L 247.713993 145.485826 
L 260.136998 144.037145 
L 272.560004 142.588464 
L 284.98301 141.139782 
L 297.406015 139.691101 
L 309.829021 138.24242 
L 322.252026 136.793738 
L 334.675032 135.345057 
L 347.098037 133.896376 
L 359.521043 132.447695 
L 371.944049 130.999013 
L 384.367054 129.550332 
L 396.79006 128.101651 
L 409.213065 126.652969 
L 421.636071 125.204288 
L 434.059076 123.755607 
L 446.482082 122.306925 
L 458.905088 120.858244 
L 471.328093 119.409563 
L 483.751099 117.960881 
L 496.174104 116.5122 
L 508.59711 115.063519 
L 521.020115 113.614838 
L 533.443121 112.166156 
L 545.866127 110.717475 
L 558.289132 109.268794 
L 570.712138 107.820112 
L 583.135143 106.371431 
L 595.558149 104.92275 
L 607.981154 103.474068 
L 620.40416 102.025387 
L 632.827165 100.576706 
L 645.250171 99.128024 
L 657.673177 97.679343 
L 670.096182 96.230662 
L 682.519188 94.78198 
L 694.942193 93.333299 
L 707.365199 91.884618 
" clip-path="url(#p9b06857660)" style="fill: none; stroke: #9467bd; stroke-width: 1.5; stroke-linecap: square"/>
   </g>
   <g id="line2d_21">
    <path d="M 98.637926 44.601125 
L 111.060932 49.04357 
L 123.483937 53.486015 
L 135.906943 57.92846 
L 148.329948 62.370905 
L 160.752954 66.813351 
L 173.17596 71.255796 
L 185.598965 75.698241 
L 198.021971 80.140686 
L 210.444976 84.583131 
L 222.867982 89.025576 
L 235.290987 93.468021 
L 247.713993 97.910466 
L 260.136998 102.352911 
L 272.560004 106.795356 
L 284.98301 111.237801 
L 297.406015 115.680247 
L 309.829021 120.122692 
L 322.252026 124.565137 
L 334.675032 129.007582 
L 347.098037 133.450027 
L 359.521043 137.892472 
L 371.944049 142.334917 
L 384.367054 146.777362 
L 396.79006 151.219807 
L 409.213065 155.662252 
L 421.636071 160.104698 
L 434.059076 164.547143 
L 446.482082 168.989588 
L 458.905088 173.432033 
L 471.328093 177.874478 
L 483.751099 182.316923 
L 496.174104 186.759368 
L 508.59711 191.201813 
L 521.020115 195.644258 
L 533.443121 200.086703 
L 545.866127 204.529149 
L 558.289132 208.971594 
L 570.712138 213.414039 
L 583.135143 217.856484 
L 595.558149 222.298929 
L 607.981154 226.741374 
L 620.40416 231.183819 
L 632.827165 235.626264 
L 645.250171 240.068709 
L 657.673177 244.511154 
L 670.096182 248.9536 
L 682.519188 253.396045 
L 694.942193 257.83849 
L 707.365199 262.280935 
" clip-path="url(#p9b06857660)" style="fill: none; stroke: #8c564b; stroke-width: 1.5; stroke-linecap: square"/>
   </g>
   <g id="line2d_22">
    <path d="M 98.637926 182.154752 
L 111.060932 179.985749 
L 123.483937 177.816747 
L 135.906943 175.647744 
L 148.329948 173.478741 
L 160.752954 171.309739 
L 173.17596 169.140736 
L 185.598965 166.971733 
L 198.021971 164.802731 
L 210.444976 162.633728 
L 222.867982 160.464725 
L 235.290987 158.295723 
L 247.713993 156.12672 
L 260.136998 153.957718 
L 272.560004 151.788715 
L 284.98301 149.619712 
L 297.406015 147.45071 
L 309.829021 145.281707 
L 322.252026 143.112704 
L 334.675032 140.943702 
L 347.098037 138.774699 
L 359.521043 136.605696 
L 371.944049 134.436694 
L 384.367054 132.267691 
L 396.79006 130.098689 
L 409.213065 127.929686 
L 421.636071 125.760683 
L 434.059076 123.591681 
L 446.482082 121.422678 
L 458.905088 119.253675 
L 471.328093 117.084673 
L 483.751099 114.91567 
L 496.174104 112.746667 
L 508.59711 110.577665 
L 521.020115 108.408662 
L 533.443121 106.23966 
L 545.866127 104.070657 
L 558.289132 101.901654 
L 570.712138 99.732652 
L 583.135143 97.563649 
L 595.558149 95.394646 
L 607.981154 93.225644 
L 620.40416 91.056641 
L 632.827165 88.887638 
L 645.250171 86.718636 
L 657.673177 84.549633 
L 670.096182 82.38063 
L 682.519188 80.211628 
L 694.942193 78.042625 
L 707.365199 75.873623 
" clip-path="url(#p9b06857660)" style="fill: none; stroke: #e377c2; stroke-width: 1.5; stroke-linecap: square"/>
   </g>
   <g id="line2d_23">
    <path d="M 98.637926 228.788916 
L 111.060932 226.096222 
L 123.483937 223.403527 
L 135.906943 220.710833 
L 148.329948 218.018138 
L 160.752954 215.325444 
L 173.17596 212.63275 
L 185.598965 209.940055 
L 198.021971 207.247361 
L 210.444976 204.554666 
L 222.867982 201.861972 
L 235.290987 199.169277 
L 247.713993 196.476583 
L 260.136998 193.783889 
L 272.560004 191.091194 
L 284.98301 188.3985 
L 297.406015 185.705805 
L 309.829021 183.013111 
L 322.252026 180.320417 
L 334.675032 177.627722 
L 347.098037 174.935028 
L 359.521043 172.242333 
L 371.944049 169.549639 
L 384.367054 166.856944 
L 396.79006 164.16425 
L 409.213065 161.471556 
L 421.636071 158.778861 
L 434.059076 156.086167 
L 446.482082 153.393472 
L 458.905088 150.700778 
L 471.328093 148.008083 
L 483.751099 145.315389 
L 496.174104 142.622695 
L 508.59711 139.93 
L 521.020115 137.237306 
L 533.443121 134.544611 
L 545.866127 131.851917 
L 558.289132 129.159222 
L 570.712138 126.466528 
L 583.135143 123.773834 
L 595.558149 121.081139 
L 607.981154 118.388445 
L 620.40416 115.69575 
L 632.827165 113.003056 
L 645.250171 110.310361 
L 657.673177 107.617667 
L 670.096182 104.924973 
L 682.519188 102.232278 
L 694.942193 99.539584 
L 707.365199 96.846889 
" clip-path="url(#p9b06857660)" style="fill: none; stroke: #7f7f7f; stroke-width: 1.5; stroke-linecap: square"/>
   </g>
   <g id="line2d_24">
    <path d="M 98.637926 130.502551 
L 111.060932 131.302722 
L 123.483937 132.102894 
L 135.906943 132.903065 
L 148.329948 133.703237 
L 160.752954 134.503409 
L 173.17596 135.30358 
L 185.598965 136.103752 
L 198.021971 136.903923 
L 210.444976 137.704095 
L 222.867982 138.504266 
L 235.290987 139.304438 
L 247.713993 140.10461 
L 260.136998 140.904781 
L 272.560004 141.704953 
L 284.98301 142.505124 
L 297.406015 143.305296 
L 309.829021 144.105467 
L 322.252026 144.905639 
L 334.675032 145.705811 
L 347.098037 146.505982 
L 359.521043 147.306154 
L 371.944049 148.106325 
L 384.367054 148.906497 
L 396.79006 149.706668 
L 409.213065 150.50684 
L 421.636071 151.307012 
L 434.059076 152.107183 
L 446.482082 152.907355 
L 458.905088 153.707526 
L 471.328093 154.507698 
L 483.751099 155.307869 
L 496.174104 156.108041 
L 508.59711 156.908213 
L 521.020115 157.708384 
L 533.443121 158.508556 
L 545.866127 159.308727 
L 558.289132 160.108899 
L 570.712138 160.90907 
L 583.135143 161.709242 
L 595.558149 162.509414 
L 607.981154 163.309585 
L 620.40416 164.109757 
L 632.827165 164.909928 
L 645.250171 165.7101 
L 657.673177 166.510271 
L 670.096182 167.310443 
L 682.519188 168.110615 
L 694.942193 168.910786 
L 707.365199 169.710958 
" clip-path="url(#p9b06857660)" style="fill: none; stroke: #bcbd22; stroke-width: 1.5; stroke-linecap: square"/>
   </g>
   <g id="line2d_25">
    <path d="M 98.637926 202.272871 
L 111.060932 200.559443 
L 123.483937 198.846016 
L 135.906943 197.132589 
L 148.329948 195.419162 
L 160.752954 193.705734 
L 173.17596 191.992307 
L 185.598965 190.27888 
L 198.021971 188.565453 
L 210.444976 186.852025 
L 222.867982 185.138598 
L 235.290987 183.425171 
L 247.713993 181.711744 
L 260.136998 179.998316 
L 272.560004 178.284889 
L 284.98301 176.571462 
L 297.406015 174.858035 
L 309.829021 173.144607 
L 322.252026 171.43118 
L 334.675032 169.717753 
L 347.098037 168.004326 
L 359.521043 166.290898 
L 371.944049 164.577471 
L 384.367054 162.864044 
L 396.79006 161.150616 
L 409.213065 159.437189 
L 421.636071 157.723762 
L 434.059076 156.010335 
L 446.482082 154.296907 
L 458.905088 152.58348 
L 471.328093 150.870053 
L 483.751099 149.156626 
L 496.174104 147.443198 
L 508.59711 145.729771 
L 521.020115 144.016344 
L 533.443121 142.302917 
L 545.866127 140.589489 
L 558.289132 138.876062 
L 570.712138 137.162635 
L 583.135143 135.449208 
L 595.558149 133.73578 
L 607.981154 132.022353 
L 620.40416 130.308926 
L 632.827165 128.595498 
L 645.250171 126.882071 
L 657.673177 125.168644 
L 670.096182 123.455217 
L 682.519188 121.741789 
L 694.942193 120.028362 
L 707.365199 118.314935 
" clip-path="url(#p9b06857660)" style="fill: none; stroke: #17becf; stroke-width: 1.5; stroke-linecap: square"/>
   </g>
   <g id="patch_3">
    <path d="M 68.201563 284.4 
L 68.201563 7.2 
" style="fill: none; stroke: #000000; stroke-width: 0.8; stroke-linejoin: miter; stroke-linecap: square"/>
   </g>
   <g id="patch_4">
    <path d="M 737.801563 284.4 
L 737.801563 7.2 
" style="fill: none; stroke: #000000; stroke-width: 0.8; stroke-linejoin: miter; stroke-linecap: square"/>
   </g>
   <g id="patch_5">
    <path d="M 68.201563 284.4 
L 737.801563 284.4 
" style="fill: none; stroke: #000000; stroke-width: 0.8; stroke-linejoin: miter; stroke-linecap: square"/>
   </g>
   <g id="patch_6">
    <path d="M 68.201563 7.2 
L 737.801563 7.2 
" style="fill: none; stroke: #000000; stroke-width: 0.8; stroke-linejoin: miter; stroke-linecap: square"/>
   </g>
  </g>
 </g>
 <defs>
  <clipPath id="p9b06857660">
   <rect x="68.201563" y="7.2" width="669.6" height="277.2"/>
  </clipPath>
 </defs>
</svg>
