<?xml version="1.0" encoding="utf-8" standalone="no"?>
<!DOCTYPE svg PUBLIC "-//W3C//DTD SVG 1.1//EN"
  "http://www.w3.org/Graphics/SVG/1.1/DTD/svg11.dtd">
<svg xmlns:xlink="http://www.w3.org/1999/xlink" width="735.460937pt" height="331.634375pt" viewBox="0 0 735.460937 331.634375" xmlns="http://www.w3.org/2000/svg" version="1.1">
 <metadata>
  <rdf:RDF xmlns:dc="http://purl.org/dc/elements/1.1/" xmlns:cc="http://creativecommons.org/ns#" xmlns:rdf="http://www.w3.org/1999/02/22-rdf-syntax-ns#">
   <cc:Work>
    <dc:type rdf:resource="http://purl.org/dc/dcmitype/StillImage"/>
    <dc:date>2025-06-02T21:00:52.735559</dc:date>
    <dc:format>image/svg+xml</dc:format>
    <dc:creator>
     <cc:Agent>
      <dc:title>Matplotlib v3.6.1, https://matplotlib.org/</dc:title>
     </cc:Agent>
    </dc:creator>
   </cc:Work>
  </rdf:RDF>
 </metadata>
 <defs>
  <style type="text/css">*{stroke-linejoin: round; stroke-linecap: butt}</style>
 </defs>
 <g id="figure_1">
  <g id="patch_1">
   <path d="M 0 331.634375 
L 735.460937 331.634375 
L 735.460937 0 
L 0 0 
z
" style="fill: #ffffff"/>
  </g>
  <g id="axes_1">
   <g id="patch_2">
    <path d="M 58.660938 284.4 
L 728.260938 284.4 
L 728.260938 7.2 
L 58.660938 7.2 
z
" style="fill: #ffffff"/>
   </g>
   <g id="PolyCollection_1">
    <path d="M 89.097301 19.8 
L 89.097301 257.707731 
L 101.520307 253.043026 
L 113.943312 248.386598 
L 126.366318 243.739548 
L 138.789323 239.10318 
L 151.212329 234.479045 
L 163.635335 229.869006 
L 176.05834 225.275316 
L 188.481346 220.700725 
L 200.904351 216.148619 
L 213.327357 211.623212 
L 225.750362 207.129806 
L 238.173368 202.675149 
L 250.596373 198.267944 
L 263.019379 193.919565 
L 275.442385 189.645092 
L 287.86539 185.464819 
L 300.288396 181.406453 
L 312.711401 177.50831 
L 325.134407 173.82386 
L 337.557412 170.427763 
L 349.980418 167.422678 
L 362.403424 164.94355 
L 374.826429 163.151244 
L 387.249435 162.203777 
L 399.67244 162.203777 
L 412.095446 163.151244 
L 424.518451 164.94355 
L 436.941457 167.422678 
L 449.364463 170.427763 
L 461.787468 173.82386 
L 474.210474 177.50831 
L 486.633479 181.406453 
L 499.056485 185.464819 
L 511.47949 189.645092 
L 523.902496 193.919565 
L 536.325502 198.267944 
L 548.748507 202.675149 
L 561.171513 207.129806 
L 573.594518 211.623212 
L 586.017524 216.148619 
L 598.440529 220.700725 
L 610.863535 225.275316 
L 623.28654 229.869006 
L 635.709546 234.479045 
L 648.132552 239.10318 
L 660.555557 243.739548 
L 672.978563 248.386598 
L 685.401568 253.043026 
L 697.824574 257.707731 
L 697.824574 19.8 
L 697.824574 19.8 
L 685.401568 24.464705 
L 672.978563 29.121133 
L 660.555557 33.768182 
L 648.132552 38.404551 
L 635.709546 43.028686 
L 623.28654 47.638725 
L 610.863535 52.232415 
L 598.440529 56.807006 
L 586.017524 61.359112 
L 573.594518 65.884519 
L 561.171513 70.377925 
L 548.748507 74.832582 
L 536.325502 79.239787 
L 523.902496 83.588166 
L 511.47949 87.862639 
L 499.056485 92.042912 
L 486.633479 96.101278 
L 474.210474 99.999421 
L 461.787468 103.683871 
L 449.364463 107.079968 
L 436.941457 110.085053 
L 424.518451 112.564181 
L 412.095446 114.356487 
L 399.67244 115.303954 
L 387.249435 115.303954 
L 374.826429 114.356487 
L 362.403424 112.564181 
L 349.980418 110.085053 
L 337.557412 107.079968 
L 325.134407 103.683871 
L 312.711401 99.999421 
L 300.288396 96.101278 
L 287.86539 92.042912 
L 275.442385 87.862639 
L 263.019379 83.588166 
L 250.596373 79.239787 
L 238.173368 74.832582 
L 225.750362 70.377925 
L 213.327357 65.884519 
L 200.904351 61.359112 
L 188.481346 56.807006 
L 176.05834 52.232415 
L 163.635335 47.638725 
L 151.212329 43.028686 
L 138.789323 38.404551 
L 126.366318 33.768182 
L 113.943312 29.121133 
L 101.520307 24.464705 
L 89.097301 19.8 
z
" clip-path="url(#p3f6611f833)" style="fill: #1f77b4; fill-opacity: 0.25"/>
   </g>
   <g id="matplotlib.axis_1">
    <g id="xtick_1">
     <g id="line2d_1">
      <defs>
       <path id="m7eb9ffe50e" d="M 0 0 
L 0 3.5 
" style="stroke: #000000; stroke-width: 0.8"/>
      </defs>
      <g>
       <use xlink:href="#m7eb9ffe50e" x="149.970028" y="284.4" style="stroke: #000000; stroke-width: 0.8"/>
      </g>
     </g>
     <g id="text_1">
      <!-- −4 -->
      <g transform="translate(142.598935 298.998437) scale(0.1 -0.1)">
       <defs>
        <path id="DejaVuSans-2212" d="M 678 2272 
L 4684 2272 
L 4684 1741 
L 678 1741 
L 678 2272 
z
" transform="scale(0.015625)"/>
        <path id="DejaVuSans-34" d="M 2419 4116 
L 825 1625 
L 2419 1625 
L 2419 4116 
z
M 2253 4666 
L 3047 4666 
L 3047 1625 
L 3713 1625 
L 3713 1100 
L 3047 1100 
L 3047 0 
L 2419 0 
L 2419 1100 
L 313 1100 
L 313 1709 
L 2253 4666 
z
" transform="scale(0.015625)"/>
       </defs>
       <use xlink:href="#DejaVuSans-2212"/>
       <use xlink:href="#DejaVuSans-34" x="83.789062"/>
      </g>
     </g>
    </g>
    <g id="xtick_2">
     <g id="line2d_2">
      <g>
       <use xlink:href="#m7eb9ffe50e" x="271.715483" y="284.4" style="stroke: #000000; stroke-width: 0.8"/>
      </g>
     </g>
     <g id="text_2">
      <!-- −2 -->
      <g transform="translate(264.344389 298.998437) scale(0.1 -0.1)">
       <defs>
        <path id="DejaVuSans-32" d="M 1228 531 
L 3431 531 
L 3431 0 
L 469 0 
L 469 531 
Q 828 903 1448 1529 
Q 2069 2156 2228 2338 
Q 2531 2678 2651 2914 
Q 2772 3150 2772 3378 
Q 2772 3750 2511 3984 
Q 2250 4219 1831 4219 
Q 1534 4219 1204 4116 
Q 875 4013 500 3803 
L 500 4441 
Q 881 4594 1212 4672 
Q 1544 4750 1819 4750 
Q 2544 4750 2975 4387 
Q 3406 4025 3406 3419 
Q 3406 3131 3298 2873 
Q 3191 2616 2906 2266 
Q 2828 2175 2409 1742 
Q 1991 1309 1228 531 
z
" transform="scale(0.015625)"/>
       </defs>
       <use xlink:href="#DejaVuSans-2212"/>
       <use xlink:href="#DejaVuSans-32" x="83.789062"/>
      </g>
     </g>
    </g>
    <g id="xtick_3">
     <g id="line2d_3">
      <g>
       <use xlink:href="#m7eb9ffe50e" x="393.460938" y="284.4" style="stroke: #000000; stroke-width: 0.8"/>
      </g>
     </g>
     <g id="text_3">
      <!-- 0 -->
      <g transform="translate(390.279688 298.998437) scale(0.1 -0.1)">
       <defs>
        <path id="DejaVuSans-30" d="M 2034 4250 
Q 1547 4250 1301 3770 
Q 1056 3291 1056 2328 
Q 1056 1369 1301 889 
Q 1547 409 2034 409 
Q 2525 409 2770 889 
Q 3016 1369 3016 2328 
Q 3016 3291 2770 3770 
Q 2525 4250 2034 4250 
z
M 2034 4750 
Q 2819 4750 3233 4129 
Q 3647 3509 3647 2328 
Q 3647 1150 3233 529 
Q 2819 -91 2034 -91 
Q 1250 -91 836 529 
Q 422 1150 422 2328 
Q 422 3509 836 4129 
Q 1250 4750 2034 4750 
z
" transform="scale(0.015625)"/>
       </defs>
       <use xlink:href="#DejaVuSans-30"/>
      </g>
     </g>
    </g>
    <g id="xtick_4">
     <g id="line2d_4">
      <g>
       <use xlink:href="#m7eb9ffe50e" x="515.206392" y="284.4" style="stroke: #000000; stroke-width: 0.8"/>
      </g>
     </g>
     <g id="text_4">
      <!-- 2 -->
      <g transform="translate(512.025142 298.998437) scale(0.1 -0.1)">
       <use xlink:href="#DejaVuSans-32"/>
      </g>
     </g>
    </g>
    <g id="xtick_5">
     <g id="line2d_5">
      <g>
       <use xlink:href="#m7eb9ffe50e" x="636.951847" y="284.4" style="stroke: #000000; stroke-width: 0.8"/>
      </g>
     </g>
     <g id="text_5">
      <!-- 4 -->
      <g transform="translate(633.770597 298.998437) scale(0.1 -0.1)">
       <use xlink:href="#DejaVuSans-34"/>
      </g>
     </g>
    </g>
    <g id="text_6">
     <!-- x -->
     <g transform="translate(387.542188 320.275) scale(0.2 -0.2)">
      <defs>
       <path id="DejaVuSans-78" d="M 3513 3500 
L 2247 1797 
L 3578 0 
L 2900 0 
L 1881 1375 
L 863 0 
L 184 0 
L 1544 1831 
L 300 3500 
L 978 3500 
L 1906 2253 
L 2834 3500 
L 3513 3500 
z
" transform="scale(0.015625)"/>
      </defs>
      <use xlink:href="#DejaVuSans-78"/>
     </g>
    </g>
   </g>
   <g id="matplotlib.axis_2">
    <g id="ytick_1">
     <g id="line2d_6">
      <defs>
       <path id="m8c98708a9d" d="M 0 0 
L -3.5 0 
" style="stroke: #000000; stroke-width: 0.8"/>
      </defs>
      <g>
       <use xlink:href="#m8c98708a9d" x="58.660938" y="255.397727" style="stroke: #000000; stroke-width: 0.8"/>
      </g>
     </g>
     <g id="text_7">
      <!-- −10 -->
      <g transform="translate(30.55625 259.196946) scale(0.1 -0.1)">
       <defs>
        <path id="DejaVuSans-31" d="M 794 531 
L 1825 531 
L 1825 4091 
L 703 3866 
L 703 4441 
L 1819 4666 
L 2450 4666 
L 2450 531 
L 3481 531 
L 3481 0 
L 794 0 
L 794 531 
z
" transform="scale(0.015625)"/>
       </defs>
       <use xlink:href="#DejaVuSans-2212"/>
       <use xlink:href="#DejaVuSans-31" x="83.789062"/>
       <use xlink:href="#DejaVuSans-30" x="147.412109"/>
      </g>
     </g>
    </g>
    <g id="ytick_2">
     <g id="line2d_7">
      <g>
       <use xlink:href="#m8c98708a9d" x="58.660938" y="197.075796" style="stroke: #000000; stroke-width: 0.8"/>
      </g>
     </g>
     <g id="text_8">
      <!-- −5 -->
      <g transform="translate(36.91875 200.875015) scale(0.1 -0.1)">
       <defs>
        <path id="DejaVuSans-35" d="M 691 4666 
L 3169 4666 
L 3169 4134 
L 1269 4134 
L 1269 2991 
Q 1406 3038 1543 3061 
Q 1681 3084 1819 3084 
Q 2600 3084 3056 2656 
Q 3513 2228 3513 1497 
Q 3513 744 3044 326 
Q 2575 -91 1722 -91 
Q 1428 -91 1123 -41 
Q 819 9 494 109 
L 494 744 
Q 775 591 1075 516 
Q 1375 441 1709 441 
Q 2250 441 2565 725 
Q 2881 1009 2881 1497 
Q 2881 1984 2565 2268 
Q 2250 2553 1709 2553 
Q 1456 2553 1204 2497 
Q 953 2441 691 2322 
L 691 4666 
z
" transform="scale(0.015625)"/>
       </defs>
       <use xlink:href="#DejaVuSans-2212"/>
       <use xlink:href="#DejaVuSans-35" x="83.789062"/>
      </g>
     </g>
    </g>
    <g id="ytick_3">
     <g id="line2d_8">
      <g>
       <use xlink:href="#m8c98708a9d" x="58.660938" y="138.753865" style="stroke: #000000; stroke-width: 0.8"/>
      </g>
     </g>
     <g id="text_9">
      <!-- 0 -->
      <g transform="translate(45.298438 142.553084) scale(0.1 -0.1)">
       <use xlink:href="#DejaVuSans-30"/>
      </g>
     </g>
    </g>
    <g id="ytick_4">
     <g id="line2d_9">
      <g>
       <use xlink:href="#m8c98708a9d" x="58.660938" y="80.431935" style="stroke: #000000; stroke-width: 0.8"/>
      </g>
     </g>
     <g id="text_10">
      <!-- 5 -->
      <g transform="translate(45.298438 84.231153) scale(0.1 -0.1)">
       <use xlink:href="#DejaVuSans-35"/>
      </g>
     </g>
    </g>
    <g id="ytick_5">
     <g id="line2d_10">
      <g>
       <use xlink:href="#m8c98708a9d" x="58.660938" y="22.110004" style="stroke: #000000; stroke-width: 0.8"/>
      </g>
     </g>
     <g id="text_11">
      <!-- 10 -->
      <g transform="translate(38.935938 25.909222) scale(0.1 -0.1)">
       <use xlink:href="#DejaVuSans-31"/>
       <use xlink:href="#DejaVuSans-30" x="63.623047"/>
      </g>
     </g>
    </g>
    <g id="text_12">
     <!-- f(x) -->
     <g transform="translate(22.396875 163.042187) rotate(-90) scale(0.2 -0.2)">
      <defs>
       <path id="DejaVuSans-66" d="M 2375 4863 
L 2375 4384 
L 1825 4384 
Q 1516 4384 1395 4259 
Q 1275 4134 1275 3809 
L 1275 3500 
L 2222 3500 
L 2222 3053 
L 1275 3053 
L 1275 0 
L 697 0 
L 697 3053 
L 147 3053 
L 147 3500 
L 697 3500 
L 697 3744 
Q 697 4328 969 4595 
Q 1241 4863 1831 4863 
L 2375 4863 
z
" transform="scale(0.015625)"/>
       <path id="DejaVuSans-28" d="M 1984 4856 
Q 1566 4138 1362 3434 
Q 1159 2731 1159 2009 
Q 1159 1288 1364 580 
Q 1569 -128 1984 -844 
L 1484 -844 
Q 1016 -109 783 600 
Q 550 1309 550 2009 
Q 550 2706 781 3412 
Q 1013 4119 1484 4856 
L 1984 4856 
z
" transform="scale(0.015625)"/>
       <path id="DejaVuSans-29" d="M 513 4856 
L 1013 4856 
Q 1481 4119 1714 3412 
Q 1947 2706 1947 2009 
Q 1947 1309 1714 600 
Q 1481 -109 1013 -844 
L 513 -844 
Q 928 -128 1133 580 
Q 1338 1288 1338 2009 
Q 1338 2731 1133 3434 
Q 928 4138 513 4856 
z
" transform="scale(0.015625)"/>
      </defs>
      <use xlink:href="#DejaVuSans-66"/>
      <use xlink:href="#DejaVuSans-28" x="35.205078"/>
      <use xlink:href="#DejaVuSans-78" x="74.21875"/>
      <use xlink:href="#DejaVuSans-29" x="133.398438"/>
     </g>
    </g>
   </g>
   <g id="line2d_11">
    <path d="M 89.097301 138.753865 
L 101.520307 138.753865 
L 113.943312 138.753865 
L 126.366318 138.753865 
L 138.789323 138.753865 
L 151.212329 138.753865 
L 163.635335 138.753865 
L 176.05834 138.753865 
L 188.481346 138.753865 
L 200.904351 138.753865 
L 213.327357 138.753865 
L 225.750362 138.753865 
L 238.173368 138.753865 
L 250.596373 138.753865 
L 263.019379 138.753865 
L 275.442385 138.753865 
L 287.86539 138.753865 
L 300.288396 138.753865 
L 312.711401 138.753865 
L 325.134407 138.753865 
L 337.557412 138.753865 
L 349.980418 138.753865 
L 362.403424 138.753865 
L 374.826429 138.753865 
L 387.249435 138.753865 
L 399.67244 138.753865 
L 412.095446 138.753865 
L 424.518451 138.753865 
L 436.941457 138.753865 
L 449.364463 138.753865 
L 461.787468 138.753865 
L 474.210474 138.753865 
L 486.633479 138.753865 
L 499.056485 138.753865 
L 511.47949 138.753865 
L 523.902496 138.753865 
L 536.325502 138.753865 
L 548.748507 138.753865 
L 561.171513 138.753865 
L 573.594518 138.753865 
L 586.017524 138.753865 
L 598.440529 138.753865 
L 610.863535 138.753865 
L 623.28654 138.753865 
L 635.709546 138.753865 
L 648.132552 138.753865 
L 660.555557 138.753865 
L 672.978563 138.753865 
L 685.401568 138.753865 
L 697.824574 138.753865 
" clip-path="url(#p3f6611f833)" style="fill: none; stroke: #000000; stroke-width: 4; stroke-linecap: square"/>
   </g>
   <g id="line2d_12">
    <path d="M 89.097301 25.068489 
L 101.520307 29.52584 
L 113.943312 33.983191 
L 126.366318 38.440542 
L 138.789323 42.897893 
L 151.212329 47.355244 
L 163.635335 51.812595 
L 176.05834 56.269945 
L 188.481346 60.727296 
L 200.904351 65.184647 
L 213.327357 69.641998 
L 225.750362 74.099349 
L 238.173368 78.5567 
L 250.596373 83.014051 
L 263.019379 87.471402 
L 275.442385 91.928753 
L 287.86539 96.386104 
L 300.288396 100.843455 
L 312.711401 105.300806 
L 325.134407 109.758157 
L 337.557412 114.215508 
L 349.980418 118.672859 
L 362.403424 123.13021 
L 374.826429 127.587561 
L 387.249435 132.044912 
L 399.67244 136.502263 
L 412.095446 140.959614 
L 424.518451 145.416965 
L 436.941457 149.874316 
L 449.364463 154.331667 
L 461.787468 158.789018 
L 474.210474 163.246369 
L 486.633479 167.70372 
L 499.056485 172.161071 
L 511.47949 176.618422 
L 523.902496 181.075773 
L 536.325502 185.533124 
L 548.748507 189.990475 
L 561.171513 194.447826 
L 573.594518 198.905177 
L 586.017524 203.362528 
L 598.440529 207.819879 
L 610.863535 212.27723 
L 623.28654 216.734581 
L 635.709546 221.191932 
L 648.132552 225.649283 
L 660.555557 230.106634 
L 672.978563 234.563984 
L 685.401568 239.021335 
L 697.824574 243.478686 
" clip-path="url(#p3f6611f833)" style="fill: none; stroke: #1f77b4; stroke-width: 1.5; stroke-linecap: square"/>
   </g>
   <g id="line2d_13">
    <path d="M 89.097301 106.529902 
L 101.520307 108.167346 
L 113.943312 109.80479 
L 126.366318 111.442234 
L 138.789323 113.079678 
L 151.212329 114.717122 
L 163.635335 116.354566 
L 176.05834 117.99201 
L 188.481346 119.629454 
L 200.904351 121.266898 
L 213.327357 122.904342 
L 225.750362 124.541786 
L 238.173368 126.17923 
L 250.596373 127.816674 
L 263.019379 129.454118 
L 275.442385 131.091562 
L 287.86539 132.729007 
L 300.288396 134.366451 
L 312.711401 136.003895 
L 325.134407 137.641339 
L 337.557412 139.278783 
L 349.980418 140.916227 
L 362.403424 142.553671 
L 374.826429 144.191115 
L 387.249435 145.828559 
L 399.67244 147.466003 
L 412.095446 149.103447 
L 424.518451 150.740891 
L 436.941457 152.378335 
L 449.364463 154.015779 
L 461.787468 155.653223 
L 474.210474 157.290667 
L 486.633479 158.928111 
L 499.056485 160.565555 
L 511.47949 162.203 
L 523.902496 163.840444 
L 536.325502 165.477888 
L 548.748507 167.115332 
L 561.171513 168.752776 
L 573.594518 170.39022 
L 586.017524 172.027664 
L 598.440529 173.665108 
L 610.863535 175.302552 
L 623.28654 176.939996 
L 635.709546 178.57744 
L 648.132552 180.214884 
L 660.555557 181.852328 
L 672.978563 183.489772 
L 685.401568 185.127216 
L 697.824574 186.76466 
" clip-path="url(#p3f6611f833)" style="fill: none; stroke: #ff7f0e; stroke-width: 1.5; stroke-linecap: square"/>
   </g>
   <g id="line2d_14">
    <path d="M 89.097301 101.09861 
L 101.520307 102.17748 
L 113.943312 103.256349 
L 126.366318 104.335218 
L 138.789323 105.414087 
L 151.212329 106.492957 
L 163.635335 107.571826 
L 176.05834 108.650695 
L 188.481346 109.729564 
L 200.904351 110.808433 
L 213.327357 111.887303 
L 225.750362 112.966172 
L 238.173368 114.045041 
L 250.596373 115.12391 
L 263.019379 116.20278 
L 275.442385 117.281649 
L 287.86539 118.360518 
L 300.288396 119.439387 
L 312.711401 120.518257 
L 325.134407 121.597126 
L 337.557412 122.675995 
L 349.980418 123.754864 
L 362.403424 124.833733 
L 374.826429 125.912603 
L 387.249435 126.991472 
L 399.67244 128.070341 
L 412.095446 129.14921 
L 424.518451 130.22808 
L 436.941457 131.306949 
L 449.364463 132.385818 
L 461.787468 133.464687 
L 474.210474 134.543556 
L 486.633479 135.622426 
L 499.056485 136.701295 
L 511.47949 137.780164 
L 523.902496 138.859033 
L 536.325502 139.937903 
L 548.748507 141.016772 
L 561.171513 142.095641 
L 573.594518 143.17451 
L 586.017524 144.253379 
L 598.440529 145.332249 
L 610.863535 146.411118 
L 623.28654 147.489987 
L 635.709546 148.568856 
L 648.132552 149.647726 
L 660.555557 150.726595 
L 672.978563 151.805464 
L 685.401568 152.884333 
L 697.824574 153.963202 
" clip-path="url(#p3f6611f833)" style="fill: none; stroke: #2ca02c; stroke-width: 1.5; stroke-linecap: square"/>
   </g>
   <g id="line2d_15">
    <path d="M 89.097301 135.797437 
L 101.520307 136.125108 
L 113.943312 136.452779 
L 126.366318 136.78045 
L 138.789323 137.108121 
L 151.212329 137.435792 
L 163.635335 137.763463 
L 176.05834 138.091134 
L 188.481346 138.418805 
L 200.904351 138.746476 
L 213.327357 139.074147 
L 225.750362 139.401818 
L 238.173368 139.729489 
L 250.596373 140.05716 
L 263.019379 140.384831 
L 275.442385 140.712502 
L 287.86539 141.040173 
L 300.288396 141.367843 
L 312.711401 141.695514 
L 325.134407 142.023185 
L 337.557412 142.350856 
L 349.980418 142.678527 
L 362.403424 143.006198 
L 374.826429 143.333869 
L 387.249435 143.66154 
L 399.67244 143.989211 
L 412.095446 144.316882 
L 424.518451 144.644553 
L 436.941457 144.972224 
L 449.364463 145.299895 
L 461.787468 145.627566 
L 474.210474 145.955237 
L 486.633479 146.282908 
L 499.056485 146.610579 
L 511.47949 146.93825 
L 523.902496 147.265921 
L 536.325502 147.593592 
L 548.748507 147.921263 
L 561.171513 148.248934 
L 573.594518 148.576605 
L 586.017524 148.904275 
L 598.440529 149.231946 
L 610.863535 149.559617 
L 623.28654 149.887288 
L 635.709546 150.214959 
L 648.132552 150.54263 
L 660.555557 150.870301 
L 672.978563 151.197972 
L 685.401568 151.525643 
L 697.824574 151.853314 
" clip-path="url(#p3f6611f833)" style="fill: none; stroke: #d62728; stroke-width: 1.5; stroke-linecap: square"/>
   </g>
   <g id="line2d_16">
    <path d="M 89.097301 27.87044 
L 101.520307 32.848595 
L 113.943312 37.826749 
L 126.366318 42.804903 
L 138.789323 47.783058 
L 151.212329 52.761212 
L 163.635335 57.739366 
L 176.05834 62.71752 
L 188.481346 67.695675 
L 200.904351 72.673829 
L 213.327357 77.651983 
L 225.750362 82.630138 
L 238.173368 87.608292 
L 250.596373 92.586446 
L 263.019379 97.5646 
L 275.442385 102.542755 
L 287.86539 107.520909 
L 300.288396 112.499063 
L 312.711401 117.477217 
L 325.134407 122.455372 
L 337.557412 127.433526 
L 349.980418 132.41168 
L 362.403424 137.389835 
L 374.826429 142.367989 
L 387.249435 147.346143 
L 399.67244 152.324297 
L 412.095446 157.302452 
L 424.518451 162.280606 
L 436.941457 167.25876 
L 449.364463 172.236914 
L 461.787468 177.215069 
L 474.210474 182.193223 
L 486.633479 187.171377 
L 499.056485 192.149532 
L 511.47949 197.127686 
L 523.902496 202.10584 
L 536.325502 207.083994 
L 548.748507 212.062149 
L 561.171513 217.040303 
L 573.594518 222.018457 
L 586.017524 226.996612 
L 598.440529 231.974766 
L 610.863535 236.95292 
L 623.28654 241.931074 
L 635.709546 246.909229 
L 648.132552 251.887383 
L 660.555557 256.865537 
L 672.978563 261.843691 
L 685.401568 266.821846 
L 697.824574 271.8 
" clip-path="url(#p3f6611f833)" style="fill: none; stroke: #9467bd; stroke-width: 1.5; stroke-linecap: square"/>
   </g>
   <g id="line2d_17">
    <path d="M 89.097301 135.816384 
L 101.520307 136.981726 
L 113.943312 138.147069 
L 126.366318 139.312411 
L 138.789323 140.477753 
L 151.212329 141.643096 
L 163.635335 142.808438 
L 176.05834 143.97378 
L 188.481346 145.139122 
L 200.904351 146.304465 
L 213.327357 147.469807 
L 225.750362 148.635149 
L 238.173368 149.800491 
L 250.596373 150.965834 
L 263.019379 152.131176 
L 275.442385 153.296518 
L 287.86539 154.461861 
L 300.288396 155.627203 
L 312.711401 156.792545 
L 325.134407 157.957887 
L 337.557412 159.12323 
L 349.980418 160.288572 
L 362.403424 161.453914 
L 374.826429 162.619256 
L 387.249435 163.784599 
L 399.67244 164.949941 
L 412.095446 166.115283 
L 424.518451 167.280626 
L 436.941457 168.445968 
L 449.364463 169.61131 
L 461.787468 170.776652 
L 474.210474 171.941995 
L 486.633479 173.107337 
L 499.056485 174.272679 
L 511.47949 175.438021 
L 523.902496 176.603364 
L 536.325502 177.768706 
L 548.748507 178.934048 
L 561.171513 180.099391 
L 573.594518 181.264733 
L 586.017524 182.430075 
L 598.440529 183.595417 
L 610.863535 184.76076 
L 623.28654 185.926102 
L 635.709546 187.091444 
L 648.132552 188.256786 
L 660.555557 189.422129 
L 672.978563 190.587471 
L 685.401568 191.752813 
L 697.824574 192.918156 
" clip-path="url(#p3f6611f833)" style="fill: none; stroke: #8c564b; stroke-width: 1.5; stroke-linecap: square"/>
   </g>
   <g id="line2d_18">
    <path d="M 89.097301 32.439921 
L 101.520307 36.735003 
L 113.943312 41.030086 
L 126.366318 45.325169 
L 138.789323 49.620252 
L 151.212329 53.915334 
L 163.635335 58.210417 
L 176.05834 62.5055 
L 188.481346 66.800583 
L 200.904351 71.095665 
L 213.327357 75.390748 
L 225.750362 79.685831 
L 238.173368 83.980914 
L 250.596373 88.275996 
L 263.019379 92.571079 
L 275.442385 96.866162 
L 287.86539 101.161245 
L 300.288396 105.456327 
L 312.711401 109.75141 
L 325.134407 114.046493 
L 337.557412 118.341576 
L 349.980418 122.636658 
L 362.403424 126.931741 
L 374.826429 131.226824 
L 387.249435 135.521907 
L 399.67244 139.816989 
L 412.095446 144.112072 
L 424.518451 148.407155 
L 436.941457 152.702238 
L 449.364463 156.99732 
L 461.787468 161.292403 
L 474.210474 165.587486 
L 486.633479 169.882569 
L 499.056485 174.177651 
L 511.47949 178.472734 
L 523.902496 182.767817 
L 536.325502 187.0629 
L 548.748507 191.357982 
L 561.171513 195.653065 
L 573.594518 199.948148 
L 586.017524 204.243231 
L 598.440529 208.538313 
L 610.863535 212.833396 
L 623.28654 217.128479 
L 635.709546 221.423562 
L 648.132552 225.718644 
L 660.555557 230.013727 
L 672.978563 234.30881 
L 685.401568 238.603893 
L 697.824574 242.898975 
" clip-path="url(#p3f6611f833)" style="fill: none; stroke: #e377c2; stroke-width: 1.5; stroke-linecap: square"/>
   </g>
   <g id="line2d_19">
    <path d="M 89.097301 124.001498 
L 101.520307 124.332962 
L 113.943312 124.664426 
L 126.366318 124.995889 
L 138.789323 125.327353 
L 151.212329 125.658817 
L 163.635335 125.990281 
L 176.05834 126.321745 
L 188.481346 126.653209 
L 200.904351 126.984673 
L 213.327357 127.316137 
L 225.750362 127.647601 
L 238.173368 127.979065 
L 250.596373 128.310529 
L 263.019379 128.641993 
L 275.442385 128.973457 
L 287.86539 129.304921 
L 300.288396 129.636385 
L 312.711401 129.967849 
L 325.134407 130.299313 
L 337.557412 130.630777 
L 349.980418 130.962241 
L 362.403424 131.293705 
L 374.826429 131.625169 
L 387.249435 131.956633 
L 399.67244 132.288097 
L 412.095446 132.619561 
L 424.518451 132.951025 
L 436.941457 133.282489 
L 449.364463 133.613953 
L 461.787468 133.945417 
L 474.210474 134.276881 
L 486.633479 134.608345 
L 499.056485 134.939809 
L 511.47949 135.271273 
L 523.902496 135.602737 
L 536.325502 135.934201 
L 548.748507 136.265665 
L 561.171513 136.597129 
L 573.594518 136.928593 
L 586.017524 137.260057 
L 598.440529 137.591521 
L 610.863535 137.922985 
L 623.28654 138.254449 
L 635.709546 138.585913 
L 648.132552 138.917377 
L 660.555557 139.248841 
L 672.978563 139.580304 
L 685.401568 139.911768 
L 697.824574 140.243232 
" clip-path="url(#p3f6611f833)" style="fill: none; stroke: #7f7f7f; stroke-width: 1.5; stroke-linecap: square"/>
   </g>
   <g id="line2d_20">
    <path d="M 89.097301 188.780169 
L 101.520307 185.632374 
L 113.943312 182.48458 
L 126.366318 179.336785 
L 138.789323 176.188991 
L 151.212329 173.041196 
L 163.635335 169.893402 
L 176.05834 166.745607 
L 188.481346 163.597813 
L 200.904351 160.450018 
L 213.327357 157.302224 
L 225.750362 154.154429 
L 238.173368 151.006635 
L 250.596373 147.85884 
L 263.019379 144.711046 
L 275.442385 141.563251 
L 287.86539 138.415457 
L 300.288396 135.267663 
L 312.711401 132.119868 
L 325.134407 128.972074 
L 337.557412 125.824279 
L 349.980418 122.676485 
L 362.403424 119.52869 
L 374.826429 116.380896 
L 387.249435 113.233101 
L 399.67244 110.085307 
L 412.095446 106.937512 
L 424.518451 103.789718 
L 436.941457 100.641923 
L 449.364463 97.494129 
L 461.787468 94.346334 
L 474.210474 91.19854 
L 486.633479 88.050745 
L 499.056485 84.902951 
L 511.47949 81.755157 
L 523.902496 78.607362 
L 536.325502 75.459568 
L 548.748507 72.311773 
L 561.171513 69.163979 
L 573.594518 66.016184 
L 586.017524 62.86839 
L 598.440529 59.720595 
L 610.863535 56.572801 
L 623.28654 53.425006 
L 635.709546 50.277212 
L 648.132552 47.129417 
L 660.555557 43.981623 
L 672.978563 40.833828 
L 685.401568 37.686034 
L 697.824574 34.538239 
" clip-path="url(#p3f6611f833)" style="fill: none; stroke: #bcbd22; stroke-width: 1.5; stroke-linecap: square"/>
   </g>
   <g id="line2d_21">
    <path d="M 89.097301 52.255432 
L 101.520307 55.503266 
L 113.943312 58.7511 
L 126.366318 61.998934 
L 138.789323 65.246768 
L 151.212329 68.494602 
L 163.635335 71.742436 
L 176.05834 74.990269 
L 188.481346 78.238103 
L 200.904351 81.485937 
L 213.327357 84.733771 
L 225.750362 87.981605 
L 238.173368 91.229439 
L 250.596373 94.477273 
L 263.019379 97.725107 
L 275.442385 100.972941 
L 287.86539 104.220775 
L 300.288396 107.468609 
L 312.711401 110.716443 
L 325.134407 113.964277 
L 337.557412 117.21211 
L 349.980418 120.459944 
L 362.403424 123.707778 
L 374.826429 126.955612 
L 387.249435 130.203446 
L 399.67244 133.45128 
L 412.095446 136.699114 
L 424.518451 139.946948 
L 436.941457 143.194782 
L 449.364463 146.442616 
L 461.787468 149.69045 
L 474.210474 152.938284 
L 486.633479 156.186118 
L 499.056485 159.433952 
L 511.47949 162.681785 
L 523.902496 165.929619 
L 536.325502 169.177453 
L 548.748507 172.425287 
L 561.171513 175.673121 
L 573.594518 178.920955 
L 586.017524 182.168789 
L 598.440529 185.416623 
L 610.863535 188.664457 
L 623.28654 191.912291 
L 635.709546 195.160125 
L 648.132552 198.407959 
L 660.555557 201.655793 
L 672.978563 204.903627 
L 685.401568 208.15146 
L 697.824574 211.399294 
" clip-path="url(#p3f6611f833)" style="fill: none; stroke: #17becf; stroke-width: 1.5; stroke-linecap: square"/>
   </g>
   <g id="patch_3">
    <path d="M 58.660938 284.4 
L 58.660938 7.2 
" style="fill: none; stroke: #000000; stroke-width: 0.8; stroke-linejoin: miter; stroke-linecap: square"/>
   </g>
   <g id="patch_4">
    <path d="M 728.260938 284.4 
L 728.260938 7.2 
" style="fill: none; stroke: #000000; stroke-width: 0.8; stroke-linejoin: miter; stroke-linecap: square"/>
   </g>
   <g id="patch_5">
    <path d="M 58.660937 284.4 
L 728.260937 284.4 
" style="fill: none; stroke: #000000; stroke-width: 0.8; stroke-linejoin: miter; stroke-linecap: square"/>
   </g>
   <g id="patch_6">
    <path d="M 58.660937 7.2 
L 728.260937 7.2 
" style="fill: none; stroke: #000000; stroke-width: 0.8; stroke-linejoin: miter; stroke-linecap: square"/>
   </g>
  </g>
 </g>
 <defs>
  <clipPath id="p3f6611f833">
   <rect x="58.660938" y="7.2" width="669.6" height="277.2"/>
  </clipPath>
 </defs>
</svg>
