<?xml version="1.0" encoding="utf-8" standalone="no"?>
<!DOCTYPE svg PUBLIC "-//W3C//DTD SVG 1.1//EN"
  "http://www.w3.org/Graphics/SVG/1.1/DTD/svg11.dtd">
<svg xmlns:xlink="http://www.w3.org/1999/xlink" width="715.282813pt" height="308.278125pt" viewBox="0 0 715.282813 308.278125" xmlns="http://www.w3.org/2000/svg" version="1.1">
 <metadata>
  <rdf:RDF xmlns:dc="http://purl.org/dc/elements/1.1/" xmlns:cc="http://creativecommons.org/ns#" xmlns:rdf="http://www.w3.org/1999/02/22-rdf-syntax-ns#">
   <cc:Work>
    <dc:type rdf:resource="http://purl.org/dc/dcmitype/StillImage"/>
    <dc:date>2025-07-11T19:44:41.554604</dc:date>
    <dc:format>image/svg+xml</dc:format>
    <dc:creator>
     <cc:Agent>
      <dc:title>Matplotlib v3.6.1, https://matplotlib.org/</dc:title>
     </cc:Agent>
    </dc:creator>
   </cc:Work>
  </rdf:RDF>
 </metadata>
 <defs>
  <style type="text/css">*{stroke-linejoin: round; stroke-linecap: butt}</style>
 </defs>
 <g id="figure_1">
  <g id="patch_1">
   <path d="M 0 308.278125 
L 715.282813 308.278125 
L 715.282813 0 
L 0 0 
z
" style="fill: #ffffff"/>
  </g>
  <g id="axes_1">
   <g id="patch_2">
    <path d="M 38.482813 284.4 
L 708.082813 284.4 
L 708.082813 7.2 
L 38.482813 7.2 
z
" style="fill: #ffffff"/>
   </g>
   <g id="matplotlib.axis_1">
    <g id="xtick_1">
     <g id="line2d_1">
      <defs>
       <path id="md127954169" d="M 0 0 
L 0 3.5 
" style="stroke: #000000; stroke-width: 0.8"/>
      </defs>
      <g>
       <use xlink:href="#md127954169" x="68.919176" y="284.4" style="stroke: #000000; stroke-width: 0.8"/>
      </g>
     </g>
     <g id="text_1">
      <!-- 0 -->
      <g transform="translate(65.737926 298.998438) scale(0.1 -0.1)">
       <defs>
        <path id="DejaVuSans-30" d="M 2034 4250 
Q 1547 4250 1301 3770 
Q 1056 3291 1056 2328 
Q 1056 1369 1301 889 
Q 1547 409 2034 409 
Q 2525 409 2770 889 
Q 3016 1369 3016 2328 
Q 3016 3291 2770 3770 
Q 2525 4250 2034 4250 
z
M 2034 4750 
Q 2819 4750 3233 4129 
Q 3647 3509 3647 2328 
Q 3647 1150 3233 529 
Q 2819 -91 2034 -91 
Q 1250 -91 836 529 
Q 422 1150 422 2328 
Q 422 3509 836 4129 
Q 1250 4750 2034 4750 
z
" transform="scale(0.015625)"/>
       </defs>
       <use xlink:href="#DejaVuSans-30"/>
      </g>
     </g>
    </g>
    <g id="xtick_2">
     <g id="line2d_2">
      <g>
       <use xlink:href="#md127954169" x="190.664631" y="284.4" style="stroke: #000000; stroke-width: 0.8"/>
      </g>
     </g>
     <g id="text_2">
      <!-- 1 -->
      <g transform="translate(187.483381 298.998438) scale(0.1 -0.1)">
       <defs>
        <path id="DejaVuSans-31" d="M 794 531 
L 1825 531 
L 1825 4091 
L 703 3866 
L 703 4441 
L 1819 4666 
L 2450 4666 
L 2450 531 
L 3481 531 
L 3481 0 
L 794 0 
L 794 531 
z
" transform="scale(0.015625)"/>
       </defs>
       <use xlink:href="#DejaVuSans-31"/>
      </g>
     </g>
    </g>
    <g id="xtick_3">
     <g id="line2d_3">
      <g>
       <use xlink:href="#md127954169" x="312.410085" y="284.4" style="stroke: #000000; stroke-width: 0.8"/>
      </g>
     </g>
     <g id="text_3">
      <!-- 2 -->
      <g transform="translate(309.228835 298.998438) scale(0.1 -0.1)">
       <defs>
        <path id="DejaVuSans-32" d="M 1228 531 
L 3431 531 
L 3431 0 
L 469 0 
L 469 531 
Q 828 903 1448 1529 
Q 2069 2156 2228 2338 
Q 2531 2678 2651 2914 
Q 2772 3150 2772 3378 
Q 2772 3750 2511 3984 
Q 2250 4219 1831 4219 
Q 1534 4219 1204 4116 
Q 875 4013 500 3803 
L 500 4441 
Q 881 4594 1212 4672 
Q 1544 4750 1819 4750 
Q 2544 4750 2975 4387 
Q 3406 4025 3406 3419 
Q 3406 3131 3298 2873 
Q 3191 2616 2906 2266 
Q 2828 2175 2409 1742 
Q 1991 1309 1228 531 
z
" transform="scale(0.015625)"/>
       </defs>
       <use xlink:href="#DejaVuSans-32"/>
      </g>
     </g>
    </g>
    <g id="xtick_4">
     <g id="line2d_4">
      <g>
       <use xlink:href="#md127954169" x="434.15554" y="284.4" style="stroke: #000000; stroke-width: 0.8"/>
      </g>
     </g>
     <g id="text_4">
      <!-- 3 -->
      <g transform="translate(430.97429 298.998438) scale(0.1 -0.1)">
       <defs>
        <path id="DejaVuSans-33" d="M 2597 2516 
Q 3050 2419 3304 2112 
Q 3559 1806 3559 1356 
Q 3559 666 3084 287 
Q 2609 -91 1734 -91 
Q 1441 -91 1130 -33 
Q 819 25 488 141 
L 488 750 
Q 750 597 1062 519 
Q 1375 441 1716 441 
Q 2309 441 2620 675 
Q 2931 909 2931 1356 
Q 2931 1769 2642 2001 
Q 2353 2234 1838 2234 
L 1294 2234 
L 1294 2753 
L 1863 2753 
Q 2328 2753 2575 2939 
Q 2822 3125 2822 3475 
Q 2822 3834 2567 4026 
Q 2313 4219 1838 4219 
Q 1578 4219 1281 4162 
Q 984 4106 628 3988 
L 628 4550 
Q 988 4650 1302 4700 
Q 1616 4750 1894 4750 
Q 2613 4750 3031 4423 
Q 3450 4097 3450 3541 
Q 3450 3153 3228 2886 
Q 3006 2619 2597 2516 
z
" transform="scale(0.015625)"/>
       </defs>
       <use xlink:href="#DejaVuSans-33"/>
      </g>
     </g>
    </g>
    <g id="xtick_5">
     <g id="line2d_5">
      <g>
       <use xlink:href="#md127954169" x="555.900994" y="284.4" style="stroke: #000000; stroke-width: 0.8"/>
      </g>
     </g>
     <g id="text_5">
      <!-- 4 -->
      <g transform="translate(552.719744 298.998438) scale(0.1 -0.1)">
       <defs>
        <path id="DejaVuSans-34" d="M 2419 4116 
L 825 1625 
L 2419 1625 
L 2419 4116 
z
M 2253 4666 
L 3047 4666 
L 3047 1625 
L 3713 1625 
L 3713 1100 
L 3047 1100 
L 3047 0 
L 2419 0 
L 2419 1100 
L 313 1100 
L 313 1709 
L 2253 4666 
z
" transform="scale(0.015625)"/>
       </defs>
       <use xlink:href="#DejaVuSans-34"/>
      </g>
     </g>
    </g>
    <g id="xtick_6">
     <g id="line2d_6">
      <g>
       <use xlink:href="#md127954169" x="677.646449" y="284.4" style="stroke: #000000; stroke-width: 0.8"/>
      </g>
     </g>
     <g id="text_6">
      <!-- 5 -->
      <g transform="translate(674.465199 298.998438) scale(0.1 -0.1)">
       <defs>
        <path id="DejaVuSans-35" d="M 691 4666 
L 3169 4666 
L 3169 4134 
L 1269 4134 
L 1269 2991 
Q 1406 3038 1543 3061 
Q 1681 3084 1819 3084 
Q 2600 3084 3056 2656 
Q 3513 2228 3513 1497 
Q 3513 744 3044 326 
Q 2575 -91 1722 -91 
Q 1428 -91 1123 -41 
Q 819 9 494 109 
L 494 744 
Q 775 591 1075 516 
Q 1375 441 1709 441 
Q 2250 441 2565 725 
Q 2881 1009 2881 1497 
Q 2881 1984 2565 2268 
Q 2250 2553 1709 2553 
Q 1456 2553 1204 2497 
Q 953 2441 691 2322 
L 691 4666 
z
" transform="scale(0.015625)"/>
       </defs>
       <use xlink:href="#DejaVuSans-35"/>
      </g>
     </g>
    </g>
   </g>
   <g id="matplotlib.axis_2">
    <g id="ytick_1">
     <g id="line2d_7">
      <defs>
       <path id="m5c5028cf58" d="M 0 0 
L -3.5 0 
" style="stroke: #000000; stroke-width: 0.8"/>
      </defs>
      <g>
       <use xlink:href="#m5c5028cf58" x="38.482813" y="280.109041" style="stroke: #000000; stroke-width: 0.8"/>
      </g>
     </g>
     <g id="text_7">
      <!-- −1.5 -->
      <g transform="translate(7.2 283.908259) scale(0.1 -0.1)">
       <defs>
        <path id="DejaVuSans-2212" d="M 678 2272 
L 4684 2272 
L 4684 1741 
L 678 1741 
L 678 2272 
z
" transform="scale(0.015625)"/>
        <path id="DejaVuSans-2e" d="M 684 794 
L 1344 794 
L 1344 0 
L 684 0 
L 684 794 
z
" transform="scale(0.015625)"/>
       </defs>
       <use xlink:href="#DejaVuSans-2212"/>
       <use xlink:href="#DejaVuSans-31" x="83.789062"/>
       <use xlink:href="#DejaVuSans-2e" x="147.412109"/>
       <use xlink:href="#DejaVuSans-35" x="179.199219"/>
      </g>
     </g>
    </g>
    <g id="ytick_2">
     <g id="line2d_8">
      <g>
       <use xlink:href="#m5c5028cf58" x="38.482813" y="239.818327" style="stroke: #000000; stroke-width: 0.8"/>
      </g>
     </g>
     <g id="text_8">
      <!-- −1.0 -->
      <g transform="translate(7.2 243.617546) scale(0.1 -0.1)">
       <use xlink:href="#DejaVuSans-2212"/>
       <use xlink:href="#DejaVuSans-31" x="83.789062"/>
       <use xlink:href="#DejaVuSans-2e" x="147.412109"/>
       <use xlink:href="#DejaVuSans-30" x="179.199219"/>
      </g>
     </g>
    </g>
    <g id="ytick_3">
     <g id="line2d_9">
      <g>
       <use xlink:href="#m5c5028cf58" x="38.482813" y="199.527614" style="stroke: #000000; stroke-width: 0.8"/>
      </g>
     </g>
     <g id="text_9">
      <!-- −0.5 -->
      <g transform="translate(7.2 203.326833) scale(0.1 -0.1)">
       <use xlink:href="#DejaVuSans-2212"/>
       <use xlink:href="#DejaVuSans-30" x="83.789062"/>
       <use xlink:href="#DejaVuSans-2e" x="147.412109"/>
       <use xlink:href="#DejaVuSans-35" x="179.199219"/>
      </g>
     </g>
    </g>
    <g id="ytick_4">
     <g id="line2d_10">
      <g>
       <use xlink:href="#m5c5028cf58" x="38.482813" y="159.236901" style="stroke: #000000; stroke-width: 0.8"/>
      </g>
     </g>
     <g id="text_10">
      <!-- 0.0 -->
      <g transform="translate(15.579688 163.03612) scale(0.1 -0.1)">
       <use xlink:href="#DejaVuSans-30"/>
       <use xlink:href="#DejaVuSans-2e" x="63.623047"/>
       <use xlink:href="#DejaVuSans-30" x="95.410156"/>
      </g>
     </g>
    </g>
    <g id="ytick_5">
     <g id="line2d_11">
      <g>
       <use xlink:href="#m5c5028cf58" x="38.482813" y="118.946188" style="stroke: #000000; stroke-width: 0.8"/>
      </g>
     </g>
     <g id="text_11">
      <!-- 0.5 -->
      <g transform="translate(15.579688 122.745407) scale(0.1 -0.1)">
       <use xlink:href="#DejaVuSans-30"/>
       <use xlink:href="#DejaVuSans-2e" x="63.623047"/>
       <use xlink:href="#DejaVuSans-35" x="95.410156"/>
      </g>
     </g>
    </g>
    <g id="ytick_6">
     <g id="line2d_12">
      <g>
       <use xlink:href="#m5c5028cf58" x="38.482813" y="78.655475" style="stroke: #000000; stroke-width: 0.8"/>
      </g>
     </g>
     <g id="text_12">
      <!-- 1.0 -->
      <g transform="translate(15.579688 82.454694) scale(0.1 -0.1)">
       <use xlink:href="#DejaVuSans-31"/>
       <use xlink:href="#DejaVuSans-2e" x="63.623047"/>
       <use xlink:href="#DejaVuSans-30" x="95.410156"/>
      </g>
     </g>
    </g>
    <g id="ytick_7">
     <g id="line2d_13">
      <g>
       <use xlink:href="#m5c5028cf58" x="38.482813" y="38.364762" style="stroke: #000000; stroke-width: 0.8"/>
      </g>
     </g>
     <g id="text_13">
      <!-- 1.5 -->
      <g transform="translate(15.579688 42.163981) scale(0.1 -0.1)">
       <use xlink:href="#DejaVuSans-31"/>
       <use xlink:href="#DejaVuSans-2e" x="63.623047"/>
       <use xlink:href="#DejaVuSans-35" x="95.410156"/>
      </g>
     </g>
    </g>
   </g>
   <g id="line2d_14">
    <path d="M 68.919176 219.780161 
L 81.342182 215.873436 
L 93.765187 208.908872 
L 106.188193 198.883419 
L 118.611198 186.002864 
L 131.034204 170.669821 
L 143.45721 153.457332 
L 155.880215 135.070228 
L 168.303221 116.297775 
L 180.726226 97.96209 
L 193.149232 80.867214 
L 205.572237 65.753273 
L 217.995243 53.259704 
L 230.418248 43.899212 
L 242.841254 38.043263 
L 255.26426 35.917574 
L 267.687265 37.60527 
L 280.110271 43.05461 
L 292.533276 52.088582 
L 304.956282 64.41451 
L 317.379287 79.632973 
L 329.802293 97.247011 
L 342.225299 116.67333 
L 354.648304 137.257699 
L 367.07131 158.296812 
L 379.494315 179.067313 
L 391.917321 198.861681 
L 404.340326 217.028843 
L 416.763332 233.015701 
L 429.186338 246.404933 
L 441.609343 256.944332 
L 454.032349 264.562986 
L 466.455354 269.371821 
L 478.87836 271.647305 
L 491.301365 271.8 
L 503.724371 270.331511 
L 516.147377 267.784955 
L 528.570382 264.695335 
L 540.993388 261.545304 
L 553.416393 258.731307 
L 565.839399 256.542473 
L 578.262404 255.152884 
L 590.68541 254.625247 
L 603.108415 254.922501 
L 615.531421 255.923411 
L 627.954427 257.438361 
L 640.377432 259.223089 
L 652.800438 260.989711 
L 665.223443 262.416676 
L 677.646449 263.160071 
" clip-path="url(#p327c802d5d)" style="fill: none; stroke: #1f77b4; stroke-opacity: 0.5; stroke-width: 1.5; stroke-linecap: square"/>
   </g>
   <g id="line2d_15">
    <path d="M 68.919176 239.546222 
L 81.342182 235.491211 
L 93.765187 230.436429 
L 106.188193 224.475464 
L 118.611198 217.722781 
L 131.034204 210.312032 
L 143.45721 202.397579 
L 155.880215 194.157981 
L 168.303221 185.800269 
L 180.726226 177.562944 
L 193.149232 169.715839 
L 205.572237 162.555182 
L 217.995243 156.393119 
L 230.418248 151.541649 
L 242.841254 148.291991 
L 255.26426 146.89122 
L 267.687265 147.518536 
L 280.110271 150.26354 
L 292.533276 155.109216 
L 304.956282 161.921376 
L 317.379287 170.446265 
L 329.802293 180.317081 
L 342.225299 191.069632 
L 354.648304 202.166416 
L 367.07131 213.028176 
L 379.494315 223.070826 
L 391.917321 231.745182 
L 404.340326 238.576687 
L 416.763332 243.201536 
L 429.186338 245.395937 
L 441.609343 245.095414 
L 454.032349 242.401619 
L 466.455354 237.575447 
L 478.87836 231.016133 
L 491.301365 223.227979 
L 503.724371 214.777258 
L 516.147377 206.243658 
L 528.570382 198.170978 
L 540.993388 191.022555 
L 553.416393 185.146148 
L 565.839399 180.752368 
L 578.262404 177.908857 
L 590.68541 176.550224 
L 603.108415 176.502061 
L 615.531421 177.514816 
L 627.954427 179.302415 
L 640.377432 181.579773 
L 652.800438 184.093886 
L 665.223443 186.644598 
L 677.646449 189.093181 
" clip-path="url(#p327c802d5d)" style="fill: none; stroke: #ff7f0e; stroke-opacity: 0.5; stroke-width: 1.5; stroke-linecap: square"/>
   </g>
   <g id="line2d_16">
    <path d="M 68.919176 130.082889 
L 81.342182 121.351488 
L 93.765187 111.561505 
L 106.188193 101.094308 
L 118.611198 90.455281 
L 131.034204 80.231462 
L 143.45721 71.039531 
L 155.880215 63.470114 
L 168.303221 58.034731 
L 180.726226 55.121211 
L 193.149232 54.962588 
L 205.572237 57.622174 
L 217.995243 62.995649 
L 230.418248 70.828585 
L 242.841254 80.746253 
L 255.26426 92.29113 
L 267.687265 104.963423 
L 280.110271 118.259947 
L 292.533276 131.707661 
L 304.956282 144.889425 
L 317.379287 157.460704 
L 329.802293 169.157216 
L 342.225299 179.794518 
L 354.648304 189.260918 
L 367.07131 197.505725 
L 379.494315 204.524852 
L 391.917321 210.345716 
L 404.340326 215.013241 
L 416.763332 218.578582 
L 429.186338 221.091675 
L 441.609343 222.598216 
L 454.032349 223.141143 
L 466.455354 222.765674 
L 478.87836 221.526712 
L 491.301365 219.496532 
L 503.724371 216.770559 
L 516.147377 213.469571 
L 528.570382 209.736647 
L 540.993388 205.728914 
L 553.416393 201.604648 
L 565.839399 197.507918 
L 578.262404 193.553368 
L 590.68541 189.814387 
L 603.108415 186.31733 
L 615.531421 183.0436 
L 627.954427 179.939795 
L 640.377432 176.934615 
L 652.800438 173.959462 
L 665.223443 170.968756 
L 677.646449 167.955824 
" clip-path="url(#p327c802d5d)" style="fill: none; stroke: #2ca02c; stroke-opacity: 0.5; stroke-width: 1.5; stroke-linecap: square"/>
   </g>
   <g id="line2d_17">
    <path d="M 68.919176 158.011569 
L 81.342182 135.909084 
L 93.765187 114.468754 
L 106.188193 94.219336 
L 118.611198 75.656587 
L 131.034204 59.233017 
L 143.45721 45.342924 
L 155.880215 34.30263 
L 168.303221 26.3277 
L 180.726226 21.510164 
L 193.149232 19.8 
L 205.572237 20.995697 
L 217.995243 24.747691 
L 230.418248 30.577572 
L 242.841254 37.912944 
L 255.26426 46.135888 
L 267.687265 54.640013 
L 280.110271 62.889358 
L 292.533276 70.471596 
L 304.956282 77.13827 
L 317.379287 82.82651 
L 329.802293 87.658928 
L 342.225299 91.921726 
L 354.648304 96.0236 
L 367.07131 100.440977 
L 379.494315 105.656423 
L 391.917321 112.097753 
L 404.340326 120.085108 
L 416.763332 129.791503 
L 429.186338 141.220652 
L 441.609343 154.20354 
L 454.032349 168.412744 
L 466.455354 183.392064 
L 478.87836 198.597137 
L 491.301365 213.442626 
L 503.724371 227.351092 
L 516.147377 239.799145 
L 528.570382 250.35741 
L 540.993388 258.721546 
L 553.416393 264.73269 
L 565.839399 268.386179 
L 578.262404 269.828489 
L 590.68541 269.342709 
L 603.108415 267.323556 
L 615.531421 264.243733 
L 627.954427 260.613865 
L 640.377432 256.939432 
L 652.800438 253.678238 
L 665.223443 251.202706 
L 677.646449 249.770881 
" clip-path="url(#p327c802d5d)" style="fill: none; stroke: #d62728; stroke-opacity: 0.5; stroke-width: 1.5; stroke-linecap: square"/>
   </g>
   <g id="line2d_18">
    <path d="M 68.919176 191.228415 
L 81.342182 181.535975 
L 93.765187 172.060307 
L 106.188193 163.3574 
L 118.611198 155.865824 
L 131.034204 149.877632 
L 143.45721 145.522472 
L 155.880215 142.766235 
L 168.303221 141.424368 
L 180.726226 141.188836 
L 193.149232 141.665812 
L 205.572237 142.420287 
L 217.995243 143.022624 
L 230.418248 143.091872 
L 242.841254 142.331102 
L 255.26426 140.551116 
L 267.687265 137.680469 
L 280.110271 133.76157 
L 292.533276 128.934567 
L 304.956282 123.412153 
L 317.379287 117.449297 
L 329.802293 111.312146 
L 342.225299 105.25001 
L 354.648304 99.473303 
L 367.07131 94.139316 
L 379.494315 89.346463 
L 391.917321 85.136541 
L 404.340326 81.503952 
L 416.763332 78.410244 
L 429.186338 75.802021 
L 441.609343 73.630493 
L 454.032349 71.87037 
L 466.455354 70.536344 
L 478.87836 69.695124 
L 491.301365 69.471245 
L 503.724371 70.045408 
L 516.147377 71.644542 
L 528.570382 74.523874 
L 540.993388 78.942192 
L 553.416393 85.132689 
L 565.839399 93.272398 
L 578.262404 103.454104 
L 590.68541 115.664079 
L 603.108415 129.768918 
L 615.531421 145.513309 
L 627.954427 162.529502 
L 640.377432 180.35747 
L 652.800438 198.473832 
L 665.223443 216.326214 
L 677.646449 233.369417 
" clip-path="url(#p327c802d5d)" style="fill: none; stroke: #9467bd; stroke-opacity: 0.5; stroke-width: 1.5; stroke-linecap: square"/>
   </g>
   <g id="patch_3">
    <path d="M 38.482813 284.4 
L 38.482813 7.2 
" style="fill: none; stroke: #000000; stroke-width: 0.8; stroke-linejoin: miter; stroke-linecap: square"/>
   </g>
   <g id="patch_4">
    <path d="M 708.082813 284.4 
L 708.082813 7.2 
" style="fill: none; stroke: #000000; stroke-width: 0.8; stroke-linejoin: miter; stroke-linecap: square"/>
   </g>
   <g id="patch_5">
    <path d="M 38.482813 284.4 
L 708.082813 284.4 
" style="fill: none; stroke: #000000; stroke-width: 0.8; stroke-linejoin: miter; stroke-linecap: square"/>
   </g>
   <g id="patch_6">
    <path d="M 38.482813 7.2 
L 708.082813 7.2 
" style="fill: none; stroke: #000000; stroke-width: 0.8; stroke-linejoin: miter; stroke-linecap: square"/>
   </g>
  </g>
 </g>
 <defs>
  <clipPath id="p327c802d5d">
   <rect x="38.482813" y="7.2" width="669.6" height="277.2"/>
  </clipPath>
 </defs>
</svg>
