<?xml version="1.0" encoding="utf-8" standalone="no"?>
<!DOCTYPE svg PUBLIC "-//W3C//DTD SVG 1.1//EN"
  "http://www.w3.org/Graphics/SVG/1.1/DTD/svg11.dtd">
<svg xmlns:xlink="http://www.w3.org/1999/xlink" width="705.742188pt" height="308.278125pt" viewBox="0 0 705.742188 308.278125" xmlns="http://www.w3.org/2000/svg" version="1.1">
 <metadata>
  <rdf:RDF xmlns:dc="http://purl.org/dc/elements/1.1/" xmlns:cc="http://creativecommons.org/ns#" xmlns:rdf="http://www.w3.org/1999/02/22-rdf-syntax-ns#">
   <cc:Work>
    <dc:type rdf:resource="http://purl.org/dc/dcmitype/StillImage"/>
    <dc:date>2025-06-30T15:23:13.758968</dc:date>
    <dc:format>image/svg+xml</dc:format>
    <dc:creator>
     <cc:Agent>
      <dc:title>Matplotlib v3.7.2, https://matplotlib.org/</dc:title>
     </cc:Agent>
    </dc:creator>
   </cc:Work>
  </rdf:RDF>
 </metadata>
 <defs>
  <style type="text/css">*{stroke-linejoin: round; stroke-linecap: butt}</style>
 </defs>
 <g id="figure_1">
  <g id="patch_1">
   <path d="M 0 308.278125 
L 705.742188 308.278125 
L 705.742188 0 
L 0 0 
z
" style="fill: #ffffff"/>
  </g>
  <g id="axes_1">
   <g id="patch_2">
    <path d="M 28.942188 284.4 
L 698.542188 284.4 
L 698.542188 7.2 
L 28.942188 7.2 
z
" style="fill: #ffffff"/>
   </g>
   <g id="matplotlib.axis_1">
    <g id="xtick_1">
     <g id="line2d_1">
      <defs>
       <path id="m0c739cebaa" d="M 0 0 
L 0 3.5 
" style="stroke: #000000; stroke-width: 0.8"/>
      </defs>
      <g>
       <use xlink:href="#m0c739cebaa" x="59.378551" y="284.4" style="stroke: #000000; stroke-width: 0.8"/>
      </g>
     </g>
     <g id="text_1">
      <!-- 0 -->
      <g transform="translate(56.197301 298.998438) scale(0.1 -0.1)">
       <defs>
        <path id="DejaVuSans-30" d="M 2034 4250 
Q 1547 4250 1301 3770 
Q 1056 3291 1056 2328 
Q 1056 1369 1301 889 
Q 1547 409 2034 409 
Q 2525 409 2770 889 
Q 3016 1369 3016 2328 
Q 3016 3291 2770 3770 
Q 2525 4250 2034 4250 
z
M 2034 4750 
Q 2819 4750 3233 4129 
Q 3647 3509 3647 2328 
Q 3647 1150 3233 529 
Q 2819 -91 2034 -91 
Q 1250 -91 836 529 
Q 422 1150 422 2328 
Q 422 3509 836 4129 
Q 1250 4750 2034 4750 
z
" transform="scale(0.015625)"/>
       </defs>
       <use xlink:href="#DejaVuSans-30"/>
      </g>
     </g>
    </g>
    <g id="xtick_2">
     <g id="line2d_2">
      <g>
       <use xlink:href="#m0c739cebaa" x="181.124006" y="284.4" style="stroke: #000000; stroke-width: 0.8"/>
      </g>
     </g>
     <g id="text_2">
      <!-- 1 -->
      <g transform="translate(177.942756 298.998438) scale(0.1 -0.1)">
       <defs>
        <path id="DejaVuSans-31" d="M 794 531 
L 1825 531 
L 1825 4091 
L 703 3866 
L 703 4441 
L 1819 4666 
L 2450 4666 
L 2450 531 
L 3481 531 
L 3481 0 
L 794 0 
L 794 531 
z
" transform="scale(0.015625)"/>
       </defs>
       <use xlink:href="#DejaVuSans-31"/>
      </g>
     </g>
    </g>
    <g id="xtick_3">
     <g id="line2d_3">
      <g>
       <use xlink:href="#m0c739cebaa" x="302.86946" y="284.4" style="stroke: #000000; stroke-width: 0.8"/>
      </g>
     </g>
     <g id="text_3">
      <!-- 2 -->
      <g transform="translate(299.68821 298.998438) scale(0.1 -0.1)">
       <defs>
        <path id="DejaVuSans-32" d="M 1228 531 
L 3431 531 
L 3431 0 
L 469 0 
L 469 531 
Q 828 903 1448 1529 
Q 2069 2156 2228 2338 
Q 2531 2678 2651 2914 
Q 2772 3150 2772 3378 
Q 2772 3750 2511 3984 
Q 2250 4219 1831 4219 
Q 1534 4219 1204 4116 
Q 875 4013 500 3803 
L 500 4441 
Q 881 4594 1212 4672 
Q 1544 4750 1819 4750 
Q 2544 4750 2975 4387 
Q 3406 4025 3406 3419 
Q 3406 3131 3298 2873 
Q 3191 2616 2906 2266 
Q 2828 2175 2409 1742 
Q 1991 1309 1228 531 
z
" transform="scale(0.015625)"/>
       </defs>
       <use xlink:href="#DejaVuSans-32"/>
      </g>
     </g>
    </g>
    <g id="xtick_4">
     <g id="line2d_4">
      <g>
       <use xlink:href="#m0c739cebaa" x="424.614915" y="284.4" style="stroke: #000000; stroke-width: 0.8"/>
      </g>
     </g>
     <g id="text_4">
      <!-- 3 -->
      <g transform="translate(421.433665 298.998438) scale(0.1 -0.1)">
       <defs>
        <path id="DejaVuSans-33" d="M 2597 2516 
Q 3050 2419 3304 2112 
Q 3559 1806 3559 1356 
Q 3559 666 3084 287 
Q 2609 -91 1734 -91 
Q 1441 -91 1130 -33 
Q 819 25 488 141 
L 488 750 
Q 750 597 1062 519 
Q 1375 441 1716 441 
Q 2309 441 2620 675 
Q 2931 909 2931 1356 
Q 2931 1769 2642 2001 
Q 2353 2234 1838 2234 
L 1294 2234 
L 1294 2753 
L 1863 2753 
Q 2328 2753 2575 2939 
Q 2822 3125 2822 3475 
Q 2822 3834 2567 4026 
Q 2313 4219 1838 4219 
Q 1578 4219 1281 4162 
Q 984 4106 628 3988 
L 628 4550 
Q 988 4650 1302 4700 
Q 1616 4750 1894 4750 
Q 2613 4750 3031 4423 
Q 3450 4097 3450 3541 
Q 3450 3153 3228 2886 
Q 3006 2619 2597 2516 
z
" transform="scale(0.015625)"/>
       </defs>
       <use xlink:href="#DejaVuSans-33"/>
      </g>
     </g>
    </g>
    <g id="xtick_5">
     <g id="line2d_5">
      <g>
       <use xlink:href="#m0c739cebaa" x="546.360369" y="284.4" style="stroke: #000000; stroke-width: 0.8"/>
      </g>
     </g>
     <g id="text_5">
      <!-- 4 -->
      <g transform="translate(543.179119 298.998438) scale(0.1 -0.1)">
       <defs>
        <path id="DejaVuSans-34" d="M 2419 4116 
L 825 1625 
L 2419 1625 
L 2419 4116 
z
M 2253 4666 
L 3047 4666 
L 3047 1625 
L 3713 1625 
L 3713 1100 
L 3047 1100 
L 3047 0 
L 2419 0 
L 2419 1100 
L 313 1100 
L 313 1709 
L 2253 4666 
z
" transform="scale(0.015625)"/>
       </defs>
       <use xlink:href="#DejaVuSans-34"/>
      </g>
     </g>
    </g>
    <g id="xtick_6">
     <g id="line2d_6">
      <g>
       <use xlink:href="#m0c739cebaa" x="668.105824" y="284.4" style="stroke: #000000; stroke-width: 0.8"/>
      </g>
     </g>
     <g id="text_6">
      <!-- 5 -->
      <g transform="translate(664.924574 298.998438) scale(0.1 -0.1)">
       <defs>
        <path id="DejaVuSans-35" d="M 691 4666 
L 3169 4666 
L 3169 4134 
L 1269 4134 
L 1269 2991 
Q 1406 3038 1543 3061 
Q 1681 3084 1819 3084 
Q 2600 3084 3056 2656 
Q 3513 2228 3513 1497 
Q 3513 744 3044 326 
Q 2575 -91 1722 -91 
Q 1428 -91 1123 -41 
Q 819 9 494 109 
L 494 744 
Q 775 591 1075 516 
Q 1375 441 1709 441 
Q 2250 441 2565 725 
Q 2881 1009 2881 1497 
Q 2881 1984 2565 2268 
Q 2250 2553 1709 2553 
Q 1456 2553 1204 2497 
Q 953 2441 691 2322 
L 691 4666 
z
" transform="scale(0.015625)"/>
       </defs>
       <use xlink:href="#DejaVuSans-35"/>
      </g>
     </g>
    </g>
   </g>
   <g id="matplotlib.axis_2">
    <g id="ytick_1">
     <g id="line2d_7">
      <defs>
       <path id="m51393bb10c" d="M 0 0 
L -3.5 0 
" style="stroke: #000000; stroke-width: 0.8"/>
      </defs>
      <g>
       <use xlink:href="#m51393bb10c" x="28.942188" y="254.69925" style="stroke: #000000; stroke-width: 0.8"/>
      </g>
     </g>
     <g id="text_7">
      <!-- −2 -->
      <g transform="translate(7.2 258.498468) scale(0.1 -0.1)">
       <defs>
        <path id="DejaVuSans-2212" d="M 678 2272 
L 4684 2272 
L 4684 1741 
L 678 1741 
L 678 2272 
z
" transform="scale(0.015625)"/>
       </defs>
       <use xlink:href="#DejaVuSans-2212"/>
       <use xlink:href="#DejaVuSans-32" x="83.789062"/>
      </g>
     </g>
    </g>
    <g id="ytick_2">
     <g id="line2d_8">
      <g>
       <use xlink:href="#m51393bb10c" x="28.942188" y="196.824531" style="stroke: #000000; stroke-width: 0.8"/>
      </g>
     </g>
     <g id="text_8">
      <!-- −1 -->
      <g transform="translate(7.2 200.62375) scale(0.1 -0.1)">
       <use xlink:href="#DejaVuSans-2212"/>
       <use xlink:href="#DejaVuSans-31" x="83.789062"/>
      </g>
     </g>
    </g>
    <g id="ytick_3">
     <g id="line2d_9">
      <g>
       <use xlink:href="#m51393bb10c" x="28.942188" y="138.949812" style="stroke: #000000; stroke-width: 0.8"/>
      </g>
     </g>
     <g id="text_9">
      <!-- 0 -->
      <g transform="translate(15.579688 142.749031) scale(0.1 -0.1)">
       <use xlink:href="#DejaVuSans-30"/>
      </g>
     </g>
    </g>
    <g id="ytick_4">
     <g id="line2d_10">
      <g>
       <use xlink:href="#m51393bb10c" x="28.942188" y="81.075093" style="stroke: #000000; stroke-width: 0.8"/>
      </g>
     </g>
     <g id="text_10">
      <!-- 1 -->
      <g transform="translate(15.579688 84.874312) scale(0.1 -0.1)">
       <use xlink:href="#DejaVuSans-31"/>
      </g>
     </g>
    </g>
    <g id="ytick_5">
     <g id="line2d_11">
      <g>
       <use xlink:href="#m51393bb10c" x="28.942188" y="23.200374" style="stroke: #000000; stroke-width: 0.8"/>
      </g>
     </g>
     <g id="text_11">
      <!-- 2 -->
      <g transform="translate(15.579688 26.999593) scale(0.1 -0.1)">
       <use xlink:href="#DejaVuSans-32"/>
      </g>
     </g>
    </g>
   </g>
   <g id="line2d_12">
    <path d="M 59.378551 100.351842 
L 71.801557 107.465557 
L 84.224562 114.942649 
L 96.647568 122.530165 
L 109.070573 129.960866 
L 121.493579 136.972014 
L 133.916585 143.321682 
L 146.33959 148.800986 
L 158.762596 153.241675 
L 171.185601 156.519472 
L 183.608607 158.55451 
L 196.031612 159.310472 
L 208.454618 158.793902 
L 220.877623 157.054614 
L 233.300629 154.187256 
L 245.723635 150.333221 
L 258.14664 145.681515 
L 270.569646 140.466936 
L 282.992651 134.963951 
L 295.415657 129.47551 
L 307.838662 124.316776 
L 320.261668 119.794662 
L 332.684674 116.185165 
L 345.107679 113.710978 
L 357.530685 112.522186 
L 369.95369 112.682579 
L 382.376696 114.163753 
L 394.799701 116.847966 
L 407.222707 120.539872 
L 419.645713 124.98583 
L 432.068718 129.898725 
L 444.491724 134.985171 
L 456.914729 139.971905 
L 469.337735 144.628249 
L 481.76074 148.781953 
L 494.183746 152.327112 
L 506.606752 155.22362 
L 519.029757 157.489231 
L 531.452763 159.185977 
L 543.875768 160.40356 
L 556.298774 161.242386 
L 568.721779 161.798668 
L 581.144785 162.153264 
L 593.56779 162.365154 
L 605.990796 162.469374 
L 618.413802 162.478696 
L 630.836807 162.387544 
L 643.259813 162.176943 
L 655.682818 161.819058 
L 668.105824 161.280831 
" clip-path="url(#p8aef77a7dc)" style="fill: none; stroke: #1f77b4; stroke-opacity: 0.5; stroke-width: 1.5; stroke-linecap: square"/>
   </g>
   <g id="line2d_13">
    <path d="M 59.378551 133.402051 
L 71.801557 131.50258 
L 84.224562 129.821475 
L 96.647568 128.318417 
L 109.070573 126.929274 
L 121.493579 125.579408 
L 133.916585 124.19867 
L 146.33959 122.736076 
L 158.762596 121.172169 
L 171.185601 119.527297 
L 183.608607 117.86428 
L 196.031612 116.284774 
L 208.454618 114.919256 
L 220.877623 113.911512 
L 233.300629 113.399342 
L 245.723635 113.493846 
L 258.14664 114.260212 
L 270.569646 115.702831 
L 282.992651 117.75742 
L 295.415657 120.291829 
L 307.838662 123.116197 
L 320.261668 126.001639 
L 332.684674 128.705288 
L 345.107679 130.998282 
L 357.530685 132.692754 
L 369.95369 133.663555 
L 382.376696 133.861401 
L 394.799701 133.315137 
L 407.222707 132.122625 
L 419.645713 130.431552 
L 432.068718 128.413103 
L 444.491724 126.232615 
L 456.914729 124.021785 
L 469.337735 121.85687 
L 481.76074 119.746233 
L 494.183746 117.629343 
L 506.606752 115.387327 
L 519.029757 112.863826 
L 531.452763 109.893074 
L 543.875768 106.331356 
L 556.298774 102.087198 
L 568.721779 97.146183 
L 581.144785 91.586423 
L 593.56779 85.582317 
L 605.990796 79.395374 
L 618.413802 73.352691 
L 630.836807 67.815322 
L 643.259813 63.140095 
L 655.682818 59.639549 
L 668.105824 57.545108 
" clip-path="url(#p8aef77a7dc)" style="fill: none; stroke: #ff7f0e; stroke-opacity: 0.5; stroke-width: 1.5; stroke-linecap: square"/>
   </g>
   <g id="line2d_14">
    <path d="M 59.378551 173.061745 
L 71.801557 178.054338 
L 84.224562 184.001719 
L 96.647568 190.31223 
L 109.070573 196.316917 
L 121.493579 201.325686 
L 133.916585 204.686498 
L 146.33959 205.840924 
L 158.762596 204.37017 
L 171.185601 200.026937 
L 183.608607 192.750679 
L 196.031612 182.665892 
L 208.454618 170.065419 
L 220.877623 155.382283 
L 233.300629 139.154473 
L 245.723635 121.987272 
L 258.14664 104.517058 
L 270.569646 87.379349 
L 282.992651 71.182242 
L 295.415657 56.485301 
L 307.838662 43.782818 
L 320.261668 33.490125 
L 332.684674 25.931717 
L 345.107679 21.330698 
L 357.530685 19.8 
L 369.95369 21.336344 
L 382.376696 25.818644 
L 394.799701 33.012399 
L 407.222707 42.580983 
L 419.645713 54.104056 
L 432.068718 67.101886 
L 444.491724 81.063769 
L 456.914729 95.477543 
L 469.337735 109.857381 
L 481.76074 123.766845 
L 494.183746 136.835193 
L 506.606752 148.76575 
L 519.029757 159.336477 
L 531.452763 168.393812 
L 543.875768 175.842037 
L 556.298774 181.63075 
L 568.721779 185.743198 
L 581.144785 188.187962 
L 593.56779 188.995429 
L 605.990796 188.21961 
L 618.413802 185.944534 
L 630.836807 182.293337 
L 643.259813 177.437463 
L 655.682818 171.603014 
L 668.105824 165.071561 
" clip-path="url(#p8aef77a7dc)" style="fill: none; stroke: #2ca02c; stroke-opacity: 0.5; stroke-width: 1.5; stroke-linecap: square"/>
   </g>
   <g id="line2d_15">
    <path d="M 59.378551 244.283364 
L 71.801557 251.84761 
L 84.224562 258.438327 
L 96.647568 263.875566 
L 109.070573 267.996223 
L 121.493579 270.668029 
L 133.916585 271.8 
L 146.33959 271.348597 
L 158.762596 269.319121 
L 171.185601 265.762913 
L 183.608607 260.771336 
L 196.031612 254.467901 
L 208.454618 246.999934 
L 220.877623 238.531126 
L 233.300629 229.2355 
L 245.723635 219.293043 
L 258.14664 208.886322 
L 270.569646 198.197322 
L 282.992651 187.403519 
L 295.415657 176.672624 
L 307.838662 166.155985 
L 320.261668 155.981562 
L 332.684674 146.248012 
L 345.107679 137.021728 
L 357.530685 128.338881 
L 369.95369 120.21341 
L 382.376696 112.651177 
L 394.799701 105.668796 
L 407.222707 99.314217 
L 419.645713 93.685174 
L 432.068718 88.94108 
L 444.491724 85.304317 
L 456.914729 83.048549 
L 469.337735 82.473122 
L 481.76074 83.865968 
L 494.183746 87.459012 
L 506.606752 93.38262 
L 519.029757 101.626249 
L 531.452763 112.012259 
L 543.875768 124.18841 
L 556.298774 137.641878 
L 568.721779 151.734653 
L 581.144785 165.756787 
L 593.56779 178.991257 
L 605.990796 190.782441 
L 618.413802 200.59947 
L 630.836807 208.086425 
L 643.259813 213.093319 
L 655.682818 215.683962 
L 668.105824 216.120343 
" clip-path="url(#p8aef77a7dc)" style="fill: none; stroke: #d62728; stroke-opacity: 0.5; stroke-width: 1.5; stroke-linecap: square"/>
   </g>
   <g id="line2d_16">
    <path d="M 59.378551 77.224358 
L 71.801557 69.832492 
L 84.224562 62.581714 
L 96.647568 55.754644 
L 109.070573 49.587164 
L 121.493579 44.255415 
L 133.916585 39.870264 
L 146.33959 36.478581 
L 158.762596 34.069948 
L 171.185601 32.587638 
L 183.608607 31.942349 
L 196.031612 32.027591 
L 208.454618 32.735339 
L 220.877623 33.971063 
L 233.300629 35.666815 
L 245.723635 37.791336 
L 258.14664 40.356041 
L 270.569646 43.41595 
L 282.992651 47.064904 
L 295.415657 51.424907 
L 307.838662 56.630244 
L 320.261668 62.807574 
L 332.684674 70.054218 
L 345.107679 78.417433 
L 357.530685 87.877495 
L 369.95369 98.337736 
L 382.376696 109.623355 
L 394.799701 121.490077 
L 407.222707 133.642058 
L 419.645713 145.75682 
L 432.068718 157.513957 
L 444.491724 168.623384 
L 456.914729 178.849174 
L 469.337735 188.02565 
L 481.76074 196.063888 
L 494.183746 202.948501 
L 506.606752 208.726291 
L 519.029757 213.489539 
L 531.452763 217.357566 
L 543.875768 220.459927 
L 556.298774 222.923782 
L 568.721779 224.866999 
L 581.144785 226.39661 
L 593.56779 227.6115 
L 605.990796 228.607008 
L 618.413802 229.478964 
L 630.836807 230.325116 
L 643.259813 231.242566 
L 655.682818 232.321055 
L 668.105824 233.633007 
" clip-path="url(#p8aef77a7dc)" style="fill: none; stroke: #9467bd; stroke-opacity: 0.5; stroke-width: 1.5; stroke-linecap: square"/>
   </g>
   <g id="patch_3">
    <path d="M 28.942188 284.4 
L 28.942188 7.2 
" style="fill: none; stroke: #000000; stroke-width: 0.8; stroke-linejoin: miter; stroke-linecap: square"/>
   </g>
   <g id="patch_4">
    <path d="M 698.542188 284.4 
L 698.542188 7.2 
" style="fill: none; stroke: #000000; stroke-width: 0.8; stroke-linejoin: miter; stroke-linecap: square"/>
   </g>
   <g id="patch_5">
    <path d="M 28.942188 284.4 
L 698.542188 284.4 
" style="fill: none; stroke: #000000; stroke-width: 0.8; stroke-linejoin: miter; stroke-linecap: square"/>
   </g>
   <g id="patch_6">
    <path d="M 28.942188 7.2 
L 698.542188 7.2 
" style="fill: none; stroke: #000000; stroke-width: 0.8; stroke-linejoin: miter; stroke-linecap: square"/>
   </g>
  </g>
 </g>
 <defs>
  <clipPath id="p8aef77a7dc">
   <rect x="28.942188" y="7.2" width="669.6" height="277.2"/>
  </clipPath>
 </defs>
</svg>
