<?xml version="1.0" encoding="utf-8" standalone="no"?>
<!DOCTYPE svg PUBLIC "-//W3C//DTD SVG 1.1//EN"
  "http://www.w3.org/Graphics/SVG/1.1/DTD/svg11.dtd">
<svg xmlns:xlink="http://www.w3.org/1999/xlink" width="432pt" height="360pt" viewBox="0 0 432 360" xmlns="http://www.w3.org/2000/svg" version="1.1">
 <metadata>
  <rdf:RDF xmlns:dc="http://purl.org/dc/elements/1.1/" xmlns:cc="http://creativecommons.org/ns#" xmlns:rdf="http://www.w3.org/1999/02/22-rdf-syntax-ns#">
   <cc:Work>
    <dc:type rdf:resource="http://purl.org/dc/dcmitype/StillImage"/>
    <dc:date>2026-03-22T16:19:37.089958</dc:date>
    <dc:format>image/svg+xml</dc:format>
    <dc:creator>
     <cc:Agent>
      <dc:title>Matplotlib v3.10.8, https://matplotlib.org/</dc:title>
     </cc:Agent>
    </dc:creator>
   </cc:Work>
  </rdf:RDF>
 </metadata>
 <defs>
  <style type="text/css">*{stroke-linejoin: round; stroke-linecap: butt}</style>
 </defs>
 <g id="figure_1">
  <g id="patch_1">
   <path d="M 0 360 
L 432 360 
L 432 0 
L 0 0 
L 0 360 
z
" style="fill: none"/>
  </g>
  <g id="axes_1">
   <g id="text_1">
    <g id="patch_2">
     <path d="M 88.811719 155.168316 
L 343.188281 155.168316 
Q 370.188281 155.168316 370.188281 128.168316 
L 370.188281 90.591628 
Q 370.188281 63.591628 343.188281 63.591628 
L 88.811719 63.591628 
Q 61.811719 63.591628 61.811719 90.591628 
L 61.811719 128.168316 
Q 61.811719 155.168316 88.811719 155.168316 
z
" style="fill: #222222; stroke: #2ecc71; stroke-width: 0.5; stroke-linejoin: miter"/>
    </g>
    <!-- Image Recognition: -->
    <g style="fill: #2ecc71" transform="translate(128.920781 104.268816) scale(0.18 -0.18)">
     <defs>
      <path id="DejaVuSans-49" d="M 628 4666 
L 1259 4666 
L 1259 0 
L 628 0 
L 628 4666 
z
" transform="scale(0.015625)"/>
      <path id="DejaVuSans-6d" d="M 3328 2828 
Q 3544 3216 3844 3400 
Q 4144 3584 4550 3584 
Q 5097 3584 5394 3201 
Q 5691 2819 5691 2113 
L 5691 0 
L 5113 0 
L 5113 2094 
Q 5113 2597 4934 2840 
Q 4756 3084 4391 3084 
Q 3944 3084 3684 2787 
Q 3425 2491 3425 1978 
L 3425 0 
L 2847 0 
L 2847 2094 
Q 2847 2600 2669 2842 
Q 2491 3084 2119 3084 
Q 1678 3084 1418 2786 
Q 1159 2488 1159 1978 
L 1159 0 
L 581 0 
L 581 3500 
L 1159 3500 
L 1159 2956 
Q 1356 3278 1631 3431 
Q 1906 3584 2284 3584 
Q 2666 3584 2933 3390 
Q 3200 3197 3328 2828 
z
" transform="scale(0.015625)"/>
      <path id="DejaVuSans-61" d="M 2194 1759 
Q 1497 1759 1228 1600 
Q 959 1441 959 1056 
Q 959 750 1161 570 
Q 1363 391 1709 391 
Q 2188 391 2477 730 
Q 2766 1069 2766 1631 
L 2766 1759 
L 2194 1759 
z
M 3341 1997 
L 3341 0 
L 2766 0 
L 2766 531 
Q 2569 213 2275 61 
Q 1981 -91 1556 -91 
Q 1019 -91 701 211 
Q 384 513 384 1019 
Q 384 1609 779 1909 
Q 1175 2209 1959 2209 
L 2766 2209 
L 2766 2266 
Q 2766 2663 2505 2880 
Q 2244 3097 1772 3097 
Q 1472 3097 1187 3025 
Q 903 2953 641 2809 
L 641 3341 
Q 956 3463 1253 3523 
Q 1550 3584 1831 3584 
Q 2591 3584 2966 3190 
Q 3341 2797 3341 1997 
z
" transform="scale(0.015625)"/>
      <path id="DejaVuSans-67" d="M 2906 1791 
Q 2906 2416 2648 2759 
Q 2391 3103 1925 3103 
Q 1463 3103 1205 2759 
Q 947 2416 947 1791 
Q 947 1169 1205 825 
Q 1463 481 1925 481 
Q 2391 481 2648 825 
Q 2906 1169 2906 1791 
z
M 3481 434 
Q 3481 -459 3084 -895 
Q 2688 -1331 1869 -1331 
Q 1566 -1331 1297 -1286 
Q 1028 -1241 775 -1147 
L 775 -588 
Q 1028 -725 1275 -790 
Q 1522 -856 1778 -856 
Q 2344 -856 2625 -561 
Q 2906 -266 2906 331 
L 2906 616 
Q 2728 306 2450 153 
Q 2172 0 1784 0 
Q 1141 0 747 490 
Q 353 981 353 1791 
Q 353 2603 747 3093 
Q 1141 3584 1784 3584 
Q 2172 3584 2450 3431 
Q 2728 3278 2906 2969 
L 2906 3500 
L 3481 3500 
L 3481 434 
z
" transform="scale(0.015625)"/>
      <path id="DejaVuSans-65" d="M 3597 1894 
L 3597 1613 
L 953 1613 
Q 991 1019 1311 708 
Q 1631 397 2203 397 
Q 2534 397 2845 478 
Q 3156 559 3463 722 
L 3463 178 
Q 3153 47 2828 -22 
Q 2503 -91 2169 -91 
Q 1331 -91 842 396 
Q 353 884 353 1716 
Q 353 2575 817 3079 
Q 1281 3584 2069 3584 
Q 2775 3584 3186 3129 
Q 3597 2675 3597 1894 
z
M 3022 2063 
Q 3016 2534 2758 2815 
Q 2500 3097 2075 3097 
Q 1594 3097 1305 2825 
Q 1016 2553 972 2059 
L 3022 2063 
z
" transform="scale(0.015625)"/>
      <path id="DejaVuSans-20" transform="scale(0.015625)"/>
      <path id="DejaVuSans-52" d="M 2841 2188 
Q 3044 2119 3236 1894 
Q 3428 1669 3622 1275 
L 4263 0 
L 3584 0 
L 2988 1197 
Q 2756 1666 2539 1819 
Q 2322 1972 1947 1972 
L 1259 1972 
L 1259 0 
L 628 0 
L 628 4666 
L 2053 4666 
Q 2853 4666 3247 4331 
Q 3641 3997 3641 3322 
Q 3641 2881 3436 2590 
Q 3231 2300 2841 2188 
z
M 1259 4147 
L 1259 2491 
L 2053 2491 
Q 2509 2491 2742 2702 
Q 2975 2913 2975 3322 
Q 2975 3731 2742 3939 
Q 2509 4147 2053 4147 
L 1259 4147 
z
" transform="scale(0.015625)"/>
      <path id="DejaVuSans-63" d="M 3122 3366 
L 3122 2828 
Q 2878 2963 2633 3030 
Q 2388 3097 2138 3097 
Q 1578 3097 1268 2742 
Q 959 2388 959 1747 
Q 959 1106 1268 751 
Q 1578 397 2138 397 
Q 2388 397 2633 464 
Q 2878 531 3122 666 
L 3122 134 
Q 2881 22 2623 -34 
Q 2366 -91 2075 -91 
Q 1284 -91 818 406 
Q 353 903 353 1747 
Q 353 2603 823 3093 
Q 1294 3584 2113 3584 
Q 2378 3584 2631 3529 
Q 2884 3475 3122 3366 
z
" transform="scale(0.015625)"/>
      <path id="DejaVuSans-6f" d="M 1959 3097 
Q 1497 3097 1228 2736 
Q 959 2375 959 1747 
Q 959 1119 1226 758 
Q 1494 397 1959 397 
Q 2419 397 2687 759 
Q 2956 1122 2956 1747 
Q 2956 2369 2687 2733 
Q 2419 3097 1959 3097 
z
M 1959 3584 
Q 2709 3584 3137 3096 
Q 3566 2609 3566 1747 
Q 3566 888 3137 398 
Q 2709 -91 1959 -91 
Q 1206 -91 779 398 
Q 353 888 353 1747 
Q 353 2609 779 3096 
Q 1206 3584 1959 3584 
z
" transform="scale(0.015625)"/>
      <path id="DejaVuSans-6e" d="M 3513 2113 
L 3513 0 
L 2938 0 
L 2938 2094 
Q 2938 2591 2744 2837 
Q 2550 3084 2163 3084 
Q 1697 3084 1428 2787 
Q 1159 2491 1159 1978 
L 1159 0 
L 581 0 
L 581 3500 
L 1159 3500 
L 1159 2956 
Q 1366 3272 1645 3428 
Q 1925 3584 2291 3584 
Q 2894 3584 3203 3211 
Q 3513 2838 3513 2113 
z
" transform="scale(0.015625)"/>
      <path id="DejaVuSans-69" d="M 603 3500 
L 1178 3500 
L 1178 0 
L 603 0 
L 603 3500 
z
M 603 4863 
L 1178 4863 
L 1178 4134 
L 603 4134 
L 603 4863 
z
" transform="scale(0.015625)"/>
      <path id="DejaVuSans-74" d="M 1172 4494 
L 1172 3500 
L 2356 3500 
L 2356 3053 
L 1172 3053 
L 1172 1153 
Q 1172 725 1289 603 
Q 1406 481 1766 481 
L 2356 481 
L 2356 0 
L 1766 0 
Q 1100 0 847 248 
Q 594 497 594 1153 
L 594 3053 
L 172 3053 
L 172 3500 
L 594 3500 
L 594 4494 
L 1172 4494 
z
" transform="scale(0.015625)"/>
      <path id="DejaVuSans-3a" d="M 750 794 
L 1409 794 
L 1409 0 
L 750 0 
L 750 794 
z
M 750 3309 
L 1409 3309 
L 1409 2516 
L 750 2516 
L 750 3309 
z
" transform="scale(0.015625)"/>
     </defs>
     <use xlink:href="#DejaVuSans-49"/>
     <use xlink:href="#DejaVuSans-6d" transform="translate(29.492188 0)"/>
     <use xlink:href="#DejaVuSans-61" transform="translate(126.904297 0)"/>
     <use xlink:href="#DejaVuSans-67" transform="translate(188.183594 0)"/>
     <use xlink:href="#DejaVuSans-65" transform="translate(251.660156 0)"/>
     <use xlink:href="#DejaVuSans-20" transform="translate(313.183594 0)"/>
     <use xlink:href="#DejaVuSans-52" transform="translate(344.970703 0)"/>
     <use xlink:href="#DejaVuSans-65" transform="translate(409.953125 0)"/>
     <use xlink:href="#DejaVuSans-63" transform="translate(471.476562 0)"/>
     <use xlink:href="#DejaVuSans-6f" transform="translate(526.457031 0)"/>
     <use xlink:href="#DejaVuSans-67" transform="translate(587.638672 0)"/>
     <use xlink:href="#DejaVuSans-6e" transform="translate(651.115234 0)"/>
     <use xlink:href="#DejaVuSans-69" transform="translate(714.494141 0)"/>
     <use xlink:href="#DejaVuSans-74" transform="translate(742.277344 0)"/>
     <use xlink:href="#DejaVuSans-69" transform="translate(781.486328 0)"/>
     <use xlink:href="#DejaVuSans-6f" transform="translate(809.269531 0)"/>
     <use xlink:href="#DejaVuSans-6e" transform="translate(870.451172 0)"/>
     <use xlink:href="#DejaVuSans-3a" transform="translate(933.830078 0)"/>
    </g>
    <!-- 'Motorcycle' vs 'Traffic Light' -->
    <g style="fill: #2ecc71" transform="translate(88.811719 124.424878) scale(0.18 -0.18)">
     <defs>
      <path id="DejaVuSans-27" d="M 1147 4666 
L 1147 2931 
L 616 2931 
L 616 4666 
L 1147 4666 
z
" transform="scale(0.015625)"/>
      <path id="DejaVuSans-4d" d="M 628 4666 
L 1569 4666 
L 2759 1491 
L 3956 4666 
L 4897 4666 
L 4897 0 
L 4281 0 
L 4281 4097 
L 3078 897 
L 2444 897 
L 1241 4097 
L 1241 0 
L 628 0 
L 628 4666 
z
" transform="scale(0.015625)"/>
      <path id="DejaVuSans-72" d="M 2631 2963 
Q 2534 3019 2420 3045 
Q 2306 3072 2169 3072 
Q 1681 3072 1420 2755 
Q 1159 2438 1159 1844 
L 1159 0 
L 581 0 
L 581 3500 
L 1159 3500 
L 1159 2956 
Q 1341 3275 1631 3429 
Q 1922 3584 2338 3584 
Q 2397 3584 2469 3576 
Q 2541 3569 2628 3553 
L 2631 2963 
z
" transform="scale(0.015625)"/>
      <path id="DejaVuSans-79" d="M 2059 -325 
Q 1816 -950 1584 -1140 
Q 1353 -1331 966 -1331 
L 506 -1331 
L 506 -850 
L 844 -850 
Q 1081 -850 1212 -737 
Q 1344 -625 1503 -206 
L 1606 56 
L 191 3500 
L 800 3500 
L 1894 763 
L 2988 3500 
L 3597 3500 
L 2059 -325 
z
" transform="scale(0.015625)"/>
      <path id="DejaVuSans-6c" d="M 603 4863 
L 1178 4863 
L 1178 0 
L 603 0 
L 603 4863 
z
" transform="scale(0.015625)"/>
      <path id="DejaVuSans-76" d="M 191 3500 
L 800 3500 
L 1894 563 
L 2988 3500 
L 3597 3500 
L 2284 0 
L 1503 0 
L 191 3500 
z
" transform="scale(0.015625)"/>
      <path id="DejaVuSans-73" d="M 2834 3397 
L 2834 2853 
Q 2591 2978 2328 3040 
Q 2066 3103 1784 3103 
Q 1356 3103 1142 2972 
Q 928 2841 928 2578 
Q 928 2378 1081 2264 
Q 1234 2150 1697 2047 
L 1894 2003 
Q 2506 1872 2764 1633 
Q 3022 1394 3022 966 
Q 3022 478 2636 193 
Q 2250 -91 1575 -91 
Q 1294 -91 989 -36 
Q 684 19 347 128 
L 347 722 
Q 666 556 975 473 
Q 1284 391 1588 391 
Q 1994 391 2212 530 
Q 2431 669 2431 922 
Q 2431 1156 2273 1281 
Q 2116 1406 1581 1522 
L 1381 1569 
Q 847 1681 609 1914 
Q 372 2147 372 2553 
Q 372 3047 722 3315 
Q 1072 3584 1716 3584 
Q 2034 3584 2315 3537 
Q 2597 3491 2834 3397 
z
" transform="scale(0.015625)"/>
      <path id="DejaVuSans-54" d="M -19 4666 
L 3928 4666 
L 3928 4134 
L 2272 4134 
L 2272 0 
L 1638 0 
L 1638 4134 
L -19 4134 
L -19 4666 
z
" transform="scale(0.015625)"/>
      <path id="DejaVuSans-66" d="M 2375 4863 
L 2375 4384 
L 1825 4384 
Q 1516 4384 1395 4259 
Q 1275 4134 1275 3809 
L 1275 3500 
L 2222 3500 
L 2222 3053 
L 1275 3053 
L 1275 0 
L 697 0 
L 697 3053 
L 147 3053 
L 147 3500 
L 697 3500 
L 697 3744 
Q 697 4328 969 4595 
Q 1241 4863 1831 4863 
L 2375 4863 
z
" transform="scale(0.015625)"/>
      <path id="DejaVuSans-4c" d="M 628 4666 
L 1259 4666 
L 1259 531 
L 3531 531 
L 3531 0 
L 628 0 
L 628 4666 
z
" transform="scale(0.015625)"/>
      <path id="DejaVuSans-68" d="M 3513 2113 
L 3513 0 
L 2938 0 
L 2938 2094 
Q 2938 2591 2744 2837 
Q 2550 3084 2163 3084 
Q 1697 3084 1428 2787 
Q 1159 2491 1159 1978 
L 1159 0 
L 581 0 
L 581 4863 
L 1159 4863 
L 1159 2956 
Q 1366 3272 1645 3428 
Q 1925 3584 2291 3584 
Q 2894 3584 3203 3211 
Q 3513 2838 3513 2113 
z
" transform="scale(0.015625)"/>
     </defs>
     <use xlink:href="#DejaVuSans-27"/>
     <use xlink:href="#DejaVuSans-4d" transform="translate(27.490234 0)"/>
     <use xlink:href="#DejaVuSans-6f" transform="translate(113.769531 0)"/>
     <use xlink:href="#DejaVuSans-74" transform="translate(174.951172 0)"/>
     <use xlink:href="#DejaVuSans-6f" transform="translate(214.160156 0)"/>
     <use xlink:href="#DejaVuSans-72" transform="translate(275.341797 0)"/>
     <use xlink:href="#DejaVuSans-63" transform="translate(314.205078 0)"/>
     <use xlink:href="#DejaVuSans-79" transform="translate(369.185547 0)"/>
     <use xlink:href="#DejaVuSans-63" transform="translate(428.365234 0)"/>
     <use xlink:href="#DejaVuSans-6c" transform="translate(483.345703 0)"/>
     <use xlink:href="#DejaVuSans-65" transform="translate(511.128906 0)"/>
     <use xlink:href="#DejaVuSans-27" transform="translate(572.652344 0)"/>
     <use xlink:href="#DejaVuSans-20" transform="translate(600.142578 0)"/>
     <use xlink:href="#DejaVuSans-76" transform="translate(631.929688 0)"/>
     <use xlink:href="#DejaVuSans-73" transform="translate(691.109375 0)"/>
     <use xlink:href="#DejaVuSans-20" transform="translate(743.208984 0)"/>
     <use xlink:href="#DejaVuSans-27" transform="translate(774.996094 0)"/>
     <use xlink:href="#DejaVuSans-54" transform="translate(802.486328 0)"/>
     <use xlink:href="#DejaVuSans-72" transform="translate(848.820312 0)"/>
     <use xlink:href="#DejaVuSans-61" transform="translate(889.933594 0)"/>
     <use xlink:href="#DejaVuSans-66" transform="translate(951.212891 0)"/>
     <use xlink:href="#DejaVuSans-66" transform="translate(986.417969 0)"/>
     <use xlink:href="#DejaVuSans-69" transform="translate(1021.623047 0)"/>
     <use xlink:href="#DejaVuSans-63" transform="translate(1049.40625 0)"/>
     <use xlink:href="#DejaVuSans-20" transform="translate(1104.386719 0)"/>
     <use xlink:href="#DejaVuSans-4c" transform="translate(1136.173828 0)"/>
     <use xlink:href="#DejaVuSans-69" transform="translate(1191.886719 0)"/>
     <use xlink:href="#DejaVuSans-67" transform="translate(1219.669922 0)"/>
     <use xlink:href="#DejaVuSans-68" transform="translate(1283.146484 0)"/>
     <use xlink:href="#DejaVuSans-74" transform="translate(1346.525391 0)"/>
     <use xlink:href="#DejaVuSans-27" transform="translate(1385.734375 0)"/>
    </g>
   </g>
   <g id="text_2">
    <!-- Ex 1: Target is a discrete class $d \in \mathcal{Y}$ -->
    <g style="fill: #cccccc" transform="translate(32.2416 32.4) scale(0.2016 -0.2016)">
     <defs>
      <path id="DejaVuSans-45" d="M 628 4666 
L 3578 4666 
L 3578 4134 
L 1259 4134 
L 1259 2753 
L 3481 2753 
L 3481 2222 
L 1259 2222 
L 1259 531 
L 3634 531 
L 3634 0 
L 628 0 
L 628 4666 
z
" transform="scale(0.015625)"/>
      <path id="DejaVuSans-78" d="M 3513 3500 
L 2247 1797 
L 3578 0 
L 2900 0 
L 1881 1375 
L 863 0 
L 184 0 
L 1544 1831 
L 300 3500 
L 978 3500 
L 1906 2253 
L 2834 3500 
L 3513 3500 
z
" transform="scale(0.015625)"/>
      <path id="DejaVuSans-31" d="M 794 531 
L 1825 531 
L 1825 4091 
L 703 3866 
L 703 4441 
L 1819 4666 
L 2450 4666 
L 2450 531 
L 3481 531 
L 3481 0 
L 794 0 
L 794 531 
z
" transform="scale(0.015625)"/>
      <path id="DejaVuSans-64" d="M 2906 2969 
L 2906 4863 
L 3481 4863 
L 3481 0 
L 2906 0 
L 2906 525 
Q 2725 213 2448 61 
Q 2172 -91 1784 -91 
Q 1150 -91 751 415 
Q 353 922 353 1747 
Q 353 2572 751 3078 
Q 1150 3584 1784 3584 
Q 2172 3584 2448 3432 
Q 2725 3281 2906 2969 
z
M 947 1747 
Q 947 1113 1208 752 
Q 1469 391 1925 391 
Q 2381 391 2643 752 
Q 2906 1113 2906 1747 
Q 2906 2381 2643 2742 
Q 2381 3103 1925 3103 
Q 1469 3103 1208 2742 
Q 947 2381 947 1747 
z
" transform="scale(0.015625)"/>
      <path id="DejaVuSans-Oblique-64" d="M 2675 525 
Q 2444 222 2128 65 
Q 1813 -91 1428 -91 
Q 903 -91 598 267 
Q 294 625 294 1247 
Q 294 1766 478 2236 
Q 663 2706 1013 3078 
Q 1244 3325 1534 3454 
Q 1825 3584 2144 3584 
Q 2481 3584 2739 3421 
Q 2997 3259 3138 2956 
L 3513 4863 
L 4091 4863 
L 3144 0 
L 2566 0 
L 2675 525 
z
M 891 1350 
Q 891 897 1095 644 
Q 1300 391 1663 391 
Q 1931 391 2161 520 
Q 2391 650 2566 903 
Q 2750 1166 2856 1509 
Q 2963 1853 2963 2188 
Q 2963 2622 2758 2865 
Q 2553 3109 2194 3109 
Q 1922 3109 1687 2981 
Q 1453 2853 1288 2613 
Q 1106 2353 998 2009 
Q 891 1666 891 1350 
z
" transform="scale(0.015625)"/>
      <path id="DejaVuSans-2208" d="M 1072 1959 
Q 1094 1728 1291 1353 
Q 1522 919 1959 675 
Q 2388 438 2850 434 
L 5028 434 
L 5028 -63 
L 2850 -63 
Q 2250 -63 1695 246 
Q 1141 556 844 1106 
Q 547 1656 547 2241 
Q 547 2819 844 3369 
Q 1141 3919 1695 4231 
Q 2250 4544 2850 4544 
L 5028 4544 
L 5028 4047 
L 2850 4047 
Q 2388 4044 1959 3803 
Q 1525 3556 1291 3125 
Q 1091 2750 1063 2459 
L 5028 2459 
L 5028 1959 
L 1072 1959 
z
" transform="scale(0.015625)"/>
      <path id="STIXNonUnicode-Italic-e245" d="M 2957 762 
L 2976 736 
Q 3123 832 3395 1133 
Q 3667 1434 3939 1805 
Q 4211 2176 4412 2582 
Q 4614 2989 4614 3251 
Q 4614 3539 4512 3699 
Q 4410 3859 4237 3859 
Q 4154 3859 4058 3708 
Q 3962 3558 3814 3558 
Q 3667 3558 3590 3648 
Q 3514 3738 3514 3878 
Q 3514 4064 3661 4192 
Q 3808 4320 4013 4320 
Q 4390 4320 4636 4073 
Q 4883 3827 4883 3341 
Q 4883 2982 4633 2441 
Q 4384 1901 3961 1341 
Q 3539 781 3049 285 
Q 2560 -211 2016 -524 
Q 1472 -838 1043 -838 
Q 262 -838 218 83 
L 358 147 
Q 563 -320 1126 -320 
Q 1696 -320 2323 224 
Q 2323 1203 2221 2080 
Q 2010 3955 1254 3955 
Q 966 3955 762 3808 
L 659 3923 
Q 986 4237 1472 4237 
Q 1728 4237 1936 4150 
Q 2144 4064 2285 3885 
Q 2426 3706 2528 3514 
Q 2630 3322 2700 3030 
Q 2771 2739 2809 2521 
Q 2848 2304 2893 1978 
Q 2957 1498 2957 762 
z
" transform="scale(0.015625)"/>
     </defs>
     <use xlink:href="#DejaVuSans-45" transform="translate(0 0.015625)"/>
     <use xlink:href="#DejaVuSans-78" transform="translate(63.183594 0.015625)"/>
     <use xlink:href="#DejaVuSans-20" transform="translate(122.363281 0.015625)"/>
     <use xlink:href="#DejaVuSans-31" transform="translate(154.150391 0.015625)"/>
     <use xlink:href="#DejaVuSans-3a" transform="translate(217.773438 0.015625)"/>
     <use xlink:href="#DejaVuSans-20" transform="translate(251.464844 0.015625)"/>
     <use xlink:href="#DejaVuSans-54" transform="translate(283.251953 0.015625)"/>
     <use xlink:href="#DejaVuSans-61" transform="translate(344.335938 0.015625)"/>
     <use xlink:href="#DejaVuSans-72" transform="translate(405.615234 0.015625)"/>
     <use xlink:href="#DejaVuSans-67" transform="translate(446.728516 0.015625)"/>
     <use xlink:href="#DejaVuSans-65" transform="translate(510.205078 0.015625)"/>
     <use xlink:href="#DejaVuSans-74" transform="translate(571.728516 0.015625)"/>
     <use xlink:href="#DejaVuSans-20" transform="translate(610.9375 0.015625)"/>
     <use xlink:href="#DejaVuSans-69" transform="translate(642.724609 0.015625)"/>
     <use xlink:href="#DejaVuSans-73" transform="translate(670.507812 0.015625)"/>
     <use xlink:href="#DejaVuSans-20" transform="translate(722.607422 0.015625)"/>
     <use xlink:href="#DejaVuSans-61" transform="translate(754.394531 0.015625)"/>
     <use xlink:href="#DejaVuSans-20" transform="translate(815.673828 0.015625)"/>
     <use xlink:href="#DejaVuSans-64" transform="translate(847.460938 0.015625)"/>
     <use xlink:href="#DejaVuSans-69" transform="translate(910.9375 0.015625)"/>
     <use xlink:href="#DejaVuSans-73" transform="translate(938.720703 0.015625)"/>
     <use xlink:href="#DejaVuSans-63" transform="translate(990.820312 0.015625)"/>
     <use xlink:href="#DejaVuSans-72" transform="translate(1045.800781 0.015625)"/>
     <use xlink:href="#DejaVuSans-65" transform="translate(1086.914062 0.015625)"/>
     <use xlink:href="#DejaVuSans-74" transform="translate(1148.4375 0.015625)"/>
     <use xlink:href="#DejaVuSans-65" transform="translate(1187.646484 0.015625)"/>
     <use xlink:href="#DejaVuSans-20" transform="translate(1249.169922 0.015625)"/>
     <use xlink:href="#DejaVuSans-63" transform="translate(1280.957031 0.015625)"/>
     <use xlink:href="#DejaVuSans-6c" transform="translate(1335.9375 0.015625)"/>
     <use xlink:href="#DejaVuSans-61" transform="translate(1363.720703 0.015625)"/>
     <use xlink:href="#DejaVuSans-73" transform="translate(1425 0.015625)"/>
     <use xlink:href="#DejaVuSans-73" transform="translate(1477.099609 0.015625)"/>
     <use xlink:href="#DejaVuSans-20" transform="translate(1529.199219 0.015625)"/>
     <use xlink:href="#DejaVuSans-Oblique-64" transform="translate(1560.986328 0.015625)"/>
     <use xlink:href="#DejaVuSans-2208" transform="translate(1643.945312 0.015625)"/>
     <use xlink:href="#STIXNonUnicode-Italic-e245" transform="translate(1750.537109 0.015625)"/>
    </g>
   </g>
  </g>
  <g id="axes_2">
   <g id="line2d_1">
    <path d="M 33.381818 305.620008 
L 35.217177 307.712465 
L 37.052535 302.062099 
L 38.887894 295.931332 
L 40.723253 304.162243 
L 42.558611 302.827429 
L 44.39397 291.624245 
L 46.229328 294.752516 
L 48.064687 300.222121 
L 49.900046 293.45842 
L 51.735404 297.726089 
L 53.570763 296.555368 
L 55.406122 291.550154 
L 57.24148 302.191402 
L 59.076839 300.098194 
L 60.912197 292.738232 
L 62.747556 294.219667 
L 64.582915 286.059863 
L 66.418273 291.849864 
L 68.253632 293.779796 
L 70.08899 277.327482 
L 71.924349 285.843457 
L 73.759708 283.599451 
L 75.595066 291.151132 
L 77.430425 285.831208 
L 79.265783 281.8025 
L 81.101142 288.291064 
L 82.936501 279.643818 
L 84.771859 284.709205 
L 86.607218 282.835709 
L 88.442577 284.404868 
L 90.277935 270.974629 
L 92.113294 281.162597 
L 93.948652 286.940547 
L 95.784011 276.844154 
L 97.61937 288.205875 
L 99.454728 280.70144 
L 101.290087 292.879873 
L 103.125445 289.859837 
L 104.960804 282.033402 
L 106.796163 279.631925 
L 108.631521 283.336888 
L 110.46688 285.575705 
L 112.302238 287.31989 
L 114.137597 294.528994 
L 115.972956 291.238557 
L 117.808314 290.724071 
L 119.643673 283.399288 
L 121.479032 288.286748 
L 123.31439 300.814928 
L 125.149749 290.523721 
L 126.985107 295.517122 
L 128.820466 298.27309 
L 130.655825 292.44792 
L 132.491183 291.39332 
L 134.326542 293.196872 
L 136.1619 304.134141 
L 137.997259 302.552239 
L 141.667976 298.216376 
L 143.503335 307.500729 
L 145.338693 307.263174 
L 147.174052 313.650088 
L 149.009411 315.50962 
L 150.844769 305.926836 
L 152.680128 304.325553 
L 154.515487 313.465973 
L 156.350845 308.944855 
L 158.186204 313.77108 
L 160.021562 320.567632 
L 161.856921 316.36671 
L 163.69228 311.213071 
L 165.527638 321.025491 
L 167.362997 313.501311 
L 169.198355 337.478989 
L 171.033714 319.845396 
L 172.869073 324.939836 
L 174.704431 328.08963 
L 176.53979 326.958761 
L 178.375148 339.245457 
L 180.210507 330.508098 
L 182.045866 328.211177 
L 183.881224 322.893514 
L 185.716583 334.510927 
L 187.551942 336.769345 
L 189.3873 335.712729 
L 191.222659 328.540355 
L 193.058017 332.228226 
L 194.893376 337.333293 
L 196.728735 332.006085 
L 198.564093 334.562083 
L 200.399452 330.007029 
L 202.23481 339.123198 
L 204.070169 336.539236 
L 205.905528 334.742373 
L 207.740886 334.562744 
L 211.411603 289.476944 
L 213.246962 261.860478 
L 215.082321 237.275505 
L 216.917679 232.948432 
L 218.753038 237.44733 
L 220.588397 262.073843 
L 222.423755 292.754813 
L 224.259114 310.933245 
L 226.094472 320.211631 
L 227.929831 317.34139 
L 229.76519 328.022312 
L 231.600548 327.329334 
L 233.435907 328.363925 
L 235.271265 337.478441 
L 237.106624 326.142502 
L 238.941983 324.604801 
L 240.777341 310.397924 
L 242.6127 323.729219 
L 244.448058 319.854555 
L 246.283417 320.472339 
L 248.118776 325.408683 
L 249.954134 311.534847 
L 251.789493 312.369407 
L 253.624852 310.839309 
L 255.46021 318.775056 
L 257.295569 304.822043 
L 259.130927 318.75322 
L 260.966286 306.546157 
L 262.801645 296.434961 
L 264.637003 312.407083 
L 266.472362 308.728439 
L 268.30772 303.738882 
L 270.143079 305.677972 
L 271.978438 310.051502 
L 273.813796 299.905928 
L 275.649155 304.772947 
L 277.484513 295.125567 
L 279.319872 301.47212 
L 281.155231 286.792697 
L 282.990589 298.327639 
L 284.825948 294.664906 
L 286.661307 287.364643 
L 288.496665 297.441827 
L 290.332024 288.468253 
L 292.167382 281.605872 
L 294.002741 296.568143 
L 295.8381 285.923176 
L 297.673458 284.691827 
L 299.508817 281.081414 
L 301.344175 291.37986 
L 303.179534 291.187907 
L 305.014893 280.558236 
L 306.850251 281.261782 
L 308.68561 281.056661 
L 310.520968 280.140386 
L 312.356327 285.409481 
L 314.191686 280.176594 
L 316.027044 279.653359 
L 317.862403 285.022064 
L 319.697762 270.901727 
L 321.53312 278.504129 
L 323.368479 287.664641 
L 325.203837 277.742451 
L 327.039196 286.854894 
L 328.874555 277.537841 
L 330.709913 275.866737 
L 332.545272 287.077088 
L 334.38063 277.836363 
L 336.215989 281.386843 
L 338.051348 279.766855 
L 339.886706 274.579904 
L 341.722065 286.989221 
L 343.557423 290.548864 
L 345.392782 292.132683 
L 347.228141 292.627627 
L 349.063499 289.548132 
L 350.898858 288.264087 
L 352.734217 289.657545 
L 354.569575 287.74188 
L 356.404934 293.306392 
L 358.240292 286.616963 
L 360.075651 297.182282 
L 361.91101 282.140644 
L 363.746368 294.817898 
L 365.581727 304.186061 
L 367.417085 306.657968 
L 369.252444 299.515395 
L 371.087803 304.705121 
L 372.923161 300.947997 
L 374.75852 303.622838 
L 376.593878 307.967423 
L 378.429237 313.556319 
L 380.264596 318.566289 
L 382.099954 314.105264 
L 383.935313 308.356965 
L 385.770672 313.201267 
L 387.60603 322.487111 
L 389.441389 316.060687 
L 391.276747 316.191198 
L 393.112106 324.371998 
L 394.947465 319.949051 
L 396.782823 321.671796 
L 398.618182 329.387627 
L 398.618182 329.387627 
" clip-path="url(#p00f1d51e81)" style="fill: none; stroke: #e74c3c; stroke-width: 4"/>
   </g>
   <g id="line2d_2">
    <path d="M 15.12 226.554599 
L 416.88 226.554599 
" clip-path="url(#p00f1d51e81)" style="fill: none; stroke-dasharray: 14.8,6.4; stroke-dashoffset: 0; stroke: #808080; stroke-width: 4"/>
   </g>
   <g id="text_3">
    <!-- $d = 1$ (Danger) -->
    <g style="fill: #e74c3c" transform="translate(106.429091 199.296842) scale(0.16 -0.16)">
     <defs>
      <path id="DejaVuSans-3d" d="M 678 2906 
L 4684 2906 
L 4684 2381 
L 678 2381 
L 678 2906 
z
M 678 1631 
L 4684 1631 
L 4684 1100 
L 678 1100 
L 678 1631 
z
" transform="scale(0.015625)"/>
      <path id="DejaVuSans-Bold-20" transform="scale(0.015625)"/>
      <path id="DejaVuSans-Bold-28" d="M 2413 -844 
L 1484 -844 
Q 1006 -72 778 623 
Q 550 1319 550 2003 
Q 550 2688 779 3389 
Q 1009 4091 1484 4856 
L 2413 4856 
Q 2013 4116 1813 3408 
Q 1613 2700 1613 2009 
Q 1613 1319 1811 609 
Q 2009 -100 2413 -844 
z
" transform="scale(0.015625)"/>
      <path id="DejaVuSans-Bold-44" d="M 1791 3756 
L 1791 909 
L 2222 909 
Q 2959 909 3348 1275 
Q 3738 1641 3738 2338 
Q 3738 3031 3350 3393 
Q 2963 3756 2222 3756 
L 1791 3756 
z
M 588 4666 
L 1856 4666 
Q 2919 4666 3439 4514 
Q 3959 4363 4331 4000 
Q 4659 3684 4818 3271 
Q 4978 2859 4978 2338 
Q 4978 1809 4818 1395 
Q 4659 981 4331 666 
Q 3956 303 3431 151 
Q 2906 0 1856 0 
L 588 0 
L 588 4666 
z
" transform="scale(0.015625)"/>
      <path id="DejaVuSans-Bold-61" d="M 2106 1575 
Q 1756 1575 1579 1456 
Q 1403 1338 1403 1106 
Q 1403 894 1545 773 
Q 1688 653 1941 653 
Q 2256 653 2472 879 
Q 2688 1106 2688 1447 
L 2688 1575 
L 2106 1575 
z
M 3816 1997 
L 3816 0 
L 2688 0 
L 2688 519 
Q 2463 200 2181 54 
Q 1900 -91 1497 -91 
Q 953 -91 614 226 
Q 275 544 275 1050 
Q 275 1666 698 1953 
Q 1122 2241 2028 2241 
L 2688 2241 
L 2688 2328 
Q 2688 2594 2478 2717 
Q 2269 2841 1825 2841 
Q 1466 2841 1156 2769 
Q 847 2697 581 2553 
L 581 3406 
Q 941 3494 1303 3539 
Q 1666 3584 2028 3584 
Q 2975 3584 3395 3211 
Q 3816 2838 3816 1997 
z
" transform="scale(0.015625)"/>
      <path id="DejaVuSans-Bold-6e" d="M 4056 2131 
L 4056 0 
L 2931 0 
L 2931 347 
L 2931 1631 
Q 2931 2084 2911 2256 
Q 2891 2428 2841 2509 
Q 2775 2619 2662 2680 
Q 2550 2741 2406 2741 
Q 2056 2741 1856 2470 
Q 1656 2200 1656 1722 
L 1656 0 
L 538 0 
L 538 3500 
L 1656 3500 
L 1656 2988 
Q 1909 3294 2193 3439 
Q 2478 3584 2822 3584 
Q 3428 3584 3742 3212 
Q 4056 2841 4056 2131 
z
" transform="scale(0.015625)"/>
      <path id="DejaVuSans-Bold-67" d="M 2919 594 
Q 2688 288 2409 144 
Q 2131 0 1766 0 
Q 1125 0 706 504 
Q 288 1009 288 1791 
Q 288 2575 706 3076 
Q 1125 3578 1766 3578 
Q 2131 3578 2409 3434 
Q 2688 3291 2919 2981 
L 2919 3500 
L 4044 3500 
L 4044 353 
Q 4044 -491 3511 -936 
Q 2978 -1381 1966 -1381 
Q 1638 -1381 1331 -1331 
Q 1025 -1281 716 -1178 
L 716 -306 
Q 1009 -475 1290 -558 
Q 1572 -641 1856 -641 
Q 2406 -641 2662 -400 
Q 2919 -159 2919 353 
L 2919 594 
z
M 2181 2772 
Q 1834 2772 1640 2515 
Q 1447 2259 1447 1791 
Q 1447 1309 1634 1061 
Q 1822 813 2181 813 
Q 2531 813 2725 1069 
Q 2919 1325 2919 1791 
Q 2919 2259 2725 2515 
Q 2531 2772 2181 2772 
z
" transform="scale(0.015625)"/>
      <path id="DejaVuSans-Bold-65" d="M 4031 1759 
L 4031 1441 
L 1416 1441 
Q 1456 1047 1700 850 
Q 1944 653 2381 653 
Q 2734 653 3104 758 
Q 3475 863 3866 1075 
L 3866 213 
Q 3469 63 3072 -14 
Q 2675 -91 2278 -91 
Q 1328 -91 801 392 
Q 275 875 275 1747 
Q 275 2603 792 3093 
Q 1309 3584 2216 3584 
Q 3041 3584 3536 3087 
Q 4031 2591 4031 1759 
z
M 2881 2131 
Q 2881 2450 2695 2645 
Q 2509 2841 2209 2841 
Q 1884 2841 1681 2658 
Q 1478 2475 1428 2131 
L 2881 2131 
z
" transform="scale(0.015625)"/>
      <path id="DejaVuSans-Bold-72" d="M 3138 2547 
Q 2991 2616 2845 2648 
Q 2700 2681 2553 2681 
Q 2122 2681 1889 2404 
Q 1656 2128 1656 1613 
L 1656 0 
L 538 0 
L 538 3500 
L 1656 3500 
L 1656 2925 
Q 1872 3269 2151 3426 
Q 2431 3584 2822 3584 
Q 2878 3584 2943 3579 
Q 3009 3575 3134 3559 
L 3138 2547 
z
" transform="scale(0.015625)"/>
      <path id="DejaVuSans-Bold-29" d="M 513 -844 
Q 913 -100 1113 609 
Q 1313 1319 1313 2009 
Q 1313 2700 1113 3408 
Q 913 4116 513 4856 
L 1441 4856 
Q 1916 4091 2145 3389 
Q 2375 2688 2375 2003 
Q 2375 1319 2147 623 
Q 1919 -72 1441 -844 
L 513 -844 
z
" transform="scale(0.015625)"/>
     </defs>
     <use xlink:href="#DejaVuSans-Oblique-64" transform="translate(0 0.015625)"/>
     <use xlink:href="#DejaVuSans-3d" transform="translate(82.958984 0.015625)"/>
     <use xlink:href="#DejaVuSans-31" transform="translate(186.230469 0.015625)"/>
     <use xlink:href="#DejaVuSans-Bold-20" transform="translate(249.853516 0.015625)"/>
     <use xlink:href="#DejaVuSans-Bold-28" transform="translate(284.667969 0.015625)"/>
     <use xlink:href="#DejaVuSans-Bold-44" transform="translate(330.371094 0.015625)"/>
     <use xlink:href="#DejaVuSans-Bold-61" transform="translate(413.378906 0.015625)"/>
     <use xlink:href="#DejaVuSans-Bold-6e" transform="translate(480.859375 0.015625)"/>
     <use xlink:href="#DejaVuSans-Bold-67" transform="translate(552.050781 0.015625)"/>
     <use xlink:href="#DejaVuSans-Bold-65" transform="translate(623.632812 0.015625)"/>
     <use xlink:href="#DejaVuSans-Bold-72" transform="translate(691.455078 0.015625)"/>
     <use xlink:href="#DejaVuSans-Bold-29" transform="translate(740.771484 0.015625)"/>
    </g>
   </g>
   <g id="text_4">
    <!-- $d = 0$ -->
    <g style="fill: #2ecc71" transform="translate(325.570909 308.32787) scale(0.16 -0.16)">
     <defs>
      <path id="DejaVuSans-30" d="M 2034 4250 
Q 1547 4250 1301 3770 
Q 1056 3291 1056 2328 
Q 1056 1369 1301 889 
Q 1547 409 2034 409 
Q 2525 409 2770 889 
Q 3016 1369 3016 2328 
Q 3016 3291 2770 3770 
Q 2525 4250 2034 4250 
z
M 2034 4750 
Q 2819 4750 3233 4129 
Q 3647 3509 3647 2328 
Q 3647 1150 3233 529 
Q 2819 -91 2034 -91 
Q 1250 -91 836 529 
Q 422 1150 422 2328 
Q 422 3509 836 4129 
Q 1250 4750 2034 4750 
z
" transform="scale(0.015625)"/>
     </defs>
     <use xlink:href="#DejaVuSans-Oblique-64" transform="translate(0 0.015625)"/>
     <use xlink:href="#DejaVuSans-3d" transform="translate(82.958984 0.015625)"/>
     <use xlink:href="#DejaVuSans-30" transform="translate(186.230469 0.015625)"/>
    </g>
   </g>
   <g id="text_5">
    <!-- Ex 2: Binary Alarm Classification -->
    <g style="fill: #cccccc" transform="translate(52.296075 210.920056) scale(0.2016 -0.2016)">
     <defs>
      <path id="DejaVuSans-32" d="M 1228 531 
L 3431 531 
L 3431 0 
L 469 0 
L 469 531 
Q 828 903 1448 1529 
Q 2069 2156 2228 2338 
Q 2531 2678 2651 2914 
Q 2772 3150 2772 3378 
Q 2772 3750 2511 3984 
Q 2250 4219 1831 4219 
Q 1534 4219 1204 4116 
Q 875 4013 500 3803 
L 500 4441 
Q 881 4594 1212 4672 
Q 1544 4750 1819 4750 
Q 2544 4750 2975 4387 
Q 3406 4025 3406 3419 
Q 3406 3131 3298 2873 
Q 3191 2616 2906 2266 
Q 2828 2175 2409 1742 
Q 1991 1309 1228 531 
z
" transform="scale(0.015625)"/>
      <path id="DejaVuSans-42" d="M 1259 2228 
L 1259 519 
L 2272 519 
Q 2781 519 3026 730 
Q 3272 941 3272 1375 
Q 3272 1813 3026 2020 
Q 2781 2228 2272 2228 
L 1259 2228 
z
M 1259 4147 
L 1259 2741 
L 2194 2741 
Q 2656 2741 2882 2914 
Q 3109 3088 3109 3444 
Q 3109 3797 2882 3972 
Q 2656 4147 2194 4147 
L 1259 4147 
z
M 628 4666 
L 2241 4666 
Q 2963 4666 3353 4366 
Q 3744 4066 3744 3513 
Q 3744 3084 3544 2831 
Q 3344 2578 2956 2516 
Q 3422 2416 3680 2098 
Q 3938 1781 3938 1306 
Q 3938 681 3513 340 
Q 3088 0 2303 0 
L 628 0 
L 628 4666 
z
" transform="scale(0.015625)"/>
      <path id="DejaVuSans-41" d="M 2188 4044 
L 1331 1722 
L 3047 1722 
L 2188 4044 
z
M 1831 4666 
L 2547 4666 
L 4325 0 
L 3669 0 
L 3244 1197 
L 1141 1197 
L 716 0 
L 50 0 
L 1831 4666 
z
" transform="scale(0.015625)"/>
      <path id="DejaVuSans-43" d="M 4122 4306 
L 4122 3641 
Q 3803 3938 3442 4084 
Q 3081 4231 2675 4231 
Q 1875 4231 1450 3742 
Q 1025 3253 1025 2328 
Q 1025 1406 1450 917 
Q 1875 428 2675 428 
Q 3081 428 3442 575 
Q 3803 722 4122 1019 
L 4122 359 
Q 3791 134 3420 21 
Q 3050 -91 2638 -91 
Q 1578 -91 968 557 
Q 359 1206 359 2328 
Q 359 3453 968 4101 
Q 1578 4750 2638 4750 
Q 3056 4750 3426 4639 
Q 3797 4528 4122 4306 
z
" transform="scale(0.015625)"/>
     </defs>
     <use xlink:href="#DejaVuSans-45"/>
     <use xlink:href="#DejaVuSans-78" transform="translate(63.183594 0)"/>
     <use xlink:href="#DejaVuSans-20" transform="translate(122.363281 0)"/>
     <use xlink:href="#DejaVuSans-32" transform="translate(154.150391 0)"/>
     <use xlink:href="#DejaVuSans-3a" transform="translate(217.773438 0)"/>
     <use xlink:href="#DejaVuSans-20" transform="translate(251.464844 0)"/>
     <use xlink:href="#DejaVuSans-42" transform="translate(283.251953 0)"/>
     <use xlink:href="#DejaVuSans-69" transform="translate(351.855469 0)"/>
     <use xlink:href="#DejaVuSans-6e" transform="translate(379.638672 0)"/>
     <use xlink:href="#DejaVuSans-61" transform="translate(443.017578 0)"/>
     <use xlink:href="#DejaVuSans-72" transform="translate(504.296875 0)"/>
     <use xlink:href="#DejaVuSans-79" transform="translate(545.410156 0)"/>
     <use xlink:href="#DejaVuSans-20" transform="translate(604.589844 0)"/>
     <use xlink:href="#DejaVuSans-41" transform="translate(636.376953 0)"/>
     <use xlink:href="#DejaVuSans-6c" transform="translate(704.785156 0)"/>
     <use xlink:href="#DejaVuSans-61" transform="translate(732.568359 0)"/>
     <use xlink:href="#DejaVuSans-72" transform="translate(793.847656 0)"/>
     <use xlink:href="#DejaVuSans-6d" transform="translate(833.210938 0)"/>
     <use xlink:href="#DejaVuSans-20" transform="translate(930.623047 0)"/>
     <use xlink:href="#DejaVuSans-43" transform="translate(962.410156 0)"/>
     <use xlink:href="#DejaVuSans-6c" transform="translate(1032.234375 0)"/>
     <use xlink:href="#DejaVuSans-61" transform="translate(1060.017578 0)"/>
     <use xlink:href="#DejaVuSans-73" transform="translate(1121.296875 0)"/>
     <use xlink:href="#DejaVuSans-73" transform="translate(1173.396484 0)"/>
     <use xlink:href="#DejaVuSans-69" transform="translate(1225.496094 0)"/>
     <use xlink:href="#DejaVuSans-66" transform="translate(1253.279297 0)"/>
     <use xlink:href="#DejaVuSans-69" transform="translate(1288.484375 0)"/>
     <use xlink:href="#DejaVuSans-63" transform="translate(1316.267578 0)"/>
     <use xlink:href="#DejaVuSans-61" transform="translate(1371.248047 0)"/>
     <use xlink:href="#DejaVuSans-74" transform="translate(1432.527344 0)"/>
     <use xlink:href="#DejaVuSans-69" transform="translate(1471.736328 0)"/>
     <use xlink:href="#DejaVuSans-6f" transform="translate(1499.519531 0)"/>
     <use xlink:href="#DejaVuSans-6e" transform="translate(1560.701172 0)"/>
    </g>
   </g>
  </g>
 </g>
 <defs>
  <clipPath id="p00f1d51e81">
   <rect x="15.12" y="220.920056" width="401.76" height="123.959944"/>
  </clipPath>
 </defs>
</svg>
