<?xml version="1.0" encoding="utf-8" standalone="no"?>
<!DOCTYPE svg PUBLIC "-//W3C//DTD SVG 1.1//EN"
  "http://www.w3.org/Graphics/SVG/1.1/DTD/svg11.dtd">
<svg xmlns:xlink="http://www.w3.org/1999/xlink" width="720pt" height="360pt" viewBox="0 0 720 360" xmlns="http://www.w3.org/2000/svg" version="1.1">
 <metadata>
  <rdf:RDF xmlns:dc="http://purl.org/dc/elements/1.1/" xmlns:cc="http://creativecommons.org/ns#" xmlns:rdf="http://www.w3.org/1999/02/22-rdf-syntax-ns#">
   <cc:Work>
    <dc:type rdf:resource="http://purl.org/dc/dcmitype/StillImage"/>
    <dc:date>2026-03-22T16:19:35.499860</dc:date>
    <dc:format>image/svg+xml</dc:format>
    <dc:creator>
     <cc:Agent>
      <dc:title>Matplotlib v3.10.8, https://matplotlib.org/</dc:title>
     </cc:Agent>
    </dc:creator>
   </cc:Work>
  </rdf:RDF>
 </metadata>
 <defs>
  <style type="text/css">*{stroke-linejoin: round; stroke-linecap: butt}</style>
 </defs>
 <g id="figure_1">
  <g id="patch_1">
   <path d="M 0 360 
L 720 360 
L 720 0 
L 0 0 
L 0 360 
z
" style="fill: none"/>
  </g>
  <g id="axes_1">
   <g id="patch_2">
    <path d="M 56.91 151.692888 
L 704.88 151.692888 
L 704.88 36.96 
L 56.91 36.96 
L 56.91 151.692888 
z
" style="fill: none"/>
   </g>
   <g id="matplotlib.axis_1">
    <g id="xtick_1">
     <g id="line2d_1">
      <path d="M 86.363182 151.692888 
L 86.363182 36.96 
" clip-path="url(#p581ddc791d)" style="fill: none; stroke: #cbcbcb"/>
     </g>
     <g id="line2d_2"/>
    </g>
    <g id="xtick_2">
     <g id="line2d_3">
      <path d="M 204.175909 151.692888 
L 204.175909 36.96 
" clip-path="url(#p581ddc791d)" style="fill: none; stroke: #cbcbcb"/>
     </g>
     <g id="line2d_4"/>
    </g>
    <g id="xtick_3">
     <g id="line2d_5">
      <path d="M 321.988636 151.692888 
L 321.988636 36.96 
" clip-path="url(#p581ddc791d)" style="fill: none; stroke: #cbcbcb"/>
     </g>
     <g id="line2d_6"/>
    </g>
    <g id="xtick_4">
     <g id="line2d_7">
      <path d="M 439.801364 151.692888 
L 439.801364 36.96 
" clip-path="url(#p581ddc791d)" style="fill: none; stroke: #cbcbcb"/>
     </g>
     <g id="line2d_8"/>
    </g>
    <g id="xtick_5">
     <g id="line2d_9">
      <path d="M 557.614091 151.692888 
L 557.614091 36.96 
" clip-path="url(#p581ddc791d)" style="fill: none; stroke: #cbcbcb"/>
     </g>
     <g id="line2d_10"/>
    </g>
    <g id="xtick_6">
     <g id="line2d_11">
      <path d="M 675.426818 151.692888 
L 675.426818 36.96 
" clip-path="url(#p581ddc791d)" style="fill: none; stroke: #cbcbcb"/>
     </g>
     <g id="line2d_12"/>
    </g>
   </g>
   <g id="matplotlib.axis_2">
    <g id="ytick_1">
     <g id="line2d_13">
      <path d="M 56.91 147.180622 
L 704.88 147.180622 
" clip-path="url(#p581ddc791d)" style="fill: none; stroke: #cbcbcb"/>
     </g>
     <g id="line2d_14"/>
     <g id="text_1">
      <!-- 0 -->
      <g style="fill: #cccccc" transform="translate(44.5025 152.499528) scale(0.14 -0.14)">
       <defs>
        <path id="DejaVuSans-30" d="M 2034 4250 
Q 1547 4250 1301 3770 
Q 1056 3291 1056 2328 
Q 1056 1369 1301 889 
Q 1547 409 2034 409 
Q 2525 409 2770 889 
Q 3016 1369 3016 2328 
Q 3016 3291 2770 3770 
Q 2525 4250 2034 4250 
z
M 2034 4750 
Q 2819 4750 3233 4129 
Q 3647 3509 3647 2328 
Q 3647 1150 3233 529 
Q 2819 -91 2034 -91 
Q 1250 -91 836 529 
Q 422 1150 422 2328 
Q 422 3509 836 4129 
Q 1250 4750 2034 4750 
z
" transform="scale(0.015625)"/>
       </defs>
       <use xlink:href="#DejaVuSans-30"/>
      </g>
     </g>
    </g>
    <g id="ytick_2">
     <g id="line2d_15">
      <path d="M 56.91 103.758042 
L 704.88 103.758042 
" clip-path="url(#p581ddc791d)" style="fill: none; stroke: #cbcbcb"/>
     </g>
     <g id="line2d_16"/>
     <g id="text_2">
      <!-- 20 -->
      <g style="fill: #cccccc" transform="translate(35.595 109.076948) scale(0.14 -0.14)">
       <defs>
        <path id="DejaVuSans-32" d="M 1228 531 
L 3431 531 
L 3431 0 
L 469 0 
L 469 531 
Q 828 903 1448 1529 
Q 2069 2156 2228 2338 
Q 2531 2678 2651 2914 
Q 2772 3150 2772 3378 
Q 2772 3750 2511 3984 
Q 2250 4219 1831 4219 
Q 1534 4219 1204 4116 
Q 875 4013 500 3803 
L 500 4441 
Q 881 4594 1212 4672 
Q 1544 4750 1819 4750 
Q 2544 4750 2975 4387 
Q 3406 4025 3406 3419 
Q 3406 3131 3298 2873 
Q 3191 2616 2906 2266 
Q 2828 2175 2409 1742 
Q 1991 1309 1228 531 
z
" transform="scale(0.015625)"/>
       </defs>
       <use xlink:href="#DejaVuSans-32"/>
       <use xlink:href="#DejaVuSans-30" transform="translate(63.623047 0)"/>
      </g>
     </g>
    </g>
    <g id="ytick_3">
     <g id="line2d_17">
      <path d="M 56.91 60.335462 
L 704.88 60.335462 
" clip-path="url(#p581ddc791d)" style="fill: none; stroke: #cbcbcb"/>
     </g>
     <g id="line2d_18"/>
     <g id="text_3">
      <!-- 40 -->
      <g style="fill: #cccccc" transform="translate(35.595 65.654369) scale(0.14 -0.14)">
       <defs>
        <path id="DejaVuSans-34" d="M 2419 4116 
L 825 1625 
L 2419 1625 
L 2419 4116 
z
M 2253 4666 
L 3047 4666 
L 3047 1625 
L 3713 1625 
L 3713 1100 
L 3047 1100 
L 3047 0 
L 2419 0 
L 2419 1100 
L 313 1100 
L 313 1709 
L 2253 4666 
z
" transform="scale(0.015625)"/>
       </defs>
       <use xlink:href="#DejaVuSans-34"/>
       <use xlink:href="#DejaVuSans-30" transform="translate(63.623047 0)"/>
      </g>
     </g>
    </g>
    <g id="text_4">
     <!-- Amplitude -->
     <g style="fill: #cccccc" transform="translate(28.101125 137.372507) rotate(-90) scale(0.168 -0.168)">
      <defs>
       <path id="DejaVuSans-41" d="M 2188 4044 
L 1331 1722 
L 3047 1722 
L 2188 4044 
z
M 1831 4666 
L 2547 4666 
L 4325 0 
L 3669 0 
L 3244 1197 
L 1141 1197 
L 716 0 
L 50 0 
L 1831 4666 
z
" transform="scale(0.015625)"/>
       <path id="DejaVuSans-6d" d="M 3328 2828 
Q 3544 3216 3844 3400 
Q 4144 3584 4550 3584 
Q 5097 3584 5394 3201 
Q 5691 2819 5691 2113 
L 5691 0 
L 5113 0 
L 5113 2094 
Q 5113 2597 4934 2840 
Q 4756 3084 4391 3084 
Q 3944 3084 3684 2787 
Q 3425 2491 3425 1978 
L 3425 0 
L 2847 0 
L 2847 2094 
Q 2847 2600 2669 2842 
Q 2491 3084 2119 3084 
Q 1678 3084 1418 2786 
Q 1159 2488 1159 1978 
L 1159 0 
L 581 0 
L 581 3500 
L 1159 3500 
L 1159 2956 
Q 1356 3278 1631 3431 
Q 1906 3584 2284 3584 
Q 2666 3584 2933 3390 
Q 3200 3197 3328 2828 
z
" transform="scale(0.015625)"/>
       <path id="DejaVuSans-70" d="M 1159 525 
L 1159 -1331 
L 581 -1331 
L 581 3500 
L 1159 3500 
L 1159 2969 
Q 1341 3281 1617 3432 
Q 1894 3584 2278 3584 
Q 2916 3584 3314 3078 
Q 3713 2572 3713 1747 
Q 3713 922 3314 415 
Q 2916 -91 2278 -91 
Q 1894 -91 1617 61 
Q 1341 213 1159 525 
z
M 3116 1747 
Q 3116 2381 2855 2742 
Q 2594 3103 2138 3103 
Q 1681 3103 1420 2742 
Q 1159 2381 1159 1747 
Q 1159 1113 1420 752 
Q 1681 391 2138 391 
Q 2594 391 2855 752 
Q 3116 1113 3116 1747 
z
" transform="scale(0.015625)"/>
       <path id="DejaVuSans-6c" d="M 603 4863 
L 1178 4863 
L 1178 0 
L 603 0 
L 603 4863 
z
" transform="scale(0.015625)"/>
       <path id="DejaVuSans-69" d="M 603 3500 
L 1178 3500 
L 1178 0 
L 603 0 
L 603 3500 
z
M 603 4863 
L 1178 4863 
L 1178 4134 
L 603 4134 
L 603 4863 
z
" transform="scale(0.015625)"/>
       <path id="DejaVuSans-74" d="M 1172 4494 
L 1172 3500 
L 2356 3500 
L 2356 3053 
L 1172 3053 
L 1172 1153 
Q 1172 725 1289 603 
Q 1406 481 1766 481 
L 2356 481 
L 2356 0 
L 1766 0 
Q 1100 0 847 248 
Q 594 497 594 1153 
L 594 3053 
L 172 3053 
L 172 3500 
L 594 3500 
L 594 4494 
L 1172 4494 
z
" transform="scale(0.015625)"/>
       <path id="DejaVuSans-75" d="M 544 1381 
L 544 3500 
L 1119 3500 
L 1119 1403 
Q 1119 906 1312 657 
Q 1506 409 1894 409 
Q 2359 409 2629 706 
Q 2900 1003 2900 1516 
L 2900 3500 
L 3475 3500 
L 3475 0 
L 2900 0 
L 2900 538 
Q 2691 219 2414 64 
Q 2138 -91 1772 -91 
Q 1169 -91 856 284 
Q 544 659 544 1381 
z
M 1991 3584 
L 1991 3584 
z
" transform="scale(0.015625)"/>
       <path id="DejaVuSans-64" d="M 2906 2969 
L 2906 4863 
L 3481 4863 
L 3481 0 
L 2906 0 
L 2906 525 
Q 2725 213 2448 61 
Q 2172 -91 1784 -91 
Q 1150 -91 751 415 
Q 353 922 353 1747 
Q 353 2572 751 3078 
Q 1150 3584 1784 3584 
Q 2172 3584 2448 3432 
Q 2725 3281 2906 2969 
z
M 947 1747 
Q 947 1113 1208 752 
Q 1469 391 1925 391 
Q 2381 391 2643 752 
Q 2906 1113 2906 1747 
Q 2906 2381 2643 2742 
Q 2381 3103 1925 3103 
Q 1469 3103 1208 2742 
Q 947 2381 947 1747 
z
" transform="scale(0.015625)"/>
       <path id="DejaVuSans-65" d="M 3597 1894 
L 3597 1613 
L 953 1613 
Q 991 1019 1311 708 
Q 1631 397 2203 397 
Q 2534 397 2845 478 
Q 3156 559 3463 722 
L 3463 178 
Q 3153 47 2828 -22 
Q 2503 -91 2169 -91 
Q 1331 -91 842 396 
Q 353 884 353 1716 
Q 353 2575 817 3079 
Q 1281 3584 2069 3584 
Q 2775 3584 3186 3129 
Q 3597 2675 3597 1894 
z
M 3022 2063 
Q 3016 2534 2758 2815 
Q 2500 3097 2075 3097 
Q 1594 3097 1305 2825 
Q 1016 2553 972 2059 
L 3022 2063 
z
" transform="scale(0.015625)"/>
      </defs>
      <use xlink:href="#DejaVuSans-41"/>
      <use xlink:href="#DejaVuSans-6d" transform="translate(68.408203 0)"/>
      <use xlink:href="#DejaVuSans-70" transform="translate(165.820312 0)"/>
      <use xlink:href="#DejaVuSans-6c" transform="translate(229.296875 0)"/>
      <use xlink:href="#DejaVuSans-69" transform="translate(257.080078 0)"/>
      <use xlink:href="#DejaVuSans-74" transform="translate(284.863281 0)"/>
      <use xlink:href="#DejaVuSans-75" transform="translate(324.072266 0)"/>
      <use xlink:href="#DejaVuSans-64" transform="translate(387.451172 0)"/>
      <use xlink:href="#DejaVuSans-65" transform="translate(450.927734 0)"/>
     </g>
    </g>
   </g>
   <g id="line2d_19">
    <path d="M 86.363182 145.735099 
L 89.323301 145.206496 
L 92.283419 146.477757 
L 95.243538 143.655624 
L 98.203657 141.861465 
L 101.163776 142.262968 
L 104.123894 140.205753 
L 110.044132 138.755316 
L 113.004251 138.217377 
L 118.924488 135.548392 
L 121.884607 137.462544 
L 124.844726 134.954898 
L 127.804845 135.570356 
L 130.764963 135.167211 
L 133.725082 136.792114 
L 139.64532 133.947524 
L 142.605439 136.799519 
L 145.565557 137.869471 
L 148.525676 137.72269 
L 151.485795 135.646551 
L 154.445914 133.434443 
L 157.406032 134.860211 
L 160.366151 134.275703 
L 163.32627 135.937391 
L 166.286389 134.411859 
L 169.246508 136.029496 
L 172.206626 134.788081 
L 175.166745 135.369817 
L 178.126864 135.205081 
L 181.086983 133.895427 
L 184.047101 133.889209 
L 187.00722 131.189605 
L 189.967339 131.545841 
L 192.927458 130.387346 
L 195.887577 130.178189 
L 198.847695 127.373702 
L 201.807814 128.406434 
L 204.767933 125.73056 
L 207.728052 125.63897 
L 210.68817 125.078626 
L 213.648289 123.395525 
L 216.608408 122.562755 
L 219.568527 120.778991 
L 222.528646 119.822313 
L 225.488764 118.081061 
L 228.448883 116.843032 
L 231.409002 116.733466 
L 237.329239 114.762894 
L 240.289358 115.058403 
L 243.249477 113.197668 
L 246.209596 112.643813 
L 249.169714 113.023262 
L 252.129833 110.420037 
L 255.089952 111.881006 
L 258.050071 112.928976 
L 261.01019 113.192413 
L 263.970308 113.093258 
L 266.930427 113.464329 
L 269.890546 111.795101 
L 272.850665 113.886468 
L 275.810783 113.318338 
L 278.770902 113.884356 
L 281.731021 112.217563 
L 284.69114 114.88732 
L 287.651259 113.67342 
L 290.611377 113.272308 
L 293.571496 112.571706 
L 296.531615 112.107466 
L 299.491734 112.437151 
L 302.451852 110.626769 
L 305.411971 110.757865 
L 308.37209 107.722599 
L 311.332209 111.246842 
L 314.292328 108.055644 
L 317.252446 108.903194 
L 320.212565 107.603037 
L 323.172684 103.489779 
L 326.132803 102.610831 
L 329.092921 105.345905 
L 332.05304 102.378679 
L 335.013159 101.008976 
L 337.973278 102.061789 
L 340.933397 98.63502 
L 343.893515 97.027565 
L 346.853634 96.142674 
L 349.813753 97.530992 
L 352.773872 93.224926 
L 355.73399 93.306374 
L 358.694109 92.873474 
L 361.654228 92.954073 
L 364.614347 90.790029 
L 367.574466 90.091742 
L 370.534584 91.23443 
L 376.454822 89.331462 
L 379.414941 92.232786 
L 382.375059 89.93483 
L 385.335178 92.142581 
L 388.295297 91.128991 
L 391.255416 89.704386 
L 394.215534 90.475935 
L 397.175653 90.861388 
L 400.135772 90.844211 
L 403.095891 89.671549 
L 406.05601 89.854051 
L 409.016128 91.451581 
L 411.976247 90.189275 
L 414.936366 90.853104 
L 417.896485 87.482469 
L 420.856603 90.554708 
L 423.816722 89.655663 
L 429.73696 88.626133 
L 432.697079 87.267573 
L 435.657197 86.303343 
L 438.617316 87.449868 
L 441.577435 85.33025 
L 444.537554 85.089029 
L 447.497672 81.204825 
L 450.457791 78.718227 
L 456.378029 78.639204 
L 459.338148 76.707157 
L 462.298266 76.452456 
L 465.258385 73.680189 
L 474.138741 73.545825 
L 477.09886 72.1016 
L 480.058979 70.238888 
L 483.019098 71.174817 
L 485.979217 69.445523 
L 488.939335 67.209103 
L 491.899454 68.188954 
L 494.859573 65.718439 
L 497.819692 66.04698 
L 500.77981 67.759245 
L 503.739929 68.827925 
L 506.700048 67.375801 
L 509.660167 67.871236 
L 512.620286 67.006258 
L 515.580404 65.758279 
L 518.540523 68.837465 
L 524.460761 67.452 
L 527.420879 66.638626 
L 530.380998 67.329513 
L 533.341117 67.390009 
L 536.301236 66.267233 
L 539.261354 66.999588 
L 542.221473 67.514518 
L 545.181592 66.824286 
L 548.141711 67.186652 
L 551.10183 65.259847 
L 554.061948 64.166407 
L 557.022067 67.665102 
L 559.982186 62.258767 
L 562.942305 62.709568 
L 565.902423 61.140217 
L 568.862542 59.84957 
L 571.822661 61.93587 
L 574.78278 59.57923 
L 577.742899 57.453992 
L 580.703017 56.752333 
L 583.663136 54.40068 
L 586.623255 54.081345 
L 589.583374 54.237198 
L 592.543492 50.6192 
L 595.503611 49.053102 
L 598.46373 48.668644 
L 601.423849 49.168982 
L 604.383968 47.879991 
L 607.344086 46.296524 
L 610.304205 45.629197 
L 613.264324 44.681605 
L 619.184561 46.588236 
L 622.14468 45.555156 
L 625.104799 44.093119 
L 628.064918 43.792782 
L 631.025037 42.175131 
L 633.985155 44.503783 
L 636.945274 44.442853 
L 639.905393 45.001125 
L 642.865512 45.357563 
L 645.82563 44.17028 
L 651.745868 45.369476 
L 654.705987 46.31263 
L 657.666106 45.209041 
L 660.626224 45.362675 
L 663.586343 43.357109 
L 666.546462 43.384186 
L 669.506581 45.120633 
L 672.466699 42.244867 
L 675.426818 43.535378 
L 675.426818 43.535378 
" clip-path="url(#p581ddc791d)" style="fill: none; stroke: #3498db; stroke-width: 2"/>
   </g>
   <g id="patch_3">
    <path d="M 56.91 151.692888 
L 56.91 36.96 
" style="fill: none; stroke: #cccccc; stroke-width: 3; stroke-linejoin: miter; stroke-linecap: square"/>
   </g>
   <g id="patch_4">
    <path d="M 704.88 151.692888 
L 704.88 36.96 
" style="fill: none; stroke: #cccccc; stroke-width: 3; stroke-linejoin: miter; stroke-linecap: square"/>
   </g>
   <g id="patch_5">
    <path d="M 56.91 151.692888 
L 704.88 151.692888 
" style="fill: none; stroke: #cccccc; stroke-width: 3; stroke-linejoin: miter; stroke-linecap: square"/>
   </g>
   <g id="patch_6">
    <path d="M 56.91 36.96 
L 704.88 36.96 
" style="fill: none; stroke: #cccccc; stroke-width: 3; stroke-linejoin: miter; stroke-linecap: square"/>
   </g>
   <g id="text_5">
    <!-- Original Signal with Linear Drift -->
    <g style="fill: #cccccc" transform="translate(222.930375 30.96) scale(0.2016 -0.2016)">
     <defs>
      <path id="DejaVuSans-4f" d="M 2522 4238 
Q 1834 4238 1429 3725 
Q 1025 3213 1025 2328 
Q 1025 1447 1429 934 
Q 1834 422 2522 422 
Q 3209 422 3611 934 
Q 4013 1447 4013 2328 
Q 4013 3213 3611 3725 
Q 3209 4238 2522 4238 
z
M 2522 4750 
Q 3503 4750 4090 4092 
Q 4678 3434 4678 2328 
Q 4678 1225 4090 567 
Q 3503 -91 2522 -91 
Q 1538 -91 948 565 
Q 359 1222 359 2328 
Q 359 3434 948 4092 
Q 1538 4750 2522 4750 
z
" transform="scale(0.015625)"/>
      <path id="DejaVuSans-72" d="M 2631 2963 
Q 2534 3019 2420 3045 
Q 2306 3072 2169 3072 
Q 1681 3072 1420 2755 
Q 1159 2438 1159 1844 
L 1159 0 
L 581 0 
L 581 3500 
L 1159 3500 
L 1159 2956 
Q 1341 3275 1631 3429 
Q 1922 3584 2338 3584 
Q 2397 3584 2469 3576 
Q 2541 3569 2628 3553 
L 2631 2963 
z
" transform="scale(0.015625)"/>
      <path id="DejaVuSans-67" d="M 2906 1791 
Q 2906 2416 2648 2759 
Q 2391 3103 1925 3103 
Q 1463 3103 1205 2759 
Q 947 2416 947 1791 
Q 947 1169 1205 825 
Q 1463 481 1925 481 
Q 2391 481 2648 825 
Q 2906 1169 2906 1791 
z
M 3481 434 
Q 3481 -459 3084 -895 
Q 2688 -1331 1869 -1331 
Q 1566 -1331 1297 -1286 
Q 1028 -1241 775 -1147 
L 775 -588 
Q 1028 -725 1275 -790 
Q 1522 -856 1778 -856 
Q 2344 -856 2625 -561 
Q 2906 -266 2906 331 
L 2906 616 
Q 2728 306 2450 153 
Q 2172 0 1784 0 
Q 1141 0 747 490 
Q 353 981 353 1791 
Q 353 2603 747 3093 
Q 1141 3584 1784 3584 
Q 2172 3584 2450 3431 
Q 2728 3278 2906 2969 
L 2906 3500 
L 3481 3500 
L 3481 434 
z
" transform="scale(0.015625)"/>
      <path id="DejaVuSans-6e" d="M 3513 2113 
L 3513 0 
L 2938 0 
L 2938 2094 
Q 2938 2591 2744 2837 
Q 2550 3084 2163 3084 
Q 1697 3084 1428 2787 
Q 1159 2491 1159 1978 
L 1159 0 
L 581 0 
L 581 3500 
L 1159 3500 
L 1159 2956 
Q 1366 3272 1645 3428 
Q 1925 3584 2291 3584 
Q 2894 3584 3203 3211 
Q 3513 2838 3513 2113 
z
" transform="scale(0.015625)"/>
      <path id="DejaVuSans-61" d="M 2194 1759 
Q 1497 1759 1228 1600 
Q 959 1441 959 1056 
Q 959 750 1161 570 
Q 1363 391 1709 391 
Q 2188 391 2477 730 
Q 2766 1069 2766 1631 
L 2766 1759 
L 2194 1759 
z
M 3341 1997 
L 3341 0 
L 2766 0 
L 2766 531 
Q 2569 213 2275 61 
Q 1981 -91 1556 -91 
Q 1019 -91 701 211 
Q 384 513 384 1019 
Q 384 1609 779 1909 
Q 1175 2209 1959 2209 
L 2766 2209 
L 2766 2266 
Q 2766 2663 2505 2880 
Q 2244 3097 1772 3097 
Q 1472 3097 1187 3025 
Q 903 2953 641 2809 
L 641 3341 
Q 956 3463 1253 3523 
Q 1550 3584 1831 3584 
Q 2591 3584 2966 3190 
Q 3341 2797 3341 1997 
z
" transform="scale(0.015625)"/>
      <path id="DejaVuSans-20" transform="scale(0.015625)"/>
      <path id="DejaVuSans-53" d="M 3425 4513 
L 3425 3897 
Q 3066 4069 2747 4153 
Q 2428 4238 2131 4238 
Q 1616 4238 1336 4038 
Q 1056 3838 1056 3469 
Q 1056 3159 1242 3001 
Q 1428 2844 1947 2747 
L 2328 2669 
Q 3034 2534 3370 2195 
Q 3706 1856 3706 1288 
Q 3706 609 3251 259 
Q 2797 -91 1919 -91 
Q 1588 -91 1214 -16 
Q 841 59 441 206 
L 441 856 
Q 825 641 1194 531 
Q 1563 422 1919 422 
Q 2459 422 2753 634 
Q 3047 847 3047 1241 
Q 3047 1584 2836 1778 
Q 2625 1972 2144 2069 
L 1759 2144 
Q 1053 2284 737 2584 
Q 422 2884 422 3419 
Q 422 4038 858 4394 
Q 1294 4750 2059 4750 
Q 2388 4750 2728 4690 
Q 3069 4631 3425 4513 
z
" transform="scale(0.015625)"/>
      <path id="DejaVuSans-77" d="M 269 3500 
L 844 3500 
L 1563 769 
L 2278 3500 
L 2956 3500 
L 3675 769 
L 4391 3500 
L 4966 3500 
L 4050 0 
L 3372 0 
L 2619 2869 
L 1863 0 
L 1184 0 
L 269 3500 
z
" transform="scale(0.015625)"/>
      <path id="DejaVuSans-68" d="M 3513 2113 
L 3513 0 
L 2938 0 
L 2938 2094 
Q 2938 2591 2744 2837 
Q 2550 3084 2163 3084 
Q 1697 3084 1428 2787 
Q 1159 2491 1159 1978 
L 1159 0 
L 581 0 
L 581 4863 
L 1159 4863 
L 1159 2956 
Q 1366 3272 1645 3428 
Q 1925 3584 2291 3584 
Q 2894 3584 3203 3211 
Q 3513 2838 3513 2113 
z
" transform="scale(0.015625)"/>
      <path id="DejaVuSans-4c" d="M 628 4666 
L 1259 4666 
L 1259 531 
L 3531 531 
L 3531 0 
L 628 0 
L 628 4666 
z
" transform="scale(0.015625)"/>
      <path id="DejaVuSans-44" d="M 1259 4147 
L 1259 519 
L 2022 519 
Q 2988 519 3436 956 
Q 3884 1394 3884 2338 
Q 3884 3275 3436 3711 
Q 2988 4147 2022 4147 
L 1259 4147 
z
M 628 4666 
L 1925 4666 
Q 3281 4666 3915 4102 
Q 4550 3538 4550 2338 
Q 4550 1131 3912 565 
Q 3275 0 1925 0 
L 628 0 
L 628 4666 
z
" transform="scale(0.015625)"/>
      <path id="DejaVuSans-66" d="M 2375 4863 
L 2375 4384 
L 1825 4384 
Q 1516 4384 1395 4259 
Q 1275 4134 1275 3809 
L 1275 3500 
L 2222 3500 
L 2222 3053 
L 1275 3053 
L 1275 0 
L 697 0 
L 697 3053 
L 147 3053 
L 147 3500 
L 697 3500 
L 697 3744 
Q 697 4328 969 4595 
Q 1241 4863 1831 4863 
L 2375 4863 
z
" transform="scale(0.015625)"/>
     </defs>
     <use xlink:href="#DejaVuSans-4f"/>
     <use xlink:href="#DejaVuSans-72" transform="translate(78.710938 0)"/>
     <use xlink:href="#DejaVuSans-69" transform="translate(119.824219 0)"/>
     <use xlink:href="#DejaVuSans-67" transform="translate(147.607422 0)"/>
     <use xlink:href="#DejaVuSans-69" transform="translate(211.083984 0)"/>
     <use xlink:href="#DejaVuSans-6e" transform="translate(238.867188 0)"/>
     <use xlink:href="#DejaVuSans-61" transform="translate(302.246094 0)"/>
     <use xlink:href="#DejaVuSans-6c" transform="translate(363.525391 0)"/>
     <use xlink:href="#DejaVuSans-20" transform="translate(391.308594 0)"/>
     <use xlink:href="#DejaVuSans-53" transform="translate(423.095703 0)"/>
     <use xlink:href="#DejaVuSans-69" transform="translate(486.572266 0)"/>
     <use xlink:href="#DejaVuSans-67" transform="translate(514.355469 0)"/>
     <use xlink:href="#DejaVuSans-6e" transform="translate(577.832031 0)"/>
     <use xlink:href="#DejaVuSans-61" transform="translate(641.210938 0)"/>
     <use xlink:href="#DejaVuSans-6c" transform="translate(702.490234 0)"/>
     <use xlink:href="#DejaVuSans-20" transform="translate(730.273438 0)"/>
     <use xlink:href="#DejaVuSans-77" transform="translate(762.060547 0)"/>
     <use xlink:href="#DejaVuSans-69" transform="translate(843.847656 0)"/>
     <use xlink:href="#DejaVuSans-74" transform="translate(871.630859 0)"/>
     <use xlink:href="#DejaVuSans-68" transform="translate(910.839844 0)"/>
     <use xlink:href="#DejaVuSans-20" transform="translate(974.21875 0)"/>
     <use xlink:href="#DejaVuSans-4c" transform="translate(1006.005859 0)"/>
     <use xlink:href="#DejaVuSans-69" transform="translate(1061.71875 0)"/>
     <use xlink:href="#DejaVuSans-6e" transform="translate(1089.501953 0)"/>
     <use xlink:href="#DejaVuSans-65" transform="translate(1152.880859 0)"/>
     <use xlink:href="#DejaVuSans-61" transform="translate(1214.404297 0)"/>
     <use xlink:href="#DejaVuSans-72" transform="translate(1275.683594 0)"/>
     <use xlink:href="#DejaVuSans-20" transform="translate(1316.796875 0)"/>
     <use xlink:href="#DejaVuSans-44" transform="translate(1348.583984 0)"/>
     <use xlink:href="#DejaVuSans-72" transform="translate(1425.585938 0)"/>
     <use xlink:href="#DejaVuSans-69" transform="translate(1466.699219 0)"/>
     <use xlink:href="#DejaVuSans-66" transform="translate(1494.482422 0)"/>
     <use xlink:href="#DejaVuSans-74" transform="translate(1527.9375 0)"/>
    </g>
   </g>
  </g>
  <g id="axes_2">
   <g id="patch_7">
    <path d="M 56.91 307.14 
L 704.88 307.14 
L 704.88 192.407112 
L 56.91 192.407112 
L 56.91 307.14 
z
" style="fill: none"/>
   </g>
   <g id="matplotlib.axis_3">
    <g id="xtick_7">
     <g id="line2d_20">
      <path d="M 86.363182 307.14 
L 86.363182 192.407112 
" clip-path="url(#pf197d7bf71)" style="fill: none; stroke: #cbcbcb"/>
     </g>
     <g id="line2d_21"/>
     <g id="text_6">
      <!-- 0 -->
      <g style="fill: #cccccc" transform="translate(81.909432 321.277812) scale(0.14 -0.14)">
       <use xlink:href="#DejaVuSans-30"/>
      </g>
     </g>
    </g>
    <g id="xtick_8">
     <g id="line2d_22">
      <path d="M 204.175909 307.14 
L 204.175909 192.407112 
" clip-path="url(#pf197d7bf71)" style="fill: none; stroke: #cbcbcb"/>
     </g>
     <g id="line2d_23"/>
     <g id="text_7">
      <!-- 2 -->
      <g style="fill: #cccccc" transform="translate(199.722159 321.277812) scale(0.14 -0.14)">
       <use xlink:href="#DejaVuSans-32"/>
      </g>
     </g>
    </g>
    <g id="xtick_9">
     <g id="line2d_24">
      <path d="M 321.988636 307.14 
L 321.988636 192.407112 
" clip-path="url(#pf197d7bf71)" style="fill: none; stroke: #cbcbcb"/>
     </g>
     <g id="line2d_25"/>
     <g id="text_8">
      <!-- 4 -->
      <g style="fill: #cccccc" transform="translate(317.534886 321.277812) scale(0.14 -0.14)">
       <use xlink:href="#DejaVuSans-34"/>
      </g>
     </g>
    </g>
    <g id="xtick_10">
     <g id="line2d_26">
      <path d="M 439.801364 307.14 
L 439.801364 192.407112 
" clip-path="url(#pf197d7bf71)" style="fill: none; stroke: #cbcbcb"/>
     </g>
     <g id="line2d_27"/>
     <g id="text_9">
      <!-- 6 -->
      <g style="fill: #cccccc" transform="translate(435.347614 321.277812) scale(0.14 -0.14)">
       <defs>
        <path id="DejaVuSans-36" d="M 2113 2584 
Q 1688 2584 1439 2293 
Q 1191 2003 1191 1497 
Q 1191 994 1439 701 
Q 1688 409 2113 409 
Q 2538 409 2786 701 
Q 3034 994 3034 1497 
Q 3034 2003 2786 2293 
Q 2538 2584 2113 2584 
z
M 3366 4563 
L 3366 3988 
Q 3128 4100 2886 4159 
Q 2644 4219 2406 4219 
Q 1781 4219 1451 3797 
Q 1122 3375 1075 2522 
Q 1259 2794 1537 2939 
Q 1816 3084 2150 3084 
Q 2853 3084 3261 2657 
Q 3669 2231 3669 1497 
Q 3669 778 3244 343 
Q 2819 -91 2113 -91 
Q 1303 -91 875 529 
Q 447 1150 447 2328 
Q 447 3434 972 4092 
Q 1497 4750 2381 4750 
Q 2619 4750 2861 4703 
Q 3103 4656 3366 4563 
z
" transform="scale(0.015625)"/>
       </defs>
       <use xlink:href="#DejaVuSans-36"/>
      </g>
     </g>
    </g>
    <g id="xtick_11">
     <g id="line2d_28">
      <path d="M 557.614091 307.14 
L 557.614091 192.407112 
" clip-path="url(#pf197d7bf71)" style="fill: none; stroke: #cbcbcb"/>
     </g>
     <g id="line2d_29"/>
     <g id="text_10">
      <!-- 8 -->
      <g style="fill: #cccccc" transform="translate(553.160341 321.277812) scale(0.14 -0.14)">
       <defs>
        <path id="DejaVuSans-38" d="M 2034 2216 
Q 1584 2216 1326 1975 
Q 1069 1734 1069 1313 
Q 1069 891 1326 650 
Q 1584 409 2034 409 
Q 2484 409 2743 651 
Q 3003 894 3003 1313 
Q 3003 1734 2745 1975 
Q 2488 2216 2034 2216 
z
M 1403 2484 
Q 997 2584 770 2862 
Q 544 3141 544 3541 
Q 544 4100 942 4425 
Q 1341 4750 2034 4750 
Q 2731 4750 3128 4425 
Q 3525 4100 3525 3541 
Q 3525 3141 3298 2862 
Q 3072 2584 2669 2484 
Q 3125 2378 3379 2068 
Q 3634 1759 3634 1313 
Q 3634 634 3220 271 
Q 2806 -91 2034 -91 
Q 1263 -91 848 271 
Q 434 634 434 1313 
Q 434 1759 690 2068 
Q 947 2378 1403 2484 
z
M 1172 3481 
Q 1172 3119 1398 2916 
Q 1625 2713 2034 2713 
Q 2441 2713 2670 2916 
Q 2900 3119 2900 3481 
Q 2900 3844 2670 4047 
Q 2441 4250 2034 4250 
Q 1625 4250 1398 4047 
Q 1172 3844 1172 3481 
z
" transform="scale(0.015625)"/>
       </defs>
       <use xlink:href="#DejaVuSans-38"/>
      </g>
     </g>
    </g>
    <g id="xtick_12">
     <g id="line2d_30">
      <path d="M 675.426818 307.14 
L 675.426818 192.407112 
" clip-path="url(#pf197d7bf71)" style="fill: none; stroke: #cbcbcb"/>
     </g>
     <g id="line2d_31"/>
     <g id="text_11">
      <!-- 10 -->
      <g style="fill: #cccccc" transform="translate(666.519318 321.277812) scale(0.14 -0.14)">
       <defs>
        <path id="DejaVuSans-31" d="M 794 531 
L 1825 531 
L 1825 4091 
L 703 3866 
L 703 4441 
L 1819 4666 
L 2450 4666 
L 2450 531 
L 3481 531 
L 3481 0 
L 794 0 
L 794 531 
z
" transform="scale(0.015625)"/>
       </defs>
       <use xlink:href="#DejaVuSans-31"/>
       <use xlink:href="#DejaVuSans-30" transform="translate(63.623047 0)"/>
      </g>
     </g>
    </g>
    <g id="text_12">
     <!-- Time -->
     <g style="fill: #cccccc" transform="translate(360.342563 340.95475) scale(0.168 -0.168)">
      <defs>
       <path id="DejaVuSans-54" d="M -19 4666 
L 3928 4666 
L 3928 4134 
L 2272 4134 
L 2272 0 
L 1638 0 
L 1638 4134 
L -19 4134 
L -19 4666 
z
" transform="scale(0.015625)"/>
      </defs>
      <use xlink:href="#DejaVuSans-54"/>
      <use xlink:href="#DejaVuSans-69" transform="translate(57.958984 0)"/>
      <use xlink:href="#DejaVuSans-6d" transform="translate(85.742188 0)"/>
      <use xlink:href="#DejaVuSans-65" transform="translate(183.154297 0)"/>
     </g>
    </g>
   </g>
   <g id="matplotlib.axis_4">
    <g id="ytick_4">
     <g id="line2d_32">
      <path d="M 56.91 260.764286 
L 704.88 260.764286 
" clip-path="url(#pf197d7bf71)" style="fill: none; stroke: #cbcbcb"/>
     </g>
     <g id="line2d_33"/>
     <g id="text_13">
      <!-- 0 -->
      <g style="fill: #cccccc" transform="translate(44.5025 266.083192) scale(0.14 -0.14)">
       <use xlink:href="#DejaVuSans-30"/>
      </g>
     </g>
    </g>
    <g id="ytick_5">
     <g id="line2d_34">
      <path d="M 56.91 210.049886 
L 704.88 210.049886 
" clip-path="url(#pf197d7bf71)" style="fill: none; stroke: #cbcbcb"/>
     </g>
     <g id="line2d_35"/>
     <g id="text_14">
      <!-- 2 -->
      <g style="fill: #cccccc" transform="translate(44.5025 215.368792) scale(0.14 -0.14)">
       <use xlink:href="#DejaVuSans-32"/>
      </g>
     </g>
    </g>
    <g id="text_15">
     <!-- Δ Amplitude -->
     <g style="fill: #cccccc" transform="translate(37.008625 301.235368) rotate(-90) scale(0.168 -0.168)">
      <defs>
       <path id="DejaVuSans-394" d="M 2188 4044 
L 906 525 
L 3472 525 
L 2188 4044 
z
M 50 0 
L 1831 4666 
L 2547 4666 
L 4325 0 
L 50 0 
z
" transform="scale(0.015625)"/>
      </defs>
      <use xlink:href="#DejaVuSans-394"/>
      <use xlink:href="#DejaVuSans-20" transform="translate(68.408203 0)"/>
      <use xlink:href="#DejaVuSans-41" transform="translate(100.195312 0)"/>
      <use xlink:href="#DejaVuSans-6d" transform="translate(168.603516 0)"/>
      <use xlink:href="#DejaVuSans-70" transform="translate(266.015625 0)"/>
      <use xlink:href="#DejaVuSans-6c" transform="translate(329.492188 0)"/>
      <use xlink:href="#DejaVuSans-69" transform="translate(357.275391 0)"/>
      <use xlink:href="#DejaVuSans-74" transform="translate(385.058594 0)"/>
      <use xlink:href="#DejaVuSans-75" transform="translate(424.267578 0)"/>
      <use xlink:href="#DejaVuSans-64" transform="translate(487.646484 0)"/>
      <use xlink:href="#DejaVuSans-65" transform="translate(551.123047 0)"/>
     </g>
    </g>
   </g>
   <g id="line2d_36">
    <path d="M 89.323301 254.590586 
L 92.283419 275.611687 
L 95.243538 227.803842 
L 98.203657 239.809814 
L 101.163776 265.453545 
L 104.123894 236.737523 
L 107.084013 252.127943 
L 110.044132 252.460586 
L 113.004251 254.48155 
L 115.96437 245.633748 
L 118.924488 244.723025 
L 121.884607 283.120189 
L 124.844726 231.476815 
L 127.804845 267.952379 
L 130.764963 256.055845 
L 133.725082 279.741963 
L 136.685201 244.330605 
L 139.64532 243.975237 
L 142.605439 294.073503 
L 145.565557 273.260549 
L 148.525676 259.049987 
L 151.485795 236.516498 
L 154.445914 234.928484 
L 157.406032 277.416208 
L 160.366151 253.937668 
L 163.32627 280.17159 
L 166.286389 242.947179 
L 169.246508 279.657103 
L 172.206626 246.265475 
L 175.166745 267.558537 
L 178.126864 258.840284 
L 181.086983 245.468484 
L 184.047101 260.691661 
L 187.00722 229.234884 
L 189.967339 264.924861 
L 192.927458 247.233917 
L 195.887577 258.321489 
L 198.847695 228.009916 
L 201.807814 272.825846 
L 204.767933 229.512035 
L 207.728052 259.694579 
L 210.68817 254.21988 
L 213.648289 241.106897 
L 216.608408 251.03814 
L 219.568527 239.931225 
L 222.528646 249.590989 
L 225.488764 240.427735 
L 228.448883 246.305003 
L 231.409002 259.484642 
L 234.369121 249.936761 
L 237.329239 248.576971 
L 240.289358 264.215608 
L 243.249477 239.032263 
L 246.209596 254.295671 
L 249.169714 265.195961 
L 252.129833 230.360531 
L 255.089952 277.827333 
L 258.050071 273.003806 
L 261.01019 263.841041 
L 263.970308 259.606226 
L 266.930427 265.098119 
L 269.890546 241.268926 
L 272.850665 285.189922 
L 275.810783 254.128943 
L 278.770902 267.374963 
L 281.731021 241.297361 
L 284.69114 291.945105 
L 287.651259 246.586819 
L 290.611377 256.079583 
L 293.571496 252.581767 
L 296.531615 255.342306 
L 299.491734 264.61476 
L 302.451852 239.620351 
L 305.411971 262.295397 
L 308.37209 225.314598 
L 311.332209 301.924869 
L 314.292328 223.493418 
L 317.252446 270.663048 
L 320.212565 245.579413 
L 323.172684 212.724435 
L 326.132803 250.498813 
L 329.092921 292.707949 
L 332.05304 226.109253 
L 335.013159 244.767157 
L 337.973278 273.060375 
L 340.933397 220.742132 
L 343.893515 241.99038 
L 346.853634 250.429413 
L 349.813753 276.978821 
L 352.773872 210.47258 
L 355.73399 261.715535 
L 358.694109 255.70833 
L 361.654228 261.705625 
L 364.614347 235.489841 
L 367.574466 252.608805 
L 370.534584 274.110039 
L 373.494703 250.193661 
L 376.454822 249.109645 
L 379.414941 294.649629 
L 382.375059 233.925836 
L 385.335178 286.549197 
L 388.295297 248.926297 
L 391.255416 244.125945 
L 394.215534 269.775413 
L 400.135772 260.563668 
L 403.095891 247.068452 
L 406.05601 262.89578 
L 409.016128 279.422272 
L 411.976247 246.021465 
L 414.936366 268.517328 
L 417.896485 221.397739 
L 420.856603 296.64579 
L 423.816722 250.264091 
L 426.776841 254.983536 
L 429.73696 254.520876 
L 432.697079 244.897298 
L 435.657197 249.502783 
L 438.617316 274.154865 
L 441.577435 236.008698 
L 444.537554 257.947005 
L 447.497672 215.399611 
L 450.457791 231.722638 
L 453.41791 260.678103 
L 456.378029 259.927543 
L 459.338148 238.199388 
L 462.298266 257.789561 
L 465.258385 228.386237 
L 468.218504 260.310299 
L 471.178623 259.804018 
L 474.138741 260.609269 
L 477.09886 243.896795 
L 480.058979 239.009173 
L 483.019098 271.695248 
L 485.979217 240.567401 
L 488.939335 234.644526 
L 491.899454 272.208235 
L 494.859573 231.910473 
L 497.819692 264.60141 
L 500.77981 280.762288 
L 503.739929 273.245688 
L 506.700048 243.804537 
L 509.660167 266.550602 
L 512.620286 250.661972 
L 515.580404 246.188807 
L 518.540523 296.726921 
L 521.500642 252.686498 
L 524.460761 252.660866 
L 527.420879 251.264664 
L 530.380998 268.833342 
L 533.341117 261.470834 
L 536.301236 247.651085 
L 539.261354 269.317663 
L 542.221473 266.778285 
L 545.181592 252.702877 
L 548.141711 264.996463 
L 551.10183 238.260613 
L 554.061948 247.993708 
L 557.022067 301.626487 
L 559.982186 197.622243 
L 562.942305 266.029313 
L 565.902423 242.435411 
L 568.862542 245.690468 
L 571.822661 285.130743 
L 574.78278 233.240453 
L 577.742899 235.943058 
L 580.703017 252.56942 
L 583.663136 233.298706 
L 586.623255 257.03468 
L 589.583374 262.584541 
L 592.543492 218.508707 
L 595.503611 242.473411 
L 598.46373 256.274095 
L 601.423849 266.607871 
L 604.383968 245.709813 
L 607.344086 242.270546 
L 610.304205 252.970396 
L 613.264324 249.697102 
L 616.224443 272.454059 
L 619.184561 271.342572 
L 622.14468 248.698661 
L 625.104799 243.688765 
L 628.064918 257.256566 
L 631.025037 241.871309 
L 633.985155 287.961237 
L 636.945274 260.052664 
L 639.905393 267.284498 
L 642.865512 264.927216 
L 645.82563 246.897689 
L 648.785749 267.134852 
L 651.745868 268.399454 
L 654.705987 271.779634 
L 657.666106 247.875172 
L 660.626224 262.558624 
L 663.586343 237.340746 
L 666.546462 261.08052 
L 669.506581 281.044715 
L 672.466699 227.177442 
L 675.426818 275.836517 
L 675.426818 275.836517 
" clip-path="url(#pf197d7bf71)" style="fill: none; stroke: #e74c3c; stroke-width: 2"/>
   </g>
   <g id="patch_8">
    <path d="M 56.91 307.14 
L 56.91 192.407112 
" style="fill: none; stroke: #cccccc; stroke-width: 3; stroke-linejoin: miter; stroke-linecap: square"/>
   </g>
   <g id="patch_9">
    <path d="M 704.88 307.14 
L 704.88 192.407112 
" style="fill: none; stroke: #cccccc; stroke-width: 3; stroke-linejoin: miter; stroke-linecap: square"/>
   </g>
   <g id="patch_10">
    <path d="M 56.91 307.14 
L 704.88 307.14 
" style="fill: none; stroke: #cccccc; stroke-width: 3; stroke-linejoin: miter; stroke-linecap: square"/>
   </g>
   <g id="patch_11">
    <path d="M 56.91 192.407112 
L 704.88 192.407112 
" style="fill: none; stroke: #cccccc; stroke-width: 3; stroke-linejoin: miter; stroke-linecap: square"/>
   </g>
   <g id="text_16">
    <!-- Differentiated Signal (Drift Removed) -->
    <g style="fill: #cccccc" transform="translate(193.266825 186.407112) scale(0.2016 -0.2016)">
     <defs>
      <path id="DejaVuSans-28" d="M 1984 4856 
Q 1566 4138 1362 3434 
Q 1159 2731 1159 2009 
Q 1159 1288 1364 580 
Q 1569 -128 1984 -844 
L 1484 -844 
Q 1016 -109 783 600 
Q 550 1309 550 2009 
Q 550 2706 781 3412 
Q 1013 4119 1484 4856 
L 1984 4856 
z
" transform="scale(0.015625)"/>
      <path id="DejaVuSans-52" d="M 2841 2188 
Q 3044 2119 3236 1894 
Q 3428 1669 3622 1275 
L 4263 0 
L 3584 0 
L 2988 1197 
Q 2756 1666 2539 1819 
Q 2322 1972 1947 1972 
L 1259 1972 
L 1259 0 
L 628 0 
L 628 4666 
L 2053 4666 
Q 2853 4666 3247 4331 
Q 3641 3997 3641 3322 
Q 3641 2881 3436 2590 
Q 3231 2300 2841 2188 
z
M 1259 4147 
L 1259 2491 
L 2053 2491 
Q 2509 2491 2742 2702 
Q 2975 2913 2975 3322 
Q 2975 3731 2742 3939 
Q 2509 4147 2053 4147 
L 1259 4147 
z
" transform="scale(0.015625)"/>
      <path id="DejaVuSans-6f" d="M 1959 3097 
Q 1497 3097 1228 2736 
Q 959 2375 959 1747 
Q 959 1119 1226 758 
Q 1494 397 1959 397 
Q 2419 397 2687 759 
Q 2956 1122 2956 1747 
Q 2956 2369 2687 2733 
Q 2419 3097 1959 3097 
z
M 1959 3584 
Q 2709 3584 3137 3096 
Q 3566 2609 3566 1747 
Q 3566 888 3137 398 
Q 2709 -91 1959 -91 
Q 1206 -91 779 398 
Q 353 888 353 1747 
Q 353 2609 779 3096 
Q 1206 3584 1959 3584 
z
" transform="scale(0.015625)"/>
      <path id="DejaVuSans-76" d="M 191 3500 
L 800 3500 
L 1894 563 
L 2988 3500 
L 3597 3500 
L 2284 0 
L 1503 0 
L 191 3500 
z
" transform="scale(0.015625)"/>
      <path id="DejaVuSans-29" d="M 513 4856 
L 1013 4856 
Q 1481 4119 1714 3412 
Q 1947 2706 1947 2009 
Q 1947 1309 1714 600 
Q 1481 -109 1013 -844 
L 513 -844 
Q 928 -128 1133 580 
Q 1338 1288 1338 2009 
Q 1338 2731 1133 3434 
Q 928 4138 513 4856 
z
" transform="scale(0.015625)"/>
     </defs>
     <use xlink:href="#DejaVuSans-44"/>
     <use xlink:href="#DejaVuSans-69" transform="translate(77.001953 0)"/>
     <use xlink:href="#DejaVuSans-66" transform="translate(104.785156 0)"/>
     <use xlink:href="#DejaVuSans-66" transform="translate(139.990234 0)"/>
     <use xlink:href="#DejaVuSans-65" transform="translate(175.195312 0)"/>
     <use xlink:href="#DejaVuSans-72" transform="translate(236.71875 0)"/>
     <use xlink:href="#DejaVuSans-65" transform="translate(275.582031 0)"/>
     <use xlink:href="#DejaVuSans-6e" transform="translate(337.105469 0)"/>
     <use xlink:href="#DejaVuSans-74" transform="translate(400.484375 0)"/>
     <use xlink:href="#DejaVuSans-69" transform="translate(439.693359 0)"/>
     <use xlink:href="#DejaVuSans-61" transform="translate(467.476562 0)"/>
     <use xlink:href="#DejaVuSans-74" transform="translate(528.755859 0)"/>
     <use xlink:href="#DejaVuSans-65" transform="translate(567.964844 0)"/>
     <use xlink:href="#DejaVuSans-64" transform="translate(629.488281 0)"/>
     <use xlink:href="#DejaVuSans-20" transform="translate(692.964844 0)"/>
     <use xlink:href="#DejaVuSans-53" transform="translate(724.751953 0)"/>
     <use xlink:href="#DejaVuSans-69" transform="translate(788.228516 0)"/>
     <use xlink:href="#DejaVuSans-67" transform="translate(816.011719 0)"/>
     <use xlink:href="#DejaVuSans-6e" transform="translate(879.488281 0)"/>
     <use xlink:href="#DejaVuSans-61" transform="translate(942.867188 0)"/>
     <use xlink:href="#DejaVuSans-6c" transform="translate(1004.146484 0)"/>
     <use xlink:href="#DejaVuSans-20" transform="translate(1031.929688 0)"/>
     <use xlink:href="#DejaVuSans-28" transform="translate(1063.716797 0)"/>
     <use xlink:href="#DejaVuSans-44" transform="translate(1102.730469 0)"/>
     <use xlink:href="#DejaVuSans-72" transform="translate(1179.732422 0)"/>
     <use xlink:href="#DejaVuSans-69" transform="translate(1220.845703 0)"/>
     <use xlink:href="#DejaVuSans-66" transform="translate(1248.628906 0)"/>
     <use xlink:href="#DejaVuSans-74" transform="translate(1282.083984 0)"/>
     <use xlink:href="#DejaVuSans-20" transform="translate(1321.292969 0)"/>
     <use xlink:href="#DejaVuSans-52" transform="translate(1353.080078 0)"/>
     <use xlink:href="#DejaVuSans-65" transform="translate(1418.0625 0)"/>
     <use xlink:href="#DejaVuSans-6d" transform="translate(1479.585938 0)"/>
     <use xlink:href="#DejaVuSans-6f" transform="translate(1576.998047 0)"/>
     <use xlink:href="#DejaVuSans-76" transform="translate(1638.179688 0)"/>
     <use xlink:href="#DejaVuSans-65" transform="translate(1697.359375 0)"/>
     <use xlink:href="#DejaVuSans-64" transform="translate(1758.882812 0)"/>
     <use xlink:href="#DejaVuSans-29" transform="translate(1822.359375 0)"/>
    </g>
   </g>
  </g>
 </g>
 <defs>
  <clipPath id="p581ddc791d">
   <rect x="56.91" y="36.96" width="647.97" height="114.732888"/>
  </clipPath>
  <clipPath id="pf197d7bf71">
   <rect x="56.91" y="192.407112" width="647.97" height="114.732888"/>
  </clipPath>
 </defs>
</svg>
