<?xml version="1.0" encoding="utf-8" standalone="no"?>
<!DOCTYPE svg PUBLIC "-//W3C//DTD SVG 1.1//EN"
  "http://www.w3.org/Graphics/SVG/1.1/DTD/svg11.dtd">
<svg xmlns:xlink="http://www.w3.org/1999/xlink" width="864pt" height="288pt" viewBox="0 0 864 288" xmlns="http://www.w3.org/2000/svg" version="1.1">
 <metadata>
  <rdf:RDF xmlns:dc="http://purl.org/dc/elements/1.1/" xmlns:cc="http://creativecommons.org/ns#" xmlns:rdf="http://www.w3.org/1999/02/22-rdf-syntax-ns#">
   <cc:Work>
    <dc:type rdf:resource="http://purl.org/dc/dcmitype/StillImage"/>
    <dc:date>2026-03-22T16:19:36.015311</dc:date>
    <dc:format>image/svg+xml</dc:format>
    <dc:creator>
     <cc:Agent>
      <dc:title>Matplotlib v3.10.8, https://matplotlib.org/</dc:title>
     </cc:Agent>
    </dc:creator>
   </cc:Work>
  </rdf:RDF>
 </metadata>
 <defs>
  <style type="text/css">*{stroke-linejoin: round; stroke-linecap: butt}</style>
 </defs>
 <g id="figure_1">
  <g id="patch_1">
   <path d="M 0 288 
L 864 288 
L 864 0 
L 0 0 
L 0 288 
z
" style="fill: none"/>
  </g>
  <g id="axes_1">
   <g id="patch_2">
    <path d="M 59.88 235.14 
L 414.8775 235.14 
L 414.8775 36.96 
L 59.88 36.96 
L 59.88 235.14 
z
" style="fill: none"/>
   </g>
   <g id="matplotlib.axis_1">
    <g id="xtick_1">
     <g id="line2d_1">
      <path d="M 76.01625 235.14 
L 76.01625 36.96 
" clip-path="url(#pb9ad469fac)" style="fill: none; stroke: #cbcbcb"/>
     </g>
     <g id="line2d_2"/>
     <g id="text_1">
      <!-- 0.0 -->
      <g style="fill: #cccccc" transform="translate(64.884063 249.277813) scale(0.14 -0.14)">
       <defs>
        <path id="DejaVuSans-30" d="M 2034 4250 
Q 1547 4250 1301 3770 
Q 1056 3291 1056 2328 
Q 1056 1369 1301 889 
Q 1547 409 2034 409 
Q 2525 409 2770 889 
Q 3016 1369 3016 2328 
Q 3016 3291 2770 3770 
Q 2525 4250 2034 4250 
z
M 2034 4750 
Q 2819 4750 3233 4129 
Q 3647 3509 3647 2328 
Q 3647 1150 3233 529 
Q 2819 -91 2034 -91 
Q 1250 -91 836 529 
Q 422 1150 422 2328 
Q 422 3509 836 4129 
Q 1250 4750 2034 4750 
z
" transform="scale(0.015625)"/>
        <path id="DejaVuSans-2e" d="M 684 794 
L 1344 794 
L 1344 0 
L 684 0 
L 684 794 
z
" transform="scale(0.015625)"/>
       </defs>
       <use xlink:href="#DejaVuSans-30"/>
       <use xlink:href="#DejaVuSans-2e" transform="translate(63.623047 0)"/>
       <use xlink:href="#DejaVuSans-30" transform="translate(95.410156 0)"/>
      </g>
     </g>
    </g>
    <g id="xtick_2">
     <g id="line2d_3">
      <path d="M 140.56125 235.14 
L 140.56125 36.96 
" clip-path="url(#pb9ad469fac)" style="fill: none; stroke: #cbcbcb"/>
     </g>
     <g id="line2d_4"/>
     <g id="text_2">
      <!-- 0.2 -->
      <g style="fill: #cccccc" transform="translate(129.429063 249.277813) scale(0.14 -0.14)">
       <defs>
        <path id="DejaVuSans-32" d="M 1228 531 
L 3431 531 
L 3431 0 
L 469 0 
L 469 531 
Q 828 903 1448 1529 
Q 2069 2156 2228 2338 
Q 2531 2678 2651 2914 
Q 2772 3150 2772 3378 
Q 2772 3750 2511 3984 
Q 2250 4219 1831 4219 
Q 1534 4219 1204 4116 
Q 875 4013 500 3803 
L 500 4441 
Q 881 4594 1212 4672 
Q 1544 4750 1819 4750 
Q 2544 4750 2975 4387 
Q 3406 4025 3406 3419 
Q 3406 3131 3298 2873 
Q 3191 2616 2906 2266 
Q 2828 2175 2409 1742 
Q 1991 1309 1228 531 
z
" transform="scale(0.015625)"/>
       </defs>
       <use xlink:href="#DejaVuSans-30"/>
       <use xlink:href="#DejaVuSans-2e" transform="translate(63.623047 0)"/>
       <use xlink:href="#DejaVuSans-32" transform="translate(95.410156 0)"/>
      </g>
     </g>
    </g>
    <g id="xtick_3">
     <g id="line2d_5">
      <path d="M 205.10625 235.14 
L 205.10625 36.96 
" clip-path="url(#pb9ad469fac)" style="fill: none; stroke: #cbcbcb"/>
     </g>
     <g id="line2d_6"/>
     <g id="text_3">
      <!-- 0.4 -->
      <g style="fill: #cccccc" transform="translate(193.974063 249.277813) scale(0.14 -0.14)">
       <defs>
        <path id="DejaVuSans-34" d="M 2419 4116 
L 825 1625 
L 2419 1625 
L 2419 4116 
z
M 2253 4666 
L 3047 4666 
L 3047 1625 
L 3713 1625 
L 3713 1100 
L 3047 1100 
L 3047 0 
L 2419 0 
L 2419 1100 
L 313 1100 
L 313 1709 
L 2253 4666 
z
" transform="scale(0.015625)"/>
       </defs>
       <use xlink:href="#DejaVuSans-30"/>
       <use xlink:href="#DejaVuSans-2e" transform="translate(63.623047 0)"/>
       <use xlink:href="#DejaVuSans-34" transform="translate(95.410156 0)"/>
      </g>
     </g>
    </g>
    <g id="xtick_4">
     <g id="line2d_7">
      <path d="M 269.65125 235.14 
L 269.65125 36.96 
" clip-path="url(#pb9ad469fac)" style="fill: none; stroke: #cbcbcb"/>
     </g>
     <g id="line2d_8"/>
     <g id="text_4">
      <!-- 0.6 -->
      <g style="fill: #cccccc" transform="translate(258.519063 249.277813) scale(0.14 -0.14)">
       <defs>
        <path id="DejaVuSans-36" d="M 2113 2584 
Q 1688 2584 1439 2293 
Q 1191 2003 1191 1497 
Q 1191 994 1439 701 
Q 1688 409 2113 409 
Q 2538 409 2786 701 
Q 3034 994 3034 1497 
Q 3034 2003 2786 2293 
Q 2538 2584 2113 2584 
z
M 3366 4563 
L 3366 3988 
Q 3128 4100 2886 4159 
Q 2644 4219 2406 4219 
Q 1781 4219 1451 3797 
Q 1122 3375 1075 2522 
Q 1259 2794 1537 2939 
Q 1816 3084 2150 3084 
Q 2853 3084 3261 2657 
Q 3669 2231 3669 1497 
Q 3669 778 3244 343 
Q 2819 -91 2113 -91 
Q 1303 -91 875 529 
Q 447 1150 447 2328 
Q 447 3434 972 4092 
Q 1497 4750 2381 4750 
Q 2619 4750 2861 4703 
Q 3103 4656 3366 4563 
z
" transform="scale(0.015625)"/>
       </defs>
       <use xlink:href="#DejaVuSans-30"/>
       <use xlink:href="#DejaVuSans-2e" transform="translate(63.623047 0)"/>
       <use xlink:href="#DejaVuSans-36" transform="translate(95.410156 0)"/>
      </g>
     </g>
    </g>
    <g id="xtick_5">
     <g id="line2d_9">
      <path d="M 334.19625 235.14 
L 334.19625 36.96 
" clip-path="url(#pb9ad469fac)" style="fill: none; stroke: #cbcbcb"/>
     </g>
     <g id="line2d_10"/>
     <g id="text_5">
      <!-- 0.8 -->
      <g style="fill: #cccccc" transform="translate(323.064063 249.277813) scale(0.14 -0.14)">
       <defs>
        <path id="DejaVuSans-38" d="M 2034 2216 
Q 1584 2216 1326 1975 
Q 1069 1734 1069 1313 
Q 1069 891 1326 650 
Q 1584 409 2034 409 
Q 2484 409 2743 651 
Q 3003 894 3003 1313 
Q 3003 1734 2745 1975 
Q 2488 2216 2034 2216 
z
M 1403 2484 
Q 997 2584 770 2862 
Q 544 3141 544 3541 
Q 544 4100 942 4425 
Q 1341 4750 2034 4750 
Q 2731 4750 3128 4425 
Q 3525 4100 3525 3541 
Q 3525 3141 3298 2862 
Q 3072 2584 2669 2484 
Q 3125 2378 3379 2068 
Q 3634 1759 3634 1313 
Q 3634 634 3220 271 
Q 2806 -91 2034 -91 
Q 1263 -91 848 271 
Q 434 634 434 1313 
Q 434 1759 690 2068 
Q 947 2378 1403 2484 
z
M 1172 3481 
Q 1172 3119 1398 2916 
Q 1625 2713 2034 2713 
Q 2441 2713 2670 2916 
Q 2900 3119 2900 3481 
Q 2900 3844 2670 4047 
Q 2441 4250 2034 4250 
Q 1625 4250 1398 4047 
Q 1172 3844 1172 3481 
z
" transform="scale(0.015625)"/>
       </defs>
       <use xlink:href="#DejaVuSans-30"/>
       <use xlink:href="#DejaVuSans-2e" transform="translate(63.623047 0)"/>
       <use xlink:href="#DejaVuSans-38" transform="translate(95.410156 0)"/>
      </g>
     </g>
    </g>
    <g id="xtick_6">
     <g id="line2d_11">
      <path d="M 398.74125 235.14 
L 398.74125 36.96 
" clip-path="url(#pb9ad469fac)" style="fill: none; stroke: #cbcbcb"/>
     </g>
     <g id="line2d_12"/>
     <g id="text_6">
      <!-- 1.0 -->
      <g style="fill: #cccccc" transform="translate(387.609063 249.277813) scale(0.14 -0.14)">
       <defs>
        <path id="DejaVuSans-31" d="M 794 531 
L 1825 531 
L 1825 4091 
L 703 3866 
L 703 4441 
L 1819 4666 
L 2450 4666 
L 2450 531 
L 3481 531 
L 3481 0 
L 794 0 
L 794 531 
z
" transform="scale(0.015625)"/>
       </defs>
       <use xlink:href="#DejaVuSans-31"/>
       <use xlink:href="#DejaVuSans-2e" transform="translate(63.623047 0)"/>
       <use xlink:href="#DejaVuSans-30" transform="translate(95.410156 0)"/>
      </g>
     </g>
    </g>
    <g id="text_7">
     <!-- Time (s) -->
     <g style="fill: #cccccc" transform="translate(203.226188 268.95475) scale(0.168 -0.168)">
      <defs>
       <path id="DejaVuSans-54" d="M -19 4666 
L 3928 4666 
L 3928 4134 
L 2272 4134 
L 2272 0 
L 1638 0 
L 1638 4134 
L -19 4134 
L -19 4666 
z
" transform="scale(0.015625)"/>
       <path id="DejaVuSans-69" d="M 603 3500 
L 1178 3500 
L 1178 0 
L 603 0 
L 603 3500 
z
M 603 4863 
L 1178 4863 
L 1178 4134 
L 603 4134 
L 603 4863 
z
" transform="scale(0.015625)"/>
       <path id="DejaVuSans-6d" d="M 3328 2828 
Q 3544 3216 3844 3400 
Q 4144 3584 4550 3584 
Q 5097 3584 5394 3201 
Q 5691 2819 5691 2113 
L 5691 0 
L 5113 0 
L 5113 2094 
Q 5113 2597 4934 2840 
Q 4756 3084 4391 3084 
Q 3944 3084 3684 2787 
Q 3425 2491 3425 1978 
L 3425 0 
L 2847 0 
L 2847 2094 
Q 2847 2600 2669 2842 
Q 2491 3084 2119 3084 
Q 1678 3084 1418 2786 
Q 1159 2488 1159 1978 
L 1159 0 
L 581 0 
L 581 3500 
L 1159 3500 
L 1159 2956 
Q 1356 3278 1631 3431 
Q 1906 3584 2284 3584 
Q 2666 3584 2933 3390 
Q 3200 3197 3328 2828 
z
" transform="scale(0.015625)"/>
       <path id="DejaVuSans-65" d="M 3597 1894 
L 3597 1613 
L 953 1613 
Q 991 1019 1311 708 
Q 1631 397 2203 397 
Q 2534 397 2845 478 
Q 3156 559 3463 722 
L 3463 178 
Q 3153 47 2828 -22 
Q 2503 -91 2169 -91 
Q 1331 -91 842 396 
Q 353 884 353 1716 
Q 353 2575 817 3079 
Q 1281 3584 2069 3584 
Q 2775 3584 3186 3129 
Q 3597 2675 3597 1894 
z
M 3022 2063 
Q 3016 2534 2758 2815 
Q 2500 3097 2075 3097 
Q 1594 3097 1305 2825 
Q 1016 2553 972 2059 
L 3022 2063 
z
" transform="scale(0.015625)"/>
       <path id="DejaVuSans-20" transform="scale(0.015625)"/>
       <path id="DejaVuSans-28" d="M 1984 4856 
Q 1566 4138 1362 3434 
Q 1159 2731 1159 2009 
Q 1159 1288 1364 580 
Q 1569 -128 1984 -844 
L 1484 -844 
Q 1016 -109 783 600 
Q 550 1309 550 2009 
Q 550 2706 781 3412 
Q 1013 4119 1484 4856 
L 1984 4856 
z
" transform="scale(0.015625)"/>
       <path id="DejaVuSans-73" d="M 2834 3397 
L 2834 2853 
Q 2591 2978 2328 3040 
Q 2066 3103 1784 3103 
Q 1356 3103 1142 2972 
Q 928 2841 928 2578 
Q 928 2378 1081 2264 
Q 1234 2150 1697 2047 
L 1894 2003 
Q 2506 1872 2764 1633 
Q 3022 1394 3022 966 
Q 3022 478 2636 193 
Q 2250 -91 1575 -91 
Q 1294 -91 989 -36 
Q 684 19 347 128 
L 347 722 
Q 666 556 975 473 
Q 1284 391 1588 391 
Q 1994 391 2212 530 
Q 2431 669 2431 922 
Q 2431 1156 2273 1281 
Q 2116 1406 1581 1522 
L 1381 1569 
Q 847 1681 609 1914 
Q 372 2147 372 2553 
Q 372 3047 722 3315 
Q 1072 3584 1716 3584 
Q 2034 3584 2315 3537 
Q 2597 3491 2834 3397 
z
" transform="scale(0.015625)"/>
       <path id="DejaVuSans-29" d="M 513 4856 
L 1013 4856 
Q 1481 4119 1714 3412 
Q 1947 2706 1947 2009 
Q 1947 1309 1714 600 
Q 1481 -109 1013 -844 
L 513 -844 
Q 928 -128 1133 580 
Q 1338 1288 1338 2009 
Q 1338 2731 1133 3434 
Q 928 4138 513 4856 
z
" transform="scale(0.015625)"/>
      </defs>
      <use xlink:href="#DejaVuSans-54"/>
      <use xlink:href="#DejaVuSans-69" transform="translate(57.958984 0)"/>
      <use xlink:href="#DejaVuSans-6d" transform="translate(85.742188 0)"/>
      <use xlink:href="#DejaVuSans-65" transform="translate(183.154297 0)"/>
      <use xlink:href="#DejaVuSans-20" transform="translate(244.677734 0)"/>
      <use xlink:href="#DejaVuSans-28" transform="translate(276.464844 0)"/>
      <use xlink:href="#DejaVuSans-73" transform="translate(315.478516 0)"/>
      <use xlink:href="#DejaVuSans-29" transform="translate(367.578125 0)"/>
     </g>
    </g>
   </g>
   <g id="matplotlib.axis_2">
    <g id="ytick_1">
     <g id="line2d_13">
      <path d="M 59.88 226.102217 
L 414.8775 226.102217 
" clip-path="url(#pb9ad469fac)" style="fill: none; stroke: #cbcbcb"/>
     </g>
     <g id="line2d_14"/>
     <g id="text_8">
      <!-- −6 -->
      <g style="fill: #cccccc" transform="translate(35.740938 231.421123) scale(0.14 -0.14)">
       <defs>
        <path id="DejaVuSans-2212" d="M 678 2272 
L 4684 2272 
L 4684 1741 
L 678 1741 
L 678 2272 
z
" transform="scale(0.015625)"/>
       </defs>
       <use xlink:href="#DejaVuSans-2212"/>
       <use xlink:href="#DejaVuSans-36" transform="translate(83.789062 0)"/>
      </g>
     </g>
    </g>
    <g id="ytick_2">
     <g id="line2d_15">
      <path d="M 59.88 195.511475 
L 414.8775 195.511475 
" clip-path="url(#pb9ad469fac)" style="fill: none; stroke: #cbcbcb"/>
     </g>
     <g id="line2d_16"/>
     <g id="text_9">
      <!-- −4 -->
      <g style="fill: #cccccc" transform="translate(35.740938 200.830381) scale(0.14 -0.14)">
       <use xlink:href="#DejaVuSans-2212"/>
       <use xlink:href="#DejaVuSans-34" transform="translate(83.789062 0)"/>
      </g>
     </g>
    </g>
    <g id="ytick_3">
     <g id="line2d_17">
      <path d="M 59.88 164.920733 
L 414.8775 164.920733 
" clip-path="url(#pb9ad469fac)" style="fill: none; stroke: #cbcbcb"/>
     </g>
     <g id="line2d_18"/>
     <g id="text_10">
      <!-- −2 -->
      <g style="fill: #cccccc" transform="translate(35.740938 170.23964) scale(0.14 -0.14)">
       <use xlink:href="#DejaVuSans-2212"/>
       <use xlink:href="#DejaVuSans-32" transform="translate(83.789062 0)"/>
      </g>
     </g>
    </g>
    <g id="ytick_4">
     <g id="line2d_19">
      <path d="M 59.88 134.329992 
L 414.8775 134.329992 
" clip-path="url(#pb9ad469fac)" style="fill: none; stroke: #cbcbcb"/>
     </g>
     <g id="line2d_20"/>
     <g id="text_11">
      <!-- 0 -->
      <g style="fill: #cccccc" transform="translate(47.4725 139.648898) scale(0.14 -0.14)">
       <use xlink:href="#DejaVuSans-30"/>
      </g>
     </g>
    </g>
    <g id="ytick_5">
     <g id="line2d_21">
      <path d="M 59.88 103.73925 
L 414.8775 103.73925 
" clip-path="url(#pb9ad469fac)" style="fill: none; stroke: #cbcbcb"/>
     </g>
     <g id="line2d_22"/>
     <g id="text_12">
      <!-- 2 -->
      <g style="fill: #cccccc" transform="translate(47.4725 109.058156) scale(0.14 -0.14)">
       <use xlink:href="#DejaVuSans-32"/>
      </g>
     </g>
    </g>
    <g id="ytick_6">
     <g id="line2d_23">
      <path d="M 59.88 73.148509 
L 414.8775 73.148509 
" clip-path="url(#pb9ad469fac)" style="fill: none; stroke: #cbcbcb"/>
     </g>
     <g id="line2d_24"/>
     <g id="text_13">
      <!-- 4 -->
      <g style="fill: #cccccc" transform="translate(47.4725 78.467415) scale(0.14 -0.14)">
       <use xlink:href="#DejaVuSans-34"/>
      </g>
     </g>
    </g>
    <g id="ytick_7">
     <g id="line2d_25">
      <path d="M 59.88 42.557767 
L 414.8775 42.557767 
" clip-path="url(#pb9ad469fac)" style="fill: none; stroke: #cbcbcb"/>
     </g>
     <g id="line2d_26"/>
     <g id="text_14">
      <!-- 6 -->
      <g style="fill: #cccccc" transform="translate(47.4725 47.876673) scale(0.14 -0.14)">
       <use xlink:href="#DejaVuSans-36"/>
      </g>
     </g>
    </g>
    <g id="text_15">
     <!-- Amplitude -->
     <g style="fill: #cccccc" transform="translate(28.247063 179.096063) rotate(-90) scale(0.168 -0.168)">
      <defs>
       <path id="DejaVuSans-41" d="M 2188 4044 
L 1331 1722 
L 3047 1722 
L 2188 4044 
z
M 1831 4666 
L 2547 4666 
L 4325 0 
L 3669 0 
L 3244 1197 
L 1141 1197 
L 716 0 
L 50 0 
L 1831 4666 
z
" transform="scale(0.015625)"/>
       <path id="DejaVuSans-70" d="M 1159 525 
L 1159 -1331 
L 581 -1331 
L 581 3500 
L 1159 3500 
L 1159 2969 
Q 1341 3281 1617 3432 
Q 1894 3584 2278 3584 
Q 2916 3584 3314 3078 
Q 3713 2572 3713 1747 
Q 3713 922 3314 415 
Q 2916 -91 2278 -91 
Q 1894 -91 1617 61 
Q 1341 213 1159 525 
z
M 3116 1747 
Q 3116 2381 2855 2742 
Q 2594 3103 2138 3103 
Q 1681 3103 1420 2742 
Q 1159 2381 1159 1747 
Q 1159 1113 1420 752 
Q 1681 391 2138 391 
Q 2594 391 2855 752 
Q 3116 1113 3116 1747 
z
" transform="scale(0.015625)"/>
       <path id="DejaVuSans-6c" d="M 603 4863 
L 1178 4863 
L 1178 0 
L 603 0 
L 603 4863 
z
" transform="scale(0.015625)"/>
       <path id="DejaVuSans-74" d="M 1172 4494 
L 1172 3500 
L 2356 3500 
L 2356 3053 
L 1172 3053 
L 1172 1153 
Q 1172 725 1289 603 
Q 1406 481 1766 481 
L 2356 481 
L 2356 0 
L 1766 0 
Q 1100 0 847 248 
Q 594 497 594 1153 
L 594 3053 
L 172 3053 
L 172 3500 
L 594 3500 
L 594 4494 
L 1172 4494 
z
" transform="scale(0.015625)"/>
       <path id="DejaVuSans-75" d="M 544 1381 
L 544 3500 
L 1119 3500 
L 1119 1403 
Q 1119 906 1312 657 
Q 1506 409 1894 409 
Q 2359 409 2629 706 
Q 2900 1003 2900 1516 
L 2900 3500 
L 3475 3500 
L 3475 0 
L 2900 0 
L 2900 538 
Q 2691 219 2414 64 
Q 2138 -91 1772 -91 
Q 1169 -91 856 284 
Q 544 659 544 1381 
z
M 1991 3584 
L 1991 3584 
z
" transform="scale(0.015625)"/>
       <path id="DejaVuSans-64" d="M 2906 2969 
L 2906 4863 
L 3481 4863 
L 3481 0 
L 2906 0 
L 2906 525 
Q 2725 213 2448 61 
Q 2172 -91 1784 -91 
Q 1150 -91 751 415 
Q 353 922 353 1747 
Q 353 2572 751 3078 
Q 1150 3584 1784 3584 
Q 2172 3584 2448 3432 
Q 2725 3281 2906 2969 
z
M 947 1747 
Q 947 1113 1208 752 
Q 1469 391 1925 391 
Q 2381 391 2643 752 
Q 2906 1113 2906 1747 
Q 2906 2381 2643 2742 
Q 2381 3103 1925 3103 
Q 1469 3103 1208 2742 
Q 947 2381 947 1747 
z
" transform="scale(0.015625)"/>
      </defs>
      <use xlink:href="#DejaVuSans-41"/>
      <use xlink:href="#DejaVuSans-6d" transform="translate(68.408203 0)"/>
      <use xlink:href="#DejaVuSans-70" transform="translate(165.820312 0)"/>
      <use xlink:href="#DejaVuSans-6c" transform="translate(229.296875 0)"/>
      <use xlink:href="#DejaVuSans-69" transform="translate(257.080078 0)"/>
      <use xlink:href="#DejaVuSans-74" transform="translate(284.863281 0)"/>
      <use xlink:href="#DejaVuSans-75" transform="translate(324.072266 0)"/>
      <use xlink:href="#DejaVuSans-64" transform="translate(387.451172 0)"/>
      <use xlink:href="#DejaVuSans-65" transform="translate(450.927734 0)"/>
     </g>
    </g>
   </g>
   <g id="line2d_27">
    <path d="M 76.01625 120.810519 
L 76.662993 112.062694 
L 77.309737 95.589614 
L 77.95648 131.453814 
L 79.249967 98.895771 
L 79.896711 102.124182 
L 80.543454 135.770644 
L 81.190198 109.590178 
L 81.836941 99.824946 
L 82.483685 85.417798 
L 83.130428 83.03853 
L 83.777172 78.715344 
L 84.423915 79.727261 
L 85.070659 95.701401 
L 85.717402 87.418582 
L 86.364146 107.422804 
L 87.010889 93.682054 
L 87.657633 104.683848 
L 88.304376 109.901352 
L 88.95112 109.547914 
L 89.597863 147.253212 
L 90.244607 78.533833 
L 90.89135 81.185163 
L 91.538094 119.657543 
L 92.831581 156.132374 
L 93.478324 144.289408 
L 94.771811 201.142585 
L 95.418555 174.258345 
L 96.065298 168.69667 
L 96.712042 133.563843 
L 97.358785 120.263123 
L 98.005529 177.636128 
L 98.652272 203.775628 
L 99.299016 185.730532 
L 99.945759 226.00173 
L 100.592503 196.5104 
L 101.239246 209.258518 
L 102.532733 156.310253 
L 103.179476 159.858823 
L 103.82622 124.335373 
L 104.472963 143.034936 
L 105.76645 163.806237 
L 106.413194 152.149042 
L 107.059937 148.131955 
L 107.706681 131.158091 
L 108.353424 124.761435 
L 109.000168 154.710085 
L 109.646911 108.592069 
L 110.293655 95.548414 
L 110.940398 86.376532 
L 111.587142 85.780217 
L 112.233885 120.569804 
L 112.880629 97.835288 
L 113.527372 139.150382 
L 114.174116 117.69139 
L 114.820859 101.423923 
L 115.467603 72.515393 
L 116.114346 58.116614 
L 116.76109 65.012591 
L 117.407833 57.547568 
L 118.054577 108.019193 
L 118.70132 76.082559 
L 119.348064 112.84976 
L 119.994807 110.044937 
L 120.641551 138.053475 
L 121.288294 104.486761 
L 121.935038 101.349991 
L 122.581781 108.916195 
L 123.228525 110.508996 
L 123.875268 132.445609 
L 124.522012 144.739318 
L 125.168755 159.811435 
L 125.815498 161.97305 
L 126.462242 163.188923 
L 127.108985 161.351942 
L 127.755729 159.152168 
L 128.402472 135.977037 
L 129.049216 145.650837 
L 129.695959 141.140767 
L 130.342703 171.066831 
L 130.989446 158.576022 
L 131.63619 201.179094 
L 132.282933 185.068912 
L 132.929677 215.313796 
L 133.57642 219.608196 
L 134.223164 158.288223 
L 135.516651 172.053175 
L 136.163394 169.817263 
L 136.810138 178.665044 
L 137.456881 190.908331 
L 138.103625 187.23721 
L 138.750368 164.218219 
L 139.397112 179.953637 
L 140.043855 136.894129 
L 140.690599 138.431649 
L 141.337342 94.47326 
L 141.984086 95.887889 
L 142.630829 101.62666 
L 143.277573 103.730352 
L 143.924316 133.520653 
L 144.57106 115.33639 
L 145.217803 108.708706 
L 145.864547 145.598165 
L 146.51129 131.437286 
L 147.158034 70.445268 
L 147.804777 58.799132 
L 148.451521 76.758358 
L 149.098264 45.968182 
L 149.745008 67.323447 
L 150.391751 114.847327 
L 151.038494 99.093376 
L 151.685238 106.24063 
L 152.331981 125.972669 
L 152.978725 106.900529 
L 153.625468 100.610389 
L 154.272212 104.505151 
L 154.918955 71.544452 
L 155.565699 106.185512 
L 156.212442 146.887981 
L 156.859186 141.078255 
L 157.505929 134.252298 
L 158.152673 185.606643 
L 158.799416 174.606092 
L 159.44616 137.294377 
L 160.092903 158.591233 
L 160.739647 167.14027 
L 161.38639 171.111019 
L 162.679877 153.43446 
L 163.326621 178.460682 
L 163.973364 183.501185 
L 164.620108 175.039634 
L 165.266851 195.091827 
L 165.913595 187.454128 
L 167.207082 151.708079 
L 167.853825 166.486281 
L 168.500569 162.532962 
L 169.147312 154.263541 
L 169.794056 155.00179 
L 170.440799 143.647372 
L 171.087543 189.001919 
L 171.734286 148.016873 
L 172.38103 136.728004 
L 173.027773 118.96054 
L 173.674517 111.283156 
L 174.32126 128.148105 
L 174.968004 90.525864 
L 175.614747 72.53257 
L 176.26149 114.895747 
L 176.908234 111.162074 
L 177.554977 131.572355 
L 178.201721 95.703378 
L 178.848464 88.733047 
L 179.495208 74.487133 
L 180.141951 74.754244 
L 181.435438 49.961562 
L 182.082182 76.095254 
L 182.728925 94.900558 
L 183.375669 109.379406 
L 184.022412 157.947697 
L 184.669156 91.790899 
L 185.315899 116.320771 
L 185.962643 90.279816 
L 186.609386 120.469586 
L 187.25613 74.419593 
L 187.902873 100.980937 
L 188.549617 114.887073 
L 189.19636 134.691576 
L 189.843104 166.031437 
L 190.489847 148.83096 
L 191.136591 142.906188 
L 191.783334 173.210927 
L 192.430078 155.953563 
L 193.076821 143.569451 
L 193.723565 127.227373 
L 194.370308 175.39126 
L 195.017052 167.606706 
L 195.663795 170.042421 
L 196.310539 209.523259 
L 196.957282 213.885746 
L 197.604026 183.382465 
L 198.250769 189.102742 
L 198.897513 193.814734 
L 199.544256 162.104031 
L 200.190999 136.633323 
L 201.484486 159.463458 
L 202.777973 196.752175 
L 203.424717 185.009357 
L 204.07146 163.538078 
L 204.718204 150.390126 
L 205.364947 149.30686 
L 206.011691 88.48163 
L 206.658434 98.232187 
L 207.305178 86.248741 
L 207.951921 94.175995 
L 208.598665 93.563098 
L 209.245408 123.698294 
L 209.892152 94.218348 
L 210.538895 95.706286 
L 211.185639 104.252183 
L 211.832382 122.42359 
L 212.479126 77.359905 
L 213.125869 57.24489 
L 213.772613 71.812945 
L 214.419356 97.352974 
L 215.0661 90.432868 
L 215.712843 122.741773 
L 216.359587 98.281907 
L 217.00633 127.21669 
L 217.653074 94.666286 
L 218.299817 103.899001 
L 218.946561 118.762484 
L 219.593304 104.692196 
L 220.240048 114.004807 
L 220.886791 111.716324 
L 221.533535 168.531076 
L 222.180278 147.754392 
L 222.827022 171.317679 
L 223.473765 186.166673 
L 224.120509 160.960238 
L 224.767252 165.10377 
L 225.413995 140.349054 
L 226.707482 161.124191 
L 227.354226 185.758406 
L 228.000969 171.798937 
L 228.647713 194.565619 
L 229.294456 204.571828 
L 229.9412 206.442289 
L 230.587943 177.099442 
L 231.234687 182.04559 
L 231.88143 172.551752 
L 232.528174 158.150718 
L 233.174917 165.638497 
L 233.821661 136.855228 
L 234.468404 160.627679 
L 235.115148 174.276514 
L 235.761891 168.127715 
L 236.408635 159.337595 
L 237.055378 122.374019 
L 237.702122 108.197293 
L 238.995609 69.632928 
L 239.642352 99.228045 
L 240.935839 129.834633 
L 241.582583 132.218929 
L 242.229326 130.388414 
L 242.87607 102.238707 
L 243.522813 116.026589 
L 244.169557 86.575547 
L 244.8163 84.589099 
L 245.463044 89.518674 
L 246.109787 55.415173 
L 246.756531 69.104605 
L 247.403274 123.740416 
L 248.050018 117.588649 
L 248.696761 102.072234 
L 249.343505 124.367297 
L 249.990248 97.607366 
L 250.636991 113.33962 
L 251.283735 63.645779 
L 251.930478 108.042703 
L 252.577222 101.794567 
L 253.870709 161.190133 
L 254.517452 154.706801 
L 255.164196 156.38867 
L 255.810939 176.292414 
L 256.457683 181.394978 
L 257.104426 158.440301 
L 257.75117 142.918848 
L 259.044657 160.536752 
L 259.6914 176.917134 
L 260.338144 186.582205 
L 260.984887 209.965135 
L 261.631631 198.18316 
L 262.278374 212.345872 
L 262.925118 189.758536 
L 263.571861 186.416019 
L 264.218605 143.445679 
L 264.865348 134.33657 
L 265.512092 127.513139 
L 266.158835 163.088376 
L 266.805579 168.764117 
L 267.452322 180.002522 
L 268.099066 172.757719 
L 268.745809 156.904568 
L 269.392553 144.6401 
L 270.039296 106.790099 
L 270.68604 75.590494 
L 271.332783 79.232796 
L 271.979527 94.638936 
L 272.62627 72.433332 
L 273.273014 106.822615 
L 273.919757 113.319095 
L 274.566501 97.143188 
L 275.213244 89.034969 
L 275.859987 112.870136 
L 276.506731 104.582544 
L 277.153474 53.815363 
L 277.800218 79.317462 
L 278.446961 60.233386 
L 279.093705 61.458478 
L 279.740448 82.355586 
L 281.033935 111.668573 
L 281.680679 113.07715 
L 282.327422 104.136308 
L 282.974166 84.753472 
L 283.620909 95.279938 
L 284.267653 80.98895 
L 284.914396 114.049972 
L 285.56114 114.991699 
L 286.207883 125.775566 
L 286.854627 168.871052 
L 287.50137 158.068623 
L 288.148114 173.587038 
L 290.735088 159.244519 
L 291.381831 161.424137 
L 292.028575 184.136682 
L 292.675318 187.034379 
L 293.322062 209.900537 
L 293.968805 200.395976 
L 294.615549 175.026177 
L 295.262292 207.719503 
L 295.909036 147.930787 
L 296.555779 160.01936 
L 297.849266 133.548412 
L 298.49601 140.743267 
L 299.142753 159.572834 
L 299.789496 202.695046 
L 300.43624 171.854472 
L 301.082983 149.891092 
L 301.729727 152.245756 
L 303.023214 75.164562 
L 303.669957 99.234186 
L 304.316701 91.61587 
L 304.963444 120.607427 
L 305.610188 130.274371 
L 306.256931 99.892275 
L 306.903675 134.81777 
L 307.550418 104.691895 
L 308.197162 109.03378 
L 308.843905 89.215102 
L 310.137392 55.999647 
L 310.784136 97.154117 
L 311.430879 65.126892 
L 312.077623 78.835156 
L 312.724366 130.147313 
L 313.37111 141.724249 
L 314.017853 149.821316 
L 314.664597 89.499935 
L 315.31134 97.670531 
L 315.958084 108.594387 
L 316.604827 78.874558 
L 317.251571 100.958666 
L 317.898314 114.87476 
L 318.545058 135.634903 
L 319.838545 186.999463 
L 320.485288 186.297557 
L 321.132032 149.522381 
L 321.778775 167.552266 
L 323.072262 170.21191 
L 323.719006 163.977926 
L 324.365749 174.456815 
L 325.012492 172.600215 
L 325.659236 222.29575 
L 326.305979 187.486041 
L 326.952723 198.392542 
L 327.599466 147.981234 
L 328.24621 163.166929 
L 328.892953 144.571405 
L 330.18644 150.796971 
L 330.833184 160.269846 
L 331.479927 182.713087 
L 332.126671 165.839686 
L 332.773414 144.228749 
L 333.420158 163.190867 
L 334.066901 157.198548 
L 334.713645 122.222212 
L 336.007132 91.442821 
L 336.653875 103.883078 
L 337.300619 112.707514 
L 337.947362 85.173136 
L 338.594106 110.584064 
L 339.240849 100.774422 
L 339.887593 106.562663 
L 340.534336 73.144461 
L 341.18108 90.679434 
L 341.827823 75.725019 
L 342.474567 92.29054 
L 343.12131 75.732753 
L 343.768054 69.127774 
L 344.414797 123.645601 
L 345.061541 139.12356 
L 345.708284 112.46638 
L 346.355028 146.773372 
L 347.001771 102.110678 
L 347.648515 111.43094 
L 348.295258 108.662795 
L 348.942002 101.246573 
L 349.588745 110.586916 
L 350.882232 159.107052 
L 351.528975 177.75043 
L 352.175719 144.601233 
L 352.822462 188.80533 
L 354.115949 152.951725 
L 354.762693 140.908311 
L 356.05618 148.475172 
L 356.702923 185.952925 
L 357.349667 191.068602 
L 357.99641 226.131818 
L 358.643154 199.23518 
L 359.289897 204.33149 
L 359.936641 161.571084 
L 360.583384 157.377297 
L 361.230128 162.71762 
L 361.876871 139.669078 
L 362.523615 146.969103 
L 363.170358 161.337273 
L 363.817102 169.380623 
L 364.463845 195.38435 
L 365.110589 181.952029 
L 365.757332 149.690114 
L 366.404076 143.908751 
L 367.050819 118.487816 
L 367.697563 72.727824 
L 368.344306 90.180076 
L 368.99105 113.685194 
L 369.637793 103.402683 
L 370.284537 96.493819 
L 370.93128 130.966162 
L 371.578024 131.746442 
L 372.224767 102.28222 
L 372.871511 88.355094 
L 373.518254 92.774575 
L 374.164997 81.671649 
L 374.811741 78.69509 
L 375.458484 79.190241 
L 376.105228 89.074736 
L 376.751971 122.975967 
L 377.398715 115.545474 
L 378.045458 122.458756 
L 378.692202 120.873931 
L 379.338945 105.805002 
L 379.985689 122.667465 
L 380.632432 75.741348 
L 381.279176 89.278333 
L 381.925919 92.120057 
L 382.572663 132.600752 
L 383.219406 159.542108 
L 383.86615 157.424544 
L 384.512893 194.804382 
L 385.159637 173.489573 
L 385.80638 170.720656 
L 386.453124 123.404051 
L 387.099867 133.32759 
L 387.746611 157.622898 
L 388.393354 173.087477 
L 389.040098 194.212025 
L 389.686841 185.835811 
L 390.333585 213.470339 
L 390.980328 217.808221 
L 391.627072 206.230841 
L 392.273815 153.300571 
L 392.920559 160.854586 
L 393.567302 134.384271 
L 394.214046 153.020642 
L 394.860789 132.454476 
L 395.507533 161.248945 
L 396.154276 171.416962 
L 396.80102 200.013521 
L 397.447763 152.194757 
L 398.094507 135.716062 
L 398.74125 135.261708 
L 398.74125 135.261708 
" clip-path="url(#pb9ad469fac)" style="fill: none; stroke: #9b59b6"/>
   </g>
   <g id="patch_3">
    <path d="M 59.88 235.14 
L 59.88 36.96 
" style="fill: none; stroke: #cccccc; stroke-width: 3; stroke-linejoin: miter; stroke-linecap: square"/>
   </g>
   <g id="patch_4">
    <path d="M 414.8775 235.14 
L 414.8775 36.96 
" style="fill: none; stroke: #cccccc; stroke-width: 3; stroke-linejoin: miter; stroke-linecap: square"/>
   </g>
   <g id="patch_5">
    <path d="M 59.88 235.14 
L 414.8775 235.14 
" style="fill: none; stroke: #cccccc; stroke-width: 3; stroke-linejoin: miter; stroke-linecap: square"/>
   </g>
   <g id="patch_6">
    <path d="M 59.88 36.96 
L 414.8775 36.96 
" style="fill: none; stroke: #cccccc; stroke-width: 3; stroke-linejoin: miter; stroke-linecap: square"/>
   </g>
   <g id="text_16">
    <!-- Complex Noisy Signal -->
    <g style="fill: #cccccc" transform="translate(128.0643 30.96) scale(0.2016 -0.2016)">
     <defs>
      <path id="DejaVuSans-43" d="M 4122 4306 
L 4122 3641 
Q 3803 3938 3442 4084 
Q 3081 4231 2675 4231 
Q 1875 4231 1450 3742 
Q 1025 3253 1025 2328 
Q 1025 1406 1450 917 
Q 1875 428 2675 428 
Q 3081 428 3442 575 
Q 3803 722 4122 1019 
L 4122 359 
Q 3791 134 3420 21 
Q 3050 -91 2638 -91 
Q 1578 -91 968 557 
Q 359 1206 359 2328 
Q 359 3453 968 4101 
Q 1578 4750 2638 4750 
Q 3056 4750 3426 4639 
Q 3797 4528 4122 4306 
z
" transform="scale(0.015625)"/>
      <path id="DejaVuSans-6f" d="M 1959 3097 
Q 1497 3097 1228 2736 
Q 959 2375 959 1747 
Q 959 1119 1226 758 
Q 1494 397 1959 397 
Q 2419 397 2687 759 
Q 2956 1122 2956 1747 
Q 2956 2369 2687 2733 
Q 2419 3097 1959 3097 
z
M 1959 3584 
Q 2709 3584 3137 3096 
Q 3566 2609 3566 1747 
Q 3566 888 3137 398 
Q 2709 -91 1959 -91 
Q 1206 -91 779 398 
Q 353 888 353 1747 
Q 353 2609 779 3096 
Q 1206 3584 1959 3584 
z
" transform="scale(0.015625)"/>
      <path id="DejaVuSans-78" d="M 3513 3500 
L 2247 1797 
L 3578 0 
L 2900 0 
L 1881 1375 
L 863 0 
L 184 0 
L 1544 1831 
L 300 3500 
L 978 3500 
L 1906 2253 
L 2834 3500 
L 3513 3500 
z
" transform="scale(0.015625)"/>
      <path id="DejaVuSans-4e" d="M 628 4666 
L 1478 4666 
L 3547 763 
L 3547 4666 
L 4159 4666 
L 4159 0 
L 3309 0 
L 1241 3903 
L 1241 0 
L 628 0 
L 628 4666 
z
" transform="scale(0.015625)"/>
      <path id="DejaVuSans-79" d="M 2059 -325 
Q 1816 -950 1584 -1140 
Q 1353 -1331 966 -1331 
L 506 -1331 
L 506 -850 
L 844 -850 
Q 1081 -850 1212 -737 
Q 1344 -625 1503 -206 
L 1606 56 
L 191 3500 
L 800 3500 
L 1894 763 
L 2988 3500 
L 3597 3500 
L 2059 -325 
z
" transform="scale(0.015625)"/>
      <path id="DejaVuSans-53" d="M 3425 4513 
L 3425 3897 
Q 3066 4069 2747 4153 
Q 2428 4238 2131 4238 
Q 1616 4238 1336 4038 
Q 1056 3838 1056 3469 
Q 1056 3159 1242 3001 
Q 1428 2844 1947 2747 
L 2328 2669 
Q 3034 2534 3370 2195 
Q 3706 1856 3706 1288 
Q 3706 609 3251 259 
Q 2797 -91 1919 -91 
Q 1588 -91 1214 -16 
Q 841 59 441 206 
L 441 856 
Q 825 641 1194 531 
Q 1563 422 1919 422 
Q 2459 422 2753 634 
Q 3047 847 3047 1241 
Q 3047 1584 2836 1778 
Q 2625 1972 2144 2069 
L 1759 2144 
Q 1053 2284 737 2584 
Q 422 2884 422 3419 
Q 422 4038 858 4394 
Q 1294 4750 2059 4750 
Q 2388 4750 2728 4690 
Q 3069 4631 3425 4513 
z
" transform="scale(0.015625)"/>
      <path id="DejaVuSans-67" d="M 2906 1791 
Q 2906 2416 2648 2759 
Q 2391 3103 1925 3103 
Q 1463 3103 1205 2759 
Q 947 2416 947 1791 
Q 947 1169 1205 825 
Q 1463 481 1925 481 
Q 2391 481 2648 825 
Q 2906 1169 2906 1791 
z
M 3481 434 
Q 3481 -459 3084 -895 
Q 2688 -1331 1869 -1331 
Q 1566 -1331 1297 -1286 
Q 1028 -1241 775 -1147 
L 775 -588 
Q 1028 -725 1275 -790 
Q 1522 -856 1778 -856 
Q 2344 -856 2625 -561 
Q 2906 -266 2906 331 
L 2906 616 
Q 2728 306 2450 153 
Q 2172 0 1784 0 
Q 1141 0 747 490 
Q 353 981 353 1791 
Q 353 2603 747 3093 
Q 1141 3584 1784 3584 
Q 2172 3584 2450 3431 
Q 2728 3278 2906 2969 
L 2906 3500 
L 3481 3500 
L 3481 434 
z
" transform="scale(0.015625)"/>
      <path id="DejaVuSans-6e" d="M 3513 2113 
L 3513 0 
L 2938 0 
L 2938 2094 
Q 2938 2591 2744 2837 
Q 2550 3084 2163 3084 
Q 1697 3084 1428 2787 
Q 1159 2491 1159 1978 
L 1159 0 
L 581 0 
L 581 3500 
L 1159 3500 
L 1159 2956 
Q 1366 3272 1645 3428 
Q 1925 3584 2291 3584 
Q 2894 3584 3203 3211 
Q 3513 2838 3513 2113 
z
" transform="scale(0.015625)"/>
      <path id="DejaVuSans-61" d="M 2194 1759 
Q 1497 1759 1228 1600 
Q 959 1441 959 1056 
Q 959 750 1161 570 
Q 1363 391 1709 391 
Q 2188 391 2477 730 
Q 2766 1069 2766 1631 
L 2766 1759 
L 2194 1759 
z
M 3341 1997 
L 3341 0 
L 2766 0 
L 2766 531 
Q 2569 213 2275 61 
Q 1981 -91 1556 -91 
Q 1019 -91 701 211 
Q 384 513 384 1019 
Q 384 1609 779 1909 
Q 1175 2209 1959 2209 
L 2766 2209 
L 2766 2266 
Q 2766 2663 2505 2880 
Q 2244 3097 1772 3097 
Q 1472 3097 1187 3025 
Q 903 2953 641 2809 
L 641 3341 
Q 956 3463 1253 3523 
Q 1550 3584 1831 3584 
Q 2591 3584 2966 3190 
Q 3341 2797 3341 1997 
z
" transform="scale(0.015625)"/>
     </defs>
     <use xlink:href="#DejaVuSans-43"/>
     <use xlink:href="#DejaVuSans-6f" transform="translate(69.824219 0)"/>
     <use xlink:href="#DejaVuSans-6d" transform="translate(131.005859 0)"/>
     <use xlink:href="#DejaVuSans-70" transform="translate(228.417969 0)"/>
     <use xlink:href="#DejaVuSans-6c" transform="translate(291.894531 0)"/>
     <use xlink:href="#DejaVuSans-65" transform="translate(319.677734 0)"/>
     <use xlink:href="#DejaVuSans-78" transform="translate(379.451172 0)"/>
     <use xlink:href="#DejaVuSans-20" transform="translate(438.630859 0)"/>
     <use xlink:href="#DejaVuSans-4e" transform="translate(470.417969 0)"/>
     <use xlink:href="#DejaVuSans-6f" transform="translate(545.222656 0)"/>
     <use xlink:href="#DejaVuSans-69" transform="translate(606.404297 0)"/>
     <use xlink:href="#DejaVuSans-73" transform="translate(634.1875 0)"/>
     <use xlink:href="#DejaVuSans-79" transform="translate(686.287109 0)"/>
     <use xlink:href="#DejaVuSans-20" transform="translate(745.466797 0)"/>
     <use xlink:href="#DejaVuSans-53" transform="translate(777.253906 0)"/>
     <use xlink:href="#DejaVuSans-69" transform="translate(840.730469 0)"/>
     <use xlink:href="#DejaVuSans-67" transform="translate(868.513672 0)"/>
     <use xlink:href="#DejaVuSans-6e" transform="translate(931.990234 0)"/>
     <use xlink:href="#DejaVuSans-61" transform="translate(995.369141 0)"/>
     <use xlink:href="#DejaVuSans-6c" transform="translate(1056.648438 0)"/>
    </g>
   </g>
  </g>
  <g id="axes_2">
   <g id="patch_7">
    <path d="M 480.6075 235.14 
L 835.605 235.14 
L 835.605 36.96 
L 480.6075 36.96 
L 480.6075 235.14 
z
" style="fill: none"/>
   </g>
   <g id="matplotlib.axis_3">
    <g id="xtick_7">
     <g id="line2d_28">
      <path d="M 480.6075 235.14 
L 480.6075 36.96 
" clip-path="url(#pc2daf2cf7b)" style="fill: none; stroke: #cbcbcb"/>
     </g>
     <g id="line2d_29"/>
     <g id="text_17">
      <!-- 0 -->
      <g style="fill: #cccccc" transform="translate(476.15375 249.277813) scale(0.14 -0.14)">
       <use xlink:href="#DejaVuSans-30"/>
      </g>
     </g>
    </g>
    <g id="xtick_8">
     <g id="line2d_30">
      <path d="M 551.607 235.14 
L 551.607 36.96 
" clip-path="url(#pc2daf2cf7b)" style="fill: none; stroke: #cbcbcb"/>
     </g>
     <g id="line2d_31"/>
     <g id="text_18">
      <!-- 20 -->
      <g style="fill: #cccccc" transform="translate(542.6995 249.277813) scale(0.14 -0.14)">
       <use xlink:href="#DejaVuSans-32"/>
       <use xlink:href="#DejaVuSans-30" transform="translate(63.623047 0)"/>
      </g>
     </g>
    </g>
    <g id="xtick_9">
     <g id="line2d_32">
      <path d="M 622.6065 235.14 
L 622.6065 36.96 
" clip-path="url(#pc2daf2cf7b)" style="fill: none; stroke: #cbcbcb"/>
     </g>
     <g id="line2d_33"/>
     <g id="text_19">
      <!-- 40 -->
      <g style="fill: #cccccc" transform="translate(613.699 249.277813) scale(0.14 -0.14)">
       <use xlink:href="#DejaVuSans-34"/>
       <use xlink:href="#DejaVuSans-30" transform="translate(63.623047 0)"/>
      </g>
     </g>
    </g>
    <g id="xtick_10">
     <g id="line2d_34">
      <path d="M 693.606 235.14 
L 693.606 36.96 
" clip-path="url(#pc2daf2cf7b)" style="fill: none; stroke: #cbcbcb"/>
     </g>
     <g id="line2d_35"/>
     <g id="text_20">
      <!-- 60 -->
      <g style="fill: #cccccc" transform="translate(684.6985 249.277813) scale(0.14 -0.14)">
       <use xlink:href="#DejaVuSans-36"/>
       <use xlink:href="#DejaVuSans-30" transform="translate(63.623047 0)"/>
      </g>
     </g>
    </g>
    <g id="xtick_11">
     <g id="line2d_36">
      <path d="M 764.6055 235.14 
L 764.6055 36.96 
" clip-path="url(#pc2daf2cf7b)" style="fill: none; stroke: #cbcbcb"/>
     </g>
     <g id="line2d_37"/>
     <g id="text_21">
      <!-- 80 -->
      <g style="fill: #cccccc" transform="translate(755.698 249.277813) scale(0.14 -0.14)">
       <use xlink:href="#DejaVuSans-38"/>
       <use xlink:href="#DejaVuSans-30" transform="translate(63.623047 0)"/>
      </g>
     </g>
    </g>
    <g id="xtick_12">
     <g id="line2d_38">
      <path d="M 835.605 235.14 
L 835.605 36.96 
" clip-path="url(#pc2daf2cf7b)" style="fill: none; stroke: #cbcbcb"/>
     </g>
     <g id="line2d_39"/>
     <g id="text_22">
      <!-- 100 -->
      <g style="fill: #cccccc" transform="translate(822.24375 249.277813) scale(0.14 -0.14)">
       <use xlink:href="#DejaVuSans-31"/>
       <use xlink:href="#DejaVuSans-30" transform="translate(63.623047 0)"/>
       <use xlink:href="#DejaVuSans-30" transform="translate(127.246094 0)"/>
      </g>
     </g>
    </g>
    <g id="text_23">
     <!-- Frequency (Hz) -->
     <g style="fill: #cccccc" transform="translate(594.762375 268.95475) scale(0.168 -0.168)">
      <defs>
       <path id="DejaVuSans-46" d="M 628 4666 
L 3309 4666 
L 3309 4134 
L 1259 4134 
L 1259 2759 
L 3109 2759 
L 3109 2228 
L 1259 2228 
L 1259 0 
L 628 0 
L 628 4666 
z
" transform="scale(0.015625)"/>
       <path id="DejaVuSans-72" d="M 2631 2963 
Q 2534 3019 2420 3045 
Q 2306 3072 2169 3072 
Q 1681 3072 1420 2755 
Q 1159 2438 1159 1844 
L 1159 0 
L 581 0 
L 581 3500 
L 1159 3500 
L 1159 2956 
Q 1341 3275 1631 3429 
Q 1922 3584 2338 3584 
Q 2397 3584 2469 3576 
Q 2541 3569 2628 3553 
L 2631 2963 
z
" transform="scale(0.015625)"/>
       <path id="DejaVuSans-71" d="M 947 1747 
Q 947 1113 1208 752 
Q 1469 391 1925 391 
Q 2381 391 2643 752 
Q 2906 1113 2906 1747 
Q 2906 2381 2643 2742 
Q 2381 3103 1925 3103 
Q 1469 3103 1208 2742 
Q 947 2381 947 1747 
z
M 2906 525 
Q 2725 213 2448 61 
Q 2172 -91 1784 -91 
Q 1150 -91 751 415 
Q 353 922 353 1747 
Q 353 2572 751 3078 
Q 1150 3584 1784 3584 
Q 2172 3584 2448 3432 
Q 2725 3281 2906 2969 
L 2906 3500 
L 3481 3500 
L 3481 -1331 
L 2906 -1331 
L 2906 525 
z
" transform="scale(0.015625)"/>
       <path id="DejaVuSans-63" d="M 3122 3366 
L 3122 2828 
Q 2878 2963 2633 3030 
Q 2388 3097 2138 3097 
Q 1578 3097 1268 2742 
Q 959 2388 959 1747 
Q 959 1106 1268 751 
Q 1578 397 2138 397 
Q 2388 397 2633 464 
Q 2878 531 3122 666 
L 3122 134 
Q 2881 22 2623 -34 
Q 2366 -91 2075 -91 
Q 1284 -91 818 406 
Q 353 903 353 1747 
Q 353 2603 823 3093 
Q 1294 3584 2113 3584 
Q 2378 3584 2631 3529 
Q 2884 3475 3122 3366 
z
" transform="scale(0.015625)"/>
       <path id="DejaVuSans-48" d="M 628 4666 
L 1259 4666 
L 1259 2753 
L 3553 2753 
L 3553 4666 
L 4184 4666 
L 4184 0 
L 3553 0 
L 3553 2222 
L 1259 2222 
L 1259 0 
L 628 0 
L 628 4666 
z
" transform="scale(0.015625)"/>
       <path id="DejaVuSans-7a" d="M 353 3500 
L 3084 3500 
L 3084 2975 
L 922 459 
L 3084 459 
L 3084 0 
L 275 0 
L 275 525 
L 2438 3041 
L 353 3041 
L 353 3500 
z
" transform="scale(0.015625)"/>
      </defs>
      <use xlink:href="#DejaVuSans-46"/>
      <use xlink:href="#DejaVuSans-72" transform="translate(50.269531 0)"/>
      <use xlink:href="#DejaVuSans-65" transform="translate(89.132812 0)"/>
      <use xlink:href="#DejaVuSans-71" transform="translate(150.65625 0)"/>
      <use xlink:href="#DejaVuSans-75" transform="translate(214.132812 0)"/>
      <use xlink:href="#DejaVuSans-65" transform="translate(277.511719 0)"/>
      <use xlink:href="#DejaVuSans-6e" transform="translate(339.035156 0)"/>
      <use xlink:href="#DejaVuSans-63" transform="translate(402.414062 0)"/>
      <use xlink:href="#DejaVuSans-79" transform="translate(457.394531 0)"/>
      <use xlink:href="#DejaVuSans-20" transform="translate(516.574219 0)"/>
      <use xlink:href="#DejaVuSans-28" transform="translate(548.361328 0)"/>
      <use xlink:href="#DejaVuSans-48" transform="translate(587.375 0)"/>
      <use xlink:href="#DejaVuSans-7a" transform="translate(662.570312 0)"/>
      <use xlink:href="#DejaVuSans-29" transform="translate(715.060547 0)"/>
     </g>
    </g>
   </g>
   <g id="matplotlib.axis_4">
    <g id="ytick_8">
     <g id="line2d_40">
      <path d="M 480.6075 226.433582 
L 835.605 226.433582 
" clip-path="url(#pc2daf2cf7b)" style="fill: none; stroke: #cbcbcb"/>
     </g>
     <g id="line2d_41"/>
     <g id="text_24">
      <!-- 0 -->
      <g style="fill: #cccccc" transform="translate(468.2 231.752488) scale(0.14 -0.14)">
       <use xlink:href="#DejaVuSans-30"/>
      </g>
     </g>
    </g>
    <g id="ytick_9">
     <g id="line2d_42">
      <path d="M 480.6075 178.837013 
L 835.605 178.837013 
" clip-path="url(#pc2daf2cf7b)" style="fill: none; stroke: #cbcbcb"/>
     </g>
     <g id="line2d_43"/>
     <g id="text_25">
      <!-- 200 -->
      <g style="fill: #cccccc" transform="translate(450.385 184.155919) scale(0.14 -0.14)">
       <use xlink:href="#DejaVuSans-32"/>
       <use xlink:href="#DejaVuSans-30" transform="translate(63.623047 0)"/>
       <use xlink:href="#DejaVuSans-30" transform="translate(127.246094 0)"/>
      </g>
     </g>
    </g>
    <g id="ytick_10">
     <g id="line2d_44">
      <path d="M 480.6075 131.240443 
L 835.605 131.240443 
" clip-path="url(#pc2daf2cf7b)" style="fill: none; stroke: #cbcbcb"/>
     </g>
     <g id="line2d_45"/>
     <g id="text_26">
      <!-- 400 -->
      <g style="fill: #cccccc" transform="translate(450.385 136.559349) scale(0.14 -0.14)">
       <use xlink:href="#DejaVuSans-34"/>
       <use xlink:href="#DejaVuSans-30" transform="translate(63.623047 0)"/>
       <use xlink:href="#DejaVuSans-30" transform="translate(127.246094 0)"/>
      </g>
     </g>
    </g>
    <g id="ytick_11">
     <g id="line2d_46">
      <path d="M 480.6075 83.643873 
L 835.605 83.643873 
" clip-path="url(#pc2daf2cf7b)" style="fill: none; stroke: #cbcbcb"/>
     </g>
     <g id="line2d_47"/>
     <g id="text_27">
      <!-- 600 -->
      <g style="fill: #cccccc" transform="translate(450.385 88.96278) scale(0.14 -0.14)">
       <use xlink:href="#DejaVuSans-36"/>
       <use xlink:href="#DejaVuSans-30" transform="translate(63.623047 0)"/>
       <use xlink:href="#DejaVuSans-30" transform="translate(127.246094 0)"/>
      </g>
     </g>
    </g>
    <g id="text_28">
     <!-- Magnitude -->
     <g style="fill: #cccccc" transform="translate(442.891125 180.552938) rotate(-90) scale(0.168 -0.168)">
      <defs>
       <path id="DejaVuSans-4d" d="M 628 4666 
L 1569 4666 
L 2759 1491 
L 3956 4666 
L 4897 4666 
L 4897 0 
L 4281 0 
L 4281 4097 
L 3078 897 
L 2444 897 
L 1241 4097 
L 1241 0 
L 628 0 
L 628 4666 
z
" transform="scale(0.015625)"/>
      </defs>
      <use xlink:href="#DejaVuSans-4d"/>
      <use xlink:href="#DejaVuSans-61" transform="translate(86.279297 0)"/>
      <use xlink:href="#DejaVuSans-67" transform="translate(147.558594 0)"/>
      <use xlink:href="#DejaVuSans-6e" transform="translate(211.035156 0)"/>
      <use xlink:href="#DejaVuSans-69" transform="translate(274.414062 0)"/>
      <use xlink:href="#DejaVuSans-74" transform="translate(302.197266 0)"/>
      <use xlink:href="#DejaVuSans-75" transform="translate(341.40625 0)"/>
      <use xlink:href="#DejaVuSans-64" transform="translate(404.785156 0)"/>
      <use xlink:href="#DejaVuSans-65" transform="translate(468.261719 0)"/>
     </g>
    </g>
   </g>
   <g id="line2d_48">
    <path d="M 480.6075 224.667002 
L 484.150375 222.452916 
L 487.69325 222.739849 
L 491.236125 219.258901 
L 494.779 219.975015 
L 498.321875 225.351873 
L 501.86475 219.057351 
L 505.407625 223.829941 
L 508.9505 221.189368 
L 512.493375 222.659075 
L 516.03625 45.968182 
L 519.579126 216.187955 
L 523.122001 224.249114 
L 526.664876 224.474547 
L 530.207751 226.131818 
L 533.750626 220.146626 
L 537.293501 219.807894 
L 540.836376 222.808205 
L 544.379251 223.404553 
L 547.922126 223.786697 
L 551.465001 220.047775 
L 555.007876 220.687625 
L 558.550751 216.865073 
L 562.093626 221.66943 
L 565.636501 221.112375 
L 569.179376 222.890707 
L 572.722251 221.853314 
L 576.265126 218.73117 
L 579.808001 220.050867 
L 583.350876 216.306852 
L 586.893751 221.830354 
L 590.436627 222.656091 
L 593.979502 220.124973 
L 597.522377 221.478974 
L 601.065252 222.245929 
L 604.608127 221.123847 
L 608.151002 223.305408 
L 611.693877 223.884757 
L 615.236752 221.974469 
L 618.779627 222.745062 
L 622.322502 220.799854 
L 625.865377 225.387956 
L 629.408252 219.622977 
L 632.951127 224.624373 
L 636.494002 214.580776 
L 640.036877 221.938483 
L 643.579752 223.795936 
L 647.122627 217.664188 
L 650.665502 218.090089 
L 654.208377 219.882889 
L 657.751252 141.015692 
L 661.294128 216.313144 
L 664.837003 219.00517 
L 668.379878 218.404505 
L 671.922753 215.882745 
L 675.465628 218.35409 
L 679.008503 225.17471 
L 682.551378 223.569347 
L 686.094253 218.620725 
L 689.637128 221.015778 
L 693.180003 220.283482 
L 696.722878 216.490306 
L 700.265753 221.312439 
L 703.808628 222.857955 
L 707.351503 225.747398 
L 710.894378 225.869817 
L 714.437253 219.846259 
L 717.980128 222.664281 
L 721.523003 221.644695 
L 725.065878 218.326543 
L 728.608753 219.72417 
L 732.151629 221.754866 
L 735.694504 223.309201 
L 739.237379 223.002492 
L 742.780254 223.322705 
L 746.323129 221.354353 
L 749.866004 224.778523 
L 753.408879 222.295367 
L 756.951754 223.921475 
L 760.494629 217.968289 
L 764.037504 222.40093 
L 767.580379 219.941006 
L 771.123254 221.525816 
L 774.666129 224.574976 
L 778.209004 222.285126 
L 781.751879 223.549092 
L 785.294754 221.513469 
L 788.837629 223.71946 
L 792.380504 222.746537 
L 795.923379 220.874789 
L 799.466254 224.826278 
L 803.00913 222.129563 
L 810.09488 224.224482 
L 813.637755 219.996487 
L 817.18063 218.614316 
L 820.723505 223.445357 
L 824.26638 223.837002 
L 827.809255 224.472539 
L 831.35213 223.536308 
L 834.895005 221.13731 
L 838.43788 224.89102 
L 841.980755 216.976613 
L 845.52363 218.442489 
L 849.066505 217.223853 
L 852.60938 222.769106 
L 856.152255 219.541008 
L 859.69513 221.008957 
L 865 222.116844 
L 865 222.116844 
" clip-path="url(#pc2daf2cf7b)" style="fill: none; stroke: #f1c40f; stroke-width: 2"/>
   </g>
   <g id="patch_8">
    <path d="M 480.6075 235.14 
L 480.6075 36.96 
" style="fill: none; stroke: #cccccc; stroke-width: 3; stroke-linejoin: miter; stroke-linecap: square"/>
   </g>
   <g id="patch_9">
    <path d="M 835.605 235.14 
L 835.605 36.96 
" style="fill: none; stroke: #cccccc; stroke-width: 3; stroke-linejoin: miter; stroke-linecap: square"/>
   </g>
   <g id="patch_10">
    <path d="M 480.6075 235.14 
L 835.605 235.14 
" style="fill: none; stroke: #cccccc; stroke-width: 3; stroke-linejoin: miter; stroke-linecap: square"/>
   </g>
   <g id="patch_11">
    <path d="M 480.6075 36.96 
L 835.605 36.96 
" style="fill: none; stroke: #cccccc; stroke-width: 3; stroke-linejoin: miter; stroke-linecap: square"/>
   </g>
   <g id="text_29">
    <!-- Frequency Spectrum (FFT) -->
    <g style="fill: #cccccc" transform="translate(525.34005 30.96) scale(0.2016 -0.2016)">
     <use xlink:href="#DejaVuSans-46"/>
     <use xlink:href="#DejaVuSans-72" transform="translate(50.269531 0)"/>
     <use xlink:href="#DejaVuSans-65" transform="translate(89.132812 0)"/>
     <use xlink:href="#DejaVuSans-71" transform="translate(150.65625 0)"/>
     <use xlink:href="#DejaVuSans-75" transform="translate(214.132812 0)"/>
     <use xlink:href="#DejaVuSans-65" transform="translate(277.511719 0)"/>
     <use xlink:href="#DejaVuSans-6e" transform="translate(339.035156 0)"/>
     <use xlink:href="#DejaVuSans-63" transform="translate(402.414062 0)"/>
     <use xlink:href="#DejaVuSans-79" transform="translate(457.394531 0)"/>
     <use xlink:href="#DejaVuSans-20" transform="translate(516.574219 0)"/>
     <use xlink:href="#DejaVuSans-53" transform="translate(548.361328 0)"/>
     <use xlink:href="#DejaVuSans-70" transform="translate(611.837891 0)"/>
     <use xlink:href="#DejaVuSans-65" transform="translate(675.314453 0)"/>
     <use xlink:href="#DejaVuSans-63" transform="translate(736.837891 0)"/>
     <use xlink:href="#DejaVuSans-74" transform="translate(791.818359 0)"/>
     <use xlink:href="#DejaVuSans-72" transform="translate(831.027344 0)"/>
     <use xlink:href="#DejaVuSans-75" transform="translate(872.140625 0)"/>
     <use xlink:href="#DejaVuSans-6d" transform="translate(935.519531 0)"/>
     <use xlink:href="#DejaVuSans-20" transform="translate(1032.931641 0)"/>
     <use xlink:href="#DejaVuSans-28" transform="translate(1064.71875 0)"/>
     <use xlink:href="#DejaVuSans-46" transform="translate(1103.732422 0)"/>
     <use xlink:href="#DejaVuSans-46" transform="translate(1161.251953 0)"/>
     <use xlink:href="#DejaVuSans-54" transform="translate(1217.021484 0)"/>
     <use xlink:href="#DejaVuSans-29" transform="translate(1278.105469 0)"/>
    </g>
   </g>
  </g>
 </g>
 <defs>
  <clipPath id="pb9ad469fac">
   <rect x="59.88" y="36.96" width="354.9975" height="198.18"/>
  </clipPath>
  <clipPath id="pc2daf2cf7b">
   <rect x="480.6075" y="36.96" width="354.9975" height="198.18"/>
  </clipPath>
 </defs>
</svg>
