<?xml version="1.0" encoding="utf-8" standalone="no"?>
<!DOCTYPE svg PUBLIC "-//W3C//DTD SVG 1.1//EN"
  "http://www.w3.org/Graphics/SVG/1.1/DTD/svg11.dtd">
<svg xmlns:xlink="http://www.w3.org/1999/xlink" width="432pt" height="360pt" viewBox="0 0 432 360" xmlns="http://www.w3.org/2000/svg" version="1.1">
 <metadata>
  <rdf:RDF xmlns:dc="http://purl.org/dc/elements/1.1/" xmlns:cc="http://creativecommons.org/ns#" xmlns:rdf="http://www.w3.org/1999/02/22-rdf-syntax-ns#">
   <cc:Work>
    <dc:type rdf:resource="http://purl.org/dc/dcmitype/StillImage"/>
    <dc:date>2026-03-22T16:19:37.291338</dc:date>
    <dc:format>image/svg+xml</dc:format>
    <dc:creator>
     <cc:Agent>
      <dc:title>Matplotlib v3.10.8, https://matplotlib.org/</dc:title>
     </cc:Agent>
    </dc:creator>
   </cc:Work>
  </rdf:RDF>
 </metadata>
 <defs>
  <style type="text/css">*{stroke-linejoin: round; stroke-linecap: butt}</style>
 </defs>
 <g id="figure_1">
  <g id="patch_1">
   <path d="M 0 360 
L 432 360 
L 432 0 
L 0 0 
L 0 360 
z
" style="fill: none"/>
  </g>
  <g id="axes_1">
   <g id="line2d_1">
    <path d="M 33.381818 252.247153 
L 35.217177 257.184247 
L 37.052535 243.852368 
L 38.887894 229.386996 
L 40.723253 248.807599 
L 42.558611 245.658143 
L 44.39397 219.224544 
L 46.229328 226.605611 
L 48.064687 239.51099 
L 49.900046 223.552229 
L 51.735404 233.621675 
L 53.570763 230.85939 
L 55.406122 219.049728 
L 57.24148 244.157455 
L 59.076839 239.218589 
L 60.912197 221.852964 
L 62.747556 225.34837 
L 64.582915 206.095541 
L 66.418273 219.756887 
L 68.253632 224.310506 
L 70.08899 185.491734 
L 71.924349 205.584939 
L 73.759708 200.290268 
L 75.595066 218.108247 
L 77.430425 205.556036 
L 79.265783 196.050414 
L 81.101142 211.359999 
L 82.936501 190.957064 
L 84.771859 202.908703 
L 86.607218 198.488242 
L 88.442577 202.190627 
L 90.277935 170.502357 
L 92.113294 194.540579 
L 93.948652 208.17349 
L 95.784011 184.351336 
L 97.61937 211.158997 
L 99.454728 193.452493 
L 101.290087 222.187163 
L 103.125445 215.061475 
L 104.960804 196.59522 
L 106.796163 190.929004 
L 108.631521 199.670759 
L 110.46688 204.953185 
L 112.302238 209.06854 
L 114.137597 226.078217 
L 115.972956 218.314524 
L 117.808314 217.100609 
L 119.643673 199.817991 
L 121.479032 211.349814 
L 123.31439 240.909704 
L 125.149749 216.627888 
L 126.985107 228.409679 
L 128.820466 234.912307 
L 130.655825 221.167982 
L 132.491183 218.679685 
L 134.326542 222.935115 
L 136.1619 248.741292 
L 137.997259 245.008838 
L 141.667976 234.778492 
L 143.503335 256.684661 
L 145.338693 256.124157 
L 147.174052 271.193902 
L 149.009411 275.581415 
L 150.844769 252.971106 
L 152.680128 249.192923 
L 154.515487 270.759488 
L 156.350845 260.092037 
L 158.186204 271.479378 
L 160.021562 287.515651 
L 161.856921 277.603695 
L 163.69228 265.443829 
L 165.527638 288.595957 
L 167.362997 270.842866 
L 169.198355 327.417522 
L 171.033714 285.811557 
L 172.869073 297.831743 
L 174.704431 305.263596 
L 176.53979 302.595341 
L 178.375148 331.585455 
L 180.210507 310.969902 
L 182.045866 305.55038 
L 183.881224 293.003504 
L 185.716583 320.414464 
L 187.551942 325.743139 
L 189.3873 323.250081 
L 191.222659 306.327066 
L 193.058017 315.028495 
L 194.893376 327.073757 
L 196.728735 314.50436 
L 198.564093 320.535165 
L 200.399452 309.787644 
L 202.23481 331.296988 
L 204.070169 325.200201 
L 205.905528 320.960555 
L 207.740886 320.536725 
L 211.411603 214.158047 
L 213.246962 148.997774 
L 215.082321 90.990223 
L 216.917679 80.780616 
L 218.753038 91.395637 
L 220.588397 149.501204 
L 222.423755 221.892088 
L 224.259114 264.783587 
L 226.094472 286.675678 
L 227.929831 279.903424 
L 229.76519 305.10476 
L 231.600548 303.469698 
L 233.435907 305.910785 
L 235.271265 327.416229 
L 237.106624 300.669401 
L 238.941983 297.041239 
L 240.777341 263.520513 
L 242.6127 294.975327 
L 244.448058 285.833166 
L 246.283417 287.290812 
L 248.118776 298.937975 
L 249.954134 266.203049 
L 251.789493 268.17217 
L 253.624852 264.561946 
L 255.46021 283.28612 
L 257.295569 250.364378 
L 259.130927 283.234598 
L 260.966286 254.432377 
L 262.801645 230.575293 
L 264.637003 268.261065 
L 266.472362 259.58141 
L 268.30772 247.808689 
L 270.143079 252.383918 
L 271.978438 262.703138 
L 273.813796 238.764943 
L 275.649155 250.248538 
L 277.484513 227.485817 
L 279.319872 242.460328 
L 281.155231 207.824643 
L 282.990589 235.041015 
L 284.825948 226.398898 
L 286.661307 209.174135 
L 288.496665 232.950965 
L 290.332024 211.778071 
L 292.167382 195.586475 
L 294.002741 230.889533 
L 295.8381 205.773032 
L 297.673458 202.867699 
L 299.508817 194.349032 
L 301.344175 218.647926 
L 303.179534 218.195018 
L 305.014893 193.114607 
L 306.850251 194.774604 
L 308.68561 194.290629 
L 310.520968 192.128702 
L 312.356327 204.560984 
L 314.191686 192.214135 
L 316.027044 190.979577 
L 317.862403 203.646884 
L 319.697762 170.330346 
L 321.53312 188.268001 
L 323.368479 209.88197 
L 325.203837 186.470842 
L 327.039196 207.971395 
L 328.874555 185.98807 
L 330.709913 182.045149 
L 332.545272 208.495655 
L 334.38063 186.692424 
L 336.215989 195.069683 
L 338.051348 191.247366 
L 339.886706 179.008902 
L 341.722065 208.288337 
L 343.557423 216.687213 
L 345.392782 220.424189 
L 347.228141 221.591997 
L 349.063499 214.326015 
L 350.898858 211.296346 
L 352.734217 214.584172 
L 354.569575 210.064214 
L 356.404934 223.193524 
L 358.240292 207.410004 
L 360.075651 232.338577 
L 361.91101 196.848255 
L 363.746368 226.75988 
L 365.581727 248.863796 
L 367.417085 254.696192 
L 369.252444 237.843491 
L 371.087803 250.088503 
L 372.923161 241.223674 
L 374.75852 247.534886 
L 376.593878 257.785812 
L 378.429237 270.972656 
L 380.264596 282.79354 
L 382.099954 272.267876 
L 383.935313 258.704927 
L 385.770672 270.13492 
L 387.60603 292.044607 
L 389.441389 276.881642 
L 391.276747 277.189579 
L 393.112106 296.491947 
L 394.947465 286.056128 
L 396.782823 290.120895 
L 398.618182 308.326182 
L 398.618182 308.326182 
" clip-path="url(#pc6e2cc3fa6)" style="fill: none; stroke: #f1c40f; stroke-width: 4"/>
   </g>
   <g id="line2d_2">
    <path d="M 15.12 65.694545 
L 416.88 65.694545 
" clip-path="url(#pc6e2cc3fa6)" style="fill: none; stroke-dasharray: 14.8,6.4; stroke-dashoffset: 0; stroke: #808080; stroke-width: 4"/>
   </g>
   <g id="text_1">
    <!-- Ex 3: Probability of Danger ($y \in [0, 1]$) -->
    <g style="fill: #cccccc" transform="translate(24.8832 32.4) scale(0.2016 -0.2016)">
     <defs>
      <path id="DejaVuSans-45" d="M 628 4666 
L 3578 4666 
L 3578 4134 
L 1259 4134 
L 1259 2753 
L 3481 2753 
L 3481 2222 
L 1259 2222 
L 1259 531 
L 3634 531 
L 3634 0 
L 628 0 
L 628 4666 
z
" transform="scale(0.015625)"/>
      <path id="DejaVuSans-78" d="M 3513 3500 
L 2247 1797 
L 3578 0 
L 2900 0 
L 1881 1375 
L 863 0 
L 184 0 
L 1544 1831 
L 300 3500 
L 978 3500 
L 1906 2253 
L 2834 3500 
L 3513 3500 
z
" transform="scale(0.015625)"/>
      <path id="DejaVuSans-20" transform="scale(0.015625)"/>
      <path id="DejaVuSans-33" d="M 2597 2516 
Q 3050 2419 3304 2112 
Q 3559 1806 3559 1356 
Q 3559 666 3084 287 
Q 2609 -91 1734 -91 
Q 1441 -91 1130 -33 
Q 819 25 488 141 
L 488 750 
Q 750 597 1062 519 
Q 1375 441 1716 441 
Q 2309 441 2620 675 
Q 2931 909 2931 1356 
Q 2931 1769 2642 2001 
Q 2353 2234 1838 2234 
L 1294 2234 
L 1294 2753 
L 1863 2753 
Q 2328 2753 2575 2939 
Q 2822 3125 2822 3475 
Q 2822 3834 2567 4026 
Q 2313 4219 1838 4219 
Q 1578 4219 1281 4162 
Q 984 4106 628 3988 
L 628 4550 
Q 988 4650 1302 4700 
Q 1616 4750 1894 4750 
Q 2613 4750 3031 4423 
Q 3450 4097 3450 3541 
Q 3450 3153 3228 2886 
Q 3006 2619 2597 2516 
z
" transform="scale(0.015625)"/>
      <path id="DejaVuSans-3a" d="M 750 794 
L 1409 794 
L 1409 0 
L 750 0 
L 750 794 
z
M 750 3309 
L 1409 3309 
L 1409 2516 
L 750 2516 
L 750 3309 
z
" transform="scale(0.015625)"/>
      <path id="DejaVuSans-50" d="M 1259 4147 
L 1259 2394 
L 2053 2394 
Q 2494 2394 2734 2622 
Q 2975 2850 2975 3272 
Q 2975 3691 2734 3919 
Q 2494 4147 2053 4147 
L 1259 4147 
z
M 628 4666 
L 2053 4666 
Q 2838 4666 3239 4311 
Q 3641 3956 3641 3272 
Q 3641 2581 3239 2228 
Q 2838 1875 2053 1875 
L 1259 1875 
L 1259 0 
L 628 0 
L 628 4666 
z
" transform="scale(0.015625)"/>
      <path id="DejaVuSans-72" d="M 2631 2963 
Q 2534 3019 2420 3045 
Q 2306 3072 2169 3072 
Q 1681 3072 1420 2755 
Q 1159 2438 1159 1844 
L 1159 0 
L 581 0 
L 581 3500 
L 1159 3500 
L 1159 2956 
Q 1341 3275 1631 3429 
Q 1922 3584 2338 3584 
Q 2397 3584 2469 3576 
Q 2541 3569 2628 3553 
L 2631 2963 
z
" transform="scale(0.015625)"/>
      <path id="DejaVuSans-6f" d="M 1959 3097 
Q 1497 3097 1228 2736 
Q 959 2375 959 1747 
Q 959 1119 1226 758 
Q 1494 397 1959 397 
Q 2419 397 2687 759 
Q 2956 1122 2956 1747 
Q 2956 2369 2687 2733 
Q 2419 3097 1959 3097 
z
M 1959 3584 
Q 2709 3584 3137 3096 
Q 3566 2609 3566 1747 
Q 3566 888 3137 398 
Q 2709 -91 1959 -91 
Q 1206 -91 779 398 
Q 353 888 353 1747 
Q 353 2609 779 3096 
Q 1206 3584 1959 3584 
z
" transform="scale(0.015625)"/>
      <path id="DejaVuSans-62" d="M 3116 1747 
Q 3116 2381 2855 2742 
Q 2594 3103 2138 3103 
Q 1681 3103 1420 2742 
Q 1159 2381 1159 1747 
Q 1159 1113 1420 752 
Q 1681 391 2138 391 
Q 2594 391 2855 752 
Q 3116 1113 3116 1747 
z
M 1159 2969 
Q 1341 3281 1617 3432 
Q 1894 3584 2278 3584 
Q 2916 3584 3314 3078 
Q 3713 2572 3713 1747 
Q 3713 922 3314 415 
Q 2916 -91 2278 -91 
Q 1894 -91 1617 61 
Q 1341 213 1159 525 
L 1159 0 
L 581 0 
L 581 4863 
L 1159 4863 
L 1159 2969 
z
" transform="scale(0.015625)"/>
      <path id="DejaVuSans-61" d="M 2194 1759 
Q 1497 1759 1228 1600 
Q 959 1441 959 1056 
Q 959 750 1161 570 
Q 1363 391 1709 391 
Q 2188 391 2477 730 
Q 2766 1069 2766 1631 
L 2766 1759 
L 2194 1759 
z
M 3341 1997 
L 3341 0 
L 2766 0 
L 2766 531 
Q 2569 213 2275 61 
Q 1981 -91 1556 -91 
Q 1019 -91 701 211 
Q 384 513 384 1019 
Q 384 1609 779 1909 
Q 1175 2209 1959 2209 
L 2766 2209 
L 2766 2266 
Q 2766 2663 2505 2880 
Q 2244 3097 1772 3097 
Q 1472 3097 1187 3025 
Q 903 2953 641 2809 
L 641 3341 
Q 956 3463 1253 3523 
Q 1550 3584 1831 3584 
Q 2591 3584 2966 3190 
Q 3341 2797 3341 1997 
z
" transform="scale(0.015625)"/>
      <path id="DejaVuSans-69" d="M 603 3500 
L 1178 3500 
L 1178 0 
L 603 0 
L 603 3500 
z
M 603 4863 
L 1178 4863 
L 1178 4134 
L 603 4134 
L 603 4863 
z
" transform="scale(0.015625)"/>
      <path id="DejaVuSans-6c" d="M 603 4863 
L 1178 4863 
L 1178 0 
L 603 0 
L 603 4863 
z
" transform="scale(0.015625)"/>
      <path id="DejaVuSans-74" d="M 1172 4494 
L 1172 3500 
L 2356 3500 
L 2356 3053 
L 1172 3053 
L 1172 1153 
Q 1172 725 1289 603 
Q 1406 481 1766 481 
L 2356 481 
L 2356 0 
L 1766 0 
Q 1100 0 847 248 
Q 594 497 594 1153 
L 594 3053 
L 172 3053 
L 172 3500 
L 594 3500 
L 594 4494 
L 1172 4494 
z
" transform="scale(0.015625)"/>
      <path id="DejaVuSans-79" d="M 2059 -325 
Q 1816 -950 1584 -1140 
Q 1353 -1331 966 -1331 
L 506 -1331 
L 506 -850 
L 844 -850 
Q 1081 -850 1212 -737 
Q 1344 -625 1503 -206 
L 1606 56 
L 191 3500 
L 800 3500 
L 1894 763 
L 2988 3500 
L 3597 3500 
L 2059 -325 
z
" transform="scale(0.015625)"/>
      <path id="DejaVuSans-66" d="M 2375 4863 
L 2375 4384 
L 1825 4384 
Q 1516 4384 1395 4259 
Q 1275 4134 1275 3809 
L 1275 3500 
L 2222 3500 
L 2222 3053 
L 1275 3053 
L 1275 0 
L 697 0 
L 697 3053 
L 147 3053 
L 147 3500 
L 697 3500 
L 697 3744 
Q 697 4328 969 4595 
Q 1241 4863 1831 4863 
L 2375 4863 
z
" transform="scale(0.015625)"/>
      <path id="DejaVuSans-44" d="M 1259 4147 
L 1259 519 
L 2022 519 
Q 2988 519 3436 956 
Q 3884 1394 3884 2338 
Q 3884 3275 3436 3711 
Q 2988 4147 2022 4147 
L 1259 4147 
z
M 628 4666 
L 1925 4666 
Q 3281 4666 3915 4102 
Q 4550 3538 4550 2338 
Q 4550 1131 3912 565 
Q 3275 0 1925 0 
L 628 0 
L 628 4666 
z
" transform="scale(0.015625)"/>
      <path id="DejaVuSans-6e" d="M 3513 2113 
L 3513 0 
L 2938 0 
L 2938 2094 
Q 2938 2591 2744 2837 
Q 2550 3084 2163 3084 
Q 1697 3084 1428 2787 
Q 1159 2491 1159 1978 
L 1159 0 
L 581 0 
L 581 3500 
L 1159 3500 
L 1159 2956 
Q 1366 3272 1645 3428 
Q 1925 3584 2291 3584 
Q 2894 3584 3203 3211 
Q 3513 2838 3513 2113 
z
" transform="scale(0.015625)"/>
      <path id="DejaVuSans-67" d="M 2906 1791 
Q 2906 2416 2648 2759 
Q 2391 3103 1925 3103 
Q 1463 3103 1205 2759 
Q 947 2416 947 1791 
Q 947 1169 1205 825 
Q 1463 481 1925 481 
Q 2391 481 2648 825 
Q 2906 1169 2906 1791 
z
M 3481 434 
Q 3481 -459 3084 -895 
Q 2688 -1331 1869 -1331 
Q 1566 -1331 1297 -1286 
Q 1028 -1241 775 -1147 
L 775 -588 
Q 1028 -725 1275 -790 
Q 1522 -856 1778 -856 
Q 2344 -856 2625 -561 
Q 2906 -266 2906 331 
L 2906 616 
Q 2728 306 2450 153 
Q 2172 0 1784 0 
Q 1141 0 747 490 
Q 353 981 353 1791 
Q 353 2603 747 3093 
Q 1141 3584 1784 3584 
Q 2172 3584 2450 3431 
Q 2728 3278 2906 2969 
L 2906 3500 
L 3481 3500 
L 3481 434 
z
" transform="scale(0.015625)"/>
      <path id="DejaVuSans-65" d="M 3597 1894 
L 3597 1613 
L 953 1613 
Q 991 1019 1311 708 
Q 1631 397 2203 397 
Q 2534 397 2845 478 
Q 3156 559 3463 722 
L 3463 178 
Q 3153 47 2828 -22 
Q 2503 -91 2169 -91 
Q 1331 -91 842 396 
Q 353 884 353 1716 
Q 353 2575 817 3079 
Q 1281 3584 2069 3584 
Q 2775 3584 3186 3129 
Q 3597 2675 3597 1894 
z
M 3022 2063 
Q 3016 2534 2758 2815 
Q 2500 3097 2075 3097 
Q 1594 3097 1305 2825 
Q 1016 2553 972 2059 
L 3022 2063 
z
" transform="scale(0.015625)"/>
      <path id="DejaVuSans-28" d="M 1984 4856 
Q 1566 4138 1362 3434 
Q 1159 2731 1159 2009 
Q 1159 1288 1364 580 
Q 1569 -128 1984 -844 
L 1484 -844 
Q 1016 -109 783 600 
Q 550 1309 550 2009 
Q 550 2706 781 3412 
Q 1013 4119 1484 4856 
L 1984 4856 
z
" transform="scale(0.015625)"/>
      <path id="DejaVuSans-Oblique-79" d="M 1588 -325 
Q 1188 -997 936 -1164 
Q 684 -1331 294 -1331 
L -159 -1331 
L -63 -850 
L 269 -850 
Q 509 -850 678 -719 
Q 847 -588 1056 -206 
L 1234 128 
L 459 3500 
L 1069 3500 
L 1650 819 
L 3256 3500 
L 3859 3500 
L 1588 -325 
z
" transform="scale(0.015625)"/>
      <path id="DejaVuSans-2208" d="M 1072 1959 
Q 1094 1728 1291 1353 
Q 1522 919 1959 675 
Q 2388 438 2850 434 
L 5028 434 
L 5028 -63 
L 2850 -63 
Q 2250 -63 1695 246 
Q 1141 556 844 1106 
Q 547 1656 547 2241 
Q 547 2819 844 3369 
Q 1141 3919 1695 4231 
Q 2250 4544 2850 4544 
L 5028 4544 
L 5028 4047 
L 2850 4047 
Q 2388 4044 1959 3803 
Q 1525 3556 1291 3125 
Q 1091 2750 1063 2459 
L 5028 2459 
L 5028 1959 
L 1072 1959 
z
" transform="scale(0.015625)"/>
      <path id="DejaVuSans-5b" d="M 550 4863 
L 1875 4863 
L 1875 4416 
L 1125 4416 
L 1125 -397 
L 1875 -397 
L 1875 -844 
L 550 -844 
L 550 4863 
z
" transform="scale(0.015625)"/>
      <path id="DejaVuSans-30" d="M 2034 4250 
Q 1547 4250 1301 3770 
Q 1056 3291 1056 2328 
Q 1056 1369 1301 889 
Q 1547 409 2034 409 
Q 2525 409 2770 889 
Q 3016 1369 3016 2328 
Q 3016 3291 2770 3770 
Q 2525 4250 2034 4250 
z
M 2034 4750 
Q 2819 4750 3233 4129 
Q 3647 3509 3647 2328 
Q 3647 1150 3233 529 
Q 2819 -91 2034 -91 
Q 1250 -91 836 529 
Q 422 1150 422 2328 
Q 422 3509 836 4129 
Q 1250 4750 2034 4750 
z
" transform="scale(0.015625)"/>
      <path id="DejaVuSans-2c" d="M 750 794 
L 1409 794 
L 1409 256 
L 897 -744 
L 494 -744 
L 750 256 
L 750 794 
z
" transform="scale(0.015625)"/>
      <path id="DejaVuSans-31" d="M 794 531 
L 1825 531 
L 1825 4091 
L 703 3866 
L 703 4441 
L 1819 4666 
L 2450 4666 
L 2450 531 
L 3481 531 
L 3481 0 
L 794 0 
L 794 531 
z
" transform="scale(0.015625)"/>
      <path id="DejaVuSans-5d" d="M 1947 4863 
L 1947 -844 
L 622 -844 
L 622 -397 
L 1369 -397 
L 1369 4416 
L 622 4416 
L 622 4863 
L 1947 4863 
z
" transform="scale(0.015625)"/>
      <path id="DejaVuSans-29" d="M 513 4856 
L 1013 4856 
Q 1481 4119 1714 3412 
Q 1947 2706 1947 2009 
Q 1947 1309 1714 600 
Q 1481 -109 1013 -844 
L 513 -844 
Q 928 -128 1133 580 
Q 1338 1288 1338 2009 
Q 1338 2731 1133 3434 
Q 928 4138 513 4856 
z
" transform="scale(0.015625)"/>
     </defs>
     <use xlink:href="#DejaVuSans-45" transform="translate(0 0.015625)"/>
     <use xlink:href="#DejaVuSans-78" transform="translate(63.183594 0.015625)"/>
     <use xlink:href="#DejaVuSans-20" transform="translate(122.363281 0.015625)"/>
     <use xlink:href="#DejaVuSans-33" transform="translate(154.150391 0.015625)"/>
     <use xlink:href="#DejaVuSans-3a" transform="translate(217.773438 0.015625)"/>
     <use xlink:href="#DejaVuSans-20" transform="translate(251.464844 0.015625)"/>
     <use xlink:href="#DejaVuSans-50" transform="translate(283.251953 0.015625)"/>
     <use xlink:href="#DejaVuSans-72" transform="translate(343.554688 0.015625)"/>
     <use xlink:href="#DejaVuSans-6f" transform="translate(384.667969 0.015625)"/>
     <use xlink:href="#DejaVuSans-62" transform="translate(445.849609 0.015625)"/>
     <use xlink:href="#DejaVuSans-61" transform="translate(509.326172 0.015625)"/>
     <use xlink:href="#DejaVuSans-62" transform="translate(570.605469 0.015625)"/>
     <use xlink:href="#DejaVuSans-69" transform="translate(634.082031 0.015625)"/>
     <use xlink:href="#DejaVuSans-6c" transform="translate(661.865234 0.015625)"/>
     <use xlink:href="#DejaVuSans-69" transform="translate(689.648438 0.015625)"/>
     <use xlink:href="#DejaVuSans-74" transform="translate(717.431641 0.015625)"/>
     <use xlink:href="#DejaVuSans-79" transform="translate(756.640625 0.015625)"/>
     <use xlink:href="#DejaVuSans-20" transform="translate(815.820312 0.015625)"/>
     <use xlink:href="#DejaVuSans-6f" transform="translate(847.607422 0.015625)"/>
     <use xlink:href="#DejaVuSans-66" transform="translate(908.789062 0.015625)"/>
     <use xlink:href="#DejaVuSans-20" transform="translate(943.994141 0.015625)"/>
     <use xlink:href="#DejaVuSans-44" transform="translate(975.78125 0.015625)"/>
     <use xlink:href="#DejaVuSans-61" transform="translate(1052.783203 0.015625)"/>
     <use xlink:href="#DejaVuSans-6e" transform="translate(1114.0625 0.015625)"/>
     <use xlink:href="#DejaVuSans-67" transform="translate(1177.441406 0.015625)"/>
     <use xlink:href="#DejaVuSans-65" transform="translate(1240.917969 0.015625)"/>
     <use xlink:href="#DejaVuSans-72" transform="translate(1302.441406 0.015625)"/>
     <use xlink:href="#DejaVuSans-20" transform="translate(1343.554688 0.015625)"/>
     <use xlink:href="#DejaVuSans-28" transform="translate(1375.341797 0.015625)"/>
     <use xlink:href="#DejaVuSans-Oblique-79" transform="translate(1414.355469 0.015625)"/>
     <use xlink:href="#DejaVuSans-2208" transform="translate(1493.017578 0.015625)"/>
     <use xlink:href="#DejaVuSans-5b" transform="translate(1599.609375 0.015625)"/>
     <use xlink:href="#DejaVuSans-30" transform="translate(1638.623047 0.015625)"/>
     <use xlink:href="#DejaVuSans-2c" transform="translate(1702.246094 0.015625)"/>
     <use xlink:href="#DejaVuSans-31" transform="translate(1753.515625 0.015625)"/>
     <use xlink:href="#DejaVuSans-5d" transform="translate(1817.138672 0.015625)"/>
     <use xlink:href="#DejaVuSans-29" transform="translate(1856.152344 0.015625)"/>
    </g>
   </g>
  </g>
 </g>
 <defs>
  <clipPath id="pc6e2cc3fa6">
   <rect x="15.12" y="52.4" width="401.76" height="292.48"/>
  </clipPath>
 </defs>
</svg>
