<?xml version="1.0" encoding="utf-8" standalone="no"?>
<!DOCTYPE svg PUBLIC "-//W3C//DTD SVG 1.1//EN"
  "http://www.w3.org/Graphics/SVG/1.1/DTD/svg11.dtd">
<svg xmlns:xlink="http://www.w3.org/1999/xlink" width="576pt" height="288pt" viewBox="0 0 576 288" xmlns="http://www.w3.org/2000/svg" version="1.1">
 <metadata>
  <rdf:RDF xmlns:dc="http://purl.org/dc/elements/1.1/" xmlns:cc="http://creativecommons.org/ns#" xmlns:rdf="http://www.w3.org/1999/02/22-rdf-syntax-ns#">
   <cc:Work>
    <dc:type rdf:resource="http://purl.org/dc/dcmitype/StillImage"/>
    <dc:date>2026-03-22T16:19:35.120946</dc:date>
    <dc:format>image/svg+xml</dc:format>
    <dc:creator>
     <cc:Agent>
      <dc:title>Matplotlib v3.10.8, https://matplotlib.org/</dc:title>
     </cc:Agent>
    </dc:creator>
   </cc:Work>
  </rdf:RDF>
 </metadata>
 <defs>
  <style type="text/css">*{stroke-linejoin: round; stroke-linecap: butt}</style>
 </defs>
 <g id="figure_1">
  <g id="patch_1">
   <path d="M 0 288 
L 576 288 
L 576 0 
L 0 0 
L 0 288 
z
" style="fill: none"/>
  </g>
  <g id="axes_1">
   <g id="patch_2">
    <path d="M 61.59 235.14 
L 560.88 235.14 
L 560.88 36.96 
L 61.59 36.96 
L 61.59 235.14 
z
" style="fill: none"/>
   </g>
   <g id="matplotlib.axis_1">
    <g id="xtick_1">
     <g id="line2d_1">
      <path d="M 84.285 235.14 
L 84.285 36.96 
" clip-path="url(#pef413b6aed)" style="fill: none; stroke: #cbcbcb"/>
     </g>
     <g id="line2d_2"/>
     <g id="text_1">
      <!-- 0 -->
      <g style="fill: #cccccc" transform="translate(79.83125 249.277813) scale(0.14 -0.14)">
       <defs>
        <path id="DejaVuSans-30" d="M 2034 4250 
Q 1547 4250 1301 3770 
Q 1056 3291 1056 2328 
Q 1056 1369 1301 889 
Q 1547 409 2034 409 
Q 2525 409 2770 889 
Q 3016 1369 3016 2328 
Q 3016 3291 2770 3770 
Q 2525 4250 2034 4250 
z
M 2034 4750 
Q 2819 4750 3233 4129 
Q 3647 3509 3647 2328 
Q 3647 1150 3233 529 
Q 2819 -91 2034 -91 
Q 1250 -91 836 529 
Q 422 1150 422 2328 
Q 422 3509 836 4129 
Q 1250 4750 2034 4750 
z
" transform="scale(0.015625)"/>
       </defs>
       <use xlink:href="#DejaVuSans-30"/>
      </g>
     </g>
    </g>
    <g id="xtick_2">
     <g id="line2d_3">
      <path d="M 161.217203 235.14 
L 161.217203 36.96 
" clip-path="url(#pef413b6aed)" style="fill: none; stroke: #cbcbcb"/>
     </g>
     <g id="line2d_4"/>
     <g id="text_2">
      <!-- 10 -->
      <g style="fill: #cccccc" transform="translate(152.309703 249.277813) scale(0.14 -0.14)">
       <defs>
        <path id="DejaVuSans-31" d="M 794 531 
L 1825 531 
L 1825 4091 
L 703 3866 
L 703 4441 
L 1819 4666 
L 2450 4666 
L 2450 531 
L 3481 531 
L 3481 0 
L 794 0 
L 794 531 
z
" transform="scale(0.015625)"/>
       </defs>
       <use xlink:href="#DejaVuSans-31"/>
       <use xlink:href="#DejaVuSans-30" transform="translate(63.623047 0)"/>
      </g>
     </g>
    </g>
    <g id="xtick_3">
     <g id="line2d_5">
      <path d="M 238.149407 235.14 
L 238.149407 36.96 
" clip-path="url(#pef413b6aed)" style="fill: none; stroke: #cbcbcb"/>
     </g>
     <g id="line2d_6"/>
     <g id="text_3">
      <!-- 20 -->
      <g style="fill: #cccccc" transform="translate(229.241907 249.277813) scale(0.14 -0.14)">
       <defs>
        <path id="DejaVuSans-32" d="M 1228 531 
L 3431 531 
L 3431 0 
L 469 0 
L 469 531 
Q 828 903 1448 1529 
Q 2069 2156 2228 2338 
Q 2531 2678 2651 2914 
Q 2772 3150 2772 3378 
Q 2772 3750 2511 3984 
Q 2250 4219 1831 4219 
Q 1534 4219 1204 4116 
Q 875 4013 500 3803 
L 500 4441 
Q 881 4594 1212 4672 
Q 1544 4750 1819 4750 
Q 2544 4750 2975 4387 
Q 3406 4025 3406 3419 
Q 3406 3131 3298 2873 
Q 3191 2616 2906 2266 
Q 2828 2175 2409 1742 
Q 1991 1309 1228 531 
z
" transform="scale(0.015625)"/>
       </defs>
       <use xlink:href="#DejaVuSans-32"/>
       <use xlink:href="#DejaVuSans-30" transform="translate(63.623047 0)"/>
      </g>
     </g>
    </g>
    <g id="xtick_4">
     <g id="line2d_7">
      <path d="M 315.08161 235.14 
L 315.08161 36.96 
" clip-path="url(#pef413b6aed)" style="fill: none; stroke: #cbcbcb"/>
     </g>
     <g id="line2d_8"/>
     <g id="text_4">
      <!-- 30 -->
      <g style="fill: #cccccc" transform="translate(306.17411 249.277813) scale(0.14 -0.14)">
       <defs>
        <path id="DejaVuSans-33" d="M 2597 2516 
Q 3050 2419 3304 2112 
Q 3559 1806 3559 1356 
Q 3559 666 3084 287 
Q 2609 -91 1734 -91 
Q 1441 -91 1130 -33 
Q 819 25 488 141 
L 488 750 
Q 750 597 1062 519 
Q 1375 441 1716 441 
Q 2309 441 2620 675 
Q 2931 909 2931 1356 
Q 2931 1769 2642 2001 
Q 2353 2234 1838 2234 
L 1294 2234 
L 1294 2753 
L 1863 2753 
Q 2328 2753 2575 2939 
Q 2822 3125 2822 3475 
Q 2822 3834 2567 4026 
Q 2313 4219 1838 4219 
Q 1578 4219 1281 4162 
Q 984 4106 628 3988 
L 628 4550 
Q 988 4650 1302 4700 
Q 1616 4750 1894 4750 
Q 2613 4750 3031 4423 
Q 3450 4097 3450 3541 
Q 3450 3153 3228 2886 
Q 3006 2619 2597 2516 
z
" transform="scale(0.015625)"/>
       </defs>
       <use xlink:href="#DejaVuSans-33"/>
       <use xlink:href="#DejaVuSans-30" transform="translate(63.623047 0)"/>
      </g>
     </g>
    </g>
    <g id="xtick_5">
     <g id="line2d_9">
      <path d="M 392.013814 235.14 
L 392.013814 36.96 
" clip-path="url(#pef413b6aed)" style="fill: none; stroke: #cbcbcb"/>
     </g>
     <g id="line2d_10"/>
     <g id="text_5">
      <!-- 40 -->
      <g style="fill: #cccccc" transform="translate(383.106314 249.277813) scale(0.14 -0.14)">
       <defs>
        <path id="DejaVuSans-34" d="M 2419 4116 
L 825 1625 
L 2419 1625 
L 2419 4116 
z
M 2253 4666 
L 3047 4666 
L 3047 1625 
L 3713 1625 
L 3713 1100 
L 3047 1100 
L 3047 0 
L 2419 0 
L 2419 1100 
L 313 1100 
L 313 1709 
L 2253 4666 
z
" transform="scale(0.015625)"/>
       </defs>
       <use xlink:href="#DejaVuSans-34"/>
       <use xlink:href="#DejaVuSans-30" transform="translate(63.623047 0)"/>
      </g>
     </g>
    </g>
    <g id="xtick_6">
     <g id="line2d_11">
      <path d="M 468.946017 235.14 
L 468.946017 36.96 
" clip-path="url(#pef413b6aed)" style="fill: none; stroke: #cbcbcb"/>
     </g>
     <g id="line2d_12"/>
     <g id="text_6">
      <!-- 50 -->
      <g style="fill: #cccccc" transform="translate(460.038517 249.277813) scale(0.14 -0.14)">
       <defs>
        <path id="DejaVuSans-35" d="M 691 4666 
L 3169 4666 
L 3169 4134 
L 1269 4134 
L 1269 2991 
Q 1406 3038 1543 3061 
Q 1681 3084 1819 3084 
Q 2600 3084 3056 2656 
Q 3513 2228 3513 1497 
Q 3513 744 3044 326 
Q 2575 -91 1722 -91 
Q 1428 -91 1123 -41 
Q 819 9 494 109 
L 494 744 
Q 775 591 1075 516 
Q 1375 441 1709 441 
Q 2250 441 2565 725 
Q 2881 1009 2881 1497 
Q 2881 1984 2565 2268 
Q 2250 2553 1709 2553 
Q 1456 2553 1204 2497 
Q 953 2441 691 2322 
L 691 4666 
z
" transform="scale(0.015625)"/>
       </defs>
       <use xlink:href="#DejaVuSans-35"/>
       <use xlink:href="#DejaVuSans-30" transform="translate(63.623047 0)"/>
      </g>
     </g>
    </g>
    <g id="xtick_7">
     <g id="line2d_13">
      <path d="M 545.87822 235.14 
L 545.87822 36.96 
" clip-path="url(#pef413b6aed)" style="fill: none; stroke: #cbcbcb"/>
     </g>
     <g id="line2d_14"/>
     <g id="text_7">
      <!-- 60 -->
      <g style="fill: #cccccc" transform="translate(536.97072 249.277813) scale(0.14 -0.14)">
       <defs>
        <path id="DejaVuSans-36" d="M 2113 2584 
Q 1688 2584 1439 2293 
Q 1191 2003 1191 1497 
Q 1191 994 1439 701 
Q 1688 409 2113 409 
Q 2538 409 2786 701 
Q 3034 994 3034 1497 
Q 3034 2003 2786 2293 
Q 2538 2584 2113 2584 
z
M 3366 4563 
L 3366 3988 
Q 3128 4100 2886 4159 
Q 2644 4219 2406 4219 
Q 1781 4219 1451 3797 
Q 1122 3375 1075 2522 
Q 1259 2794 1537 2939 
Q 1816 3084 2150 3084 
Q 2853 3084 3261 2657 
Q 3669 2231 3669 1497 
Q 3669 778 3244 343 
Q 2819 -91 2113 -91 
Q 1303 -91 875 529 
Q 447 1150 447 2328 
Q 447 3434 972 4092 
Q 1497 4750 2381 4750 
Q 2619 4750 2861 4703 
Q 3103 4656 3366 4563 
z
" transform="scale(0.015625)"/>
       </defs>
       <use xlink:href="#DejaVuSans-36"/>
       <use xlink:href="#DejaVuSans-30" transform="translate(63.623047 0)"/>
      </g>
     </g>
    </g>
    <g id="text_8">
     <!-- Time relative to trigger -->
     <g style="fill: #cccccc" transform="translate(214.192687 268.95475) scale(0.168 -0.168)">
      <defs>
       <path id="DejaVuSans-54" d="M -19 4666 
L 3928 4666 
L 3928 4134 
L 2272 4134 
L 2272 0 
L 1638 0 
L 1638 4134 
L -19 4134 
L -19 4666 
z
" transform="scale(0.015625)"/>
       <path id="DejaVuSans-69" d="M 603 3500 
L 1178 3500 
L 1178 0 
L 603 0 
L 603 3500 
z
M 603 4863 
L 1178 4863 
L 1178 4134 
L 603 4134 
L 603 4863 
z
" transform="scale(0.015625)"/>
       <path id="DejaVuSans-6d" d="M 3328 2828 
Q 3544 3216 3844 3400 
Q 4144 3584 4550 3584 
Q 5097 3584 5394 3201 
Q 5691 2819 5691 2113 
L 5691 0 
L 5113 0 
L 5113 2094 
Q 5113 2597 4934 2840 
Q 4756 3084 4391 3084 
Q 3944 3084 3684 2787 
Q 3425 2491 3425 1978 
L 3425 0 
L 2847 0 
L 2847 2094 
Q 2847 2600 2669 2842 
Q 2491 3084 2119 3084 
Q 1678 3084 1418 2786 
Q 1159 2488 1159 1978 
L 1159 0 
L 581 0 
L 581 3500 
L 1159 3500 
L 1159 2956 
Q 1356 3278 1631 3431 
Q 1906 3584 2284 3584 
Q 2666 3584 2933 3390 
Q 3200 3197 3328 2828 
z
" transform="scale(0.015625)"/>
       <path id="DejaVuSans-65" d="M 3597 1894 
L 3597 1613 
L 953 1613 
Q 991 1019 1311 708 
Q 1631 397 2203 397 
Q 2534 397 2845 478 
Q 3156 559 3463 722 
L 3463 178 
Q 3153 47 2828 -22 
Q 2503 -91 2169 -91 
Q 1331 -91 842 396 
Q 353 884 353 1716 
Q 353 2575 817 3079 
Q 1281 3584 2069 3584 
Q 2775 3584 3186 3129 
Q 3597 2675 3597 1894 
z
M 3022 2063 
Q 3016 2534 2758 2815 
Q 2500 3097 2075 3097 
Q 1594 3097 1305 2825 
Q 1016 2553 972 2059 
L 3022 2063 
z
" transform="scale(0.015625)"/>
       <path id="DejaVuSans-20" transform="scale(0.015625)"/>
       <path id="DejaVuSans-72" d="M 2631 2963 
Q 2534 3019 2420 3045 
Q 2306 3072 2169 3072 
Q 1681 3072 1420 2755 
Q 1159 2438 1159 1844 
L 1159 0 
L 581 0 
L 581 3500 
L 1159 3500 
L 1159 2956 
Q 1341 3275 1631 3429 
Q 1922 3584 2338 3584 
Q 2397 3584 2469 3576 
Q 2541 3569 2628 3553 
L 2631 2963 
z
" transform="scale(0.015625)"/>
       <path id="DejaVuSans-6c" d="M 603 4863 
L 1178 4863 
L 1178 0 
L 603 0 
L 603 4863 
z
" transform="scale(0.015625)"/>
       <path id="DejaVuSans-61" d="M 2194 1759 
Q 1497 1759 1228 1600 
Q 959 1441 959 1056 
Q 959 750 1161 570 
Q 1363 391 1709 391 
Q 2188 391 2477 730 
Q 2766 1069 2766 1631 
L 2766 1759 
L 2194 1759 
z
M 3341 1997 
L 3341 0 
L 2766 0 
L 2766 531 
Q 2569 213 2275 61 
Q 1981 -91 1556 -91 
Q 1019 -91 701 211 
Q 384 513 384 1019 
Q 384 1609 779 1909 
Q 1175 2209 1959 2209 
L 2766 2209 
L 2766 2266 
Q 2766 2663 2505 2880 
Q 2244 3097 1772 3097 
Q 1472 3097 1187 3025 
Q 903 2953 641 2809 
L 641 3341 
Q 956 3463 1253 3523 
Q 1550 3584 1831 3584 
Q 2591 3584 2966 3190 
Q 3341 2797 3341 1997 
z
" transform="scale(0.015625)"/>
       <path id="DejaVuSans-74" d="M 1172 4494 
L 1172 3500 
L 2356 3500 
L 2356 3053 
L 1172 3053 
L 1172 1153 
Q 1172 725 1289 603 
Q 1406 481 1766 481 
L 2356 481 
L 2356 0 
L 1766 0 
Q 1100 0 847 248 
Q 594 497 594 1153 
L 594 3053 
L 172 3053 
L 172 3500 
L 594 3500 
L 594 4494 
L 1172 4494 
z
" transform="scale(0.015625)"/>
       <path id="DejaVuSans-76" d="M 191 3500 
L 800 3500 
L 1894 563 
L 2988 3500 
L 3597 3500 
L 2284 0 
L 1503 0 
L 191 3500 
z
" transform="scale(0.015625)"/>
       <path id="DejaVuSans-6f" d="M 1959 3097 
Q 1497 3097 1228 2736 
Q 959 2375 959 1747 
Q 959 1119 1226 758 
Q 1494 397 1959 397 
Q 2419 397 2687 759 
Q 2956 1122 2956 1747 
Q 2956 2369 2687 2733 
Q 2419 3097 1959 3097 
z
M 1959 3584 
Q 2709 3584 3137 3096 
Q 3566 2609 3566 1747 
Q 3566 888 3137 398 
Q 2709 -91 1959 -91 
Q 1206 -91 779 398 
Q 353 888 353 1747 
Q 353 2609 779 3096 
Q 1206 3584 1959 3584 
z
" transform="scale(0.015625)"/>
       <path id="DejaVuSans-67" d="M 2906 1791 
Q 2906 2416 2648 2759 
Q 2391 3103 1925 3103 
Q 1463 3103 1205 2759 
Q 947 2416 947 1791 
Q 947 1169 1205 825 
Q 1463 481 1925 481 
Q 2391 481 2648 825 
Q 2906 1169 2906 1791 
z
M 3481 434 
Q 3481 -459 3084 -895 
Q 2688 -1331 1869 -1331 
Q 1566 -1331 1297 -1286 
Q 1028 -1241 775 -1147 
L 775 -588 
Q 1028 -725 1275 -790 
Q 1522 -856 1778 -856 
Q 2344 -856 2625 -561 
Q 2906 -266 2906 331 
L 2906 616 
Q 2728 306 2450 153 
Q 2172 0 1784 0 
Q 1141 0 747 490 
Q 353 981 353 1791 
Q 353 2603 747 3093 
Q 1141 3584 1784 3584 
Q 2172 3584 2450 3431 
Q 2728 3278 2906 2969 
L 2906 3500 
L 3481 3500 
L 3481 434 
z
" transform="scale(0.015625)"/>
      </defs>
      <use xlink:href="#DejaVuSans-54"/>
      <use xlink:href="#DejaVuSans-69" transform="translate(57.958984 0)"/>
      <use xlink:href="#DejaVuSans-6d" transform="translate(85.742188 0)"/>
      <use xlink:href="#DejaVuSans-65" transform="translate(183.154297 0)"/>
      <use xlink:href="#DejaVuSans-20" transform="translate(244.677734 0)"/>
      <use xlink:href="#DejaVuSans-72" transform="translate(276.464844 0)"/>
      <use xlink:href="#DejaVuSans-65" transform="translate(315.328125 0)"/>
      <use xlink:href="#DejaVuSans-6c" transform="translate(376.851562 0)"/>
      <use xlink:href="#DejaVuSans-61" transform="translate(404.634766 0)"/>
      <use xlink:href="#DejaVuSans-74" transform="translate(465.914062 0)"/>
      <use xlink:href="#DejaVuSans-69" transform="translate(505.123047 0)"/>
      <use xlink:href="#DejaVuSans-76" transform="translate(532.90625 0)"/>
      <use xlink:href="#DejaVuSans-65" transform="translate(592.085938 0)"/>
      <use xlink:href="#DejaVuSans-20" transform="translate(653.609375 0)"/>
      <use xlink:href="#DejaVuSans-74" transform="translate(685.396484 0)"/>
      <use xlink:href="#DejaVuSans-6f" transform="translate(724.605469 0)"/>
      <use xlink:href="#DejaVuSans-20" transform="translate(785.787109 0)"/>
      <use xlink:href="#DejaVuSans-74" transform="translate(817.574219 0)"/>
      <use xlink:href="#DejaVuSans-72" transform="translate(856.783203 0)"/>
      <use xlink:href="#DejaVuSans-69" transform="translate(897.896484 0)"/>
      <use xlink:href="#DejaVuSans-67" transform="translate(925.679688 0)"/>
      <use xlink:href="#DejaVuSans-67" transform="translate(989.15625 0)"/>
      <use xlink:href="#DejaVuSans-65" transform="translate(1052.632812 0)"/>
      <use xlink:href="#DejaVuSans-72" transform="translate(1114.15625 0)"/>
     </g>
    </g>
   </g>
   <g id="matplotlib.axis_2">
    <g id="ytick_1">
     <g id="line2d_15">
      <path d="M 61.59 209.459353 
L 560.88 209.459353 
" clip-path="url(#pef413b6aed)" style="fill: none; stroke: #cbcbcb"/>
     </g>
     <g id="line2d_16"/>
     <g id="text_9">
      <!-- 0.0 -->
      <g style="fill: #cccccc" transform="translate(35.825625 214.77826) scale(0.14 -0.14)">
       <defs>
        <path id="DejaVuSans-2e" d="M 684 794 
L 1344 794 
L 1344 0 
L 684 0 
L 684 794 
z
" transform="scale(0.015625)"/>
       </defs>
       <use xlink:href="#DejaVuSans-30"/>
       <use xlink:href="#DejaVuSans-2e" transform="translate(63.623047 0)"/>
       <use xlink:href="#DejaVuSans-30" transform="translate(95.410156 0)"/>
      </g>
     </g>
    </g>
    <g id="ytick_2">
     <g id="line2d_17">
      <path d="M 61.59 174.327347 
L 560.88 174.327347 
" clip-path="url(#pef413b6aed)" style="fill: none; stroke: #cbcbcb"/>
     </g>
     <g id="line2d_18"/>
     <g id="text_10">
      <!-- 0.5 -->
      <g style="fill: #cccccc" transform="translate(35.825625 179.646254) scale(0.14 -0.14)">
       <use xlink:href="#DejaVuSans-30"/>
       <use xlink:href="#DejaVuSans-2e" transform="translate(63.623047 0)"/>
       <use xlink:href="#DejaVuSans-35" transform="translate(95.410156 0)"/>
      </g>
     </g>
    </g>
    <g id="ytick_3">
     <g id="line2d_19">
      <path d="M 61.59 139.195341 
L 560.88 139.195341 
" clip-path="url(#pef413b6aed)" style="fill: none; stroke: #cbcbcb"/>
     </g>
     <g id="line2d_20"/>
     <g id="text_11">
      <!-- 1.0 -->
      <g style="fill: #cccccc" transform="translate(35.825625 144.514248) scale(0.14 -0.14)">
       <use xlink:href="#DejaVuSans-31"/>
       <use xlink:href="#DejaVuSans-2e" transform="translate(63.623047 0)"/>
       <use xlink:href="#DejaVuSans-30" transform="translate(95.410156 0)"/>
      </g>
     </g>
    </g>
    <g id="ytick_4">
     <g id="line2d_21">
      <path d="M 61.59 104.063335 
L 560.88 104.063335 
" clip-path="url(#pef413b6aed)" style="fill: none; stroke: #cbcbcb"/>
     </g>
     <g id="line2d_22"/>
     <g id="text_12">
      <!-- 1.5 -->
      <g style="fill: #cccccc" transform="translate(35.825625 109.382241) scale(0.14 -0.14)">
       <use xlink:href="#DejaVuSans-31"/>
       <use xlink:href="#DejaVuSans-2e" transform="translate(63.623047 0)"/>
       <use xlink:href="#DejaVuSans-35" transform="translate(95.410156 0)"/>
      </g>
     </g>
    </g>
    <g id="ytick_5">
     <g id="line2d_23">
      <path d="M 61.59 68.931329 
L 560.88 68.931329 
" clip-path="url(#pef413b6aed)" style="fill: none; stroke: #cbcbcb"/>
     </g>
     <g id="line2d_24"/>
     <g id="text_13">
      <!-- 2.0 -->
      <g style="fill: #cccccc" transform="translate(35.825625 74.250235) scale(0.14 -0.14)">
       <use xlink:href="#DejaVuSans-32"/>
       <use xlink:href="#DejaVuSans-2e" transform="translate(63.623047 0)"/>
       <use xlink:href="#DejaVuSans-30" transform="translate(95.410156 0)"/>
      </g>
     </g>
    </g>
    <g id="text_14">
     <!-- Signal Amplitude -->
     <g style="fill: #cccccc" transform="translate(28.33175 207.569438) rotate(-90) scale(0.168 -0.168)">
      <defs>
       <path id="DejaVuSans-53" d="M 3425 4513 
L 3425 3897 
Q 3066 4069 2747 4153 
Q 2428 4238 2131 4238 
Q 1616 4238 1336 4038 
Q 1056 3838 1056 3469 
Q 1056 3159 1242 3001 
Q 1428 2844 1947 2747 
L 2328 2669 
Q 3034 2534 3370 2195 
Q 3706 1856 3706 1288 
Q 3706 609 3251 259 
Q 2797 -91 1919 -91 
Q 1588 -91 1214 -16 
Q 841 59 441 206 
L 441 856 
Q 825 641 1194 531 
Q 1563 422 1919 422 
Q 2459 422 2753 634 
Q 3047 847 3047 1241 
Q 3047 1584 2836 1778 
Q 2625 1972 2144 2069 
L 1759 2144 
Q 1053 2284 737 2584 
Q 422 2884 422 3419 
Q 422 4038 858 4394 
Q 1294 4750 2059 4750 
Q 2388 4750 2728 4690 
Q 3069 4631 3425 4513 
z
" transform="scale(0.015625)"/>
       <path id="DejaVuSans-6e" d="M 3513 2113 
L 3513 0 
L 2938 0 
L 2938 2094 
Q 2938 2591 2744 2837 
Q 2550 3084 2163 3084 
Q 1697 3084 1428 2787 
Q 1159 2491 1159 1978 
L 1159 0 
L 581 0 
L 581 3500 
L 1159 3500 
L 1159 2956 
Q 1366 3272 1645 3428 
Q 1925 3584 2291 3584 
Q 2894 3584 3203 3211 
Q 3513 2838 3513 2113 
z
" transform="scale(0.015625)"/>
       <path id="DejaVuSans-41" d="M 2188 4044 
L 1331 1722 
L 3047 1722 
L 2188 4044 
z
M 1831 4666 
L 2547 4666 
L 4325 0 
L 3669 0 
L 3244 1197 
L 1141 1197 
L 716 0 
L 50 0 
L 1831 4666 
z
" transform="scale(0.015625)"/>
       <path id="DejaVuSans-70" d="M 1159 525 
L 1159 -1331 
L 581 -1331 
L 581 3500 
L 1159 3500 
L 1159 2969 
Q 1341 3281 1617 3432 
Q 1894 3584 2278 3584 
Q 2916 3584 3314 3078 
Q 3713 2572 3713 1747 
Q 3713 922 3314 415 
Q 2916 -91 2278 -91 
Q 1894 -91 1617 61 
Q 1341 213 1159 525 
z
M 3116 1747 
Q 3116 2381 2855 2742 
Q 2594 3103 2138 3103 
Q 1681 3103 1420 2742 
Q 1159 2381 1159 1747 
Q 1159 1113 1420 752 
Q 1681 391 2138 391 
Q 2594 391 2855 752 
Q 3116 1113 3116 1747 
z
" transform="scale(0.015625)"/>
       <path id="DejaVuSans-75" d="M 544 1381 
L 544 3500 
L 1119 3500 
L 1119 1403 
Q 1119 906 1312 657 
Q 1506 409 1894 409 
Q 2359 409 2629 706 
Q 2900 1003 2900 1516 
L 2900 3500 
L 3475 3500 
L 3475 0 
L 2900 0 
L 2900 538 
Q 2691 219 2414 64 
Q 2138 -91 1772 -91 
Q 1169 -91 856 284 
Q 544 659 544 1381 
z
M 1991 3584 
L 1991 3584 
z
" transform="scale(0.015625)"/>
       <path id="DejaVuSans-64" d="M 2906 2969 
L 2906 4863 
L 3481 4863 
L 3481 0 
L 2906 0 
L 2906 525 
Q 2725 213 2448 61 
Q 2172 -91 1784 -91 
Q 1150 -91 751 415 
Q 353 922 353 1747 
Q 353 2572 751 3078 
Q 1150 3584 1784 3584 
Q 2172 3584 2448 3432 
Q 2725 3281 2906 2969 
z
M 947 1747 
Q 947 1113 1208 752 
Q 1469 391 1925 391 
Q 2381 391 2643 752 
Q 2906 1113 2906 1747 
Q 2906 2381 2643 2742 
Q 2381 3103 1925 3103 
Q 1469 3103 1208 2742 
Q 947 2381 947 1747 
z
" transform="scale(0.015625)"/>
      </defs>
      <use xlink:href="#DejaVuSans-53"/>
      <use xlink:href="#DejaVuSans-69" transform="translate(63.476562 0)"/>
      <use xlink:href="#DejaVuSans-67" transform="translate(91.259766 0)"/>
      <use xlink:href="#DejaVuSans-6e" transform="translate(154.736328 0)"/>
      <use xlink:href="#DejaVuSans-61" transform="translate(218.115234 0)"/>
      <use xlink:href="#DejaVuSans-6c" transform="translate(279.394531 0)"/>
      <use xlink:href="#DejaVuSans-20" transform="translate(307.177734 0)"/>
      <use xlink:href="#DejaVuSans-41" transform="translate(338.964844 0)"/>
      <use xlink:href="#DejaVuSans-6d" transform="translate(407.373047 0)"/>
      <use xlink:href="#DejaVuSans-70" transform="translate(504.785156 0)"/>
      <use xlink:href="#DejaVuSans-6c" transform="translate(568.261719 0)"/>
      <use xlink:href="#DejaVuSans-69" transform="translate(596.044922 0)"/>
      <use xlink:href="#DejaVuSans-74" transform="translate(623.828125 0)"/>
      <use xlink:href="#DejaVuSans-75" transform="translate(663.037109 0)"/>
      <use xlink:href="#DejaVuSans-64" transform="translate(726.416016 0)"/>
      <use xlink:href="#DejaVuSans-65" transform="translate(789.892578 0)"/>
     </g>
    </g>
   </g>
   <g id="line2d_25">
    <path d="M 84.285 212.214463 
L 91.97822 219.742597 
L 99.671441 207.378693 
L 107.364661 207.625074 
L 115.057881 209.423424 
L 122.751102 211.107657 
L 130.444322 209.571883 
L 138.137542 196.914468 
L 145.830763 193.478091 
L 153.523983 192.778968 
L 161.217203 170.041037 
L 168.910424 159.574008 
L 176.603644 137.180737 
L 184.296864 142.796903 
L 191.990085 131.315555 
L 199.683305 137.080276 
L 207.376525 129.633579 
L 215.069746 117.162981 
L 222.762966 96.691642 
L 230.456186 92.964332 
L 238.149407 88.744147 
L 245.842627 90.692774 
L 253.535847 94.108854 
L 261.229068 96.478881 
L 268.922288 75.179711 
L 276.615508 69.314497 
L 284.308729 65.507894 
L 292.001949 82.875428 
L 299.695169 61.047177 
L 307.38839 64.37821 
L 315.08161 52.741625 
L 322.774831 50.546725 
L 330.468051 76.273571 
L 338.161271 73.868295 
L 345.854492 67.443646 
L 353.547712 85.463827 
L 361.240932 90.282255 
L 368.934153 92.201144 
L 376.627373 89.526375 
L 384.320593 81.412722 
L 392.013814 104.057472 
L 399.707034 77.640196 
L 407.400254 119.545722 
L 415.093475 124.248678 
L 422.786695 111.071911 
L 430.479915 126.699276 
L 438.173136 119.366235 
L 445.866356 134.539581 
L 453.559576 152.202107 
L 461.252797 155.697087 
L 468.946017 164.564726 
L 476.639237 162.111425 
L 484.332458 186.704039 
L 492.025678 211.84345 
L 499.718898 186.413556 
L 507.412119 197.675544 
L 515.105339 207.69929 
L 522.798559 207.025069 
L 530.49178 214.23748 
L 538.185 207.827446 
" clip-path="url(#pef413b6aed)" style="fill: none; stroke: #008fd5; stroke-opacity: 0.8; stroke-width: 2"/>
   </g>
   <g id="line2d_26">
    <path d="M 84.285 214.328014 
L 91.97822 203.138404 
L 99.671441 207.300144 
L 107.364661 203.747858 
L 115.057881 205.035328 
L 122.751102 219.679659 
L 130.444322 201.610674 
L 138.137542 182.76699 
L 145.830763 176.475904 
L 153.523983 177.827304 
L 161.217203 169.072524 
L 168.910424 147.92599 
L 176.603644 144.403082 
L 184.296864 132.836107 
L 191.990085 136.821183 
L 199.683305 121.515313 
L 207.376525 130.659654 
L 215.069746 97.825064 
L 222.762966 111.937431 
L 230.456186 92.963958 
L 238.149407 101.921835 
L 245.842627 93.593107 
L 253.535847 78.890929 
L 261.229068 81.967288 
L 268.922288 76.058002 
L 276.615508 74.387804 
L 284.308729 64.920968 
L 292.001949 75.942013 
L 299.695169 63.893559 
L 307.38839 69.072042 
L 315.08161 81.004238 
L 322.774831 72.380511 
L 330.468051 68.178217 
L 338.161271 57.524404 
L 345.854492 64.350647 
L 353.547712 80.114061 
L 361.240932 89.717248 
L 368.934153 86.594608 
L 376.627373 79.453776 
L 384.320593 84.666953 
L 392.013814 97.601759 
L 399.707034 103.990639 
L 407.400254 112.276817 
L 415.093475 117.28381 
L 422.786695 130.74865 
L 430.479915 139.076761 
L 438.173136 139.04908 
L 445.866356 141.652678 
L 453.559576 159.920816 
L 461.252797 163.339699 
L 468.946017 172.750447 
L 476.639237 192.218508 
L 484.332458 215.418593 
L 492.025678 199.065283 
L 499.718898 208.524552 
L 507.412119 207.274792 
L 515.105339 199.092909 
L 522.798559 203.433093 
L 530.49178 210.583146 
L 538.185 209.592969 
" clip-path="url(#pef413b6aed)" style="fill: none; stroke: #fc4f30; stroke-opacity: 0.8; stroke-width: 2"/>
   </g>
   <g id="line2d_27">
    <path d="M 84.285 218.625079 
L 91.97822 204.753965 
L 99.671441 206.883487 
L 107.364661 216.063326 
L 115.057881 213.069988 
L 122.751102 216.901813 
L 130.444322 202.887342 
L 138.137542 214.094731 
L 145.830763 183.741377 
L 153.523983 180.035389 
L 161.217203 169.753042 
L 168.910424 178.055657 
L 176.603644 153.170266 
L 184.296864 163.162277 
L 191.990085 148.772798 
L 199.683305 127.76443 
L 207.376525 112.942926 
L 215.069746 116.589551 
L 222.762966 110.499566 
L 230.456186 100.443181 
L 238.149407 99.322478 
L 245.842627 93.190426 
L 253.535847 68.085087 
L 261.229068 79.949604 
L 268.922288 83.273266 
L 276.615508 74.241851 
L 284.308729 68.904409 
L 292.001949 80.288331 
L 299.695169 76.891013 
L 307.38839 68.007697 
L 315.08161 45.968182 
L 322.774831 78.80804 
L 330.468051 63.403135 
L 338.161271 73.845524 
L 345.854492 51.27187 
L 353.547712 64.563055 
L 361.240932 76.219056 
L 368.934153 84.70818 
L 376.627373 84.816258 
L 384.320593 84.671499 
L 392.013814 101.232133 
L 399.707034 102.809382 
L 407.400254 101.614933 
L 415.093475 127.921514 
L 422.786695 102.312991 
L 430.479915 114.286587 
L 438.173136 134.943231 
L 445.866356 120.434836 
L 453.559576 148.997259 
L 461.252797 161.8932 
L 468.946017 155.691809 
L 476.639237 169.917713 
L 484.332458 197.587185 
L 492.025678 202.9448 
L 499.718898 195.404505 
L 507.412119 225.126549 
L 515.105339 202.951658 
L 522.798559 196.043026 
L 530.49178 219.28625 
L 538.185 205.503706 
" clip-path="url(#pef413b6aed)" style="fill: none; stroke: #e5ae38; stroke-opacity: 0.8; stroke-width: 2"/>
   </g>
   <g id="line2d_28">
    <path d="M 84.285 205.291986 
L 91.97822 211.634351 
L 99.671441 207.167812 
L 107.364661 218.250179 
L 115.057881 202.966769 
L 122.751102 210.75855 
L 130.444322 220.098135 
L 138.137542 208.215515 
L 145.830763 200.927631 
L 153.523983 201.789183 
L 161.217203 173.21382 
L 168.910424 153.824369 
L 176.603644 170.555853 
L 184.296864 120.330123 
L 191.990085 148.229978 
L 199.683305 123.158824 
L 207.376525 141.487196 
L 215.069746 102.947561 
L 222.762966 125.288973 
L 230.456186 114.18629 
L 238.149407 92.669566 
L 245.842627 69.307246 
L 253.535847 78.758765 
L 261.229068 79.848972 
L 268.922288 79.334657 
L 276.615508 71.981923 
L 284.308729 67.244379 
L 292.001949 82.495226 
L 299.695169 79.473381 
L 307.38839 64.798026 
L 315.08161 73.100619 
L 322.774831 72.268407 
L 330.468051 81.346563 
L 338.161271 68.981373 
L 345.854492 83.193466 
L 353.547712 87.962597 
L 361.240932 74.938144 
L 368.934153 78.052427 
L 376.627373 75.546296 
L 384.320593 112.285833 
L 392.013814 93.924431 
L 399.707034 89.659225 
L 407.400254 110.533932 
L 415.093475 106.370041 
L 422.786695 102.797919 
L 430.479915 125.084668 
L 438.173136 144.990722 
L 445.866356 158.864005 
L 453.559576 157.102205 
L 461.252797 154.29358 
L 468.946017 172.733551 
L 476.639237 175.818191 
L 484.332458 181.421894 
L 492.025678 192.914636 
L 499.718898 203.179151 
L 507.412119 209.758121 
L 515.105339 215.946361 
L 522.798559 218.956832 
L 530.49178 216.31623 
L 538.185 202.056043 
" clip-path="url(#pef413b6aed)" style="fill: none; stroke: #6d904f; stroke-opacity: 0.8; stroke-width: 2"/>
   </g>
   <g id="line2d_29">
    <path d="M 84.285 206.772389 
L 91.97822 208.289793 
L 99.671441 205.999193 
L 107.364661 207.427538 
L 115.057881 192.207429 
L 122.751102 213.94037 
L 130.444322 213.190351 
L 138.137542 212.957911 
L 145.830763 207.375873 
L 153.523983 195.108255 
L 161.217203 170.424272 
L 168.910424 163.489433 
L 176.603644 168.902897 
L 184.296864 167.504762 
L 191.990085 149.831982 
L 199.683305 154.235193 
L 207.376525 116.055951 
L 215.069746 132.722126 
L 222.762966 133.883954 
L 230.456186 105.870884 
L 238.149407 86.522894 
L 245.842627 105.968254 
L 253.535847 88.159177 
L 261.229068 92.011441 
L 268.922288 80.556952 
L 276.615508 82.201041 
L 284.308729 48.381058 
L 292.001949 84.327499 
L 299.695169 75.886892 
L 307.38839 75.971128 
L 315.08161 71.808983 
L 322.774831 70.538199 
L 330.468051 57.306419 
L 338.161271 72.909801 
L 345.854492 70.193119 
L 353.547712 65.797453 
L 361.240932 50.857505 
L 368.934153 63.74016 
L 376.627373 94.313636 
L 384.320593 88.926608 
L 392.013814 63.825064 
L 399.707034 95.057864 
L 407.400254 75.097321 
L 415.093475 89.538436 
L 422.786695 118.110723 
L 430.479915 110.217017 
L 438.173136 106.176098 
L 445.866356 129.695278 
L 453.559576 138.365912 
L 461.252797 145.078768 
L 468.946017 155.637971 
L 476.639237 160.028299 
L 484.332458 177.855575 
L 492.025678 183.530964 
L 499.718898 195.8683 
L 507.412119 190.335602 
L 515.105339 226.131818 
L 522.798559 206.868907 
L 530.49178 212.22311 
L 538.185 209.257381 
" clip-path="url(#pef413b6aed)" style="fill: none; stroke: #8b8b8b; stroke-opacity: 0.8; stroke-width: 2"/>
   </g>
   <g id="patch_3">
    <path d="M 61.59 235.14 
L 61.59 36.96 
" style="fill: none; stroke: #cccccc; stroke-width: 3; stroke-linejoin: miter; stroke-linecap: square"/>
   </g>
   <g id="patch_4">
    <path d="M 560.88 235.14 
L 560.88 36.96 
" style="fill: none; stroke: #cccccc; stroke-width: 3; stroke-linejoin: miter; stroke-linecap: square"/>
   </g>
   <g id="patch_5">
    <path d="M 61.59 235.14 
L 560.88 235.14 
" style="fill: none; stroke: #cccccc; stroke-width: 3; stroke-linejoin: miter; stroke-linecap: square"/>
   </g>
   <g id="patch_6">
    <path d="M 61.59 36.96 
L 560.88 36.96 
" style="fill: none; stroke: #cccccc; stroke-width: 3; stroke-linejoin: miter; stroke-linecap: square"/>
   </g>
   <g id="text_15">
    <!-- Overlay of Triggered Windows -->
    <g style="fill: #cccccc" transform="translate(160.594125 30.96) scale(0.2016 -0.2016)">
     <defs>
      <path id="DejaVuSans-4f" d="M 2522 4238 
Q 1834 4238 1429 3725 
Q 1025 3213 1025 2328 
Q 1025 1447 1429 934 
Q 1834 422 2522 422 
Q 3209 422 3611 934 
Q 4013 1447 4013 2328 
Q 4013 3213 3611 3725 
Q 3209 4238 2522 4238 
z
M 2522 4750 
Q 3503 4750 4090 4092 
Q 4678 3434 4678 2328 
Q 4678 1225 4090 567 
Q 3503 -91 2522 -91 
Q 1538 -91 948 565 
Q 359 1222 359 2328 
Q 359 3434 948 4092 
Q 1538 4750 2522 4750 
z
" transform="scale(0.015625)"/>
      <path id="DejaVuSans-79" d="M 2059 -325 
Q 1816 -950 1584 -1140 
Q 1353 -1331 966 -1331 
L 506 -1331 
L 506 -850 
L 844 -850 
Q 1081 -850 1212 -737 
Q 1344 -625 1503 -206 
L 1606 56 
L 191 3500 
L 800 3500 
L 1894 763 
L 2988 3500 
L 3597 3500 
L 2059 -325 
z
" transform="scale(0.015625)"/>
      <path id="DejaVuSans-66" d="M 2375 4863 
L 2375 4384 
L 1825 4384 
Q 1516 4384 1395 4259 
Q 1275 4134 1275 3809 
L 1275 3500 
L 2222 3500 
L 2222 3053 
L 1275 3053 
L 1275 0 
L 697 0 
L 697 3053 
L 147 3053 
L 147 3500 
L 697 3500 
L 697 3744 
Q 697 4328 969 4595 
Q 1241 4863 1831 4863 
L 2375 4863 
z
" transform="scale(0.015625)"/>
      <path id="DejaVuSans-57" d="M 213 4666 
L 850 4666 
L 1831 722 
L 2809 4666 
L 3519 4666 
L 4500 722 
L 5478 4666 
L 6119 4666 
L 4947 0 
L 4153 0 
L 3169 4050 
L 2175 0 
L 1381 0 
L 213 4666 
z
" transform="scale(0.015625)"/>
      <path id="DejaVuSans-77" d="M 269 3500 
L 844 3500 
L 1563 769 
L 2278 3500 
L 2956 3500 
L 3675 769 
L 4391 3500 
L 4966 3500 
L 4050 0 
L 3372 0 
L 2619 2869 
L 1863 0 
L 1184 0 
L 269 3500 
z
" transform="scale(0.015625)"/>
      <path id="DejaVuSans-73" d="M 2834 3397 
L 2834 2853 
Q 2591 2978 2328 3040 
Q 2066 3103 1784 3103 
Q 1356 3103 1142 2972 
Q 928 2841 928 2578 
Q 928 2378 1081 2264 
Q 1234 2150 1697 2047 
L 1894 2003 
Q 2506 1872 2764 1633 
Q 3022 1394 3022 966 
Q 3022 478 2636 193 
Q 2250 -91 1575 -91 
Q 1294 -91 989 -36 
Q 684 19 347 128 
L 347 722 
Q 666 556 975 473 
Q 1284 391 1588 391 
Q 1994 391 2212 530 
Q 2431 669 2431 922 
Q 2431 1156 2273 1281 
Q 2116 1406 1581 1522 
L 1381 1569 
Q 847 1681 609 1914 
Q 372 2147 372 2553 
Q 372 3047 722 3315 
Q 1072 3584 1716 3584 
Q 2034 3584 2315 3537 
Q 2597 3491 2834 3397 
z
" transform="scale(0.015625)"/>
     </defs>
     <use xlink:href="#DejaVuSans-4f"/>
     <use xlink:href="#DejaVuSans-76" transform="translate(78.710938 0)"/>
     <use xlink:href="#DejaVuSans-65" transform="translate(137.890625 0)"/>
     <use xlink:href="#DejaVuSans-72" transform="translate(199.414062 0)"/>
     <use xlink:href="#DejaVuSans-6c" transform="translate(240.527344 0)"/>
     <use xlink:href="#DejaVuSans-61" transform="translate(268.310547 0)"/>
     <use xlink:href="#DejaVuSans-79" transform="translate(329.589844 0)"/>
     <use xlink:href="#DejaVuSans-20" transform="translate(388.769531 0)"/>
     <use xlink:href="#DejaVuSans-6f" transform="translate(420.556641 0)"/>
     <use xlink:href="#DejaVuSans-66" transform="translate(481.738281 0)"/>
     <use xlink:href="#DejaVuSans-20" transform="translate(516.943359 0)"/>
     <use xlink:href="#DejaVuSans-54" transform="translate(548.730469 0)"/>
     <use xlink:href="#DejaVuSans-72" transform="translate(595.064453 0)"/>
     <use xlink:href="#DejaVuSans-69" transform="translate(636.177734 0)"/>
     <use xlink:href="#DejaVuSans-67" transform="translate(663.960938 0)"/>
     <use xlink:href="#DejaVuSans-67" transform="translate(727.4375 0)"/>
     <use xlink:href="#DejaVuSans-65" transform="translate(790.914062 0)"/>
     <use xlink:href="#DejaVuSans-72" transform="translate(852.4375 0)"/>
     <use xlink:href="#DejaVuSans-65" transform="translate(891.300781 0)"/>
     <use xlink:href="#DejaVuSans-64" transform="translate(952.824219 0)"/>
     <use xlink:href="#DejaVuSans-20" transform="translate(1016.300781 0)"/>
     <use xlink:href="#DejaVuSans-57" transform="translate(1048.087891 0)"/>
     <use xlink:href="#DejaVuSans-69" transform="translate(1144.714844 0)"/>
     <use xlink:href="#DejaVuSans-6e" transform="translate(1172.498047 0)"/>
     <use xlink:href="#DejaVuSans-64" transform="translate(1235.876953 0)"/>
     <use xlink:href="#DejaVuSans-6f" transform="translate(1299.353516 0)"/>
     <use xlink:href="#DejaVuSans-77" transform="translate(1360.535156 0)"/>
     <use xlink:href="#DejaVuSans-73" transform="translate(1442.322266 0)"/>
    </g>
   </g>
   <g id="legend_1">
    <g id="patch_7">
     <path d="M 262.102656 228.14 
L 360.367344 228.14 
Q 363.167344 228.14 363.167344 225.34 
L 363.167344 123.993125 
Q 363.167344 121.193125 360.367344 121.193125 
L 262.102656 121.193125 
Q 259.302656 121.193125 259.302656 123.993125 
L 259.302656 225.34 
Q 259.302656 228.14 262.102656 228.14 
z
" style="fill: #333333; opacity: 0.8"/>
    </g>
    <g id="line2d_30">
     <path d="M 264.902656 132.530938 
L 278.902656 132.530938 
L 292.902656 132.530938 
" style="fill: none; stroke: #008fd5; stroke-opacity: 0.8; stroke-width: 2"/>
    </g>
    <g id="text_16">
     <!-- Event 1 -->
     <g style="fill: #cccccc" transform="translate(304.102656 137.430938) scale(0.14 -0.14)">
      <defs>
       <path id="DejaVuSans-45" d="M 628 4666 
L 3578 4666 
L 3578 4134 
L 1259 4134 
L 1259 2753 
L 3481 2753 
L 3481 2222 
L 1259 2222 
L 1259 531 
L 3634 531 
L 3634 0 
L 628 0 
L 628 4666 
z
" transform="scale(0.015625)"/>
      </defs>
      <use xlink:href="#DejaVuSans-45"/>
      <use xlink:href="#DejaVuSans-76" transform="translate(63.183594 0)"/>
      <use xlink:href="#DejaVuSans-65" transform="translate(122.363281 0)"/>
      <use xlink:href="#DejaVuSans-6e" transform="translate(183.886719 0)"/>
      <use xlink:href="#DejaVuSans-74" transform="translate(247.265625 0)"/>
      <use xlink:href="#DejaVuSans-20" transform="translate(286.474609 0)"/>
      <use xlink:href="#DejaVuSans-31" transform="translate(318.261719 0)"/>
     </g>
    </g>
    <g id="line2d_31">
     <path d="M 264.902656 153.080313 
L 278.902656 153.080313 
L 292.902656 153.080313 
" style="fill: none; stroke: #fc4f30; stroke-opacity: 0.8; stroke-width: 2"/>
    </g>
    <g id="text_17">
     <!-- Event 2 -->
     <g style="fill: #cccccc" transform="translate(304.102656 157.980313) scale(0.14 -0.14)">
      <use xlink:href="#DejaVuSans-45"/>
      <use xlink:href="#DejaVuSans-76" transform="translate(63.183594 0)"/>
      <use xlink:href="#DejaVuSans-65" transform="translate(122.363281 0)"/>
      <use xlink:href="#DejaVuSans-6e" transform="translate(183.886719 0)"/>
      <use xlink:href="#DejaVuSans-74" transform="translate(247.265625 0)"/>
      <use xlink:href="#DejaVuSans-20" transform="translate(286.474609 0)"/>
      <use xlink:href="#DejaVuSans-32" transform="translate(318.261719 0)"/>
     </g>
    </g>
    <g id="line2d_32">
     <path d="M 264.902656 173.629688 
L 278.902656 173.629688 
L 292.902656 173.629688 
" style="fill: none; stroke: #e5ae38; stroke-opacity: 0.8; stroke-width: 2"/>
    </g>
    <g id="text_18">
     <!-- Event 3 -->
     <g style="fill: #cccccc" transform="translate(304.102656 178.529688) scale(0.14 -0.14)">
      <use xlink:href="#DejaVuSans-45"/>
      <use xlink:href="#DejaVuSans-76" transform="translate(63.183594 0)"/>
      <use xlink:href="#DejaVuSans-65" transform="translate(122.363281 0)"/>
      <use xlink:href="#DejaVuSans-6e" transform="translate(183.886719 0)"/>
      <use xlink:href="#DejaVuSans-74" transform="translate(247.265625 0)"/>
      <use xlink:href="#DejaVuSans-20" transform="translate(286.474609 0)"/>
      <use xlink:href="#DejaVuSans-33" transform="translate(318.261719 0)"/>
     </g>
    </g>
    <g id="line2d_33">
     <path d="M 264.902656 194.179063 
L 278.902656 194.179063 
L 292.902656 194.179063 
" style="fill: none; stroke: #6d904f; stroke-opacity: 0.8; stroke-width: 2"/>
    </g>
    <g id="text_19">
     <!-- Event 4 -->
     <g style="fill: #cccccc" transform="translate(304.102656 199.079063) scale(0.14 -0.14)">
      <use xlink:href="#DejaVuSans-45"/>
      <use xlink:href="#DejaVuSans-76" transform="translate(63.183594 0)"/>
      <use xlink:href="#DejaVuSans-65" transform="translate(122.363281 0)"/>
      <use xlink:href="#DejaVuSans-6e" transform="translate(183.886719 0)"/>
      <use xlink:href="#DejaVuSans-74" transform="translate(247.265625 0)"/>
      <use xlink:href="#DejaVuSans-20" transform="translate(286.474609 0)"/>
      <use xlink:href="#DejaVuSans-34" transform="translate(318.261719 0)"/>
     </g>
    </g>
    <g id="line2d_34">
     <path d="M 264.902656 214.728438 
L 278.902656 214.728438 
L 292.902656 214.728438 
" style="fill: none; stroke: #8b8b8b; stroke-opacity: 0.8; stroke-width: 2"/>
    </g>
    <g id="text_20">
     <!-- Event 5 -->
     <g style="fill: #cccccc" transform="translate(304.102656 219.628438) scale(0.14 -0.14)">
      <use xlink:href="#DejaVuSans-45"/>
      <use xlink:href="#DejaVuSans-76" transform="translate(63.183594 0)"/>
      <use xlink:href="#DejaVuSans-65" transform="translate(122.363281 0)"/>
      <use xlink:href="#DejaVuSans-6e" transform="translate(183.886719 0)"/>
      <use xlink:href="#DejaVuSans-74" transform="translate(247.265625 0)"/>
      <use xlink:href="#DejaVuSans-20" transform="translate(286.474609 0)"/>
      <use xlink:href="#DejaVuSans-35" transform="translate(318.261719 0)"/>
     </g>
    </g>
   </g>
  </g>
 </g>
 <defs>
  <clipPath id="pef413b6aed">
   <rect x="61.59" y="36.96" width="499.29" height="198.18"/>
  </clipPath>
 </defs>
</svg>
