<?xml version="1.0" encoding="utf-8" standalone="no"?>
<!DOCTYPE svg PUBLIC "-//W3C//DTD SVG 1.1//EN"
  "http://www.w3.org/Graphics/SVG/1.1/DTD/svg11.dtd">
<svg xmlns:xlink="http://www.w3.org/1999/xlink" width="720pt" height="216pt" viewBox="0 0 720 216" xmlns="http://www.w3.org/2000/svg" version="1.1">
 <metadata>
  <rdf:RDF xmlns:dc="http://purl.org/dc/elements/1.1/" xmlns:cc="http://creativecommons.org/ns#" xmlns:rdf="http://www.w3.org/1999/02/22-rdf-syntax-ns#">
   <cc:Work>
    <dc:type rdf:resource="http://purl.org/dc/dcmitype/StillImage"/>
    <dc:date>2026-03-22T16:19:34.879390</dc:date>
    <dc:format>image/svg+xml</dc:format>
    <dc:creator>
     <cc:Agent>
      <dc:title>Matplotlib v3.10.8, https://matplotlib.org/</dc:title>
     </cc:Agent>
    </dc:creator>
   </cc:Work>
  </rdf:RDF>
 </metadata>
 <defs>
  <style type="text/css">*{stroke-linejoin: round; stroke-linecap: butt}</style>
 </defs>
 <g id="figure_1">
  <g id="patch_1">
   <path d="M 0 216 
L 720 216 
L 720 0 
L 0 0 
L 0 216 
z
" style="fill: none"/>
  </g>
  <g id="axes_1">
   <g id="patch_2">
    <path d="M 61.59 163.14 
L 704.88 163.14 
L 704.88 36.96 
L 61.59 36.96 
L 61.59 163.14 
z
" style="fill: none"/>
   </g>
   <g id="matplotlib.axis_1">
    <g id="xtick_1">
     <g id="line2d_1">
      <path d="M 90.830455 163.14 
L 90.830455 36.96 
" clip-path="url(#p7e6d2c2467)" style="fill: none; stroke: #cbcbcb"/>
     </g>
     <g id="line2d_2"/>
     <g id="text_1">
      <!-- 0 -->
      <g style="fill: #cccccc" transform="translate(86.376705 177.277812) scale(0.14 -0.14)">
       <defs>
        <path id="DejaVuSans-30" d="M 2034 4250 
Q 1547 4250 1301 3770 
Q 1056 3291 1056 2328 
Q 1056 1369 1301 889 
Q 1547 409 2034 409 
Q 2525 409 2770 889 
Q 3016 1369 3016 2328 
Q 3016 3291 2770 3770 
Q 2525 4250 2034 4250 
z
M 2034 4750 
Q 2819 4750 3233 4129 
Q 3647 3509 3647 2328 
Q 3647 1150 3233 529 
Q 2819 -91 2034 -91 
Q 1250 -91 836 529 
Q 422 1150 422 2328 
Q 422 3509 836 4129 
Q 1250 4750 2034 4750 
z
" transform="scale(0.015625)"/>
       </defs>
       <use xlink:href="#DejaVuSans-30"/>
      </g>
     </g>
    </g>
    <g id="xtick_2">
     <g id="line2d_3">
      <path d="M 207.909352 163.14 
L 207.909352 36.96 
" clip-path="url(#p7e6d2c2467)" style="fill: none; stroke: #cbcbcb"/>
     </g>
     <g id="line2d_4"/>
     <g id="text_2">
      <!-- 200 -->
      <g style="fill: #cccccc" transform="translate(194.548102 177.277812) scale(0.14 -0.14)">
       <defs>
        <path id="DejaVuSans-32" d="M 1228 531 
L 3431 531 
L 3431 0 
L 469 0 
L 469 531 
Q 828 903 1448 1529 
Q 2069 2156 2228 2338 
Q 2531 2678 2651 2914 
Q 2772 3150 2772 3378 
Q 2772 3750 2511 3984 
Q 2250 4219 1831 4219 
Q 1534 4219 1204 4116 
Q 875 4013 500 3803 
L 500 4441 
Q 881 4594 1212 4672 
Q 1544 4750 1819 4750 
Q 2544 4750 2975 4387 
Q 3406 4025 3406 3419 
Q 3406 3131 3298 2873 
Q 3191 2616 2906 2266 
Q 2828 2175 2409 1742 
Q 1991 1309 1228 531 
z
" transform="scale(0.015625)"/>
       </defs>
       <use xlink:href="#DejaVuSans-32"/>
       <use xlink:href="#DejaVuSans-30" transform="translate(63.623047 0)"/>
       <use xlink:href="#DejaVuSans-30" transform="translate(127.246094 0)"/>
      </g>
     </g>
    </g>
    <g id="xtick_3">
     <g id="line2d_5">
      <path d="M 324.988249 163.14 
L 324.988249 36.96 
" clip-path="url(#p7e6d2c2467)" style="fill: none; stroke: #cbcbcb"/>
     </g>
     <g id="line2d_6"/>
     <g id="text_3">
      <!-- 400 -->
      <g style="fill: #cccccc" transform="translate(311.626999 177.277812) scale(0.14 -0.14)">
       <defs>
        <path id="DejaVuSans-34" d="M 2419 4116 
L 825 1625 
L 2419 1625 
L 2419 4116 
z
M 2253 4666 
L 3047 4666 
L 3047 1625 
L 3713 1625 
L 3713 1100 
L 3047 1100 
L 3047 0 
L 2419 0 
L 2419 1100 
L 313 1100 
L 313 1709 
L 2253 4666 
z
" transform="scale(0.015625)"/>
       </defs>
       <use xlink:href="#DejaVuSans-34"/>
       <use xlink:href="#DejaVuSans-30" transform="translate(63.623047 0)"/>
       <use xlink:href="#DejaVuSans-30" transform="translate(127.246094 0)"/>
      </g>
     </g>
    </g>
    <g id="xtick_4">
     <g id="line2d_7">
      <path d="M 442.067146 163.14 
L 442.067146 36.96 
" clip-path="url(#p7e6d2c2467)" style="fill: none; stroke: #cbcbcb"/>
     </g>
     <g id="line2d_8"/>
     <g id="text_4">
      <!-- 600 -->
      <g style="fill: #cccccc" transform="translate(428.705896 177.277812) scale(0.14 -0.14)">
       <defs>
        <path id="DejaVuSans-36" d="M 2113 2584 
Q 1688 2584 1439 2293 
Q 1191 2003 1191 1497 
Q 1191 994 1439 701 
Q 1688 409 2113 409 
Q 2538 409 2786 701 
Q 3034 994 3034 1497 
Q 3034 2003 2786 2293 
Q 2538 2584 2113 2584 
z
M 3366 4563 
L 3366 3988 
Q 3128 4100 2886 4159 
Q 2644 4219 2406 4219 
Q 1781 4219 1451 3797 
Q 1122 3375 1075 2522 
Q 1259 2794 1537 2939 
Q 1816 3084 2150 3084 
Q 2853 3084 3261 2657 
Q 3669 2231 3669 1497 
Q 3669 778 3244 343 
Q 2819 -91 2113 -91 
Q 1303 -91 875 529 
Q 447 1150 447 2328 
Q 447 3434 972 4092 
Q 1497 4750 2381 4750 
Q 2619 4750 2861 4703 
Q 3103 4656 3366 4563 
z
" transform="scale(0.015625)"/>
       </defs>
       <use xlink:href="#DejaVuSans-36"/>
       <use xlink:href="#DejaVuSans-30" transform="translate(63.623047 0)"/>
       <use xlink:href="#DejaVuSans-30" transform="translate(127.246094 0)"/>
      </g>
     </g>
    </g>
    <g id="xtick_5">
     <g id="line2d_9">
      <path d="M 559.146043 163.14 
L 559.146043 36.96 
" clip-path="url(#p7e6d2c2467)" style="fill: none; stroke: #cbcbcb"/>
     </g>
     <g id="line2d_10"/>
     <g id="text_5">
      <!-- 800 -->
      <g style="fill: #cccccc" transform="translate(545.784793 177.277812) scale(0.14 -0.14)">
       <defs>
        <path id="DejaVuSans-38" d="M 2034 2216 
Q 1584 2216 1326 1975 
Q 1069 1734 1069 1313 
Q 1069 891 1326 650 
Q 1584 409 2034 409 
Q 2484 409 2743 651 
Q 3003 894 3003 1313 
Q 3003 1734 2745 1975 
Q 2488 2216 2034 2216 
z
M 1403 2484 
Q 997 2584 770 2862 
Q 544 3141 544 3541 
Q 544 4100 942 4425 
Q 1341 4750 2034 4750 
Q 2731 4750 3128 4425 
Q 3525 4100 3525 3541 
Q 3525 3141 3298 2862 
Q 3072 2584 2669 2484 
Q 3125 2378 3379 2068 
Q 3634 1759 3634 1313 
Q 3634 634 3220 271 
Q 2806 -91 2034 -91 
Q 1263 -91 848 271 
Q 434 634 434 1313 
Q 434 1759 690 2068 
Q 947 2378 1403 2484 
z
M 1172 3481 
Q 1172 3119 1398 2916 
Q 1625 2713 2034 2713 
Q 2441 2713 2670 2916 
Q 2900 3119 2900 3481 
Q 2900 3844 2670 4047 
Q 2441 4250 2034 4250 
Q 1625 4250 1398 4047 
Q 1172 3844 1172 3481 
z
" transform="scale(0.015625)"/>
       </defs>
       <use xlink:href="#DejaVuSans-38"/>
       <use xlink:href="#DejaVuSans-30" transform="translate(63.623047 0)"/>
       <use xlink:href="#DejaVuSans-30" transform="translate(127.246094 0)"/>
      </g>
     </g>
    </g>
    <g id="xtick_6">
     <g id="line2d_11">
      <path d="M 676.22494 163.14 
L 676.22494 36.96 
" clip-path="url(#p7e6d2c2467)" style="fill: none; stroke: #cbcbcb"/>
     </g>
     <g id="line2d_12"/>
     <g id="text_6">
      <!-- 1000 -->
      <g style="fill: #cccccc" transform="translate(658.40994 177.277812) scale(0.14 -0.14)">
       <defs>
        <path id="DejaVuSans-31" d="M 794 531 
L 1825 531 
L 1825 4091 
L 703 3866 
L 703 4441 
L 1819 4666 
L 2450 4666 
L 2450 531 
L 3481 531 
L 3481 0 
L 794 0 
L 794 531 
z
" transform="scale(0.015625)"/>
       </defs>
       <use xlink:href="#DejaVuSans-31"/>
       <use xlink:href="#DejaVuSans-30" transform="translate(63.623047 0)"/>
       <use xlink:href="#DejaVuSans-30" transform="translate(127.246094 0)"/>
       <use xlink:href="#DejaVuSans-30" transform="translate(190.869141 0)"/>
      </g>
     </g>
    </g>
    <g id="text_7">
     <!-- Continuous Time -->
     <g style="fill: #cccccc" transform="translate(312.571312 196.95475) scale(0.168 -0.168)">
      <defs>
       <path id="DejaVuSans-43" d="M 4122 4306 
L 4122 3641 
Q 3803 3938 3442 4084 
Q 3081 4231 2675 4231 
Q 1875 4231 1450 3742 
Q 1025 3253 1025 2328 
Q 1025 1406 1450 917 
Q 1875 428 2675 428 
Q 3081 428 3442 575 
Q 3803 722 4122 1019 
L 4122 359 
Q 3791 134 3420 21 
Q 3050 -91 2638 -91 
Q 1578 -91 968 557 
Q 359 1206 359 2328 
Q 359 3453 968 4101 
Q 1578 4750 2638 4750 
Q 3056 4750 3426 4639 
Q 3797 4528 4122 4306 
z
" transform="scale(0.015625)"/>
       <path id="DejaVuSans-6f" d="M 1959 3097 
Q 1497 3097 1228 2736 
Q 959 2375 959 1747 
Q 959 1119 1226 758 
Q 1494 397 1959 397 
Q 2419 397 2687 759 
Q 2956 1122 2956 1747 
Q 2956 2369 2687 2733 
Q 2419 3097 1959 3097 
z
M 1959 3584 
Q 2709 3584 3137 3096 
Q 3566 2609 3566 1747 
Q 3566 888 3137 398 
Q 2709 -91 1959 -91 
Q 1206 -91 779 398 
Q 353 888 353 1747 
Q 353 2609 779 3096 
Q 1206 3584 1959 3584 
z
" transform="scale(0.015625)"/>
       <path id="DejaVuSans-6e" d="M 3513 2113 
L 3513 0 
L 2938 0 
L 2938 2094 
Q 2938 2591 2744 2837 
Q 2550 3084 2163 3084 
Q 1697 3084 1428 2787 
Q 1159 2491 1159 1978 
L 1159 0 
L 581 0 
L 581 3500 
L 1159 3500 
L 1159 2956 
Q 1366 3272 1645 3428 
Q 1925 3584 2291 3584 
Q 2894 3584 3203 3211 
Q 3513 2838 3513 2113 
z
" transform="scale(0.015625)"/>
       <path id="DejaVuSans-74" d="M 1172 4494 
L 1172 3500 
L 2356 3500 
L 2356 3053 
L 1172 3053 
L 1172 1153 
Q 1172 725 1289 603 
Q 1406 481 1766 481 
L 2356 481 
L 2356 0 
L 1766 0 
Q 1100 0 847 248 
Q 594 497 594 1153 
L 594 3053 
L 172 3053 
L 172 3500 
L 594 3500 
L 594 4494 
L 1172 4494 
z
" transform="scale(0.015625)"/>
       <path id="DejaVuSans-69" d="M 603 3500 
L 1178 3500 
L 1178 0 
L 603 0 
L 603 3500 
z
M 603 4863 
L 1178 4863 
L 1178 4134 
L 603 4134 
L 603 4863 
z
" transform="scale(0.015625)"/>
       <path id="DejaVuSans-75" d="M 544 1381 
L 544 3500 
L 1119 3500 
L 1119 1403 
Q 1119 906 1312 657 
Q 1506 409 1894 409 
Q 2359 409 2629 706 
Q 2900 1003 2900 1516 
L 2900 3500 
L 3475 3500 
L 3475 0 
L 2900 0 
L 2900 538 
Q 2691 219 2414 64 
Q 2138 -91 1772 -91 
Q 1169 -91 856 284 
Q 544 659 544 1381 
z
M 1991 3584 
L 1991 3584 
z
" transform="scale(0.015625)"/>
       <path id="DejaVuSans-73" d="M 2834 3397 
L 2834 2853 
Q 2591 2978 2328 3040 
Q 2066 3103 1784 3103 
Q 1356 3103 1142 2972 
Q 928 2841 928 2578 
Q 928 2378 1081 2264 
Q 1234 2150 1697 2047 
L 1894 2003 
Q 2506 1872 2764 1633 
Q 3022 1394 3022 966 
Q 3022 478 2636 193 
Q 2250 -91 1575 -91 
Q 1294 -91 989 -36 
Q 684 19 347 128 
L 347 722 
Q 666 556 975 473 
Q 1284 391 1588 391 
Q 1994 391 2212 530 
Q 2431 669 2431 922 
Q 2431 1156 2273 1281 
Q 2116 1406 1581 1522 
L 1381 1569 
Q 847 1681 609 1914 
Q 372 2147 372 2553 
Q 372 3047 722 3315 
Q 1072 3584 1716 3584 
Q 2034 3584 2315 3537 
Q 2597 3491 2834 3397 
z
" transform="scale(0.015625)"/>
       <path id="DejaVuSans-20" transform="scale(0.015625)"/>
       <path id="DejaVuSans-54" d="M -19 4666 
L 3928 4666 
L 3928 4134 
L 2272 4134 
L 2272 0 
L 1638 0 
L 1638 4134 
L -19 4134 
L -19 4666 
z
" transform="scale(0.015625)"/>
       <path id="DejaVuSans-6d" d="M 3328 2828 
Q 3544 3216 3844 3400 
Q 4144 3584 4550 3584 
Q 5097 3584 5394 3201 
Q 5691 2819 5691 2113 
L 5691 0 
L 5113 0 
L 5113 2094 
Q 5113 2597 4934 2840 
Q 4756 3084 4391 3084 
Q 3944 3084 3684 2787 
Q 3425 2491 3425 1978 
L 3425 0 
L 2847 0 
L 2847 2094 
Q 2847 2600 2669 2842 
Q 2491 3084 2119 3084 
Q 1678 3084 1418 2786 
Q 1159 2488 1159 1978 
L 1159 0 
L 581 0 
L 581 3500 
L 1159 3500 
L 1159 2956 
Q 1356 3278 1631 3431 
Q 1906 3584 2284 3584 
Q 2666 3584 2933 3390 
Q 3200 3197 3328 2828 
z
" transform="scale(0.015625)"/>
       <path id="DejaVuSans-65" d="M 3597 1894 
L 3597 1613 
L 953 1613 
Q 991 1019 1311 708 
Q 1631 397 2203 397 
Q 2534 397 2845 478 
Q 3156 559 3463 722 
L 3463 178 
Q 3153 47 2828 -22 
Q 2503 -91 2169 -91 
Q 1331 -91 842 396 
Q 353 884 353 1716 
Q 353 2575 817 3079 
Q 1281 3584 2069 3584 
Q 2775 3584 3186 3129 
Q 3597 2675 3597 1894 
z
M 3022 2063 
Q 3016 2534 2758 2815 
Q 2500 3097 2075 3097 
Q 1594 3097 1305 2825 
Q 1016 2553 972 2059 
L 3022 2063 
z
" transform="scale(0.015625)"/>
      </defs>
      <use xlink:href="#DejaVuSans-43"/>
      <use xlink:href="#DejaVuSans-6f" transform="translate(69.824219 0)"/>
      <use xlink:href="#DejaVuSans-6e" transform="translate(131.005859 0)"/>
      <use xlink:href="#DejaVuSans-74" transform="translate(194.384766 0)"/>
      <use xlink:href="#DejaVuSans-69" transform="translate(233.59375 0)"/>
      <use xlink:href="#DejaVuSans-6e" transform="translate(261.376953 0)"/>
      <use xlink:href="#DejaVuSans-75" transform="translate(324.755859 0)"/>
      <use xlink:href="#DejaVuSans-6f" transform="translate(388.134766 0)"/>
      <use xlink:href="#DejaVuSans-75" transform="translate(449.316406 0)"/>
      <use xlink:href="#DejaVuSans-73" transform="translate(512.695312 0)"/>
      <use xlink:href="#DejaVuSans-20" transform="translate(564.794922 0)"/>
      <use xlink:href="#DejaVuSans-54" transform="translate(596.582031 0)"/>
      <use xlink:href="#DejaVuSans-69" transform="translate(654.541016 0)"/>
      <use xlink:href="#DejaVuSans-6d" transform="translate(682.324219 0)"/>
      <use xlink:href="#DejaVuSans-65" transform="translate(779.736328 0)"/>
     </g>
    </g>
   </g>
   <g id="matplotlib.axis_2">
    <g id="ytick_1">
     <g id="line2d_13">
      <path d="M 61.59 143.37922 
L 704.88 143.37922 
" clip-path="url(#p7e6d2c2467)" style="fill: none; stroke: #cbcbcb"/>
     </g>
     <g id="line2d_14"/>
     <g id="text_8">
      <!-- 0 -->
      <g style="fill: #cccccc" transform="translate(49.1825 148.698126) scale(0.14 -0.14)">
       <use xlink:href="#DejaVuSans-30"/>
      </g>
     </g>
    </g>
    <g id="ytick_2">
     <g id="line2d_15">
      <path d="M 61.59 100.108105 
L 704.88 100.108105 
" clip-path="url(#p7e6d2c2467)" style="fill: none; stroke: #cbcbcb"/>
     </g>
     <g id="line2d_16"/>
     <g id="text_9">
      <!-- 1 -->
      <g style="fill: #cccccc" transform="translate(49.1825 105.427011) scale(0.14 -0.14)">
       <use xlink:href="#DejaVuSans-31"/>
      </g>
     </g>
    </g>
    <g id="ytick_3">
     <g id="line2d_17">
      <path d="M 61.59 56.83699 
L 704.88 56.83699 
" clip-path="url(#p7e6d2c2467)" style="fill: none; stroke: #cbcbcb"/>
     </g>
     <g id="line2d_18"/>
     <g id="text_10">
      <!-- 2 -->
      <g style="fill: #cccccc" transform="translate(49.1825 62.155896) scale(0.14 -0.14)">
       <use xlink:href="#DejaVuSans-32"/>
      </g>
     </g>
    </g>
    <g id="text_11">
     <!-- Signal Amplitude -->
     <g style="fill: #cccccc" transform="translate(41.688625 171.569438) rotate(-90) scale(0.168 -0.168)">
      <defs>
       <path id="DejaVuSans-53" d="M 3425 4513 
L 3425 3897 
Q 3066 4069 2747 4153 
Q 2428 4238 2131 4238 
Q 1616 4238 1336 4038 
Q 1056 3838 1056 3469 
Q 1056 3159 1242 3001 
Q 1428 2844 1947 2747 
L 2328 2669 
Q 3034 2534 3370 2195 
Q 3706 1856 3706 1288 
Q 3706 609 3251 259 
Q 2797 -91 1919 -91 
Q 1588 -91 1214 -16 
Q 841 59 441 206 
L 441 856 
Q 825 641 1194 531 
Q 1563 422 1919 422 
Q 2459 422 2753 634 
Q 3047 847 3047 1241 
Q 3047 1584 2836 1778 
Q 2625 1972 2144 2069 
L 1759 2144 
Q 1053 2284 737 2584 
Q 422 2884 422 3419 
Q 422 4038 858 4394 
Q 1294 4750 2059 4750 
Q 2388 4750 2728 4690 
Q 3069 4631 3425 4513 
z
" transform="scale(0.015625)"/>
       <path id="DejaVuSans-67" d="M 2906 1791 
Q 2906 2416 2648 2759 
Q 2391 3103 1925 3103 
Q 1463 3103 1205 2759 
Q 947 2416 947 1791 
Q 947 1169 1205 825 
Q 1463 481 1925 481 
Q 2391 481 2648 825 
Q 2906 1169 2906 1791 
z
M 3481 434 
Q 3481 -459 3084 -895 
Q 2688 -1331 1869 -1331 
Q 1566 -1331 1297 -1286 
Q 1028 -1241 775 -1147 
L 775 -588 
Q 1028 -725 1275 -790 
Q 1522 -856 1778 -856 
Q 2344 -856 2625 -561 
Q 2906 -266 2906 331 
L 2906 616 
Q 2728 306 2450 153 
Q 2172 0 1784 0 
Q 1141 0 747 490 
Q 353 981 353 1791 
Q 353 2603 747 3093 
Q 1141 3584 1784 3584 
Q 2172 3584 2450 3431 
Q 2728 3278 2906 2969 
L 2906 3500 
L 3481 3500 
L 3481 434 
z
" transform="scale(0.015625)"/>
       <path id="DejaVuSans-61" d="M 2194 1759 
Q 1497 1759 1228 1600 
Q 959 1441 959 1056 
Q 959 750 1161 570 
Q 1363 391 1709 391 
Q 2188 391 2477 730 
Q 2766 1069 2766 1631 
L 2766 1759 
L 2194 1759 
z
M 3341 1997 
L 3341 0 
L 2766 0 
L 2766 531 
Q 2569 213 2275 61 
Q 1981 -91 1556 -91 
Q 1019 -91 701 211 
Q 384 513 384 1019 
Q 384 1609 779 1909 
Q 1175 2209 1959 2209 
L 2766 2209 
L 2766 2266 
Q 2766 2663 2505 2880 
Q 2244 3097 1772 3097 
Q 1472 3097 1187 3025 
Q 903 2953 641 2809 
L 641 3341 
Q 956 3463 1253 3523 
Q 1550 3584 1831 3584 
Q 2591 3584 2966 3190 
Q 3341 2797 3341 1997 
z
" transform="scale(0.015625)"/>
       <path id="DejaVuSans-6c" d="M 603 4863 
L 1178 4863 
L 1178 0 
L 603 0 
L 603 4863 
z
" transform="scale(0.015625)"/>
       <path id="DejaVuSans-41" d="M 2188 4044 
L 1331 1722 
L 3047 1722 
L 2188 4044 
z
M 1831 4666 
L 2547 4666 
L 4325 0 
L 3669 0 
L 3244 1197 
L 1141 1197 
L 716 0 
L 50 0 
L 1831 4666 
z
" transform="scale(0.015625)"/>
       <path id="DejaVuSans-70" d="M 1159 525 
L 1159 -1331 
L 581 -1331 
L 581 3500 
L 1159 3500 
L 1159 2969 
Q 1341 3281 1617 3432 
Q 1894 3584 2278 3584 
Q 2916 3584 3314 3078 
Q 3713 2572 3713 1747 
Q 3713 922 3314 415 
Q 2916 -91 2278 -91 
Q 1894 -91 1617 61 
Q 1341 213 1159 525 
z
M 3116 1747 
Q 3116 2381 2855 2742 
Q 2594 3103 2138 3103 
Q 1681 3103 1420 2742 
Q 1159 2381 1159 1747 
Q 1159 1113 1420 752 
Q 1681 391 2138 391 
Q 2594 391 2855 752 
Q 3116 1113 3116 1747 
z
" transform="scale(0.015625)"/>
       <path id="DejaVuSans-64" d="M 2906 2969 
L 2906 4863 
L 3481 4863 
L 3481 0 
L 2906 0 
L 2906 525 
Q 2725 213 2448 61 
Q 2172 -91 1784 -91 
Q 1150 -91 751 415 
Q 353 922 353 1747 
Q 353 2572 751 3078 
Q 1150 3584 1784 3584 
Q 2172 3584 2448 3432 
Q 2725 3281 2906 2969 
z
M 947 1747 
Q 947 1113 1208 752 
Q 1469 391 1925 391 
Q 2381 391 2643 752 
Q 2906 1113 2906 1747 
Q 2906 2381 2643 2742 
Q 2381 3103 1925 3103 
Q 1469 3103 1208 2742 
Q 947 2381 947 1747 
z
" transform="scale(0.015625)"/>
      </defs>
      <use xlink:href="#DejaVuSans-53"/>
      <use xlink:href="#DejaVuSans-69" transform="translate(63.476562 0)"/>
      <use xlink:href="#DejaVuSans-67" transform="translate(91.259766 0)"/>
      <use xlink:href="#DejaVuSans-6e" transform="translate(154.736328 0)"/>
      <use xlink:href="#DejaVuSans-61" transform="translate(218.115234 0)"/>
      <use xlink:href="#DejaVuSans-6c" transform="translate(279.394531 0)"/>
      <use xlink:href="#DejaVuSans-20" transform="translate(307.177734 0)"/>
      <use xlink:href="#DejaVuSans-41" transform="translate(338.964844 0)"/>
      <use xlink:href="#DejaVuSans-6d" transform="translate(407.373047 0)"/>
      <use xlink:href="#DejaVuSans-70" transform="translate(504.785156 0)"/>
      <use xlink:href="#DejaVuSans-6c" transform="translate(568.261719 0)"/>
      <use xlink:href="#DejaVuSans-69" transform="translate(596.044922 0)"/>
      <use xlink:href="#DejaVuSans-74" transform="translate(623.828125 0)"/>
      <use xlink:href="#DejaVuSans-75" transform="translate(663.037109 0)"/>
      <use xlink:href="#DejaVuSans-64" transform="translate(726.416016 0)"/>
      <use xlink:href="#DejaVuSans-65" transform="translate(789.892578 0)"/>
     </g>
    </g>
   </g>
   <g id="line2d_19">
    <path d="M 90.830455 141.229883 
L 91.415849 143.977505 
L 92.586638 136.7889 
L 93.172032 144.392428 
L 93.757427 144.392357 
L 94.342821 136.54579 
L 94.928216 140.058445 
L 95.51361 145.410688 
L 96.099005 141.031502 
L 96.684399 145.38448 
L 97.269794 145.394485 
L 97.855188 142.332222 
L 98.440583 151.658197 
L 99.025977 150.843132 
L 99.611372 145.812301 
L 100.196766 147.761853 
L 100.782161 142.019437 
L 101.367555 147.308342 
L 101.95295 149.490416 
L 102.538344 137.037195 
L 103.123739 144.356179 
L 103.709133 143.087018 
L 104.294528 149.544264 
L 104.879922 145.734825 
L 105.465317 142.899246 
L 106.050711 148.359698 
L 106.636106 141.753533 
L 107.2215 145.978251 
L 107.806895 144.641412 
L 108.392289 145.982872 
L 108.977684 135.364206 
L 109.563078 143.437624 
L 110.148473 147.956053 
L 110.733867 139.819977 
L 111.319262 148.661947 
L 111.904656 142.475444 
L 112.490051 151.858931 
L 113.075445 149.126429 
L 113.660839 142.52738 
L 114.246234 140.183793 
L 114.831628 142.637691 
L 115.417023 143.879643 
L 116.002417 144.682129 
L 116.587812 149.77695 
L 117.173206 146.494066 
L 117.758601 145.372456 
L 118.343995 138.804934 
L 118.92939 141.892346 
L 119.514784 151.008092 
L 120.100179 141.976873 
L 120.685573 145.045514 
L 121.270968 146.308337 
L 121.856362 140.732429 
L 122.441757 138.91797 
L 123.027151 139.349467 
L 123.612546 147.010608 
L 124.19794 144.717217 
L 125.368729 139.157928 
L 125.954124 145.452661 
L 126.539518 144.182587 
L 127.124913 148.166455 
L 127.710307 148.55534 
L 128.295702 139.86333 
L 128.881096 137.510618 
L 129.466491 143.690816 
L 130.051885 139.036821 
L 130.63728 141.814381 
L 131.222674 146.170725 
L 132.393463 136.723964 
L 132.978857 143.534243 
L 133.564252 136.608833 
L 134.149646 154.715149 
L 134.735041 139.822756 
L 135.320435 143.002558 
L 135.90583 144.673058 
L 136.491224 142.982161 
L 137.076619 151.979653 
L 137.662013 144.329765 
L 138.247408 141.833954 
L 138.832802 136.984208 
L 139.418197 145.621833 
L 140.003591 146.877662 
L 140.588986 145.550379 
L 141.17438 139.418173 
L 141.759775 141.956677 
L 142.345169 145.671552 
L 142.930564 141.158255 
L 143.515958 142.959155 
L 144.101353 139.187785 
L 144.686747 146.417082 
L 145.272142 144.797051 
L 145.857536 145.075916 
L 146.442931 149.712013 
L 147.028325 142.097875 
L 147.61372 142.249605 
L 148.784509 144.394305 
L 149.369903 143.44852 
L 149.955298 135.653627 
L 150.540692 133.537382 
L 151.126087 133.106837 
L 151.711481 119.103998 
L 152.296876 112.658024 
L 152.88227 98.867439 
L 153.467664 102.326077 
L 154.053059 95.255448 
L 154.638453 98.805571 
L 155.223848 94.219627 
L 155.809242 86.539782 
L 156.394637 73.932792 
L 157.565426 69.038438 
L 158.15082 70.238473 
L 158.736215 72.342218 
L 159.321609 73.801767 
L 159.907004 60.684969 
L 160.492398 57.072958 
L 161.077793 54.728715 
L 161.663187 65.424269 
L 162.248582 51.981644 
L 162.833976 54.033015 
L 163.419371 46.866786 
L 164.004765 45.515087 
L 164.59016 61.358607 
L 165.175554 59.877351 
L 165.760949 55.920821 
L 166.346343 67.018299 
L 166.931738 69.98566 
L 167.517132 71.167382 
L 168.102527 69.520162 
L 168.687921 64.523482 
L 169.273316 78.468937 
L 169.85871 62.200225 
L 170.444105 88.00716 
L 171.029499 90.90341 
L 171.614894 82.788681 
L 172.200288 92.412577 
L 172.785683 87.896626 
L 173.956471 108.118141 
L 174.541866 110.270476 
L 175.12726 115.731488 
L 175.712655 114.220657 
L 176.883444 144.847433 
L 177.468838 129.186786 
L 178.639627 142.29531 
L 179.225022 141.8801 
L 179.810416 146.321763 
L 180.395811 142.374233 
L 180.981205 142.111063 
L 181.5666 146.470298 
L 182.151994 135.305806 
L 182.737389 141.328892 
L 183.322783 148.534123 
L 183.908178 140.53824 
L 184.493572 147.596776 
L 185.078967 139.973417 
L 185.664361 138.365848 
L 186.249756 146.930404 
L 186.83515 139.210584 
L 187.420545 141.593071 
L 188.005939 139.822074 
L 188.591334 135.171585 
L 189.176728 144.441042 
L 189.762123 146.640721 
L 190.347517 147.228248 
L 190.932912 146.909322 
L 191.518306 143.712848 
L 192.103701 141.903018 
L 192.689095 142.181948 
L 193.274489 139.799906 
L 193.859884 143.32296 
L 194.445278 137.089616 
L 195.030673 144.52442 
L 195.616067 131.608745 
L 196.201462 140.671888 
L 196.786856 147.088237 
L 197.372251 148.013091 
L 197.957645 141.291508 
L 198.54304 144.346169 
L 199.128434 140.28966 
L 199.713829 141.331468 
L 200.299223 143.694359 
L 201.470012 149.934133 
L 202.055407 145.31134 
L 202.640801 139.673487 
L 203.226196 142.452813 
L 203.81159 148.769671 
L 204.396985 142.629847 
L 204.982379 141.711909 
L 205.567774 147.20377 
L 206.153168 142.714035 
L 206.738563 143.127345 
L 207.323957 148.32498 
L 207.909352 141.831034 
L 208.494746 140.952643 
L 209.080141 138.692737 
L 209.665535 138.819301 
L 210.25093 149.340549 
L 210.836324 147.437294 
L 211.421719 141.150605 
L 212.592508 141.150551 
L 213.177902 126.708021 
L 213.763296 140.908913 
L 214.348691 138.465501 
L 214.934085 139.251148 
L 215.51948 140.560578 
L 216.104874 144.743425 
L 216.690269 140.095076 
L 217.275663 146.723321 
L 217.861058 144.403961 
L 218.446452 145.479442 
L 219.031847 143.024942 
L 219.617241 133.363434 
L 220.202636 151.459085 
L 220.78803 140.409696 
L 221.373425 150.357622 
L 221.958819 145.421322 
L 222.544214 138.66721 
L 223.715003 148.042742 
L 224.300397 146.474419 
L 224.885792 140.438525 
L 225.471186 146.539598 
L 226.056581 142.44258 
L 226.641975 143.182026 
L 227.22737 146.198768 
L 227.812764 134.102135 
L 228.398159 140.636182 
L 228.983553 152.142238 
L 229.568948 142.572412 
L 230.154342 146.242844 
L 230.739737 139.690646 
L 231.325131 146.808546 
L 232.49592 141.194084 
L 233.081314 139.633001 
L 233.666709 148.573037 
L 234.252103 144.826644 
L 234.837498 145.434362 
L 235.422892 146.206249 
L 236.008287 135.739903 
L 236.593681 141.626819 
L 237.179076 148.835206 
L 237.76447 139.407529 
L 238.349865 134.196414 
L 238.935259 138.911628 
L 239.520654 149.953703 
L 240.106048 145.474555 
L 240.691443 137.897154 
L 241.276837 146.441385 
L 241.862232 141.458764 
L 242.447626 140.027292 
L 243.033021 147.390152 
L 243.618415 143.636793 
L 244.20381 157.404545 
L 244.789204 147.81186 
L 245.374599 144.472111 
L 245.959993 148.778517 
L 246.545388 136.315594 
L 247.130782 149.567601 
L 247.716177 145.283342 
L 248.301571 142.813491 
L 248.886966 137.14267 
L 249.47236 149.592356 
L 250.057755 138.346081 
L 251.228544 147.626318 
L 251.813938 141.379647 
L 252.399333 142.517867 
L 252.984727 145.976426 
L 253.570121 143.077179 
L 254.155516 145.046515 
L 255.326305 140.514107 
L 255.911699 136.516349 
L 256.497094 148.735386 
L 257.082488 134.149347 
L 257.667883 151.826122 
L 258.253277 144.036011 
L 258.838672 140.833506 
L 259.424066 142.163337 
L 260.009461 146.07371 
L 260.594855 144.279788 
L 261.18025 145.51249 
L 261.765644 145.929467 
L 262.351039 139.702897 
L 262.936433 141.834374 
L 263.521828 146.377517 
L 264.107222 139.486551 
L 264.692617 142.049501 
L 265.278011 139.861875 
L 265.863406 140.654746 
L 266.4488 149.673254 
L 267.619589 126.941099 
L 268.204984 123.066821 
L 268.790378 123.899062 
L 269.375773 118.507553 
L 269.961167 105.484753 
L 270.546562 103.31522 
L 271.131956 96.191859 
L 271.717351 98.646013 
L 272.302745 89.220105 
L 272.88814 94.851521 
L 273.473534 74.630795 
L 274.058928 83.3217 
L 274.644323 71.63715 
L 275.229717 77.153734 
L 275.815112 72.024603 
L 276.400506 62.970471 
L 276.985901 64.865004 
L 277.571295 61.225852 
L 278.15669 60.197284 
L 278.742084 54.367264 
L 279.327479 61.154422 
L 279.912873 53.734549 
L 280.498268 56.923645 
L 281.083662 64.271923 
L 281.669057 58.96112 
L 282.254451 56.373196 
L 282.839846 49.812193 
L 283.42524 54.016041 
L 284.010635 63.72372 
L 284.596029 69.637709 
L 285.181424 67.714675 
L 285.766818 63.317092 
L 286.352213 66.527555 
L 286.937607 74.493275 
L 287.523002 78.427778 
L 288.108396 83.530706 
L 288.693791 86.614193 
L 289.279185 94.906328 
L 289.86458 100.035079 
L 290.449974 100.018032 
L 291.035369 101.621422 
L 291.620763 112.871601 
L 292.206158 114.977072 
L 292.791552 120.77255 
L 293.376946 132.761685 
L 293.962341 147.049135 
L 294.547735 136.978177 
L 295.13313 142.803536 
L 295.718524 142.033888 
L 296.303919 136.995189 
L 296.889313 139.668031 
L 297.474708 144.071292 
L 298.060102 143.461505 
L 298.645497 147.717277 
L 299.230891 143.459329 
L 299.816286 144.628278 
L 300.40168 141.982781 
L 300.987075 146.958741 
L 301.572469 141.13195 
L 302.157864 136.746888 
L 302.743258 143.849837 
L 303.328653 141.640969 
L 303.914047 140.39289 
L 304.499442 145.115346 
L 305.084836 142.409547 
L 305.670231 143.324731 
L 306.255625 142.956565 
L 306.84102 146.72412 
L 307.426414 143.273162 
L 308.011809 141.224326 
L 308.597203 137.09996 
L 309.182598 139.228348 
L 309.767992 134.06216 
L 310.353387 146.699619 
L 310.938781 139.604592 
L 311.524176 142.585879 
L 312.10957 133.903699 
L 312.694965 146.876817 
L 313.280359 147.01279 
L 313.865753 145.972859 
L 314.451148 152.569554 
L 315.036542 145.654221 
L 315.621937 146.664072 
L 316.207331 142.72845 
L 316.792726 141.900404 
L 317.37812 135.26082 
L 317.963515 139.26663 
L 318.548909 145.875547 
L 319.134304 147.266761 
L 319.719698 141.250631 
L 320.305093 149.092017 
L 320.890487 135.454294 
L 321.475882 138.275651 
L 322.061276 145.409396 
L 322.646671 150.792144 
L 323.232065 137.520863 
L 323.81746 143.874847 
L 324.402854 138.023051 
L 324.988249 150.278486 
L 325.573643 145.972783 
L 326.159038 143.35653 
L 326.744432 143.17593 
L 327.329827 145.326704 
L 327.915221 140.684079 
L 328.500616 147.998933 
L 329.08601 143.995312 
L 329.671405 142.858688 
L 330.256799 141.153186 
L 330.842194 140.299983 
L 331.427588 148.245672 
L 332.012983 150.017503 
L 332.598377 137.85057 
L 333.769166 146.618005 
L 334.35456 136.667213 
L 334.939955 142.878683 
L 335.525349 138.27627 
L 336.110744 143.08706 
L 336.696138 134.462134 
L 337.281533 135.783665 
L 337.866927 144.456516 
L 338.452322 139.175124 
L 339.037716 140.586606 
L 339.623111 137.456999 
L 340.208505 147.554552 
L 340.7939 140.410599 
L 341.379294 138.799299 
L 341.964689 150.989482 
L 342.550083 148.499312 
L 343.135478 152.203205 
L 343.720872 144.544974 
L 344.306267 140.274335 
L 344.891661 136.878354 
L 345.477056 143.058604 
L 346.06245 136.332019 
L 346.647845 149.351073 
L 347.233239 150.749946 
L 347.818634 143.619581 
L 348.404028 141.717326 
L 348.989423 143.520694 
L 349.574817 152.325273 
L 350.160212 143.764853 
L 350.745606 149.023805 
L 351.331001 140.481472 
L 351.916395 141.792909 
L 352.50179 147.446185 
L 353.087184 145.60278 
L 353.672578 147.962555 
L 354.257973 139.331939 
L 354.843367 146.233853 
L 355.428762 127.541162 
L 356.014156 125.25888 
L 356.599551 118.92664 
L 357.184945 124.03969 
L 357.77034 108.714368 
L 358.355734 114.867809 
L 358.941129 106.006249 
L 359.526523 93.068537 
L 360.111918 83.94092 
L 360.697312 86.186643 
L 361.282707 82.436211 
L 361.868101 76.243125 
L 362.453496 75.552956 
L 363.03889 71.776617 
L 363.624285 56.315843 
L 364.209679 63.622441 
L 364.795074 65.669272 
L 365.380468 60.107401 
L 365.965863 56.820411 
L 366.551257 63.831041 
L 367.136652 61.738851 
L 367.722046 56.268184 
L 368.307441 42.695455 
L 368.892835 62.919425 
L 369.47823 53.432528 
L 370.063624 59.863328 
L 370.649019 45.961657 
L 371.819808 61.325035 
L 372.405202 66.552944 
L 372.990597 66.619502 
L 373.575991 66.530355 
L 374.161385 76.728991 
L 374.74678 77.700318 
L 375.332174 76.964733 
L 375.917569 93.165275 
L 376.502963 77.394622 
L 377.088358 84.768395 
L 377.673752 97.489502 
L 378.259147 88.554709 
L 378.844541 106.14448 
L 379.429936 114.086266 
L 380.01533 110.267225 
L 380.600725 119.028051 
L 381.186119 136.06791 
L 381.771514 139.367323 
L 382.356908 134.723737 
L 382.942303 153.027645 
L 383.527697 139.371547 
L 384.113092 135.116961 
L 384.698486 149.430978 
L 385.283881 140.94319 
L 385.869275 146.194623 
L 386.45467 145.487066 
L 387.040064 145.942575 
L 387.625459 147.117805 
L 388.210853 143.169262 
L 388.796248 146.974834 
L 389.381642 142.208923 
L 389.967037 143.596606 
L 390.552431 144.413175 
L 391.137826 147.306349 
L 391.72322 145.874974 
L 392.308615 140.110558 
L 392.894009 141.211696 
L 393.479403 147.609211 
L 394.064798 142.949398 
L 394.650192 140.127884 
L 395.235587 150.602923 
L 395.820981 141.02804 
L 396.406376 146.246467 
L 396.99177 140.910176 
L 397.577165 146.681928 
L 398.162559 151.189146 
L 398.747954 150.421778 
L 399.333348 143.171151 
L 399.918743 142.255372 
L 400.504137 147.292299 
L 401.089532 140.615959 
L 401.674926 150.568803 
L 402.260321 143.665155 
L 402.845715 148.619422 
L 403.43111 146.199788 
L 404.016504 143.174121 
L 404.601899 147.102325 
L 405.187293 145.043235 
L 405.772688 139.024879 
L 406.358082 145.875496 
L 406.943477 139.763087 
L 407.528871 148.267588 
L 408.114266 141.086698 
L 408.69966 137.141392 
L 409.285055 154.074302 
L 410.455844 140.882165 
L 411.041238 144.25782 
L 411.626633 141.773231 
L 412.212027 145.992731 
L 412.797422 143.004537 
L 413.382816 144.052853 
L 413.96821 138.326097 
L 414.553605 142.278313 
L 415.138999 141.918376 
L 415.724394 145.161458 
L 416.309788 145.489147 
L 416.895183 145.250948 
L 417.480577 141.672382 
L 418.065972 145.200867 
L 418.651366 142.125332 
L 419.236761 134.398729 
L 420.40755 144.78996 
L 420.992944 138.181434 
L 422.163733 152.198412 
L 422.749128 147.741322 
L 423.334522 151.474345 
L 423.919917 144.900258 
L 424.505311 143.299522 
L 425.090706 136.125089 
L 425.6761 141.964569 
L 426.261495 144.327293 
L 426.846889 139.79029 
L 427.432284 152.947049 
L 428.017678 142.35969 
L 428.603073 140.043601 
L 429.188467 149.777228 
L 429.773862 138.430069 
L 430.944651 145.176217 
L 431.530045 140.641102 
L 432.11544 133.553679 
L 432.700834 142.592265 
L 433.286229 142.305142 
L 433.871623 145.366926 
L 434.457017 147.056592 
L 435.042412 139.786265 
L 435.627806 147.08359 
L 436.213201 143.069545 
L 436.798595 145.446097 
L 437.38399 141.306621 
L 437.969384 141.935427 
L 438.554779 138.889669 
L 439.140173 145.586118 
L 439.725568 144.546999 
L 440.310962 147.61444 
L 440.896357 145.301727 
L 441.481751 141.746599 
L 442.067146 140.103646 
L 442.65254 147.369532 
L 443.237935 139.616338 
L 443.823329 137.513224 
L 444.408724 141.590241 
L 444.994118 135.258115 
L 445.579513 146.727492 
L 446.750302 151.075941 
L 447.335696 136.90567 
L 448.506485 143.619741 
L 449.09188 142.167765 
L 449.677274 148.249337 
L 450.262669 132.796179 
L 450.848063 142.820066 
L 451.433458 142.905857 
L 452.018852 140.238747 
L 453.189641 142.410449 
L 453.775035 146.799691 
L 454.945824 135.23549 
L 455.531219 137.557438 
L 456.116613 136.485324 
L 456.702008 145.591307 
L 457.287402 147.661351 
L 457.872797 143.923514 
L 458.458191 143.138092 
L 459.043586 138.644531 
L 459.62898 150.702703 
L 460.214375 136.760685 
L 460.799769 144.062938 
L 461.385164 145.226382 
L 462.555953 150.53997 
L 463.141347 139.817269 
L 463.726742 143.061965 
L 464.312136 148.961025 
L 464.897531 148.98317 
L 465.482925 144.832198 
L 466.06832 136.157178 
L 466.653714 144.502501 
L 467.239109 149.883487 
L 467.824503 144.442578 
L 468.409898 144.559325 
L 468.995292 155.048949 
L 469.580687 143.61416 
L 470.166081 144.3785 
L 470.751476 140.366658 
L 471.33687 135.378581 
L 471.922265 138.504448 
L 472.507659 144.542732 
L 473.093054 148.167281 
L 473.678448 132.244005 
L 474.263842 143.122975 
L 475.434631 143.483612 
L 476.020026 142.522085 
L 476.60542 144.003884 
L 477.190815 145.86152 
L 477.776209 145.74554 
L 478.361604 143.520947 
L 478.946998 145.73068 
L 479.532393 146.463783 
L 480.117787 142.918685 
L 480.703182 144.482535 
L 481.288576 136.871275 
L 481.873971 154.850262 
L 482.459365 138.656148 
L 483.04476 137.987271 
L 483.630154 152.351011 
L 484.215549 144.862068 
L 484.800943 144.986486 
L 485.386338 149.46968 
L 485.971732 146.74492 
L 486.557127 148.184806 
L 487.142521 135.796951 
L 487.727916 139.330435 
L 488.31331 137.877059 
L 488.898705 140.256465 
L 489.484099 148.264753 
L 490.069494 145.648878 
L 490.654888 141.261642 
L 491.240283 148.667504 
L 491.825677 140.293996 
L 492.411072 144.419135 
L 492.996466 145.001112 
L 493.58186 140.302817 
L 494.167255 141.456843 
L 494.752649 144.941161 
L 495.338044 138.362671 
L 495.923438 148.057102 
L 496.508833 140.713998 
L 497.094227 140.812805 
L 497.679622 144.718662 
L 498.265016 141.968006 
L 498.850411 148.792928 
L 499.435805 139.380852 
L 500.0212 144.179312 
L 500.606594 149.930966 
L 501.191989 142.61322 
L 501.777383 138.125078 
L 502.362778 138.655652 
L 502.948172 121.057912 
L 503.533567 109.117188 
L 504.118961 119.42104 
L 504.704356 88.490223 
L 505.28975 105.671961 
L 505.875145 90.232239 
L 506.460539 101.519512 
L 507.045934 77.785413 
L 507.631328 91.544061 
L 508.216723 84.706629 
L 509.387512 57.068493 
L 509.972906 62.889079 
L 510.558301 63.560469 
L 511.143695 63.243734 
L 511.72909 58.715655 
L 512.314484 55.798105 
L 512.899879 65.190127 
L 513.485273 63.329166 
L 514.070667 54.291552 
L 514.656062 59.404589 
L 515.241456 58.892082 
L 515.826851 64.482739 
L 516.412245 56.867808 
L 516.99764 65.620128 
L 517.583034 68.557131 
L 518.168429 60.536203 
L 518.753823 62.454091 
L 519.339218 60.910725 
L 519.924612 83.536258 
L 520.510007 72.228644 
L 521.095401 69.601976 
L 521.680796 82.457374 
L 522.851585 77.693259 
L 524.022374 103.67711 
L 524.607768 112.220778 
L 525.193163 111.135798 
L 525.778557 109.406146 
L 526.363952 120.762145 
L 526.949346 122.661778 
L 527.534741 126.11274 
L 528.70553 139.511645 
L 529.876319 147.374153 
L 530.461713 149.22811 
L 531.047108 147.601933 
L 531.632502 138.819995 
L 532.217897 147.487375 
L 532.803291 131.988609 
L 533.388686 141.244579 
L 533.97408 142.579414 
L 534.559474 147.09343 
L 535.144869 140.348901 
L 535.730263 145.870069 
L 536.315658 142.85127 
L 536.901052 132.301449 
L 537.486447 143.794882 
L 538.071841 138.406186 
L 538.657236 146.421943 
L 539.24263 143.530619 
L 539.828025 135.716768 
L 540.413419 146.092177 
L 540.998814 135.536553 
L 542.169603 145.813077 
L 542.754997 140.642721 
L 543.340392 139.170869 
L 543.925786 140.688579 
L 544.511181 150.173758 
L 545.096575 146.525624 
L 545.68197 144.450261 
L 546.267364 143.701302 
L 546.852759 140.693503 
L 547.438153 142.610288 
L 548.023548 149.157404 
L 548.608942 141.734062 
L 549.194337 140.737148 
L 549.779731 140.956944 
L 550.365126 138.702561 
L 550.95052 139.770746 
L 551.535915 141.392297 
L 552.121309 143.682835 
L 552.706704 150.566383 
L 553.292098 141.520214 
L 553.877492 142.480532 
L 554.462887 142.204068 
L 555.048281 148.903854 
L 555.633676 148.057072 
L 556.21907 138.82211 
L 556.804465 143.55038 
L 557.389859 140.430291 
L 557.975254 143.256683 
L 558.560648 143.250462 
L 559.146043 139.319162 
L 559.731437 145.612203 
L 560.316832 142.963295 
L 560.902226 145.379537 
L 561.487621 145.259334 
L 562.073015 144.717042 
L 562.65841 142.418023 
L 563.243804 145.450819 
L 563.829199 137.945423 
L 564.414593 147.250286 
L 564.999988 144.187835 
L 565.585382 145.281986 
L 566.170777 137.117986 
L 566.756171 142.528706 
L 567.341566 138.914314 
L 567.92696 149.807406 
L 568.512355 142.223664 
L 569.097749 139.529689 
L 569.683144 143.023168 
L 570.268538 138.768768 
L 570.853933 145.617585 
L 571.439327 137.280817 
L 572.024722 133.431632 
L 572.610116 144.949263 
L 573.195511 145.306959 
L 573.780905 137.090263 
L 574.366299 136.544235 
L 574.951694 145.641694 
L 575.537088 145.197415 
L 576.122483 144.598534 
L 576.707877 149.196807 
L 577.293272 147.35433 
L 577.878666 147.724249 
L 578.464061 146.701566 
L 579.049455 143.529306 
L 579.63485 142.365747 
L 580.220244 136.670032 
L 580.805639 147.699209 
L 581.391033 139.119947 
L 581.976428 144.305174 
L 582.561822 143.593255 
L 583.147217 140.459201 
L 583.732611 148.237364 
L 584.318006 141.724491 
L 584.9034 142.658963 
L 585.488795 141.248329 
L 586.074189 142.127955 
L 586.659584 132.754863 
L 587.244978 146.138792 
L 587.830373 145.676903 
L 588.415767 145.533758 
L 589.001162 142.096138 
L 589.586556 134.541296 
L 590.171951 119.340008 
L 590.757345 115.069283 
L 591.34274 118.40309 
L 591.928134 117.542068 
L 592.513529 106.658532 
L 593.098923 109.370189 
L 593.684317 85.858033 
L 594.269712 96.121665 
L 594.855106 96.837161 
L 595.440501 79.585701 
L 596.025895 67.670511 
L 596.61129 79.645665 
L 597.196684 68.678193 
L 597.782079 71.050556 
L 598.367473 63.996468 
L 598.952868 65.008958 
L 599.538262 44.181391 
L 600.123657 66.318507 
L 600.709051 61.120477 
L 601.294446 61.172352 
L 601.87984 58.609153 
L 602.465235 57.826558 
L 603.050629 49.67795 
L 603.636024 59.287076 
L 604.221418 57.614045 
L 604.806813 54.907035 
L 605.392207 45.706476 
L 605.977602 53.64008 
L 606.562996 72.468331 
L 607.148391 69.150804 
L 607.733785 53.692368 
L 608.31918 72.926653 
L 608.904574 60.63423 
L 609.489969 69.52759 
L 610.075363 87.123436 
L 610.660758 82.262206 
L 611.246152 79.773663 
L 611.831547 94.257623 
L 612.416941 99.597312 
L 613.002336 103.731331 
L 613.58773 110.23407 
L 614.173124 112.937792 
L 614.758519 123.916473 
L 615.343913 127.411582 
L 615.929308 135.009359 
L 616.514702 131.602124 
L 617.100097 153.646726 
L 617.685491 141.78393 
L 618.270886 145.081241 
L 618.85628 143.254838 
L 619.441675 137.847216 
L 620.027069 142.552313 
L 620.612464 143.178284 
L 621.197858 149.263469 
L 621.783253 140.150098 
L 622.368647 140.586138 
L 622.954042 134.018576 
L 623.539436 144.711011 
L 624.124831 142.430932 
L 624.710225 142.300109 
L 625.29562 136.553404 
L 625.881014 143.791575 
L 627.051803 140.748784 
L 627.637198 142.571742 
L 628.222592 145.310988 
L 628.807987 142.539371 
L 629.393381 138.733496 
L 629.978776 147.821066 
L 630.56417 142.803846 
L 631.149565 146.408721 
L 631.734959 138.20812 
L 632.320354 149.97022 
L 633.491143 141.746982 
L 634.076537 136.605023 
L 634.661931 143.663729 
L 635.247326 145.78163 
L 635.83272 135.239244 
L 636.418115 149.644938 
L 637.003509 152.893699 
L 637.588904 141.475229 
L 638.174298 145.551665 
L 638.759693 147.798208 
L 639.345087 140.314083 
L 639.930482 142.324267 
L 641.101271 148.91924 
L 641.686665 139.604 
L 642.27206 140.565727 
L 642.857454 143.808365 
L 643.442849 135.388616 
L 644.028243 148.009596 
L 644.613638 149.980338 
L 645.199032 146.373184 
L 645.784427 143.576476 
L 646.369821 142.326263 
L 646.955216 144.423076 
L 647.54061 141.855837 
L 648.126005 148.794771 
L 648.711399 137.13189 
L 649.296794 143.734698 
L 649.882188 138.544557 
L 650.467583 141.896209 
L 651.638372 140.913774 
L 652.223766 141.441935 
L 652.809161 140.598087 
L 653.394555 137.627829 
L 653.979949 142.528851 
L 654.565344 140.311282 
L 655.150738 143.767517 
L 655.736133 137.147672 
L 656.321527 146.306045 
L 656.906922 135.58635 
L 657.492316 143.552988 
L 658.077711 149.570344 
L 658.663105 142.824898 
L 659.2485 146.326207 
L 659.833894 139.741662 
L 660.419289 146.203197 
L 661.004683 145.309906 
L 661.590078 151.555474 
L 662.175472 145.3364 
L 662.760867 153.867616 
L 663.346261 150.232944 
L 663.931656 140.088821 
L 664.51705 139.978975 
L 665.102445 141.538218 
L 665.687839 147.563434 
L 666.273234 143.585673 
L 666.858628 143.394809 
L 667.444023 148.391593 
L 668.029417 136.873848 
L 668.614812 139.582776 
L 669.200206 144.335357 
L 669.785601 143.262882 
L 670.370995 142.477525 
L 670.95639 152.214035 
L 671.541784 144.448784 
L 672.127179 146.330242 
L 672.712573 147.713342 
L 673.297968 144.595573 
L 673.883362 135.60043 
L 675.054151 145.850775 
L 675.639545 140.901591 
L 675.639545 140.901591 
" clip-path="url(#p7e6d2c2467)" style="fill: none; stroke: #808080; stroke-opacity: 0.9; stroke-width: 4"/>
   </g>
   <g id="line2d_20">
    <path d="M 61.59 121.743663 
L 704.88 121.743663 
" clip-path="url(#p7e6d2c2467)" style="fill: none; stroke-dasharray: 7.4,3.2; stroke-dashoffset: 0; stroke: #e74c3c; stroke-width: 2"/>
   </g>
   <g id="patch_3">
    <path d="M 61.59 163.14 
L 61.59 36.96 
" style="fill: none; stroke: #cccccc; stroke-width: 3; stroke-linejoin: miter; stroke-linecap: square"/>
   </g>
   <g id="patch_4">
    <path d="M 704.88 163.14 
L 704.88 36.96 
" style="fill: none; stroke: #cccccc; stroke-width: 3; stroke-linejoin: miter; stroke-linecap: square"/>
   </g>
   <g id="patch_5">
    <path d="M 61.59 163.14 
L 704.88 163.14 
" style="fill: none; stroke: #cccccc; stroke-width: 3; stroke-linejoin: miter; stroke-linecap: square"/>
   </g>
   <g id="patch_6">
    <path d="M 61.59 36.96 
L 704.88 36.96 
" style="fill: none; stroke: #cccccc; stroke-width: 3; stroke-linejoin: miter; stroke-linecap: square"/>
   </g>
   <g id="text_12">
    <!-- Continuous Time-Series Signal -->
    <g style="fill: #cccccc" transform="translate(229.6347 30.96) scale(0.2016 -0.2016)">
     <defs>
      <path id="DejaVuSans-2d" d="M 313 2009 
L 1997 2009 
L 1997 1497 
L 313 1497 
L 313 2009 
z
" transform="scale(0.015625)"/>
      <path id="DejaVuSans-72" d="M 2631 2963 
Q 2534 3019 2420 3045 
Q 2306 3072 2169 3072 
Q 1681 3072 1420 2755 
Q 1159 2438 1159 1844 
L 1159 0 
L 581 0 
L 581 3500 
L 1159 3500 
L 1159 2956 
Q 1341 3275 1631 3429 
Q 1922 3584 2338 3584 
Q 2397 3584 2469 3576 
Q 2541 3569 2628 3553 
L 2631 2963 
z
" transform="scale(0.015625)"/>
     </defs>
     <use xlink:href="#DejaVuSans-43"/>
     <use xlink:href="#DejaVuSans-6f" transform="translate(69.824219 0)"/>
     <use xlink:href="#DejaVuSans-6e" transform="translate(131.005859 0)"/>
     <use xlink:href="#DejaVuSans-74" transform="translate(194.384766 0)"/>
     <use xlink:href="#DejaVuSans-69" transform="translate(233.59375 0)"/>
     <use xlink:href="#DejaVuSans-6e" transform="translate(261.376953 0)"/>
     <use xlink:href="#DejaVuSans-75" transform="translate(324.755859 0)"/>
     <use xlink:href="#DejaVuSans-6f" transform="translate(388.134766 0)"/>
     <use xlink:href="#DejaVuSans-75" transform="translate(449.316406 0)"/>
     <use xlink:href="#DejaVuSans-73" transform="translate(512.695312 0)"/>
     <use xlink:href="#DejaVuSans-20" transform="translate(564.794922 0)"/>
     <use xlink:href="#DejaVuSans-54" transform="translate(596.582031 0)"/>
     <use xlink:href="#DejaVuSans-69" transform="translate(654.541016 0)"/>
     <use xlink:href="#DejaVuSans-6d" transform="translate(682.324219 0)"/>
     <use xlink:href="#DejaVuSans-65" transform="translate(779.736328 0)"/>
     <use xlink:href="#DejaVuSans-2d" transform="translate(841.259766 0)"/>
     <use xlink:href="#DejaVuSans-53" transform="translate(877.34375 0)"/>
     <use xlink:href="#DejaVuSans-65" transform="translate(940.820312 0)"/>
     <use xlink:href="#DejaVuSans-72" transform="translate(1002.34375 0)"/>
     <use xlink:href="#DejaVuSans-69" transform="translate(1043.457031 0)"/>
     <use xlink:href="#DejaVuSans-65" transform="translate(1071.240234 0)"/>
     <use xlink:href="#DejaVuSans-73" transform="translate(1132.763672 0)"/>
     <use xlink:href="#DejaVuSans-20" transform="translate(1184.863281 0)"/>
     <use xlink:href="#DejaVuSans-53" transform="translate(1216.650391 0)"/>
     <use xlink:href="#DejaVuSans-69" transform="translate(1280.126953 0)"/>
     <use xlink:href="#DejaVuSans-67" transform="translate(1307.910156 0)"/>
     <use xlink:href="#DejaVuSans-6e" transform="translate(1371.386719 0)"/>
     <use xlink:href="#DejaVuSans-61" transform="translate(1434.765625 0)"/>
     <use xlink:href="#DejaVuSans-6c" transform="translate(1496.044922 0)"/>
    </g>
   </g>
   <g id="legend_1">
    <g id="patch_7">
     <path d="M 299.97875 122.699375 
L 466.49125 122.699375 
Q 469.29125 122.699375 469.29125 119.899375 
L 469.29125 80.200625 
Q 469.29125 77.400625 466.49125 77.400625 
L 299.97875 77.400625 
Q 297.17875 77.400625 297.17875 80.200625 
L 297.17875 119.899375 
Q 297.17875 122.699375 299.97875 122.699375 
z
" style="fill: #333333; opacity: 0.8"/>
    </g>
    <g id="line2d_21">
     <path d="M 302.77875 88.738438 
L 316.77875 88.738438 
L 330.77875 88.738438 
" style="fill: none; stroke: #808080; stroke-opacity: 0.9; stroke-width: 4"/>
    </g>
    <g id="text_13">
     <!-- Sensor Stream -->
     <g style="fill: #cccccc" transform="translate(341.97875 93.638438) scale(0.14 -0.14)">
      <use xlink:href="#DejaVuSans-53"/>
      <use xlink:href="#DejaVuSans-65" transform="translate(63.476562 0)"/>
      <use xlink:href="#DejaVuSans-6e" transform="translate(125 0)"/>
      <use xlink:href="#DejaVuSans-73" transform="translate(188.378906 0)"/>
      <use xlink:href="#DejaVuSans-6f" transform="translate(240.478516 0)"/>
      <use xlink:href="#DejaVuSans-72" transform="translate(301.660156 0)"/>
      <use xlink:href="#DejaVuSans-20" transform="translate(342.773438 0)"/>
      <use xlink:href="#DejaVuSans-53" transform="translate(374.560547 0)"/>
      <use xlink:href="#DejaVuSans-74" transform="translate(438.037109 0)"/>
      <use xlink:href="#DejaVuSans-72" transform="translate(477.246094 0)"/>
      <use xlink:href="#DejaVuSans-65" transform="translate(516.109375 0)"/>
      <use xlink:href="#DejaVuSans-61" transform="translate(577.632812 0)"/>
      <use xlink:href="#DejaVuSans-6d" transform="translate(638.912109 0)"/>
     </g>
    </g>
    <g id="line2d_22">
     <path d="M 302.77875 109.287813 
L 316.77875 109.287813 
L 330.77875 109.287813 
" style="fill: none; stroke-dasharray: 7.4,3.2; stroke-dashoffset: 0; stroke: #e74c3c; stroke-width: 2"/>
    </g>
    <g id="text_14">
     <!-- Trigger Threshold -->
     <g style="fill: #cccccc" transform="translate(341.97875 114.187813) scale(0.14 -0.14)">
      <defs>
       <path id="DejaVuSans-68" d="M 3513 2113 
L 3513 0 
L 2938 0 
L 2938 2094 
Q 2938 2591 2744 2837 
Q 2550 3084 2163 3084 
Q 1697 3084 1428 2787 
Q 1159 2491 1159 1978 
L 1159 0 
L 581 0 
L 581 4863 
L 1159 4863 
L 1159 2956 
Q 1366 3272 1645 3428 
Q 1925 3584 2291 3584 
Q 2894 3584 3203 3211 
Q 3513 2838 3513 2113 
z
" transform="scale(0.015625)"/>
      </defs>
      <use xlink:href="#DejaVuSans-54"/>
      <use xlink:href="#DejaVuSans-72" transform="translate(46.333984 0)"/>
      <use xlink:href="#DejaVuSans-69" transform="translate(87.447266 0)"/>
      <use xlink:href="#DejaVuSans-67" transform="translate(115.230469 0)"/>
      <use xlink:href="#DejaVuSans-67" transform="translate(178.707031 0)"/>
      <use xlink:href="#DejaVuSans-65" transform="translate(242.183594 0)"/>
      <use xlink:href="#DejaVuSans-72" transform="translate(303.707031 0)"/>
      <use xlink:href="#DejaVuSans-20" transform="translate(344.820312 0)"/>
      <use xlink:href="#DejaVuSans-54" transform="translate(376.607422 0)"/>
      <use xlink:href="#DejaVuSans-68" transform="translate(437.691406 0)"/>
      <use xlink:href="#DejaVuSans-72" transform="translate(501.070312 0)"/>
      <use xlink:href="#DejaVuSans-65" transform="translate(539.933594 0)"/>
      <use xlink:href="#DejaVuSans-73" transform="translate(601.457031 0)"/>
      <use xlink:href="#DejaVuSans-68" transform="translate(653.556641 0)"/>
      <use xlink:href="#DejaVuSans-6f" transform="translate(716.935547 0)"/>
      <use xlink:href="#DejaVuSans-6c" transform="translate(778.117188 0)"/>
      <use xlink:href="#DejaVuSans-64" transform="translate(805.900391 0)"/>
     </g>
    </g>
   </g>
  </g>
 </g>
 <defs>
  <clipPath id="p7e6d2c2467">
   <rect x="61.59" y="36.96" width="643.29" height="126.18"/>
  </clipPath>
 </defs>
</svg>
