<svg viewBox="0 0 490 490" xmlns="http://www.w3.org/2000/svg" xmlns:xlink="http://www.w3.org/1999/xlink" id="Capa_1" xml:space="preserve" overflow="hidden"><g><path d="M22.969 362.717 206.719 362.717 206.719 415.668 136.856 415.668 136.856 446.293 353.145 446.293 353.145 415.668 283.282 415.668 283.282 362.717 467.032 362.717C479.665 362.717 490.001 352.381 490.001 339.748L490.001 66.676C490.001 54.043 479.665 43.707 467.032 43.707L22.969 43.707C10.336 43.707 0 54.043 0 66.676L0 339.749C0 352.381 10.336 362.717 22.969 362.717ZM30.625 74.332 459.375 74.332 459.375 332.092 30.625 332.092 30.625 74.332Z"/><path d="M112.151 217.159 129.871 150.443 147.651 217.159 166.762 217.159 188.444 127.915 170.306 127.915 156.608 190.257 140.952 127.915 119.523 127.915 103.209 189.218 89.751 127.915 71.298 127.915 92.607 217.159Z"/><path d="M229.836 217.159 247.556 150.443 265.336 217.159 284.447 217.159 306.129 127.915 287.991 127.915 274.293 190.257 258.637 127.915 237.208 127.915 220.894 189.218 207.436 127.915 188.983 127.915 210.292 217.159Z"/><path d="M391.978 190.257 376.322 127.915 354.893 127.915 338.579 189.218 325.121 127.915 306.668 127.915 327.977 217.159 347.521 217.159 365.241 150.443 383.021 217.159 402.132 217.159 423.814 127.915 405.676 127.915Z"/><rect x="82.544" y="251.251" width="324.912" height="30.625"/></g></svg>