<?xml version="1.0" encoding="utf-8" standalone="no"?>
<!DOCTYPE svg PUBLIC "-//W3C//DTD SVG 1.1//EN"
  "http://www.w3.org/Graphics/SVG/1.1/DTD/svg11.dtd">
<svg xmlns:xlink="http://www.w3.org/1999/xlink" width="231.442188pt" height="169.678125pt" viewBox="0 0 231.442188 169.678125" xmlns="http://www.w3.org/2000/svg" version="1.1">
 <metadata>
  <rdf:RDF xmlns:dc="http://purl.org/dc/elements/1.1/" xmlns:cc="http://creativecommons.org/ns#" xmlns:rdf="http://www.w3.org/1999/02/22-rdf-syntax-ns#">
   <cc:Work>
    <dc:type rdf:resource="http://purl.org/dc/dcmitype/StillImage"/>
    <dc:date>2025-06-14T14:42:08.230618</dc:date>
    <dc:format>image/svg+xml</dc:format>
    <dc:creator>
     <cc:Agent>
      <dc:title>Matplotlib v3.6.1, https://matplotlib.org/</dc:title>
     </cc:Agent>
    </dc:creator>
   </cc:Work>
  </rdf:RDF>
 </metadata>
 <defs>
  <style type="text/css">*{stroke-linejoin: round; stroke-linecap: butt}</style>
 </defs>
 <g id="figure_1">
  <g id="patch_1">
   <path d="M 0 169.678125 
L 231.442188 169.678125 
L 231.442188 0 
L 0 0 
z
" style="fill: #ffffff"/>
  </g>
  <g id="axes_1">
   <g id="patch_2">
    <path d="M 28.942188 145.8 
L 224.242188 145.8 
L 224.242188 7.2 
L 28.942188 7.2 
z
" style="fill: #ffffff"/>
   </g>
   <g id="PolyCollection_1">
    <path d="M 37.81946 23.906277 
L 37.81946 125.976752 
L 38.175263 125.976752 
L 38.531065 125.976752 
L 38.886868 125.976752 
L 39.24267 125.976752 
L 39.598473 125.976752 
L 39.954275 125.976752 
L 40.310078 125.976752 
L 40.66588 125.976752 
L 41.021683 125.976752 
L 41.377485 125.976752 
L 41.733288 125.976752 
L 42.08909 125.976752 
L 42.444893 125.976752 
L 42.800695 125.976752 
L 43.156498 125.976752 
L 43.5123 125.976752 
L 43.868103 125.976752 
L 44.223905 125.976752 
L 44.579708 125.976752 
L 44.935511 125.976752 
L 45.291313 125.976752 
L 45.647116 125.976752 
L 46.002918 125.976752 
L 46.358721 125.976752 
L 46.714523 125.976752 
L 47.070326 125.976752 
L 47.426128 125.976752 
L 47.781931 125.976752 
L 48.137733 125.976752 
L 48.493536 125.976752 
L 48.849338 125.976752 
L 49.205141 125.976752 
L 49.560943 125.976752 
L 49.916746 125.976752 
L 50.272548 125.976752 
L 50.628351 125.976752 
L 50.984153 125.976752 
L 51.339956 125.976752 
L 51.695758 125.976752 
L 52.051561 125.976752 
L 52.407363 125.976752 
L 52.763166 125.976752 
L 53.118968 125.976752 
L 53.474771 125.976752 
L 53.830573 125.976752 
L 54.186376 125.976752 
L 54.542178 125.976752 
L 54.897981 125.976752 
L 55.253783 125.976752 
L 55.609586 125.976752 
L 55.965388 125.976752 
L 56.321191 125.976752 
L 56.676993 125.976752 
L 57.032796 125.976752 
L 57.388599 125.976752 
L 57.744401 125.976752 
L 58.100204 125.976752 
L 58.456006 125.976752 
L 58.811809 125.976752 
L 59.167611 125.976752 
L 59.523414 125.976752 
L 59.879216 125.976752 
L 60.235019 125.976752 
L 60.590821 125.976752 
L 60.946624 125.976752 
L 61.302426 125.976752 
L 61.658229 125.976752 
L 62.014031 125.976752 
L 62.369834 125.976752 
L 62.725636 125.976752 
L 63.081439 125.976752 
L 63.437241 125.976752 
L 63.793044 125.976752 
L 64.148846 125.976752 
L 64.504649 125.976752 
L 64.860451 125.976752 
L 65.216254 125.976752 
L 65.572056 125.976752 
L 65.927859 125.976752 
L 66.283661 125.976752 
L 66.639464 125.976752 
L 66.995266 125.976752 
L 67.351069 125.976752 
L 67.706871 125.976752 
L 68.062674 125.976752 
L 68.418476 125.976752 
L 68.774279 125.976752 
L 69.130081 125.976752 
L 69.485884 125.976752 
L 69.841686 125.976752 
L 70.197489 125.976752 
L 70.553292 125.976752 
L 70.909094 125.976752 
L 71.264897 125.976752 
L 71.620699 125.976752 
L 71.976502 125.976752 
L 72.332304 125.976752 
L 72.688107 125.976752 
L 73.043909 125.976752 
L 73.399712 125.976752 
L 73.755514 125.976752 
L 74.111317 125.976752 
L 74.467119 125.976752 
L 74.822922 125.976752 
L 75.178724 125.976752 
L 75.534527 125.976752 
L 75.890329 125.976752 
L 76.246132 125.976752 
L 76.601934 125.976752 
L 76.957737 125.976752 
L 77.313539 125.976752 
L 77.669342 125.976752 
L 78.025144 125.976752 
L 78.380947 125.976752 
L 78.736749 125.976752 
L 79.092552 125.976752 
L 79.448354 125.976752 
L 79.804157 125.976752 
L 80.159959 125.976752 
L 80.515762 125.976752 
L 80.871564 125.976752 
L 81.227367 125.976752 
L 81.583169 125.976752 
L 81.938972 125.976752 
L 82.294774 125.976752 
L 82.650577 125.976752 
L 83.00638 125.976752 
L 83.362182 125.976752 
L 83.717985 125.976752 
L 84.073787 125.976752 
L 84.42959 125.976752 
L 84.785392 125.976752 
L 85.141195 125.976752 
L 85.496997 125.976752 
L 85.8528 125.976752 
L 86.208602 125.976752 
L 86.564405 125.976752 
L 86.920207 125.976752 
L 87.27601 125.976752 
L 87.631812 125.976752 
L 87.987615 125.976752 
L 88.343417 125.976752 
L 88.69922 125.976752 
L 89.055022 125.976752 
L 89.410825 125.976752 
L 89.766627 125.976752 
L 90.12243 125.976752 
L 90.478232 125.976752 
L 90.834035 125.976752 
L 91.189837 125.976752 
L 91.54564 125.976752 
L 91.901442 125.976752 
L 92.257245 125.976752 
L 92.613047 125.976752 
L 92.96885 125.976752 
L 93.324652 125.976752 
L 93.680455 125.976752 
L 94.036257 125.976752 
L 94.39206 125.976752 
L 94.747862 125.976752 
L 95.103665 125.976752 
L 95.459468 125.976752 
L 95.81527 125.976752 
L 96.171073 125.976752 
L 96.526875 125.976752 
L 96.882678 125.976752 
L 97.23848 125.976752 
L 97.594283 125.976752 
L 97.950085 125.976752 
L 98.305888 125.976752 
L 98.66169 125.976752 
L 99.017493 125.976752 
L 99.373295 125.976752 
L 99.729098 125.976752 
L 100.0849 125.976752 
L 100.440703 125.976752 
L 100.796505 125.976752 
L 101.152308 125.976752 
L 101.50811 125.976752 
L 101.863913 125.976752 
L 102.219715 125.976752 
L 102.575518 125.976752 
L 102.93132 125.976752 
L 103.287123 125.976752 
L 103.642925 125.976752 
L 103.998728 125.976752 
L 104.35453 125.976752 
L 104.710333 125.976752 
L 105.066135 125.976752 
L 105.421938 125.976752 
L 105.77774 125.976752 
L 106.133543 125.976752 
L 106.489345 125.976752 
L 106.845148 125.976752 
L 107.20095 125.976752 
L 107.556753 125.976752 
L 107.912556 125.976752 
L 108.268358 125.976752 
L 108.624161 125.976752 
L 108.979963 125.976752 
L 109.335766 125.976752 
L 109.691568 125.976752 
L 110.047371 125.976752 
L 110.403173 125.976752 
L 110.758976 125.976752 
L 111.114778 125.976752 
L 111.470581 125.976752 
L 111.826383 125.976752 
L 112.182186 125.976752 
L 112.537988 125.976752 
L 112.893791 125.976752 
L 113.249593 125.976752 
L 113.605396 125.976752 
L 113.961198 125.976752 
L 114.317001 125.976752 
L 114.672803 125.976752 
L 115.028606 125.976752 
L 115.384408 125.976752 
L 115.740211 125.976752 
L 116.096013 125.976752 
L 116.451816 125.976752 
L 116.807618 125.976752 
L 117.163421 125.976752 
L 117.519223 125.976752 
L 117.875026 125.976752 
L 118.230828 125.976752 
L 118.586631 125.976752 
L 118.942433 125.976752 
L 119.298236 125.976752 
L 119.654038 125.976752 
L 120.009841 125.976752 
L 120.365644 125.976752 
L 120.721446 125.976752 
L 121.077249 125.976752 
L 121.433051 125.976752 
L 121.788854 125.976752 
L 122.144656 125.976752 
L 122.500459 125.976752 
L 122.856261 125.976752 
L 123.212064 125.976752 
L 123.567866 125.976752 
L 123.923669 125.976752 
L 124.279471 125.976752 
L 124.635274 125.976752 
L 124.991076 125.976752 
L 125.346879 125.976752 
L 125.702681 125.976752 
L 126.058484 125.976752 
L 126.414286 125.976752 
L 126.770089 125.976752 
L 127.125891 125.976752 
L 127.481694 125.976752 
L 127.837496 125.976752 
L 128.193299 125.976752 
L 128.549101 125.976752 
L 128.904904 125.976752 
L 129.260706 125.976752 
L 129.616509 125.976752 
L 129.972311 125.976752 
L 130.328114 125.976752 
L 130.683916 125.976752 
L 131.039719 125.976752 
L 131.395521 125.976752 
L 131.751324 125.976752 
L 132.107126 125.976752 
L 132.462929 125.976752 
L 132.818731 125.976752 
L 133.174534 125.976752 
L 133.530337 125.976752 
L 133.886139 125.976752 
L 134.241942 125.976752 
L 134.597744 125.976752 
L 134.953547 125.976752 
L 135.309349 125.976752 
L 135.665152 125.976752 
L 136.020954 125.976752 
L 136.376757 125.976752 
L 136.732559 125.976752 
L 137.088362 125.976752 
L 137.444164 125.976752 
L 137.799967 125.976752 
L 138.155769 125.976752 
L 138.511572 125.976752 
L 138.867374 125.976752 
L 139.223177 125.976752 
L 139.578979 125.976752 
L 139.934782 125.976752 
L 140.290584 125.976752 
L 140.646387 125.976752 
L 141.002189 125.976752 
L 141.357992 125.976752 
L 141.713794 125.976752 
L 142.069597 125.976752 
L 142.425399 125.976752 
L 142.781202 125.976752 
L 143.137004 125.976752 
L 143.492807 125.976752 
L 143.848609 125.976752 
L 144.204412 125.976752 
L 144.560214 125.976752 
L 144.916017 125.976752 
L 145.271819 125.976752 
L 145.627622 125.976752 
L 145.983425 125.976752 
L 146.339227 125.976752 
L 146.69503 125.976752 
L 147.050832 125.976752 
L 147.406635 125.976752 
L 147.762437 125.976752 
L 148.11824 125.976752 
L 148.474042 125.976752 
L 148.829845 125.976752 
L 149.185647 125.976752 
L 149.54145 125.976752 
L 149.897252 125.976752 
L 150.253055 125.976752 
L 150.608857 125.976752 
L 150.96466 125.976752 
L 151.320462 125.976752 
L 151.676265 125.976752 
L 152.032067 125.976752 
L 152.38787 125.976752 
L 152.743672 125.976752 
L 153.099475 125.976752 
L 153.455277 125.976752 
L 153.81108 125.976752 
L 154.166882 125.976752 
L 154.522685 125.976752 
L 154.878487 125.976752 
L 155.23429 125.976752 
L 155.590092 125.976752 
L 155.945895 125.976752 
L 156.301697 125.976752 
L 156.6575 125.976752 
L 157.013302 125.976752 
L 157.369105 125.976752 
L 157.724907 125.976752 
L 158.08071 125.976752 
L 158.436513 125.976752 
L 158.792315 125.976752 
L 159.148118 125.976752 
L 159.50392 125.976752 
L 159.859723 125.976752 
L 160.215525 125.976752 
L 160.571328 125.976752 
L 160.92713 125.976752 
L 161.282933 125.976752 
L 161.638735 125.976752 
L 161.994538 125.976752 
L 162.35034 125.976752 
L 162.706143 125.976752 
L 163.061945 125.976752 
L 163.417748 125.976752 
L 163.77355 125.976752 
L 164.129353 125.976752 
L 164.485155 125.976752 
L 164.840958 125.976752 
L 165.19676 125.976752 
L 165.552563 125.976752 
L 165.908365 125.976752 
L 166.264168 125.976752 
L 166.61997 125.976752 
L 166.975773 125.976752 
L 167.331575 125.976752 
L 167.687378 125.976752 
L 168.04318 125.976752 
L 168.398983 125.976752 
L 168.754785 125.976752 
L 169.110588 125.976752 
L 169.46639 125.976752 
L 169.822193 125.976752 
L 170.177995 125.976752 
L 170.533798 125.976752 
L 170.889601 125.976752 
L 171.245403 125.976752 
L 171.601206 125.976752 
L 171.957008 125.976752 
L 172.312811 125.976752 
L 172.668613 125.976752 
L 173.024416 125.976752 
L 173.380218 125.976752 
L 173.736021 125.976752 
L 174.091823 125.976752 
L 174.447626 125.976752 
L 174.803428 125.976752 
L 175.159231 125.976752 
L 175.515033 125.976752 
L 175.870836 125.976752 
L 176.226638 125.976752 
L 176.582441 125.976752 
L 176.938243 125.976752 
L 177.294046 125.976752 
L 177.649848 125.976752 
L 178.005651 125.976752 
L 178.361453 125.976752 
L 178.717256 125.976752 
L 179.073058 125.976752 
L 179.428861 125.976752 
L 179.784663 125.976752 
L 180.140466 125.976752 
L 180.496268 125.976752 
L 180.852071 125.976752 
L 181.207873 125.976752 
L 181.563676 125.976752 
L 181.919478 125.976752 
L 182.275281 125.976752 
L 182.631083 125.976752 
L 182.986886 125.976752 
L 183.342689 125.976752 
L 183.698491 125.976752 
L 184.054294 125.976752 
L 184.410096 125.976752 
L 184.765899 125.976752 
L 185.121701 125.976752 
L 185.477504 125.976752 
L 185.833306 125.976752 
L 186.189109 125.976752 
L 186.544911 125.976752 
L 186.900714 125.976752 
L 187.256516 125.976752 
L 187.612319 125.976752 
L 187.968121 125.976752 
L 188.323924 125.976752 
L 188.679726 125.976752 
L 189.035529 125.976752 
L 189.391331 125.976752 
L 189.747134 125.976752 
L 190.102936 125.976752 
L 190.458739 125.976752 
L 190.814541 125.976752 
L 191.170344 125.976752 
L 191.526146 125.976752 
L 191.881949 125.976752 
L 192.237751 125.976752 
L 192.593554 125.976752 
L 192.949356 125.976752 
L 193.305159 125.976752 
L 193.660961 125.976752 
L 194.016764 125.976752 
L 194.372566 125.976752 
L 194.728369 125.976752 
L 195.084171 125.976752 
L 195.439974 125.976752 
L 195.795776 125.976752 
L 196.151579 125.976752 
L 196.507382 125.976752 
L 196.863184 125.976752 
L 197.218987 125.976752 
L 197.574789 125.976752 
L 197.930592 125.976752 
L 198.286394 125.976752 
L 198.642197 125.976752 
L 198.997999 125.976752 
L 199.353802 125.976752 
L 199.709604 125.976752 
L 200.065407 125.976752 
L 200.421209 125.976752 
L 200.777012 125.976752 
L 201.132814 125.976752 
L 201.488617 125.976752 
L 201.844419 125.976752 
L 202.200222 125.976752 
L 202.556024 125.976752 
L 202.911827 125.976752 
L 203.267629 125.976752 
L 203.623432 125.976752 
L 203.979234 125.976752 
L 204.335037 125.976752 
L 204.690839 125.976752 
L 205.046642 125.976752 
L 205.402444 125.976752 
L 205.758247 125.976752 
L 206.114049 125.976752 
L 206.469852 125.976752 
L 206.825654 125.976752 
L 207.181457 125.976752 
L 207.537259 125.976752 
L 207.893062 125.976752 
L 208.248864 125.976752 
L 208.604667 125.976752 
L 208.96047 125.976752 
L 209.316272 125.976752 
L 209.672075 125.976752 
L 210.027877 125.976752 
L 210.38368 125.976752 
L 210.739482 125.976752 
L 211.095285 125.976752 
L 211.451087 125.976752 
L 211.80689 125.976752 
L 212.162692 125.976752 
L 212.518495 125.976752 
L 212.874297 125.976752 
L 213.2301 125.976752 
L 213.585902 125.976752 
L 213.941705 125.976752 
L 214.297507 125.976752 
L 214.65331 125.976752 
L 215.009112 125.976752 
L 215.364915 125.976752 
L 215.364915 23.906277 
L 215.364915 23.906277 
L 215.009112 23.906277 
L 214.65331 23.906277 
L 214.297507 23.906277 
L 213.941705 23.906277 
L 213.585902 23.906277 
L 213.2301 23.906277 
L 212.874297 23.906277 
L 212.518495 23.906277 
L 212.162692 23.906277 
L 211.80689 23.906277 
L 211.451087 23.906277 
L 211.095285 23.906277 
L 210.739482 23.906277 
L 210.38368 23.906277 
L 210.027877 23.906277 
L 209.672075 23.906277 
L 209.316272 23.906277 
L 208.96047 23.906277 
L 208.604667 23.906277 
L 208.248864 23.906277 
L 207.893062 23.906277 
L 207.537259 23.906277 
L 207.181457 23.906277 
L 206.825654 23.906277 
L 206.469852 23.906277 
L 206.114049 23.906277 
L 205.758247 23.906277 
L 205.402444 23.906277 
L 205.046642 23.906277 
L 204.690839 23.906277 
L 204.335037 23.906277 
L 203.979234 23.906277 
L 203.623432 23.906277 
L 203.267629 23.906277 
L 202.911827 23.906277 
L 202.556024 23.906277 
L 202.200222 23.906277 
L 201.844419 23.906277 
L 201.488617 23.906277 
L 201.132814 23.906277 
L 200.777012 23.906277 
L 200.421209 23.906277 
L 200.065407 23.906277 
L 199.709604 23.906277 
L 199.353802 23.906277 
L 198.997999 23.906277 
L 198.642197 23.906277 
L 198.286394 23.906277 
L 197.930592 23.906277 
L 197.574789 23.906277 
L 197.218987 23.906277 
L 196.863184 23.906277 
L 196.507382 23.906277 
L 196.151579 23.906277 
L 195.795776 23.906277 
L 195.439974 23.906277 
L 195.084171 23.906277 
L 194.728369 23.906277 
L 194.372566 23.906277 
L 194.016764 23.906277 
L 193.660961 23.906277 
L 193.305159 23.906277 
L 192.949356 23.906277 
L 192.593554 23.906277 
L 192.237751 23.906277 
L 191.881949 23.906277 
L 191.526146 23.906277 
L 191.170344 23.906277 
L 190.814541 23.906277 
L 190.458739 23.906277 
L 190.102936 23.906277 
L 189.747134 23.906277 
L 189.391331 23.906277 
L 189.035529 23.906277 
L 188.679726 23.906277 
L 188.323924 23.906277 
L 187.968121 23.906277 
L 187.612319 23.906277 
L 187.256516 23.906277 
L 186.900714 23.906277 
L 186.544911 23.906277 
L 186.189109 23.906277 
L 185.833306 23.906277 
L 185.477504 23.906277 
L 185.121701 23.906277 
L 184.765899 23.906277 
L 184.410096 23.906277 
L 184.054294 23.906277 
L 183.698491 23.906277 
L 183.342689 23.906277 
L 182.986886 23.906277 
L 182.631083 23.906277 
L 182.275281 23.906277 
L 181.919478 23.906277 
L 181.563676 23.906277 
L 181.207873 23.906277 
L 180.852071 23.906277 
L 180.496268 23.906277 
L 180.140466 23.906277 
L 179.784663 23.906277 
L 179.428861 23.906277 
L 179.073058 23.906277 
L 178.717256 23.906277 
L 178.361453 23.906277 
L 178.005651 23.906277 
L 177.649848 23.906277 
L 177.294046 23.906277 
L 176.938243 23.906277 
L 176.582441 23.906277 
L 176.226638 23.906277 
L 175.870836 23.906277 
L 175.515033 23.906277 
L 175.159231 23.906277 
L 174.803428 23.906277 
L 174.447626 23.906277 
L 174.091823 23.906277 
L 173.736021 23.906277 
L 173.380218 23.906277 
L 173.024416 23.906277 
L 172.668613 23.906277 
L 172.312811 23.906277 
L 171.957008 23.906277 
L 171.601206 23.906277 
L 171.245403 23.906277 
L 170.889601 23.906277 
L 170.533798 23.906277 
L 170.177995 23.906277 
L 169.822193 23.906277 
L 169.46639 23.906277 
L 169.110588 23.906277 
L 168.754785 23.906277 
L 168.398983 23.906277 
L 168.04318 23.906277 
L 167.687378 23.906277 
L 167.331575 23.906277 
L 166.975773 23.906277 
L 166.61997 23.906277 
L 166.264168 23.906277 
L 165.908365 23.906277 
L 165.552563 23.906277 
L 165.19676 23.906277 
L 164.840958 23.906277 
L 164.485155 23.906277 
L 164.129353 23.906277 
L 163.77355 23.906277 
L 163.417748 23.906277 
L 163.061945 23.906277 
L 162.706143 23.906277 
L 162.35034 23.906277 
L 161.994538 23.906277 
L 161.638735 23.906277 
L 161.282933 23.906277 
L 160.92713 23.906277 
L 160.571328 23.906277 
L 160.215525 23.906277 
L 159.859723 23.906277 
L 159.50392 23.906277 
L 159.148118 23.906277 
L 158.792315 23.906277 
L 158.436513 23.906277 
L 158.08071 23.906277 
L 157.724907 23.906277 
L 157.369105 23.906277 
L 157.013302 23.906277 
L 156.6575 23.906277 
L 156.301697 23.906277 
L 155.945895 23.906277 
L 155.590092 23.906277 
L 155.23429 23.906277 
L 154.878487 23.906277 
L 154.522685 23.906277 
L 154.166882 23.906277 
L 153.81108 23.906277 
L 153.455277 23.906277 
L 153.099475 23.906277 
L 152.743672 23.906277 
L 152.38787 23.906277 
L 152.032067 23.906277 
L 151.676265 23.906277 
L 151.320462 23.906277 
L 150.96466 23.906277 
L 150.608857 23.906277 
L 150.253055 23.906277 
L 149.897252 23.906277 
L 149.54145 23.906277 
L 149.185647 23.906277 
L 148.829845 23.906277 
L 148.474042 23.906277 
L 148.11824 23.906277 
L 147.762437 23.906277 
L 147.406635 23.906277 
L 147.050832 23.906277 
L 146.69503 23.906277 
L 146.339227 23.906277 
L 145.983425 23.906277 
L 145.627622 23.906277 
L 145.271819 23.906277 
L 144.916017 23.906277 
L 144.560214 23.906277 
L 144.204412 23.906277 
L 143.848609 23.906277 
L 143.492807 23.906277 
L 143.137004 23.906277 
L 142.781202 23.906277 
L 142.425399 23.906277 
L 142.069597 23.906277 
L 141.713794 23.906277 
L 141.357992 23.906277 
L 141.002189 23.906277 
L 140.646387 23.906277 
L 140.290584 23.906277 
L 139.934782 23.906277 
L 139.578979 23.906277 
L 139.223177 23.906277 
L 138.867374 23.906277 
L 138.511572 23.906277 
L 138.155769 23.906277 
L 137.799967 23.906277 
L 137.444164 23.906277 
L 137.088362 23.906277 
L 136.732559 23.906277 
L 136.376757 23.906277 
L 136.020954 23.906277 
L 135.665152 23.906277 
L 135.309349 23.906277 
L 134.953547 23.906277 
L 134.597744 23.906277 
L 134.241942 23.906277 
L 133.886139 23.906277 
L 133.530337 23.906277 
L 133.174534 23.906277 
L 132.818731 23.906277 
L 132.462929 23.906277 
L 132.107126 23.906277 
L 131.751324 23.906277 
L 131.395521 23.906277 
L 131.039719 23.906277 
L 130.683916 23.906277 
L 130.328114 23.906277 
L 129.972311 23.906277 
L 129.616509 23.906277 
L 129.260706 23.906277 
L 128.904904 23.906277 
L 128.549101 23.906277 
L 128.193299 23.906277 
L 127.837496 23.906277 
L 127.481694 23.906277 
L 127.125891 23.906277 
L 126.770089 23.906277 
L 126.414286 23.906277 
L 126.058484 23.906277 
L 125.702681 23.906277 
L 125.346879 23.906277 
L 124.991076 23.906277 
L 124.635274 23.906277 
L 124.279471 23.906277 
L 123.923669 23.906277 
L 123.567866 23.906277 
L 123.212064 23.906277 
L 122.856261 23.906277 
L 122.500459 23.906277 
L 122.144656 23.906277 
L 121.788854 23.906277 
L 121.433051 23.906277 
L 121.077249 23.906277 
L 120.721446 23.906277 
L 120.365644 23.906277 
L 120.009841 23.906277 
L 119.654038 23.906277 
L 119.298236 23.906277 
L 118.942433 23.906277 
L 118.586631 23.906277 
L 118.230828 23.906277 
L 117.875026 23.906277 
L 117.519223 23.906277 
L 117.163421 23.906277 
L 116.807618 23.906277 
L 116.451816 23.906277 
L 116.096013 23.906277 
L 115.740211 23.906277 
L 115.384408 23.906277 
L 115.028606 23.906277 
L 114.672803 23.906277 
L 114.317001 23.906277 
L 113.961198 23.906277 
L 113.605396 23.906277 
L 113.249593 23.906277 
L 112.893791 23.906277 
L 112.537988 23.906277 
L 112.182186 23.906277 
L 111.826383 23.906277 
L 111.470581 23.906277 
L 111.114778 23.906277 
L 110.758976 23.906277 
L 110.403173 23.906277 
L 110.047371 23.906277 
L 109.691568 23.906277 
L 109.335766 23.906277 
L 108.979963 23.906277 
L 108.624161 23.906277 
L 108.268358 23.906277 
L 107.912556 23.906277 
L 107.556753 23.906277 
L 107.20095 23.906277 
L 106.845148 23.906277 
L 106.489345 23.906277 
L 106.133543 23.906277 
L 105.77774 23.906277 
L 105.421938 23.906277 
L 105.066135 23.906277 
L 104.710333 23.906277 
L 104.35453 23.906277 
L 103.998728 23.906277 
L 103.642925 23.906277 
L 103.287123 23.906277 
L 102.93132 23.906277 
L 102.575518 23.906277 
L 102.219715 23.906277 
L 101.863913 23.906277 
L 101.50811 23.906277 
L 101.152308 23.906277 
L 100.796505 23.906277 
L 100.440703 23.906277 
L 100.0849 23.906277 
L 99.729098 23.906277 
L 99.373295 23.906277 
L 99.017493 23.906277 
L 98.66169 23.906277 
L 98.305888 23.906277 
L 97.950085 23.906277 
L 97.594283 23.906277 
L 97.23848 23.906277 
L 96.882678 23.906277 
L 96.526875 23.906277 
L 96.171073 23.906277 
L 95.81527 23.906277 
L 95.459468 23.906277 
L 95.103665 23.906277 
L 94.747862 23.906277 
L 94.39206 23.906277 
L 94.036257 23.906277 
L 93.680455 23.906277 
L 93.324652 23.906277 
L 92.96885 23.906277 
L 92.613047 23.906277 
L 92.257245 23.906277 
L 91.901442 23.906277 
L 91.54564 23.906277 
L 91.189837 23.906277 
L 90.834035 23.906277 
L 90.478232 23.906277 
L 90.12243 23.906277 
L 89.766627 23.906277 
L 89.410825 23.906277 
L 89.055022 23.906277 
L 88.69922 23.906277 
L 88.343417 23.906277 
L 87.987615 23.906277 
L 87.631812 23.906277 
L 87.27601 23.906277 
L 86.920207 23.906277 
L 86.564405 23.906277 
L 86.208602 23.906277 
L 85.8528 23.906277 
L 85.496997 23.906277 
L 85.141195 23.906277 
L 84.785392 23.906277 
L 84.42959 23.906277 
L 84.073787 23.906277 
L 83.717985 23.906277 
L 83.362182 23.906277 
L 83.00638 23.906277 
L 82.650577 23.906277 
L 82.294774 23.906277 
L 81.938972 23.906277 
L 81.583169 23.906277 
L 81.227367 23.906277 
L 80.871564 23.906277 
L 80.515762 23.906277 
L 80.159959 23.906277 
L 79.804157 23.906277 
L 79.448354 23.906277 
L 79.092552 23.906277 
L 78.736749 23.906277 
L 78.380947 23.906277 
L 78.025144 23.906277 
L 77.669342 23.906277 
L 77.313539 23.906277 
L 76.957737 23.906277 
L 76.601934 23.906277 
L 76.246132 23.906277 
L 75.890329 23.906277 
L 75.534527 23.906277 
L 75.178724 23.906277 
L 74.822922 23.906277 
L 74.467119 23.906277 
L 74.111317 23.906277 
L 73.755514 23.906277 
L 73.399712 23.906277 
L 73.043909 23.906277 
L 72.688107 23.906277 
L 72.332304 23.906277 
L 71.976502 23.906277 
L 71.620699 23.906277 
L 71.264897 23.906277 
L 70.909094 23.906277 
L 70.553292 23.906277 
L 70.197489 23.906277 
L 69.841686 23.906277 
L 69.485884 23.906277 
L 69.130081 23.906277 
L 68.774279 23.906277 
L 68.418476 23.906277 
L 68.062674 23.906277 
L 67.706871 23.906277 
L 67.351069 23.906277 
L 66.995266 23.906277 
L 66.639464 23.906277 
L 66.283661 23.906277 
L 65.927859 23.906277 
L 65.572056 23.906277 
L 65.216254 23.906277 
L 64.860451 23.906277 
L 64.504649 23.906277 
L 64.148846 23.906277 
L 63.793044 23.906277 
L 63.437241 23.906277 
L 63.081439 23.906277 
L 62.725636 23.906277 
L 62.369834 23.906277 
L 62.014031 23.906277 
L 61.658229 23.906277 
L 61.302426 23.906277 
L 60.946624 23.906277 
L 60.590821 23.906277 
L 60.235019 23.906277 
L 59.879216 23.906277 
L 59.523414 23.906277 
L 59.167611 23.906277 
L 58.811809 23.906277 
L 58.456006 23.906277 
L 58.100204 23.906277 
L 57.744401 23.906277 
L 57.388599 23.906277 
L 57.032796 23.906277 
L 56.676993 23.906277 
L 56.321191 23.906277 
L 55.965388 23.906277 
L 55.609586 23.906277 
L 55.253783 23.906277 
L 54.897981 23.906277 
L 54.542178 23.906277 
L 54.186376 23.906277 
L 53.830573 23.906277 
L 53.474771 23.906277 
L 53.118968 23.906277 
L 52.763166 23.906277 
L 52.407363 23.906277 
L 52.051561 23.906277 
L 51.695758 23.906277 
L 51.339956 23.906277 
L 50.984153 23.906277 
L 50.628351 23.906277 
L 50.272548 23.906277 
L 49.916746 23.906277 
L 49.560943 23.906277 
L 49.205141 23.906277 
L 48.849338 23.906277 
L 48.493536 23.906277 
L 48.137733 23.906277 
L 47.781931 23.906277 
L 47.426128 23.906277 
L 47.070326 23.906277 
L 46.714523 23.906277 
L 46.358721 23.906277 
L 46.002918 23.906277 
L 45.647116 23.906277 
L 45.291313 23.906277 
L 44.935511 23.906277 
L 44.579708 23.906277 
L 44.223905 23.906277 
L 43.868103 23.906277 
L 43.5123 23.906277 
L 43.156498 23.906277 
L 42.800695 23.906277 
L 42.444893 23.906277 
L 42.08909 23.906277 
L 41.733288 23.906277 
L 41.377485 23.906277 
L 41.021683 23.906277 
L 40.66588 23.906277 
L 40.310078 23.906277 
L 39.954275 23.906277 
L 39.598473 23.906277 
L 39.24267 23.906277 
L 38.886868 23.906277 
L 38.531065 23.906277 
L 38.175263 23.906277 
L 37.81946 23.906277 
z
" clip-path="url(#p4128d268bb)" style="fill: #1f77b4; fill-opacity: 0.25"/>
   </g>
   <g id="matplotlib.axis_1">
    <g id="xtick_1">
     <g id="line2d_1">
      <defs>
       <path id="ma4c7653dbb" d="M 0 0 
L 0 3.5 
" style="stroke: #000000; stroke-width: 0.8"/>
      </defs>
      <g>
       <use xlink:href="#ma4c7653dbb" x="37.81946" y="145.8" style="stroke: #000000; stroke-width: 0.8"/>
      </g>
     </g>
     <g id="text_1">
      <!-- 0 -->
      <g transform="translate(34.63821 160.398438) scale(0.1 -0.1)">
       <defs>
        <path id="DejaVuSans-30" d="M 2034 4250 
Q 1547 4250 1301 3770 
Q 1056 3291 1056 2328 
Q 1056 1369 1301 889 
Q 1547 409 2034 409 
Q 2525 409 2770 889 
Q 3016 1369 3016 2328 
Q 3016 3291 2770 3770 
Q 2525 4250 2034 4250 
z
M 2034 4750 
Q 2819 4750 3233 4129 
Q 3647 3509 3647 2328 
Q 3647 1150 3233 529 
Q 2819 -91 2034 -91 
Q 1250 -91 836 529 
Q 422 1150 422 2328 
Q 422 3509 836 4129 
Q 1250 4750 2034 4750 
z
" transform="scale(0.015625)"/>
       </defs>
       <use xlink:href="#DejaVuSans-30"/>
      </g>
     </g>
    </g>
    <g id="xtick_2">
     <g id="line2d_2">
      <g>
       <use xlink:href="#ma4c7653dbb" x="73.328551" y="145.8" style="stroke: #000000; stroke-width: 0.8"/>
      </g>
     </g>
     <g id="text_2">
      <!-- 1 -->
      <g transform="translate(70.147301 160.398438) scale(0.1 -0.1)">
       <defs>
        <path id="DejaVuSans-31" d="M 794 531 
L 1825 531 
L 1825 4091 
L 703 3866 
L 703 4441 
L 1819 4666 
L 2450 4666 
L 2450 531 
L 3481 531 
L 3481 0 
L 794 0 
L 794 531 
z
" transform="scale(0.015625)"/>
       </defs>
       <use xlink:href="#DejaVuSans-31"/>
      </g>
     </g>
    </g>
    <g id="xtick_3">
     <g id="line2d_3">
      <g>
       <use xlink:href="#ma4c7653dbb" x="108.837642" y="145.8" style="stroke: #000000; stroke-width: 0.8"/>
      </g>
     </g>
     <g id="text_3">
      <!-- 2 -->
      <g transform="translate(105.656392 160.398438) scale(0.1 -0.1)">
       <defs>
        <path id="DejaVuSans-32" d="M 1228 531 
L 3431 531 
L 3431 0 
L 469 0 
L 469 531 
Q 828 903 1448 1529 
Q 2069 2156 2228 2338 
Q 2531 2678 2651 2914 
Q 2772 3150 2772 3378 
Q 2772 3750 2511 3984 
Q 2250 4219 1831 4219 
Q 1534 4219 1204 4116 
Q 875 4013 500 3803 
L 500 4441 
Q 881 4594 1212 4672 
Q 1544 4750 1819 4750 
Q 2544 4750 2975 4387 
Q 3406 4025 3406 3419 
Q 3406 3131 3298 2873 
Q 3191 2616 2906 2266 
Q 2828 2175 2409 1742 
Q 1991 1309 1228 531 
z
" transform="scale(0.015625)"/>
       </defs>
       <use xlink:href="#DejaVuSans-32"/>
      </g>
     </g>
    </g>
    <g id="xtick_4">
     <g id="line2d_4">
      <g>
       <use xlink:href="#ma4c7653dbb" x="144.346733" y="145.8" style="stroke: #000000; stroke-width: 0.8"/>
      </g>
     </g>
     <g id="text_4">
      <!-- 3 -->
      <g transform="translate(141.165483 160.398438) scale(0.1 -0.1)">
       <defs>
        <path id="DejaVuSans-33" d="M 2597 2516 
Q 3050 2419 3304 2112 
Q 3559 1806 3559 1356 
Q 3559 666 3084 287 
Q 2609 -91 1734 -91 
Q 1441 -91 1130 -33 
Q 819 25 488 141 
L 488 750 
Q 750 597 1062 519 
Q 1375 441 1716 441 
Q 2309 441 2620 675 
Q 2931 909 2931 1356 
Q 2931 1769 2642 2001 
Q 2353 2234 1838 2234 
L 1294 2234 
L 1294 2753 
L 1863 2753 
Q 2328 2753 2575 2939 
Q 2822 3125 2822 3475 
Q 2822 3834 2567 4026 
Q 2313 4219 1838 4219 
Q 1578 4219 1281 4162 
Q 984 4106 628 3988 
L 628 4550 
Q 988 4650 1302 4700 
Q 1616 4750 1894 4750 
Q 2613 4750 3031 4423 
Q 3450 4097 3450 3541 
Q 3450 3153 3228 2886 
Q 3006 2619 2597 2516 
z
" transform="scale(0.015625)"/>
       </defs>
       <use xlink:href="#DejaVuSans-33"/>
      </g>
     </g>
    </g>
    <g id="xtick_5">
     <g id="line2d_5">
      <g>
       <use xlink:href="#ma4c7653dbb" x="179.855824" y="145.8" style="stroke: #000000; stroke-width: 0.8"/>
      </g>
     </g>
     <g id="text_5">
      <!-- 4 -->
      <g transform="translate(176.674574 160.398438) scale(0.1 -0.1)">
       <defs>
        <path id="DejaVuSans-34" d="M 2419 4116 
L 825 1625 
L 2419 1625 
L 2419 4116 
z
M 2253 4666 
L 3047 4666 
L 3047 1625 
L 3713 1625 
L 3713 1100 
L 3047 1100 
L 3047 0 
L 2419 0 
L 2419 1100 
L 313 1100 
L 313 1709 
L 2253 4666 
z
" transform="scale(0.015625)"/>
       </defs>
       <use xlink:href="#DejaVuSans-34"/>
      </g>
     </g>
    </g>
    <g id="xtick_6">
     <g id="line2d_6">
      <g>
       <use xlink:href="#ma4c7653dbb" x="215.364915" y="145.8" style="stroke: #000000; stroke-width: 0.8"/>
      </g>
     </g>
     <g id="text_6">
      <!-- 5 -->
      <g transform="translate(212.183665 160.398438) scale(0.1 -0.1)">
       <defs>
        <path id="DejaVuSans-35" d="M 691 4666 
L 3169 4666 
L 3169 4134 
L 1269 4134 
L 1269 2991 
Q 1406 3038 1543 3061 
Q 1681 3084 1819 3084 
Q 2600 3084 3056 2656 
Q 3513 2228 3513 1497 
Q 3513 744 3044 326 
Q 2575 -91 1722 -91 
Q 1428 -91 1123 -41 
Q 819 9 494 109 
L 494 744 
Q 775 591 1075 516 
Q 1375 441 1709 441 
Q 2250 441 2565 725 
Q 2881 1009 2881 1497 
Q 2881 1984 2565 2268 
Q 2250 2553 1709 2553 
Q 1456 2553 1204 2497 
Q 953 2441 691 2322 
L 691 4666 
z
" transform="scale(0.015625)"/>
       </defs>
       <use xlink:href="#DejaVuSans-35"/>
      </g>
     </g>
    </g>
   </g>
   <g id="matplotlib.axis_2">
    <g id="ytick_1">
     <g id="line2d_7">
      <defs>
       <path id="m497745e6f8" d="M 0 0 
L -3.5 0 
" style="stroke: #000000; stroke-width: 0.8"/>
      </defs>
      <g>
       <use xlink:href="#m497745e6f8" x="28.942188" y="125.976752" style="stroke: #000000; stroke-width: 0.8"/>
      </g>
     </g>
     <g id="text_7">
      <!-- −2 -->
      <g transform="translate(7.2 129.77597) scale(0.1 -0.1)">
       <defs>
        <path id="DejaVuSans-2212" d="M 678 2272 
L 4684 2272 
L 4684 1741 
L 678 1741 
L 678 2272 
z
" transform="scale(0.015625)"/>
       </defs>
       <use xlink:href="#DejaVuSans-2212"/>
       <use xlink:href="#DejaVuSans-32" x="83.789062"/>
      </g>
     </g>
    </g>
    <g id="ytick_2">
     <g id="line2d_8">
      <g>
       <use xlink:href="#m497745e6f8" x="28.942188" y="100.459133" style="stroke: #000000; stroke-width: 0.8"/>
      </g>
     </g>
     <g id="text_8">
      <!-- −1 -->
      <g transform="translate(7.2 104.258352) scale(0.1 -0.1)">
       <use xlink:href="#DejaVuSans-2212"/>
       <use xlink:href="#DejaVuSans-31" x="83.789062"/>
      </g>
     </g>
    </g>
    <g id="ytick_3">
     <g id="line2d_9">
      <g>
       <use xlink:href="#m497745e6f8" x="28.942188" y="74.941514" style="stroke: #000000; stroke-width: 0.8"/>
      </g>
     </g>
     <g id="text_9">
      <!-- 0 -->
      <g transform="translate(15.579688 78.740733) scale(0.1 -0.1)">
       <use xlink:href="#DejaVuSans-30"/>
      </g>
     </g>
    </g>
    <g id="ytick_4">
     <g id="line2d_10">
      <g>
       <use xlink:href="#m497745e6f8" x="28.942188" y="49.423896" style="stroke: #000000; stroke-width: 0.8"/>
      </g>
     </g>
     <g id="text_10">
      <!-- 1 -->
      <g transform="translate(15.579688 53.223115) scale(0.1 -0.1)">
       <use xlink:href="#DejaVuSans-31"/>
      </g>
     </g>
    </g>
    <g id="ytick_5">
     <g id="line2d_11">
      <g>
       <use xlink:href="#m497745e6f8" x="28.942188" y="23.906277" style="stroke: #000000; stroke-width: 0.8"/>
      </g>
     </g>
     <g id="text_11">
      <!-- 2 -->
      <g transform="translate(15.579688 27.705496) scale(0.1 -0.1)">
       <use xlink:href="#DejaVuSans-32"/>
      </g>
     </g>
    </g>
   </g>
   <g id="line2d_12">
    <path d="M 37.81946 139.5 
L 38.531065 139.390027 
L 39.598473 138.938274 
L 40.66588 138.147247 
L 41.733288 137.024119 
L 42.800695 135.577878 
L 44.223905 133.16626 
L 45.647116 130.232486 
L 47.070326 126.81776 
L 48.849338 121.952823 
L 50.984153 115.412275 
L 54.542178 103.566076 
L 57.744401 93.070752 
L 59.879216 86.82688 
L 61.658229 82.386768 
L 63.081439 79.457779 
L 64.148846 77.670012 
L 65.216254 76.257165 
L 66.283661 75.234632 
L 67.351069 74.611863 
L 68.062674 74.420858 
L 68.774279 74.409092 
L 69.485884 74.575328 
L 70.197489 74.917407 
L 71.264897 75.75324 
L 72.332304 76.963588 
L 73.399712 78.530387 
L 74.822922 81.135325 
L 76.246132 84.271523 
L 78.025144 88.823208 
L 80.159959 94.977876 
L 87.27601 116.219216 
L 89.055022 120.483457 
L 90.478232 123.306271 
L 91.54564 125.035768 
L 92.613047 126.41419 
L 93.680455 127.435623 
L 94.747862 128.104677 
L 95.81527 128.43633 
L 96.882678 128.455248 
L 97.950085 128.194672 
L 99.017493 127.694863 
L 100.440703 126.735131 
L 102.219715 125.225557 
L 107.20095 120.815143 
L 108.979963 119.578688 
L 111.114778 118.385758 
L 115.740211 116.013291 
L 117.163421 114.982384 
L 118.586631 113.644662 
L 120.009841 111.923083 
L 121.433051 109.763654 
L 122.856261 107.140834 
L 124.279471 104.060388 
L 126.058484 99.625533 
L 128.193299 93.631799 
L 135.665152 71.917087 
L 137.444164 67.757921 
L 138.867374 64.945667 
L 140.290584 62.638823 
L 141.357992 61.25407 
L 142.425399 60.167511 
L 143.492807 59.374214 
L 144.560214 58.863238 
L 145.627622 58.617911 
L 146.69503 58.616212 
L 147.762437 58.83118 
L 149.185647 59.39989 
L 150.96466 60.442488 
L 156.6575 64.123572 
L 158.08071 64.633704 
L 159.148118 64.814364 
L 160.215525 64.802695 
L 161.282933 64.591217 
L 162.35034 64.182419 
L 163.77355 63.354201 
L 165.19676 62.258307 
L 167.687378 59.978816 
L 169.822193 58.082721 
L 171.245403 57.092642 
L 172.312811 56.591642 
L 173.380218 56.356217 
L 174.447626 56.431446 
L 175.159231 56.672299 
L 175.870836 57.075307 
L 176.938243 57.995373 
L 178.005651 59.300321 
L 179.073058 60.984855 
L 180.140466 63.030156 
L 181.563676 66.261303 
L 183.342689 70.950316 
L 186.189109 79.257676 
L 188.679726 86.361607 
L 190.458739 90.766169 
L 191.881949 93.63788 
L 192.949356 95.320845 
L 194.016764 96.550013 
L 194.728369 97.100902 
L 195.439974 97.42915 
L 196.151579 97.531035 
L 196.863184 97.405538 
L 197.574789 97.05432 
L 198.286394 96.481699 
L 199.353802 95.223474 
L 200.421209 93.516998 
L 201.488617 91.407589 
L 202.911827 88.065513 
L 204.690839 83.258218 
L 210.739482 66.224932 
L 212.162692 63.057066 
L 213.2301 61.081768 
L 214.297507 59.49604 
L 215.364915 58.329341 
L 215.364915 58.329341 
" clip-path="url(#p4128d268bb)" style="fill: none; stroke: #000000; stroke-opacity: 0.5; stroke-width: 1.5; stroke-linecap: square"/>
   </g>
   <g id="line2d_13">
    <path d="M 37.81946 45.625021 
L 38.886868 46.2396 
L 40.310078 47.354449 
L 41.733288 48.800087 
L 43.156498 50.564646 
L 44.935511 53.194075 
L 46.714523 56.256318 
L 48.849338 60.428751 
L 51.339956 65.833661 
L 55.965388 76.586387 
L 59.167611 83.780343 
L 61.658229 88.856371 
L 63.793044 92.761711 
L 66.283661 96.852068 
L 70.197489 102.734073 
L 74.111317 108.761762 
L 78.025144 115.306599 
L 81.583169 121.151759 
L 83.362182 123.707718 
L 84.785392 125.451019 
L 86.208602 126.86269 
L 87.27601 127.677439 
L 88.343417 128.269866 
L 89.410825 128.634614 
L 90.478232 128.772193 
L 91.54564 128.688524 
L 92.613047 128.394156 
L 93.680455 127.90333 
L 95.103665 126.972654 
L 96.526875 125.766557 
L 98.305888 123.938954 
L 100.440703 121.380512 
L 102.93132 118.031465 
L 106.133543 113.338854 
L 110.758976 106.117218 
L 127.125891 79.827068 
L 132.462929 70.551371 
L 136.732559 63.285378 
L 139.223177 59.436461 
L 141.357992 56.494726 
L 143.492807 53.944084 
L 145.271819 52.14358 
L 147.050832 50.653179 
L 148.829845 49.484413 
L 150.253055 48.789641 
L 151.676265 48.316929 
L 153.099475 48.07492 
L 154.522685 48.071632 
L 155.945895 48.31263 
L 157.369105 48.798682 
L 158.792315 49.523502 
L 160.215525 50.471728 
L 161.994538 51.931031 
L 164.129353 53.983822 
L 170.177995 60.042702 
L 171.957008 61.426902 
L 173.380218 62.28727 
L 174.803428 62.899257 
L 176.226638 63.252387 
L 177.649848 63.351738 
L 179.073058 63.217004 
L 180.496268 62.880182 
L 182.275281 62.237995 
L 185.121701 60.911969 
L 189.747134 58.711582 
L 192.593554 57.60111 
L 196.151579 56.455321 
L 200.777012 55.185784 
L 203.267629 54.716569 
L 205.046642 54.615163 
L 206.469852 54.755414 
L 207.893062 55.155041 
L 208.96047 55.657515 
L 210.027877 56.355288 
L 211.095285 57.262898 
L 212.518495 58.814106 
L 213.941705 60.757291 
L 215.364915 63.074931 
L 215.364915 63.074931 
" clip-path="url(#p4128d268bb)" style="fill: none; stroke: #000000; stroke-opacity: 0.5; stroke-width: 1.5; stroke-linecap: square"/>
   </g>
   <g id="line2d_14">
    <path d="M 37.81946 32.979539 
L 42.444893 32.776432 
L 43.868103 32.420538 
L 45.291313 31.794768 
L 46.714523 30.860542 
L 48.137733 29.609215 
L 49.560943 28.063483 
L 51.339956 25.800994 
L 57.032796 18.241147 
L 58.456006 16.914319 
L 59.523414 16.224318 
L 60.590821 15.845673 
L 61.302426 15.784799 
L 62.014031 15.887643 
L 62.725636 16.160963 
L 63.437241 16.609372 
L 64.504649 17.614767 
L 65.572056 19.016819 
L 66.639464 20.801435 
L 68.062674 23.72968 
L 69.485884 27.199799 
L 71.264897 32.115869 
L 74.822922 42.819387 
L 77.669342 51.019 
L 79.448354 55.566342 
L 81.227367 59.548633 
L 83.00638 62.964735 
L 84.785392 65.889798 
L 86.920207 68.936604 
L 94.747862 79.585512 
L 102.575518 91.285393 
L 103.998728 92.909641 
L 105.421938 94.198478 
L 106.489345 94.909905 
L 107.556753 95.381248 
L 108.624161 95.599178 
L 109.691568 95.556378 
L 110.758976 95.251876 
L 111.826383 94.691271 
L 112.893791 93.886742 
L 114.317001 92.467705 
L 115.740211 90.709712 
L 117.519223 88.155459 
L 123.923669 78.519266 
L 125.346879 76.895341 
L 126.770089 75.634667 
L 127.837496 74.956766 
L 128.904904 74.521559 
L 129.972311 74.332815 
L 131.039719 74.386907 
L 132.107126 74.673258 
L 133.174534 75.175107 
L 134.597744 76.141 
L 136.020954 77.3882 
L 137.799967 79.23642 
L 141.002189 82.957016 
L 144.204412 86.58573 
L 146.339227 88.686569 
L 148.11824 90.142078 
L 149.54145 91.071017 
L 150.96466 91.757976 
L 152.38787 92.170344 
L 153.455277 92.278007 
L 154.522685 92.194952 
L 155.590092 91.904436 
L 156.6575 91.389716 
L 157.724907 90.63473 
L 158.792315 89.624949 
L 159.859723 88.348222 
L 161.282933 86.21588 
L 162.706143 83.584032 
L 164.129353 80.458429 
L 165.908365 75.89338 
L 167.687378 70.676113 
L 169.822193 63.728316 
L 173.380218 51.208594 
L 177.294046 37.614219 
L 179.428861 30.942002 
L 181.207873 26.033662 
L 182.631083 22.622123 
L 184.054294 19.72049 
L 185.477504 17.362112 
L 186.544911 15.961707 
L 187.612319 14.880129 
L 188.679726 14.114934 
L 189.747134 13.658865 
L 190.814541 13.5 
L 191.881949 13.621984 
L 192.949356 14.004379 
L 194.016764 14.623191 
L 195.439974 15.769113 
L 196.863184 17.217683 
L 198.642197 19.343544 
L 201.488617 23.153962 
L 207.181457 30.852569 
L 213.941705 39.740119 
L 215.364915 41.865707 
L 215.364915 41.865707 
" clip-path="url(#p4128d268bb)" style="fill: none; stroke: #000000; stroke-opacity: 0.5; stroke-width: 1.5; stroke-linecap: square"/>
   </g>
   <g id="line2d_15">
    <path d="M 37.81946 76.819318 
L 39.24267 75.660111 
L 40.310078 75.030879 
L 41.733288 74.487542 
L 43.156498 74.231077 
L 44.935511 74.19441 
L 48.849338 74.304755 
L 50.272548 74.075756 
L 51.339956 73.71249 
L 52.407363 73.147547 
L 53.474771 72.35431 
L 54.542178 71.313644 
L 55.609586 70.01452 
L 57.032796 67.876847 
L 58.456006 65.292563 
L 60.235019 61.500361 
L 62.369834 56.306582 
L 69.485884 38.26846 
L 70.909094 35.40233 
L 72.332304 33.034975 
L 73.399712 31.635124 
L 74.467119 30.585616 
L 75.534527 29.903088 
L 76.246132 29.656093 
L 76.957737 29.575725 
L 77.669342 29.660005 
L 78.380947 29.90507 
L 79.448354 30.561036 
L 80.515762 31.538223 
L 81.583169 32.800821 
L 83.00638 34.851911 
L 84.785392 37.833562 
L 89.410825 45.896003 
L 90.834035 47.932653 
L 92.257245 49.557453 
L 93.324652 50.457399 
L 94.39206 51.059485 
L 95.459468 51.353414 
L 96.526875 51.340384 
L 97.594283 51.033171 
L 98.66169 50.455698 
L 99.729098 49.642152 
L 101.152308 48.265906 
L 103.287123 45.83009 
L 106.133543 42.609116 
L 107.556753 41.308139 
L 108.624161 40.558971 
L 109.691568 40.041837 
L 110.758976 39.779138 
L 111.826383 39.781548 
L 112.893791 40.047708 
L 113.961198 40.564523 
L 115.028606 41.308059 
L 116.451816 42.593318 
L 118.230828 44.529783 
L 122.856261 49.753385 
L 124.279471 51.013536 
L 125.702681 51.985109 
L 127.125891 52.640256 
L 128.549101 52.981926 
L 129.972311 53.04226 
L 131.395521 52.878671 
L 133.530337 52.385842 
L 136.376757 51.7537 
L 137.799967 51.659868 
L 139.223177 51.825696 
L 140.290584 52.160507 
L 141.357992 52.699156 
L 142.425399 53.455551 
L 143.492807 54.436531 
L 144.916017 56.09234 
L 146.339227 58.126275 
L 148.11824 61.137599 
L 150.253055 65.281131 
L 158.08071 81.15311 
L 159.859723 83.997865 
L 161.282933 85.902065 
L 162.706143 87.446961 
L 164.129353 88.62288 
L 165.19676 89.265576 
L 166.264168 89.711255 
L 167.331575 89.971385 
L 168.754785 90.055392 
L 170.177995 89.877447 
L 171.601206 89.483729 
L 173.380218 88.760435 
L 175.870836 87.471455 
L 182.275281 83.746468 
L 196.507382 75.663519 
L 198.642197 74.743142 
L 200.421209 74.183702 
L 202.200222 73.862125 
L 203.623432 73.800083 
L 205.046642 73.923889 
L 206.469852 74.23726 
L 208.248864 74.888849 
L 210.027877 75.806221 
L 212.162692 77.20213 
L 214.65331 79.126544 
L 215.364915 79.715219 
L 215.364915 79.715219 
" clip-path="url(#p4128d268bb)" style="fill: none; stroke: #000000; stroke-opacity: 0.5; stroke-width: 1.5; stroke-linecap: square"/>
   </g>
   <g id="line2d_16">
    <path d="M 37.81946 77.621623 
L 39.598473 79.861321 
L 41.021683 81.376172 
L 42.444893 82.596416 
L 43.868103 83.490483 
L 44.935511 83.935802 
L 46.002918 84.185288 
L 47.070326 84.241358 
L 48.137733 84.110754 
L 49.560943 83.665198 
L 50.984153 82.941753 
L 52.407363 81.983297 
L 54.186376 80.528636 
L 56.676993 78.190912 
L 62.014031 73.076937 
L 64.504649 71.057432 
L 66.639464 69.633441 
L 68.774279 68.51125 
L 70.909094 67.662882 
L 73.755514 66.822616 
L 77.669342 65.686235 
L 79.448354 64.948267 
L 81.227367 63.961187 
L 83.00638 62.680594 
L 84.785392 61.104824 
L 86.920207 58.89612 
L 92.257245 53.189015 
L 93.680455 52.03676 
L 95.103665 51.203239 
L 96.171073 50.828856 
L 97.23848 50.694614 
L 98.305888 50.81626 
L 99.373295 51.202807 
L 100.440703 51.856634 
L 101.50811 52.773897 
L 102.575518 53.945244 
L 103.998728 55.877664 
L 105.421938 58.194249 
L 107.20095 61.555074 
L 109.335766 66.136349 
L 111.826383 72.022605 
L 116.096013 82.794479 
L 120.721446 94.29379 
L 123.212064 99.930653 
L 125.346879 104.257943 
L 127.125891 107.441076 
L 128.904904 110.211606 
L 130.683916 112.568349 
L 132.462929 114.532249 
L 134.241942 116.141084 
L 136.020954 117.441637 
L 137.799967 118.480965 
L 139.934782 119.437999 
L 142.069597 120.117142 
L 144.204412 120.527689 
L 145.983425 120.651065 
L 147.762437 120.553346 
L 149.54145 120.211546 
L 151.320462 119.607991 
L 153.099475 118.737145 
L 154.878487 117.611234 
L 157.013302 115.972768 
L 160.215525 113.156875 
L 163.417748 110.386267 
L 165.19676 109.093034 
L 166.61997 108.269836 
L 168.04318 107.674947 
L 169.46639 107.328773 
L 170.889601 107.231263 
L 172.312811 107.358774 
L 174.091823 107.758272 
L 178.361453 108.859501 
L 179.784663 108.893647 
L 180.852071 108.691955 
L 181.919478 108.247907 
L 182.986886 107.525926 
L 184.054294 106.499204 
L 185.121701 105.151354 
L 186.189109 103.477569 
L 187.612319 100.753328 
L 189.035529 97.515167 
L 190.814541 92.879895 
L 193.660961 84.681703 
L 196.863184 75.614402 
L 198.642197 71.243642 
L 200.065407 68.302135 
L 201.132814 66.481936 
L 202.200222 65.024369 
L 203.267629 63.947852 
L 204.335037 63.261424 
L 205.046642 63.020904 
L 205.758247 62.951905 
L 206.469852 63.050854 
L 207.181457 63.312801 
L 208.248864 63.997504 
L 209.316272 65.009489 
L 210.38368 66.319236 
L 211.80689 68.472118 
L 213.585902 71.700833 
L 215.364915 75.374957 
L 215.364915 75.374957 
" clip-path="url(#p4128d268bb)" style="fill: none; stroke: #000000; stroke-opacity: 0.5; stroke-width: 1.5; stroke-linecap: square"/>
   </g>
   <g id="line2d_17">
    <path d="M 37.81946 74.941514 
L 215.364915 74.941514 
L 215.364915 74.941514 
" clip-path="url(#p4128d268bb)" style="fill: none; stroke: #1f77b4; stroke-width: 2; stroke-linecap: square"/>
   </g>
   <g id="patch_3">
    <path d="M 28.942188 145.8 
L 28.942188 7.2 
" style="fill: none; stroke: #000000; stroke-width: 0.8; stroke-linejoin: miter; stroke-linecap: square"/>
   </g>
   <g id="patch_4">
    <path d="M 224.242188 145.8 
L 224.242188 7.2 
" style="fill: none; stroke: #000000; stroke-width: 0.8; stroke-linejoin: miter; stroke-linecap: square"/>
   </g>
   <g id="patch_5">
    <path d="M 28.942187 145.8 
L 224.242188 145.8 
" style="fill: none; stroke: #000000; stroke-width: 0.8; stroke-linejoin: miter; stroke-linecap: square"/>
   </g>
   <g id="patch_6">
    <path d="M 28.942187 7.2 
L 224.242188 7.2 
" style="fill: none; stroke: #000000; stroke-width: 0.8; stroke-linejoin: miter; stroke-linecap: square"/>
   </g>
  </g>
 </g>
 <defs>
  <clipPath id="p4128d268bb">
   <rect x="28.942188" y="7.2" width="195.3" height="138.6"/>
  </clipPath>
 </defs>
</svg>
