<?xml version="1.0" encoding="utf-8" standalone="no"?>
<!DOCTYPE svg PUBLIC "-//W3C//DTD SVG 1.1//EN"
  "http://www.w3.org/Graphics/SVG/1.1/DTD/svg11.dtd">
<svg xmlns:xlink="http://www.w3.org/1999/xlink" width="745.001562pt" height="331.634375pt" viewBox="0 0 745.001562 331.634375" xmlns="http://www.w3.org/2000/svg" version="1.1">
 <metadata>
  <rdf:RDF xmlns:dc="http://purl.org/dc/elements/1.1/" xmlns:cc="http://creativecommons.org/ns#" xmlns:rdf="http://www.w3.org/1999/02/22-rdf-syntax-ns#">
   <cc:Work>
    <dc:type rdf:resource="http://purl.org/dc/dcmitype/StillImage"/>
    <dc:date>2025-07-11T19:44:32.774158</dc:date>
    <dc:format>image/svg+xml</dc:format>
    <dc:creator>
     <cc:Agent>
      <dc:title>Matplotlib v3.6.1, https://matplotlib.org/</dc:title>
     </cc:Agent>
    </dc:creator>
   </cc:Work>
  </rdf:RDF>
 </metadata>
 <defs>
  <style type="text/css">*{stroke-linejoin: round; stroke-linecap: butt}</style>
 </defs>
 <g id="figure_1">
  <g id="patch_1">
   <path d="M 0 331.634375 
L 745.001562 331.634375 
L 745.001562 0 
L 0 0 
z
" style="fill: #ffffff"/>
  </g>
  <g id="axes_1">
   <g id="patch_2">
    <path d="M 68.201563 284.4 
L 737.801563 284.4 
L 737.801563 7.2 
L 68.201563 7.2 
z
" style="fill: #ffffff"/>
   </g>
   <g id="PolyCollection_1">
    <path d="M 98.637926 19.8 
L 98.637926 271.8 
L 111.060932 266.858985 
L 123.483937 261.926737 
L 135.906943 257.004424 
L 148.329948 252.093424 
L 160.752954 247.195382 
L 173.17596 242.312271 
L 185.598965 237.446478 
L 198.021971 232.600914 
L 210.444976 227.779168 
L 222.867982 222.985702 
L 235.290987 218.226133 
L 247.713993 213.507609 
L 260.136998 208.839346 
L 272.560004 204.233394 
L 284.98301 199.705726 
L 297.406015 195.277839 
L 309.829021 190.979079 
L 322.252026 186.850033 
L 334.675032 182.947337 
L 347.098037 179.350075 
L 359.521043 176.166986 
L 371.944049 173.541009 
L 384.367054 171.642537 
L 396.79006 170.638947 
L 409.213065 170.638947 
L 421.636071 171.642537 
L 434.059076 173.541009 
L 446.482082 176.166986 
L 458.905088 179.350075 
L 471.328093 182.947337 
L 483.751099 186.850033 
L 496.174104 190.979079 
L 508.59711 195.277839 
L 521.020115 199.705726 
L 533.443121 204.233394 
L 545.866127 208.839346 
L 558.289132 213.507609 
L 570.712138 218.226133 
L 583.135143 222.985702 
L 595.558149 227.779168 
L 607.981154 232.600914 
L 620.40416 237.446478 
L 632.827165 242.312271 
L 645.250171 247.195382 
L 657.673177 252.093424 
L 670.096182 257.004424 
L 682.519188 261.926737 
L 694.942193 266.858985 
L 707.365199 271.8 
L 707.365199 19.8 
L 707.365199 19.8 
L 694.942193 24.741015 
L 682.519188 29.673263 
L 670.096182 34.595576 
L 657.673177 39.506576 
L 645.250171 44.404618 
L 632.827165 49.287729 
L 620.40416 54.153522 
L 607.981154 58.999086 
L 595.558149 63.820832 
L 583.135143 68.614298 
L 570.712138 73.373867 
L 558.289132 78.092391 
L 545.866127 82.760654 
L 533.443121 87.366606 
L 521.020115 91.894274 
L 508.59711 96.322161 
L 496.174104 100.620921 
L 483.751099 104.749967 
L 471.328093 108.652663 
L 458.905088 112.249925 
L 446.482082 115.433014 
L 434.059076 118.058991 
L 421.636071 119.957463 
L 409.213065 120.961053 
L 396.79006 120.961053 
L 384.367054 119.957463 
L 371.944049 118.058991 
L 359.521043 115.433014 
L 347.098037 112.249925 
L 334.675032 108.652663 
L 322.252026 104.749967 
L 309.829021 100.620921 
L 297.406015 96.322161 
L 284.98301 91.894274 
L 272.560004 87.366606 
L 260.136998 82.760654 
L 247.713993 78.092391 
L 235.290987 73.373867 
L 222.867982 68.614298 
L 210.444976 63.820832 
L 198.021971 58.999086 
L 185.598965 54.153522 
L 173.17596 49.287729 
L 160.752954 44.404618 
L 148.329948 39.506576 
L 135.906943 34.595576 
L 123.483937 29.673263 
L 111.060932 24.741015 
L 98.637926 19.8 
z
" clip-path="url(#pc43bc32ce5)" style="fill: #1f77b4; fill-opacity: 0.25"/>
   </g>
   <g id="matplotlib.axis_1">
    <g id="xtick_1">
     <g id="line2d_1">
      <defs>
       <path id="m0adf0d2de3" d="M 0 0 
L 0 3.5 
" style="stroke: #000000; stroke-width: 0.8"/>
      </defs>
      <g>
       <use xlink:href="#m0adf0d2de3" x="159.510653" y="284.4" style="stroke: #000000; stroke-width: 0.8"/>
      </g>
     </g>
     <g id="text_1">
      <!-- −4 -->
      <g transform="translate(152.13956 298.998437) scale(0.1 -0.1)">
       <defs>
        <path id="DejaVuSans-2212" d="M 678 2272 
L 4684 2272 
L 4684 1741 
L 678 1741 
L 678 2272 
z
" transform="scale(0.015625)"/>
        <path id="DejaVuSans-34" d="M 2419 4116 
L 825 1625 
L 2419 1625 
L 2419 4116 
z
M 2253 4666 
L 3047 4666 
L 3047 1625 
L 3713 1625 
L 3713 1100 
L 3047 1100 
L 3047 0 
L 2419 0 
L 2419 1100 
L 313 1100 
L 313 1709 
L 2253 4666 
z
" transform="scale(0.015625)"/>
       </defs>
       <use xlink:href="#DejaVuSans-2212"/>
       <use xlink:href="#DejaVuSans-34" x="83.789062"/>
      </g>
     </g>
    </g>
    <g id="xtick_2">
     <g id="line2d_2">
      <g>
       <use xlink:href="#m0adf0d2de3" x="281.256108" y="284.4" style="stroke: #000000; stroke-width: 0.8"/>
      </g>
     </g>
     <g id="text_2">
      <!-- −2 -->
      <g transform="translate(273.885014 298.998437) scale(0.1 -0.1)">
       <defs>
        <path id="DejaVuSans-32" d="M 1228 531 
L 3431 531 
L 3431 0 
L 469 0 
L 469 531 
Q 828 903 1448 1529 
Q 2069 2156 2228 2338 
Q 2531 2678 2651 2914 
Q 2772 3150 2772 3378 
Q 2772 3750 2511 3984 
Q 2250 4219 1831 4219 
Q 1534 4219 1204 4116 
Q 875 4013 500 3803 
L 500 4441 
Q 881 4594 1212 4672 
Q 1544 4750 1819 4750 
Q 2544 4750 2975 4387 
Q 3406 4025 3406 3419 
Q 3406 3131 3298 2873 
Q 3191 2616 2906 2266 
Q 2828 2175 2409 1742 
Q 1991 1309 1228 531 
z
" transform="scale(0.015625)"/>
       </defs>
       <use xlink:href="#DejaVuSans-2212"/>
       <use xlink:href="#DejaVuSans-32" x="83.789062"/>
      </g>
     </g>
    </g>
    <g id="xtick_3">
     <g id="line2d_3">
      <g>
       <use xlink:href="#m0adf0d2de3" x="403.001563" y="284.4" style="stroke: #000000; stroke-width: 0.8"/>
      </g>
     </g>
     <g id="text_3">
      <!-- 0 -->
      <g transform="translate(399.820313 298.998437) scale(0.1 -0.1)">
       <defs>
        <path id="DejaVuSans-30" d="M 2034 4250 
Q 1547 4250 1301 3770 
Q 1056 3291 1056 2328 
Q 1056 1369 1301 889 
Q 1547 409 2034 409 
Q 2525 409 2770 889 
Q 3016 1369 3016 2328 
Q 3016 3291 2770 3770 
Q 2525 4250 2034 4250 
z
M 2034 4750 
Q 2819 4750 3233 4129 
Q 3647 3509 3647 2328 
Q 3647 1150 3233 529 
Q 2819 -91 2034 -91 
Q 1250 -91 836 529 
Q 422 1150 422 2328 
Q 422 3509 836 4129 
Q 1250 4750 2034 4750 
z
" transform="scale(0.015625)"/>
       </defs>
       <use xlink:href="#DejaVuSans-30"/>
      </g>
     </g>
    </g>
    <g id="xtick_4">
     <g id="line2d_4">
      <g>
       <use xlink:href="#m0adf0d2de3" x="524.747017" y="284.4" style="stroke: #000000; stroke-width: 0.8"/>
      </g>
     </g>
     <g id="text_4">
      <!-- 2 -->
      <g transform="translate(521.565767 298.998437) scale(0.1 -0.1)">
       <use xlink:href="#DejaVuSans-32"/>
      </g>
     </g>
    </g>
    <g id="xtick_5">
     <g id="line2d_5">
      <g>
       <use xlink:href="#m0adf0d2de3" x="646.492472" y="284.4" style="stroke: #000000; stroke-width: 0.8"/>
      </g>
     </g>
     <g id="text_5">
      <!-- 4 -->
      <g transform="translate(643.311222 298.998437) scale(0.1 -0.1)">
       <use xlink:href="#DejaVuSans-34"/>
      </g>
     </g>
    </g>
    <g id="text_6">
     <!-- x -->
     <g transform="translate(397.082813 320.275) scale(0.2 -0.2)">
      <defs>
       <path id="DejaVuSans-78" d="M 3513 3500 
L 2247 1797 
L 3578 0 
L 2900 0 
L 1881 1375 
L 863 0 
L 184 0 
L 1544 1831 
L 300 3500 
L 978 3500 
L 1906 2253 
L 2834 3500 
L 3513 3500 
z
" transform="scale(0.015625)"/>
      </defs>
      <use xlink:href="#DejaVuSans-78"/>
     </g>
    </g>
   </g>
   <g id="matplotlib.axis_2">
    <g id="ytick_1">
     <g id="line2d_6">
      <defs>
       <path id="m6813dd345a" d="M 0 0 
L -3.5 0 
" style="stroke: #000000; stroke-width: 0.8"/>
      </defs>
      <g>
       <use xlink:href="#m6813dd345a" x="68.201563" y="269.353165" style="stroke: #000000; stroke-width: 0.8"/>
      </g>
     </g>
     <g id="text_7">
      <!-- −10.0 -->
      <g transform="translate(30.55625 273.152384) scale(0.1 -0.1)">
       <defs>
        <path id="DejaVuSans-31" d="M 794 531 
L 1825 531 
L 1825 4091 
L 703 3866 
L 703 4441 
L 1819 4666 
L 2450 4666 
L 2450 531 
L 3481 531 
L 3481 0 
L 794 0 
L 794 531 
z
" transform="scale(0.015625)"/>
        <path id="DejaVuSans-2e" d="M 684 794 
L 1344 794 
L 1344 0 
L 684 0 
L 684 794 
z
" transform="scale(0.015625)"/>
       </defs>
       <use xlink:href="#DejaVuSans-2212"/>
       <use xlink:href="#DejaVuSans-31" x="83.789062"/>
       <use xlink:href="#DejaVuSans-30" x="147.412109"/>
       <use xlink:href="#DejaVuSans-2e" x="211.035156"/>
       <use xlink:href="#DejaVuSans-30" x="242.822266"/>
      </g>
     </g>
    </g>
    <g id="ytick_2">
     <g id="line2d_7">
      <g>
       <use xlink:href="#m6813dd345a" x="68.201563" y="238.464874" style="stroke: #000000; stroke-width: 0.8"/>
      </g>
     </g>
     <g id="text_8">
      <!-- −7.5 -->
      <g transform="translate(36.91875 242.264093) scale(0.1 -0.1)">
       <defs>
        <path id="DejaVuSans-37" d="M 525 4666 
L 3525 4666 
L 3525 4397 
L 1831 0 
L 1172 0 
L 2766 4134 
L 525 4134 
L 525 4666 
z
" transform="scale(0.015625)"/>
        <path id="DejaVuSans-35" d="M 691 4666 
L 3169 4666 
L 3169 4134 
L 1269 4134 
L 1269 2991 
Q 1406 3038 1543 3061 
Q 1681 3084 1819 3084 
Q 2600 3084 3056 2656 
Q 3513 2228 3513 1497 
Q 3513 744 3044 326 
Q 2575 -91 1722 -91 
Q 1428 -91 1123 -41 
Q 819 9 494 109 
L 494 744 
Q 775 591 1075 516 
Q 1375 441 1709 441 
Q 2250 441 2565 725 
Q 2881 1009 2881 1497 
Q 2881 1984 2565 2268 
Q 2250 2553 1709 2553 
Q 1456 2553 1204 2497 
Q 953 2441 691 2322 
L 691 4666 
z
" transform="scale(0.015625)"/>
       </defs>
       <use xlink:href="#DejaVuSans-2212"/>
       <use xlink:href="#DejaVuSans-37" x="83.789062"/>
       <use xlink:href="#DejaVuSans-2e" x="147.412109"/>
       <use xlink:href="#DejaVuSans-35" x="179.199219"/>
      </g>
     </g>
    </g>
    <g id="ytick_3">
     <g id="line2d_8">
      <g>
       <use xlink:href="#m6813dd345a" x="68.201563" y="207.576583" style="stroke: #000000; stroke-width: 0.8"/>
      </g>
     </g>
     <g id="text_9">
      <!-- −5.0 -->
      <g transform="translate(36.91875 211.375801) scale(0.1 -0.1)">
       <use xlink:href="#DejaVuSans-2212"/>
       <use xlink:href="#DejaVuSans-35" x="83.789062"/>
       <use xlink:href="#DejaVuSans-2e" x="147.412109"/>
       <use xlink:href="#DejaVuSans-30" x="179.199219"/>
      </g>
     </g>
    </g>
    <g id="ytick_4">
     <g id="line2d_9">
      <g>
       <use xlink:href="#m6813dd345a" x="68.201563" y="176.688291" style="stroke: #000000; stroke-width: 0.8"/>
      </g>
     </g>
     <g id="text_10">
      <!-- −2.5 -->
      <g transform="translate(36.91875 180.48751) scale(0.1 -0.1)">
       <use xlink:href="#DejaVuSans-2212"/>
       <use xlink:href="#DejaVuSans-32" x="83.789062"/>
       <use xlink:href="#DejaVuSans-2e" x="147.412109"/>
       <use xlink:href="#DejaVuSans-35" x="179.199219"/>
      </g>
     </g>
    </g>
    <g id="ytick_5">
     <g id="line2d_10">
      <g>
       <use xlink:href="#m6813dd345a" x="68.201563" y="145.8" style="stroke: #000000; stroke-width: 0.8"/>
      </g>
     </g>
     <g id="text_11">
      <!-- 0.0 -->
      <g transform="translate(45.298438 149.599219) scale(0.1 -0.1)">
       <use xlink:href="#DejaVuSans-30"/>
       <use xlink:href="#DejaVuSans-2e" x="63.623047"/>
       <use xlink:href="#DejaVuSans-30" x="95.410156"/>
      </g>
     </g>
    </g>
    <g id="ytick_6">
     <g id="line2d_11">
      <g>
       <use xlink:href="#m6813dd345a" x="68.201563" y="114.911709" style="stroke: #000000; stroke-width: 0.8"/>
      </g>
     </g>
     <g id="text_12">
      <!-- 2.5 -->
      <g transform="translate(45.298438 118.710927) scale(0.1 -0.1)">
       <use xlink:href="#DejaVuSans-32"/>
       <use xlink:href="#DejaVuSans-2e" x="63.623047"/>
       <use xlink:href="#DejaVuSans-35" x="95.410156"/>
      </g>
     </g>
    </g>
    <g id="ytick_7">
     <g id="line2d_12">
      <g>
       <use xlink:href="#m6813dd345a" x="68.201563" y="84.023417" style="stroke: #000000; stroke-width: 0.8"/>
      </g>
     </g>
     <g id="text_13">
      <!-- 5.0 -->
      <g transform="translate(45.298438 87.822636) scale(0.1 -0.1)">
       <use xlink:href="#DejaVuSans-35"/>
       <use xlink:href="#DejaVuSans-2e" x="63.623047"/>
       <use xlink:href="#DejaVuSans-30" x="95.410156"/>
      </g>
     </g>
    </g>
    <g id="ytick_8">
     <g id="line2d_13">
      <g>
       <use xlink:href="#m6813dd345a" x="68.201563" y="53.135126" style="stroke: #000000; stroke-width: 0.8"/>
      </g>
     </g>
     <g id="text_14">
      <!-- 7.5 -->
      <g transform="translate(45.298438 56.934345) scale(0.1 -0.1)">
       <use xlink:href="#DejaVuSans-37"/>
       <use xlink:href="#DejaVuSans-2e" x="63.623047"/>
       <use xlink:href="#DejaVuSans-35" x="95.410156"/>
      </g>
     </g>
    </g>
    <g id="ytick_9">
     <g id="line2d_14">
      <g>
       <use xlink:href="#m6813dd345a" x="68.201563" y="22.246835" style="stroke: #000000; stroke-width: 0.8"/>
      </g>
     </g>
     <g id="text_15">
      <!-- 10.0 -->
      <g transform="translate(38.935938 26.046054) scale(0.1 -0.1)">
       <use xlink:href="#DejaVuSans-31"/>
       <use xlink:href="#DejaVuSans-30" x="63.623047"/>
       <use xlink:href="#DejaVuSans-2e" x="127.246094"/>
       <use xlink:href="#DejaVuSans-30" x="159.033203"/>
      </g>
     </g>
    </g>
    <g id="text_16">
     <!-- f(x) -->
     <g transform="translate(22.396875 163.042187) rotate(-90) scale(0.2 -0.2)">
      <defs>
       <path id="DejaVuSans-66" d="M 2375 4863 
L 2375 4384 
L 1825 4384 
Q 1516 4384 1395 4259 
Q 1275 4134 1275 3809 
L 1275 3500 
L 2222 3500 
L 2222 3053 
L 1275 3053 
L 1275 0 
L 697 0 
L 697 3053 
L 147 3053 
L 147 3500 
L 697 3500 
L 697 3744 
Q 697 4328 969 4595 
Q 1241 4863 1831 4863 
L 2375 4863 
z
" transform="scale(0.015625)"/>
       <path id="DejaVuSans-28" d="M 1984 4856 
Q 1566 4138 1362 3434 
Q 1159 2731 1159 2009 
Q 1159 1288 1364 580 
Q 1569 -128 1984 -844 
L 1484 -844 
Q 1016 -109 783 600 
Q 550 1309 550 2009 
Q 550 2706 781 3412 
Q 1013 4119 1484 4856 
L 1984 4856 
z
" transform="scale(0.015625)"/>
       <path id="DejaVuSans-29" d="M 513 4856 
L 1013 4856 
Q 1481 4119 1714 3412 
Q 1947 2706 1947 2009 
Q 1947 1309 1714 600 
Q 1481 -109 1013 -844 
L 513 -844 
Q 928 -128 1133 580 
Q 1338 1288 1338 2009 
Q 1338 2731 1133 3434 
Q 928 4138 513 4856 
z
" transform="scale(0.015625)"/>
      </defs>
      <use xlink:href="#DejaVuSans-66"/>
      <use xlink:href="#DejaVuSans-28" x="35.205078"/>
      <use xlink:href="#DejaVuSans-78" x="74.21875"/>
      <use xlink:href="#DejaVuSans-29" x="133.398438"/>
     </g>
    </g>
   </g>
   <g id="line2d_15">
    <path d="M 98.637926 145.8 
L 111.060932 145.8 
L 123.483937 145.8 
L 135.906943 145.8 
L 148.329948 145.8 
L 160.752954 145.8 
L 173.17596 145.8 
L 185.598965 145.8 
L 198.021971 145.8 
L 210.444976 145.8 
L 222.867982 145.8 
L 235.290987 145.8 
L 247.713993 145.8 
L 260.136998 145.8 
L 272.560004 145.8 
L 284.98301 145.8 
L 297.406015 145.8 
L 309.829021 145.8 
L 322.252026 145.8 
L 334.675032 145.8 
L 347.098037 145.8 
L 359.521043 145.8 
L 371.944049 145.8 
L 384.367054 145.8 
L 396.79006 145.8 
L 409.213065 145.8 
L 421.636071 145.8 
L 434.059076 145.8 
L 446.482082 145.8 
L 458.905088 145.8 
L 471.328093 145.8 
L 483.751099 145.8 
L 496.174104 145.8 
L 508.59711 145.8 
L 521.020115 145.8 
L 533.443121 145.8 
L 545.866127 145.8 
L 558.289132 145.8 
L 570.712138 145.8 
L 583.135143 145.8 
L 595.558149 145.8 
L 607.981154 145.8 
L 620.40416 145.8 
L 632.827165 145.8 
L 645.250171 145.8 
L 657.673177 145.8 
L 670.096182 145.8 
L 682.519188 145.8 
L 694.942193 145.8 
L 707.365199 145.8 
" clip-path="url(#pc43bc32ce5)" style="fill: none; stroke: #000000; stroke-width: 4; stroke-linecap: square"/>
   </g>
   <g id="line2d_16">
    <path d="M 98.637926 130.857399 
L 111.060932 132.245851 
L 123.483937 133.634302 
L 135.906943 135.022754 
L 148.329948 136.411206 
L 160.752954 137.799657 
L 173.17596 139.188109 
L 185.598965 140.576561 
L 198.021971 141.965012 
L 210.444976 143.353464 
L 222.867982 144.741916 
L 235.290987 146.130367 
L 247.713993 147.518819 
L 260.136998 148.907271 
L 272.560004 150.295722 
L 284.98301 151.684174 
L 297.406015 153.072626 
L 309.829021 154.461078 
L 322.252026 155.849529 
L 334.675032 157.237981 
L 347.098037 158.626433 
L 359.521043 160.014884 
L 371.944049 161.403336 
L 384.367054 162.791788 
L 396.79006 164.180239 
L 409.213065 165.568691 
L 421.636071 166.957143 
L 434.059076 168.345594 
L 446.482082 169.734046 
L 458.905088 171.122498 
L 471.328093 172.510949 
L 483.751099 173.899401 
L 496.174104 175.287853 
L 508.59711 176.676304 
L 521.020115 178.064756 
L 533.443121 179.453208 
L 545.866127 180.841659 
L 558.289132 182.230111 
L 570.712138 183.618563 
L 583.135143 185.007015 
L 595.558149 186.395466 
L 607.981154 187.783918 
L 620.40416 189.17237 
L 632.827165 190.560821 
L 645.250171 191.949273 
L 657.673177 193.337725 
L 670.096182 194.726176 
L 682.519188 196.114628 
L 694.942193 197.50308 
L 707.365199 198.891531 
" clip-path="url(#pc43bc32ce5)" style="fill: none; stroke: #1f77b4; stroke-width: 1.5; stroke-linecap: square"/>
   </g>
   <g id="line2d_17">
    <path d="M 98.637926 119.895724 
L 111.060932 120.464369 
L 123.483937 121.033015 
L 135.906943 121.60166 
L 148.329948 122.170306 
L 160.752954 122.738951 
L 173.17596 123.307597 
L 185.598965 123.876242 
L 198.021971 124.444888 
L 210.444976 125.013533 
L 222.867982 125.582178 
L 235.290987 126.150824 
L 247.713993 126.719469 
L 260.136998 127.288115 
L 272.560004 127.85676 
L 284.98301 128.425406 
L 297.406015 128.994051 
L 309.829021 129.562697 
L 322.252026 130.131342 
L 334.675032 130.699988 
L 347.098037 131.268633 
L 359.521043 131.837279 
L 371.944049 132.405924 
L 384.367054 132.974569 
L 396.79006 133.543215 
L 409.213065 134.11186 
L 421.636071 134.680506 
L 434.059076 135.249151 
L 446.482082 135.817797 
L 458.905088 136.386442 
L 471.328093 136.955088 
L 483.751099 137.523733 
L 496.174104 138.092379 
L 508.59711 138.661024 
L 521.020115 139.229669 
L 533.443121 139.798315 
L 545.866127 140.36696 
L 558.289132 140.935606 
L 570.712138 141.504251 
L 583.135143 142.072897 
L 595.558149 142.641542 
L 607.981154 143.210188 
L 620.40416 143.778833 
L 632.827165 144.347479 
L 645.250171 144.916124 
L 657.673177 145.484769 
L 670.096182 146.053415 
L 682.519188 146.62206 
L 694.942193 147.190706 
L 707.365199 147.759351 
" clip-path="url(#pc43bc32ce5)" style="fill: none; stroke: #ff7f0e; stroke-width: 1.5; stroke-linecap: square"/>
   </g>
   <g id="line2d_18">
    <path d="M 98.637926 139.4413 
L 111.060932 139.401759 
L 123.483937 139.362218 
L 135.906943 139.322676 
L 148.329948 139.283135 
L 160.752954 139.243593 
L 173.17596 139.204052 
L 185.598965 139.164511 
L 198.021971 139.124969 
L 210.444976 139.085428 
L 222.867982 139.045886 
L 235.290987 139.006345 
L 247.713993 138.966804 
L 260.136998 138.927262 
L 272.560004 138.887721 
L 284.98301 138.848179 
L 297.406015 138.808638 
L 309.829021 138.769097 
L 322.252026 138.729555 
L 334.675032 138.690014 
L 347.098037 138.650472 
L 359.521043 138.610931 
L 371.944049 138.57139 
L 384.367054 138.531848 
L 396.79006 138.492307 
L 409.213065 138.452765 
L 421.636071 138.413224 
L 434.059076 138.373683 
L 446.482082 138.334141 
L 458.905088 138.2946 
L 471.328093 138.255058 
L 483.751099 138.215517 
L 496.174104 138.175976 
L 508.59711 138.136434 
L 521.020115 138.096893 
L 533.443121 138.057351 
L 545.866127 138.01781 
L 558.289132 137.978269 
L 570.712138 137.938727 
L 583.135143 137.899186 
L 595.558149 137.859644 
L 607.981154 137.820103 
L 620.40416 137.780562 
L 632.827165 137.74102 
L 645.250171 137.701479 
L 657.673177 137.661937 
L 670.096182 137.622396 
L 682.519188 137.582855 
L 694.942193 137.543313 
L 707.365199 137.503772 
" clip-path="url(#pc43bc32ce5)" style="fill: none; stroke: #2ca02c; stroke-width: 1.5; stroke-linecap: square"/>
   </g>
   <g id="line2d_19">
    <path d="M 98.637926 193.375971 
L 111.060932 192.191014 
L 123.483937 191.006058 
L 135.906943 189.821101 
L 148.329948 188.636144 
L 160.752954 187.451188 
L 173.17596 186.266231 
L 185.598965 185.081274 
L 198.021971 183.896317 
L 210.444976 182.711361 
L 222.867982 181.526404 
L 235.290987 180.341447 
L 247.713993 179.15649 
L 260.136998 177.971534 
L 272.560004 176.786577 
L 284.98301 175.60162 
L 297.406015 174.416663 
L 309.829021 173.231707 
L 322.252026 172.04675 
L 334.675032 170.861793 
L 347.098037 169.676836 
L 359.521043 168.49188 
L 371.944049 167.306923 
L 384.367054 166.121966 
L 396.79006 164.93701 
L 409.213065 163.752053 
L 421.636071 162.567096 
L 434.059076 161.382139 
L 446.482082 160.197183 
L 458.905088 159.012226 
L 471.328093 157.827269 
L 483.751099 156.642312 
L 496.174104 155.457356 
L 508.59711 154.272399 
L 521.020115 153.087442 
L 533.443121 151.902485 
L 545.866127 150.717529 
L 558.289132 149.532572 
L 570.712138 148.347615 
L 583.135143 147.162659 
L 595.558149 145.977702 
L 607.981154 144.792745 
L 620.40416 143.607788 
L 632.827165 142.422832 
L 645.250171 141.237875 
L 657.673177 140.052918 
L 670.096182 138.867961 
L 682.519188 137.683005 
L 694.942193 136.498048 
L 707.365199 135.313091 
" clip-path="url(#pc43bc32ce5)" style="fill: none; stroke: #d62728; stroke-width: 1.5; stroke-linecap: square"/>
   </g>
   <g id="line2d_20">
    <path d="M 98.637926 110.94412 
L 111.060932 113.101056 
L 123.483937 115.257993 
L 135.906943 117.414929 
L 148.329948 119.571865 
L 160.752954 121.728801 
L 173.17596 123.885738 
L 185.598965 126.042674 
L 198.021971 128.19961 
L 210.444976 130.356547 
L 222.867982 132.513483 
L 235.290987 134.670419 
L 247.713993 136.827356 
L 260.136998 138.984292 
L 272.560004 141.141228 
L 284.98301 143.298164 
L 297.406015 145.455101 
L 309.829021 147.612037 
L 322.252026 149.768973 
L 334.675032 151.92591 
L 347.098037 154.082846 
L 359.521043 156.239782 
L 371.944049 158.396719 
L 384.367054 160.553655 
L 396.79006 162.710591 
L 409.213065 164.867528 
L 421.636071 167.024464 
L 434.059076 169.1814 
L 446.482082 171.338336 
L 458.905088 173.495273 
L 471.328093 175.652209 
L 483.751099 177.809145 
L 496.174104 179.966082 
L 508.59711 182.123018 
L 521.020115 184.279954 
L 533.443121 186.436891 
L 545.866127 188.593827 
L 558.289132 190.750763 
L 570.712138 192.9077 
L 583.135143 195.064636 
L 595.558149 197.221572 
L 607.981154 199.378508 
L 620.40416 201.535445 
L 632.827165 203.692381 
L 645.250171 205.849317 
L 657.673177 208.006254 
L 670.096182 210.16319 
L 682.519188 212.320126 
L 694.942193 214.477063 
L 707.365199 216.633999 
" clip-path="url(#pc43bc32ce5)" style="fill: none; stroke: #9467bd; stroke-width: 1.5; stroke-linecap: square"/>
   </g>
   <g id="line2d_21">
    <path d="M 98.637926 191.559327 
L 111.060932 188.421281 
L 123.483937 185.283236 
L 135.906943 182.14519 
L 148.329948 179.007144 
L 160.752954 175.869099 
L 173.17596 172.731053 
L 185.598965 169.593007 
L 198.021971 166.454962 
L 210.444976 163.316916 
L 222.867982 160.17887 
L 235.290987 157.040825 
L 247.713993 153.902779 
L 260.136998 150.764734 
L 272.560004 147.626688 
L 284.98301 144.488642 
L 297.406015 141.350597 
L 309.829021 138.212551 
L 322.252026 135.074505 
L 334.675032 131.93646 
L 347.098037 128.798414 
L 359.521043 125.660368 
L 371.944049 122.522323 
L 384.367054 119.384277 
L 396.79006 116.246231 
L 409.213065 113.108186 
L 421.636071 109.97014 
L 434.059076 106.832095 
L 446.482082 103.694049 
L 458.905088 100.556003 
L 471.328093 97.417958 
L 483.751099 94.279912 
L 496.174104 91.141866 
L 508.59711 88.003821 
L 521.020115 84.865775 
L 533.443121 81.727729 
L 545.866127 78.589684 
L 558.289132 75.451638 
L 570.712138 72.313592 
L 583.135143 69.175547 
L 595.558149 66.037501 
L 607.981154 62.899455 
L 620.40416 59.76141 
L 632.827165 56.623364 
L 645.250171 53.485319 
L 657.673177 50.347273 
L 670.096182 47.209227 
L 682.519188 44.071182 
L 694.942193 40.933136 
L 707.365199 37.79509 
" clip-path="url(#pc43bc32ce5)" style="fill: none; stroke: #8c564b; stroke-width: 1.5; stroke-linecap: square"/>
   </g>
   <g id="line2d_22">
    <path d="M 98.637926 182.363675 
L 111.060932 180.543067 
L 123.483937 178.722458 
L 135.906943 176.901849 
L 148.329948 175.08124 
L 160.752954 173.260631 
L 173.17596 171.440023 
L 185.598965 169.619414 
L 198.021971 167.798805 
L 210.444976 165.978196 
L 222.867982 164.157588 
L 235.290987 162.336979 
L 247.713993 160.51637 
L 260.136998 158.695761 
L 272.560004 156.875153 
L 284.98301 155.054544 
L 297.406015 153.233935 
L 309.829021 151.413326 
L 322.252026 149.592718 
L 334.675032 147.772109 
L 347.098037 145.9515 
L 359.521043 144.130891 
L 371.944049 142.310283 
L 384.367054 140.489674 
L 396.79006 138.669065 
L 409.213065 136.848456 
L 421.636071 135.027847 
L 434.059076 133.207239 
L 446.482082 131.38663 
L 458.905088 129.566021 
L 471.328093 127.745412 
L 483.751099 125.924804 
L 496.174104 124.104195 
L 508.59711 122.283586 
L 521.020115 120.462977 
L 533.443121 118.642369 
L 545.866127 116.82176 
L 558.289132 115.001151 
L 570.712138 113.180542 
L 583.135143 111.359934 
L 595.558149 109.539325 
L 607.981154 107.718716 
L 620.40416 105.898107 
L 632.827165 104.077499 
L 645.250171 102.25689 
L 657.673177 100.436281 
L 670.096182 98.615672 
L 682.519188 96.795063 
L 694.942193 94.974455 
L 707.365199 93.153846 
" clip-path="url(#pc43bc32ce5)" style="fill: none; stroke: #e377c2; stroke-width: 1.5; stroke-linecap: square"/>
   </g>
   <g id="line2d_23">
    <path d="M 98.637926 125.6948 
L 111.060932 125.887373 
L 123.483937 126.079946 
L 135.906943 126.272519 
L 148.329948 126.465092 
L 160.752954 126.657665 
L 173.17596 126.850238 
L 185.598965 127.042811 
L 198.021971 127.235384 
L 210.444976 127.427957 
L 222.867982 127.62053 
L 235.290987 127.813103 
L 247.713993 128.005676 
L 260.136998 128.198249 
L 272.560004 128.390822 
L 284.98301 128.583395 
L 297.406015 128.775968 
L 309.829021 128.968541 
L 322.252026 129.161114 
L 334.675032 129.353687 
L 347.098037 129.54626 
L 359.521043 129.738833 
L 371.944049 129.931406 
L 384.367054 130.123979 
L 396.79006 130.316551 
L 409.213065 130.509124 
L 421.636071 130.701697 
L 434.059076 130.89427 
L 446.482082 131.086843 
L 458.905088 131.279416 
L 471.328093 131.471989 
L 483.751099 131.664562 
L 496.174104 131.857135 
L 508.59711 132.049708 
L 521.020115 132.242281 
L 533.443121 132.434854 
L 545.866127 132.627427 
L 558.289132 132.82 
L 570.712138 133.012573 
L 583.135143 133.205146 
L 595.558149 133.397719 
L 607.981154 133.590292 
L 620.40416 133.782865 
L 632.827165 133.975438 
L 645.250171 134.168011 
L 657.673177 134.360584 
L 670.096182 134.553157 
L 682.519188 134.74573 
L 694.942193 134.938303 
L 707.365199 135.130876 
" clip-path="url(#pc43bc32ce5)" style="fill: none; stroke: #7f7f7f; stroke-width: 1.5; stroke-linecap: square"/>
   </g>
   <g id="line2d_24">
    <path d="M 98.637926 187.976104 
L 111.060932 186.944916 
L 123.483937 185.913728 
L 135.906943 184.88254 
L 148.329948 183.851351 
L 160.752954 182.820163 
L 173.17596 181.788975 
L 185.598965 180.757787 
L 198.021971 179.726598 
L 210.444976 178.69541 
L 222.867982 177.664222 
L 235.290987 176.633034 
L 247.713993 175.601845 
L 260.136998 174.570657 
L 272.560004 173.539469 
L 284.98301 172.508281 
L 297.406015 171.477093 
L 309.829021 170.445904 
L 322.252026 169.414716 
L 334.675032 168.383528 
L 347.098037 167.35234 
L 359.521043 166.321151 
L 371.944049 165.289963 
L 384.367054 164.258775 
L 396.79006 163.227587 
L 409.213065 162.196398 
L 421.636071 161.16521 
L 434.059076 160.134022 
L 446.482082 159.102834 
L 458.905088 158.071645 
L 471.328093 157.040457 
L 483.751099 156.009269 
L 496.174104 154.978081 
L 508.59711 153.946892 
L 521.020115 152.915704 
L 533.443121 151.884516 
L 545.866127 150.853328 
L 558.289132 149.822139 
L 570.712138 148.790951 
L 583.135143 147.759763 
L 595.558149 146.728575 
L 607.981154 145.697386 
L 620.40416 144.666198 
L 632.827165 143.63501 
L 645.250171 142.603822 
L 657.673177 141.572633 
L 670.096182 140.541445 
L 682.519188 139.510257 
L 694.942193 138.479069 
L 707.365199 137.44788 
" clip-path="url(#pc43bc32ce5)" style="fill: none; stroke: #bcbd22; stroke-width: 1.5; stroke-linecap: square"/>
   </g>
   <g id="line2d_25">
    <path d="M 98.637926 130.900718 
L 111.060932 131.416026 
L 123.483937 131.931335 
L 135.906943 132.446643 
L 148.329948 132.961951 
L 160.752954 133.47726 
L 173.17596 133.992568 
L 185.598965 134.507876 
L 198.021971 135.023184 
L 210.444976 135.538493 
L 222.867982 136.053801 
L 235.290987 136.569109 
L 247.713993 137.084418 
L 260.136998 137.599726 
L 272.560004 138.115034 
L 284.98301 138.630343 
L 297.406015 139.145651 
L 309.829021 139.660959 
L 322.252026 140.176268 
L 334.675032 140.691576 
L 347.098037 141.206884 
L 359.521043 141.722193 
L 371.944049 142.237501 
L 384.367054 142.752809 
L 396.79006 143.268118 
L 409.213065 143.783426 
L 421.636071 144.298734 
L 434.059076 144.814043 
L 446.482082 145.329351 
L 458.905088 145.844659 
L 471.328093 146.359968 
L 483.751099 146.875276 
L 496.174104 147.390584 
L 508.59711 147.905892 
L 521.020115 148.421201 
L 533.443121 148.936509 
L 545.866127 149.451817 
L 558.289132 149.967126 
L 570.712138 150.482434 
L 583.135143 150.997742 
L 595.558149 151.513051 
L 607.981154 152.028359 
L 620.40416 152.543667 
L 632.827165 153.058976 
L 645.250171 153.574284 
L 657.673177 154.089592 
L 670.096182 154.604901 
L 682.519188 155.120209 
L 694.942193 155.635517 
L 707.365199 156.150826 
" clip-path="url(#pc43bc32ce5)" style="fill: none; stroke: #17becf; stroke-width: 1.5; stroke-linecap: square"/>
   </g>
   <g id="patch_3">
    <path d="M 68.201563 284.4 
L 68.201563 7.2 
" style="fill: none; stroke: #000000; stroke-width: 0.8; stroke-linejoin: miter; stroke-linecap: square"/>
   </g>
   <g id="patch_4">
    <path d="M 737.801563 284.4 
L 737.801563 7.2 
" style="fill: none; stroke: #000000; stroke-width: 0.8; stroke-linejoin: miter; stroke-linecap: square"/>
   </g>
   <g id="patch_5">
    <path d="M 68.201563 284.4 
L 737.801563 284.4 
" style="fill: none; stroke: #000000; stroke-width: 0.8; stroke-linejoin: miter; stroke-linecap: square"/>
   </g>
   <g id="patch_6">
    <path d="M 68.201563 7.2 
L 737.801563 7.2 
" style="fill: none; stroke: #000000; stroke-width: 0.8; stroke-linejoin: miter; stroke-linecap: square"/>
   </g>
  </g>
 </g>
 <defs>
  <clipPath id="pc43bc32ce5">
   <rect x="68.201563" y="7.2" width="669.6" height="277.2"/>
  </clipPath>
 </defs>
</svg>
