<?xml version="1.0" encoding="utf-8" standalone="no"?>
<!DOCTYPE svg PUBLIC "-//W3C//DTD SVG 1.1//EN"
  "http://www.w3.org/Graphics/SVG/1.1/DTD/svg11.dtd">
<svg xmlns:xlink="http://www.w3.org/1999/xlink" width="715.282813pt" height="308.278125pt" viewBox="0 0 715.282813 308.278125" xmlns="http://www.w3.org/2000/svg" version="1.1">
 <metadata>
  <rdf:RDF xmlns:dc="http://purl.org/dc/elements/1.1/" xmlns:cc="http://creativecommons.org/ns#" xmlns:rdf="http://www.w3.org/1999/02/22-rdf-syntax-ns#">
   <cc:Work>
    <dc:type rdf:resource="http://purl.org/dc/dcmitype/StillImage"/>
    <dc:date>2025-07-11T19:44:32.906888</dc:date>
    <dc:format>image/svg+xml</dc:format>
    <dc:creator>
     <cc:Agent>
      <dc:title>Matplotlib v3.6.1, https://matplotlib.org/</dc:title>
     </cc:Agent>
    </dc:creator>
   </cc:Work>
  </rdf:RDF>
 </metadata>
 <defs>
  <style type="text/css">*{stroke-linejoin: round; stroke-linecap: butt}</style>
 </defs>
 <g id="figure_1">
  <g id="patch_1">
   <path d="M 0 308.278125 
L 715.282813 308.278125 
L 715.282813 0 
L 0 0 
z
" style="fill: #ffffff"/>
  </g>
  <g id="axes_1">
   <g id="patch_2">
    <path d="M 38.482813 284.4 
L 708.082813 284.4 
L 708.082813 7.2 
L 38.482813 7.2 
z
" style="fill: #ffffff"/>
   </g>
   <g id="matplotlib.axis_1">
    <g id="xtick_1">
     <g id="line2d_1">
      <defs>
       <path id="me8042b9895" d="M 0 0 
L 0 3.5 
" style="stroke: #000000; stroke-width: 0.8"/>
      </defs>
      <g>
       <use xlink:href="#me8042b9895" x="68.919176" y="284.4" style="stroke: #000000; stroke-width: 0.8"/>
      </g>
     </g>
     <g id="text_1">
      <!-- 0 -->
      <g transform="translate(65.737926 298.998438) scale(0.1 -0.1)">
       <defs>
        <path id="DejaVuSans-30" d="M 2034 4250 
Q 1547 4250 1301 3770 
Q 1056 3291 1056 2328 
Q 1056 1369 1301 889 
Q 1547 409 2034 409 
Q 2525 409 2770 889 
Q 3016 1369 3016 2328 
Q 3016 3291 2770 3770 
Q 2525 4250 2034 4250 
z
M 2034 4750 
Q 2819 4750 3233 4129 
Q 3647 3509 3647 2328 
Q 3647 1150 3233 529 
Q 2819 -91 2034 -91 
Q 1250 -91 836 529 
Q 422 1150 422 2328 
Q 422 3509 836 4129 
Q 1250 4750 2034 4750 
z
" transform="scale(0.015625)"/>
       </defs>
       <use xlink:href="#DejaVuSans-30"/>
      </g>
     </g>
    </g>
    <g id="xtick_2">
     <g id="line2d_2">
      <g>
       <use xlink:href="#me8042b9895" x="190.664631" y="284.4" style="stroke: #000000; stroke-width: 0.8"/>
      </g>
     </g>
     <g id="text_2">
      <!-- 1 -->
      <g transform="translate(187.483381 298.998438) scale(0.1 -0.1)">
       <defs>
        <path id="DejaVuSans-31" d="M 794 531 
L 1825 531 
L 1825 4091 
L 703 3866 
L 703 4441 
L 1819 4666 
L 2450 4666 
L 2450 531 
L 3481 531 
L 3481 0 
L 794 0 
L 794 531 
z
" transform="scale(0.015625)"/>
       </defs>
       <use xlink:href="#DejaVuSans-31"/>
      </g>
     </g>
    </g>
    <g id="xtick_3">
     <g id="line2d_3">
      <g>
       <use xlink:href="#me8042b9895" x="312.410085" y="284.4" style="stroke: #000000; stroke-width: 0.8"/>
      </g>
     </g>
     <g id="text_3">
      <!-- 2 -->
      <g transform="translate(309.228835 298.998438) scale(0.1 -0.1)">
       <defs>
        <path id="DejaVuSans-32" d="M 1228 531 
L 3431 531 
L 3431 0 
L 469 0 
L 469 531 
Q 828 903 1448 1529 
Q 2069 2156 2228 2338 
Q 2531 2678 2651 2914 
Q 2772 3150 2772 3378 
Q 2772 3750 2511 3984 
Q 2250 4219 1831 4219 
Q 1534 4219 1204 4116 
Q 875 4013 500 3803 
L 500 4441 
Q 881 4594 1212 4672 
Q 1544 4750 1819 4750 
Q 2544 4750 2975 4387 
Q 3406 4025 3406 3419 
Q 3406 3131 3298 2873 
Q 3191 2616 2906 2266 
Q 2828 2175 2409 1742 
Q 1991 1309 1228 531 
z
" transform="scale(0.015625)"/>
       </defs>
       <use xlink:href="#DejaVuSans-32"/>
      </g>
     </g>
    </g>
    <g id="xtick_4">
     <g id="line2d_4">
      <g>
       <use xlink:href="#me8042b9895" x="434.15554" y="284.4" style="stroke: #000000; stroke-width: 0.8"/>
      </g>
     </g>
     <g id="text_4">
      <!-- 3 -->
      <g transform="translate(430.97429 298.998438) scale(0.1 -0.1)">
       <defs>
        <path id="DejaVuSans-33" d="M 2597 2516 
Q 3050 2419 3304 2112 
Q 3559 1806 3559 1356 
Q 3559 666 3084 287 
Q 2609 -91 1734 -91 
Q 1441 -91 1130 -33 
Q 819 25 488 141 
L 488 750 
Q 750 597 1062 519 
Q 1375 441 1716 441 
Q 2309 441 2620 675 
Q 2931 909 2931 1356 
Q 2931 1769 2642 2001 
Q 2353 2234 1838 2234 
L 1294 2234 
L 1294 2753 
L 1863 2753 
Q 2328 2753 2575 2939 
Q 2822 3125 2822 3475 
Q 2822 3834 2567 4026 
Q 2313 4219 1838 4219 
Q 1578 4219 1281 4162 
Q 984 4106 628 3988 
L 628 4550 
Q 988 4650 1302 4700 
Q 1616 4750 1894 4750 
Q 2613 4750 3031 4423 
Q 3450 4097 3450 3541 
Q 3450 3153 3228 2886 
Q 3006 2619 2597 2516 
z
" transform="scale(0.015625)"/>
       </defs>
       <use xlink:href="#DejaVuSans-33"/>
      </g>
     </g>
    </g>
    <g id="xtick_5">
     <g id="line2d_5">
      <g>
       <use xlink:href="#me8042b9895" x="555.900994" y="284.4" style="stroke: #000000; stroke-width: 0.8"/>
      </g>
     </g>
     <g id="text_5">
      <!-- 4 -->
      <g transform="translate(552.719744 298.998438) scale(0.1 -0.1)">
       <defs>
        <path id="DejaVuSans-34" d="M 2419 4116 
L 825 1625 
L 2419 1625 
L 2419 4116 
z
M 2253 4666 
L 3047 4666 
L 3047 1625 
L 3713 1625 
L 3713 1100 
L 3047 1100 
L 3047 0 
L 2419 0 
L 2419 1100 
L 313 1100 
L 313 1709 
L 2253 4666 
z
" transform="scale(0.015625)"/>
       </defs>
       <use xlink:href="#DejaVuSans-34"/>
      </g>
     </g>
    </g>
    <g id="xtick_6">
     <g id="line2d_6">
      <g>
       <use xlink:href="#me8042b9895" x="677.646449" y="284.4" style="stroke: #000000; stroke-width: 0.8"/>
      </g>
     </g>
     <g id="text_6">
      <!-- 5 -->
      <g transform="translate(674.465199 298.998438) scale(0.1 -0.1)">
       <defs>
        <path id="DejaVuSans-35" d="M 691 4666 
L 3169 4666 
L 3169 4134 
L 1269 4134 
L 1269 2991 
Q 1406 3038 1543 3061 
Q 1681 3084 1819 3084 
Q 2600 3084 3056 2656 
Q 3513 2228 3513 1497 
Q 3513 744 3044 326 
Q 2575 -91 1722 -91 
Q 1428 -91 1123 -41 
Q 819 9 494 109 
L 494 744 
Q 775 591 1075 516 
Q 1375 441 1709 441 
Q 2250 441 2565 725 
Q 2881 1009 2881 1497 
Q 2881 1984 2565 2268 
Q 2250 2553 1709 2553 
Q 1456 2553 1204 2497 
Q 953 2441 691 2322 
L 691 4666 
z
" transform="scale(0.015625)"/>
       </defs>
       <use xlink:href="#DejaVuSans-35"/>
      </g>
     </g>
    </g>
   </g>
   <g id="matplotlib.axis_2">
    <g id="ytick_1">
     <g id="line2d_7">
      <defs>
       <path id="m5552072d25" d="M 0 0 
L -3.5 0 
" style="stroke: #000000; stroke-width: 0.8"/>
      </defs>
      <g>
       <use xlink:href="#m5552072d25" x="38.482813" y="283.146332" style="stroke: #000000; stroke-width: 0.8"/>
      </g>
     </g>
     <g id="text_7">
      <!-- −2.5 -->
      <g transform="translate(7.2 286.94555) scale(0.1 -0.1)">
       <defs>
        <path id="DejaVuSans-2212" d="M 678 2272 
L 4684 2272 
L 4684 1741 
L 678 1741 
L 678 2272 
z
" transform="scale(0.015625)"/>
        <path id="DejaVuSans-2e" d="M 684 794 
L 1344 794 
L 1344 0 
L 684 0 
L 684 794 
z
" transform="scale(0.015625)"/>
       </defs>
       <use xlink:href="#DejaVuSans-2212"/>
       <use xlink:href="#DejaVuSans-32" x="83.789062"/>
       <use xlink:href="#DejaVuSans-2e" x="147.412109"/>
       <use xlink:href="#DejaVuSans-35" x="179.199219"/>
      </g>
     </g>
    </g>
    <g id="ytick_2">
     <g id="line2d_8">
      <g>
       <use xlink:href="#m5552072d25" x="38.482813" y="250.067214" style="stroke: #000000; stroke-width: 0.8"/>
      </g>
     </g>
     <g id="text_8">
      <!-- −2.0 -->
      <g transform="translate(7.2 253.866433) scale(0.1 -0.1)">
       <use xlink:href="#DejaVuSans-2212"/>
       <use xlink:href="#DejaVuSans-32" x="83.789062"/>
       <use xlink:href="#DejaVuSans-2e" x="147.412109"/>
       <use xlink:href="#DejaVuSans-30" x="179.199219"/>
      </g>
     </g>
    </g>
    <g id="ytick_3">
     <g id="line2d_9">
      <g>
       <use xlink:href="#m5552072d25" x="38.482813" y="216.988097" style="stroke: #000000; stroke-width: 0.8"/>
      </g>
     </g>
     <g id="text_9">
      <!-- −1.5 -->
      <g transform="translate(7.2 220.787316) scale(0.1 -0.1)">
       <use xlink:href="#DejaVuSans-2212"/>
       <use xlink:href="#DejaVuSans-31" x="83.789062"/>
       <use xlink:href="#DejaVuSans-2e" x="147.412109"/>
       <use xlink:href="#DejaVuSans-35" x="179.199219"/>
      </g>
     </g>
    </g>
    <g id="ytick_4">
     <g id="line2d_10">
      <g>
       <use xlink:href="#m5552072d25" x="38.482813" y="183.90898" style="stroke: #000000; stroke-width: 0.8"/>
      </g>
     </g>
     <g id="text_10">
      <!-- −1.0 -->
      <g transform="translate(7.2 187.708198) scale(0.1 -0.1)">
       <use xlink:href="#DejaVuSans-2212"/>
       <use xlink:href="#DejaVuSans-31" x="83.789062"/>
       <use xlink:href="#DejaVuSans-2e" x="147.412109"/>
       <use xlink:href="#DejaVuSans-30" x="179.199219"/>
      </g>
     </g>
    </g>
    <g id="ytick_5">
     <g id="line2d_11">
      <g>
       <use xlink:href="#m5552072d25" x="38.482813" y="150.829862" style="stroke: #000000; stroke-width: 0.8"/>
      </g>
     </g>
     <g id="text_11">
      <!-- −0.5 -->
      <g transform="translate(7.2 154.629081) scale(0.1 -0.1)">
       <use xlink:href="#DejaVuSans-2212"/>
       <use xlink:href="#DejaVuSans-30" x="83.789062"/>
       <use xlink:href="#DejaVuSans-2e" x="147.412109"/>
       <use xlink:href="#DejaVuSans-35" x="179.199219"/>
      </g>
     </g>
    </g>
    <g id="ytick_6">
     <g id="line2d_12">
      <g>
       <use xlink:href="#m5552072d25" x="38.482813" y="117.750745" style="stroke: #000000; stroke-width: 0.8"/>
      </g>
     </g>
     <g id="text_12">
      <!-- 0.0 -->
      <g transform="translate(15.579688 121.549963) scale(0.1 -0.1)">
       <use xlink:href="#DejaVuSans-30"/>
       <use xlink:href="#DejaVuSans-2e" x="63.623047"/>
       <use xlink:href="#DejaVuSans-30" x="95.410156"/>
      </g>
     </g>
    </g>
    <g id="ytick_7">
     <g id="line2d_13">
      <g>
       <use xlink:href="#m5552072d25" x="38.482813" y="84.671627" style="stroke: #000000; stroke-width: 0.8"/>
      </g>
     </g>
     <g id="text_13">
      <!-- 0.5 -->
      <g transform="translate(15.579688 88.470846) scale(0.1 -0.1)">
       <use xlink:href="#DejaVuSans-30"/>
       <use xlink:href="#DejaVuSans-2e" x="63.623047"/>
       <use xlink:href="#DejaVuSans-35" x="95.410156"/>
      </g>
     </g>
    </g>
    <g id="ytick_8">
     <g id="line2d_14">
      <g>
       <use xlink:href="#m5552072d25" x="38.482813" y="51.59251" style="stroke: #000000; stroke-width: 0.8"/>
      </g>
     </g>
     <g id="text_14">
      <!-- 1.0 -->
      <g transform="translate(15.579688 55.391729) scale(0.1 -0.1)">
       <use xlink:href="#DejaVuSans-31"/>
       <use xlink:href="#DejaVuSans-2e" x="63.623047"/>
       <use xlink:href="#DejaVuSans-30" x="95.410156"/>
      </g>
     </g>
    </g>
    <g id="ytick_9">
     <g id="line2d_15">
      <g>
       <use xlink:href="#m5552072d25" x="38.482813" y="18.513393" style="stroke: #000000; stroke-width: 0.8"/>
      </g>
     </g>
     <g id="text_15">
      <!-- 1.5 -->
      <g transform="translate(15.579688 22.312611) scale(0.1 -0.1)">
       <use xlink:href="#DejaVuSans-31"/>
       <use xlink:href="#DejaVuSans-2e" x="63.623047"/>
       <use xlink:href="#DejaVuSans-35" x="95.410156"/>
      </g>
     </g>
    </g>
   </g>
   <g id="line2d_16">
    <path d="M 68.919176 221.680181 
L 81.342182 235.813529 
L 93.765187 247.865163 
L 106.188193 257.607723 
L 118.611198 264.891606 
L 131.034204 269.632715 
L 143.45721 271.8 
L 155.880215 271.404531 
L 168.303221 268.491281 
L 180.726226 263.134194 
L 193.149232 255.434294 
L 205.572237 245.520708 
L 217.995243 233.553578 
L 230.418248 219.728179 
L 242.841254 204.279363 
L 255.26426 187.485296 
L 267.687265 169.669827 
L 280.110271 151.202422 
L 292.533276 132.494817 
L 304.956282 113.993545 
L 317.379287 96.167597 
L 329.802293 79.490757 
L 342.225299 64.418936 
L 354.648304 51.36337 
L 367.07131 40.661852 
L 379.494315 32.550664 
L 391.917321 27.14107 
L 404.340326 24.403993 
L 416.763332 24.166393 
L 429.186338 26.12152 
L 441.609343 29.85356 
L 454.032349 34.87483 
L 466.455354 40.671833 
L 478.87836 46.754371 
L 491.301365 52.70121 
L 503.724371 58.196164 
L 516.147377 63.049337 
L 528.570382 67.200925 
L 540.993388 70.707708 
L 553.416393 73.715002 
L 565.839399 76.419337 
L 578.262404 79.028348 
L 590.68541 81.724441 
L 603.108415 84.637761 
L 615.531421 87.83193 
L 627.954427 91.303615 
L 640.377432 94.994329 
L 652.800438 98.810908 
L 665.223443 102.649884 
L 677.646449 106.420701 
" clip-path="url(#pa3f9d58014)" style="fill: none; stroke: #1f77b4; stroke-opacity: 0.5; stroke-width: 1.5; stroke-linecap: square"/>
   </g>
   <g id="line2d_17">
    <path d="M 68.919176 53.683271 
L 81.342182 58.733297 
L 93.765187 64.729273 
L 106.188193 71.703493 
L 118.611198 79.641191 
L 131.034204 88.476654 
L 143.45721 98.095514 
L 155.880215 108.342519 
L 168.303221 119.033651 
L 180.726226 129.970875 
L 193.149232 140.957336 
L 205.572237 151.811058 
L 217.995243 162.375445 
L 230.418248 172.525415 
L 242.841254 182.168624 
L 255.26426 191.242227 
L 267.687265 199.705977 
L 280.110271 207.533191 
L 292.533276 214.701244 
L 304.956282 221.18321 
L 317.379287 226.942011 
L 329.802293 231.927779 
L 342.225299 236.078722 
L 354.648304 239.325026 
L 367.07131 241.595049 
L 379.494315 242.822803 
L 391.917321 242.955818 
L 404.340326 241.962492 
L 416.763332 239.838578 
L 429.186338 236.612302 
L 441.609343 232.348004 
L 454.032349 227.147969 
L 466.455354 221.152014 
L 478.87836 214.534422 
L 491.301365 207.497723 
L 503.724371 200.263108 
L 516.147377 193.057908 
L 528.570382 186.100916 
L 540.993388 179.587358 
L 553.416393 173.675401 
L 565.839399 168.476451 
L 578.262404 164.050909 
L 590.68541 160.410193 
L 603.108415 157.524791 
L 615.531421 155.336693 
L 627.954427 153.773668 
L 640.377432 152.762371 
L 652.800438 152.237467 
L 665.223443 152.144891 
L 677.646449 152.43873 
" clip-path="url(#pa3f9d58014)" style="fill: none; stroke: #ff7f0e; stroke-opacity: 0.5; stroke-width: 1.5; stroke-linecap: square"/>
   </g>
   <g id="line2d_18">
    <path d="M 68.919176 19.8 
L 81.342182 25.218309 
L 93.765187 31.443634 
L 106.188193 38.036322 
L 118.611198 44.536569 
L 131.034204 50.501815 
L 143.45721 55.544059 
L 155.880215 59.363038 
L 168.303221 61.771315 
L 180.726226 62.708645 
L 193.149232 62.243838 
L 205.572237 60.564018 
L 217.995243 57.952437 
L 230.418248 54.757271 
L 242.841254 51.354737 
L 255.26426 48.110533 
L 267.687265 45.343569 
L 280.110271 43.295995 
L 292.533276 42.112692 
L 304.956282 41.832506 
L 317.379287 42.39219 
L 329.802293 43.642464 
L 342.225299 45.374268 
L 354.648304 47.351747 
L 367.07131 49.347713 
L 379.494315 51.176951 
L 391.917321 52.722981 
L 404.340326 53.954861 
L 416.763332 54.932135 
L 429.186338 55.797551 
L 441.609343 56.759078 
L 454.032349 58.063836 
L 466.455354 59.967794 
L 478.87836 62.704829 
L 491.301365 66.45887 
L 503.724371 71.341878 
L 516.147377 77.37945 
L 528.570382 84.504952 
L 540.993388 92.562043 
L 553.416393 101.315015 
L 565.839399 110.465694 
L 578.262404 119.675477 
L 590.68541 128.590905 
L 603.108415 136.87077 
L 615.531421 144.212814 
L 627.954427 150.377796 
L 640.377432 155.20868 
L 652.800438 158.643039 
L 665.223443 160.716932 
L 677.646449 161.559592 
" clip-path="url(#pa3f9d58014)" style="fill: none; stroke: #2ca02c; stroke-opacity: 0.5; stroke-width: 1.5; stroke-linecap: square"/>
   </g>
   <g id="line2d_19">
    <path d="M 68.919176 173.929161 
L 81.342182 167.822842 
L 93.765187 161.108046 
L 106.188193 154.169402 
L 118.611198 147.363058 
L 131.034204 140.990667 
L 143.45721 135.282093 
L 155.880215 130.38826 
L 168.303221 126.384082 
L 180.726226 123.27988 
L 193.149232 121.038382 
L 205.572237 119.594005 
L 217.995243 118.870769 
L 230.418248 118.79609 
L 242.841254 119.308813 
L 255.26426 120.361039 
L 267.687265 121.914963 
L 280.110271 123.936489 
L 292.533276 126.388149 
L 304.956282 129.223504 
L 317.379287 132.384649 
L 329.802293 135.803304 
L 342.225299 139.405087 
L 354.648304 143.11557 
L 367.07131 146.866311 
L 379.494315 150.598928 
L 391.917321 154.265808 
L 404.340326 157.826754 
L 416.763332 161.241931 
L 429.186338 164.462344 
L 441.609343 167.419885 
L 454.032349 170.019405 
L 466.455354 172.135136 
L 478.87836 173.613516 
L 491.301365 174.283228 
L 503.724371 173.972353 
L 516.147377 172.531226 
L 528.570382 169.858278 
L 540.993388 165.925465 
L 553.416393 160.799469 
L 565.839399 154.655017 
L 578.262404 147.777417 
L 590.68541 140.552802 
L 603.108415 133.445756 
L 615.531421 126.966044 
L 627.954427 121.627091 
L 640.377432 117.900475 
L 652.800438 116.170768 
L 665.223443 116.695446 
L 677.646449 119.574011 
" clip-path="url(#pa3f9d58014)" style="fill: none; stroke: #d62728; stroke-opacity: 0.5; stroke-width: 1.5; stroke-linecap: square"/>
   </g>
   <g id="line2d_20">
    <path d="M 68.919176 180.929316 
L 81.342182 176.505 
L 93.765187 172.143289 
L 106.188193 167.785606 
L 118.611198 163.341621 
L 131.034204 158.704632 
L 143.45721 153.770495 
L 155.880215 148.457846 
L 168.303221 142.727397 
L 180.726226 136.597773 
L 193.149232 130.15628 
L 205.572237 123.563226 
L 217.995243 117.049299 
L 230.418248 110.906254 
L 242.841254 105.471498 
L 255.26426 101.107794 
L 267.687265 98.179266 
L 280.110271 97.025131 
L 292.533276 97.932743 
L 304.956282 101.111481 
L 317.379287 106.669349 
L 329.802293 114.594071 
L 342.225299 124.740717 
L 354.648304 136.827752 
L 367.07131 150.442681 
L 379.494315 165.0583 
L 391.917321 180.059009 
L 404.340326 194.776214 
L 416.763332 208.530074 
L 429.186338 220.67443 
L 441.609343 230.641151 
L 454.032349 237.979694 
L 466.455354 242.388353 
L 478.87836 243.734246 
L 491.301365 242.060131 
L 503.724371 237.577428 
L 516.147377 230.646054 
L 528.570382 221.742881 
L 540.993388 211.421586 
L 553.416393 200.267466 
L 565.839399 188.851225 
L 578.262404 177.685755 
L 590.68541 167.18972 
L 603.108415 157.66102 
L 615.531421 149.262358 
L 627.954427 142.019634 
L 640.377432 135.832935 
L 652.800438 130.498292 
L 665.223443 125.737693 
L 677.646449 121.233859 
" clip-path="url(#pa3f9d58014)" style="fill: none; stroke: #9467bd; stroke-opacity: 0.5; stroke-width: 1.5; stroke-linecap: square"/>
   </g>
   <g id="patch_3">
    <path d="M 38.482813 284.4 
L 38.482813 7.2 
" style="fill: none; stroke: #000000; stroke-width: 0.8; stroke-linejoin: miter; stroke-linecap: square"/>
   </g>
   <g id="patch_4">
    <path d="M 708.082813 284.4 
L 708.082813 7.2 
" style="fill: none; stroke: #000000; stroke-width: 0.8; stroke-linejoin: miter; stroke-linecap: square"/>
   </g>
   <g id="patch_5">
    <path d="M 38.482813 284.4 
L 708.082813 284.4 
" style="fill: none; stroke: #000000; stroke-width: 0.8; stroke-linejoin: miter; stroke-linecap: square"/>
   </g>
   <g id="patch_6">
    <path d="M 38.482813 7.2 
L 708.082813 7.2 
" style="fill: none; stroke: #000000; stroke-width: 0.8; stroke-linejoin: miter; stroke-linecap: square"/>
   </g>
  </g>
 </g>
 <defs>
  <clipPath id="pa3f9d58014">
   <rect x="38.482813" y="7.2" width="669.6" height="277.2"/>
  </clipPath>
 </defs>
</svg>
