<?xml version="1.0" encoding="utf-8" standalone="no"?>
<!DOCTYPE svg PUBLIC "-//W3C//DTD SVG 1.1//EN"
  "http://www.w3.org/Graphics/SVG/1.1/DTD/svg11.dtd">
<svg xmlns:xlink="http://www.w3.org/1999/xlink" width="745.001562pt" height="331.634375pt" viewBox="0 0 745.001562 331.634375" xmlns="http://www.w3.org/2000/svg" version="1.1">
 <metadata>
  <rdf:RDF xmlns:dc="http://purl.org/dc/elements/1.1/" xmlns:cc="http://creativecommons.org/ns#" xmlns:rdf="http://www.w3.org/1999/02/22-rdf-syntax-ns#">
   <cc:Work>
    <dc:type rdf:resource="http://purl.org/dc/dcmitype/StillImage"/>
    <dc:date>2025-06-26T18:03:02.974222</dc:date>
    <dc:format>image/svg+xml</dc:format>
    <dc:creator>
     <cc:Agent>
      <dc:title>Matplotlib v3.7.2, https://matplotlib.org/</dc:title>
     </cc:Agent>
    </dc:creator>
   </cc:Work>
  </rdf:RDF>
 </metadata>
 <defs>
  <style type="text/css">*{stroke-linejoin: round; stroke-linecap: butt}</style>
 </defs>
 <g id="figure_1">
  <g id="patch_1">
   <path d="M 0 331.634375 
L 745.001562 331.634375 
L 745.001562 0 
L 0 0 
z
" style="fill: #ffffff"/>
  </g>
  <g id="axes_1">
   <g id="patch_2">
    <path d="M 68.201563 284.4 
L 737.801563 284.4 
L 737.801563 7.2 
L 68.201563 7.2 
z
" style="fill: #ffffff"/>
   </g>
   <g id="PolyCollection_1">
    <path d="M 89.097301 32.408973 
L 89.097301 232.55424 
L 101.520307 228.629951 
L 113.943312 224.712626 
L 126.366318 220.80319 
L 138.789323 216.90274 
L 151.212329 213.012582 
L 163.635335 209.134282 
L 176.05834 205.269737 
L 188.481346 201.421258 
L 200.904351 197.591696 
L 213.327357 193.784595 
L 225.750362 190.004415 
L 238.173368 186.256834 
L 250.596373 182.549173 
L 263.019379 178.891 
L 275.442385 175.295003 
L 287.86539 171.778254 
L 300.288396 168.364062 
L 312.711401 165.084661 
L 325.134407 161.985034 
L 337.557412 159.12799 
L 349.980418 156.599894 
L 362.403424 154.514272 
L 374.826429 153.006454 
L 387.249435 152.209376 
L 399.67244 152.209376 
L 412.095446 153.006454 
L 424.518451 154.514272 
L 436.941457 156.599894 
L 449.364463 159.12799 
L 461.787468 161.985034 
L 474.210474 165.084661 
L 486.633479 168.364062 
L 499.056485 171.778254 
L 511.47949 175.295003 
L 523.902496 178.891 
L 536.325502 182.549173 
L 548.748507 186.256834 
L 561.171513 190.004415 
L 573.594518 193.784595 
L 586.017524 197.591696 
L 598.440529 201.421258 
L 610.863535 205.269737 
L 623.28654 209.134282 
L 635.709546 213.012582 
L 648.132552 216.90274 
L 660.555557 220.80319 
L 672.978563 224.712626 
L 685.401568 228.629951 
L 697.824574 232.55424 
L 697.824574 32.408973 
L 697.824574 32.408973 
L 685.401568 36.333262 
L 672.978563 40.250588 
L 660.555557 44.160023 
L 648.132552 48.060473 
L 635.709546 51.950631 
L 623.28654 55.828931 
L 610.863535 59.693477 
L 598.440529 63.541955 
L 586.017524 67.371518 
L 573.594518 71.178619 
L 561.171513 74.958798 
L 548.748507 78.706379 
L 536.325502 82.41404 
L 523.902496 86.072213 
L 511.47949 89.66821 
L 499.056485 93.184959 
L 486.633479 96.599151 
L 474.210474 99.878552 
L 461.787468 102.978179 
L 449.364463 105.835223 
L 436.941457 108.363319 
L 424.518451 110.448941 
L 412.095446 111.956759 
L 399.67244 112.753838 
L 387.249435 112.753838 
L 374.826429 111.956759 
L 362.403424 110.448941 
L 349.980418 108.363319 
L 337.557412 105.835223 
L 325.134407 102.978179 
L 312.711401 99.878552 
L 300.288396 96.599151 
L 287.86539 93.184959 
L 275.442385 89.66821 
L 263.019379 86.072213 
L 250.596373 82.41404 
L 238.173368 78.706379 
L 225.750362 74.958798 
L 213.327357 71.178619 
L 200.904351 67.371518 
L 188.481346 63.541955 
L 176.05834 59.693477 
L 163.635335 55.828931 
L 151.212329 51.950631 
L 138.789323 48.060473 
L 126.366318 44.160023 
L 113.943312 40.250588 
L 101.520307 36.333262 
L 89.097301 32.408973 
z
" clip-path="url(#pd3c9de4908)" style="fill: #1f77b4; fill-opacity: 0.25"/>
   </g>
   <g id="matplotlib.axis_1">
    <g id="xtick_1">
     <g id="line2d_1">
      <defs>
       <path id="m77537a6615" d="M 0 0 
L 0 3.5 
" style="stroke: #000000; stroke-width: 0.8"/>
      </defs>
      <g>
       <use xlink:href="#m77537a6615" x="149.970028" y="284.4" style="stroke: #000000; stroke-width: 0.8"/>
      </g>
     </g>
     <g id="text_1">
      <!-- −4 -->
      <g transform="translate(152.13956 298.998437) scale(0.1 -0.1)">
       <defs>
        <path id="DejaVuSans-2212" d="M 678 2272 
L 4684 2272 
L 4684 1741 
L 678 1741 
L 678 2272 
z
" transform="scale(0.015625)"/>
        <path id="DejaVuSans-34" d="M 2419 4116 
L 825 1625 
L 2419 1625 
L 2419 4116 
z
M 2253 4666 
L 3047 4666 
L 3047 1625 
L 3713 1625 
L 3713 1100 
L 3047 1100 
L 3047 0 
L 2419 0 
L 2419 1100 
L 313 1100 
L 313 1709 
L 2253 4666 
z
" transform="scale(0.015625)"/>
       </defs>
       <use xlink:href="#DejaVuSans-2212"/>
       <use xlink:href="#DejaVuSans-34" x="83.789062"/>
      </g>
     </g>
    </g>
    <g id="xtick_2">
     <g id="line2d_2">
      <g>
       <use xlink:href="#m77537a6615" x="271.715483" y="284.4" style="stroke: #000000; stroke-width: 0.8"/>
      </g>
     </g>
     <g id="text_2">
      <!-- −2 -->
      <g transform="translate(273.885014 298.998437) scale(0.1 -0.1)">
       <defs>
        <path id="DejaVuSans-32" d="M 1228 531 
L 3431 531 
L 3431 0 
L 469 0 
L 469 531 
Q 828 903 1448 1529 
Q 2069 2156 2228 2338 
Q 2531 2678 2651 2914 
Q 2772 3150 2772 3378 
Q 2772 3750 2511 3984 
Q 2250 4219 1831 4219 
Q 1534 4219 1204 4116 
Q 875 4013 500 3803 
L 500 4441 
Q 881 4594 1212 4672 
Q 1544 4750 1819 4750 
Q 2544 4750 2975 4387 
Q 3406 4025 3406 3419 
Q 3406 3131 3298 2873 
Q 3191 2616 2906 2266 
Q 2828 2175 2409 1742 
Q 1991 1309 1228 531 
z
" transform="scale(0.015625)"/>
       </defs>
       <use xlink:href="#DejaVuSans-2212"/>
       <use xlink:href="#DejaVuSans-32" x="83.789062"/>
      </g>
     </g>
    </g>
    <g id="xtick_3">
     <g id="line2d_3">
      <g>
       <use xlink:href="#m77537a6615" x="393.460938" y="284.4" style="stroke: #000000; stroke-width: 0.8"/>
      </g>
     </g>
     <g id="text_3">
      <!-- 0 -->
      <g transform="translate(399.820313 298.998437) scale(0.1 -0.1)">
       <defs>
        <path id="DejaVuSans-30" d="M 2034 4250 
Q 1547 4250 1301 3770 
Q 1056 3291 1056 2328 
Q 1056 1369 1301 889 
Q 1547 409 2034 409 
Q 2525 409 2770 889 
Q 3016 1369 3016 2328 
Q 3016 3291 2770 3770 
Q 2525 4250 2034 4250 
z
M 2034 4750 
Q 2819 4750 3233 4129 
Q 3647 3509 3647 2328 
Q 3647 1150 3233 529 
Q 2819 -91 2034 -91 
Q 1250 -91 836 529 
Q 422 1150 422 2328 
Q 422 3509 836 4129 
Q 1250 4750 2034 4750 
z
" transform="scale(0.015625)"/>
       </defs>
       <use xlink:href="#DejaVuSans-30"/>
      </g>
     </g>
    </g>
    <g id="xtick_4">
     <g id="line2d_4">
      <g>
       <use xlink:href="#m77537a6615" x="515.206392" y="284.4" style="stroke: #000000; stroke-width: 0.8"/>
      </g>
     </g>
     <g id="text_4">
      <!-- 2 -->
      <g transform="translate(521.565767 298.998437) scale(0.1 -0.1)">
       <use xlink:href="#DejaVuSans-32"/>
      </g>
     </g>
    </g>
    <g id="xtick_5">
     <g id="line2d_5">
      <g>
       <use xlink:href="#m77537a6615" x="636.951847" y="284.4" style="stroke: #000000; stroke-width: 0.8"/>
      </g>
     </g>
     <g id="text_5">
      <!-- 4 -->
      <g transform="translate(643.311222 298.998437) scale(0.1 -0.1)">
       <use xlink:href="#DejaVuSans-34"/>
      </g>
     </g>
    </g>
    <g id="text_6">
     <!-- x -->
     <g transform="translate(397.082813 320.275) scale(0.2 -0.2)">
      <defs>
       <path id="DejaVuSans-78" d="M 3513 3500 
L 2247 1797 
L 3578 0 
L 2900 0 
L 1881 1375 
L 863 0 
L 184 0 
L 1544 1831 
L 300 3500 
L 978 3500 
L 1906 2253 
L 2834 3500 
L 3513 3500 
z
" transform="scale(0.015625)"/>
      </defs>
      <use xlink:href="#DejaVuSans-78"/>
     </g>
    </g>
   </g>
   <g id="matplotlib.axis_2">
    <g id="ytick_1">
     <g id="line2d_6">
      <defs>
       <path id="m934f6e94f5" d="M 0 0 
L -3.5 0 
" style="stroke: #000000; stroke-width: 0.8"/>
      </defs>
      <g>
       <use xlink:href="#m934f6e94f5" x="58.660938" y="279.675542" style="stroke: #000000; stroke-width: 0.8"/>
      </g>
     </g>
     <g id="text_7">
      <!-- −15 -->
      <g transform="translate(30.55625 283.474761) scale(0.1 -0.1)">
       <defs>
        <path id="DejaVuSans-31" d="M 794 531 
L 1825 531 
L 1825 4091 
L 703 3866 
L 703 4441 
L 1819 4666 
L 2450 4666 
L 2450 531 
L 3481 531 
L 3481 0 
L 794 0 
L 794 531 
z
" transform="scale(0.015625)"/>
        <path id="DejaVuSans-2e" d="M 684 794 
L 1344 794 
L 1344 0 
L 684 0 
L 684 794 
z
" transform="scale(0.015625)"/>
       </defs>
       <use xlink:href="#DejaVuSans-2212"/>
       <use xlink:href="#DejaVuSans-31" x="83.789062"/>
       <use xlink:href="#DejaVuSans-30" x="147.412109"/>
       <use xlink:href="#DejaVuSans-2e" x="211.035156"/>
       <use xlink:href="#DejaVuSans-30" x="242.822266"/>
      </g>
     </g>
    </g>
    <g id="ytick_2">
     <g id="line2d_7">
      <g>
       <use xlink:href="#me714976739" x="68.201563" y="238.464874" style="stroke: #000000; stroke-width: 0.8"/>
      </g>
     </g>
     <g id="text_8">
      <!-- −7.5 -->
      <g transform="translate(36.91875 242.264093) scale(0.1 -0.1)">
       <defs>
        <path id="DejaVuSans-37" d="M 525 4666 
L 3525 4666 
L 3525 4397 
L 1831 0 
L 1172 0 
L 2766 4134 
L 525 4134 
L 525 4666 
z
" transform="scale(0.015625)"/>
        <path id="DejaVuSans-35" d="M 691 4666 
L 3169 4666 
L 3169 4134 
L 1269 4134 
L 1269 2991 
Q 1406 3038 1543 3061 
Q 1681 3084 1819 3084 
Q 2600 3084 3056 2656 
Q 3513 2228 3513 1497 
Q 3513 744 3044 326 
Q 2575 -91 1722 -91 
Q 1428 -91 1123 -41 
Q 819 9 494 109 
L 494 744 
Q 775 591 1075 516 
Q 1375 441 1709 441 
Q 2250 441 2565 725 
Q 2881 1009 2881 1497 
Q 2881 1984 2565 2268 
Q 2250 2553 1709 2553 
Q 1456 2553 1204 2497 
Q 953 2441 691 2322 
L 691 4666 
z
" transform="scale(0.015625)"/>
       </defs>
       <use xlink:href="#DejaVuSans-2212"/>
       <use xlink:href="#DejaVuSans-31" x="83.789062"/>
       <use xlink:href="#DejaVuSans-35" x="147.412109"/>
      </g>
     </g>
    </g>
    <g id="ytick_2">
     <g id="line2d_7">
      <g>
       <use xlink:href="#m934f6e94f5" x="58.660938" y="230.610897" style="stroke: #000000; stroke-width: 0.8"/>
      </g>
     </g>
     <g id="text_8">
      <!-- −10 -->
      <g transform="translate(30.55625 234.410116) scale(0.1 -0.1)">
       <use xlink:href="#DejaVuSans-2212"/>
       <use xlink:href="#DejaVuSans-31" x="83.789062"/>
       <use xlink:href="#DejaVuSans-30" x="147.412109"/>
      </g>
     </g>
    </g>
    <g id="ytick_3">
     <g id="line2d_8">
      <g>
       <use xlink:href="#m934f6e94f5" x="58.660938" y="181.546252" style="stroke: #000000; stroke-width: 0.8"/>
      </g>
     </g>
     <g id="text_9">
      <!-- −5 -->
      <g transform="translate(36.91875 185.345471) scale(0.1 -0.1)">
       <use xlink:href="#DejaVuSans-2212"/>
       <use xlink:href="#DejaVuSans-35" x="83.789062"/>
       <use xlink:href="#DejaVuSans-2e" x="147.412109"/>
       <use xlink:href="#DejaVuSans-30" x="179.199219"/>
      </g>
     </g>
    </g>
    <g id="ytick_4">
     <g id="line2d_9">
      <g>
       <use xlink:href="#m934f6e94f5" x="58.660938" y="132.481607" style="stroke: #000000; stroke-width: 0.8"/>
      </g>
     </g>
     <g id="text_10">
      <!-- 0 -->
      <g transform="translate(45.298438 136.280825) scale(0.1 -0.1)">
       <use xlink:href="#DejaVuSans-30"/>
      </g>
     </g>
    </g>
    <g id="ytick_5">
     <g id="line2d_10">
      <g>
       <use xlink:href="#m934f6e94f5" x="58.660938" y="83.416961" style="stroke: #000000; stroke-width: 0.8"/>
      </g>
     </g>
     <g id="text_11">
      <!-- 5 -->
      <g transform="translate(45.298438 87.21618) scale(0.1 -0.1)">
       <use xlink:href="#DejaVuSans-35"/>
      </g>
     </g>
    </g>
    <g id="ytick_6">
     <g id="line2d_11">
      <g>
       <use xlink:href="#m934f6e94f5" x="58.660938" y="34.352316" style="stroke: #000000; stroke-width: 0.8"/>
      </g>
     </g>
     <g id="text_12">
      <!-- 10 -->
      <g transform="translate(38.935938 38.151535) scale(0.1 -0.1)">
       <use xlink:href="#DejaVuSans-31"/>
       <use xlink:href="#DejaVuSans-30" x="63.623047"/>
       <use xlink:href="#DejaVuSans-2e" x="127.246094"/>
       <use xlink:href="#DejaVuSans-30" x="159.033203"/>
      </g>
     </g>
    </g>
    <g id="text_16">
     <!-- f(x) -->
     <g transform="translate(22.396875 163.042187) rotate(-90) scale(0.2 -0.2)">
      <defs>
       <path id="DejaVuSans-66" d="M 2375 4863 
L 2375 4384 
L 1825 4384 
Q 1516 4384 1395 4259 
Q 1275 4134 1275 3809 
L 1275 3500 
L 2222 3500 
L 2222 3053 
L 1275 3053 
L 1275 0 
L 697 0 
L 697 3053 
L 147 3053 
L 147 3500 
L 697 3500 
L 697 3744 
Q 697 4328 969 4595 
Q 1241 4863 1831 4863 
L 2375 4863 
z
" transform="scale(0.015625)"/>
       <path id="DejaVuSans-28" d="M 1984 4856 
Q 1566 4138 1362 3434 
Q 1159 2731 1159 2009 
Q 1159 1288 1364 580 
Q 1569 -128 1984 -844 
L 1484 -844 
Q 1016 -109 783 600 
Q 550 1309 550 2009 
Q 550 2706 781 3412 
Q 1013 4119 1484 4856 
L 1984 4856 
z
" transform="scale(0.015625)"/>
       <path id="DejaVuSans-29" d="M 513 4856 
L 1013 4856 
Q 1481 4119 1714 3412 
Q 1947 2706 1947 2009 
Q 1947 1309 1714 600 
Q 1481 -109 1013 -844 
L 513 -844 
Q 928 -128 1133 580 
Q 1338 1288 1338 2009 
Q 1338 2731 1133 3434 
Q 928 4138 513 4856 
z
" transform="scale(0.015625)"/>
      </defs>
      <use xlink:href="#DejaVuSans-66"/>
      <use xlink:href="#DejaVuSans-28" x="35.205078"/>
      <use xlink:href="#DejaVuSans-78" x="74.21875"/>
      <use xlink:href="#DejaVuSans-29" x="133.398438"/>
     </g>
    </g>
   </g>
   <g id="line2d_12">
    <path d="M 89.097301 132.481607 
L 101.520307 132.481607 
L 113.943312 132.481607 
L 126.366318 132.481607 
L 138.789323 132.481607 
L 151.212329 132.481607 
L 163.635335 132.481607 
L 176.05834 132.481607 
L 188.481346 132.481607 
L 200.904351 132.481607 
L 213.327357 132.481607 
L 225.750362 132.481607 
L 238.173368 132.481607 
L 250.596373 132.481607 
L 263.019379 132.481607 
L 275.442385 132.481607 
L 287.86539 132.481607 
L 300.288396 132.481607 
L 312.711401 132.481607 
L 325.134407 132.481607 
L 337.557412 132.481607 
L 349.980418 132.481607 
L 362.403424 132.481607 
L 374.826429 132.481607 
L 387.249435 132.481607 
L 399.67244 132.481607 
L 412.095446 132.481607 
L 424.518451 132.481607 
L 436.941457 132.481607 
L 449.364463 132.481607 
L 461.787468 132.481607 
L 474.210474 132.481607 
L 486.633479 132.481607 
L 499.056485 132.481607 
L 511.47949 132.481607 
L 523.902496 132.481607 
L 536.325502 132.481607 
L 548.748507 132.481607 
L 561.171513 132.481607 
L 573.594518 132.481607 
L 586.017524 132.481607 
L 598.440529 132.481607 
L 610.863535 132.481607 
L 623.28654 132.481607 
L 635.709546 132.481607 
L 648.132552 132.481607 
L 660.555557 132.481607 
L 672.978563 132.481607 
L 685.401568 132.481607 
L 697.824574 132.481607 
" clip-path="url(#pd3c9de4908)" style="fill: none; stroke: #000000; stroke-width: 4; stroke-linecap: square"/>
   </g>
   <g id="line2d_13">
    <path d="M 89.097301 185.148368 
L 101.520307 182.90764 
L 113.943312 180.666913 
L 126.366318 178.426186 
L 138.789323 176.185459 
L 151.212329 173.944732 
L 163.635335 171.704004 
L 176.05834 169.463277 
L 188.481346 167.22255 
L 200.904351 164.981823 
L 213.327357 162.741096 
L 225.750362 160.500368 
L 238.173368 158.259641 
L 250.596373 156.018914 
L 263.019379 153.778187 
L 275.442385 151.537459 
L 287.86539 149.296732 
L 300.288396 147.056005 
L 312.711401 144.815278 
L 325.134407 142.574551 
L 337.557412 140.333823 
L 349.980418 138.093096 
L 362.403424 135.852369 
L 374.826429 133.611642 
L 387.249435 131.370914 
L 399.67244 129.130187 
L 412.095446 126.88946 
L 424.518451 124.648733 
L 436.941457 122.408006 
L 449.364463 120.167278 
L 461.787468 117.926551 
L 474.210474 115.685824 
L 486.633479 113.445097 
L 499.056485 111.204369 
L 511.47949 108.963642 
L 523.902496 106.722915 
L 536.325502 104.482188 
L 548.748507 102.241461 
L 561.171513 100.000733 
L 573.594518 97.760006 
L 586.017524 95.519279 
L 598.440529 93.278552 
L 610.863535 91.037824 
L 623.28654 88.797097 
L 635.709546 86.55637 
L 648.132552 84.315643 
L 660.555557 82.074916 
L 672.978563 79.834188 
L 685.401568 77.593461 
L 697.824574 75.352734 
" clip-path="url(#pd3c9de4908)" style="fill: none; stroke: #1f77b4; stroke-width: 1.5; stroke-linecap: square"/>
   </g>
   <g id="line2d_14">
    <path d="M 89.097301 237.273281 
L 101.520307 232.835051 
L 113.943312 228.396821 
L 126.366318 223.95859 
L 138.789323 219.52036 
L 151.212329 215.08213 
L 163.635335 210.6439 
L 176.05834 206.205669 
L 188.481346 201.767439 
L 200.904351 197.329209 
L 213.327357 192.890979 
L 225.750362 188.452749 
L 238.173368 184.014518 
L 250.596373 179.576288 
L 263.019379 175.138058 
L 275.442385 170.699828 
L 287.86539 166.261597 
L 300.288396 161.823367 
L 312.711401 157.385137 
L 325.134407 152.946907 
L 337.557412 148.508676 
L 349.980418 144.070446 
L 362.403424 139.632216 
L 374.826429 135.193986 
L 387.249435 130.755756 
L 399.67244 126.317525 
L 412.095446 121.879295 
L 424.518451 117.441065 
L 436.941457 113.002835 
L 449.364463 108.564604 
L 461.787468 104.126374 
L 474.210474 99.688144 
L 486.633479 95.249914 
L 499.056485 90.811684 
L 511.47949 86.373453 
L 523.902496 81.935223 
L 536.325502 77.496993 
L 548.748507 73.058763 
L 561.171513 68.620532 
L 573.594518 64.182302 
L 586.017524 59.744072 
L 598.440529 55.305842 
L 610.863535 50.867612 
L 623.28654 46.429381 
L 635.709546 41.991151 
L 648.132552 37.552921 
L 660.555557 33.114691 
L 672.978563 28.67646 
L 685.401568 24.23823 
L 697.824574 19.8 
" clip-path="url(#pd3c9de4908)" style="fill: none; stroke: #ff7f0e; stroke-width: 1.5; stroke-linecap: square"/>
   </g>
   <g id="line2d_15">
    <path d="M 89.097301 155.182232 
L 101.520307 154.108884 
L 113.943312 153.035535 
L 126.366318 151.962186 
L 138.789323 150.888838 
L 151.212329 149.815489 
L 163.635335 148.742141 
L 176.05834 147.668792 
L 188.481346 146.595443 
L 200.904351 145.522095 
L 213.327357 144.448746 
L 225.750362 143.375397 
L 238.173368 142.302049 
L 250.596373 141.2287 
L 263.019379 140.155352 
L 275.442385 139.082003 
L 287.86539 138.008654 
L 300.288396 136.935306 
L 312.711401 135.861957 
L 325.134407 134.788608 
L 337.557412 133.71526 
L 349.980418 132.641911 
L 362.403424 131.568562 
L 374.826429 130.495214 
L 387.249435 129.421865 
L 399.67244 128.348517 
L 412.095446 127.275168 
L 424.518451 126.201819 
L 436.941457 125.128471 
L 449.364463 124.055122 
L 461.787468 122.981773 
L 474.210474 121.908425 
L 486.633479 120.835076 
L 499.056485 119.761728 
L 511.47949 118.688379 
L 523.902496 117.61503 
L 536.325502 116.541682 
L 548.748507 115.468333 
L 561.171513 114.394984 
L 573.594518 113.321636 
L 586.017524 112.248287 
L 598.440529 111.174938 
L 610.863535 110.10159 
L 623.28654 109.028241 
L 635.709546 107.954893 
L 648.132552 106.881544 
L 660.555557 105.808195 
L 672.978563 104.734847 
L 685.401568 103.661498 
L 697.824574 102.588149 
" clip-path="url(#pd3c9de4908)" style="fill: none; stroke: #2ca02c; stroke-width: 1.5; stroke-linecap: square"/>
   </g>
   <g id="line2d_16">
    <path d="M 89.097301 249.480885 
L 101.520307 245.099475 
L 113.943312 240.718064 
L 126.366318 236.336654 
L 138.789323 231.955243 
L 151.212329 227.573833 
L 163.635335 223.192422 
L 176.05834 218.811012 
L 188.481346 214.429602 
L 200.904351 210.048191 
L 213.327357 205.666781 
L 225.750362 201.28537 
L 238.173368 196.90396 
L 250.596373 192.522549 
L 263.019379 188.141139 
L 275.442385 183.759728 
L 287.86539 179.378318 
L 300.288396 174.996908 
L 312.711401 170.615497 
L 325.134407 166.234087 
L 337.557412 161.852676 
L 349.980418 157.471266 
L 362.403424 153.089855 
L 374.826429 148.708445 
L 387.249435 144.327034 
L 399.67244 139.945624 
L 412.095446 135.564214 
L 424.518451 131.182803 
L 436.941457 126.801393 
L 449.364463 122.419982 
L 461.787468 118.038572 
L 474.210474 113.657161 
L 486.633479 109.275751 
L 499.056485 104.894341 
L 511.47949 100.51293 
L 523.902496 96.13152 
L 536.325502 91.750109 
L 548.748507 87.368699 
L 561.171513 82.987288 
L 573.594518 78.605878 
L 586.017524 74.224467 
L 598.440529 69.843057 
L 610.863535 65.461647 
L 623.28654 61.080236 
L 635.709546 56.698826 
L 648.132552 52.317415 
L 660.555557 47.936005 
L 672.978563 43.554594 
L 685.401568 39.173184 
L 697.824574 34.791774 
" clip-path="url(#pd3c9de4908)" style="fill: none; stroke: #d62728; stroke-width: 1.5; stroke-linecap: square"/>
   </g>
   <g id="line2d_17">
    <path d="M 89.097301 33.044831 
L 101.520307 37.917385 
L 113.943312 42.78994 
L 126.366318 47.662494 
L 138.789323 52.535049 
L 151.212329 57.407603 
L 163.635335 62.280158 
L 176.05834 67.152712 
L 188.481346 72.025267 
L 200.904351 76.897821 
L 213.327357 81.770376 
L 225.750362 86.64293 
L 238.173368 91.515485 
L 250.596373 96.388039 
L 263.019379 101.260594 
L 275.442385 106.133148 
L 287.86539 111.005702 
L 300.288396 115.878257 
L 312.711401 120.750811 
L 325.134407 125.623366 
L 337.557412 130.49592 
L 349.980418 135.368475 
L 362.403424 140.241029 
L 374.826429 145.113584 
L 387.249435 149.986138 
L 399.67244 154.858693 
L 412.095446 159.731247 
L 424.518451 164.603802 
L 436.941457 169.476356 
L 449.364463 174.348911 
L 461.787468 179.221465 
L 474.210474 184.09402 
L 486.633479 188.966574 
L 499.056485 193.839128 
L 511.47949 198.711683 
L 523.902496 203.584237 
L 536.325502 208.456792 
L 548.748507 213.329346 
L 561.171513 218.201901 
L 573.594518 223.074455 
L 586.017524 227.94701 
L 598.440529 232.819564 
L 610.863535 237.692119 
L 623.28654 242.564673 
L 635.709546 247.437228 
L 648.132552 252.309782 
L 660.555557 257.182337 
L 672.978563 262.054891 
L 685.401568 266.927446 
L 697.824574 271.8 
" clip-path="url(#pd3c9de4908)" style="fill: none; stroke: #9467bd; stroke-width: 1.5; stroke-linecap: square"/>
   </g>
   <g id="line2d_18">
    <path d="M 89.097301 97.502363 
L 101.520307 99.360994 
L 113.943312 101.219625 
L 126.366318 103.078257 
L 138.789323 104.936888 
L 151.212329 106.795519 
L 163.635335 108.65415 
L 176.05834 110.512782 
L 188.481346 112.371413 
L 200.904351 114.230044 
L 213.327357 116.088675 
L 225.750362 117.947307 
L 238.173368 119.805938 
L 250.596373 121.664569 
L 263.019379 123.5232 
L 275.442385 125.381831 
L 287.86539 127.240463 
L 300.288396 129.099094 
L 312.711401 130.957725 
L 325.134407 132.816356 
L 337.557412 134.674988 
L 349.980418 136.533619 
L 362.403424 138.39225 
L 374.826429 140.250881 
L 387.249435 142.109513 
L 399.67244 143.968144 
L 412.095446 145.826775 
L 424.518451 147.685406 
L 436.941457 149.544038 
L 449.364463 151.402669 
L 461.787468 153.2613 
L 474.210474 155.119931 
L 486.633479 156.978563 
L 499.056485 158.837194 
L 511.47949 160.695825 
L 523.902496 162.554456 
L 536.325502 164.413087 
L 548.748507 166.271719 
L 561.171513 168.13035 
L 573.594518 169.988981 
L 586.017524 171.847612 
L 598.440529 173.706244 
L 610.863535 175.564875 
L 623.28654 177.423506 
L 635.709546 179.282137 
L 648.132552 181.140769 
L 660.555557 182.9994 
L 672.978563 184.858031 
L 685.401568 186.716662 
L 697.824574 188.575294 
" clip-path="url(#pd3c9de4908)" style="fill: none; stroke: #8c564b; stroke-width: 1.5; stroke-linecap: square"/>
   </g>
   <g id="line2d_19">
    <path d="M 89.097301 158.952238 
L 101.520307 157.667387 
L 113.943312 156.382535 
L 126.366318 155.097684 
L 138.789323 153.812833 
L 151.212329 152.527982 
L 163.635335 151.24313 
L 176.05834 149.958279 
L 188.481346 148.673428 
L 200.904351 147.388576 
L 213.327357 146.103725 
L 225.750362 144.818874 
L 238.173368 143.534023 
L 250.596373 142.249171 
L 263.019379 140.96432 
L 275.442385 139.679469 
L 287.86539 138.394618 
L 300.288396 137.109766 
L 312.711401 135.824915 
L 325.134407 134.540064 
L 337.557412 133.255213 
L 349.980418 131.970361 
L 362.403424 130.68551 
L 374.826429 129.400659 
L 387.249435 128.115807 
L 399.67244 126.830956 
L 412.095446 125.546105 
L 424.518451 124.261254 
L 436.941457 122.976402 
L 449.364463 121.691551 
L 461.787468 120.4067 
L 474.210474 119.121849 
L 486.633479 117.836997 
L 499.056485 116.552146 
L 511.47949 115.267295 
L 523.902496 113.982444 
L 536.325502 112.697592 
L 548.748507 111.412741 
L 561.171513 110.12789 
L 573.594518 108.843039 
L 586.017524 107.558187 
L 598.440529 106.273336 
L 610.863535 104.988485 
L 623.28654 103.703633 
L 635.709546 102.418782 
L 648.132552 101.133931 
L 660.555557 99.84908 
L 672.978563 98.564228 
L 685.401568 97.279377 
L 697.824574 95.994526 
" clip-path="url(#pd3c9de4908)" style="fill: none; stroke: #e377c2; stroke-width: 1.5; stroke-linecap: square"/>
   </g>
   <g id="line2d_20">
    <path d="M 89.097301 166.850718 
L 101.520307 165.995575 
L 113.943312 165.140432 
L 126.366318 164.285288 
L 138.789323 163.430145 
L 151.212329 162.575002 
L 163.635335 161.719858 
L 176.05834 160.864715 
L 188.481346 160.009571 
L 200.904351 159.154428 
L 213.327357 158.299285 
L 225.750362 157.444141 
L 238.173368 156.588998 
L 250.596373 155.733854 
L 263.019379 154.878711 
L 275.442385 154.023568 
L 287.86539 153.168424 
L 300.288396 152.313281 
L 312.711401 151.458138 
L 325.134407 150.602994 
L 337.557412 149.747851 
L 349.980418 148.892707 
L 362.403424 148.037564 
L 374.826429 147.182421 
L 387.249435 146.327277 
L 399.67244 145.472134 
L 412.095446 144.61699 
L 424.518451 143.761847 
L 436.941457 142.906704 
L 449.364463 142.05156 
L 461.787468 141.196417 
L 474.210474 140.341274 
L 486.633479 139.48613 
L 499.056485 138.630987 
L 511.47949 137.775843 
L 523.902496 136.9207 
L 536.325502 136.065557 
L 548.748507 135.210413 
L 561.171513 134.35527 
L 573.594518 133.500126 
L 586.017524 132.644983 
L 598.440529 131.78984 
L 610.863535 130.934696 
L 623.28654 130.079553 
L 635.709546 129.22441 
L 648.132552 128.369266 
L 660.555557 127.514123 
L 672.978563 126.658979 
L 685.401568 125.803836 
L 697.824574 124.948693 
" clip-path="url(#pd3c9de4908)" style="fill: none; stroke: #7f7f7f; stroke-width: 1.5; stroke-linecap: square"/>
   </g>
   <g id="line2d_21">
    <path d="M 89.097301 61.031301 
L 101.520307 63.633365 
L 113.943312 66.23543 
L 126.366318 68.837494 
L 138.789323 71.439558 
L 151.212329 74.041623 
L 163.635335 76.643687 
L 176.05834 79.245752 
L 188.481346 81.847816 
L 200.904351 84.449881 
L 213.327357 87.051945 
L 225.750362 89.65401 
L 238.173368 92.256074 
L 250.596373 94.858139 
L 263.019379 97.460203 
L 275.442385 100.062267 
L 287.86539 102.664332 
L 300.288396 105.266396 
L 312.711401 107.868461 
L 325.134407 110.470525 
L 337.557412 113.07259 
L 349.980418 115.674654 
L 362.403424 118.276719 
L 374.826429 120.878783 
L 387.249435 123.480848 
L 399.67244 126.082912 
L 412.095446 128.684976 
L 424.518451 131.287041 
L 436.941457 133.889105 
L 449.364463 136.49117 
L 461.787468 139.093234 
L 474.210474 141.695299 
L 486.633479 144.297363 
L 499.056485 146.899428 
L 511.47949 149.501492 
L 523.902496 152.103556 
L 536.325502 154.705621 
L 548.748507 157.307685 
L 561.171513 159.90975 
L 573.594518 162.511814 
L 586.017524 165.113879 
L 598.440529 167.715943 
L 610.863535 170.318008 
L 623.28654 172.920072 
L 635.709546 175.522137 
L 648.132552 178.124201 
L 660.555557 180.726265 
L 672.978563 183.32833 
L 685.401568 185.930394 
L 697.824574 188.532459 
" clip-path="url(#pd3c9de4908)" style="fill: none; stroke: #bcbd22; stroke-width: 1.5; stroke-linecap: square"/>
   </g>
   <g id="line2d_22">
    <path d="M 89.097301 117.582394 
L 101.520307 117.476632 
L 113.943312 117.370869 
L 126.366318 117.265107 
L 138.789323 117.159345 
L 151.212329 117.053582 
L 163.635335 116.94782 
L 176.05834 116.842058 
L 188.481346 116.736295 
L 200.904351 116.630533 
L 213.327357 116.524771 
L 225.750362 116.419009 
L 238.173368 116.313246 
L 250.596373 116.207484 
L 263.019379 116.101722 
L 275.442385 115.995959 
L 287.86539 115.890197 
L 300.288396 115.784435 
L 312.711401 115.678672 
L 325.134407 115.57291 
L 337.557412 115.467148 
L 349.980418 115.361385 
L 362.403424 115.255623 
L 374.826429 115.149861 
L 387.249435 115.044098 
L 399.67244 114.938336 
L 412.095446 114.832574 
L 424.518451 114.726811 
L 436.941457 114.621049 
L 449.364463 114.515287 
L 461.787468 114.409524 
L 474.210474 114.303762 
L 486.633479 114.198 
L 499.056485 114.092237 
L 511.47949 113.986475 
L 523.902496 113.880713 
L 536.325502 113.77495 
L 548.748507 113.669188 
L 561.171513 113.563426 
L 573.594518 113.457663 
L 586.017524 113.351901 
L 598.440529 113.246139 
L 610.863535 113.140376 
L 623.28654 113.034614 
L 635.709546 112.928852 
L 648.132552 112.823089 
L 660.555557 112.717327 
L 672.978563 112.611565 
L 685.401568 112.505802 
L 697.824574 112.40004 
" clip-path="url(#pd3c9de4908)" style="fill: none; stroke: #17becf; stroke-width: 1.5; stroke-linecap: square"/>
   </g>
   <g id="patch_3">
    <path d="M 68.201563 284.4 
L 68.201563 7.2 
" style="fill: none; stroke: #000000; stroke-width: 0.8; stroke-linejoin: miter; stroke-linecap: square"/>
   </g>
   <g id="patch_4">
    <path d="M 737.801563 284.4 
L 737.801563 7.2 
" style="fill: none; stroke: #000000; stroke-width: 0.8; stroke-linejoin: miter; stroke-linecap: square"/>
   </g>
   <g id="patch_5">
    <path d="M 68.201563 284.4 
L 737.801563 284.4 
" style="fill: none; stroke: #000000; stroke-width: 0.8; stroke-linejoin: miter; stroke-linecap: square"/>
   </g>
   <g id="patch_6">
    <path d="M 68.201563 7.2 
L 737.801563 7.2 
" style="fill: none; stroke: #000000; stroke-width: 0.8; stroke-linejoin: miter; stroke-linecap: square"/>
   </g>
  </g>
 </g>
 <defs>
  <clipPath id="pd3c9de4908">
   <rect x="58.660938" y="7.2" width="669.6" height="277.2"/>
  </clipPath>
 </defs>
</svg>
