<?xml version="1.0" encoding="utf-8" standalone="no"?>
<!DOCTYPE svg PUBLIC "-//W3C//DTD SVG 1.1//EN"
  "http://www.w3.org/Graphics/SVG/1.1/DTD/svg11.dtd">
<svg xmlns:xlink="http://www.w3.org/1999/xlink" width="231.442188pt" height="169.678125pt" viewBox="0 0 231.442188 169.678125" xmlns="http://www.w3.org/2000/svg" version="1.1">
 <metadata>
  <rdf:RDF xmlns:dc="http://purl.org/dc/elements/1.1/" xmlns:cc="http://creativecommons.org/ns#" xmlns:rdf="http://www.w3.org/1999/02/22-rdf-syntax-ns#">
   <cc:Work>
    <dc:type rdf:resource="http://purl.org/dc/dcmitype/StillImage"/>
    <dc:date>2025-06-26T18:03:03.497173</dc:date>
    <dc:format>image/svg+xml</dc:format>
    <dc:creator>
     <cc:Agent>
      <dc:title>Matplotlib v3.6.1, https://matplotlib.org/</dc:title>
     </cc:Agent>
    </dc:creator>
   </cc:Work>
  </rdf:RDF>
 </metadata>
 <defs>
  <style type="text/css">*{stroke-linejoin: round; stroke-linecap: butt}</style>
 </defs>
 <g id="figure_1">
  <g id="patch_1">
   <path d="M 0 169.678125 
L 231.442188 169.678125 
L 231.442188 0 
L 0 0 
z
" style="fill: #ffffff"/>
  </g>
  <g id="axes_1">
   <g id="patch_2">
    <path d="M 28.942188 145.8 
L 224.242188 145.8 
L 224.242188 7.2 
L 28.942188 7.2 
z
" style="fill: #ffffff"/>
   </g>
   <g id="PolyCollection_1">
    <path d="M 37.81946 21.780714 
L 37.81946 130.572205 
L 38.175263 130.572205 
L 38.531065 130.572205 
L 38.886868 130.572205 
L 39.24267 130.572205 
L 39.598473 130.572205 
L 39.954275 130.572205 
L 40.310078 130.572205 
L 40.66588 130.572205 
L 41.021683 130.572205 
L 41.377485 130.572205 
L 41.733288 130.572205 
L 42.08909 130.572205 
L 42.444893 130.572205 
L 42.800695 130.572205 
L 43.156498 130.572205 
L 43.5123 130.572205 
L 43.868103 130.572205 
L 44.223905 130.572205 
L 44.579708 130.572205 
L 44.935511 130.572205 
L 45.291313 130.572205 
L 45.647116 130.572205 
L 46.002918 130.572205 
L 46.358721 130.572205 
L 46.714523 130.572205 
L 47.070326 130.572205 
L 47.426128 130.572205 
L 47.781931 130.572205 
L 48.137733 130.572205 
L 48.493536 130.572205 
L 48.849338 130.572205 
L 49.205141 130.572205 
L 49.560943 130.572205 
L 49.916746 130.572205 
L 50.272548 130.572205 
L 50.628351 130.572205 
L 50.984153 130.572205 
L 51.339956 130.572205 
L 51.695758 130.572205 
L 52.051561 130.572205 
L 52.407363 130.572205 
L 52.763166 130.572205 
L 53.118968 130.572205 
L 53.474771 130.572205 
L 53.830573 130.572205 
L 54.186376 130.572205 
L 54.542178 130.572205 
L 54.897981 130.572205 
L 55.253783 130.572205 
L 55.609586 130.572205 
L 55.965388 130.572205 
L 56.321191 130.572205 
L 56.676993 130.572205 
L 57.032796 130.572205 
L 57.388599 130.572205 
L 57.744401 130.572205 
L 58.100204 130.572205 
L 58.456006 130.572205 
L 58.811809 130.572205 
L 59.167611 130.572205 
L 59.523414 130.572205 
L 59.879216 130.572205 
L 60.235019 130.572205 
L 60.590821 130.572205 
L 60.946624 130.572205 
L 61.302426 130.572205 
L 61.658229 130.572205 
L 62.014031 130.572205 
L 62.369834 130.572205 
L 62.725636 130.572205 
L 63.081439 130.572205 
L 63.437241 130.572205 
L 63.793044 130.572205 
L 64.148846 130.572205 
L 64.504649 130.572205 
L 64.860451 130.572205 
L 65.216254 130.572205 
L 65.572056 130.572205 
L 65.927859 130.572205 
L 66.283661 130.572205 
L 66.639464 130.572205 
L 66.995266 130.572205 
L 67.351069 130.572205 
L 67.706871 130.572205 
L 68.062674 130.572205 
L 68.418476 130.572205 
L 68.774279 130.572205 
L 69.130081 130.572205 
L 69.485884 130.572205 
L 69.841686 130.572205 
L 70.197489 130.572205 
L 70.553292 130.572205 
L 70.909094 130.572205 
L 71.264897 130.572205 
L 71.620699 130.572205 
L 71.976502 130.572205 
L 72.332304 130.572205 
L 72.688107 130.572205 
L 73.043909 130.572205 
L 73.399712 130.572205 
L 73.755514 130.572205 
L 74.111317 130.572205 
L 74.467119 130.572205 
L 74.822922 130.572205 
L 75.178724 130.572205 
L 75.534527 130.572205 
L 75.890329 130.572205 
L 76.246132 130.572205 
L 76.601934 130.572205 
L 76.957737 130.572205 
L 77.313539 130.572205 
L 77.669342 130.572205 
L 78.025144 130.572205 
L 78.380947 130.572205 
L 78.736749 130.572205 
L 79.092552 130.572205 
L 79.448354 130.572205 
L 79.804157 130.572205 
L 80.159959 130.572205 
L 80.515762 130.572205 
L 80.871564 130.572205 
L 81.227367 130.572205 
L 81.583169 130.572205 
L 81.938972 130.572205 
L 82.294774 130.572205 
L 82.650577 130.572205 
L 83.00638 130.572205 
L 83.362182 130.572205 
L 83.717985 130.572205 
L 84.073787 130.572205 
L 84.42959 130.572205 
L 84.785392 130.572205 
L 85.141195 130.572205 
L 85.496997 130.572205 
L 85.8528 130.572205 
L 86.208602 130.572205 
L 86.564405 130.572205 
L 86.920207 130.572205 
L 87.27601 130.572205 
L 87.631812 130.572205 
L 87.987615 130.572205 
L 88.343417 130.572205 
L 88.69922 130.572205 
L 89.055022 130.572205 
L 89.410825 130.572205 
L 89.766627 130.572205 
L 90.12243 130.572205 
L 90.478232 130.572205 
L 90.834035 130.572205 
L 91.189837 130.572205 
L 91.54564 130.572205 
L 91.901442 130.572205 
L 92.257245 130.572205 
L 92.613047 130.572205 
L 92.96885 130.572205 
L 93.324652 130.572205 
L 93.680455 130.572205 
L 94.036257 130.572205 
L 94.39206 130.572205 
L 94.747862 130.572205 
L 95.103665 130.572205 
L 95.459468 130.572205 
L 95.81527 130.572205 
L 96.171073 130.572205 
L 96.526875 130.572205 
L 96.882678 130.572205 
L 97.23848 130.572205 
L 97.594283 130.572205 
L 97.950085 130.572205 
L 98.305888 130.572205 
L 98.66169 130.572205 
L 99.017493 130.572205 
L 99.373295 130.572205 
L 99.729098 130.572205 
L 100.0849 130.572205 
L 100.440703 130.572205 
L 100.796505 130.572205 
L 101.152308 130.572205 
L 101.50811 130.572205 
L 101.863913 130.572205 
L 102.219715 130.572205 
L 102.575518 130.572205 
L 102.93132 130.572205 
L 103.287123 130.572205 
L 103.642925 130.572205 
L 103.998728 130.572205 
L 104.35453 130.572205 
L 104.710333 130.572205 
L 105.066135 130.572205 
L 105.421938 130.572205 
L 105.77774 130.572205 
L 106.133543 130.572205 
L 106.489345 130.572205 
L 106.845148 130.572205 
L 107.20095 130.572205 
L 107.556753 130.572205 
L 107.912556 130.572205 
L 108.268358 130.572205 
L 108.624161 130.572205 
L 108.979963 130.572205 
L 109.335766 130.572205 
L 109.691568 130.572205 
L 110.047371 130.572205 
L 110.403173 130.572205 
L 110.758976 130.572205 
L 111.114778 130.572205 
L 111.470581 130.572205 
L 111.826383 130.572205 
L 112.182186 130.572205 
L 112.537988 130.572205 
L 112.893791 130.572205 
L 113.249593 130.572205 
L 113.605396 130.572205 
L 113.961198 130.572205 
L 114.317001 130.572205 
L 114.672803 130.572205 
L 115.028606 130.572205 
L 115.384408 130.572205 
L 115.740211 130.572205 
L 116.096013 130.572205 
L 116.451816 130.572205 
L 116.807618 130.572205 
L 117.163421 130.572205 
L 117.519223 130.572205 
L 117.875026 130.572205 
L 118.230828 130.572205 
L 118.586631 130.572205 
L 118.942433 130.572205 
L 119.298236 130.572205 
L 119.654038 130.572205 
L 120.009841 130.572205 
L 120.365644 130.572205 
L 120.721446 130.572205 
L 121.077249 130.572205 
L 121.433051 130.572205 
L 121.788854 130.572205 
L 122.144656 130.572205 
L 122.500459 130.572205 
L 122.856261 130.572205 
L 123.212064 130.572205 
L 123.567866 130.572205 
L 123.923669 130.572205 
L 124.279471 130.572205 
L 124.635274 130.572205 
L 124.991076 130.572205 
L 125.346879 130.572205 
L 125.702681 130.572205 
L 126.058484 130.572205 
L 126.414286 130.572205 
L 126.770089 130.572205 
L 127.125891 130.572205 
L 127.481694 130.572205 
L 127.837496 130.572205 
L 128.193299 130.572205 
L 128.549101 130.572205 
L 128.904904 130.572205 
L 129.260706 130.572205 
L 129.616509 130.572205 
L 129.972311 130.572205 
L 130.328114 130.572205 
L 130.683916 130.572205 
L 131.039719 130.572205 
L 131.395521 130.572205 
L 131.751324 130.572205 
L 132.107126 130.572205 
L 132.462929 130.572205 
L 132.818731 130.572205 
L 133.174534 130.572205 
L 133.530337 130.572205 
L 133.886139 130.572205 
L 134.241942 130.572205 
L 134.597744 130.572205 
L 134.953547 130.572205 
L 135.309349 130.572205 
L 135.665152 130.572205 
L 136.020954 130.572205 
L 136.376757 130.572205 
L 136.732559 130.572205 
L 137.088362 130.572205 
L 137.444164 130.572205 
L 137.799967 130.572205 
L 138.155769 130.572205 
L 138.511572 130.572205 
L 138.867374 130.572205 
L 139.223177 130.572205 
L 139.578979 130.572205 
L 139.934782 130.572205 
L 140.290584 130.572205 
L 140.646387 130.572205 
L 141.002189 130.572205 
L 141.357992 130.572205 
L 141.713794 130.572205 
L 142.069597 130.572205 
L 142.425399 130.572205 
L 142.781202 130.572205 
L 143.137004 130.572205 
L 143.492807 130.572205 
L 143.848609 130.572205 
L 144.204412 130.572205 
L 144.560214 130.572205 
L 144.916017 130.572205 
L 145.271819 130.572205 
L 145.627622 130.572205 
L 145.983425 130.572205 
L 146.339227 130.572205 
L 146.69503 130.572205 
L 147.050832 130.572205 
L 147.406635 130.572205 
L 147.762437 130.572205 
L 148.11824 130.572205 
L 148.474042 130.572205 
L 148.829845 130.572205 
L 149.185647 130.572205 
L 149.54145 130.572205 
L 149.897252 130.572205 
L 150.253055 130.572205 
L 150.608857 130.572205 
L 150.96466 130.572205 
L 151.320462 130.572205 
L 151.676265 130.572205 
L 152.032067 130.572205 
L 152.38787 130.572205 
L 152.743672 130.572205 
L 153.099475 130.572205 
L 153.455277 130.572205 
L 153.81108 130.572205 
L 154.166882 130.572205 
L 154.522685 130.572205 
L 154.878487 130.572205 
L 155.23429 130.572205 
L 155.590092 130.572205 
L 155.945895 130.572205 
L 156.301697 130.572205 
L 156.6575 130.572205 
L 157.013302 130.572205 
L 157.369105 130.572205 
L 157.724907 130.572205 
L 158.08071 130.572205 
L 158.436513 130.572205 
L 158.792315 130.572205 
L 159.148118 130.572205 
L 159.50392 130.572205 
L 159.859723 130.572205 
L 160.215525 130.572205 
L 160.571328 130.572205 
L 160.92713 130.572205 
L 161.282933 130.572205 
L 161.638735 130.572205 
L 161.994538 130.572205 
L 162.35034 130.572205 
L 162.706143 130.572205 
L 163.061945 130.572205 
L 163.417748 130.572205 
L 163.77355 130.572205 
L 164.129353 130.572205 
L 164.485155 130.572205 
L 164.840958 130.572205 
L 165.19676 130.572205 
L 165.552563 130.572205 
L 165.908365 130.572205 
L 166.264168 130.572205 
L 166.61997 130.572205 
L 166.975773 130.572205 
L 167.331575 130.572205 
L 167.687378 130.572205 
L 168.04318 130.572205 
L 168.398983 130.572205 
L 168.754785 130.572205 
L 169.110588 130.572205 
L 169.46639 130.572205 
L 169.822193 130.572205 
L 170.177995 130.572205 
L 170.533798 130.572205 
L 170.889601 130.572205 
L 171.245403 130.572205 
L 171.601206 130.572205 
L 171.957008 130.572205 
L 172.312811 130.572205 
L 172.668613 130.572205 
L 173.024416 130.572205 
L 173.380218 130.572205 
L 173.736021 130.572205 
L 174.091823 130.572205 
L 174.447626 130.572205 
L 174.803428 130.572205 
L 175.159231 130.572205 
L 175.515033 130.572205 
L 175.870836 130.572205 
L 176.226638 130.572205 
L 176.582441 130.572205 
L 176.938243 130.572205 
L 177.294046 130.572205 
L 177.649848 130.572205 
L 178.005651 130.572205 
L 178.361453 130.572205 
L 178.717256 130.572205 
L 179.073058 130.572205 
L 179.428861 130.572205 
L 179.784663 130.572205 
L 180.140466 130.572205 
L 180.496268 130.572205 
L 180.852071 130.572205 
L 181.207873 130.572205 
L 181.563676 130.572205 
L 181.919478 130.572205 
L 182.275281 130.572205 
L 182.631083 130.572205 
L 182.986886 130.572205 
L 183.342689 130.572205 
L 183.698491 130.572205 
L 184.054294 130.572205 
L 184.410096 130.572205 
L 184.765899 130.572205 
L 185.121701 130.572205 
L 185.477504 130.572205 
L 185.833306 130.572205 
L 186.189109 130.572205 
L 186.544911 130.572205 
L 186.900714 130.572205 
L 187.256516 130.572205 
L 187.612319 130.572205 
L 187.968121 130.572205 
L 188.323924 130.572205 
L 188.679726 130.572205 
L 189.035529 130.572205 
L 189.391331 130.572205 
L 189.747134 130.572205 
L 190.102936 130.572205 
L 190.458739 130.572205 
L 190.814541 130.572205 
L 191.170344 130.572205 
L 191.526146 130.572205 
L 191.881949 130.572205 
L 192.237751 130.572205 
L 192.593554 130.572205 
L 192.949356 130.572205 
L 193.305159 130.572205 
L 193.660961 130.572205 
L 194.016764 130.572205 
L 194.372566 130.572205 
L 194.728369 130.572205 
L 195.084171 130.572205 
L 195.439974 130.572205 
L 195.795776 130.572205 
L 196.151579 130.572205 
L 196.507382 130.572205 
L 196.863184 130.572205 
L 197.218987 130.572205 
L 197.574789 130.572205 
L 197.930592 130.572205 
L 198.286394 130.572205 
L 198.642197 130.572205 
L 198.997999 130.572205 
L 199.353802 130.572205 
L 199.709604 130.572205 
L 200.065407 130.572205 
L 200.421209 130.572205 
L 200.777012 130.572205 
L 201.132814 130.572205 
L 201.488617 130.572205 
L 201.844419 130.572205 
L 202.200222 130.572205 
L 202.556024 130.572205 
L 202.911827 130.572205 
L 203.267629 130.572205 
L 203.623432 130.572205 
L 203.979234 130.572205 
L 204.335037 130.572205 
L 204.690839 130.572205 
L 205.046642 130.572205 
L 205.402444 130.572205 
L 205.758247 130.572205 
L 206.114049 130.572205 
L 206.469852 130.572205 
L 206.825654 130.572205 
L 207.181457 130.572205 
L 207.537259 130.572205 
L 207.893062 130.572205 
L 208.248864 130.572205 
L 208.604667 130.572205 
L 208.96047 130.572205 
L 209.316272 130.572205 
L 209.672075 130.572205 
L 210.027877 130.572205 
L 210.38368 130.572205 
L 210.739482 130.572205 
L 211.095285 130.572205 
L 211.451087 130.572205 
L 211.80689 130.572205 
L 212.162692 130.572205 
L 212.518495 130.572205 
L 212.874297 130.572205 
L 213.2301 130.572205 
L 213.585902 130.572205 
L 213.941705 130.572205 
L 214.297507 130.572205 
L 214.65331 130.572205 
L 215.009112 130.572205 
L 215.364915 130.572205 
L 215.364915 21.780714 
L 215.364915 21.780714 
L 215.009112 21.780714 
L 214.65331 21.780714 
L 214.297507 21.780714 
L 213.941705 21.780714 
L 213.585902 21.780714 
L 213.2301 21.780714 
L 212.874297 21.780714 
L 212.518495 21.780714 
L 212.162692 21.780714 
L 211.80689 21.780714 
L 211.451087 21.780714 
L 211.095285 21.780714 
L 210.739482 21.780714 
L 210.38368 21.780714 
L 210.027877 21.780714 
L 209.672075 21.780714 
L 209.316272 21.780714 
L 208.96047 21.780714 
L 208.604667 21.780714 
L 208.248864 21.780714 
L 207.893062 21.780714 
L 207.537259 21.780714 
L 207.181457 21.780714 
L 206.825654 21.780714 
L 206.469852 21.780714 
L 206.114049 21.780714 
L 205.758247 21.780714 
L 205.402444 21.780714 
L 205.046642 21.780714 
L 204.690839 21.780714 
L 204.335037 21.780714 
L 203.979234 21.780714 
L 203.623432 21.780714 
L 203.267629 21.780714 
L 202.911827 21.780714 
L 202.556024 21.780714 
L 202.200222 21.780714 
L 201.844419 21.780714 
L 201.488617 21.780714 
L 201.132814 21.780714 
L 200.777012 21.780714 
L 200.421209 21.780714 
L 200.065407 21.780714 
L 199.709604 21.780714 
L 199.353802 21.780714 
L 198.997999 21.780714 
L 198.642197 21.780714 
L 198.286394 21.780714 
L 197.930592 21.780714 
L 197.574789 21.780714 
L 197.218987 21.780714 
L 196.863184 21.780714 
L 196.507382 21.780714 
L 196.151579 21.780714 
L 195.795776 21.780714 
L 195.439974 21.780714 
L 195.084171 21.780714 
L 194.728369 21.780714 
L 194.372566 21.780714 
L 194.016764 21.780714 
L 193.660961 21.780714 
L 193.305159 21.780714 
L 192.949356 21.780714 
L 192.593554 21.780714 
L 192.237751 21.780714 
L 191.881949 21.780714 
L 191.526146 21.780714 
L 191.170344 21.780714 
L 190.814541 21.780714 
L 190.458739 21.780714 
L 190.102936 21.780714 
L 189.747134 21.780714 
L 189.391331 21.780714 
L 189.035529 21.780714 
L 188.679726 21.780714 
L 188.323924 21.780714 
L 187.968121 21.780714 
L 187.612319 21.780714 
L 187.256516 21.780714 
L 186.900714 21.780714 
L 186.544911 21.780714 
L 186.189109 21.780714 
L 185.833306 21.780714 
L 185.477504 21.780714 
L 185.121701 21.780714 
L 184.765899 21.780714 
L 184.410096 21.780714 
L 184.054294 21.780714 
L 183.698491 21.780714 
L 183.342689 21.780714 
L 182.986886 21.780714 
L 182.631083 21.780714 
L 182.275281 21.780714 
L 181.919478 21.780714 
L 181.563676 21.780714 
L 181.207873 21.780714 
L 180.852071 21.780714 
L 180.496268 21.780714 
L 180.140466 21.780714 
L 179.784663 21.780714 
L 179.428861 21.780714 
L 179.073058 21.780714 
L 178.717256 21.780714 
L 178.361453 21.780714 
L 178.005651 21.780714 
L 177.649848 21.780714 
L 177.294046 21.780714 
L 176.938243 21.780714 
L 176.582441 21.780714 
L 176.226638 21.780714 
L 175.870836 21.780714 
L 175.515033 21.780714 
L 175.159231 21.780714 
L 174.803428 21.780714 
L 174.447626 21.780714 
L 174.091823 21.780714 
L 173.736021 21.780714 
L 173.380218 21.780714 
L 173.024416 21.780714 
L 172.668613 21.780714 
L 172.312811 21.780714 
L 171.957008 21.780714 
L 171.601206 21.780714 
L 171.245403 21.780714 
L 170.889601 21.780714 
L 170.533798 21.780714 
L 170.177995 21.780714 
L 169.822193 21.780714 
L 169.46639 21.780714 
L 169.110588 21.780714 
L 168.754785 21.780714 
L 168.398983 21.780714 
L 168.04318 21.780714 
L 167.687378 21.780714 
L 167.331575 21.780714 
L 166.975773 21.780714 
L 166.61997 21.780714 
L 166.264168 21.780714 
L 165.908365 21.780714 
L 165.552563 21.780714 
L 165.19676 21.780714 
L 164.840958 21.780714 
L 164.485155 21.780714 
L 164.129353 21.780714 
L 163.77355 21.780714 
L 163.417748 21.780714 
L 163.061945 21.780714 
L 162.706143 21.780714 
L 162.35034 21.780714 
L 161.994538 21.780714 
L 161.638735 21.780714 
L 161.282933 21.780714 
L 160.92713 21.780714 
L 160.571328 21.780714 
L 160.215525 21.780714 
L 159.859723 21.780714 
L 159.50392 21.780714 
L 159.148118 21.780714 
L 158.792315 21.780714 
L 158.436513 21.780714 
L 158.08071 21.780714 
L 157.724907 21.780714 
L 157.369105 21.780714 
L 157.013302 21.780714 
L 156.6575 21.780714 
L 156.301697 21.780714 
L 155.945895 21.780714 
L 155.590092 21.780714 
L 155.23429 21.780714 
L 154.878487 21.780714 
L 154.522685 21.780714 
L 154.166882 21.780714 
L 153.81108 21.780714 
L 153.455277 21.780714 
L 153.099475 21.780714 
L 152.743672 21.780714 
L 152.38787 21.780714 
L 152.032067 21.780714 
L 151.676265 21.780714 
L 151.320462 21.780714 
L 150.96466 21.780714 
L 150.608857 21.780714 
L 150.253055 21.780714 
L 149.897252 21.780714 
L 149.54145 21.780714 
L 149.185647 21.780714 
L 148.829845 21.780714 
L 148.474042 21.780714 
L 148.11824 21.780714 
L 147.762437 21.780714 
L 147.406635 21.780714 
L 147.050832 21.780714 
L 146.69503 21.780714 
L 146.339227 21.780714 
L 145.983425 21.780714 
L 145.627622 21.780714 
L 145.271819 21.780714 
L 144.916017 21.780714 
L 144.560214 21.780714 
L 144.204412 21.780714 
L 143.848609 21.780714 
L 143.492807 21.780714 
L 143.137004 21.780714 
L 142.781202 21.780714 
L 142.425399 21.780714 
L 142.069597 21.780714 
L 141.713794 21.780714 
L 141.357992 21.780714 
L 141.002189 21.780714 
L 140.646387 21.780714 
L 140.290584 21.780714 
L 139.934782 21.780714 
L 139.578979 21.780714 
L 139.223177 21.780714 
L 138.867374 21.780714 
L 138.511572 21.780714 
L 138.155769 21.780714 
L 137.799967 21.780714 
L 137.444164 21.780714 
L 137.088362 21.780714 
L 136.732559 21.780714 
L 136.376757 21.780714 
L 136.020954 21.780714 
L 135.665152 21.780714 
L 135.309349 21.780714 
L 134.953547 21.780714 
L 134.597744 21.780714 
L 134.241942 21.780714 
L 133.886139 21.780714 
L 133.530337 21.780714 
L 133.174534 21.780714 
L 132.818731 21.780714 
L 132.462929 21.780714 
L 132.107126 21.780714 
L 131.751324 21.780714 
L 131.395521 21.780714 
L 131.039719 21.780714 
L 130.683916 21.780714 
L 130.328114 21.780714 
L 129.972311 21.780714 
L 129.616509 21.780714 
L 129.260706 21.780714 
L 128.904904 21.780714 
L 128.549101 21.780714 
L 128.193299 21.780714 
L 127.837496 21.780714 
L 127.481694 21.780714 
L 127.125891 21.780714 
L 126.770089 21.780714 
L 126.414286 21.780714 
L 126.058484 21.780714 
L 125.702681 21.780714 
L 125.346879 21.780714 
L 124.991076 21.780714 
L 124.635274 21.780714 
L 124.279471 21.780714 
L 123.923669 21.780714 
L 123.567866 21.780714 
L 123.212064 21.780714 
L 122.856261 21.780714 
L 122.500459 21.780714 
L 122.144656 21.780714 
L 121.788854 21.780714 
L 121.433051 21.780714 
L 121.077249 21.780714 
L 120.721446 21.780714 
L 120.365644 21.780714 
L 120.009841 21.780714 
L 119.654038 21.780714 
L 119.298236 21.780714 
L 118.942433 21.780714 
L 118.586631 21.780714 
L 118.230828 21.780714 
L 117.875026 21.780714 
L 117.519223 21.780714 
L 117.163421 21.780714 
L 116.807618 21.780714 
L 116.451816 21.780714 
L 116.096013 21.780714 
L 115.740211 21.780714 
L 115.384408 21.780714 
L 115.028606 21.780714 
L 114.672803 21.780714 
L 114.317001 21.780714 
L 113.961198 21.780714 
L 113.605396 21.780714 
L 113.249593 21.780714 
L 112.893791 21.780714 
L 112.537988 21.780714 
L 112.182186 21.780714 
L 111.826383 21.780714 
L 111.470581 21.780714 
L 111.114778 21.780714 
L 110.758976 21.780714 
L 110.403173 21.780714 
L 110.047371 21.780714 
L 109.691568 21.780714 
L 109.335766 21.780714 
L 108.979963 21.780714 
L 108.624161 21.780714 
L 108.268358 21.780714 
L 107.912556 21.780714 
L 107.556753 21.780714 
L 107.20095 21.780714 
L 106.845148 21.780714 
L 106.489345 21.780714 
L 106.133543 21.780714 
L 105.77774 21.780714 
L 105.421938 21.780714 
L 105.066135 21.780714 
L 104.710333 21.780714 
L 104.35453 21.780714 
L 103.998728 21.780714 
L 103.642925 21.780714 
L 103.287123 21.780714 
L 102.93132 21.780714 
L 102.575518 21.780714 
L 102.219715 21.780714 
L 101.863913 21.780714 
L 101.50811 21.780714 
L 101.152308 21.780714 
L 100.796505 21.780714 
L 100.440703 21.780714 
L 100.0849 21.780714 
L 99.729098 21.780714 
L 99.373295 21.780714 
L 99.017493 21.780714 
L 98.66169 21.780714 
L 98.305888 21.780714 
L 97.950085 21.780714 
L 97.594283 21.780714 
L 97.23848 21.780714 
L 96.882678 21.780714 
L 96.526875 21.780714 
L 96.171073 21.780714 
L 95.81527 21.780714 
L 95.459468 21.780714 
L 95.103665 21.780714 
L 94.747862 21.780714 
L 94.39206 21.780714 
L 94.036257 21.780714 
L 93.680455 21.780714 
L 93.324652 21.780714 
L 92.96885 21.780714 
L 92.613047 21.780714 
L 92.257245 21.780714 
L 91.901442 21.780714 
L 91.54564 21.780714 
L 91.189837 21.780714 
L 90.834035 21.780714 
L 90.478232 21.780714 
L 90.12243 21.780714 
L 89.766627 21.780714 
L 89.410825 21.780714 
L 89.055022 21.780714 
L 88.69922 21.780714 
L 88.343417 21.780714 
L 87.987615 21.780714 
L 87.631812 21.780714 
L 87.27601 21.780714 
L 86.920207 21.780714 
L 86.564405 21.780714 
L 86.208602 21.780714 
L 85.8528 21.780714 
L 85.496997 21.780714 
L 85.141195 21.780714 
L 84.785392 21.780714 
L 84.42959 21.780714 
L 84.073787 21.780714 
L 83.717985 21.780714 
L 83.362182 21.780714 
L 83.00638 21.780714 
L 82.650577 21.780714 
L 82.294774 21.780714 
L 81.938972 21.780714 
L 81.583169 21.780714 
L 81.227367 21.780714 
L 80.871564 21.780714 
L 80.515762 21.780714 
L 80.159959 21.780714 
L 79.804157 21.780714 
L 79.448354 21.780714 
L 79.092552 21.780714 
L 78.736749 21.780714 
L 78.380947 21.780714 
L 78.025144 21.780714 
L 77.669342 21.780714 
L 77.313539 21.780714 
L 76.957737 21.780714 
L 76.601934 21.780714 
L 76.246132 21.780714 
L 75.890329 21.780714 
L 75.534527 21.780714 
L 75.178724 21.780714 
L 74.822922 21.780714 
L 74.467119 21.780714 
L 74.111317 21.780714 
L 73.755514 21.780714 
L 73.399712 21.780714 
L 73.043909 21.780714 
L 72.688107 21.780714 
L 72.332304 21.780714 
L 71.976502 21.780714 
L 71.620699 21.780714 
L 71.264897 21.780714 
L 70.909094 21.780714 
L 70.553292 21.780714 
L 70.197489 21.780714 
L 69.841686 21.780714 
L 69.485884 21.780714 
L 69.130081 21.780714 
L 68.774279 21.780714 
L 68.418476 21.780714 
L 68.062674 21.780714 
L 67.706871 21.780714 
L 67.351069 21.780714 
L 66.995266 21.780714 
L 66.639464 21.780714 
L 66.283661 21.780714 
L 65.927859 21.780714 
L 65.572056 21.780714 
L 65.216254 21.780714 
L 64.860451 21.780714 
L 64.504649 21.780714 
L 64.148846 21.780714 
L 63.793044 21.780714 
L 63.437241 21.780714 
L 63.081439 21.780714 
L 62.725636 21.780714 
L 62.369834 21.780714 
L 62.014031 21.780714 
L 61.658229 21.780714 
L 61.302426 21.780714 
L 60.946624 21.780714 
L 60.590821 21.780714 
L 60.235019 21.780714 
L 59.879216 21.780714 
L 59.523414 21.780714 
L 59.167611 21.780714 
L 58.811809 21.780714 
L 58.456006 21.780714 
L 58.100204 21.780714 
L 57.744401 21.780714 
L 57.388599 21.780714 
L 57.032796 21.780714 
L 56.676993 21.780714 
L 56.321191 21.780714 
L 55.965388 21.780714 
L 55.609586 21.780714 
L 55.253783 21.780714 
L 54.897981 21.780714 
L 54.542178 21.780714 
L 54.186376 21.780714 
L 53.830573 21.780714 
L 53.474771 21.780714 
L 53.118968 21.780714 
L 52.763166 21.780714 
L 52.407363 21.780714 
L 52.051561 21.780714 
L 51.695758 21.780714 
L 51.339956 21.780714 
L 50.984153 21.780714 
L 50.628351 21.780714 
L 50.272548 21.780714 
L 49.916746 21.780714 
L 49.560943 21.780714 
L 49.205141 21.780714 
L 48.849338 21.780714 
L 48.493536 21.780714 
L 48.137733 21.780714 
L 47.781931 21.780714 
L 47.426128 21.780714 
L 47.070326 21.780714 
L 46.714523 21.780714 
L 46.358721 21.780714 
L 46.002918 21.780714 
L 45.647116 21.780714 
L 45.291313 21.780714 
L 44.935511 21.780714 
L 44.579708 21.780714 
L 44.223905 21.780714 
L 43.868103 21.780714 
L 43.5123 21.780714 
L 43.156498 21.780714 
L 42.800695 21.780714 
L 42.444893 21.780714 
L 42.08909 21.780714 
L 41.733288 21.780714 
L 41.377485 21.780714 
L 41.021683 21.780714 
L 40.66588 21.780714 
L 40.310078 21.780714 
L 39.954275 21.780714 
L 39.598473 21.780714 
L 39.24267 21.780714 
L 38.886868 21.780714 
L 38.531065 21.780714 
L 38.175263 21.780714 
L 37.81946 21.780714 
z
" clip-path="url(#p8c1c7146c9)" style="fill: #1f77b4; fill-opacity: 0.25"/>
   </g>
   <g id="matplotlib.axis_1">
    <g id="xtick_1">
     <g id="line2d_1">
      <defs>
       <path id="m9d09385ce8" d="M 0 0 
L 0 3.5 
" style="stroke: #000000; stroke-width: 0.8"/>
      </defs>
      <g>
       <use xlink:href="#m9d09385ce8" x="37.81946" y="145.8" style="stroke: #000000; stroke-width: 0.8"/>
      </g>
     </g>
     <g id="text_1">
      <!-- 0 -->
      <g transform="translate(34.63821 160.398438) scale(0.1 -0.1)">
       <defs>
        <path id="DejaVuSans-30" d="M 2034 4250 
Q 1547 4250 1301 3770 
Q 1056 3291 1056 2328 
Q 1056 1369 1301 889 
Q 1547 409 2034 409 
Q 2525 409 2770 889 
Q 3016 1369 3016 2328 
Q 3016 3291 2770 3770 
Q 2525 4250 2034 4250 
z
M 2034 4750 
Q 2819 4750 3233 4129 
Q 3647 3509 3647 2328 
Q 3647 1150 3233 529 
Q 2819 -91 2034 -91 
Q 1250 -91 836 529 
Q 422 1150 422 2328 
Q 422 3509 836 4129 
Q 1250 4750 2034 4750 
z
" transform="scale(0.015625)"/>
       </defs>
       <use xlink:href="#DejaVuSans-30"/>
      </g>
     </g>
    </g>
    <g id="xtick_2">
     <g id="line2d_2">
      <g>
       <use xlink:href="#m9d09385ce8" x="73.328551" y="145.8" style="stroke: #000000; stroke-width: 0.8"/>
      </g>
     </g>
     <g id="text_2">
      <!-- 1 -->
      <g transform="translate(70.147301 160.398438) scale(0.1 -0.1)">
       <defs>
        <path id="DejaVuSans-31" d="M 794 531 
L 1825 531 
L 1825 4091 
L 703 3866 
L 703 4441 
L 1819 4666 
L 2450 4666 
L 2450 531 
L 3481 531 
L 3481 0 
L 794 0 
L 794 531 
z
" transform="scale(0.015625)"/>
       </defs>
       <use xlink:href="#DejaVuSans-31"/>
      </g>
     </g>
    </g>
    <g id="xtick_3">
     <g id="line2d_3">
      <g>
       <use xlink:href="#m9d09385ce8" x="108.837642" y="145.8" style="stroke: #000000; stroke-width: 0.8"/>
      </g>
     </g>
     <g id="text_3">
      <!-- 2 -->
      <g transform="translate(105.656392 160.398438) scale(0.1 -0.1)">
       <defs>
        <path id="DejaVuSans-32" d="M 1228 531 
L 3431 531 
L 3431 0 
L 469 0 
L 469 531 
Q 828 903 1448 1529 
Q 2069 2156 2228 2338 
Q 2531 2678 2651 2914 
Q 2772 3150 2772 3378 
Q 2772 3750 2511 3984 
Q 2250 4219 1831 4219 
Q 1534 4219 1204 4116 
Q 875 4013 500 3803 
L 500 4441 
Q 881 4594 1212 4672 
Q 1544 4750 1819 4750 
Q 2544 4750 2975 4387 
Q 3406 4025 3406 3419 
Q 3406 3131 3298 2873 
Q 3191 2616 2906 2266 
Q 2828 2175 2409 1742 
Q 1991 1309 1228 531 
z
" transform="scale(0.015625)"/>
       </defs>
       <use xlink:href="#DejaVuSans-32"/>
      </g>
     </g>
    </g>
    <g id="xtick_4">
     <g id="line2d_4">
      <g>
       <use xlink:href="#m9d09385ce8" x="144.346733" y="145.8" style="stroke: #000000; stroke-width: 0.8"/>
      </g>
     </g>
     <g id="text_4">
      <!-- 3 -->
      <g transform="translate(141.165483 160.398438) scale(0.1 -0.1)">
       <defs>
        <path id="DejaVuSans-33" d="M 2597 2516 
Q 3050 2419 3304 2112 
Q 3559 1806 3559 1356 
Q 3559 666 3084 287 
Q 2609 -91 1734 -91 
Q 1441 -91 1130 -33 
Q 819 25 488 141 
L 488 750 
Q 750 597 1062 519 
Q 1375 441 1716 441 
Q 2309 441 2620 675 
Q 2931 909 2931 1356 
Q 2931 1769 2642 2001 
Q 2353 2234 1838 2234 
L 1294 2234 
L 1294 2753 
L 1863 2753 
Q 2328 2753 2575 2939 
Q 2822 3125 2822 3475 
Q 2822 3834 2567 4026 
Q 2313 4219 1838 4219 
Q 1578 4219 1281 4162 
Q 984 4106 628 3988 
L 628 4550 
Q 988 4650 1302 4700 
Q 1616 4750 1894 4750 
Q 2613 4750 3031 4423 
Q 3450 4097 3450 3541 
Q 3450 3153 3228 2886 
Q 3006 2619 2597 2516 
z
" transform="scale(0.015625)"/>
       </defs>
       <use xlink:href="#DejaVuSans-33"/>
      </g>
     </g>
    </g>
    <g id="xtick_5">
     <g id="line2d_5">
      <g>
       <use xlink:href="#m9d09385ce8" x="179.855824" y="145.8" style="stroke: #000000; stroke-width: 0.8"/>
      </g>
     </g>
     <g id="text_5">
      <!-- 4 -->
      <g transform="translate(176.674574 160.398438) scale(0.1 -0.1)">
       <defs>
        <path id="DejaVuSans-34" d="M 2419 4116 
L 825 1625 
L 2419 1625 
L 2419 4116 
z
M 2253 4666 
L 3047 4666 
L 3047 1625 
L 3713 1625 
L 3713 1100 
L 3047 1100 
L 3047 0 
L 2419 0 
L 2419 1100 
L 313 1100 
L 313 1709 
L 2253 4666 
z
" transform="scale(0.015625)"/>
       </defs>
       <use xlink:href="#DejaVuSans-34"/>
      </g>
     </g>
    </g>
    <g id="xtick_6">
     <g id="line2d_6">
      <g>
       <use xlink:href="#m9d09385ce8" x="215.364915" y="145.8" style="stroke: #000000; stroke-width: 0.8"/>
      </g>
     </g>
     <g id="text_6">
      <!-- 5 -->
      <g transform="translate(212.183665 160.398438) scale(0.1 -0.1)">
       <defs>
        <path id="DejaVuSans-35" d="M 691 4666 
L 3169 4666 
L 3169 4134 
L 1269 4134 
L 1269 2991 
Q 1406 3038 1543 3061 
Q 1681 3084 1819 3084 
Q 2600 3084 3056 2656 
Q 3513 2228 3513 1497 
Q 3513 744 3044 326 
Q 2575 -91 1722 -91 
Q 1428 -91 1123 -41 
Q 819 9 494 109 
L 494 744 
Q 775 591 1075 516 
Q 1375 441 1709 441 
Q 2250 441 2565 725 
Q 2881 1009 2881 1497 
Q 2881 1984 2565 2268 
Q 2250 2553 1709 2553 
Q 1456 2553 1204 2497 
Q 953 2441 691 2322 
L 691 4666 
z
" transform="scale(0.015625)"/>
       </defs>
       <use xlink:href="#DejaVuSans-35"/>
      </g>
     </g>
    </g>
   </g>
   <g id="matplotlib.axis_2">
    <g id="ytick_1">
     <g id="line2d_7">
      <defs>
       <path id="m54bd2a9a48" d="M 0 0 
L -3.5 0 
" style="stroke: #000000; stroke-width: 0.8"/>
      </defs>
      <g>
       <use xlink:href="#m54bd2a9a48" x="28.942188" y="130.572205" style="stroke: #000000; stroke-width: 0.8"/>
      </g>
     </g>
     <g id="text_7">
      <!-- −2 -->
      <g transform="translate(7.2 134.371424) scale(0.1 -0.1)">
       <defs>
        <path id="DejaVuSans-2212" d="M 678 2272 
L 4684 2272 
L 4684 1741 
L 678 1741 
L 678 2272 
z
" transform="scale(0.015625)"/>
       </defs>
       <use xlink:href="#DejaVuSans-2212"/>
       <use xlink:href="#DejaVuSans-32" x="83.789062"/>
      </g>
     </g>
    </g>
    <g id="ytick_2">
     <g id="line2d_8">
      <g>
       <use xlink:href="#m54bd2a9a48" x="28.942188" y="103.374332" style="stroke: #000000; stroke-width: 0.8"/>
      </g>
     </g>
     <g id="text_8">
      <!-- −1 -->
      <g transform="translate(7.2 107.173551) scale(0.1 -0.1)">
       <use xlink:href="#DejaVuSans-2212"/>
       <use xlink:href="#DejaVuSans-31" x="83.789062"/>
      </g>
     </g>
    </g>
    <g id="ytick_3">
     <g id="line2d_9">
      <g>
       <use xlink:href="#m54bd2a9a48" x="28.942188" y="76.176459" style="stroke: #000000; stroke-width: 0.8"/>
      </g>
     </g>
     <g id="text_9">
      <!-- 0 -->
      <g transform="translate(15.579688 79.975678) scale(0.1 -0.1)">
       <use xlink:href="#DejaVuSans-30"/>
      </g>
     </g>
    </g>
    <g id="ytick_4">
     <g id="line2d_10">
      <g>
       <use xlink:href="#m54bd2a9a48" x="28.942188" y="48.978587" style="stroke: #000000; stroke-width: 0.8"/>
      </g>
     </g>
     <g id="text_10">
      <!-- 1 -->
      <g transform="translate(15.579688 52.777805) scale(0.1 -0.1)">
       <use xlink:href="#DejaVuSans-31"/>
      </g>
     </g>
    </g>
    <g id="ytick_5">
     <g id="line2d_11">
      <g>
       <use xlink:href="#m54bd2a9a48" x="28.942188" y="21.780714" style="stroke: #000000; stroke-width: 0.8"/>
      </g>
     </g>
     <g id="text_11">
      <!-- 2 -->
      <g transform="translate(15.579688 25.579933) scale(0.1 -0.1)">
       <use xlink:href="#DejaVuSans-32"/>
      </g>
     </g>
    </g>
   </g>
   <g id="line2d_12">
    <path d="M 37.81946 115.899855 
L 38.531065 115.647061 
L 39.24267 115.179541 
L 39.954275 114.493627 
L 41.021683 113.052495 
L 42.08909 111.121021 
L 43.156498 108.714225 
L 44.579708 104.811909 
L 46.002918 100.200897 
L 47.781931 93.622859 
L 50.272548 83.412117 
L 54.897981 64.239308 
L 56.676993 57.799239 
L 58.100204 53.333282 
L 59.523414 49.603998 
L 60.590821 47.344268 
L 61.658229 45.574644 
L 62.725636 44.311219 
L 63.437241 43.753717 
L 64.148846 43.423816 
L 64.860451 43.319316 
L 65.572056 43.436345 
L 66.283661 43.76943 
L 66.995266 44.311622 
L 68.062674 45.498508 
L 69.130081 47.103847 
L 70.197489 49.08925 
L 71.620699 52.253167 
L 73.399712 56.881025 
L 75.534527 63.111686 
L 81.583169 81.199383 
L 83.362182 85.663024 
L 84.785392 88.686897 
L 86.208602 91.128579 
L 87.27601 92.533993 
L 88.343417 93.547794 
L 89.055022 93.997412 
L 89.766627 94.261891 
L 90.478232 94.339279 
L 91.189837 94.229003 
L 91.901442 93.931976 
L 92.613047 93.450518 
L 93.680455 92.391193 
L 94.747862 90.944398 
L 95.81527 89.135661 
L 97.23848 86.216987 
L 98.66169 82.803739 
L 100.796505 76.994122 
L 107.912556 56.79634 
L 109.335766 53.574107 
L 110.758976 50.896896 
L 111.826383 49.301727 
L 112.893791 48.095255 
L 113.961198 47.301098 
L 114.672803 47.008758 
L 115.384408 46.909214 
L 116.096013 47.003076 
L 116.807618 47.289059 
L 117.519223 47.763898 
L 118.586631 48.818225 
L 119.654038 50.258947 
L 120.721446 52.049806 
L 122.144656 54.901822 
L 123.923669 59.022693 
L 129.616509 72.774021 
L 131.039719 75.467952 
L 132.107126 77.108744 
L 133.174534 78.375482 
L 134.241942 79.236804 
L 134.953547 79.5759 
L 135.665152 79.723645 
L 136.376757 79.68009 
L 137.088362 79.447737 
L 137.799967 79.031464 
L 138.867374 78.078305 
L 139.934782 76.760231 
L 141.002189 75.11852 
L 142.425399 72.510358 
L 144.204412 68.757544 
L 150.96466 53.833324 
L 152.743672 50.717739 
L 154.166882 48.663712 
L 155.590092 47.041081 
L 156.6575 46.121487 
L 157.724907 45.46317 
L 158.792315 45.068909 
L 159.859723 44.939696 
L 160.92713 45.075465 
L 161.994538 45.475768 
L 163.061945 46.14022 
L 164.129353 47.068829 
L 165.19676 48.26199 
L 166.61997 50.265575 
L 168.04318 52.741608 
L 169.46639 55.687927 
L 170.889601 59.095855 
L 172.668613 63.974585 
L 174.803428 70.640338 
L 177.294046 79.270286 
L 183.698491 101.974025 
L 185.477504 107.280439 
L 186.900714 110.902767 
L 188.323924 113.871609 
L 189.391331 115.630131 
L 190.458739 116.969712 
L 191.526146 117.886027 
L 192.237751 118.264606 
L 192.949356 118.462479 
L 193.660961 118.4864 
L 194.372566 118.345082 
L 195.439974 117.846843 
L 196.507382 117.043424 
L 197.930592 115.583519 
L 199.709604 113.318721 
L 205.046642 106.086627 
L 206.469852 104.575312 
L 207.893062 103.371795 
L 209.316272 102.492019 
L 210.739482 101.919168 
L 212.162692 101.606788 
L 213.941705 101.473499 
L 215.364915 101.465163 
L 215.364915 101.465163 
" clip-path="url(#p8c1c7146c9)" style="fill: none; stroke: #000000; stroke-opacity: 0.5; stroke-width: 1.5; stroke-linecap: square"/>
   </g>
   <g id="line2d_13">
    <path d="M 37.81946 69.54614 
L 38.886868 72.016409 
L 40.310078 75.982465 
L 41.733288 80.645861 
L 43.5123 87.293198 
L 46.002918 97.649805 
L 50.984153 118.799742 
L 52.763166 125.394511 
L 54.186376 129.960021 
L 55.609586 133.746222 
L 56.676993 136.005664 
L 57.744401 137.725127 
L 58.456006 138.557215 
L 59.167611 139.130948 
L 59.879216 139.442788 
L 60.590821 139.491425 
L 61.302426 139.277876 
L 62.014031 138.805446 
L 62.725636 138.079767 
L 63.793044 136.534348 
L 64.860451 134.473469 
L 65.927859 131.943592 
L 67.351069 127.938624 
L 69.130081 122.136926 
L 71.976502 111.822723 
L 75.178724 100.274895 
L 76.957737 94.531525 
L 78.736749 89.57246 
L 80.159959 86.273601 
L 81.583169 83.613736 
L 82.650577 82.043445 
L 83.717985 80.828923 
L 84.785392 79.95389 
L 85.8528 79.395253 
L 86.920207 79.124679 
L 87.987615 79.110207 
L 89.055022 79.317876 
L 90.478232 79.880888 
L 91.901442 80.698986 
L 93.680455 81.972337 
L 96.526875 84.326123 
L 102.575518 89.418514 
L 105.066135 91.205014 
L 106.845148 92.245961 
L 108.268358 92.880875 
L 109.691568 93.292536 
L 111.114778 93.43515 
L 112.182186 93.33883 
L 113.249593 93.049531 
L 114.317001 92.553349 
L 115.384408 91.840079 
L 116.451816 90.904058 
L 117.875026 89.309484 
L 119.298236 87.333133 
L 121.077249 84.37712 
L 122.856261 80.977435 
L 125.702681 74.958023 
L 129.972311 65.842411 
L 132.107126 61.778585 
L 133.886139 58.813825 
L 135.665152 56.287867 
L 137.088362 54.596276 
L 138.511572 53.196118 
L 139.934782 52.080045 
L 141.357992 51.23875 
L 142.781202 50.664102 
L 144.204412 50.35114 
L 145.627622 50.298617 
L 147.050832 50.507841 
L 148.474042 50.980146 
L 149.897252 51.713209 
L 151.320462 52.697 
L 153.099475 54.245115 
L 155.23429 56.466841 
L 160.92713 62.65766 
L 162.35034 63.808693 
L 163.77355 64.636003 
L 164.840958 65.005931 
L 165.908365 65.139387 
L 166.975773 65.024503 
L 168.04318 64.656911 
L 169.110588 64.039776 
L 170.177995 63.183441 
L 171.601206 61.699483 
L 173.024416 59.875596 
L 174.803428 57.221133 
L 177.294046 53.069605 
L 182.275281 44.680648 
L 184.410096 41.544889 
L 186.189109 39.293219 
L 187.968121 37.431956 
L 189.391331 36.25634 
L 190.814541 35.382678 
L 191.881949 34.937199 
L 192.949356 34.679437 
L 194.016764 34.615239 
L 195.084171 34.748833 
L 196.151579 35.08238 
L 197.218987 35.615467 
L 198.642197 36.630371 
L 200.065407 37.976578 
L 201.488617 39.626425 
L 203.267629 42.057912 
L 205.402444 45.398246 
L 208.248864 50.299162 
L 214.297507 61.268881 
L 215.364915 63.257569 
L 215.364915 63.257569 
" clip-path="url(#p8c1c7146c9)" style="fill: none; stroke: #000000; stroke-opacity: 0.5; stroke-width: 1.5; stroke-linecap: square"/>
   </g>
   <g id="line2d_14">
    <path d="M 37.81946 89.140213 
L 39.598473 88.795689 
L 44.935511 87.570395 
L 46.358721 87.538846 
L 47.781931 87.761313 
L 48.849338 88.126563 
L 49.916746 88.680588 
L 50.984153 89.434471 
L 52.407363 90.758838 
L 53.830573 92.443352 
L 55.253783 94.465783 
L 57.032796 97.408668 
L 59.167611 101.407542 
L 63.081439 109.368204 
L 66.639464 116.400186 
L 69.130081 120.806889 
L 71.264897 124.116502 
L 73.043909 126.496944 
L 74.822922 128.496752 
L 76.246132 129.794289 
L 77.669342 130.794854 
L 79.092552 131.46908 
L 80.159959 131.7426 
L 81.227367 131.80436 
L 82.294774 131.645304 
L 83.362182 131.259951 
L 84.42959 130.647606 
L 85.496997 129.813397 
L 86.920207 128.377379 
L 88.343417 126.61631 
L 90.12243 124.066209 
L 96.171073 115.019454 
L 97.594283 113.403324 
L 99.017493 112.153374 
L 100.0849 111.477832 
L 101.152308 111.028786 
L 102.219715 110.794757 
L 103.287123 110.751937 
L 104.710333 110.929154 
L 109.691568 111.864482 
L 110.758976 111.694887 
L 111.826383 111.245917 
L 112.893791 110.458913 
L 113.961198 109.284126 
L 115.028606 107.682944 
L 116.096013 105.629631 
L 117.163421 103.112616 
L 118.586631 99.043175 
L 120.009841 94.206076 
L 121.788854 87.227007 
L 123.923669 77.848271 
L 129.972311 50.561435 
L 131.751324 43.83563 
L 133.174534 39.257546 
L 134.597744 35.501598 
L 135.665152 33.26337 
L 136.732559 31.537046 
L 137.799967 30.324954 
L 138.511572 29.799016 
L 139.223177 29.493479 
L 139.934782 29.401813 
L 140.646387 29.515889 
L 141.357992 29.826137 
L 142.069597 30.321716 
L 143.137004 31.386174 
L 144.204412 32.796485 
L 145.627622 35.132764 
L 147.406635 38.620667 
L 149.897252 44.155891 
L 155.23429 56.263143 
L 157.369105 60.556125 
L 159.50392 64.364032 
L 161.638735 67.683269 
L 163.77355 70.566864 
L 165.908365 73.098685 
L 168.398983 75.725104 
L 171.245403 78.423916 
L 174.447626 81.146354 
L 176.938243 83.001117 
L 179.073058 84.355495 
L 181.207873 85.452438 
L 183.342689 86.276014 
L 185.477504 86.843564 
L 187.968121 87.252718 
L 191.881949 87.617675 
L 196.863184 87.90413 
L 198.642197 87.814027 
L 200.065407 87.54905 
L 201.488617 87.026482 
L 202.556024 86.413977 
L 203.623432 85.57276 
L 204.690839 84.470193 
L 205.758247 83.078715 
L 206.825654 81.37793 
L 208.248864 78.610818 
L 209.672075 75.277186 
L 211.095285 71.416561 
L 212.874297 65.971737 
L 215.364915 57.627912 
L 215.364915 57.627912 
" clip-path="url(#p8c1c7146c9)" style="fill: none; stroke: #000000; stroke-opacity: 0.5; stroke-width: 1.5; stroke-linecap: square"/>
   </g>
   <g id="line2d_15">
    <path d="M 37.81946 81.418066 
L 38.886868 80.698254 
L 39.954275 79.753973 
L 41.377485 78.17408 
L 43.156498 75.768459 
L 45.647116 71.884196 
L 49.560943 65.712246 
L 51.339956 63.318061 
L 52.763166 61.716614 
L 54.186376 60.435909 
L 55.609586 59.491381 
L 57.032796 58.878656 
L 58.456006 58.577199 
L 59.879216 58.555114 
L 61.302426 58.774291 
L 63.081439 59.327612 
L 64.860451 60.125666 
L 66.995266 61.32595 
L 69.841686 63.222255 
L 73.399712 65.890436 
L 78.380947 69.63687 
L 80.515762 70.994538 
L 82.294774 71.914173 
L 84.073787 72.605448 
L 85.8528 73.061557 
L 87.631812 73.306237 
L 90.12243 73.400944 
L 94.39206 73.511295 
L 96.171073 73.784433 
L 97.950085 74.296077 
L 99.729098 75.082796 
L 101.50811 76.151463 
L 103.287123 77.483455 
L 105.421938 79.379754 
L 107.912556 81.920219 
L 110.758976 85.181914 
L 113.249593 88.37307 
L 115.384408 91.439253 
L 117.519223 94.901842 
L 119.654038 98.827944 
L 121.788854 103.225675 
L 124.635274 109.661233 
L 128.904904 119.377778 
L 130.683916 122.848875 
L 132.107126 125.130145 
L 133.174534 126.469603 
L 134.241942 127.437607 
L 134.953547 127.856303 
L 135.665152 128.081931 
L 136.376757 128.106661 
L 137.088362 127.924845 
L 137.799967 127.533232 
L 138.511572 126.931074 
L 139.578979 125.637825 
L 140.646387 123.893007 
L 141.713794 121.727124 
L 143.137004 118.260028 
L 144.916017 113.185053 
L 147.406635 105.26573 
L 150.96466 93.991944 
L 152.743672 89.028611 
L 154.166882 85.570218 
L 155.590092 82.620538 
L 157.013302 80.183049 
L 158.436513 78.220192 
L 159.859723 76.658815 
L 161.638735 75.116626 
L 167.331575 70.643578 
L 168.754785 69.101585 
L 170.177995 67.274449 
L 171.957008 64.598593 
L 174.091823 60.943247 
L 178.361453 53.488648 
L 179.784663 51.431558 
L 181.207873 49.795787 
L 182.275281 48.902227 
L 183.342689 48.323779 
L 184.410096 48.071994 
L 185.477504 48.143137 
L 186.544911 48.517576 
L 187.612319 49.159986 
L 189.035529 50.345126 
L 191.526146 52.872098 
L 193.305159 54.559201 
L 194.372566 55.340068 
L 195.439974 55.852301 
L 196.151579 56.010605 
L 196.863184 56.001974 
L 197.574789 55.812027 
L 198.286394 55.429467 
L 198.997999 54.846348 
L 200.065407 53.586841 
L 201.132814 51.867065 
L 202.200222 49.705482 
L 203.623432 46.200828 
L 205.402444 41.010043 
L 207.893062 32.87028 
L 210.739482 23.690227 
L 212.162692 19.695254 
L 213.585902 16.386339 
L 214.65331 14.46972 
L 215.364915 13.5 
L 215.364915 13.5 
" clip-path="url(#p8c1c7146c9)" style="fill: none; stroke: #000000; stroke-opacity: 0.5; stroke-width: 1.5; stroke-linecap: square"/>
   </g>
   <g id="line2d_16">
    <path d="M 37.81946 82.669707 
L 39.24267 82.032555 
L 40.66588 81.14856 
L 42.08909 80.032571 
L 43.868103 78.355948 
L 46.358721 75.629546 
L 53.474771 67.523713 
L 55.965388 65.169496 
L 58.100204 63.445717 
L 60.590821 61.750709 
L 63.081439 60.328188 
L 66.283661 58.759994 
L 72.332304 56.106531 
L 76.246132 54.576031 
L 78.380947 53.982722 
L 79.804157 53.778602 
L 81.227367 53.796737 
L 82.294774 53.995809 
L 83.362182 54.385602 
L 84.42959 54.993849 
L 85.496997 55.84604 
L 86.564405 56.963915 
L 87.631812 58.36403 
L 89.055022 60.686038 
L 90.478232 63.528575 
L 91.901442 66.865884 
L 93.680455 71.646964 
L 95.81527 78.047348 
L 101.50811 95.501406 
L 103.287123 100.030684 
L 104.710333 103.040283 
L 105.77774 104.878969 
L 106.845148 106.328148 
L 107.912556 107.370747 
L 108.624161 107.836145 
L 109.335766 108.118136 
L 110.047371 108.219261 
L 110.758976 108.144054 
L 111.470581 107.898929 
L 112.537988 107.231052 
L 113.605396 106.234349 
L 114.672803 104.950793 
L 116.096013 102.876858 
L 118.230828 99.247986 
L 122.500459 91.753157 
L 124.279471 89.134999 
L 125.702681 87.423781 
L 127.125891 86.102067 
L 128.193299 85.375383 
L 129.260706 84.870154 
L 130.328114 84.571698 
L 131.751324 84.454727 
L 133.174534 84.59024 
L 135.309349 85.066098 
L 137.799967 85.622034 
L 139.223177 85.740863 
L 140.646387 85.599706 
L 141.713794 85.276952 
L 142.781202 84.739532 
L 143.848609 83.968516 
L 144.916017 82.951929 
L 145.983425 81.685101 
L 147.406635 79.612791 
L 148.829845 77.129477 
L 150.608857 73.528358 
L 153.099475 67.843236 
L 157.369105 57.960467 
L 159.148118 54.496503 
L 160.571328 52.265819 
L 161.638735 50.985288 
L 162.706143 50.087004 
L 163.417748 49.716594 
L 164.129353 49.537343 
L 164.840958 49.554012 
L 165.552563 49.769087 
L 166.264168 50.182681 
L 166.975773 50.792511 
L 168.04318 52.064321 
L 169.110588 53.740926 
L 170.533798 56.540966 
L 171.957008 59.879663 
L 174.091823 65.588155 
L 179.073058 79.381231 
L 180.852071 83.527698 
L 182.275281 86.288174 
L 183.342689 87.981886 
L 184.410096 89.328868 
L 185.477504 90.318015 
L 186.544911 90.947551 
L 187.612319 91.224477 
L 188.679726 91.163871 
L 189.747134 90.788034 
L 190.814541 90.125498 
L 191.881949 89.210019 
L 193.305159 87.661979 
L 195.084171 85.340022 
L 201.844419 76.020685 
L 203.267629 74.589025 
L 204.690839 73.506939 
L 205.758247 72.952492 
L 206.825654 72.633115 
L 207.893062 72.556199 
L 208.96047 72.723967 
L 210.027877 73.133775 
L 211.095285 73.778669 
L 212.162692 74.647908 
L 213.585902 76.131755 
L 215.009112 77.950936 
L 215.364915 78.45312 
L 215.364915 78.45312 
" clip-path="url(#p8c1c7146c9)" style="fill: none; stroke: #000000; stroke-opacity: 0.5; stroke-width: 1.5; stroke-linecap: square"/>
   </g>
   <g id="line2d_17">
    <path d="M 37.81946 76.176459 
L 215.364915 76.176459 
L 215.364915 76.176459 
" clip-path="url(#p8c1c7146c9)" style="fill: none; stroke: #1f77b4; stroke-width: 2; stroke-linecap: square"/>
   </g>
   <g id="patch_3">
    <path d="M 28.942188 145.8 
L 28.942188 7.2 
" style="fill: none; stroke: #000000; stroke-width: 0.8; stroke-linejoin: miter; stroke-linecap: square"/>
   </g>
   <g id="patch_4">
    <path d="M 224.242188 145.8 
L 224.242188 7.2 
" style="fill: none; stroke: #000000; stroke-width: 0.8; stroke-linejoin: miter; stroke-linecap: square"/>
   </g>
   <g id="patch_5">
    <path d="M 28.942187 145.8 
L 224.242188 145.8 
" style="fill: none; stroke: #000000; stroke-width: 0.8; stroke-linejoin: miter; stroke-linecap: square"/>
   </g>
   <g id="patch_6">
    <path d="M 28.942187 7.2 
L 224.242188 7.2 
" style="fill: none; stroke: #000000; stroke-width: 0.8; stroke-linejoin: miter; stroke-linecap: square"/>
   </g>
  </g>
 </g>
 <defs>
  <clipPath id="p8c1c7146c9">
   <rect x="28.942188" y="7.2" width="195.3" height="138.6"/>
  </clipPath>
 </defs>
</svg>
