<?xml version="1.0" encoding="utf-8" standalone="no"?>
<!DOCTYPE svg PUBLIC "-//W3C//DTD SVG 1.1//EN"
  "http://www.w3.org/Graphics/SVG/1.1/DTD/svg11.dtd">
<svg xmlns:xlink="http://www.w3.org/1999/xlink" width="715.282813pt" height="308.278125pt" viewBox="0 0 715.282813 308.278125" xmlns="http://www.w3.org/2000/svg" version="1.1">
 <metadata>
  <rdf:RDF xmlns:dc="http://purl.org/dc/elements/1.1/" xmlns:cc="http://creativecommons.org/ns#" xmlns:rdf="http://www.w3.org/1999/02/22-rdf-syntax-ns#">
   <cc:Work>
    <dc:type rdf:resource="http://purl.org/dc/dcmitype/StillImage"/>
    <dc:date>2025-06-02T21:00:44.308615</dc:date>
    <dc:format>image/svg+xml</dc:format>
    <dc:creator>
     <cc:Agent>
      <dc:title>Matplotlib v3.6.1, https://matplotlib.org/</dc:title>
     </cc:Agent>
    </dc:creator>
   </cc:Work>
  </rdf:RDF>
 </metadata>
 <defs>
  <style type="text/css">*{stroke-linejoin: round; stroke-linecap: butt}</style>
 </defs>
 <g id="figure_1">
  <g id="patch_1">
   <path d="M 0 308.278125 
L 715.282813 308.278125 
L 715.282813 0 
L 0 0 
z
" style="fill: #ffffff"/>
  </g>
  <g id="axes_1">
   <g id="patch_2">
    <path d="M 38.482813 284.4 
L 708.082813 284.4 
L 708.082813 7.2 
L 38.482813 7.2 
z
" style="fill: #ffffff"/>
   </g>
   <g id="matplotlib.axis_1">
    <g id="xtick_1">
     <g id="line2d_1">
      <defs>
       <path id="m73a580c673" d="M 0 0 
L 0 3.5 
" style="stroke: #000000; stroke-width: 0.8"/>
      </defs>
      <g>
       <use xlink:href="#m73a580c673" x="68.919176" y="284.4" style="stroke: #000000; stroke-width: 0.8"/>
      </g>
     </g>
     <g id="text_1">
      <!-- 0 -->
      <g transform="translate(65.737926 298.998438) scale(0.1 -0.1)">
       <defs>
        <path id="DejaVuSans-30" d="M 2034 4250 
Q 1547 4250 1301 3770 
Q 1056 3291 1056 2328 
Q 1056 1369 1301 889 
Q 1547 409 2034 409 
Q 2525 409 2770 889 
Q 3016 1369 3016 2328 
Q 3016 3291 2770 3770 
Q 2525 4250 2034 4250 
z
M 2034 4750 
Q 2819 4750 3233 4129 
Q 3647 3509 3647 2328 
Q 3647 1150 3233 529 
Q 2819 -91 2034 -91 
Q 1250 -91 836 529 
Q 422 1150 422 2328 
Q 422 3509 836 4129 
Q 1250 4750 2034 4750 
z
" transform="scale(0.015625)"/>
       </defs>
       <use xlink:href="#DejaVuSans-30"/>
      </g>
     </g>
    </g>
    <g id="xtick_2">
     <g id="line2d_2">
      <g>
       <use xlink:href="#m73a580c673" x="190.664631" y="284.4" style="stroke: #000000; stroke-width: 0.8"/>
      </g>
     </g>
     <g id="text_2">
      <!-- 1 -->
      <g transform="translate(187.483381 298.998438) scale(0.1 -0.1)">
       <defs>
        <path id="DejaVuSans-31" d="M 794 531 
L 1825 531 
L 1825 4091 
L 703 3866 
L 703 4441 
L 1819 4666 
L 2450 4666 
L 2450 531 
L 3481 531 
L 3481 0 
L 794 0 
L 794 531 
z
" transform="scale(0.015625)"/>
       </defs>
       <use xlink:href="#DejaVuSans-31"/>
      </g>
     </g>
    </g>
    <g id="xtick_3">
     <g id="line2d_3">
      <g>
       <use xlink:href="#m73a580c673" x="312.410085" y="284.4" style="stroke: #000000; stroke-width: 0.8"/>
      </g>
     </g>
     <g id="text_3">
      <!-- 2 -->
      <g transform="translate(309.228835 298.998438) scale(0.1 -0.1)">
       <defs>
        <path id="DejaVuSans-32" d="M 1228 531 
L 3431 531 
L 3431 0 
L 469 0 
L 469 531 
Q 828 903 1448 1529 
Q 2069 2156 2228 2338 
Q 2531 2678 2651 2914 
Q 2772 3150 2772 3378 
Q 2772 3750 2511 3984 
Q 2250 4219 1831 4219 
Q 1534 4219 1204 4116 
Q 875 4013 500 3803 
L 500 4441 
Q 881 4594 1212 4672 
Q 1544 4750 1819 4750 
Q 2544 4750 2975 4387 
Q 3406 4025 3406 3419 
Q 3406 3131 3298 2873 
Q 3191 2616 2906 2266 
Q 2828 2175 2409 1742 
Q 1991 1309 1228 531 
z
" transform="scale(0.015625)"/>
       </defs>
       <use xlink:href="#DejaVuSans-32"/>
      </g>
     </g>
    </g>
    <g id="xtick_4">
     <g id="line2d_4">
      <g>
       <use xlink:href="#m73a580c673" x="434.15554" y="284.4" style="stroke: #000000; stroke-width: 0.8"/>
      </g>
     </g>
     <g id="text_4">
      <!-- 3 -->
      <g transform="translate(430.97429 298.998438) scale(0.1 -0.1)">
       <defs>
        <path id="DejaVuSans-33" d="M 2597 2516 
Q 3050 2419 3304 2112 
Q 3559 1806 3559 1356 
Q 3559 666 3084 287 
Q 2609 -91 1734 -91 
Q 1441 -91 1130 -33 
Q 819 25 488 141 
L 488 750 
Q 750 597 1062 519 
Q 1375 441 1716 441 
Q 2309 441 2620 675 
Q 2931 909 2931 1356 
Q 2931 1769 2642 2001 
Q 2353 2234 1838 2234 
L 1294 2234 
L 1294 2753 
L 1863 2753 
Q 2328 2753 2575 2939 
Q 2822 3125 2822 3475 
Q 2822 3834 2567 4026 
Q 2313 4219 1838 4219 
Q 1578 4219 1281 4162 
Q 984 4106 628 3988 
L 628 4550 
Q 988 4650 1302 4700 
Q 1616 4750 1894 4750 
Q 2613 4750 3031 4423 
Q 3450 4097 3450 3541 
Q 3450 3153 3228 2886 
Q 3006 2619 2597 2516 
z
" transform="scale(0.015625)"/>
       </defs>
       <use xlink:href="#DejaVuSans-33"/>
      </g>
     </g>
    </g>
    <g id="xtick_5">
     <g id="line2d_5">
      <g>
       <use xlink:href="#m73a580c673" x="555.900994" y="284.4" style="stroke: #000000; stroke-width: 0.8"/>
      </g>
     </g>
     <g id="text_5">
      <!-- 4 -->
      <g transform="translate(552.719744 298.998438) scale(0.1 -0.1)">
       <defs>
        <path id="DejaVuSans-34" d="M 2419 4116 
L 825 1625 
L 2419 1625 
L 2419 4116 
z
M 2253 4666 
L 3047 4666 
L 3047 1625 
L 3713 1625 
L 3713 1100 
L 3047 1100 
L 3047 0 
L 2419 0 
L 2419 1100 
L 313 1100 
L 313 1709 
L 2253 4666 
z
" transform="scale(0.015625)"/>
       </defs>
       <use xlink:href="#DejaVuSans-34"/>
      </g>
     </g>
    </g>
    <g id="xtick_6">
     <g id="line2d_6">
      <g>
       <use xlink:href="#m73a580c673" x="677.646449" y="284.4" style="stroke: #000000; stroke-width: 0.8"/>
      </g>
     </g>
     <g id="text_6">
      <!-- 5 -->
      <g transform="translate(674.465199 298.998438) scale(0.1 -0.1)">
       <defs>
        <path id="DejaVuSans-35" d="M 691 4666 
L 3169 4666 
L 3169 4134 
L 1269 4134 
L 1269 2991 
Q 1406 3038 1543 3061 
Q 1681 3084 1819 3084 
Q 2600 3084 3056 2656 
Q 3513 2228 3513 1497 
Q 3513 744 3044 326 
Q 2575 -91 1722 -91 
Q 1428 -91 1123 -41 
Q 819 9 494 109 
L 494 744 
Q 775 591 1075 516 
Q 1375 441 1709 441 
Q 2250 441 2565 725 
Q 2881 1009 2881 1497 
Q 2881 1984 2565 2268 
Q 2250 2553 1709 2553 
Q 1456 2553 1204 2497 
Q 953 2441 691 2322 
L 691 4666 
z
" transform="scale(0.015625)"/>
       </defs>
       <use xlink:href="#DejaVuSans-35"/>
      </g>
     </g>
    </g>
   </g>
   <g id="matplotlib.axis_2">
    <g id="ytick_1">
     <g id="line2d_7">
      <defs>
       <path id="me157681f4d" d="M 0 0 
L -3.5 0 
" style="stroke: #000000; stroke-width: 0.8"/>
      </defs>
      <g>
       <use xlink:href="#me157681f4d" x="38.482813" y="272.830295" style="stroke: #000000; stroke-width: 0.8"/>
      </g>
     </g>
     <g id="text_7">
      <!-- −2.0 -->
      <g transform="translate(7.2 276.629514) scale(0.1 -0.1)">
       <defs>
        <path id="DejaVuSans-2212" d="M 678 2272 
L 4684 2272 
L 4684 1741 
L 678 1741 
L 678 2272 
z
" transform="scale(0.015625)"/>
        <path id="DejaVuSans-2e" d="M 684 794 
L 1344 794 
L 1344 0 
L 684 0 
L 684 794 
z
" transform="scale(0.015625)"/>
       </defs>
       <use xlink:href="#DejaVuSans-2212"/>
       <use xlink:href="#DejaVuSans-32" x="83.789062"/>
       <use xlink:href="#DejaVuSans-2e" x="147.412109"/>
       <use xlink:href="#DejaVuSans-30" x="179.199219"/>
      </g>
     </g>
    </g>
    <g id="ytick_2">
     <g id="line2d_8">
      <g>
       <use xlink:href="#me157681f4d" x="38.482813" y="241.209042" style="stroke: #000000; stroke-width: 0.8"/>
      </g>
     </g>
     <g id="text_8">
      <!-- −1.5 -->
      <g transform="translate(7.2 245.008261) scale(0.1 -0.1)">
       <use xlink:href="#DejaVuSans-2212"/>
       <use xlink:href="#DejaVuSans-31" x="83.789062"/>
       <use xlink:href="#DejaVuSans-2e" x="147.412109"/>
       <use xlink:href="#DejaVuSans-35" x="179.199219"/>
      </g>
     </g>
    </g>
    <g id="ytick_3">
     <g id="line2d_9">
      <g>
       <use xlink:href="#me157681f4d" x="38.482813" y="209.587789" style="stroke: #000000; stroke-width: 0.8"/>
      </g>
     </g>
     <g id="text_9">
      <!-- −1.0 -->
      <g transform="translate(7.2 213.387007) scale(0.1 -0.1)">
       <use xlink:href="#DejaVuSans-2212"/>
       <use xlink:href="#DejaVuSans-31" x="83.789062"/>
       <use xlink:href="#DejaVuSans-2e" x="147.412109"/>
       <use xlink:href="#DejaVuSans-30" x="179.199219"/>
      </g>
     </g>
    </g>
    <g id="ytick_4">
     <g id="line2d_10">
      <g>
       <use xlink:href="#me157681f4d" x="38.482813" y="177.966535" style="stroke: #000000; stroke-width: 0.8"/>
      </g>
     </g>
     <g id="text_10">
      <!-- −0.5 -->
      <g transform="translate(7.2 181.765754) scale(0.1 -0.1)">
       <use xlink:href="#DejaVuSans-2212"/>
       <use xlink:href="#DejaVuSans-30" x="83.789062"/>
       <use xlink:href="#DejaVuSans-2e" x="147.412109"/>
       <use xlink:href="#DejaVuSans-35" x="179.199219"/>
      </g>
     </g>
    </g>
    <g id="ytick_5">
     <g id="line2d_11">
      <g>
       <use xlink:href="#me157681f4d" x="38.482813" y="146.345282" style="stroke: #000000; stroke-width: 0.8"/>
      </g>
     </g>
     <g id="text_11">
      <!-- 0.0 -->
      <g transform="translate(15.579688 150.144501) scale(0.1 -0.1)">
       <use xlink:href="#DejaVuSans-30"/>
       <use xlink:href="#DejaVuSans-2e" x="63.623047"/>
       <use xlink:href="#DejaVuSans-30" x="95.410156"/>
      </g>
     </g>
    </g>
    <g id="ytick_6">
     <g id="line2d_12">
      <g>
       <use xlink:href="#me157681f4d" x="38.482813" y="114.724028" style="stroke: #000000; stroke-width: 0.8"/>
      </g>
     </g>
     <g id="text_12">
      <!-- 0.5 -->
      <g transform="translate(15.579688 118.523247) scale(0.1 -0.1)">
       <use xlink:href="#DejaVuSans-30"/>
       <use xlink:href="#DejaVuSans-2e" x="63.623047"/>
       <use xlink:href="#DejaVuSans-35" x="95.410156"/>
      </g>
     </g>
    </g>
    <g id="ytick_7">
     <g id="line2d_13">
      <g>
       <use xlink:href="#me157681f4d" x="38.482813" y="83.102775" style="stroke: #000000; stroke-width: 0.8"/>
      </g>
     </g>
     <g id="text_13">
      <!-- 1.0 -->
      <g transform="translate(15.579688 86.901994) scale(0.1 -0.1)">
       <use xlink:href="#DejaVuSans-31"/>
       <use xlink:href="#DejaVuSans-2e" x="63.623047"/>
       <use xlink:href="#DejaVuSans-30" x="95.410156"/>
      </g>
     </g>
    </g>
    <g id="ytick_8">
     <g id="line2d_14">
      <g>
       <use xlink:href="#me157681f4d" x="38.482813" y="51.481522" style="stroke: #000000; stroke-width: 0.8"/>
      </g>
     </g>
     <g id="text_14">
      <!-- 1.5 -->
      <g transform="translate(15.579688 55.28074) scale(0.1 -0.1)">
       <use xlink:href="#DejaVuSans-31"/>
       <use xlink:href="#DejaVuSans-2e" x="63.623047"/>
       <use xlink:href="#DejaVuSans-35" x="95.410156"/>
      </g>
     </g>
    </g>
    <g id="ytick_9">
     <g id="line2d_15">
      <g>
       <use xlink:href="#me157681f4d" x="38.482813" y="19.860268" style="stroke: #000000; stroke-width: 0.8"/>
      </g>
     </g>
     <g id="text_15">
      <!-- 2.0 -->
      <g transform="translate(15.579688 23.659487) scale(0.1 -0.1)">
       <use xlink:href="#DejaVuSans-32"/>
       <use xlink:href="#DejaVuSans-2e" x="63.623047"/>
       <use xlink:href="#DejaVuSans-30" x="95.410156"/>
      </g>
     </g>
    </g>
   </g>
   <g id="line2d_16">
    <path d="M 68.919176 114.663215 
L 81.342182 118.401055 
L 93.765187 121.774824 
L 106.188193 124.454353 
L 118.611198 126.110651 
L 131.034204 126.45093 
L 143.45721 125.252617 
L 155.880215 122.391387 
L 168.303221 117.858702 
L 180.726226 111.766165 
L 193.149232 104.335984 
L 205.572237 95.878843 
L 217.995243 86.762514 
L 230.418248 77.375642 
L 242.841254 68.091731 
L 255.26426 59.238257 
L 267.687265 51.074522 
L 280.110271 43.780661 
L 292.533276 37.458281 
L 304.956282 32.141735 
L 317.379287 27.817257 
L 329.802293 24.44676 
L 342.225299 21.992124 
L 354.648304 20.436601 
L 367.07131 19.8 
L 379.494315 20.145842 
L 391.917321 21.579555 
L 404.340326 24.238187 
L 416.763332 28.273229 
L 429.186338 33.828894 
L 441.609343 41.018913 
L 454.032349 49.904847 
L 466.455354 60.478561 
L 478.87836 72.651047 
L 491.301365 86.248443 
L 503.724371 101.015577 
L 516.147377 116.626053 
L 528.570382 132.69746 
L 540.993388 148.809957 
L 553.416393 164.526482 
L 565.839399 179.413086 
L 578.262404 193.058552 
L 590.68541 205.09251 
L 603.108415 215.201822 
L 615.531421 223.144868 
L 627.954427 228.763144 
L 640.377432 231.989548 
L 652.800438 232.852333 
L 665.223443 231.473835 
L 677.646449 228.063371 
" clip-path="url(#pdb176aeb87)" style="fill: none; stroke: #1f77b4; stroke-opacity: 0.5; stroke-width: 1.5; stroke-linecap: square"/>
   </g>
   <g id="line2d_17">
    <path d="M 68.919176 142.493828 
L 81.342182 143.459468 
L 93.765187 144.472132 
L 106.188193 145.507377 
L 118.611198 146.515238 
L 131.034204 147.422632 
L 143.45721 148.140048 
L 155.880215 148.572586 
L 168.303221 148.634733 
L 180.726226 148.266664 
L 193.149232 147.449528 
L 205.572237 146.216588 
L 217.995243 144.657729 
L 230.418248 142.915684 
L 242.841254 141.173803 
L 255.26426 139.63639 
L 267.687265 138.504039 
L 280.110271 137.947318 
L 292.533276 138.082197 
L 304.956282 138.950644 
L 317.379287 140.508964 
L 329.802293 142.62537 
L 342.225299 145.087211 
L 354.648304 147.61702 
L 367.07131 149.895647 
L 379.494315 151.59019 
L 391.917321 152.384041 
L 404.340326 152.006459 
L 416.763332 150.259341 
L 429.186338 147.039215 
L 441.609343 142.35301 
L 454.032349 136.326543 
L 466.455354 129.204893 
L 478.87836 121.344505 
L 491.301365 113.196693 
L 503.724371 105.283087 
L 516.147377 98.163848 
L 528.570382 92.400188 
L 540.993388 88.513671 
L 553.416393 86.945164 
L 565.839399 88.017178 
L 578.262404 91.90321 
L 590.68541 98.60745 
L 603.108415 107.957418 
L 615.531421 119.610639 
L 627.954427 133.075071 
L 640.377432 147.741413 
L 652.800438 162.924115 
L 665.223443 177.907082 
L 677.646449 191.989924 
" clip-path="url(#pdb176aeb87)" style="fill: none; stroke: #ff7f0e; stroke-opacity: 0.5; stroke-width: 1.5; stroke-linecap: square"/>
   </g>
   <g id="line2d_18">
    <path d="M 68.919176 206.796071 
L 81.342182 211.152594 
L 93.765187 214.873174 
L 106.188193 217.835565 
L 118.611198 219.960859 
L 131.034204 221.214526 
L 143.45721 221.603925 
L 155.880215 221.172797 
L 168.303221 219.993322 
L 180.726226 218.156953 
L 193.149232 215.764531 
L 205.572237 212.916777 
L 217.995243 209.705785 
L 230.418248 206.207908 
L 242.841254 202.478712 
L 255.26426 198.549922 
L 267.687265 194.429083 
L 280.110271 190.101906 
L 292.533276 185.537945 
L 304.956282 180.699374 
L 317.379287 175.552959 
L 329.802293 170.083807 
L 342.225299 164.309647 
L 354.648304 158.293121 
L 367.07131 152.149554 
L 379.494315 146.047799 
L 391.917321 140.202495 
L 404.340326 134.857457 
L 416.763332 130.261471 
L 429.186338 126.63952 
L 441.609343 124.163464 
L 454.032349 122.927017 
L 466.455354 122.929169 
L 478.87836 124.069131 
L 491.301365 126.154011 
L 503.724371 128.918038 
L 516.147377 132.050572 
L 528.570382 135.228364 
L 540.993388 138.147386 
L 553.416393 140.549774 
L 565.839399 142.242675 
L 578.262404 143.107592 
L 590.68541 143.100375 
L 603.108415 142.243787 
L 615.531421 140.615135 
L 627.954427 138.331965 
L 640.377432 135.5385 
L 652.800438 132.394348 
L 665.223443 129.066313 
L 677.646449 125.72318 
" clip-path="url(#pdb176aeb87)" style="fill: none; stroke: #2ca02c; stroke-opacity: 0.5; stroke-width: 1.5; stroke-linecap: square"/>
   </g>
   <g id="line2d_19">
    <path d="M 68.919176 114.62312 
L 81.342182 102.62616 
L 93.765187 90.569609 
L 106.188193 78.816182 
L 118.611198 67.705561 
L 131.034204 57.543026 
L 143.45721 48.588177 
L 155.880215 41.043964 
L 168.303221 35.046904 
L 180.726226 30.65952 
L 193.149232 27.866656 
L 205.572237 26.576916 
L 217.995243 26.630334 
L 230.418248 27.812456 
L 242.841254 29.87426 
L 255.26426 32.556142 
L 267.687265 35.613664 
L 280.110271 38.842009 
L 292.533276 42.096149 
L 304.956282 45.304082 
L 317.379287 48.471465 
L 329.802293 51.676974 
L 342.225299 55.059121 
L 354.648304 58.796333 
L 367.07131 63.083037 
L 379.494315 68.104645 
L 391.917321 74.014421 
L 404.340326 80.914552 
L 416.763332 88.842818 
L 429.186338 97.765444 
L 441.609343 107.575637 
L 454.032349 118.097019 
L 466.455354 129.090747 
L 478.87836 140.265264 
L 491.301365 151.28807 
L 503.724371 161.799209 
L 516.147377 171.426639 
L 528.570382 179.803622 
L 540.993388 186.588363 
L 553.416393 191.485325 
L 565.839399 194.267426 
L 578.262404 194.797417 
L 590.68541 193.046301 
L 603.108415 189.106429 
L 615.531421 183.196962 
L 627.954427 175.659932 
L 640.377432 166.945764 
L 652.800438 157.588645 
L 665.223443 148.172769 
L 677.646449 139.29208 
" clip-path="url(#pdb176aeb87)" style="fill: none; stroke: #d62728; stroke-opacity: 0.5; stroke-width: 1.5; stroke-linecap: square"/>
   </g>
   <g id="line2d_20">
    <path d="M 68.919176 226.312952 
L 81.342182 238.400177 
L 93.765187 249.076139 
L 106.188193 258.033788 
L 118.611198 264.969745 
L 131.034204 269.62054 
L 143.45721 271.8 
L 155.880215 271.432222 
L 168.303221 268.575181 
L 180.726226 263.431036 
L 193.149232 256.341166 
L 205.572237 247.765991 
L 217.995243 238.251454 
L 230.418248 228.385753 
L 242.841254 218.751017 
L 255.26426 209.875117 
L 267.687265 202.188567 
L 280.110271 195.991099 
L 292.533276 191.431124 
L 304.956282 188.499975 
L 317.379287 187.041174 
L 329.802293 186.773365 
L 342.225299 187.323895 
L 354.648304 188.269021 
L 367.07131 189.175963 
L 379.494315 189.641862 
L 391.917321 189.325509 
L 404.340326 187.968743 
L 416.763332 185.406198 
L 429.186338 181.563841 
L 441.609343 176.448546 
L 454.032349 170.132016 
L 466.455354 162.73302 
L 478.87836 154.401664 
L 491.301365 145.308185 
L 503.724371 135.637636 
L 516.147377 125.589632 
L 528.570382 115.381532 
L 540.993388 105.251945 
L 553.416393 95.461754 
L 565.839399 86.290166 
L 578.262404 78.024713 
L 590.68541 70.945555 
L 603.108415 65.305798 
L 615.531421 61.310781 
L 627.954427 59.099648 
L 640.377432 58.732176 
L 652.800438 60.183191 
L 665.223443 63.345409 
L 677.646449 68.040254 
" clip-path="url(#pdb176aeb87)" style="fill: none; stroke: #9467bd; stroke-opacity: 0.5; stroke-width: 1.5; stroke-linecap: square"/>
   </g>
   <g id="patch_3">
    <path d="M 38.482813 284.4 
L 38.482813 7.2 
" style="fill: none; stroke: #000000; stroke-width: 0.8; stroke-linejoin: miter; stroke-linecap: square"/>
   </g>
   <g id="patch_4">
    <path d="M 708.082813 284.4 
L 708.082813 7.2 
" style="fill: none; stroke: #000000; stroke-width: 0.8; stroke-linejoin: miter; stroke-linecap: square"/>
   </g>
   <g id="patch_5">
    <path d="M 38.482813 284.4 
L 708.082813 284.4 
" style="fill: none; stroke: #000000; stroke-width: 0.8; stroke-linejoin: miter; stroke-linecap: square"/>
   </g>
   <g id="patch_6">
    <path d="M 38.482813 7.2 
L 708.082813 7.2 
" style="fill: none; stroke: #000000; stroke-width: 0.8; stroke-linejoin: miter; stroke-linecap: square"/>
   </g>
  </g>
 </g>
 <defs>
  <clipPath id="pdb176aeb87">
   <rect x="38.482813" y="7.2" width="669.6" height="277.2"/>
  </clipPath>
 </defs>
</svg>
