<?xml version="1.0" encoding="utf-8" standalone="no"?>
<!DOCTYPE svg PUBLIC "-//W3C//DTD SVG 1.1//EN"
  "http://www.w3.org/Graphics/SVG/1.1/DTD/svg11.dtd">
<svg xmlns:xlink="http://www.w3.org/1999/xlink" width="745.001562pt" height="331.634375pt" viewBox="0 0 745.001562 331.634375" xmlns="http://www.w3.org/2000/svg" version="1.1">
 <metadata>
  <rdf:RDF xmlns:dc="http://purl.org/dc/elements/1.1/" xmlns:cc="http://creativecommons.org/ns#" xmlns:rdf="http://www.w3.org/1999/02/22-rdf-syntax-ns#">
   <cc:Work>
    <dc:type rdf:resource="http://purl.org/dc/dcmitype/StillImage"/>
    <dc:date>2025-06-30T15:17:46.194015</dc:date>
    <dc:format>image/svg+xml</dc:format>
    <dc:creator>
     <cc:Agent>
      <dc:title>Matplotlib v3.7.2, https://matplotlib.org/</dc:title>
     </cc:Agent>
    </dc:creator>
   </cc:Work>
  </rdf:RDF>
 </metadata>
 <defs>
  <style type="text/css">*{stroke-linejoin: round; stroke-linecap: butt}</style>
 </defs>
 <g id="figure_1">
  <g id="patch_1">
   <path d="M 0 331.634375 
L 745.001562 331.634375 
L 745.001562 0 
L 0 0 
z
" style="fill: #ffffff"/>
  </g>
  <g id="axes_1">
   <g id="patch_2">
    <path d="M 68.201563 284.4 
L 737.801563 284.4 
L 737.801563 7.2 
L 68.201563 7.2 
z
" style="fill: #ffffff"/>
   </g>
   <g id="PolyCollection_1">
    <path d="M 98.637926 19.8 
L 98.637926 271.8 
L 111.060932 266.858985 
L 123.483937 261.926737 
L 135.906943 257.004424 
L 148.329948 252.093424 
L 160.752954 247.195382 
L 173.17596 242.312271 
L 185.598965 237.446478 
L 198.021971 232.600914 
L 210.444976 227.779168 
L 222.867982 222.985702 
L 235.290987 218.226133 
L 247.713993 213.507609 
L 260.136998 208.839346 
L 272.560004 204.233394 
L 284.98301 199.705726 
L 297.406015 195.277839 
L 309.829021 190.979079 
L 322.252026 186.850033 
L 334.675032 182.947337 
L 347.098037 179.350075 
L 359.521043 176.166986 
L 371.944049 173.541009 
L 384.367054 171.642537 
L 396.79006 170.638947 
L 409.213065 170.638947 
L 421.636071 171.642537 
L 434.059076 173.541009 
L 446.482082 176.166986 
L 458.905088 179.350075 
L 471.328093 182.947337 
L 483.751099 186.850033 
L 496.174104 190.979079 
L 508.59711 195.277839 
L 521.020115 199.705726 
L 533.443121 204.233394 
L 545.866127 208.839346 
L 558.289132 213.507609 
L 570.712138 218.226133 
L 583.135143 222.985702 
L 595.558149 227.779168 
L 607.981154 232.600914 
L 620.40416 237.446478 
L 632.827165 242.312271 
L 645.250171 247.195382 
L 657.673177 252.093424 
L 670.096182 257.004424 
L 682.519188 261.926737 
L 694.942193 266.858985 
L 707.365199 271.8 
L 707.365199 19.8 
L 707.365199 19.8 
L 694.942193 24.741015 
L 682.519188 29.673263 
L 670.096182 34.595576 
L 657.673177 39.506576 
L 645.250171 44.404618 
L 632.827165 49.287729 
L 620.40416 54.153522 
L 607.981154 58.999086 
L 595.558149 63.820832 
L 583.135143 68.614298 
L 570.712138 73.373867 
L 558.289132 78.092391 
L 545.866127 82.760654 
L 533.443121 87.366606 
L 521.020115 91.894274 
L 508.59711 96.322161 
L 496.174104 100.620921 
L 483.751099 104.749967 
L 471.328093 108.652663 
L 458.905088 112.249925 
L 446.482082 115.433014 
L 434.059076 118.058991 
L 421.636071 119.957463 
L 409.213065 120.961053 
L 396.79006 120.961053 
L 384.367054 119.957463 
L 371.944049 118.058991 
L 359.521043 115.433014 
L 347.098037 112.249925 
L 334.675032 108.652663 
L 322.252026 104.749967 
L 309.829021 100.620921 
L 297.406015 96.322161 
L 284.98301 91.894274 
L 272.560004 87.366606 
L 260.136998 82.760654 
L 247.713993 78.092391 
L 235.290987 73.373867 
L 222.867982 68.614298 
L 210.444976 63.820832 
L 198.021971 58.999086 
L 185.598965 54.153522 
L 173.17596 49.287729 
L 160.752954 44.404618 
L 148.329948 39.506576 
L 135.906943 34.595576 
L 123.483937 29.673263 
L 111.060932 24.741015 
L 98.637926 19.8 
z
" clip-path="url(#pcbc3ac0a60)" style="fill: #1f77b4; fill-opacity: 0.25"/>
   </g>
   <g id="matplotlib.axis_1">
    <g id="xtick_1">
     <g id="line2d_1">
      <defs>
       <path id="m8b1b05fb63" d="M 0 0 
L 0 3.5 
" style="stroke: #000000; stroke-width: 0.8"/>
      </defs>
      <g>
       <use xlink:href="#m8b1b05fb63" x="159.510653" y="284.4" style="stroke: #000000; stroke-width: 0.8"/>
      </g>
     </g>
     <g id="text_1">
      <!-- −4 -->
      <g transform="translate(152.13956 298.998437) scale(0.1 -0.1)">
       <defs>
        <path id="DejaVuSans-2212" d="M 678 2272 
L 4684 2272 
L 4684 1741 
L 678 1741 
L 678 2272 
z
" transform="scale(0.015625)"/>
        <path id="DejaVuSans-34" d="M 2419 4116 
L 825 1625 
L 2419 1625 
L 2419 4116 
z
M 2253 4666 
L 3047 4666 
L 3047 1625 
L 3713 1625 
L 3713 1100 
L 3047 1100 
L 3047 0 
L 2419 0 
L 2419 1100 
L 313 1100 
L 313 1709 
L 2253 4666 
z
" transform="scale(0.015625)"/>
       </defs>
       <use xlink:href="#DejaVuSans-2212"/>
       <use xlink:href="#DejaVuSans-34" x="83.789062"/>
      </g>
     </g>
    </g>
    <g id="xtick_2">
     <g id="line2d_2">
      <g>
       <use xlink:href="#m8b1b05fb63" x="281.256108" y="284.4" style="stroke: #000000; stroke-width: 0.8"/>
      </g>
     </g>
     <g id="text_2">
      <!-- −2 -->
      <g transform="translate(273.885014 298.998437) scale(0.1 -0.1)">
       <defs>
        <path id="DejaVuSans-32" d="M 1228 531 
L 3431 531 
L 3431 0 
L 469 0 
L 469 531 
Q 828 903 1448 1529 
Q 2069 2156 2228 2338 
Q 2531 2678 2651 2914 
Q 2772 3150 2772 3378 
Q 2772 3750 2511 3984 
Q 2250 4219 1831 4219 
Q 1534 4219 1204 4116 
Q 875 4013 500 3803 
L 500 4441 
Q 881 4594 1212 4672 
Q 1544 4750 1819 4750 
Q 2544 4750 2975 4387 
Q 3406 4025 3406 3419 
Q 3406 3131 3298 2873 
Q 3191 2616 2906 2266 
Q 2828 2175 2409 1742 
Q 1991 1309 1228 531 
z
" transform="scale(0.015625)"/>
       </defs>
       <use xlink:href="#DejaVuSans-2212"/>
       <use xlink:href="#DejaVuSans-32" x="83.789062"/>
      </g>
     </g>
    </g>
    <g id="xtick_3">
     <g id="line2d_3">
      <g>
       <use xlink:href="#m8b1b05fb63" x="403.001563" y="284.4" style="stroke: #000000; stroke-width: 0.8"/>
      </g>
     </g>
     <g id="text_3">
      <!-- 0 -->
      <g transform="translate(399.820313 298.998437) scale(0.1 -0.1)">
       <defs>
        <path id="DejaVuSans-30" d="M 2034 4250 
Q 1547 4250 1301 3770 
Q 1056 3291 1056 2328 
Q 1056 1369 1301 889 
Q 1547 409 2034 409 
Q 2525 409 2770 889 
Q 3016 1369 3016 2328 
Q 3016 3291 2770 3770 
Q 2525 4250 2034 4250 
z
M 2034 4750 
Q 2819 4750 3233 4129 
Q 3647 3509 3647 2328 
Q 3647 1150 3233 529 
Q 2819 -91 2034 -91 
Q 1250 -91 836 529 
Q 422 1150 422 2328 
Q 422 3509 836 4129 
Q 1250 4750 2034 4750 
z
" transform="scale(0.015625)"/>
       </defs>
       <use xlink:href="#DejaVuSans-30"/>
      </g>
     </g>
    </g>
    <g id="xtick_4">
     <g id="line2d_4">
      <g>
       <use xlink:href="#m8b1b05fb63" x="524.747017" y="284.4" style="stroke: #000000; stroke-width: 0.8"/>
      </g>
     </g>
     <g id="text_4">
      <!-- 2 -->
      <g transform="translate(521.565767 298.998437) scale(0.1 -0.1)">
       <use xlink:href="#DejaVuSans-32"/>
      </g>
     </g>
    </g>
    <g id="xtick_5">
     <g id="line2d_5">
      <g>
       <use xlink:href="#m8b1b05fb63" x="646.492472" y="284.4" style="stroke: #000000; stroke-width: 0.8"/>
      </g>
     </g>
     <g id="text_5">
      <!-- 4 -->
      <g transform="translate(643.311222 298.998437) scale(0.1 -0.1)">
       <use xlink:href="#DejaVuSans-34"/>
      </g>
     </g>
    </g>
    <g id="text_6">
     <!-- x -->
     <g transform="translate(397.082813 320.275) scale(0.2 -0.2)">
      <defs>
       <path id="DejaVuSans-78" d="M 3513 3500 
L 2247 1797 
L 3578 0 
L 2900 0 
L 1881 1375 
L 863 0 
L 184 0 
L 1544 1831 
L 300 3500 
L 978 3500 
L 1906 2253 
L 2834 3500 
L 3513 3500 
z
" transform="scale(0.015625)"/>
      </defs>
      <use xlink:href="#DejaVuSans-78"/>
     </g>
    </g>
   </g>
   <g id="matplotlib.axis_2">
    <g id="ytick_1">
     <g id="line2d_6">
      <defs>
       <path id="me714976739" d="M 0 0 
L -3.5 0 
" style="stroke: #000000; stroke-width: 0.8"/>
      </defs>
      <g>
       <use xlink:href="#me714976739" x="68.201563" y="269.353165" style="stroke: #000000; stroke-width: 0.8"/>
      </g>
     </g>
     <g id="text_7">
      <!-- −10.0 -->
      <g transform="translate(30.55625 273.152384) scale(0.1 -0.1)">
       <defs>
        <path id="DejaVuSans-31" d="M 794 531 
L 1825 531 
L 1825 4091 
L 703 3866 
L 703 4441 
L 1819 4666 
L 2450 4666 
L 2450 531 
L 3481 531 
L 3481 0 
L 794 0 
L 794 531 
z
" transform="scale(0.015625)"/>
        <path id="DejaVuSans-2e" d="M 684 794 
L 1344 794 
L 1344 0 
L 684 0 
L 684 794 
z
" transform="scale(0.015625)"/>
       </defs>
       <use xlink:href="#DejaVuSans-2212"/>
       <use xlink:href="#DejaVuSans-31" x="83.789062"/>
       <use xlink:href="#DejaVuSans-30" x="147.412109"/>
       <use xlink:href="#DejaVuSans-2e" x="211.035156"/>
       <use xlink:href="#DejaVuSans-30" x="242.822266"/>
      </g>
     </g>
    </g>
    <g id="ytick_2">
     <g id="line2d_7">
      <g>
       <use xlink:href="#me714976739" x="68.201563" y="238.464874" style="stroke: #000000; stroke-width: 0.8"/>
      </g>
     </g>
     <g id="text_8">
      <!-- −7.5 -->
      <g transform="translate(36.91875 242.264093) scale(0.1 -0.1)">
       <defs>
        <path id="DejaVuSans-37" d="M 525 4666 
L 3525 4666 
L 3525 4397 
L 1831 0 
L 1172 0 
L 2766 4134 
L 525 4134 
L 525 4666 
z
" transform="scale(0.015625)"/>
        <path id="DejaVuSans-35" d="M 691 4666 
L 3169 4666 
L 3169 4134 
L 1269 4134 
L 1269 2991 
Q 1406 3038 1543 3061 
Q 1681 3084 1819 3084 
Q 2600 3084 3056 2656 
Q 3513 2228 3513 1497 
Q 3513 744 3044 326 
Q 2575 -91 1722 -91 
Q 1428 -91 1123 -41 
Q 819 9 494 109 
L 494 744 
Q 775 591 1075 516 
Q 1375 441 1709 441 
Q 2250 441 2565 725 
Q 2881 1009 2881 1497 
Q 2881 1984 2565 2268 
Q 2250 2553 1709 2553 
Q 1456 2553 1204 2497 
Q 953 2441 691 2322 
L 691 4666 
z
" transform="scale(0.015625)"/>
       </defs>
       <use xlink:href="#DejaVuSans-2212"/>
       <use xlink:href="#DejaVuSans-37" x="83.789062"/>
       <use xlink:href="#DejaVuSans-2e" x="147.412109"/>
       <use xlink:href="#DejaVuSans-35" x="179.199219"/>
      </g>
     </g>
    </g>
    <g id="ytick_3">
     <g id="line2d_8">
      <g>
       <use xlink:href="#me714976739" x="68.201563" y="207.576583" style="stroke: #000000; stroke-width: 0.8"/>
      </g>
     </g>
     <g id="text_9">
      <!-- −5.0 -->
      <g transform="translate(36.91875 211.375801) scale(0.1 -0.1)">
       <use xlink:href="#DejaVuSans-2212"/>
       <use xlink:href="#DejaVuSans-35" x="83.789062"/>
       <use xlink:href="#DejaVuSans-2e" x="147.412109"/>
       <use xlink:href="#DejaVuSans-30" x="179.199219"/>
      </g>
     </g>
    </g>
    <g id="ytick_4">
     <g id="line2d_9">
      <g>
       <use xlink:href="#me714976739" x="68.201563" y="176.688291" style="stroke: #000000; stroke-width: 0.8"/>
      </g>
     </g>
     <g id="text_10">
      <!-- −2.5 -->
      <g transform="translate(36.91875 180.48751) scale(0.1 -0.1)">
       <use xlink:href="#DejaVuSans-2212"/>
       <use xlink:href="#DejaVuSans-32" x="83.789062"/>
       <use xlink:href="#DejaVuSans-2e" x="147.412109"/>
       <use xlink:href="#DejaVuSans-35" x="179.199219"/>
      </g>
     </g>
    </g>
    <g id="ytick_5">
     <g id="line2d_10">
      <g>
       <use xlink:href="#me714976739" x="68.201563" y="145.8" style="stroke: #000000; stroke-width: 0.8"/>
      </g>
     </g>
     <g id="text_11">
      <!-- 0.0 -->
      <g transform="translate(45.298438 149.599219) scale(0.1 -0.1)">
       <use xlink:href="#DejaVuSans-30"/>
       <use xlink:href="#DejaVuSans-2e" x="63.623047"/>
       <use xlink:href="#DejaVuSans-30" x="95.410156"/>
      </g>
     </g>
    </g>
    <g id="ytick_6">
     <g id="line2d_11">
      <g>
       <use xlink:href="#me714976739" x="68.201563" y="114.911709" style="stroke: #000000; stroke-width: 0.8"/>
      </g>
     </g>
     <g id="text_12">
      <!-- 2.5 -->
      <g transform="translate(45.298438 118.710927) scale(0.1 -0.1)">
       <use xlink:href="#DejaVuSans-32"/>
       <use xlink:href="#DejaVuSans-2e" x="63.623047"/>
       <use xlink:href="#DejaVuSans-35" x="95.410156"/>
      </g>
     </g>
    </g>
    <g id="ytick_7">
     <g id="line2d_12">
      <g>
       <use xlink:href="#me714976739" x="68.201563" y="84.023417" style="stroke: #000000; stroke-width: 0.8"/>
      </g>
     </g>
     <g id="text_13">
      <!-- 5.0 -->
      <g transform="translate(45.298438 87.822636) scale(0.1 -0.1)">
       <use xlink:href="#DejaVuSans-35"/>
       <use xlink:href="#DejaVuSans-2e" x="63.623047"/>
       <use xlink:href="#DejaVuSans-30" x="95.410156"/>
      </g>
     </g>
    </g>
    <g id="ytick_8">
     <g id="line2d_13">
      <g>
       <use xlink:href="#me714976739" x="68.201563" y="53.135126" style="stroke: #000000; stroke-width: 0.8"/>
      </g>
     </g>
     <g id="text_14">
      <!-- 7.5 -->
      <g transform="translate(45.298438 56.934345) scale(0.1 -0.1)">
       <use xlink:href="#DejaVuSans-37"/>
       <use xlink:href="#DejaVuSans-2e" x="63.623047"/>
       <use xlink:href="#DejaVuSans-35" x="95.410156"/>
      </g>
     </g>
    </g>
    <g id="ytick_9">
     <g id="line2d_14">
      <g>
       <use xlink:href="#me714976739" x="68.201563" y="22.246835" style="stroke: #000000; stroke-width: 0.8"/>
      </g>
     </g>
     <g id="text_15">
      <!-- 10.0 -->
      <g transform="translate(38.935938 26.046054) scale(0.1 -0.1)">
       <use xlink:href="#DejaVuSans-31"/>
       <use xlink:href="#DejaVuSans-30" x="63.623047"/>
       <use xlink:href="#DejaVuSans-2e" x="127.246094"/>
       <use xlink:href="#DejaVuSans-30" x="159.033203"/>
      </g>
     </g>
    </g>
    <g id="text_16">
     <!-- f(x) -->
     <g transform="translate(22.396875 163.042187) rotate(-90) scale(0.2 -0.2)">
      <defs>
       <path id="DejaVuSans-66" d="M 2375 4863 
L 2375 4384 
L 1825 4384 
Q 1516 4384 1395 4259 
Q 1275 4134 1275 3809 
L 1275 3500 
L 2222 3500 
L 2222 3053 
L 1275 3053 
L 1275 0 
L 697 0 
L 697 3053 
L 147 3053 
L 147 3500 
L 697 3500 
L 697 3744 
Q 697 4328 969 4595 
Q 1241 4863 1831 4863 
L 2375 4863 
z
" transform="scale(0.015625)"/>
       <path id="DejaVuSans-28" d="M 1984 4856 
Q 1566 4138 1362 3434 
Q 1159 2731 1159 2009 
Q 1159 1288 1364 580 
Q 1569 -128 1984 -844 
L 1484 -844 
Q 1016 -109 783 600 
Q 550 1309 550 2009 
Q 550 2706 781 3412 
Q 1013 4119 1484 4856 
L 1984 4856 
z
" transform="scale(0.015625)"/>
       <path id="DejaVuSans-29" d="M 513 4856 
L 1013 4856 
Q 1481 4119 1714 3412 
Q 1947 2706 1947 2009 
Q 1947 1309 1714 600 
Q 1481 -109 1013 -844 
L 513 -844 
Q 928 -128 1133 580 
Q 1338 1288 1338 2009 
Q 1338 2731 1133 3434 
Q 928 4138 513 4856 
z
" transform="scale(0.015625)"/>
      </defs>
      <use xlink:href="#DejaVuSans-66"/>
      <use xlink:href="#DejaVuSans-28" x="35.205078"/>
      <use xlink:href="#DejaVuSans-78" x="74.21875"/>
      <use xlink:href="#DejaVuSans-29" x="133.398438"/>
     </g>
    </g>
   </g>
   <g id="line2d_15">
    <path d="M 98.637926 145.8 
L 111.060932 145.8 
L 123.483937 145.8 
L 135.906943 145.8 
L 148.329948 145.8 
L 160.752954 145.8 
L 173.17596 145.8 
L 185.598965 145.8 
L 198.021971 145.8 
L 210.444976 145.8 
L 222.867982 145.8 
L 235.290987 145.8 
L 247.713993 145.8 
L 260.136998 145.8 
L 272.560004 145.8 
L 284.98301 145.8 
L 297.406015 145.8 
L 309.829021 145.8 
L 322.252026 145.8 
L 334.675032 145.8 
L 347.098037 145.8 
L 359.521043 145.8 
L 371.944049 145.8 
L 384.367054 145.8 
L 396.79006 145.8 
L 409.213065 145.8 
L 421.636071 145.8 
L 434.059076 145.8 
L 446.482082 145.8 
L 458.905088 145.8 
L 471.328093 145.8 
L 483.751099 145.8 
L 496.174104 145.8 
L 508.59711 145.8 
L 521.020115 145.8 
L 533.443121 145.8 
L 545.866127 145.8 
L 558.289132 145.8 
L 570.712138 145.8 
L 583.135143 145.8 
L 595.558149 145.8 
L 607.981154 145.8 
L 620.40416 145.8 
L 632.827165 145.8 
L 645.250171 145.8 
L 657.673177 145.8 
L 670.096182 145.8 
L 682.519188 145.8 
L 694.942193 145.8 
L 707.365199 145.8 
" clip-path="url(#pcbc3ac0a60)" style="fill: none; stroke: #000000; stroke-width: 4; stroke-linecap: square"/>
   </g>
   <g id="line2d_16">
    <path d="M 98.637926 170.203449 
L 111.060932 168.340279 
L 123.483937 166.47711 
L 135.906943 164.613941 
L 148.329948 162.750772 
L 160.752954 160.887603 
L 173.17596 159.024434 
L 185.598965 157.161265 
L 198.021971 155.298096 
L 210.444976 153.434927 
L 222.867982 151.571758 
L 235.290987 149.708589 
L 247.713993 147.84542 
L 260.136998 145.98225 
L 272.560004 144.119081 
L 284.98301 142.255912 
L 297.406015 140.392743 
L 309.829021 138.529574 
L 322.252026 136.666405 
L 334.675032 134.803236 
L 347.098037 132.940067 
L 359.521043 131.076898 
L 371.944049 129.213729 
L 384.367054 127.35056 
L 396.79006 125.48739 
L 409.213065 123.624221 
L 421.636071 121.761052 
L 434.059076 119.897883 
L 446.482082 118.034714 
L 458.905088 116.171545 
L 471.328093 114.308376 
L 483.751099 112.445207 
L 496.174104 110.582038 
L 508.59711 108.718869 
L 521.020115 106.8557 
L 533.443121 104.99253 
L 545.866127 103.129361 
L 558.289132 101.266192 
L 570.712138 99.403023 
L 583.135143 97.539854 
L 595.558149 95.676685 
L 607.981154 93.813516 
L 620.40416 91.950347 
L 632.827165 90.087178 
L 645.250171 88.224009 
L 657.673177 86.36084 
L 670.096182 84.497671 
L 682.519188 82.634501 
L 694.942193 80.771332 
L 707.365199 78.908163 
" clip-path="url(#pcbc3ac0a60)" style="fill: none; stroke: #1f77b4; stroke-width: 1.5; stroke-linecap: square"/>
   </g>
   <g id="line2d_17">
    <path d="M 98.637926 167.557195 
L 111.060932 166.388319 
L 123.483937 165.219443 
L 135.906943 164.050566 
L 148.329948 162.88169 
L 160.752954 161.712814 
L 173.17596 160.543937 
L 185.598965 159.375061 
L 198.021971 158.206184 
L 210.444976 157.037308 
L 222.867982 155.868432 
L 235.290987 154.699555 
L 247.713993 153.530679 
L 260.136998 152.361803 
L 272.560004 151.192926 
L 284.98301 150.02405 
L 297.406015 148.855173 
L 309.829021 147.686297 
L 322.252026 146.517421 
L 334.675032 145.348544 
L 347.098037 144.179668 
L 359.521043 143.010791 
L 371.944049 141.841915 
L 384.367054 140.673039 
L 396.79006 139.504162 
L 409.213065 138.335286 
L 421.636071 137.16641 
L 434.059076 135.997533 
L 446.482082 134.828657 
L 458.905088 133.65978 
L 471.328093 132.490904 
L 483.751099 131.322028 
L 496.174104 130.153151 
L 508.59711 128.984275 
L 521.020115 127.815399 
L 533.443121 126.646522 
L 545.866127 125.477646 
L 558.289132 124.308769 
L 570.712138 123.139893 
L 583.135143 121.971017 
L 595.558149 120.80214 
L 607.981154 119.633264 
L 620.40416 118.464387 
L 632.827165 117.295511 
L 645.250171 116.126635 
L 657.673177 114.957758 
L 670.096182 113.788882 
L 682.519188 112.620006 
L 694.942193 111.451129 
L 707.365199 110.282253 
" clip-path="url(#pcbc3ac0a60)" style="fill: none; stroke: #ff7f0e; stroke-width: 1.5; stroke-linecap: square"/>
   </g>
   <g id="line2d_18">
    <path d="M 98.637926 139.166283 
L 111.060932 139.318507 
L 123.483937 139.470731 
L 135.906943 139.622956 
L 148.329948 139.77518 
L 160.752954 139.927404 
L 173.17596 140.079628 
L 185.598965 140.231853 
L 198.021971 140.384077 
L 210.444976 140.536301 
L 222.867982 140.688525 
L 235.290987 140.840749 
L 247.713993 140.992974 
L 260.136998 141.145198 
L 272.560004 141.297422 
L 284.98301 141.449646 
L 297.406015 141.601871 
L 309.829021 141.754095 
L 322.252026 141.906319 
L 334.675032 142.058543 
L 347.098037 142.210768 
L 359.521043 142.362992 
L 371.944049 142.515216 
L 384.367054 142.66744 
L 396.79006 142.819664 
L 409.213065 142.971889 
L 421.636071 143.124113 
L 434.059076 143.276337 
L 446.482082 143.428561 
L 458.905088 143.580786 
L 471.328093 143.73301 
L 483.751099 143.885234 
L 496.174104 144.037458 
L 508.59711 144.189682 
L 521.020115 144.341907 
L 533.443121 144.494131 
L 545.866127 144.646355 
L 558.289132 144.798579 
L 570.712138 144.950804 
L 583.135143 145.103028 
L 595.558149 145.255252 
L 607.981154 145.407476 
L 620.40416 145.559701 
L 632.827165 145.711925 
L 645.250171 145.864149 
L 657.673177 146.016373 
L 670.096182 146.168597 
L 682.519188 146.320822 
L 694.942193 146.473046 
L 707.365199 146.62527 
" clip-path="url(#pcbc3ac0a60)" style="fill: none; stroke: #2ca02c; stroke-width: 1.5; stroke-linecap: square"/>
   </g>
   <g id="line2d_19">
    <path d="M 98.637926 78.588527 
L 111.060932 80.574947 
L 123.483937 82.561367 
L 135.906943 84.547786 
L 148.329948 86.534206 
L 160.752954 88.520626 
L 173.17596 90.507045 
L 185.598965 92.493465 
L 198.021971 94.479885 
L 210.444976 96.466304 
L 222.867982 98.452724 
L 235.290987 100.439144 
L 247.713993 102.425564 
L 260.136998 104.411983 
L 272.560004 106.398403 
L 284.98301 108.384823 
L 297.406015 110.371242 
L 309.829021 112.357662 
L 322.252026 114.344082 
L 334.675032 116.330501 
L 347.098037 118.316921 
L 359.521043 120.303341 
L 371.944049 122.289761 
L 384.367054 124.27618 
L 396.79006 126.2626 
L 409.213065 128.24902 
L 421.636071 130.235439 
L 434.059076 132.221859 
L 446.482082 134.208279 
L 458.905088 136.194698 
L 471.328093 138.181118 
L 483.751099 140.167538 
L 496.174104 142.153958 
L 508.59711 144.140377 
L 521.020115 146.126797 
L 533.443121 148.113217 
L 545.866127 150.099636 
L 558.289132 152.086056 
L 570.712138 154.072476 
L 583.135143 156.058895 
L 595.558149 158.045315 
L 607.981154 160.031735 
L 620.40416 162.018155 
L 632.827165 164.004574 
L 645.250171 165.990994 
L 657.673177 167.977414 
L 670.096182 169.963833 
L 682.519188 171.950253 
L 694.942193 173.936673 
L 707.365199 175.923092 
" clip-path="url(#pcbc3ac0a60)" style="fill: none; stroke: #d62728; stroke-width: 1.5; stroke-linecap: square"/>
   </g>
   <g id="line2d_20">
    <path d="M 98.637926 55.175509 
L 111.060932 57.806746 
L 123.483937 60.437984 
L 135.906943 63.069221 
L 148.329948 65.700458 
L 160.752954 68.331696 
L 173.17596 70.962933 
L 185.598965 73.59417 
L 198.021971 76.225407 
L 210.444976 78.856645 
L 222.867982 81.487882 
L 235.290987 84.119119 
L 247.713993 86.750357 
L 260.136998 89.381594 
L 272.560004 92.012831 
L 284.98301 94.644069 
L 297.406015 97.275306 
L 309.829021 99.906543 
L 322.252026 102.537781 
L 334.675032 105.169018 
L 347.098037 107.800255 
L 359.521043 110.431493 
L 371.944049 113.06273 
L 384.367054 115.693967 
L 396.79006 118.325205 
L 409.213065 120.956442 
L 421.636071 123.587679 
L 434.059076 126.218917 
L 446.482082 128.850154 
L 458.905088 131.481391 
L 471.328093 134.112629 
L 483.751099 136.743866 
L 496.174104 139.375103 
L 508.59711 142.006341 
L 521.020115 144.637578 
L 533.443121 147.268815 
L 545.866127 149.900053 
L 558.289132 152.53129 
L 570.712138 155.162527 
L 583.135143 157.793765 
L 595.558149 160.425002 
L 607.981154 163.056239 
L 620.40416 165.687477 
L 632.827165 168.318714 
L 645.250171 170.949951 
L 657.673177 173.581189 
L 670.096182 176.212426 
L 682.519188 178.843663 
L 694.942193 181.474901 
L 707.365199 184.106138 
" clip-path="url(#pcbc3ac0a60)" style="fill: none; stroke: #9467bd; stroke-width: 1.5; stroke-linecap: square"/>
   </g>
   <g id="line2d_21">
    <path d="M 98.637926 85.605949 
L 111.060932 88.189005 
L 123.483937 90.772061 
L 135.906943 93.355117 
L 148.329948 95.938174 
L 160.752954 98.52123 
L 173.17596 101.104286 
L 185.598965 103.687342 
L 198.021971 106.270398 
L 210.444976 108.853455 
L 222.867982 111.436511 
L 235.290987 114.019567 
L 247.713993 116.602623 
L 260.136998 119.185679 
L 272.560004 121.768736 
L 284.98301 124.351792 
L 297.406015 126.934848 
L 309.829021 129.517904 
L 322.252026 132.100961 
L 334.675032 134.684017 
L 347.098037 137.267073 
L 359.521043 139.850129 
L 371.944049 142.433185 
L 384.367054 145.016242 
L 396.79006 147.599298 
L 409.213065 150.182354 
L 421.636071 152.76541 
L 434.059076 155.348466 
L 446.482082 157.931523 
L 458.905088 160.514579 
L 471.328093 163.097635 
L 483.751099 165.680691 
L 496.174104 168.263748 
L 508.59711 170.846804 
L 521.020115 173.42986 
L 533.443121 176.012916 
L 545.866127 178.595972 
L 558.289132 181.179029 
L 570.712138 183.762085 
L 583.135143 186.345141 
L 595.558149 188.928197 
L 607.981154 191.511253 
L 620.40416 194.09431 
L 632.827165 196.677366 
L 645.250171 199.260422 
L 657.673177 201.843478 
L 670.096182 204.426535 
L 682.519188 207.009591 
L 694.942193 209.592647 
L 707.365199 212.175703 
" clip-path="url(#pcbc3ac0a60)" style="fill: none; stroke: #8c564b; stroke-width: 1.5; stroke-linecap: square"/>
   </g>
   <g id="line2d_22">
    <path d="M 98.637926 118.398332 
L 111.060932 118.694331 
L 123.483937 118.99033 
L 135.906943 119.286329 
L 148.329948 119.582328 
L 160.752954 119.878327 
L 173.17596 120.174327 
L 185.598965 120.470326 
L 198.021971 120.766325 
L 210.444976 121.062324 
L 222.867982 121.358323 
L 235.290987 121.654322 
L 247.713993 121.950322 
L 260.136998 122.246321 
L 272.560004 122.54232 
L 284.98301 122.838319 
L 297.406015 123.134318 
L 309.829021 123.430317 
L 322.252026 123.726316 
L 334.675032 124.022316 
L 347.098037 124.318315 
L 359.521043 124.614314 
L 371.944049 124.910313 
L 384.367054 125.206312 
L 396.79006 125.502311 
L 409.213065 125.79831 
L 421.636071 126.09431 
L 434.059076 126.390309 
L 446.482082 126.686308 
L 458.905088 126.982307 
L 471.328093 127.278306 
L 483.751099 127.574305 
L 496.174104 127.870304 
L 508.59711 128.166304 
L 521.020115 128.462303 
L 533.443121 128.758302 
L 545.866127 129.054301 
L 558.289132 129.3503 
L 570.712138 129.646299 
L 583.135143 129.942298 
L 595.558149 130.238298 
L 607.981154 130.534297 
L 620.40416 130.830296 
L 632.827165 131.126295 
L 645.250171 131.422294 
L 657.673177 131.718293 
L 670.096182 132.014292 
L 682.519188 132.310292 
L 694.942193 132.606291 
L 707.365199 132.90229 
" clip-path="url(#pcbc3ac0a60)" style="fill: none; stroke: #e377c2; stroke-width: 1.5; stroke-linecap: square"/>
   </g>
   <g id="line2d_23">
    <path d="M 98.637926 85.506298 
L 111.060932 86.730485 
L 123.483937 87.954671 
L 135.906943 89.178858 
L 148.329948 90.403045 
L 160.752954 91.627232 
L 173.17596 92.851419 
L 185.598965 94.075605 
L 198.021971 95.299792 
L 210.444976 96.523979 
L 222.867982 97.748166 
L 235.290987 98.972353 
L 247.713993 100.196539 
L 260.136998 101.420726 
L 272.560004 102.644913 
L 284.98301 103.8691 
L 297.406015 105.093286 
L 309.829021 106.317473 
L 322.252026 107.54166 
L 334.675032 108.765847 
L 347.098037 109.990034 
L 359.521043 111.21422 
L 371.944049 112.438407 
L 384.367054 113.662594 
L 396.79006 114.886781 
L 409.213065 116.110967 
L 421.636071 117.335154 
L 434.059076 118.559341 
L 446.482082 119.783528 
L 458.905088 121.007715 
L 471.328093 122.231901 
L 483.751099 123.456088 
L 496.174104 124.680275 
L 508.59711 125.904462 
L 521.020115 127.128648 
L 533.443121 128.352835 
L 545.866127 129.577022 
L 558.289132 130.801209 
L 570.712138 132.025396 
L 583.135143 133.249582 
L 595.558149 134.473769 
L 607.981154 135.697956 
L 620.40416 136.922143 
L 632.827165 138.14633 
L 645.250171 139.370516 
L 657.673177 140.594703 
L 670.096182 141.81889 
L 682.519188 143.043077 
L 694.942193 144.267263 
L 707.365199 145.49145 
" clip-path="url(#pcbc3ac0a60)" style="fill: none; stroke: #7f7f7f; stroke-width: 1.5; stroke-linecap: square"/>
   </g>
   <g id="line2d_24">
    <path d="M 98.637926 214.406446 
L 111.060932 210.923187 
L 123.483937 207.439927 
L 135.906943 203.956668 
L 148.329948 200.473408 
L 160.752954 196.990148 
L 173.17596 193.506889 
L 185.598965 190.023629 
L 198.021971 186.54037 
L 210.444976 183.05711 
L 222.867982 179.573851 
L 235.290987 176.090591 
L 247.713993 172.607331 
L 260.136998 169.124072 
L 272.560004 165.640812 
L 284.98301 162.157553 
L 297.406015 158.674293 
L 309.829021 155.191034 
L 322.252026 151.707774 
L 334.675032 148.224514 
L 347.098037 144.741255 
L 359.521043 141.257995 
L 371.944049 137.774736 
L 384.367054 134.291476 
L 396.79006 130.808216 
L 409.213065 127.324957 
L 421.636071 123.841697 
L 434.059076 120.358438 
L 446.482082 116.875178 
L 458.905088 113.391919 
L 471.328093 109.908659 
L 483.751099 106.425399 
L 496.174104 102.94214 
L 508.59711 99.45888 
L 521.020115 95.975621 
L 533.443121 92.492361 
L 545.866127 89.009101 
L 558.289132 85.525842 
L 570.712138 82.042582 
L 583.135143 78.559323 
L 595.558149 75.076063 
L 607.981154 71.592804 
L 620.40416 68.109544 
L 632.827165 64.626284 
L 645.250171 61.143025 
L 657.673177 57.659765 
L 670.096182 54.176506 
L 682.519188 50.693246 
L 694.942193 47.209987 
L 707.365199 43.726727 
" clip-path="url(#pcbc3ac0a60)" style="fill: none; stroke: #bcbd22; stroke-width: 1.5; stroke-linecap: square"/>
   </g>
   <g id="line2d_25">
    <path d="M 98.637926 266.04655 
L 111.060932 261.578222 
L 123.483937 257.109893 
L 135.906943 252.641564 
L 148.329948 248.173236 
L 160.752954 243.704907 
L 173.17596 239.236579 
L 185.598965 234.76825 
L 198.021971 230.299921 
L 210.444976 225.831593 
L 222.867982 221.363264 
L 235.290987 216.894935 
L 247.713993 212.426607 
L 260.136998 207.958278 
L 272.560004 203.48995 
L 284.98301 199.021621 
L 297.406015 194.553292 
L 309.829021 190.084964 
L 322.252026 185.616635 
L 334.675032 181.148307 
L 347.098037 176.679978 
L 359.521043 172.211649 
L 371.944049 167.743321 
L 384.367054 163.274992 
L 396.79006 158.806664 
L 409.213065 154.338335 
L 421.636071 149.870006 
L 434.059076 145.401678 
L 446.482082 140.933349 
L 458.905088 136.465021 
L 471.328093 131.996692 
L 483.751099 127.528363 
L 496.174104 123.060035 
L 508.59711 118.591706 
L 521.020115 114.123377 
L 533.443121 109.655049 
L 545.866127 105.18672 
L 558.289132 100.718392 
L 570.712138 96.250063 
L 583.135143 91.781734 
L 595.558149 87.313406 
L 607.981154 82.845077 
L 620.40416 78.376749 
L 632.827165 73.90842 
L 645.250171 69.440091 
L 657.673177 64.971763 
L 670.096182 60.503434 
L 682.519188 56.035106 
L 694.942193 51.566777 
L 707.365199 47.098448 
" clip-path="url(#pcbc3ac0a60)" style="fill: none; stroke: #17becf; stroke-width: 1.5; stroke-linecap: square"/>
   </g>
   <g id="patch_3">
    <path d="M 68.201563 284.4 
L 68.201563 7.2 
" style="fill: none; stroke: #000000; stroke-width: 0.8; stroke-linejoin: miter; stroke-linecap: square"/>
   </g>
   <g id="patch_4">
    <path d="M 737.801563 284.4 
L 737.801563 7.2 
" style="fill: none; stroke: #000000; stroke-width: 0.8; stroke-linejoin: miter; stroke-linecap: square"/>
   </g>
   <g id="patch_5">
    <path d="M 68.201563 284.4 
L 737.801563 284.4 
" style="fill: none; stroke: #000000; stroke-width: 0.8; stroke-linejoin: miter; stroke-linecap: square"/>
   </g>
   <g id="patch_6">
    <path d="M 68.201563 7.2 
L 737.801563 7.2 
" style="fill: none; stroke: #000000; stroke-width: 0.8; stroke-linejoin: miter; stroke-linecap: square"/>
   </g>
  </g>
 </g>
 <defs>
  <clipPath id="pcbc3ac0a60">
   <rect x="68.201563" y="7.2" width="669.6" height="277.2"/>
  </clipPath>
 </defs>
</svg>
