<?xml version="1.0" encoding="utf-8" standalone="no"?>
<!DOCTYPE svg PUBLIC "-//W3C//DTD SVG 1.1//EN"
  "http://www.w3.org/Graphics/SVG/1.1/DTD/svg11.dtd">
<svg xmlns:xlink="http://www.w3.org/1999/xlink" width="735.460937pt" height="331.634375pt" viewBox="0 0 735.460937 331.634375" xmlns="http://www.w3.org/2000/svg" version="1.1">
 <metadata>
  <rdf:RDF xmlns:dc="http://purl.org/dc/elements/1.1/" xmlns:cc="http://creativecommons.org/ns#" xmlns:rdf="http://www.w3.org/1999/02/22-rdf-syntax-ns#">
   <cc:Work>
    <dc:type rdf:resource="http://purl.org/dc/dcmitype/StillImage"/>
    <dc:date>2025-06-14T14:42:07.714193</dc:date>
    <dc:format>image/svg+xml</dc:format>
    <dc:creator>
     <cc:Agent>
      <dc:title>Matplotlib v3.6.1, https://matplotlib.org/</dc:title>
     </cc:Agent>
    </dc:creator>
   </cc:Work>
  </rdf:RDF>
 </metadata>
 <defs>
  <style type="text/css">*{stroke-linejoin: round; stroke-linecap: butt}</style>
 </defs>
 <g id="figure_1">
  <g id="patch_1">
   <path d="M 0 331.634375 
L 735.460937 331.634375 
L 735.460937 0 
L 0 0 
z
" style="fill: #ffffff"/>
  </g>
  <g id="axes_1">
   <g id="patch_2">
    <path d="M 58.660938 284.4 
L 728.260938 284.4 
L 728.260938 7.2 
L 58.660938 7.2 
z
" style="fill: #ffffff"/>
   </g>
   <g id="PolyCollection_1">
    <path d="M 89.097301 32.467237 
L 89.097301 228.542737 
L 101.520307 224.698245 
L 113.943312 220.860575 
L 126.366318 217.030634 
L 138.789323 213.209496 
L 151.212329 209.39844 
L 163.635335 205.599002 
L 176.05834 201.813038 
L 188.481346 198.042815 
L 200.904351 194.291123 
L 213.327357 190.561436 
L 225.750362 186.858123 
L 238.173368 183.186746 
L 250.596373 179.554476 
L 263.019379 175.970689 
L 275.442385 172.447813 
L 287.86539 169.002574 
L 300.288396 165.657806 
L 312.711401 162.445089 
L 325.134407 159.40849 
L 337.557412 156.609542 
L 349.980418 154.132852 
L 362.403424 152.089639 
L 374.826429 150.612481 
L 387.249435 149.83161 
L 399.67244 149.83161 
L 412.095446 150.612481 
L 424.518451 152.089639 
L 436.941457 154.132852 
L 449.364463 156.609542 
L 461.787468 159.40849 
L 474.210474 162.445089 
L 486.633479 165.657806 
L 499.056485 169.002574 
L 511.47949 172.447813 
L 523.902496 175.970689 
L 536.325502 179.554476 
L 548.748507 183.186746 
L 561.171513 186.858123 
L 573.594518 190.561436 
L 586.017524 194.291123 
L 598.440529 198.042815 
L 610.863535 201.813038 
L 623.28654 205.599002 
L 635.709546 209.39844 
L 648.132552 213.209496 
L 660.555557 217.030634 
L 672.978563 220.860575 
L 685.401568 224.698245 
L 697.824574 228.542737 
L 697.824574 32.467237 
L 697.824574 32.467237 
L 685.401568 36.311729 
L 672.978563 40.1494 
L 660.555557 43.979341 
L 648.132552 47.800478 
L 635.709546 51.611534 
L 623.28654 55.410972 
L 610.863535 59.196936 
L 598.440529 62.967159 
L 586.017524 66.718851 
L 573.594518 70.448538 
L 561.171513 74.151851 
L 548.748507 77.823229 
L 536.325502 81.455498 
L 523.902496 85.039285 
L 511.47949 88.562161 
L 499.056485 92.0074 
L 486.633479 95.352168 
L 474.210474 98.564885 
L 461.787468 101.601484 
L 449.364463 104.400433 
L 436.941457 106.877122 
L 424.518451 108.920336 
L 412.095446 110.397493 
L 399.67244 111.178364 
L 387.249435 111.178364 
L 374.826429 110.397493 
L 362.403424 108.920336 
L 349.980418 106.877122 
L 337.557412 104.400433 
L 325.134407 101.601484 
L 312.711401 98.564885 
L 300.288396 95.352168 
L 287.86539 92.0074 
L 275.442385 88.562161 
L 263.019379 85.039285 
L 250.596373 81.455498 
L 238.173368 77.823229 
L 225.750362 74.151851 
L 213.327357 70.448538 
L 200.904351 66.718851 
L 188.481346 62.967159 
L 176.05834 59.196936 
L 163.635335 55.410972 
L 151.212329 51.611534 
L 138.789323 47.800478 
L 126.366318 43.979341 
L 113.943312 40.1494 
L 101.520307 36.311729 
L 89.097301 32.467237 
z
" clip-path="url(#pb2f8caa918)" style="fill: #1f77b4; fill-opacity: 0.25"/>
   </g>
   <g id="matplotlib.axis_1">
    <g id="xtick_1">
     <g id="line2d_1">
      <defs>
       <path id="m1316b650ab" d="M 0 0 
L 0 3.5 
" style="stroke: #000000; stroke-width: 0.8"/>
      </defs>
      <g>
       <use xlink:href="#m1316b650ab" x="149.970028" y="284.4" style="stroke: #000000; stroke-width: 0.8"/>
      </g>
     </g>
     <g id="text_1">
      <!-- −4 -->
      <g transform="translate(142.598935 298.998437) scale(0.1 -0.1)">
       <defs>
        <path id="DejaVuSans-2212" d="M 678 2272 
L 4684 2272 
L 4684 1741 
L 678 1741 
L 678 2272 
z
" transform="scale(0.015625)"/>
        <path id="DejaVuSans-34" d="M 2419 4116 
L 825 1625 
L 2419 1625 
L 2419 4116 
z
M 2253 4666 
L 3047 4666 
L 3047 1625 
L 3713 1625 
L 3713 1100 
L 3047 1100 
L 3047 0 
L 2419 0 
L 2419 1100 
L 313 1100 
L 313 1709 
L 2253 4666 
z
" transform="scale(0.015625)"/>
       </defs>
       <use xlink:href="#DejaVuSans-2212"/>
       <use xlink:href="#DejaVuSans-34" x="83.789062"/>
      </g>
     </g>
    </g>
    <g id="xtick_2">
     <g id="line2d_2">
      <g>
       <use xlink:href="#m1316b650ab" x="271.715483" y="284.4" style="stroke: #000000; stroke-width: 0.8"/>
      </g>
     </g>
     <g id="text_2">
      <!-- −2 -->
      <g transform="translate(264.344389 298.998437) scale(0.1 -0.1)">
       <defs>
        <path id="DejaVuSans-32" d="M 1228 531 
L 3431 531 
L 3431 0 
L 469 0 
L 469 531 
Q 828 903 1448 1529 
Q 2069 2156 2228 2338 
Q 2531 2678 2651 2914 
Q 2772 3150 2772 3378 
Q 2772 3750 2511 3984 
Q 2250 4219 1831 4219 
Q 1534 4219 1204 4116 
Q 875 4013 500 3803 
L 500 4441 
Q 881 4594 1212 4672 
Q 1544 4750 1819 4750 
Q 2544 4750 2975 4387 
Q 3406 4025 3406 3419 
Q 3406 3131 3298 2873 
Q 3191 2616 2906 2266 
Q 2828 2175 2409 1742 
Q 1991 1309 1228 531 
z
" transform="scale(0.015625)"/>
       </defs>
       <use xlink:href="#DejaVuSans-2212"/>
       <use xlink:href="#DejaVuSans-32" x="83.789062"/>
      </g>
     </g>
    </g>
    <g id="xtick_3">
     <g id="line2d_3">
      <g>
       <use xlink:href="#m1316b650ab" x="393.460938" y="284.4" style="stroke: #000000; stroke-width: 0.8"/>
      </g>
     </g>
     <g id="text_3">
      <!-- 0 -->
      <g transform="translate(390.279688 298.998437) scale(0.1 -0.1)">
       <defs>
        <path id="DejaVuSans-30" d="M 2034 4250 
Q 1547 4250 1301 3770 
Q 1056 3291 1056 2328 
Q 1056 1369 1301 889 
Q 1547 409 2034 409 
Q 2525 409 2770 889 
Q 3016 1369 3016 2328 
Q 3016 3291 2770 3770 
Q 2525 4250 2034 4250 
z
M 2034 4750 
Q 2819 4750 3233 4129 
Q 3647 3509 3647 2328 
Q 3647 1150 3233 529 
Q 2819 -91 2034 -91 
Q 1250 -91 836 529 
Q 422 1150 422 2328 
Q 422 3509 836 4129 
Q 1250 4750 2034 4750 
z
" transform="scale(0.015625)"/>
       </defs>
       <use xlink:href="#DejaVuSans-30"/>
      </g>
     </g>
    </g>
    <g id="xtick_4">
     <g id="line2d_4">
      <g>
       <use xlink:href="#m1316b650ab" x="515.206392" y="284.4" style="stroke: #000000; stroke-width: 0.8"/>
      </g>
     </g>
     <g id="text_4">
      <!-- 2 -->
      <g transform="translate(512.025142 298.998437) scale(0.1 -0.1)">
       <use xlink:href="#DejaVuSans-32"/>
      </g>
     </g>
    </g>
    <g id="xtick_5">
     <g id="line2d_5">
      <g>
       <use xlink:href="#m1316b650ab" x="636.951847" y="284.4" style="stroke: #000000; stroke-width: 0.8"/>
      </g>
     </g>
     <g id="text_5">
      <!-- 4 -->
      <g transform="translate(633.770597 298.998437) scale(0.1 -0.1)">
       <use xlink:href="#DejaVuSans-34"/>
      </g>
     </g>
    </g>
    <g id="text_6">
     <!-- x -->
     <g transform="translate(387.542188 320.275) scale(0.2 -0.2)">
      <defs>
       <path id="DejaVuSans-78" d="M 3513 3500 
L 2247 1797 
L 3578 0 
L 2900 0 
L 1881 1375 
L 863 0 
L 184 0 
L 1544 1831 
L 300 3500 
L 978 3500 
L 1906 2253 
L 2834 3500 
L 3513 3500 
z
" transform="scale(0.015625)"/>
      </defs>
      <use xlink:href="#DejaVuSans-78"/>
     </g>
    </g>
   </g>
   <g id="matplotlib.axis_2">
    <g id="ytick_1">
     <g id="line2d_6">
      <defs>
       <path id="m28b101cbf0" d="M 0 0 
L -3.5 0 
" style="stroke: #000000; stroke-width: 0.8"/>
      </defs>
      <g>
       <use xlink:href="#m28b101cbf0" x="58.660938" y="274.705871" style="stroke: #000000; stroke-width: 0.8"/>
      </g>
     </g>
     <g id="text_7">
      <!-- −15 -->
      <g transform="translate(30.55625 278.50509) scale(0.1 -0.1)">
       <defs>
        <path id="DejaVuSans-31" d="M 794 531 
L 1825 531 
L 1825 4091 
L 703 3866 
L 703 4441 
L 1819 4666 
L 2450 4666 
L 2450 531 
L 3481 531 
L 3481 0 
L 794 0 
L 794 531 
z
" transform="scale(0.015625)"/>
        <path id="DejaVuSans-35" d="M 691 4666 
L 3169 4666 
L 3169 4134 
L 1269 4134 
L 1269 2991 
Q 1406 3038 1543 3061 
Q 1681 3084 1819 3084 
Q 2600 3084 3056 2656 
Q 3513 2228 3513 1497 
Q 3513 744 3044 326 
Q 2575 -91 1722 -91 
Q 1428 -91 1123 -41 
Q 819 9 494 109 
L 494 744 
Q 775 591 1075 516 
Q 1375 441 1709 441 
Q 2250 441 2565 725 
Q 2881 1009 2881 1497 
Q 2881 1984 2565 2268 
Q 2250 2553 1709 2553 
Q 1456 2553 1204 2497 
Q 953 2441 691 2322 
L 691 4666 
z
" transform="scale(0.015625)"/>
       </defs>
       <use xlink:href="#DejaVuSans-2212"/>
       <use xlink:href="#DejaVuSans-31" x="83.789062"/>
       <use xlink:href="#DejaVuSans-35" x="147.412109"/>
      </g>
     </g>
    </g>
    <g id="ytick_2">
     <g id="line2d_7">
      <g>
       <use xlink:href="#m28b101cbf0" x="58.660938" y="226.63891" style="stroke: #000000; stroke-width: 0.8"/>
      </g>
     </g>
     <g id="text_8">
      <!-- −10 -->
      <g transform="translate(30.55625 230.438129) scale(0.1 -0.1)">
       <use xlink:href="#DejaVuSans-2212"/>
       <use xlink:href="#DejaVuSans-31" x="83.789062"/>
       <use xlink:href="#DejaVuSans-30" x="147.412109"/>
      </g>
     </g>
    </g>
    <g id="ytick_3">
     <g id="line2d_8">
      <g>
       <use xlink:href="#m28b101cbf0" x="58.660938" y="178.571949" style="stroke: #000000; stroke-width: 0.8"/>
      </g>
     </g>
     <g id="text_9">
      <!-- −5 -->
      <g transform="translate(36.91875 182.371167) scale(0.1 -0.1)">
       <use xlink:href="#DejaVuSans-2212"/>
       <use xlink:href="#DejaVuSans-35" x="83.789062"/>
      </g>
     </g>
    </g>
    <g id="ytick_4">
     <g id="line2d_9">
      <g>
       <use xlink:href="#m28b101cbf0" x="58.660938" y="130.504987" style="stroke: #000000; stroke-width: 0.8"/>
      </g>
     </g>
     <g id="text_10">
      <!-- 0 -->
      <g transform="translate(45.298438 134.304206) scale(0.1 -0.1)">
       <use xlink:href="#DejaVuSans-30"/>
      </g>
     </g>
    </g>
    <g id="ytick_5">
     <g id="line2d_10">
      <g>
       <use xlink:href="#m28b101cbf0" x="58.660938" y="82.438026" style="stroke: #000000; stroke-width: 0.8"/>
      </g>
     </g>
     <g id="text_11">
      <!-- 5 -->
      <g transform="translate(45.298438 86.237244) scale(0.1 -0.1)">
       <use xlink:href="#DejaVuSans-35"/>
      </g>
     </g>
    </g>
    <g id="ytick_6">
     <g id="line2d_11">
      <g>
       <use xlink:href="#m28b101cbf0" x="58.660938" y="34.371064" style="stroke: #000000; stroke-width: 0.8"/>
      </g>
     </g>
     <g id="text_12">
      <!-- 10 -->
      <g transform="translate(38.935938 38.170283) scale(0.1 -0.1)">
       <use xlink:href="#DejaVuSans-31"/>
       <use xlink:href="#DejaVuSans-30" x="63.623047"/>
      </g>
     </g>
    </g>
    <g id="text_13">
     <!-- f(x) -->
     <g transform="translate(22.396875 163.042187) rotate(-90) scale(0.2 -0.2)">
      <defs>
       <path id="DejaVuSans-66" d="M 2375 4863 
L 2375 4384 
L 1825 4384 
Q 1516 4384 1395 4259 
Q 1275 4134 1275 3809 
L 1275 3500 
L 2222 3500 
L 2222 3053 
L 1275 3053 
L 1275 0 
L 697 0 
L 697 3053 
L 147 3053 
L 147 3500 
L 697 3500 
L 697 3744 
Q 697 4328 969 4595 
Q 1241 4863 1831 4863 
L 2375 4863 
z
" transform="scale(0.015625)"/>
       <path id="DejaVuSans-28" d="M 1984 4856 
Q 1566 4138 1362 3434 
Q 1159 2731 1159 2009 
Q 1159 1288 1364 580 
Q 1569 -128 1984 -844 
L 1484 -844 
Q 1016 -109 783 600 
Q 550 1309 550 2009 
Q 550 2706 781 3412 
Q 1013 4119 1484 4856 
L 1984 4856 
z
" transform="scale(0.015625)"/>
       <path id="DejaVuSans-29" d="M 513 4856 
L 1013 4856 
Q 1481 4119 1714 3412 
Q 1947 2706 1947 2009 
Q 1947 1309 1714 600 
Q 1481 -109 1013 -844 
L 513 -844 
Q 928 -128 1133 580 
Q 1338 1288 1338 2009 
Q 1338 2731 1133 3434 
Q 928 4138 513 4856 
z
" transform="scale(0.015625)"/>
      </defs>
      <use xlink:href="#DejaVuSans-66"/>
      <use xlink:href="#DejaVuSans-28" x="35.205078"/>
      <use xlink:href="#DejaVuSans-78" x="74.21875"/>
      <use xlink:href="#DejaVuSans-29" x="133.398438"/>
     </g>
    </g>
   </g>
   <g id="line2d_12">
    <path d="M 89.097301 130.504987 
L 101.520307 130.504987 
L 113.943312 130.504987 
L 126.366318 130.504987 
L 138.789323 130.504987 
L 151.212329 130.504987 
L 163.635335 130.504987 
L 176.05834 130.504987 
L 188.481346 130.504987 
L 200.904351 130.504987 
L 213.327357 130.504987 
L 225.750362 130.504987 
L 238.173368 130.504987 
L 250.596373 130.504987 
L 263.019379 130.504987 
L 275.442385 130.504987 
L 287.86539 130.504987 
L 300.288396 130.504987 
L 312.711401 130.504987 
L 325.134407 130.504987 
L 337.557412 130.504987 
L 349.980418 130.504987 
L 362.403424 130.504987 
L 374.826429 130.504987 
L 387.249435 130.504987 
L 399.67244 130.504987 
L 412.095446 130.504987 
L 424.518451 130.504987 
L 436.941457 130.504987 
L 449.364463 130.504987 
L 461.787468 130.504987 
L 474.210474 130.504987 
L 486.633479 130.504987 
L 499.056485 130.504987 
L 511.47949 130.504987 
L 523.902496 130.504987 
L 536.325502 130.504987 
L 548.748507 130.504987 
L 561.171513 130.504987 
L 573.594518 130.504987 
L 586.017524 130.504987 
L 598.440529 130.504987 
L 610.863535 130.504987 
L 623.28654 130.504987 
L 635.709546 130.504987 
L 648.132552 130.504987 
L 660.555557 130.504987 
L 672.978563 130.504987 
L 685.401568 130.504987 
L 697.824574 130.504987 
" clip-path="url(#pb2f8caa918)" style="fill: none; stroke: #000000; stroke-width: 4; stroke-linecap: square"/>
   </g>
   <g id="line2d_13">
    <path d="M 89.097301 190.640963 
L 101.520307 188.36274 
L 113.943312 186.084518 
L 126.366318 183.806296 
L 138.789323 181.528074 
L 151.212329 179.249852 
L 163.635335 176.97163 
L 176.05834 174.693407 
L 188.481346 172.415185 
L 200.904351 170.136963 
L 213.327357 167.858741 
L 225.750362 165.580519 
L 238.173368 163.302297 
L 250.596373 161.024075 
L 263.019379 158.745852 
L 275.442385 156.46763 
L 287.86539 154.189408 
L 300.288396 151.911186 
L 312.711401 149.632964 
L 325.134407 147.354742 
L 337.557412 145.07652 
L 349.980418 142.798297 
L 362.403424 140.520075 
L 374.826429 138.241853 
L 387.249435 135.963631 
L 399.67244 133.685409 
L 412.095446 131.407187 
L 424.518451 129.128965 
L 436.941457 126.850742 
L 449.364463 124.57252 
L 461.787468 122.294298 
L 474.210474 120.016076 
L 486.633479 117.737854 
L 499.056485 115.459632 
L 511.47949 113.181409 
L 523.902496 110.903187 
L 536.325502 108.624965 
L 548.748507 106.346743 
L 561.171513 104.068521 
L 573.594518 101.790299 
L 586.017524 99.512077 
L 598.440529 97.233854 
L 610.863535 94.955632 
L 623.28654 92.67741 
L 635.709546 90.399188 
L 648.132552 88.120966 
L 660.555557 85.842744 
L 672.978563 83.564522 
L 685.401568 81.286299 
L 697.824574 79.008077 
" clip-path="url(#pb2f8caa918)" style="fill: none; stroke: #1f77b4; stroke-width: 1.5; stroke-linecap: square"/>
   </g>
   <g id="line2d_14">
    <path d="M 89.097301 125.581292 
L 101.520307 126.326018 
L 113.943312 127.070743 
L 126.366318 127.815469 
L 138.789323 128.560195 
L 151.212329 129.304921 
L 163.635335 130.049647 
L 176.05834 130.794372 
L 188.481346 131.539098 
L 200.904351 132.283824 
L 213.327357 133.02855 
L 225.750362 133.773276 
L 238.173368 134.518002 
L 250.596373 135.262727 
L 263.019379 136.007453 
L 275.442385 136.752179 
L 287.86539 137.496905 
L 300.288396 138.241631 
L 312.711401 138.986356 
L 325.134407 139.731082 
L 337.557412 140.475808 
L 349.980418 141.220534 
L 362.403424 141.96526 
L 374.826429 142.709986 
L 387.249435 143.454711 
L 399.67244 144.199437 
L 412.095446 144.944163 
L 424.518451 145.688889 
L 436.941457 146.433615 
L 449.364463 147.17834 
L 461.787468 147.923066 
L 474.210474 148.667792 
L 486.633479 149.412518 
L 499.056485 150.157244 
L 511.47949 150.90197 
L 523.902496 151.646695 
L 536.325502 152.391421 
L 548.748507 153.136147 
L 561.171513 153.880873 
L 573.594518 154.625599 
L 586.017524 155.370325 
L 598.440529 156.11505 
L 610.863535 156.859776 
L 623.28654 157.604502 
L 635.709546 158.349228 
L 648.132552 159.093954 
L 660.555557 159.838679 
L 672.978563 160.583405 
L 685.401568 161.328131 
L 697.824574 162.072857 
" clip-path="url(#pb2f8caa918)" style="fill: none; stroke: #ff7f0e; stroke-width: 1.5; stroke-linecap: square"/>
   </g>
   <g id="line2d_15">
    <path d="M 89.097301 19.8 
L 101.520307 24.942857 
L 113.943312 30.085714 
L 126.366318 35.228571 
L 138.789323 40.371429 
L 151.212329 45.514286 
L 163.635335 50.657143 
L 176.05834 55.8 
L 188.481346 60.942857 
L 200.904351 66.085714 
L 213.327357 71.228571 
L 225.750362 76.371429 
L 238.173368 81.514286 
L 250.596373 86.657143 
L 263.019379 91.8 
L 275.442385 96.942857 
L 287.86539 102.085714 
L 300.288396 107.228571 
L 312.711401 112.371429 
L 325.134407 117.514286 
L 337.557412 122.657143 
L 349.980418 127.8 
L 362.403424 132.942857 
L 374.826429 138.085714 
L 387.249435 143.228571 
L 399.67244 148.371429 
L 412.095446 153.514286 
L 424.518451 158.657143 
L 436.941457 163.8 
L 449.364463 168.942857 
L 461.787468 174.085714 
L 474.210474 179.228571 
L 486.633479 184.371429 
L 499.056485 189.514286 
L 511.47949 194.657143 
L 523.902496 199.8 
L 536.325502 204.942857 
L 548.748507 210.085714 
L 561.171513 215.228571 
L 573.594518 220.371429 
L 586.017524 225.514286 
L 598.440529 230.657143 
L 610.863535 235.8 
L 623.28654 240.942857 
L 635.709546 246.085714 
L 648.132552 251.228571 
L 660.555557 256.371429 
L 672.978563 261.514286 
L 685.401568 266.657143 
L 697.824574 271.8 
" clip-path="url(#pb2f8caa918)" style="fill: none; stroke: #2ca02c; stroke-width: 1.5; stroke-linecap: square"/>
   </g>
   <g id="line2d_16">
    <path d="M 89.097301 92.487425 
L 101.520307 93.283661 
L 113.943312 94.079898 
L 126.366318 94.876134 
L 138.789323 95.672371 
L 151.212329 96.468607 
L 163.635335 97.264844 
L 176.05834 98.06108 
L 188.481346 98.857317 
L 200.904351 99.653553 
L 213.327357 100.449789 
L 225.750362 101.246026 
L 238.173368 102.042262 
L 250.596373 102.838499 
L 263.019379 103.634735 
L 275.442385 104.430972 
L 287.86539 105.227208 
L 300.288396 106.023445 
L 312.711401 106.819681 
L 325.134407 107.615917 
L 337.557412 108.412154 
L 349.980418 109.20839 
L 362.403424 110.004627 
L 374.826429 110.800863 
L 387.249435 111.5971 
L 399.67244 112.393336 
L 412.095446 113.189573 
L 424.518451 113.985809 
L 436.941457 114.782045 
L 449.364463 115.578282 
L 461.787468 116.374518 
L 474.210474 117.170755 
L 486.633479 117.966991 
L 499.056485 118.763228 
L 511.47949 119.559464 
L 523.902496 120.355701 
L 536.325502 121.151937 
L 548.748507 121.948174 
L 561.171513 122.74441 
L 573.594518 123.540646 
L 586.017524 124.336883 
L 598.440529 125.133119 
L 610.863535 125.929356 
L 623.28654 126.725592 
L 635.709546 127.521829 
L 648.132552 128.318065 
L 660.555557 129.114302 
L 672.978563 129.910538 
L 685.401568 130.706774 
L 697.824574 131.503011 
" clip-path="url(#pb2f8caa918)" style="fill: none; stroke: #d62728; stroke-width: 1.5; stroke-linecap: square"/>
   </g>
   <g id="line2d_17">
    <path d="M 89.097301 191.314332 
L 101.520307 189.43611 
L 113.943312 187.557888 
L 126.366318 185.679667 
L 138.789323 183.801445 
L 151.212329 181.923223 
L 163.635335 180.045001 
L 176.05834 178.166779 
L 188.481346 176.288557 
L 200.904351 174.410336 
L 213.327357 172.532114 
L 225.750362 170.653892 
L 238.173368 168.77567 
L 250.596373 166.897448 
L 263.019379 165.019227 
L 275.442385 163.141005 
L 287.86539 161.262783 
L 300.288396 159.384561 
L 312.711401 157.506339 
L 325.134407 155.628117 
L 337.557412 153.749896 
L 349.980418 151.871674 
L 362.403424 149.993452 
L 374.826429 148.11523 
L 387.249435 146.237008 
L 399.67244 144.358787 
L 412.095446 142.480565 
L 424.518451 140.602343 
L 436.941457 138.724121 
L 449.364463 136.845899 
L 461.787468 134.967677 
L 474.210474 133.089456 
L 486.633479 131.211234 
L 499.056485 129.333012 
L 511.47949 127.45479 
L 523.902496 125.576568 
L 536.325502 123.698347 
L 548.748507 121.820125 
L 561.171513 119.941903 
L 573.594518 118.063681 
L 586.017524 116.185459 
L 598.440529 114.307237 
L 610.863535 112.429016 
L 623.28654 110.550794 
L 635.709546 108.672572 
L 648.132552 106.79435 
L 660.555557 104.916128 
L 672.978563 103.037907 
L 685.401568 101.159685 
L 697.824574 99.281463 
" clip-path="url(#pb2f8caa918)" style="fill: none; stroke: #9467bd; stroke-width: 1.5; stroke-linecap: square"/>
   </g>
   <g id="line2d_18">
    <path d="M 89.097301 201.882436 
L 101.520307 198.476454 
L 113.943312 195.070472 
L 126.366318 191.66449 
L 138.789323 188.258508 
L 151.212329 184.852526 
L 163.635335 181.446544 
L 176.05834 178.040563 
L 188.481346 174.634581 
L 200.904351 171.228599 
L 213.327357 167.822617 
L 225.750362 164.416635 
L 238.173368 161.010653 
L 250.596373 157.604671 
L 263.019379 154.198689 
L 275.442385 150.792708 
L 287.86539 147.386726 
L 300.288396 143.980744 
L 312.711401 140.574762 
L 325.134407 137.16878 
L 337.557412 133.762798 
L 349.980418 130.356816 
L 362.403424 126.950834 
L 374.826429 123.544852 
L 387.249435 120.138871 
L 399.67244 116.732889 
L 412.095446 113.326907 
L 424.518451 109.920925 
L 436.941457 106.514943 
L 449.364463 103.108961 
L 461.787468 99.702979 
L 474.210474 96.296997 
L 486.633479 92.891015 
L 499.056485 89.485034 
L 511.47949 86.079052 
L 523.902496 82.67307 
L 536.325502 79.267088 
L 548.748507 75.861106 
L 561.171513 72.455124 
L 573.594518 69.049142 
L 586.017524 65.64316 
L 598.440529 62.237179 
L 610.863535 58.831197 
L 623.28654 55.425215 
L 635.709546 52.019233 
L 648.132552 48.613251 
L 660.555557 45.207269 
L 672.978563 41.801287 
L 685.401568 38.395305 
L 697.824574 34.989323 
" clip-path="url(#pb2f8caa918)" style="fill: none; stroke: #8c564b; stroke-width: 1.5; stroke-linecap: square"/>
   </g>
   <g id="line2d_19">
    <path d="M 89.097301 136.14718 
L 101.520307 135.701628 
L 113.943312 135.256077 
L 126.366318 134.810525 
L 138.789323 134.364974 
L 151.212329 133.919422 
L 163.635335 133.473871 
L 176.05834 133.028319 
L 188.481346 132.582768 
L 200.904351 132.137216 
L 213.327357 131.691665 
L 225.750362 131.246113 
L 238.173368 130.800562 
L 250.596373 130.35501 
L 263.019379 129.909459 
L 275.442385 129.463908 
L 287.86539 129.018356 
L 300.288396 128.572805 
L 312.711401 128.127253 
L 325.134407 127.681702 
L 337.557412 127.23615 
L 349.980418 126.790599 
L 362.403424 126.345047 
L 374.826429 125.899496 
L 387.249435 125.453944 
L 399.67244 125.008393 
L 412.095446 124.562841 
L 424.518451 124.11729 
L 436.941457 123.671738 
L 449.364463 123.226187 
L 461.787468 122.780635 
L 474.210474 122.335084 
L 486.633479 121.889532 
L 499.056485 121.443981 
L 511.47949 120.99843 
L 523.902496 120.552878 
L 536.325502 120.107327 
L 548.748507 119.661775 
L 561.171513 119.216224 
L 573.594518 118.770672 
L 586.017524 118.325121 
L 598.440529 117.879569 
L 610.863535 117.434018 
L 623.28654 116.988466 
L 635.709546 116.542915 
L 648.132552 116.097363 
L 660.555557 115.651812 
L 672.978563 115.20626 
L 685.401568 114.760709 
L 697.824574 114.315157 
" clip-path="url(#pb2f8caa918)" style="fill: none; stroke: #e377c2; stroke-width: 1.5; stroke-linecap: square"/>
   </g>
   <g id="line2d_20">
    <path d="M 89.097301 160.952303 
L 101.520307 159.290163 
L 113.943312 157.628023 
L 126.366318 155.965883 
L 138.789323 154.303743 
L 151.212329 152.641603 
L 163.635335 150.979462 
L 176.05834 149.317322 
L 188.481346 147.655182 
L 200.904351 145.993042 
L 213.327357 144.330902 
L 225.750362 142.668762 
L 238.173368 141.006622 
L 250.596373 139.344482 
L 263.019379 137.682341 
L 275.442385 136.020201 
L 287.86539 134.358061 
L 300.288396 132.695921 
L 312.711401 131.033781 
L 325.134407 129.371641 
L 337.557412 127.709501 
L 349.980418 126.047361 
L 362.403424 124.38522 
L 374.826429 122.72308 
L 387.249435 121.06094 
L 399.67244 119.3988 
L 412.095446 117.73666 
L 424.518451 116.07452 
L 436.941457 114.41238 
L 449.364463 112.75024 
L 461.787468 111.088099 
L 474.210474 109.425959 
L 486.633479 107.763819 
L 499.056485 106.101679 
L 511.47949 104.439539 
L 523.902496 102.777399 
L 536.325502 101.115259 
L 548.748507 99.453119 
L 561.171513 97.790978 
L 573.594518 96.128838 
L 586.017524 94.466698 
L 598.440529 92.804558 
L 610.863535 91.142418 
L 623.28654 89.480278 
L 635.709546 87.818138 
L 648.132552 86.155998 
L 660.555557 84.493857 
L 672.978563 82.831717 
L 685.401568 81.169577 
L 697.824574 79.507437 
" clip-path="url(#pb2f8caa918)" style="fill: none; stroke: #7f7f7f; stroke-width: 1.5; stroke-linecap: square"/>
   </g>
   <g id="line2d_21">
    <path d="M 89.097301 98.830709 
L 101.520307 100.40747 
L 113.943312 101.984231 
L 126.366318 103.560992 
L 138.789323 105.137752 
L 151.212329 106.714513 
L 163.635335 108.291274 
L 176.05834 109.868035 
L 188.481346 111.444796 
L 200.904351 113.021556 
L 213.327357 114.598317 
L 225.750362 116.175078 
L 238.173368 117.751839 
L 250.596373 119.3286 
L 263.019379 120.905361 
L 275.442385 122.482121 
L 287.86539 124.058882 
L 300.288396 125.635643 
L 312.711401 127.212404 
L 325.134407 128.789165 
L 337.557412 130.365926 
L 349.980418 131.942686 
L 362.403424 133.519447 
L 374.826429 135.096208 
L 387.249435 136.672969 
L 399.67244 138.24973 
L 412.095446 139.82649 
L 424.518451 141.403251 
L 436.941457 142.980012 
L 449.364463 144.556773 
L 461.787468 146.133534 
L 474.210474 147.710295 
L 486.633479 149.287055 
L 499.056485 150.863816 
L 511.47949 152.440577 
L 523.902496 154.017338 
L 536.325502 155.594099 
L 548.748507 157.170859 
L 561.171513 158.74762 
L 573.594518 160.324381 
L 586.017524 161.901142 
L 598.440529 163.477903 
L 610.863535 165.054664 
L 623.28654 166.631424 
L 635.709546 168.208185 
L 648.132552 169.784946 
L 660.555557 171.361707 
L 672.978563 172.938468 
L 685.401568 174.515229 
L 697.824574 176.091989 
" clip-path="url(#pb2f8caa918)" style="fill: none; stroke: #bcbd22; stroke-width: 1.5; stroke-linecap: square"/>
   </g>
   <g id="line2d_22">
    <path d="M 89.097301 188.023319 
L 101.520307 186.046336 
L 113.943312 184.069352 
L 126.366318 182.092369 
L 138.789323 180.115385 
L 151.212329 178.138402 
L 163.635335 176.161418 
L 176.05834 174.184435 
L 188.481346 172.207452 
L 200.904351 170.230468 
L 213.327357 168.253485 
L 225.750362 166.276501 
L 238.173368 164.299518 
L 250.596373 162.322534 
L 263.019379 160.345551 
L 275.442385 158.368568 
L 287.86539 156.391584 
L 300.288396 154.414601 
L 312.711401 152.437617 
L 325.134407 150.460634 
L 337.557412 148.48365 
L 349.980418 146.506667 
L 362.403424 144.529684 
L 374.826429 142.5527 
L 387.249435 140.575717 
L 399.67244 138.598733 
L 412.095446 136.62175 
L 424.518451 134.644766 
L 436.941457 132.667783 
L 449.364463 130.6908 
L 461.787468 128.713816 
L 474.210474 126.736833 
L 486.633479 124.759849 
L 499.056485 122.782866 
L 511.47949 120.805882 
L 523.902496 118.828899 
L 536.325502 116.851915 
L 548.748507 114.874932 
L 561.171513 112.897949 
L 573.594518 110.920965 
L 586.017524 108.943982 
L 598.440529 106.966998 
L 610.863535 104.990015 
L 623.28654 103.013031 
L 635.709546 101.036048 
L 648.132552 99.059065 
L 660.555557 97.082081 
L 672.978563 95.105098 
L 685.401568 93.128114 
L 697.824574 91.151131 
" clip-path="url(#pb2f8caa918)" style="fill: none; stroke: #17becf; stroke-width: 1.5; stroke-linecap: square"/>
   </g>
   <g id="patch_3">
    <path d="M 58.660938 284.4 
L 58.660938 7.2 
" style="fill: none; stroke: #000000; stroke-width: 0.8; stroke-linejoin: miter; stroke-linecap: square"/>
   </g>
   <g id="patch_4">
    <path d="M 728.260938 284.4 
L 728.260938 7.2 
" style="fill: none; stroke: #000000; stroke-width: 0.8; stroke-linejoin: miter; stroke-linecap: square"/>
   </g>
   <g id="patch_5">
    <path d="M 58.660937 284.4 
L 728.260937 284.4 
" style="fill: none; stroke: #000000; stroke-width: 0.8; stroke-linejoin: miter; stroke-linecap: square"/>
   </g>
   <g id="patch_6">
    <path d="M 58.660937 7.2 
L 728.260937 7.2 
" style="fill: none; stroke: #000000; stroke-width: 0.8; stroke-linejoin: miter; stroke-linecap: square"/>
   </g>
  </g>
 </g>
 <defs>
  <clipPath id="pb2f8caa918">
   <rect x="58.660938" y="7.2" width="669.6" height="277.2"/>
  </clipPath>
 </defs>
</svg>
