<?xml version="1.0" encoding="utf-8" standalone="no"?>
<!DOCTYPE svg PUBLIC "-//W3C//DTD SVG 1.1//EN"
  "http://www.w3.org/Graphics/SVG/1.1/DTD/svg11.dtd">
<svg xmlns:xlink="http://www.w3.org/1999/xlink" width="705.742188pt" height="308.278125pt" viewBox="0 0 705.742188 308.278125" xmlns="http://www.w3.org/2000/svg" version="1.1">
<svg xmlns:xlink="http://www.w3.org/1999/xlink" width="705.742188pt" height="308.278125pt" viewBox="0 0 705.742188 308.278125" xmlns="http://www.w3.org/2000/svg" version="1.1">
 <metadata>
  <rdf:RDF xmlns:dc="http://purl.org/dc/elements/1.1/" xmlns:cc="http://creativecommons.org/ns#" xmlns:rdf="http://www.w3.org/1999/02/22-rdf-syntax-ns#">
   <cc:Work>
    <dc:type rdf:resource="http://purl.org/dc/dcmitype/StillImage"/>
    <dc:date>2025-06-26T18:03:03.119231</dc:date>
    <dc:format>image/svg+xml</dc:format>
    <dc:creator>
     <cc:Agent>
      <dc:title>Matplotlib v3.7.2, https://matplotlib.org/</dc:title>
     </cc:Agent>
    </dc:creator>
   </cc:Work>
  </rdf:RDF>
 </metadata>
 <defs>
  <style type="text/css">*{stroke-linejoin: round; stroke-linecap: butt}</style>
 </defs>
 <g id="figure_1">
  <g id="patch_1">
   <path d="M 0 308.278125 
L 705.742188 308.278125 
L 705.742188 0 
L 705.742188 308.278125 
L 705.742188 0 
L 0 0 
z
" style="fill: #ffffff"/>
  </g>
  <g id="axes_1">
   <g id="patch_2">
    <path d="M 28.942188 284.4 
L 698.542188 284.4 
L 698.542188 7.2 
L 28.942188 7.2 
    <path d="M 28.942188 284.4 
L 698.542188 284.4 
L 698.542188 7.2 
L 28.942188 7.2 
z
" style="fill: #ffffff"/>
   </g>
   <g id="matplotlib.axis_1">
    <g id="xtick_1">
     <g id="line2d_1">
      <defs>
       <path id="m735027278d" d="M 0 0 
L 0 3.5 
" style="stroke: #000000; stroke-width: 0.8"/>
      </defs>
      <g>
       <use xlink:href="#m735027278d" x="59.378551" y="284.4" style="stroke: #000000; stroke-width: 0.8"/>
      </g>
     </g>
     <g id="text_1">
      <!-- 0 -->
      <g transform="translate(56.197301 298.998438) scale(0.1 -0.1)">
      <g transform="translate(56.197301 298.998438) scale(0.1 -0.1)">
       <defs>
        <path id="DejaVuSans-30" d="M 2034 4250 
Q 1547 4250 1301 3770 
Q 1056 3291 1056 2328 
Q 1056 1369 1301 889 
Q 1547 409 2034 409 
Q 2525 409 2770 889 
Q 3016 1369 3016 2328 
Q 3016 3291 2770 3770 
Q 2525 4250 2034 4250 
z
M 2034 4750 
Q 2819 4750 3233 4129 
Q 3647 3509 3647 2328 
Q 3647 1150 3233 529 
Q 2819 -91 2034 -91 
Q 1250 -91 836 529 
Q 422 1150 422 2328 
Q 422 3509 836 4129 
Q 1250 4750 2034 4750 
z
" transform="scale(0.015625)"/>
       </defs>
       <use xlink:href="#DejaVuSans-30"/>
      </g>
     </g>
    </g>
    <g id="xtick_2">
     <g id="line2d_2">
      <g>
       <use xlink:href="#m735027278d" x="181.124006" y="284.4" style="stroke: #000000; stroke-width: 0.8"/>
      </g>
     </g>
     <g id="text_2">
      <!-- 1 -->
      <g transform="translate(177.942756 298.998438) scale(0.1 -0.1)">
      <g transform="translate(177.942756 298.998438) scale(0.1 -0.1)">
       <defs>
        <path id="DejaVuSans-31" d="M 794 531 
L 1825 531 
L 1825 4091 
L 703 3866 
L 703 4441 
L 1819 4666 
L 2450 4666 
L 2450 531 
L 3481 531 
L 3481 0 
L 794 0 
L 794 531 
z
" transform="scale(0.015625)"/>
       </defs>
       <use xlink:href="#DejaVuSans-31"/>
      </g>
     </g>
    </g>
    <g id="xtick_3">
     <g id="line2d_3">
      <g>
       <use xlink:href="#m735027278d" x="302.86946" y="284.4" style="stroke: #000000; stroke-width: 0.8"/>
      </g>
     </g>
     <g id="text_3">
      <!-- 2 -->
      <g transform="translate(299.68821 298.998438) scale(0.1 -0.1)">
      <g transform="translate(299.68821 298.998438) scale(0.1 -0.1)">
       <defs>
        <path id="DejaVuSans-32" d="M 1228 531 
L 3431 531 
L 3431 0 
L 469 0 
L 469 531 
Q 828 903 1448 1529 
Q 2069 2156 2228 2338 
Q 2531 2678 2651 2914 
Q 2772 3150 2772 3378 
Q 2772 3750 2511 3984 
Q 2250 4219 1831 4219 
Q 1534 4219 1204 4116 
Q 875 4013 500 3803 
L 500 4441 
Q 881 4594 1212 4672 
Q 1544 4750 1819 4750 
Q 2544 4750 2975 4387 
Q 3406 4025 3406 3419 
Q 3406 3131 3298 2873 
Q 3191 2616 2906 2266 
Q 2828 2175 2409 1742 
Q 1991 1309 1228 531 
z
" transform="scale(0.015625)"/>
       </defs>
       <use xlink:href="#DejaVuSans-32"/>
      </g>
     </g>
    </g>
    <g id="xtick_4">
     <g id="line2d_4">
      <g>
       <use xlink:href="#m735027278d" x="424.614915" y="284.4" style="stroke: #000000; stroke-width: 0.8"/>
      </g>
     </g>
     <g id="text_4">
      <!-- 3 -->
      <g transform="translate(421.433665 298.998438) scale(0.1 -0.1)">
      <g transform="translate(421.433665 298.998438) scale(0.1 -0.1)">
       <defs>
        <path id="DejaVuSans-33" d="M 2597 2516 
Q 3050 2419 3304 2112 
Q 3559 1806 3559 1356 
Q 3559 666 3084 287 
Q 2609 -91 1734 -91 
Q 1441 -91 1130 -33 
Q 819 25 488 141 
L 488 750 
Q 750 597 1062 519 
Q 1375 441 1716 441 
Q 2309 441 2620 675 
Q 2931 909 2931 1356 
Q 2931 1769 2642 2001 
Q 2353 2234 1838 2234 
L 1294 2234 
L 1294 2753 
L 1863 2753 
Q 2328 2753 2575 2939 
Q 2822 3125 2822 3475 
Q 2822 3834 2567 4026 
Q 2313 4219 1838 4219 
Q 1578 4219 1281 4162 
Q 984 4106 628 3988 
L 628 4550 
Q 988 4650 1302 4700 
Q 1616 4750 1894 4750 
Q 2613 4750 3031 4423 
Q 3450 4097 3450 3541 
Q 3450 3153 3228 2886 
Q 3006 2619 2597 2516 
z
" transform="scale(0.015625)"/>
       </defs>
       <use xlink:href="#DejaVuSans-33"/>
      </g>
     </g>
    </g>
    <g id="xtick_5">
     <g id="line2d_5">
      <g>
       <use xlink:href="#m735027278d" x="546.360369" y="284.4" style="stroke: #000000; stroke-width: 0.8"/>
      </g>
     </g>
     <g id="text_5">
      <!-- 4 -->
      <g transform="translate(543.179119 298.998438) scale(0.1 -0.1)">
      <g transform="translate(543.179119 298.998438) scale(0.1 -0.1)">
       <defs>
        <path id="DejaVuSans-34" d="M 2419 4116 
L 825 1625 
L 2419 1625 
L 2419 4116 
z
M 2253 4666 
L 3047 4666 
L 3047 1625 
L 3713 1625 
L 3713 1100 
L 3047 1100 
L 3047 0 
L 2419 0 
L 2419 1100 
L 313 1100 
L 313 1709 
L 2253 4666 
z
" transform="scale(0.015625)"/>
       </defs>
       <use xlink:href="#DejaVuSans-34"/>
      </g>
     </g>
    </g>
    <g id="xtick_6">
     <g id="line2d_6">
      <g>
       <use xlink:href="#m735027278d" x="668.105824" y="284.4" style="stroke: #000000; stroke-width: 0.8"/>
      </g>
     </g>
     <g id="text_6">
      <!-- 5 -->
      <g transform="translate(664.924574 298.998438) scale(0.1 -0.1)">
      <g transform="translate(664.924574 298.998438) scale(0.1 -0.1)">
       <defs>
        <path id="DejaVuSans-35" d="M 691 4666 
L 3169 4666 
L 3169 4134 
L 1269 4134 
L 1269 2991 
Q 1406 3038 1543 3061 
Q 1681 3084 1819 3084 
Q 2600 3084 3056 2656 
Q 3513 2228 3513 1497 
Q 3513 744 3044 326 
Q 2575 -91 1722 -91 
Q 1428 -91 1123 -41 
Q 819 9 494 109 
L 494 744 
Q 775 591 1075 516 
Q 1375 441 1709 441 
Q 2250 441 2565 725 
Q 2881 1009 2881 1497 
Q 2881 1984 2565 2268 
Q 2250 2553 1709 2553 
Q 1456 2553 1204 2497 
Q 953 2441 691 2322 
L 691 4666 
z
" transform="scale(0.015625)"/>
       </defs>
       <use xlink:href="#DejaVuSans-35"/>
      </g>
     </g>
    </g>
   </g>
   <g id="matplotlib.axis_2">
    <g id="ytick_1">
     <g id="line2d_7">
      <defs>
       <path id="mf82290d901" d="M 0 0 
L -3.5 0 
" style="stroke: #000000; stroke-width: 0.8"/>
      </defs>
      <g>
       <use xlink:href="#mf82290d901" x="28.942188" y="228.403202" style="stroke: #000000; stroke-width: 0.8"/>
      </g>
     </g>
     <g id="text_7">
      <!-- −2 -->
      <g transform="translate(7.2 232.202421) scale(0.1 -0.1)">
       <defs>
        <path id="DejaVuSans-2212" d="M 678 2272 
L 4684 2272 
L 4684 1741 
L 678 1741 
L 678 2272 
z
" transform="scale(0.015625)"/>
       </defs>
       <use xlink:href="#DejaVuSans-2212"/>
       <use xlink:href="#DejaVuSans-32" x="83.789062"/>
      </g>
     </g>
    </g>
    <g id="ytick_2">
     <g id="line2d_8">
      <g>
       <use xlink:href="#mf82290d901" x="28.942188" y="168.210881" style="stroke: #000000; stroke-width: 0.8"/>
      </g>
     </g>
     <g id="text_8">
      <!-- −1 -->
      <g transform="translate(7.2 172.0101) scale(0.1 -0.1)">
       <use xlink:href="#DejaVuSans-2212"/>
       <use xlink:href="#DejaVuSans-31" x="83.789062"/>
      </g>
     </g>
    </g>
    <g id="ytick_3">
     <g id="line2d_9">
      <g>
       <use xlink:href="#mf82290d901" x="28.942188" y="108.01856" style="stroke: #000000; stroke-width: 0.8"/>
      </g>
     </g>
     <g id="text_9">
      <!-- 0 -->
      <g transform="translate(15.579688 111.817779) scale(0.1 -0.1)">
       <use xlink:href="#DejaVuSans-30"/>
      </g>
     </g>
    </g>
    <g id="ytick_4">
     <g id="line2d_10">
      <g>
       <use xlink:href="#mf82290d901" x="28.942188" y="47.826239" style="stroke: #000000; stroke-width: 0.8"/>
      </g>
     </g>
     <g id="text_10">
      <!-- 1 -->
      <g transform="translate(15.579688 51.625458) scale(0.1 -0.1)">
       <use xlink:href="#DejaVuSans-31"/>
      </g>
     </g>
    </g>
   </g>
   <g id="line2d_11">
    <path d="M 59.378551 271.8 
L 71.801557 262.717391 
L 84.224562 251.814122 
L 96.647568 239.531295 
L 109.070573 226.349465 
L 121.493579 212.76572 
L 133.916585 199.266722 
L 146.33959 186.299928 
L 158.762596 174.24568 
L 171.185601 163.393393 
L 183.608607 153.924523 
L 196.031612 145.904581 
L 208.454618 139.28523 
L 220.877623 133.916778 
L 233.300629 129.56958 
L 245.723635 125.962516 
L 258.14664 122.795373 
L 270.569646 119.781711 
L 282.992651 116.678735 
L 295.415657 113.310917 
L 307.838662 109.584887 
L 320.261668 105.494241 
L 332.684674 101.114162 
L 345.107679 96.587097 
L 357.530685 92.101878 
L 369.95369 87.869512 
L 382.376696 84.099002 
L 394.799701 80.976329 
L 407.222707 78.648823 
L 419.645713 77.215982 
L 432.068718 76.7265 
L 444.491724 77.180373 
L 456.914729 78.534175 
L 469.337735 80.707565 
L 481.76074 83.58964 
L 494.183746 87.044073 
L 506.606752 90.913232 
L 519.029757 95.021657 
L 531.452763 99.180067 
L 543.875768 103.190544 
L 556.298774 106.853582 
L 568.721779 109.977037 
L 581.144785 112.386457 
L 593.56779 113.936022 
L 605.990796 114.519212 
L 618.413802 114.078267 
L 630.836807 112.611776 
L 643.259813 110.180003 
L 655.682818 106.907363 
L 668.105824 102.981805 
" clip-path="url(#pc8b8e7d9fc)" style="fill: none; stroke: #1f77b4; stroke-opacity: 0.5; stroke-width: 1.5; stroke-linecap: square"/>
   </g>
   <g id="line2d_12">
    <path d="M 59.378551 138.235683 
L 71.801557 135.897177 
L 84.224562 132.513436 
L 96.647568 128.123205 
L 109.070573 122.828124 
L 121.493579 116.787404 
L 133.916585 110.207199 
L 146.33959 103.325461 
L 158.762596 96.394085 
L 171.185601 89.660506 
L 183.608607 83.350915 
L 196.031612 77.656996 
L 208.454618 72.727658 
L 220.877623 68.665827 
L 233.300629 65.530059 
L 245.723635 63.33939 
L 258.14664 62.079637 
L 270.569646 61.709496 
L 282.992651 62.164998 
L 295.415657 63.361821 
L 307.838662 65.195993 
L 320.261668 67.544 
L 332.684674 70.263847 
L 345.107679 73.198658 
L 357.530685 76.183642 
L 369.95369 79.05635 
L 382.376696 81.669372 
L 394.799701 83.903423 
L 407.222707 85.678619 
L 419.645713 86.961486 
L 432.068718 87.766183 
L 444.491724 88.148982 
L 456.914729 88.196643 
L 469.337735 88.010133 
L 481.76074 87.686074 
L 494.183746 87.298839 
L 506.606752 86.885909 
L 519.029757 86.438804 
L 531.452763 85.90107 
L 543.875768 85.173782 
L 556.298774 84.128103 
L 568.721779 82.623682 
L 581.144785 80.530731 
L 593.56779 77.753457 
L 605.990796 74.251955 
L 618.413802 70.059924 
L 630.836807 65.295578 
L 643.259813 60.163871 
L 655.682818 54.948853 
L 668.105824 49.996087 
" clip-path="url(#pc8b8e7d9fc)" style="fill: none; stroke: #ff7f0e; stroke-opacity: 0.5; stroke-width: 1.5; stroke-linecap: square"/>
   </g>
   <g id="line2d_13">
    <path d="M 59.378551 157.529614 
L 71.801557 153.110671 
L 84.224562 149.901794 
L 96.647568 148.391724 
L 109.070573 148.925935 
L 121.493579 151.682854 
L 133.916585 156.664427 
L 146.33959 163.701061 
L 158.762596 172.469876 
L 171.185601 182.52421 
L 183.608607 193.331033 
L 196.031612 204.312693 
L 208.454618 214.888978 
L 220.877623 224.516019 
L 233.300629 232.718873 
L 245.723635 239.115696 
L 258.14664 243.432491 
L 270.569646 245.508188 
L 282.992651 245.290985 
L 295.415657 242.827424 
L 307.838662 238.246173 
L 320.261668 231.738574 
L 332.684674 223.538119 
L 345.107679 213.900616 
L 357.530685 203.086554 
L 369.95369 191.346873 
L 382.376696 178.912818 
L 394.799701 165.990317 
L 407.222707 152.758961 
L 419.645713 139.375229 
L 432.068718 125.979239 
L 444.491724 112.703824 
L 456.914729 99.684379 
L 469.337735 87.06756 
L 481.76074 75.016953 
L 494.183746 63.714007 
L 506.606752 53.353215 
L 519.029757 44.131373 
L 531.452763 36.231952 
L 543.875768 29.806434 
L 556.298774 24.955506 
L 568.721779 21.713024 
L 581.144785 20.035645 
L 593.56779 19.8 
L 605.990796 20.808309 
L 618.413802 22.80189 
L 630.836807 25.48086 
L 643.259813 28.527676 
L 655.682818 31.631489 
L 668.105824 34.511086 
" clip-path="url(#pc8b8e7d9fc)" style="fill: none; stroke: #2ca02c; stroke-opacity: 0.5; stroke-width: 1.5; stroke-linecap: square"/>
   </g>
   <g id="line2d_14">
    <path d="M 59.378551 109.135454 
L 71.801557 100.430995 
L 84.224562 91.575602 
L 96.647568 82.970245 
L 109.070573 74.976328 
L 121.493579 67.894453 
L 133.916585 61.948215 
L 146.33959 57.274677 
L 158.762596 53.923031 
L 171.185601 51.861802 
L 183.608607 50.99424 
L 196.031612 51.18002 
L 208.454618 52.26031 
L 220.877623 54.082563 
L 233.300629 56.521116 
L 245.723635 59.490338 
L 258.14664 62.948373 
L 270.569646 66.890963 
L 282.992651 71.336952 
L 295.415657 76.308234 
L 307.838662 81.808263 
L 320.261668 87.803193 
L 332.684674 94.209283 
L 345.107679 100.88897 
L 357.530685 107.656282 
L 369.95369 114.290504 
L 382.376696 120.555704 
L 394.799701 126.222465 
L 407.222707 131.088219 
L 419.645713 134.99283 
L 432.068718 137.827243 
L 444.491724 139.53434 
L 456.914729 140.102638 
L 469.337735 139.554716 
L 481.76074 137.933094 
L 494.183746 135.286501 
L 506.606752 131.659316 
L 519.029757 127.086213 
L 531.452763 121.592987 
L 543.875768 115.203577 
L 556.298774 107.952108 
L 568.721779 99.898117 
L 581.144785 91.142379 
L 593.56779 81.840723 
L 605.990796 72.213229 
L 618.413802 62.546636 
L 630.836807 53.18862 
L 643.259813 44.533469 
L 655.682818 36.999809 
L 668.105824 31.002162 
" clip-path="url(#pc8b8e7d9fc)" style="fill: none; stroke: #d62728; stroke-opacity: 0.5; stroke-width: 1.5; stroke-linecap: square"/>
   </g>
   <g id="line2d_15">
    <path d="M 59.378551 31.692706 
L 71.801557 38.964266 
L 84.224562 46.830226 
L 96.647568 55.087319 
L 109.070573 63.504205 
L 121.493579 71.836091 
L 133.916585 79.838978 
L 146.33959 87.2822 
L 158.762596 93.957974 
L 171.185601 99.687619 
L 183.608607 104.325017 
L 196.031612 107.758147 
L 208.454618 109.910292 
L 220.877623 110.742248 
L 233.300629 110.256334 
L 245.723635 108.502272 
L 258.14664 105.583851 
L 270.569646 101.664592 
L 282.992651 96.969957 
L 295.415657 91.783868 
L 307.838662 86.437879 
L 320.261668 81.292651 
L 332.684674 76.712801 
L 345.107679 73.037685 
L 357.530685 70.551689 
L 369.95369 69.457903 
L 382.376696 69.858967 
L 394.799701 71.747481 
L 407.222707 75.007141 
L 419.645713 79.424035 
L 432.068718 84.706057 
L 444.491724 90.507577 
L 456.914729 96.456068 
L 469.337735 102.177891 
L 481.76074 107.321023 
L 494.183746 111.573749 
L 506.606752 114.679186 
L 519.029757 116.446188 
L 531.452763 116.757588 
L 543.875768 115.576285 
L 556.298774 112.949566 
L 568.721779 109.01101 
L 581.144785 103.978908 
L 593.56779 98.149911 
L 605.990796 91.88643 
L 618.413802 85.597278 
L 630.836807 79.711586 
L 643.259813 74.647705 
L 655.682818 70.779628 
L 668.105824 68.404678 
" clip-path="url(#pc8b8e7d9fc)" style="fill: none; stroke: #9467bd; stroke-opacity: 0.5; stroke-width: 1.5; stroke-linecap: square"/>
   </g>
   <g id="patch_3">
    <path d="M 28.942188 284.4 
L 28.942188 7.2 
    <path d="M 28.942188 284.4 
L 28.942188 7.2 
" style="fill: none; stroke: #000000; stroke-width: 0.8; stroke-linejoin: miter; stroke-linecap: square"/>
   </g>
   <g id="patch_4">
    <path d="M 698.542188 284.4 
L 698.542188 7.2 
    <path d="M 698.542188 284.4 
L 698.542188 7.2 
" style="fill: none; stroke: #000000; stroke-width: 0.8; stroke-linejoin: miter; stroke-linecap: square"/>
   </g>
   <g id="patch_5">
    <path d="M 28.942188 284.4 
L 698.542188 284.4 
    <path d="M 28.942188 284.4 
L 698.542188 284.4 
" style="fill: none; stroke: #000000; stroke-width: 0.8; stroke-linejoin: miter; stroke-linecap: square"/>
   </g>
   <g id="patch_6">
    <path d="M 28.942188 7.2 
L 698.542188 7.2 
    <path d="M 28.942188 7.2 
L 698.542188 7.2 
" style="fill: none; stroke: #000000; stroke-width: 0.8; stroke-linejoin: miter; stroke-linecap: square"/>
   </g>
  </g>
 </g>
 <defs>
  <clipPath id="pc8b8e7d9fc">
   <rect x="28.942188" y="7.2" width="669.6" height="277.2"/>
  </clipPath>
 </defs>
</svg>
