<?xml version="1.0" encoding="utf-8" standalone="no"?>
<!DOCTYPE svg PUBLIC "-//W3C//DTD SVG 1.1//EN"
  "http://www.w3.org/Graphics/SVG/1.1/DTD/svg11.dtd">
<svg xmlns:xlink="http://www.w3.org/1999/xlink" width="705.742188pt" height="308.278125pt" viewBox="0 0 705.742188 308.278125" xmlns="http://www.w3.org/2000/svg" version="1.1">
 <metadata>
  <rdf:RDF xmlns:dc="http://purl.org/dc/elements/1.1/" xmlns:cc="http://creativecommons.org/ns#" xmlns:rdf="http://www.w3.org/1999/02/22-rdf-syntax-ns#">
   <cc:Work>
    <dc:type rdf:resource="http://purl.org/dc/dcmitype/StillImage"/>
    <dc:date>2025-06-30T15:17:46.328688</dc:date>
    <dc:format>image/svg+xml</dc:format>
    <dc:creator>
     <cc:Agent>
      <dc:title>Matplotlib v3.7.2, https://matplotlib.org/</dc:title>
     </cc:Agent>
    </dc:creator>
   </cc:Work>
  </rdf:RDF>
 </metadata>
 <defs>
  <style type="text/css">*{stroke-linejoin: round; stroke-linecap: butt}</style>
 </defs>
 <g id="figure_1">
  <g id="patch_1">
   <path d="M 0 308.278125 
L 705.742188 308.278125 
L 705.742188 0 
L 0 0 
z
" style="fill: #ffffff"/>
  </g>
  <g id="axes_1">
   <g id="patch_2">
    <path d="M 28.942188 284.4 
L 698.542188 284.4 
L 698.542188 7.2 
L 28.942188 7.2 
z
" style="fill: #ffffff"/>
   </g>
   <g id="matplotlib.axis_1">
    <g id="xtick_1">
     <g id="line2d_1">
      <defs>
       <path id="m791c01466e" d="M 0 0 
L 0 3.5 
" style="stroke: #000000; stroke-width: 0.8"/>
      </defs>
      <g>
       <use xlink:href="#m791c01466e" x="59.378551" y="284.4" style="stroke: #000000; stroke-width: 0.8"/>
      </g>
     </g>
     <g id="text_1">
      <!-- 0 -->
      <g transform="translate(56.197301 298.998438) scale(0.1 -0.1)">
       <defs>
        <path id="DejaVuSans-30" d="M 2034 4250 
Q 1547 4250 1301 3770 
Q 1056 3291 1056 2328 
Q 1056 1369 1301 889 
Q 1547 409 2034 409 
Q 2525 409 2770 889 
Q 3016 1369 3016 2328 
Q 3016 3291 2770 3770 
Q 2525 4250 2034 4250 
z
M 2034 4750 
Q 2819 4750 3233 4129 
Q 3647 3509 3647 2328 
Q 3647 1150 3233 529 
Q 2819 -91 2034 -91 
Q 1250 -91 836 529 
Q 422 1150 422 2328 
Q 422 3509 836 4129 
Q 1250 4750 2034 4750 
z
" transform="scale(0.015625)"/>
       </defs>
       <use xlink:href="#DejaVuSans-30"/>
      </g>
     </g>
    </g>
    <g id="xtick_2">
     <g id="line2d_2">
      <g>
       <use xlink:href="#m791c01466e" x="181.124006" y="284.4" style="stroke: #000000; stroke-width: 0.8"/>
      </g>
     </g>
     <g id="text_2">
      <!-- 1 -->
      <g transform="translate(177.942756 298.998438) scale(0.1 -0.1)">
       <defs>
        <path id="DejaVuSans-31" d="M 794 531 
L 1825 531 
L 1825 4091 
L 703 3866 
L 703 4441 
L 1819 4666 
L 2450 4666 
L 2450 531 
L 3481 531 
L 3481 0 
L 794 0 
L 794 531 
z
" transform="scale(0.015625)"/>
       </defs>
       <use xlink:href="#DejaVuSans-31"/>
      </g>
     </g>
    </g>
    <g id="xtick_3">
     <g id="line2d_3">
      <g>
       <use xlink:href="#m791c01466e" x="302.86946" y="284.4" style="stroke: #000000; stroke-width: 0.8"/>
      </g>
     </g>
     <g id="text_3">
      <!-- 2 -->
      <g transform="translate(299.68821 298.998438) scale(0.1 -0.1)">
       <defs>
        <path id="DejaVuSans-32" d="M 1228 531 
L 3431 531 
L 3431 0 
L 469 0 
L 469 531 
Q 828 903 1448 1529 
Q 2069 2156 2228 2338 
Q 2531 2678 2651 2914 
Q 2772 3150 2772 3378 
Q 2772 3750 2511 3984 
Q 2250 4219 1831 4219 
Q 1534 4219 1204 4116 
Q 875 4013 500 3803 
L 500 4441 
Q 881 4594 1212 4672 
Q 1544 4750 1819 4750 
Q 2544 4750 2975 4387 
Q 3406 4025 3406 3419 
Q 3406 3131 3298 2873 
Q 3191 2616 2906 2266 
Q 2828 2175 2409 1742 
Q 1991 1309 1228 531 
z
" transform="scale(0.015625)"/>
       </defs>
       <use xlink:href="#DejaVuSans-32"/>
      </g>
     </g>
    </g>
    <g id="xtick_4">
     <g id="line2d_4">
      <g>
       <use xlink:href="#m791c01466e" x="424.614915" y="284.4" style="stroke: #000000; stroke-width: 0.8"/>
      </g>
     </g>
     <g id="text_4">
      <!-- 3 -->
      <g transform="translate(421.433665 298.998438) scale(0.1 -0.1)">
       <defs>
        <path id="DejaVuSans-33" d="M 2597 2516 
Q 3050 2419 3304 2112 
Q 3559 1806 3559 1356 
Q 3559 666 3084 287 
Q 2609 -91 1734 -91 
Q 1441 -91 1130 -33 
Q 819 25 488 141 
L 488 750 
Q 750 597 1062 519 
Q 1375 441 1716 441 
Q 2309 441 2620 675 
Q 2931 909 2931 1356 
Q 2931 1769 2642 2001 
Q 2353 2234 1838 2234 
L 1294 2234 
L 1294 2753 
L 1863 2753 
Q 2328 2753 2575 2939 
Q 2822 3125 2822 3475 
Q 2822 3834 2567 4026 
Q 2313 4219 1838 4219 
Q 1578 4219 1281 4162 
Q 984 4106 628 3988 
L 628 4550 
Q 988 4650 1302 4700 
Q 1616 4750 1894 4750 
Q 2613 4750 3031 4423 
Q 3450 4097 3450 3541 
Q 3450 3153 3228 2886 
Q 3006 2619 2597 2516 
z
" transform="scale(0.015625)"/>
       </defs>
       <use xlink:href="#DejaVuSans-33"/>
      </g>
     </g>
    </g>
    <g id="xtick_5">
     <g id="line2d_5">
      <g>
       <use xlink:href="#m791c01466e" x="546.360369" y="284.4" style="stroke: #000000; stroke-width: 0.8"/>
      </g>
     </g>
     <g id="text_5">
      <!-- 4 -->
      <g transform="translate(543.179119 298.998438) scale(0.1 -0.1)">
       <defs>
        <path id="DejaVuSans-34" d="M 2419 4116 
L 825 1625 
L 2419 1625 
L 2419 4116 
z
M 2253 4666 
L 3047 4666 
L 3047 1625 
L 3713 1625 
L 3713 1100 
L 3047 1100 
L 3047 0 
L 2419 0 
L 2419 1100 
L 313 1100 
L 313 1709 
L 2253 4666 
z
" transform="scale(0.015625)"/>
       </defs>
       <use xlink:href="#DejaVuSans-34"/>
      </g>
     </g>
    </g>
    <g id="xtick_6">
     <g id="line2d_6">
      <g>
       <use xlink:href="#m791c01466e" x="668.105824" y="284.4" style="stroke: #000000; stroke-width: 0.8"/>
      </g>
     </g>
     <g id="text_6">
      <!-- 5 -->
      <g transform="translate(664.924574 298.998438) scale(0.1 -0.1)">
       <defs>
        <path id="DejaVuSans-35" d="M 691 4666 
L 3169 4666 
L 3169 4134 
L 1269 4134 
L 1269 2991 
Q 1406 3038 1543 3061 
Q 1681 3084 1819 3084 
Q 2600 3084 3056 2656 
Q 3513 2228 3513 1497 
Q 3513 744 3044 326 
Q 2575 -91 1722 -91 
Q 1428 -91 1123 -41 
Q 819 9 494 109 
L 494 744 
Q 775 591 1075 516 
Q 1375 441 1709 441 
Q 2250 441 2565 725 
Q 2881 1009 2881 1497 
Q 2881 1984 2565 2268 
Q 2250 2553 1709 2553 
Q 1456 2553 1204 2497 
Q 953 2441 691 2322 
L 691 4666 
z
" transform="scale(0.015625)"/>
       </defs>
       <use xlink:href="#DejaVuSans-35"/>
      </g>
     </g>
    </g>
   </g>
   <g id="matplotlib.axis_2">
    <g id="ytick_1">
     <g id="line2d_7">
      <defs>
       <path id="mbc09cabc45" d="M 0 0 
L -3.5 0 
" style="stroke: #000000; stroke-width: 0.8"/>
      </defs>
      <g>
       <use xlink:href="#mbc09cabc45" x="28.942188" y="242.842725" style="stroke: #000000; stroke-width: 0.8"/>
      </g>
     </g>
     <g id="text_7">
      <!-- −1 -->
      <g transform="translate(7.2 246.641944) scale(0.1 -0.1)">
       <defs>
        <path id="DejaVuSans-2212" d="M 678 2272 
L 4684 2272 
L 4684 1741 
L 678 1741 
L 678 2272 
z
" transform="scale(0.015625)"/>
       </defs>
       <use xlink:href="#DejaVuSans-2212"/>
       <use xlink:href="#DejaVuSans-31" x="83.789062"/>
      </g>
     </g>
    </g>
    <g id="ytick_2">
     <g id="line2d_8">
      <g>
       <use xlink:href="#mbc09cabc45" x="28.942188" y="181.669632" style="stroke: #000000; stroke-width: 0.8"/>
      </g>
     </g>
     <g id="text_8">
      <!-- 0 -->
      <g transform="translate(15.579688 185.46885) scale(0.1 -0.1)">
       <use xlink:href="#DejaVuSans-30"/>
      </g>
     </g>
    </g>
    <g id="ytick_3">
     <g id="line2d_9">
      <g>
       <use xlink:href="#mbc09cabc45" x="28.942188" y="120.496538" style="stroke: #000000; stroke-width: 0.8"/>
      </g>
     </g>
     <g id="text_9">
      <!-- 1 -->
      <g transform="translate(15.579688 124.295757) scale(0.1 -0.1)">
       <use xlink:href="#DejaVuSans-31"/>
      </g>
     </g>
    </g>
    <g id="ytick_4">
     <g id="line2d_10">
      <g>
       <use xlink:href="#mbc09cabc45" x="28.942188" y="59.323444" style="stroke: #000000; stroke-width: 0.8"/>
      </g>
     </g>
     <g id="text_10">
      <!-- 2 -->
      <g transform="translate(15.579688 63.122663) scale(0.1 -0.1)">
       <use xlink:href="#DejaVuSans-32"/>
      </g>
     </g>
    </g>
   </g>
   <g id="line2d_11">
    <path d="M 59.378551 254.372338 
L 71.801557 250.423049 
L 84.224562 244.733342 
L 96.647568 237.142662 
L 109.070573 227.567159 
L 121.493579 216.022057 
L 133.916585 202.640966 
L 146.33959 187.688875 
L 158.762596 171.56554 
L 171.185601 154.796923 
L 183.608607 138.013282 
L 196.031612 121.914424 
L 208.454618 107.223989 
L 220.877623 94.636491 
L 233.300629 84.761806 
L 245.723635 78.072747 
L 258.14664 74.861164 
L 270.569646 75.207738 
L 282.992651 78.969166 
L 295.415657 85.784978 
L 307.838662 95.10417 
L 320.261668 106.22977 
L 332.684674 118.377319 
L 345.107679 130.741751 
L 357.530685 142.565886 
L 369.95369 153.203415 
L 382.376696 162.169822 
L 394.799701 169.175825 
L 407.222707 174.140228 
L 419.645713 177.181394 
L 432.068718 178.589164 
L 444.491724 178.781529 
L 456.914729 178.251943 
L 469.337735 177.513847 
L 481.76074 177.048991 
L 494.183746 177.264988 
L 506.606752 178.465523 
L 519.029757 180.835163 
L 531.452763 184.437969 
L 543.875768 189.228058 
L 556.298774 195.068824 
L 568.721779 201.75714 
L 581.144785 209.048923 
L 593.56779 216.683183 
L 605.990796 224.402152 
L 618.413802 231.966397 
L 630.836807 239.164286 
L 643.259813 245.816124 
L 655.682818 251.77372 
L 668.105824 256.916517 
" clip-path="url(#pecae91938e)" style="fill: none; stroke: #1f77b4; stroke-opacity: 0.5; stroke-width: 1.5; stroke-linecap: square"/>
   </g>
   <g id="line2d_12">
    <path d="M 59.378551 198.939495 
L 71.801557 194.821733 
L 84.224562 192.197689 
L 96.647568 191.170368 
L 109.070573 191.725299 
L 121.493579 193.736156 
L 133.916585 196.98087 
L 146.33959 201.166202 
L 158.762596 205.95767 
L 171.185601 211.010805 
L 183.608607 216.000122 
L 196.031612 220.642319 
L 208.454618 224.711565 
L 220.877623 228.046058 
L 233.300629 230.546323 
L 245.723635 232.167278 
L 258.14664 232.906492 
L 270.569646 232.791697 
L 282.992651 231.870091 
L 295.415657 230.201289 
L 307.838662 227.854677 
L 320.261668 224.910765 
L 332.684674 221.465076 
L 345.107679 217.632559 
L 357.530685 213.550079 
L 369.95369 209.375007 
L 382.376696 205.278543 
L 394.799701 201.433657 
L 407.222707 197.998547 
L 419.645713 195.09783 
L 432.068718 192.804333 
L 444.491724 191.124848 
L 456.914729 189.992601 
L 469.337735 189.268719 
L 481.76074 188.753026 
L 494.183746 188.203596 
L 506.606752 187.362312 
L 519.029757 185.983031 
L 531.452763 183.858002 
L 543.875768 180.838738 
L 556.298774 176.848158 
L 568.721779 171.882522 
L 581.144785 166.003367 
L 593.56779 159.321489 
L 605.990796 151.976299 
L 618.413802 144.114679 
L 630.836807 135.873344 
L 643.259813 127.367811 
L 655.682818 118.689798 
L 668.105824 109.912692 
" clip-path="url(#pecae91938e)" style="fill: none; stroke: #ff7f0e; stroke-opacity: 0.5; stroke-width: 1.5; stroke-linecap: square"/>
   </g>
   <g id="line2d_13">
    <path d="M 59.378551 203.726076 
L 71.801557 204.131596 
L 84.224562 203.689809 
L 96.647568 202.604139 
L 109.070573 201.126312 
L 121.493579 199.534666 
L 133.916585 198.108362 
L 146.33959 197.101128 
L 158.762596 196.718101 
L 171.185601 197.099476 
L 183.608607 198.31292 
L 196.031612 200.355655 
L 208.454618 203.164965 
L 220.877623 206.634635 
L 233.300629 210.633743 
L 245.723635 215.023896 
L 258.14664 219.671724 
L 270.569646 224.454363 
L 282.992651 229.257362 
L 295.415657 233.965977 
L 307.838662 238.452349 
L 320.261668 242.561876 
L 332.684674 246.102565 
L 345.107679 248.840551 
L 357.530685 250.504256 
L 369.95369 250.798059 
L 382.376696 249.424648 
L 394.799701 246.114023 
L 407.222707 240.655347 
L 419.645713 232.927532 
L 432.068718 222.924199 
L 444.491724 210.769205 
L 456.914729 196.720394 
L 469.337735 181.160482 
L 481.76074 164.576082 
L 494.183746 147.527332 
L 506.606752 130.61149 
L 519.029757 114.424992 
L 531.452763 99.527679 
L 543.875768 86.412701 
L 556.298774 75.484238 
L 568.721779 67.043777 
L 581.144785 61.284785 
L 593.56779 58.294359 
L 605.990796 58.060031 
L 618.413802 60.4799 
L 630.836807 65.374372 
L 643.259813 72.498248 
L 655.682818 81.55257 
L 668.105824 92.19592 
" clip-path="url(#pecae91938e)" style="fill: none; stroke: #2ca02c; stroke-opacity: 0.5; stroke-width: 1.5; stroke-linecap: square"/>
   </g>
   <g id="line2d_14">
    <path d="M 59.378551 192.585083 
L 71.801557 190.797292 
L 84.224562 190.348874 
L 96.647568 191.280781 
L 109.070573 193.55106 
L 121.493579 197.047017 
L 133.916585 201.600725 
L 146.33959 207.005244 
L 158.762596 213.028739 
L 171.185601 219.424322 
L 183.608607 225.934201 
L 196.031612 232.288225 
L 208.454618 238.198252 
L 220.877623 243.351006 
L 233.300629 247.40308 
L 245.723635 249.981741 
L 258.14664 250.694616 
L 270.569646 249.149933 
L 282.992651 244.987088 
L 295.415657 237.915085 
L 307.838662 227.754629 
L 320.261668 214.478228 
L 332.684674 198.242025 
L 345.107679 179.403901 
L 357.530685 158.523649 
L 369.95369 136.34319 
L 382.376696 113.747493 
L 394.799701 91.709232 
L 407.222707 71.222339 
L 419.645713 53.230908 
L 432.068718 38.560496 
L 444.491724 27.858235 
L 456.914729 21.547395 
L 469.337735 19.8 
L 481.76074 22.529506 
L 494.183746 29.403389 
L 506.606752 39.873988 
L 519.029757 53.223959 
L 531.452763 68.622396 
L 543.875768 85.186115 
L 556.298774 102.041147 
L 568.721779 118.37925 
L 581.144785 133.505256 
L 593.56779 146.871935 
L 605.990796 158.100391 
L 618.413802 166.985804 
L 630.836807 173.489309 
L 643.259813 177.718504 
L 655.682818 179.899546 
L 668.105824 180.344693 
" clip-path="url(#pecae91938e)" style="fill: none; stroke: #d62728; stroke-opacity: 0.5; stroke-width: 1.5; stroke-linecap: square"/>
   </g>
   <g id="line2d_15">
    <path d="M 59.378551 271.8 
L 71.801557 268.994252 
L 84.224562 265.517592 
L 96.647568 261.375401 
L 109.070573 256.565281 
L 121.493579 251.089342 
L 133.916585 244.96879 
L 146.33959 238.258067 
L 158.762596 231.055765 
L 171.185601 223.510208 
L 183.608607 215.818517 
L 196.031612 208.218851 
L 208.454618 200.976831 
L 220.877623 194.367502 
L 233.300629 188.655108 
L 245.723635 184.072613 
L 258.14664 180.803041 
L 270.569646 178.964107 
L 282.992651 178.597221 
L 295.415657 179.661617 
L 307.838662 182.03388 
L 320.261668 185.513164 
L 332.684674 189.832068 
L 345.107679 194.672923 
L 357.530685 199.688845 
L 369.95369 204.528479 
L 382.376696 208.862348 
L 394.799701 212.408517 
L 407.222707 214.954532 
L 419.645713 216.37277 
L 432.068718 216.626928 
L 444.491724 215.768237 
L 456.914729 213.921608 
L 469.337735 211.263438 
L 481.76074 207.994013 
L 494.183746 204.308581 
L 506.606752 200.37129 
L 519.029757 196.295625 
L 531.452763 192.134067 
L 543.875768 187.877958 
L 556.298774 183.467095 
L 568.721779 178.806986 
L 581.144785 173.790788 
L 593.56779 168.322389 
L 605.990796 162.337335 
L 618.413802 155.818681 
L 630.836807 148.806061 
L 643.259813 141.396959 
L 655.682818 133.740407 
L 668.105824 126.02406 
" clip-path="url(#pecae91938e)" style="fill: none; stroke: #9467bd; stroke-opacity: 0.5; stroke-width: 1.5; stroke-linecap: square"/>
   </g>
   <g id="patch_3">
    <path d="M 28.942188 284.4 
L 28.942188 7.2 
" style="fill: none; stroke: #000000; stroke-width: 0.8; stroke-linejoin: miter; stroke-linecap: square"/>
   </g>
   <g id="patch_4">
    <path d="M 698.542188 284.4 
L 698.542188 7.2 
" style="fill: none; stroke: #000000; stroke-width: 0.8; stroke-linejoin: miter; stroke-linecap: square"/>
   </g>
   <g id="patch_5">
    <path d="M 28.942188 284.4 
L 698.542188 284.4 
" style="fill: none; stroke: #000000; stroke-width: 0.8; stroke-linejoin: miter; stroke-linecap: square"/>
   </g>
   <g id="patch_6">
    <path d="M 28.942188 7.2 
L 698.542188 7.2 
" style="fill: none; stroke: #000000; stroke-width: 0.8; stroke-linejoin: miter; stroke-linecap: square"/>
   </g>
  </g>
 </g>
 <defs>
  <clipPath id="pecae91938e">
   <rect x="28.942188" y="7.2" width="669.6" height="277.2"/>
  </clipPath>
 </defs>
</svg>
