<?xml version="1.0" encoding="utf-8" standalone="no"?>
<!DOCTYPE svg PUBLIC "-//W3C//DTD SVG 1.1//EN"
  "http://www.w3.org/Graphics/SVG/1.1/DTD/svg11.dtd">
<svg xmlns:xlink="http://www.w3.org/1999/xlink" width="1080pt" height="288pt" viewBox="0 0 1080 288" xmlns="http://www.w3.org/2000/svg" version="1.1">
 <metadata>
  <rdf:RDF xmlns:dc="http://purl.org/dc/elements/1.1/" xmlns:cc="http://creativecommons.org/ns#" xmlns:rdf="http://www.w3.org/1999/02/22-rdf-syntax-ns#">
   <cc:Work>
    <dc:type rdf:resource="http://purl.org/dc/dcmitype/StillImage"/>
    <dc:date>2026-03-22T16:19:34.103528</dc:date>
    <dc:format>image/svg+xml</dc:format>
    <dc:creator>
     <cc:Agent>
      <dc:title>Matplotlib v3.10.8, https://matplotlib.org/</dc:title>
     </cc:Agent>
    </dc:creator>
   </cc:Work>
  </rdf:RDF>
 </metadata>
 <defs>
  <style type="text/css">*{stroke-linejoin: round; stroke-linecap: butt}</style>
 </defs>
 <g id="figure_1">
  <g id="patch_1">
   <path d="M 0 288 
L 1080 288 
L 1080 0 
L 0 0 
L 0 288 
z
" style="fill: none"/>
  </g>
  <g id="axes_1">
   <g id="patch_2">
    <path d="M 45.26 255.7 
L 349.92 255.7 
L 349.92 38.4 
L 45.26 38.4 
L 45.26 255.7 
z
" style="fill: none"/>
   </g>
   <g id="matplotlib.axis_1">
    <g id="xtick_1">
     <g id="line2d_1">
      <path d="M 59.108182 255.7 
L 59.108182 38.4 
" clip-path="url(#pf94e058ae8)" style="fill: none; stroke: #cbcbcb"/>
     </g>
     <g id="line2d_2"/>
     <g id="text_1">
      <!-- 0 -->
      <g style="fill: #cccccc" transform="translate(54.654432 269.837812) scale(0.14 -0.14)">
       <defs>
        <path id="DejaVuSans-30" d="M 2034 4250 
Q 1547 4250 1301 3770 
Q 1056 3291 1056 2328 
Q 1056 1369 1301 889 
Q 1547 409 2034 409 
Q 2525 409 2770 889 
Q 3016 1369 3016 2328 
Q 3016 3291 2770 3770 
Q 2525 4250 2034 4250 
z
M 2034 4750 
Q 2819 4750 3233 4129 
Q 3647 3509 3647 2328 
Q 3647 1150 3233 529 
Q 2819 -91 2034 -91 
Q 1250 -91 836 529 
Q 422 1150 422 2328 
Q 422 3509 836 4129 
Q 1250 4750 2034 4750 
z
" transform="scale(0.015625)"/>
       </defs>
       <use xlink:href="#DejaVuSans-30"/>
      </g>
     </g>
    </g>
    <g id="xtick_2">
     <g id="line2d_3">
      <path d="M 114.500909 255.7 
L 114.500909 38.4 
" clip-path="url(#pf94e058ae8)" style="fill: none; stroke: #cbcbcb"/>
     </g>
     <g id="line2d_4"/>
     <g id="text_2">
      <!-- 2 -->
      <g style="fill: #cccccc" transform="translate(110.047159 269.837812) scale(0.14 -0.14)">
       <defs>
        <path id="DejaVuSans-32" d="M 1228 531 
L 3431 531 
L 3431 0 
L 469 0 
L 469 531 
Q 828 903 1448 1529 
Q 2069 2156 2228 2338 
Q 2531 2678 2651 2914 
Q 2772 3150 2772 3378 
Q 2772 3750 2511 3984 
Q 2250 4219 1831 4219 
Q 1534 4219 1204 4116 
Q 875 4013 500 3803 
L 500 4441 
Q 881 4594 1212 4672 
Q 1544 4750 1819 4750 
Q 2544 4750 2975 4387 
Q 3406 4025 3406 3419 
Q 3406 3131 3298 2873 
Q 3191 2616 2906 2266 
Q 2828 2175 2409 1742 
Q 1991 1309 1228 531 
z
" transform="scale(0.015625)"/>
       </defs>
       <use xlink:href="#DejaVuSans-32"/>
      </g>
     </g>
    </g>
    <g id="xtick_3">
     <g id="line2d_5">
      <path d="M 169.893636 255.7 
L 169.893636 38.4 
" clip-path="url(#pf94e058ae8)" style="fill: none; stroke: #cbcbcb"/>
     </g>
     <g id="line2d_6"/>
     <g id="text_3">
      <!-- 4 -->
      <g style="fill: #cccccc" transform="translate(165.439886 269.837812) scale(0.14 -0.14)">
       <defs>
        <path id="DejaVuSans-34" d="M 2419 4116 
L 825 1625 
L 2419 1625 
L 2419 4116 
z
M 2253 4666 
L 3047 4666 
L 3047 1625 
L 3713 1625 
L 3713 1100 
L 3047 1100 
L 3047 0 
L 2419 0 
L 2419 1100 
L 313 1100 
L 313 1709 
L 2253 4666 
z
" transform="scale(0.015625)"/>
       </defs>
       <use xlink:href="#DejaVuSans-34"/>
      </g>
     </g>
    </g>
    <g id="xtick_4">
     <g id="line2d_7">
      <path d="M 225.286364 255.7 
L 225.286364 38.4 
" clip-path="url(#pf94e058ae8)" style="fill: none; stroke: #cbcbcb"/>
     </g>
     <g id="line2d_8"/>
     <g id="text_4">
      <!-- 6 -->
      <g style="fill: #cccccc" transform="translate(220.832614 269.837812) scale(0.14 -0.14)">
       <defs>
        <path id="DejaVuSans-36" d="M 2113 2584 
Q 1688 2584 1439 2293 
Q 1191 2003 1191 1497 
Q 1191 994 1439 701 
Q 1688 409 2113 409 
Q 2538 409 2786 701 
Q 3034 994 3034 1497 
Q 3034 2003 2786 2293 
Q 2538 2584 2113 2584 
z
M 3366 4563 
L 3366 3988 
Q 3128 4100 2886 4159 
Q 2644 4219 2406 4219 
Q 1781 4219 1451 3797 
Q 1122 3375 1075 2522 
Q 1259 2794 1537 2939 
Q 1816 3084 2150 3084 
Q 2853 3084 3261 2657 
Q 3669 2231 3669 1497 
Q 3669 778 3244 343 
Q 2819 -91 2113 -91 
Q 1303 -91 875 529 
Q 447 1150 447 2328 
Q 447 3434 972 4092 
Q 1497 4750 2381 4750 
Q 2619 4750 2861 4703 
Q 3103 4656 3366 4563 
z
" transform="scale(0.015625)"/>
       </defs>
       <use xlink:href="#DejaVuSans-36"/>
      </g>
     </g>
    </g>
    <g id="xtick_5">
     <g id="line2d_9">
      <path d="M 280.679091 255.7 
L 280.679091 38.4 
" clip-path="url(#pf94e058ae8)" style="fill: none; stroke: #cbcbcb"/>
     </g>
     <g id="line2d_10"/>
     <g id="text_5">
      <!-- 8 -->
      <g style="fill: #cccccc" transform="translate(276.225341 269.837812) scale(0.14 -0.14)">
       <defs>
        <path id="DejaVuSans-38" d="M 2034 2216 
Q 1584 2216 1326 1975 
Q 1069 1734 1069 1313 
Q 1069 891 1326 650 
Q 1584 409 2034 409 
Q 2484 409 2743 651 
Q 3003 894 3003 1313 
Q 3003 1734 2745 1975 
Q 2488 2216 2034 2216 
z
M 1403 2484 
Q 997 2584 770 2862 
Q 544 3141 544 3541 
Q 544 4100 942 4425 
Q 1341 4750 2034 4750 
Q 2731 4750 3128 4425 
Q 3525 4100 3525 3541 
Q 3525 3141 3298 2862 
Q 3072 2584 2669 2484 
Q 3125 2378 3379 2068 
Q 3634 1759 3634 1313 
Q 3634 634 3220 271 
Q 2806 -91 2034 -91 
Q 1263 -91 848 271 
Q 434 634 434 1313 
Q 434 1759 690 2068 
Q 947 2378 1403 2484 
z
M 1172 3481 
Q 1172 3119 1398 2916 
Q 1625 2713 2034 2713 
Q 2441 2713 2670 2916 
Q 2900 3119 2900 3481 
Q 2900 3844 2670 4047 
Q 2441 4250 2034 4250 
Q 1625 4250 1398 4047 
Q 1172 3844 1172 3481 
z
" transform="scale(0.015625)"/>
       </defs>
       <use xlink:href="#DejaVuSans-38"/>
      </g>
     </g>
    </g>
    <g id="xtick_6">
     <g id="line2d_11">
      <path d="M 336.071818 255.7 
L 336.071818 38.4 
" clip-path="url(#pf94e058ae8)" style="fill: none; stroke: #cbcbcb"/>
     </g>
     <g id="line2d_12"/>
     <g id="text_6">
      <!-- 10 -->
      <g style="fill: #cccccc" transform="translate(327.164318 269.837812) scale(0.14 -0.14)">
       <defs>
        <path id="DejaVuSans-31" d="M 794 531 
L 1825 531 
L 1825 4091 
L 703 3866 
L 703 4441 
L 1819 4666 
L 2450 4666 
L 2450 531 
L 3481 531 
L 3481 0 
L 794 0 
L 794 531 
z
" transform="scale(0.015625)"/>
       </defs>
       <use xlink:href="#DejaVuSans-31"/>
       <use xlink:href="#DejaVuSans-30" transform="translate(63.623047 0)"/>
      </g>
     </g>
    </g>
   </g>
   <g id="matplotlib.axis_2">
    <g id="ytick_1">
     <g id="line2d_13">
      <path d="M 45.26 237.249 
L 349.92 237.249 
" clip-path="url(#pf94e058ae8)" style="fill: none; stroke: #cbcbcb"/>
     </g>
     <g id="line2d_14"/>
     <g id="text_7">
      <!-- 140 -->
      <g style="fill: #cccccc" transform="translate(15.0375 242.567907) scale(0.14 -0.14)">
       <use xlink:href="#DejaVuSans-31"/>
       <use xlink:href="#DejaVuSans-34" transform="translate(63.623047 0)"/>
       <use xlink:href="#DejaVuSans-30" transform="translate(127.246094 0)"/>
      </g>
     </g>
    </g>
    <g id="ytick_2">
     <g id="line2d_15">
      <path d="M 45.26 204.740406 
L 349.92 204.740406 
" clip-path="url(#pf94e058ae8)" style="fill: none; stroke: #cbcbcb"/>
     </g>
     <g id="line2d_16"/>
     <g id="text_8">
      <!-- 160 -->
      <g style="fill: #cccccc" transform="translate(15.0375 210.059312) scale(0.14 -0.14)">
       <use xlink:href="#DejaVuSans-31"/>
       <use xlink:href="#DejaVuSans-36" transform="translate(63.623047 0)"/>
       <use xlink:href="#DejaVuSans-30" transform="translate(127.246094 0)"/>
      </g>
     </g>
    </g>
    <g id="ytick_3">
     <g id="line2d_17">
      <path d="M 45.26 172.231812 
L 349.92 172.231812 
" clip-path="url(#pf94e058ae8)" style="fill: none; stroke: #cbcbcb"/>
     </g>
     <g id="line2d_18"/>
     <g id="text_9">
      <!-- 180 -->
      <g style="fill: #cccccc" transform="translate(15.0375 177.550718) scale(0.14 -0.14)">
       <use xlink:href="#DejaVuSans-31"/>
       <use xlink:href="#DejaVuSans-38" transform="translate(63.623047 0)"/>
       <use xlink:href="#DejaVuSans-30" transform="translate(127.246094 0)"/>
      </g>
     </g>
    </g>
    <g id="ytick_4">
     <g id="line2d_19">
      <path d="M 45.26 139.723217 
L 349.92 139.723217 
" clip-path="url(#pf94e058ae8)" style="fill: none; stroke: #cbcbcb"/>
     </g>
     <g id="line2d_20"/>
     <g id="text_10">
      <!-- 200 -->
      <g style="fill: #cccccc" transform="translate(15.0375 145.042124) scale(0.14 -0.14)">
       <use xlink:href="#DejaVuSans-32"/>
       <use xlink:href="#DejaVuSans-30" transform="translate(63.623047 0)"/>
       <use xlink:href="#DejaVuSans-30" transform="translate(127.246094 0)"/>
      </g>
     </g>
    </g>
    <g id="ytick_5">
     <g id="line2d_21">
      <path d="M 45.26 107.214623 
L 349.92 107.214623 
" clip-path="url(#pf94e058ae8)" style="fill: none; stroke: #cbcbcb"/>
     </g>
     <g id="line2d_22"/>
     <g id="text_11">
      <!-- 220 -->
      <g style="fill: #cccccc" transform="translate(15.0375 112.533529) scale(0.14 -0.14)">
       <use xlink:href="#DejaVuSans-32"/>
       <use xlink:href="#DejaVuSans-32" transform="translate(63.623047 0)"/>
       <use xlink:href="#DejaVuSans-30" transform="translate(127.246094 0)"/>
      </g>
     </g>
    </g>
    <g id="ytick_6">
     <g id="line2d_23">
      <path d="M 45.26 74.706029 
L 349.92 74.706029 
" clip-path="url(#pf94e058ae8)" style="fill: none; stroke: #cbcbcb"/>
     </g>
     <g id="line2d_24"/>
     <g id="text_12">
      <!-- 240 -->
      <g style="fill: #cccccc" transform="translate(15.0375 80.024935) scale(0.14 -0.14)">
       <use xlink:href="#DejaVuSans-32"/>
       <use xlink:href="#DejaVuSans-34" transform="translate(63.623047 0)"/>
       <use xlink:href="#DejaVuSans-30" transform="translate(127.246094 0)"/>
      </g>
     </g>
    </g>
    <g id="ytick_7">
     <g id="line2d_25">
      <path d="M 45.26 42.197435 
L 349.92 42.197435 
" clip-path="url(#pf94e058ae8)" style="fill: none; stroke: #cbcbcb"/>
     </g>
     <g id="line2d_26"/>
     <g id="text_13">
      <!-- 260 -->
      <g style="fill: #cccccc" transform="translate(15.0375 47.516341) scale(0.14 -0.14)">
       <use xlink:href="#DejaVuSans-32"/>
       <use xlink:href="#DejaVuSans-36" transform="translate(63.623047 0)"/>
       <use xlink:href="#DejaVuSans-30" transform="translate(127.246094 0)"/>
      </g>
     </g>
    </g>
   </g>
   <g id="line2d_27">
    <path d="M 59.108182 135.879191 
L 61.905794 137.065979 
L 64.703407 121.445845 
L 67.501019 129.292815 
L 70.298632 101.651517 
L 73.096244 112.872784 
L 75.893857 93.386539 
L 78.691469 87.905595 
L 81.489082 87.525438 
L 84.286694 52.264745 
L 87.084307 75.754165 
L 89.881919 63.048618 
L 92.679532 54.716629 
L 95.477144 71.010554 
L 98.274757 48.537396 
L 101.072369 59.570251 
L 103.869982 50.306482 
L 106.667594 66.74798 
L 109.465207 69.29311 
L 112.262819 53.502193 
L 115.060432 62.442757 
L 117.858044 69.326528 
L 120.655657 69.886941 
L 123.453269 76.10719 
L 126.250882 95.677793 
L 129.048494 110.732115 
L 131.846107 113.338723 
L 134.643719 121.538067 
L 137.441331 132.704976 
L 140.238944 127.860387 
L 143.036556 134.991624 
L 145.834169 139.206459 
L 148.631781 145.339772 
L 151.429394 158.3347 
L 154.227006 165.240633 
L 157.024619 170.308846 
L 159.822231 186.41779 
L 162.619844 191.13077 
L 165.417456 191.592183 
L 168.215069 203.408938 
L 171.012681 207.973029 
L 173.810294 208.963334 
L 176.607906 201.327095 
L 179.405519 212.935687 
L 182.203131 220.838389 
L 185.000744 224.621492 
L 187.798356 221.752135 
L 190.595969 202.725099 
L 193.393581 245.822727 
L 196.191194 214.371746 
L 198.988806 214.50373 
L 201.786419 206.232739 
L 204.584031 218.756477 
L 207.381644 187.67146 
L 210.179256 191.486529 
L 212.976869 194.194863 
L 215.774481 186.08301 
L 218.572094 186.321583 
L 221.369706 172.792873 
L 224.167319 166.730171 
L 226.964931 149.994993 
L 229.762544 146.672376 
L 232.560156 142.072168 
L 235.357769 127.683261 
L 238.155381 120.537216 
L 240.952994 115.260357 
L 243.750606 121.741683 
L 246.548219 93.505788 
L 249.345831 104.289533 
L 252.143444 96.414717 
L 254.941056 82.989219 
L 257.738669 72.48333 
L 260.536281 60.357764 
L 263.333893 81.36115 
L 266.131506 52.269261 
L 268.929118 48.277273 
L 271.726731 63.474377 
L 274.524343 60.324091 
L 277.321956 63.123975 
L 280.119568 63.997239 
L 282.917181 71.418917 
L 285.714793 76.512215 
L 288.512406 67.431157 
L 291.310018 67.500764 
L 294.107631 59.232054 
L 296.905243 87.398908 
L 299.702856 102.04792 
L 302.500468 90.199512 
L 305.298081 102.01564 
L 308.095693 102.588411 
L 310.893306 116.324122 
L 313.690918 131.2029 
L 316.488531 134.637319 
L 319.286143 130.694222 
L 322.083756 143.207721 
L 324.881368 161.444199 
L 327.678981 154.485883 
L 330.476593 181.109476 
L 333.274206 181.194887 
L 336.071818 182.328092 
" clip-path="url(#pf94e058ae8)" style="fill: none; stroke: #8e44ad; stroke-width: 4"/>
   </g>
   <g id="patch_3">
    <path d="M 45.26 255.7 
L 45.26 38.4 
" style="fill: none; stroke: #cccccc; stroke-width: 3; stroke-linejoin: miter; stroke-linecap: square"/>
   </g>
   <g id="patch_4">
    <path d="M 349.92 255.7 
L 349.92 38.4 
" style="fill: none; stroke: #cccccc; stroke-width: 3; stroke-linejoin: miter; stroke-linecap: square"/>
   </g>
   <g id="patch_5">
    <path d="M 45.26 255.7 
L 349.92 255.7 
" style="fill: none; stroke: #cccccc; stroke-width: 3; stroke-linejoin: miter; stroke-linecap: square"/>
   </g>
   <g id="patch_6">
    <path d="M 45.26 38.4 
L 349.92 38.4 
" style="fill: none; stroke: #cccccc; stroke-width: 3; stroke-linejoin: miter; stroke-linecap: square"/>
   </g>
   <g id="text_14">
    <!-- Raw Data (Arbitrary Scale) -->
    <g style="fill: #cccccc" transform="translate(63.105475 32.4) scale(0.2016 -0.2016)">
     <defs>
      <path id="DejaVuSans-52" d="M 2841 2188 
Q 3044 2119 3236 1894 
Q 3428 1669 3622 1275 
L 4263 0 
L 3584 0 
L 2988 1197 
Q 2756 1666 2539 1819 
Q 2322 1972 1947 1972 
L 1259 1972 
L 1259 0 
L 628 0 
L 628 4666 
L 2053 4666 
Q 2853 4666 3247 4331 
Q 3641 3997 3641 3322 
Q 3641 2881 3436 2590 
Q 3231 2300 2841 2188 
z
M 1259 4147 
L 1259 2491 
L 2053 2491 
Q 2509 2491 2742 2702 
Q 2975 2913 2975 3322 
Q 2975 3731 2742 3939 
Q 2509 4147 2053 4147 
L 1259 4147 
z
" transform="scale(0.015625)"/>
      <path id="DejaVuSans-61" d="M 2194 1759 
Q 1497 1759 1228 1600 
Q 959 1441 959 1056 
Q 959 750 1161 570 
Q 1363 391 1709 391 
Q 2188 391 2477 730 
Q 2766 1069 2766 1631 
L 2766 1759 
L 2194 1759 
z
M 3341 1997 
L 3341 0 
L 2766 0 
L 2766 531 
Q 2569 213 2275 61 
Q 1981 -91 1556 -91 
Q 1019 -91 701 211 
Q 384 513 384 1019 
Q 384 1609 779 1909 
Q 1175 2209 1959 2209 
L 2766 2209 
L 2766 2266 
Q 2766 2663 2505 2880 
Q 2244 3097 1772 3097 
Q 1472 3097 1187 3025 
Q 903 2953 641 2809 
L 641 3341 
Q 956 3463 1253 3523 
Q 1550 3584 1831 3584 
Q 2591 3584 2966 3190 
Q 3341 2797 3341 1997 
z
" transform="scale(0.015625)"/>
      <path id="DejaVuSans-77" d="M 269 3500 
L 844 3500 
L 1563 769 
L 2278 3500 
L 2956 3500 
L 3675 769 
L 4391 3500 
L 4966 3500 
L 4050 0 
L 3372 0 
L 2619 2869 
L 1863 0 
L 1184 0 
L 269 3500 
z
" transform="scale(0.015625)"/>
      <path id="DejaVuSans-20" transform="scale(0.015625)"/>
      <path id="DejaVuSans-44" d="M 1259 4147 
L 1259 519 
L 2022 519 
Q 2988 519 3436 956 
Q 3884 1394 3884 2338 
Q 3884 3275 3436 3711 
Q 2988 4147 2022 4147 
L 1259 4147 
z
M 628 4666 
L 1925 4666 
Q 3281 4666 3915 4102 
Q 4550 3538 4550 2338 
Q 4550 1131 3912 565 
Q 3275 0 1925 0 
L 628 0 
L 628 4666 
z
" transform="scale(0.015625)"/>
      <path id="DejaVuSans-74" d="M 1172 4494 
L 1172 3500 
L 2356 3500 
L 2356 3053 
L 1172 3053 
L 1172 1153 
Q 1172 725 1289 603 
Q 1406 481 1766 481 
L 2356 481 
L 2356 0 
L 1766 0 
Q 1100 0 847 248 
Q 594 497 594 1153 
L 594 3053 
L 172 3053 
L 172 3500 
L 594 3500 
L 594 4494 
L 1172 4494 
z
" transform="scale(0.015625)"/>
      <path id="DejaVuSans-28" d="M 1984 4856 
Q 1566 4138 1362 3434 
Q 1159 2731 1159 2009 
Q 1159 1288 1364 580 
Q 1569 -128 1984 -844 
L 1484 -844 
Q 1016 -109 783 600 
Q 550 1309 550 2009 
Q 550 2706 781 3412 
Q 1013 4119 1484 4856 
L 1984 4856 
z
" transform="scale(0.015625)"/>
      <path id="DejaVuSans-41" d="M 2188 4044 
L 1331 1722 
L 3047 1722 
L 2188 4044 
z
M 1831 4666 
L 2547 4666 
L 4325 0 
L 3669 0 
L 3244 1197 
L 1141 1197 
L 716 0 
L 50 0 
L 1831 4666 
z
" transform="scale(0.015625)"/>
      <path id="DejaVuSans-72" d="M 2631 2963 
Q 2534 3019 2420 3045 
Q 2306 3072 2169 3072 
Q 1681 3072 1420 2755 
Q 1159 2438 1159 1844 
L 1159 0 
L 581 0 
L 581 3500 
L 1159 3500 
L 1159 2956 
Q 1341 3275 1631 3429 
Q 1922 3584 2338 3584 
Q 2397 3584 2469 3576 
Q 2541 3569 2628 3553 
L 2631 2963 
z
" transform="scale(0.015625)"/>
      <path id="DejaVuSans-62" d="M 3116 1747 
Q 3116 2381 2855 2742 
Q 2594 3103 2138 3103 
Q 1681 3103 1420 2742 
Q 1159 2381 1159 1747 
Q 1159 1113 1420 752 
Q 1681 391 2138 391 
Q 2594 391 2855 752 
Q 3116 1113 3116 1747 
z
M 1159 2969 
Q 1341 3281 1617 3432 
Q 1894 3584 2278 3584 
Q 2916 3584 3314 3078 
Q 3713 2572 3713 1747 
Q 3713 922 3314 415 
Q 2916 -91 2278 -91 
Q 1894 -91 1617 61 
Q 1341 213 1159 525 
L 1159 0 
L 581 0 
L 581 4863 
L 1159 4863 
L 1159 2969 
z
" transform="scale(0.015625)"/>
      <path id="DejaVuSans-69" d="M 603 3500 
L 1178 3500 
L 1178 0 
L 603 0 
L 603 3500 
z
M 603 4863 
L 1178 4863 
L 1178 4134 
L 603 4134 
L 603 4863 
z
" transform="scale(0.015625)"/>
      <path id="DejaVuSans-79" d="M 2059 -325 
Q 1816 -950 1584 -1140 
Q 1353 -1331 966 -1331 
L 506 -1331 
L 506 -850 
L 844 -850 
Q 1081 -850 1212 -737 
Q 1344 -625 1503 -206 
L 1606 56 
L 191 3500 
L 800 3500 
L 1894 763 
L 2988 3500 
L 3597 3500 
L 2059 -325 
z
" transform="scale(0.015625)"/>
      <path id="DejaVuSans-53" d="M 3425 4513 
L 3425 3897 
Q 3066 4069 2747 4153 
Q 2428 4238 2131 4238 
Q 1616 4238 1336 4038 
Q 1056 3838 1056 3469 
Q 1056 3159 1242 3001 
Q 1428 2844 1947 2747 
L 2328 2669 
Q 3034 2534 3370 2195 
Q 3706 1856 3706 1288 
Q 3706 609 3251 259 
Q 2797 -91 1919 -91 
Q 1588 -91 1214 -16 
Q 841 59 441 206 
L 441 856 
Q 825 641 1194 531 
Q 1563 422 1919 422 
Q 2459 422 2753 634 
Q 3047 847 3047 1241 
Q 3047 1584 2836 1778 
Q 2625 1972 2144 2069 
L 1759 2144 
Q 1053 2284 737 2584 
Q 422 2884 422 3419 
Q 422 4038 858 4394 
Q 1294 4750 2059 4750 
Q 2388 4750 2728 4690 
Q 3069 4631 3425 4513 
z
" transform="scale(0.015625)"/>
      <path id="DejaVuSans-63" d="M 3122 3366 
L 3122 2828 
Q 2878 2963 2633 3030 
Q 2388 3097 2138 3097 
Q 1578 3097 1268 2742 
Q 959 2388 959 1747 
Q 959 1106 1268 751 
Q 1578 397 2138 397 
Q 2388 397 2633 464 
Q 2878 531 3122 666 
L 3122 134 
Q 2881 22 2623 -34 
Q 2366 -91 2075 -91 
Q 1284 -91 818 406 
Q 353 903 353 1747 
Q 353 2603 823 3093 
Q 1294 3584 2113 3584 
Q 2378 3584 2631 3529 
Q 2884 3475 3122 3366 
z
" transform="scale(0.015625)"/>
      <path id="DejaVuSans-6c" d="M 603 4863 
L 1178 4863 
L 1178 0 
L 603 0 
L 603 4863 
z
" transform="scale(0.015625)"/>
      <path id="DejaVuSans-65" d="M 3597 1894 
L 3597 1613 
L 953 1613 
Q 991 1019 1311 708 
Q 1631 397 2203 397 
Q 2534 397 2845 478 
Q 3156 559 3463 722 
L 3463 178 
Q 3153 47 2828 -22 
Q 2503 -91 2169 -91 
Q 1331 -91 842 396 
Q 353 884 353 1716 
Q 353 2575 817 3079 
Q 1281 3584 2069 3584 
Q 2775 3584 3186 3129 
Q 3597 2675 3597 1894 
z
M 3022 2063 
Q 3016 2534 2758 2815 
Q 2500 3097 2075 3097 
Q 1594 3097 1305 2825 
Q 1016 2553 972 2059 
L 3022 2063 
z
" transform="scale(0.015625)"/>
      <path id="DejaVuSans-29" d="M 513 4856 
L 1013 4856 
Q 1481 4119 1714 3412 
Q 1947 2706 1947 2009 
Q 1947 1309 1714 600 
Q 1481 -109 1013 -844 
L 513 -844 
Q 928 -128 1133 580 
Q 1338 1288 1338 2009 
Q 1338 2731 1133 3434 
Q 928 4138 513 4856 
z
" transform="scale(0.015625)"/>
     </defs>
     <use xlink:href="#DejaVuSans-52"/>
     <use xlink:href="#DejaVuSans-61" transform="translate(67.232422 0)"/>
     <use xlink:href="#DejaVuSans-77" transform="translate(128.511719 0)"/>
     <use xlink:href="#DejaVuSans-20" transform="translate(210.298828 0)"/>
     <use xlink:href="#DejaVuSans-44" transform="translate(242.085938 0)"/>
     <use xlink:href="#DejaVuSans-61" transform="translate(319.087891 0)"/>
     <use xlink:href="#DejaVuSans-74" transform="translate(380.367188 0)"/>
     <use xlink:href="#DejaVuSans-61" transform="translate(419.576172 0)"/>
     <use xlink:href="#DejaVuSans-20" transform="translate(480.855469 0)"/>
     <use xlink:href="#DejaVuSans-28" transform="translate(512.642578 0)"/>
     <use xlink:href="#DejaVuSans-41" transform="translate(551.65625 0)"/>
     <use xlink:href="#DejaVuSans-72" transform="translate(620.064453 0)"/>
     <use xlink:href="#DejaVuSans-62" transform="translate(661.177734 0)"/>
     <use xlink:href="#DejaVuSans-69" transform="translate(724.654297 0)"/>
     <use xlink:href="#DejaVuSans-74" transform="translate(752.4375 0)"/>
     <use xlink:href="#DejaVuSans-72" transform="translate(791.646484 0)"/>
     <use xlink:href="#DejaVuSans-61" transform="translate(832.759766 0)"/>
     <use xlink:href="#DejaVuSans-72" transform="translate(894.039062 0)"/>
     <use xlink:href="#DejaVuSans-79" transform="translate(935.152344 0)"/>
     <use xlink:href="#DejaVuSans-20" transform="translate(994.332031 0)"/>
     <use xlink:href="#DejaVuSans-53" transform="translate(1026.119141 0)"/>
     <use xlink:href="#DejaVuSans-63" transform="translate(1089.595703 0)"/>
     <use xlink:href="#DejaVuSans-61" transform="translate(1144.576172 0)"/>
     <use xlink:href="#DejaVuSans-6c" transform="translate(1205.855469 0)"/>
     <use xlink:href="#DejaVuSans-65" transform="translate(1233.638672 0)"/>
     <use xlink:href="#DejaVuSans-29" transform="translate(1295.162109 0)"/>
    </g>
   </g>
  </g>
  <g id="axes_2">
   <g id="patch_7">
    <path d="M 402.74 255.7 
L 707.4 255.7 
L 707.4 38.4 
L 402.74 38.4 
L 402.74 255.7 
z
" style="fill: none"/>
   </g>
   <g id="matplotlib.axis_3">
    <g id="xtick_7">
     <g id="line2d_28">
      <path d="M 416.588182 255.7 
L 416.588182 38.4 
" clip-path="url(#p59f281eb39)" style="fill: none; stroke: #cbcbcb"/>
     </g>
     <g id="line2d_29"/>
     <g id="text_15">
      <!-- 0 -->
      <g style="fill: #cccccc" transform="translate(412.134432 269.837812) scale(0.14 -0.14)">
       <use xlink:href="#DejaVuSans-30"/>
      </g>
     </g>
    </g>
    <g id="xtick_8">
     <g id="line2d_30">
      <path d="M 471.980909 255.7 
L 471.980909 38.4 
" clip-path="url(#p59f281eb39)" style="fill: none; stroke: #cbcbcb"/>
     </g>
     <g id="line2d_31"/>
     <g id="text_16">
      <!-- 2 -->
      <g style="fill: #cccccc" transform="translate(467.527159 269.837812) scale(0.14 -0.14)">
       <use xlink:href="#DejaVuSans-32"/>
      </g>
     </g>
    </g>
    <g id="xtick_9">
     <g id="line2d_32">
      <path d="M 527.373636 255.7 
L 527.373636 38.4 
" clip-path="url(#p59f281eb39)" style="fill: none; stroke: #cbcbcb"/>
     </g>
     <g id="line2d_33"/>
     <g id="text_17">
      <!-- 4 -->
      <g style="fill: #cccccc" transform="translate(522.919886 269.837812) scale(0.14 -0.14)">
       <use xlink:href="#DejaVuSans-34"/>
      </g>
     </g>
    </g>
    <g id="xtick_10">
     <g id="line2d_34">
      <path d="M 582.766364 255.7 
L 582.766364 38.4 
" clip-path="url(#p59f281eb39)" style="fill: none; stroke: #cbcbcb"/>
     </g>
     <g id="line2d_35"/>
     <g id="text_18">
      <!-- 6 -->
      <g style="fill: #cccccc" transform="translate(578.312614 269.837812) scale(0.14 -0.14)">
       <use xlink:href="#DejaVuSans-36"/>
      </g>
     </g>
    </g>
    <g id="xtick_11">
     <g id="line2d_36">
      <path d="M 638.159091 255.7 
L 638.159091 38.4 
" clip-path="url(#p59f281eb39)" style="fill: none; stroke: #cbcbcb"/>
     </g>
     <g id="line2d_37"/>
     <g id="text_19">
      <!-- 8 -->
      <g style="fill: #cccccc" transform="translate(633.705341 269.837812) scale(0.14 -0.14)">
       <use xlink:href="#DejaVuSans-38"/>
      </g>
     </g>
    </g>
    <g id="xtick_12">
     <g id="line2d_38">
      <path d="M 693.551818 255.7 
L 693.551818 38.4 
" clip-path="url(#p59f281eb39)" style="fill: none; stroke: #cbcbcb"/>
     </g>
     <g id="line2d_39"/>
     <g id="text_20">
      <!-- 10 -->
      <g style="fill: #cccccc" transform="translate(684.644318 269.837812) scale(0.14 -0.14)">
       <use xlink:href="#DejaVuSans-31"/>
       <use xlink:href="#DejaVuSans-30" transform="translate(63.623047 0)"/>
      </g>
     </g>
    </g>
   </g>
   <g id="matplotlib.axis_4">
    <g id="ytick_8">
     <g id="line2d_40">
      <path d="M 402.74 237.591667 
L 707.4 237.591667 
" clip-path="url(#p59f281eb39)" style="fill: none; stroke: #cbcbcb"/>
     </g>
     <g id="line2d_41"/>
     <g id="text_21">
      <!-- 0.0 -->
      <g style="fill: #cccccc" transform="translate(376.975625 242.910573) scale(0.14 -0.14)">
       <defs>
        <path id="DejaVuSans-2e" d="M 684 794 
L 1344 794 
L 1344 0 
L 684 0 
L 684 794 
z
" transform="scale(0.015625)"/>
       </defs>
       <use xlink:href="#DejaVuSans-30"/>
       <use xlink:href="#DejaVuSans-2e" transform="translate(63.623047 0)"/>
       <use xlink:href="#DejaVuSans-30" transform="translate(95.410156 0)"/>
      </g>
     </g>
    </g>
    <g id="ytick_9">
     <g id="line2d_42">
      <path d="M 402.74 201.375 
L 707.4 201.375 
" clip-path="url(#p59f281eb39)" style="fill: none; stroke: #cbcbcb"/>
     </g>
     <g id="line2d_43"/>
     <g id="text_22">
      <!-- 0.2 -->
      <g style="fill: #cccccc" transform="translate(376.975625 206.693906) scale(0.14 -0.14)">
       <use xlink:href="#DejaVuSans-30"/>
       <use xlink:href="#DejaVuSans-2e" transform="translate(63.623047 0)"/>
       <use xlink:href="#DejaVuSans-32" transform="translate(95.410156 0)"/>
      </g>
     </g>
    </g>
    <g id="ytick_10">
     <g id="line2d_44">
      <path d="M 402.74 165.158333 
L 707.4 165.158333 
" clip-path="url(#p59f281eb39)" style="fill: none; stroke: #cbcbcb"/>
     </g>
     <g id="line2d_45"/>
     <g id="text_23">
      <!-- 0.4 -->
      <g style="fill: #cccccc" transform="translate(376.975625 170.47724) scale(0.14 -0.14)">
       <use xlink:href="#DejaVuSans-30"/>
       <use xlink:href="#DejaVuSans-2e" transform="translate(63.623047 0)"/>
       <use xlink:href="#DejaVuSans-34" transform="translate(95.410156 0)"/>
      </g>
     </g>
    </g>
    <g id="ytick_11">
     <g id="line2d_46">
      <path d="M 402.74 128.941667 
L 707.4 128.941667 
" clip-path="url(#p59f281eb39)" style="fill: none; stroke: #cbcbcb"/>
     </g>
     <g id="line2d_47"/>
     <g id="text_24">
      <!-- 0.6 -->
      <g style="fill: #cccccc" transform="translate(376.975625 134.260573) scale(0.14 -0.14)">
       <use xlink:href="#DejaVuSans-30"/>
       <use xlink:href="#DejaVuSans-2e" transform="translate(63.623047 0)"/>
       <use xlink:href="#DejaVuSans-36" transform="translate(95.410156 0)"/>
      </g>
     </g>
    </g>
    <g id="ytick_12">
     <g id="line2d_48">
      <path d="M 402.74 92.725 
L 707.4 92.725 
" clip-path="url(#p59f281eb39)" style="fill: none; stroke: #cbcbcb"/>
     </g>
     <g id="line2d_49"/>
     <g id="text_25">
      <!-- 0.8 -->
      <g style="fill: #cccccc" transform="translate(376.975625 98.043906) scale(0.14 -0.14)">
       <use xlink:href="#DejaVuSans-30"/>
       <use xlink:href="#DejaVuSans-2e" transform="translate(63.623047 0)"/>
       <use xlink:href="#DejaVuSans-38" transform="translate(95.410156 0)"/>
      </g>
     </g>
    </g>
    <g id="ytick_13">
     <g id="line2d_50">
      <path d="M 402.74 56.508333 
L 707.4 56.508333 
" clip-path="url(#p59f281eb39)" style="fill: none; stroke: #cbcbcb"/>
     </g>
     <g id="line2d_51"/>
     <g id="text_26">
      <!-- 1.0 -->
      <g style="fill: #cccccc" transform="translate(376.975625 61.82724) scale(0.14 -0.14)">
       <use xlink:href="#DejaVuSans-31"/>
       <use xlink:href="#DejaVuSans-2e" transform="translate(63.623047 0)"/>
       <use xlink:href="#DejaVuSans-30" transform="translate(95.410156 0)"/>
      </g>
     </g>
    </g>
   </g>
   <g id="line2d_52">
    <path d="M 416.588182 136.810092 
L 419.385794 137.89798 
L 422.183407 123.579525 
L 424.981019 130.772581 
L 427.778632 105.434724 
L 430.576244 115.720885 
L 433.373857 97.858494 
L 436.171469 92.834296 
L 438.969082 92.485818 
L 441.766694 60.163516 
L 444.564307 81.695485 
L 447.361919 70.048733 
L 450.159532 62.411077 
L 452.957144 77.347175 
L 455.754757 56.74678 
L 458.552369 66.86023 
L 461.349982 58.368442 
L 464.147594 73.439815 
L 466.945207 75.772851 
L 469.742819 61.297843 
L 472.540432 69.49336 
L 475.338044 75.803484 
L 478.135657 76.317196 
L 480.933269 82.019091 
L 483.730882 99.95881 
L 486.528494 113.758605 
L 489.326107 116.147996 
L 492.123719 123.664061 
L 494.921331 133.900394 
L 497.718944 129.459521 
L 500.516556 135.996488 
L 503.314169 139.860087 
L 506.111781 145.482291 
L 508.909394 157.394308 
L 511.707006 163.724747 
L 514.504619 168.370609 
L 517.302231 183.137141 
L 520.099844 187.457372 
L 522.897456 187.880335 
L 525.695069 198.71236 
L 528.492681 202.89611 
L 531.290294 203.803889 
L 534.087906 196.804004 
L 536.885519 207.445213 
L 539.683131 214.689357 
L 542.480744 218.157201 
L 545.278356 215.526957 
L 548.075969 198.085507 
L 550.873581 237.591667 
L 553.671194 208.761601 
L 556.468806 208.882586 
L 559.266419 201.300844 
L 562.064031 212.780937 
L 564.861644 184.286338 
L 567.659256 187.783485 
L 570.456869 190.266124 
L 573.254481 182.830259 
L 576.052094 183.048951 
L 578.849706 170.647634 
L 581.647319 165.090157 
L 584.444931 149.749577 
L 587.242544 146.703845 
L 590.040156 142.486987 
L 592.837769 129.297155 
L 595.635381 122.746615 
L 598.432994 117.909494 
L 601.230606 123.85071 
L 604.028219 97.967805 
L 606.825831 107.852905 
L 609.623444 100.634324 
L 612.421056 88.327617 
L 615.218669 78.697219 
L 618.016281 67.582117 
L 620.813893 86.835221 
L 623.611506 60.167656 
L 626.409118 56.508333 
L 629.206731 70.439013 
L 632.004343 67.551251 
L 634.801956 70.117811 
L 637.599568 70.918302 
L 640.397181 77.721507 
L 643.194793 82.390364 
L 645.992406 74.066061 
L 648.790018 74.129867 
L 651.587631 66.550216 
L 654.385243 92.369832 
L 657.182856 105.798093 
L 659.980468 94.937053 
L 662.778081 105.768503 
L 665.575693 106.293544 
L 668.373306 118.884612 
L 671.170918 132.523492 
L 673.968531 135.67171 
L 676.766143 132.057203 
L 679.563756 143.527911 
L 682.361368 160.244682 
L 685.158981 153.866226 
L 687.956593 178.271187 
L 690.754206 178.34948 
L 693.551818 179.388251 
" clip-path="url(#p59f281eb39)" style="fill: none; stroke: #2980b9; stroke-width: 4"/>
   </g>
   <g id="patch_8">
    <path d="M 402.74 255.7 
L 402.74 38.4 
" style="fill: none; stroke: #cccccc; stroke-width: 3; stroke-linejoin: miter; stroke-linecap: square"/>
   </g>
   <g id="patch_9">
    <path d="M 707.4 255.7 
L 707.4 38.4 
" style="fill: none; stroke: #cccccc; stroke-width: 3; stroke-linejoin: miter; stroke-linecap: square"/>
   </g>
   <g id="patch_10">
    <path d="M 402.74 255.7 
L 707.4 255.7 
" style="fill: none; stroke: #cccccc; stroke-width: 3; stroke-linejoin: miter; stroke-linecap: square"/>
   </g>
   <g id="patch_11">
    <path d="M 402.74 38.4 
L 707.4 38.4 
" style="fill: none; stroke: #cccccc; stroke-width: 3; stroke-linejoin: miter; stroke-linecap: square"/>
   </g>
   <g id="text_27">
    <!-- Min-Max Normalization (0 to 1) -->
    <g style="fill: #cccccc" transform="translate(399.033175 32.4) scale(0.2016 -0.2016)">
     <defs>
      <path id="DejaVuSans-4d" d="M 628 4666 
L 1569 4666 
L 2759 1491 
L 3956 4666 
L 4897 4666 
L 4897 0 
L 4281 0 
L 4281 4097 
L 3078 897 
L 2444 897 
L 1241 4097 
L 1241 0 
L 628 0 
L 628 4666 
z
" transform="scale(0.015625)"/>
      <path id="DejaVuSans-6e" d="M 3513 2113 
L 3513 0 
L 2938 0 
L 2938 2094 
Q 2938 2591 2744 2837 
Q 2550 3084 2163 3084 
Q 1697 3084 1428 2787 
Q 1159 2491 1159 1978 
L 1159 0 
L 581 0 
L 581 3500 
L 1159 3500 
L 1159 2956 
Q 1366 3272 1645 3428 
Q 1925 3584 2291 3584 
Q 2894 3584 3203 3211 
Q 3513 2838 3513 2113 
z
" transform="scale(0.015625)"/>
      <path id="DejaVuSans-2d" d="M 313 2009 
L 1997 2009 
L 1997 1497 
L 313 1497 
L 313 2009 
z
" transform="scale(0.015625)"/>
      <path id="DejaVuSans-78" d="M 3513 3500 
L 2247 1797 
L 3578 0 
L 2900 0 
L 1881 1375 
L 863 0 
L 184 0 
L 1544 1831 
L 300 3500 
L 978 3500 
L 1906 2253 
L 2834 3500 
L 3513 3500 
z
" transform="scale(0.015625)"/>
      <path id="DejaVuSans-4e" d="M 628 4666 
L 1478 4666 
L 3547 763 
L 3547 4666 
L 4159 4666 
L 4159 0 
L 3309 0 
L 1241 3903 
L 1241 0 
L 628 0 
L 628 4666 
z
" transform="scale(0.015625)"/>
      <path id="DejaVuSans-6f" d="M 1959 3097 
Q 1497 3097 1228 2736 
Q 959 2375 959 1747 
Q 959 1119 1226 758 
Q 1494 397 1959 397 
Q 2419 397 2687 759 
Q 2956 1122 2956 1747 
Q 2956 2369 2687 2733 
Q 2419 3097 1959 3097 
z
M 1959 3584 
Q 2709 3584 3137 3096 
Q 3566 2609 3566 1747 
Q 3566 888 3137 398 
Q 2709 -91 1959 -91 
Q 1206 -91 779 398 
Q 353 888 353 1747 
Q 353 2609 779 3096 
Q 1206 3584 1959 3584 
z
" transform="scale(0.015625)"/>
      <path id="DejaVuSans-6d" d="M 3328 2828 
Q 3544 3216 3844 3400 
Q 4144 3584 4550 3584 
Q 5097 3584 5394 3201 
Q 5691 2819 5691 2113 
L 5691 0 
L 5113 0 
L 5113 2094 
Q 5113 2597 4934 2840 
Q 4756 3084 4391 3084 
Q 3944 3084 3684 2787 
Q 3425 2491 3425 1978 
L 3425 0 
L 2847 0 
L 2847 2094 
Q 2847 2600 2669 2842 
Q 2491 3084 2119 3084 
Q 1678 3084 1418 2786 
Q 1159 2488 1159 1978 
L 1159 0 
L 581 0 
L 581 3500 
L 1159 3500 
L 1159 2956 
Q 1356 3278 1631 3431 
Q 1906 3584 2284 3584 
Q 2666 3584 2933 3390 
Q 3200 3197 3328 2828 
z
" transform="scale(0.015625)"/>
      <path id="DejaVuSans-7a" d="M 353 3500 
L 3084 3500 
L 3084 2975 
L 922 459 
L 3084 459 
L 3084 0 
L 275 0 
L 275 525 
L 2438 3041 
L 353 3041 
L 353 3500 
z
" transform="scale(0.015625)"/>
     </defs>
     <use xlink:href="#DejaVuSans-4d"/>
     <use xlink:href="#DejaVuSans-69" transform="translate(86.279297 0)"/>
     <use xlink:href="#DejaVuSans-6e" transform="translate(114.0625 0)"/>
     <use xlink:href="#DejaVuSans-2d" transform="translate(177.441406 0)"/>
     <use xlink:href="#DejaVuSans-4d" transform="translate(213.525391 0)"/>
     <use xlink:href="#DejaVuSans-61" transform="translate(299.804688 0)"/>
     <use xlink:href="#DejaVuSans-78" transform="translate(361.083984 0)"/>
     <use xlink:href="#DejaVuSans-20" transform="translate(420.263672 0)"/>
     <use xlink:href="#DejaVuSans-4e" transform="translate(452.050781 0)"/>
     <use xlink:href="#DejaVuSans-6f" transform="translate(526.855469 0)"/>
     <use xlink:href="#DejaVuSans-72" transform="translate(588.037109 0)"/>
     <use xlink:href="#DejaVuSans-6d" transform="translate(627.400391 0)"/>
     <use xlink:href="#DejaVuSans-61" transform="translate(724.8125 0)"/>
     <use xlink:href="#DejaVuSans-6c" transform="translate(786.091797 0)"/>
     <use xlink:href="#DejaVuSans-69" transform="translate(813.875 0)"/>
     <use xlink:href="#DejaVuSans-7a" transform="translate(841.658203 0)"/>
     <use xlink:href="#DejaVuSans-61" transform="translate(894.148438 0)"/>
     <use xlink:href="#DejaVuSans-74" transform="translate(955.427734 0)"/>
     <use xlink:href="#DejaVuSans-69" transform="translate(994.636719 0)"/>
     <use xlink:href="#DejaVuSans-6f" transform="translate(1022.419922 0)"/>
     <use xlink:href="#DejaVuSans-6e" transform="translate(1083.601562 0)"/>
     <use xlink:href="#DejaVuSans-20" transform="translate(1146.980469 0)"/>
     <use xlink:href="#DejaVuSans-28" transform="translate(1178.767578 0)"/>
     <use xlink:href="#DejaVuSans-30" transform="translate(1217.78125 0)"/>
     <use xlink:href="#DejaVuSans-20" transform="translate(1281.404297 0)"/>
     <use xlink:href="#DejaVuSans-74" transform="translate(1313.191406 0)"/>
     <use xlink:href="#DejaVuSans-6f" transform="translate(1352.400391 0)"/>
     <use xlink:href="#DejaVuSans-20" transform="translate(1413.582031 0)"/>
     <use xlink:href="#DejaVuSans-31" transform="translate(1445.369141 0)"/>
     <use xlink:href="#DejaVuSans-29" transform="translate(1508.992188 0)"/>
    </g>
   </g>
  </g>
  <g id="axes_3">
   <g id="patch_12">
    <path d="M 760.22 255.7 
L 1064.88 255.7 
L 1064.88 38.4 
L 760.22 38.4 
L 760.22 255.7 
z
" style="fill: none"/>
   </g>
   <g id="matplotlib.axis_5">
    <g id="xtick_13">
     <g id="line2d_53">
      <path d="M 774.068182 255.7 
L 774.068182 38.4 
" clip-path="url(#pa014feccc1)" style="fill: none; stroke: #cbcbcb"/>
     </g>
     <g id="line2d_54"/>
     <g id="text_28">
      <!-- 0 -->
      <g style="fill: #cccccc" transform="translate(769.614432 269.837812) scale(0.14 -0.14)">
       <use xlink:href="#DejaVuSans-30"/>
      </g>
     </g>
    </g>
    <g id="xtick_14">
     <g id="line2d_55">
      <path d="M 829.460909 255.7 
L 829.460909 38.4 
" clip-path="url(#pa014feccc1)" style="fill: none; stroke: #cbcbcb"/>
     </g>
     <g id="line2d_56"/>
     <g id="text_29">
      <!-- 2 -->
      <g style="fill: #cccccc" transform="translate(825.007159 269.837812) scale(0.14 -0.14)">
       <use xlink:href="#DejaVuSans-32"/>
      </g>
     </g>
    </g>
    <g id="xtick_15">
     <g id="line2d_57">
      <path d="M 884.853636 255.7 
L 884.853636 38.4 
" clip-path="url(#pa014feccc1)" style="fill: none; stroke: #cbcbcb"/>
     </g>
     <g id="line2d_58"/>
     <g id="text_30">
      <!-- 4 -->
      <g style="fill: #cccccc" transform="translate(880.399886 269.837812) scale(0.14 -0.14)">
       <use xlink:href="#DejaVuSans-34"/>
      </g>
     </g>
    </g>
    <g id="xtick_16">
     <g id="line2d_59">
      <path d="M 940.246364 255.7 
L 940.246364 38.4 
" clip-path="url(#pa014feccc1)" style="fill: none; stroke: #cbcbcb"/>
     </g>
     <g id="line2d_60"/>
     <g id="text_31">
      <!-- 6 -->
      <g style="fill: #cccccc" transform="translate(935.792614 269.837812) scale(0.14 -0.14)">
       <use xlink:href="#DejaVuSans-36"/>
      </g>
     </g>
    </g>
    <g id="xtick_17">
     <g id="line2d_61">
      <path d="M 995.639091 255.7 
L 995.639091 38.4 
" clip-path="url(#pa014feccc1)" style="fill: none; stroke: #cbcbcb"/>
     </g>
     <g id="line2d_62"/>
     <g id="text_32">
      <!-- 8 -->
      <g style="fill: #cccccc" transform="translate(991.185341 269.837812) scale(0.14 -0.14)">
       <use xlink:href="#DejaVuSans-38"/>
      </g>
     </g>
    </g>
    <g id="xtick_18">
     <g id="line2d_63">
      <path d="M 1051.031818 255.7 
L 1051.031818 38.4 
" clip-path="url(#pa014feccc1)" style="fill: none; stroke: #cbcbcb"/>
     </g>
     <g id="line2d_64"/>
     <g id="text_33">
      <!-- 10 -->
      <g style="fill: #cccccc" transform="translate(1042.124318 269.837812) scale(0.14 -0.14)">
       <use xlink:href="#DejaVuSans-31"/>
       <use xlink:href="#DejaVuSans-30" transform="translate(63.623047 0)"/>
      </g>
     </g>
    </g>
   </g>
   <g id="matplotlib.axis_6">
    <g id="ytick_14">
     <g id="line2d_65">
      <path d="M 760.22 235.083788 
L 1064.88 235.083788 
" clip-path="url(#pa014feccc1)" style="fill: none; stroke: #cbcbcb"/>
     </g>
     <g id="line2d_66"/>
     <g id="text_34">
      <!-- −2 -->
      <g style="fill: #cccccc" transform="translate(736.080938 240.402695) scale(0.14 -0.14)">
       <defs>
        <path id="DejaVuSans-2212" d="M 678 2272 
L 4684 2272 
L 4684 1741 
L 678 1741 
L 678 2272 
z
" transform="scale(0.015625)"/>
       </defs>
       <use xlink:href="#DejaVuSans-2212"/>
       <use xlink:href="#DejaVuSans-32" transform="translate(83.789062 0)"/>
      </g>
     </g>
    </g>
    <g id="ytick_15">
     <g id="line2d_67">
      <path d="M 760.22 180.708261 
L 1064.88 180.708261 
" clip-path="url(#pa014feccc1)" style="fill: none; stroke: #cbcbcb"/>
     </g>
     <g id="line2d_68"/>
     <g id="text_35">
      <!-- −1 -->
      <g style="fill: #cccccc" transform="translate(736.080938 186.027167) scale(0.14 -0.14)">
       <use xlink:href="#DejaVuSans-2212"/>
       <use xlink:href="#DejaVuSans-31" transform="translate(83.789062 0)"/>
      </g>
     </g>
    </g>
    <g id="ytick_16">
     <g id="line2d_69">
      <path d="M 760.22 126.332733 
L 1064.88 126.332733 
" clip-path="url(#pa014feccc1)" style="fill: none; stroke: #cbcbcb"/>
     </g>
     <g id="line2d_70"/>
     <g id="text_36">
      <!-- 0 -->
      <g style="fill: #cccccc" transform="translate(747.8125 131.651639) scale(0.14 -0.14)">
       <use xlink:href="#DejaVuSans-30"/>
      </g>
     </g>
    </g>
    <g id="ytick_17">
     <g id="line2d_71">
      <path d="M 760.22 71.957205 
L 1064.88 71.957205 
" clip-path="url(#pa014feccc1)" style="fill: none; stroke: #cbcbcb"/>
     </g>
     <g id="line2d_72"/>
     <g id="text_37">
      <!-- 1 -->
      <g style="fill: #cccccc" transform="translate(747.8125 77.276111) scale(0.14 -0.14)">
       <use xlink:href="#DejaVuSans-31"/>
      </g>
     </g>
    </g>
   </g>
   <g id="line2d_73">
    <path d="M 774.068182 135.879191 
L 776.865794 137.065979 
L 779.663407 121.445845 
L 782.461019 129.292815 
L 785.258632 101.651517 
L 788.056244 112.872784 
L 790.853857 93.386539 
L 793.651469 87.905595 
L 796.449082 87.525438 
L 799.246694 52.264745 
L 802.044307 75.754165 
L 804.841919 63.048618 
L 807.639532 54.716629 
L 810.437144 71.010554 
L 813.234757 48.537396 
L 816.032369 59.570251 
L 818.829982 50.306482 
L 821.627594 66.74798 
L 824.425207 69.29311 
L 827.222819 53.502193 
L 830.020432 62.442757 
L 832.818044 69.326528 
L 835.615657 69.886941 
L 838.413269 76.10719 
L 841.210882 95.677793 
L 844.008494 110.732115 
L 846.806107 113.338723 
L 849.603719 121.538067 
L 852.401331 132.704976 
L 855.198944 127.860387 
L 857.996556 134.991624 
L 860.794169 139.206459 
L 863.591781 145.339772 
L 866.389394 158.3347 
L 869.187006 165.240633 
L 871.984619 170.308846 
L 874.782231 186.41779 
L 877.579844 191.13077 
L 880.377456 191.592183 
L 883.175069 203.408938 
L 885.972681 207.973029 
L 888.770294 208.963334 
L 891.567906 201.327095 
L 894.365519 212.935687 
L 897.163131 220.838389 
L 899.960744 224.621492 
L 902.758356 221.752135 
L 905.555969 202.725099 
L 908.353581 245.822727 
L 911.151194 214.371746 
L 913.948806 214.50373 
L 916.746419 206.232739 
L 919.544031 218.756477 
L 922.341644 187.67146 
L 925.139256 191.486529 
L 927.936869 194.194863 
L 930.734481 186.08301 
L 933.532094 186.321583 
L 936.329706 172.792873 
L 939.127319 166.730171 
L 941.924931 149.994993 
L 944.722544 146.672376 
L 947.520156 142.072168 
L 950.317769 127.683261 
L 953.115381 120.537216 
L 955.912994 115.260357 
L 958.710606 121.741683 
L 961.508219 93.505788 
L 964.305831 104.289533 
L 967.103444 96.414717 
L 969.901056 82.989219 
L 972.698669 72.48333 
L 975.496281 60.357764 
L 978.293893 81.36115 
L 981.091506 52.269261 
L 983.889118 48.277273 
L 986.686731 63.474377 
L 989.484343 60.324091 
L 992.281956 63.123975 
L 995.079568 63.997239 
L 997.877181 71.418917 
L 1000.674793 76.512215 
L 1003.472406 67.431157 
L 1006.270018 67.500764 
L 1009.067631 59.232054 
L 1011.865243 87.398908 
L 1014.662856 102.04792 
L 1017.460468 90.199512 
L 1020.258081 102.01564 
L 1023.055693 102.588411 
L 1025.853306 116.324122 
L 1028.650918 131.2029 
L 1031.448531 134.637319 
L 1034.246143 130.694222 
L 1037.043756 143.207721 
L 1039.841368 161.444199 
L 1042.638981 154.485883 
L 1045.436593 181.109476 
L 1048.234206 181.194887 
L 1051.031818 182.328092 
" clip-path="url(#pa014feccc1)" style="fill: none; stroke: #27ae60; stroke-width: 4"/>
   </g>
   <g id="line2d_74">
    <path d="M 760.22 126.332733 
L 1064.88 126.332733 
" clip-path="url(#pa014feccc1)" style="fill: none; stroke-dasharray: 14.8,6.4; stroke-dashoffset: 0; stroke: #808080; stroke-width: 4"/>
   </g>
   <g id="patch_13">
    <path d="M 760.22 255.7 
L 760.22 38.4 
" style="fill: none; stroke: #cccccc; stroke-width: 3; stroke-linejoin: miter; stroke-linecap: square"/>
   </g>
   <g id="patch_14">
    <path d="M 1064.88 255.7 
L 1064.88 38.4 
" style="fill: none; stroke: #cccccc; stroke-width: 3; stroke-linejoin: miter; stroke-linecap: square"/>
   </g>
   <g id="patch_15">
    <path d="M 760.22 255.7 
L 1064.88 255.7 
" style="fill: none; stroke: #cccccc; stroke-width: 3; stroke-linejoin: miter; stroke-linecap: square"/>
   </g>
   <g id="patch_16">
    <path d="M 760.22 38.4 
L 1064.88 38.4 
" style="fill: none; stroke: #cccccc; stroke-width: 3; stroke-linejoin: miter; stroke-linecap: square"/>
   </g>
   <g id="text_38">
    <!-- Z-Score / Sub-mean ($μ=0, σ=1$) -->
    <g style="fill: #cccccc" transform="translate(745.8268 32.4) scale(0.2016 -0.2016)">
     <defs>
      <path id="DejaVuSans-5a" d="M 359 4666 
L 4025 4666 
L 4025 4184 
L 1075 531 
L 4097 531 
L 4097 0 
L 288 0 
L 288 481 
L 3238 4134 
L 359 4134 
L 359 4666 
z
" transform="scale(0.015625)"/>
      <path id="DejaVuSans-2f" d="M 1625 4666 
L 2156 4666 
L 531 -594 
L 0 -594 
L 1625 4666 
z
" transform="scale(0.015625)"/>
      <path id="DejaVuSans-75" d="M 544 1381 
L 544 3500 
L 1119 3500 
L 1119 1403 
Q 1119 906 1312 657 
Q 1506 409 1894 409 
Q 2359 409 2629 706 
Q 2900 1003 2900 1516 
L 2900 3500 
L 3475 3500 
L 3475 0 
L 2900 0 
L 2900 538 
Q 2691 219 2414 64 
Q 2138 -91 1772 -91 
Q 1169 -91 856 284 
Q 544 659 544 1381 
z
M 1991 3584 
L 1991 3584 
z
" transform="scale(0.015625)"/>
      <path id="DejaVuSans-Oblique-3bc" d="M -84 -1331 
L 856 3500 
L 1434 3500 
L 1009 1322 
Q 997 1256 987 1175 
Q 978 1094 978 1013 
Q 978 722 1161 565 
Q 1344 409 1684 409 
Q 2147 409 2431 671 
Q 2716 934 2816 1459 
L 3213 3500 
L 3788 3500 
L 3266 809 
Q 3253 750 3248 706 
Q 3244 663 3244 628 
Q 3244 531 3283 486 
Q 3322 441 3406 441 
Q 3438 441 3492 456 
Q 3547 472 3647 513 
L 3559 50 
Q 3422 -19 3297 -55 
Q 3172 -91 3053 -91 
Q 2847 -91 2730 40 
Q 2613 172 2613 403 
Q 2438 153 2195 31 
Q 1953 -91 1625 -91 
Q 1334 -91 1117 43 
Q 900 178 831 397 
L 494 -1331 
L -84 -1331 
z
" transform="scale(0.015625)"/>
      <path id="DejaVuSans-3d" d="M 678 2906 
L 4684 2906 
L 4684 2381 
L 678 2381 
L 678 2906 
z
M 678 1631 
L 4684 1631 
L 4684 1100 
L 678 1100 
L 678 1631 
z
" transform="scale(0.015625)"/>
      <path id="DejaVuSans-2c" d="M 750 794 
L 1409 794 
L 1409 256 
L 897 -744 
L 494 -744 
L 750 256 
L 750 794 
z
" transform="scale(0.015625)"/>
      <path id="DejaVuSans-Oblique-3c3" d="M 2219 3044 
Q 1744 3044 1422 2700 
Q 1081 2341 969 1747 
Q 844 1119 1044 756 
Q 1241 397 1706 397 
Q 2166 397 2503 759 
Q 2844 1122 2966 1747 
Q 3075 2319 2881 2700 
Q 2700 3044 2219 3044 
z
M 2309 3503 
L 4219 3500 
L 4106 2925 
L 3463 2925 
Q 3706 2438 3575 1747 
Q 3406 888 2884 400 
Q 2359 -91 1609 -91 
Q 856 -91 525 400 
Q 194 888 363 1747 
Q 528 2609 1050 3097 
Q 1484 3503 2309 3503 
z
" transform="scale(0.015625)"/>
     </defs>
     <use xlink:href="#DejaVuSans-5a" transform="translate(0 0.015625)"/>
     <use xlink:href="#DejaVuSans-2d" transform="translate(68.505859 0.015625)"/>
     <use xlink:href="#DejaVuSans-53" transform="translate(104.589844 0.015625)"/>
     <use xlink:href="#DejaVuSans-63" transform="translate(168.066406 0.015625)"/>
     <use xlink:href="#DejaVuSans-6f" transform="translate(223.046875 0.015625)"/>
     <use xlink:href="#DejaVuSans-72" transform="translate(284.228516 0.015625)"/>
     <use xlink:href="#DejaVuSans-65" transform="translate(325.341797 0.015625)"/>
     <use xlink:href="#DejaVuSans-20" transform="translate(386.865234 0.015625)"/>
     <use xlink:href="#DejaVuSans-2f" transform="translate(418.652344 0.015625)"/>
     <use xlink:href="#DejaVuSans-20" transform="translate(452.34375 0.015625)"/>
     <use xlink:href="#DejaVuSans-53" transform="translate(484.130859 0.015625)"/>
     <use xlink:href="#DejaVuSans-75" transform="translate(547.607422 0.015625)"/>
     <use xlink:href="#DejaVuSans-62" transform="translate(610.986328 0.015625)"/>
     <use xlink:href="#DejaVuSans-2d" transform="translate(674.462891 0.015625)"/>
     <use xlink:href="#DejaVuSans-6d" transform="translate(708.796875 0.015625)"/>
     <use xlink:href="#DejaVuSans-65" transform="translate(806.208984 0.015625)"/>
     <use xlink:href="#DejaVuSans-61" transform="translate(867.732422 0.015625)"/>
     <use xlink:href="#DejaVuSans-6e" transform="translate(929.011719 0.015625)"/>
     <use xlink:href="#DejaVuSans-20" transform="translate(992.390625 0.015625)"/>
     <use xlink:href="#DejaVuSans-28" transform="translate(1024.177734 0.015625)"/>
     <use xlink:href="#DejaVuSans-Oblique-3bc" transform="translate(1063.191406 0.015625)"/>
     <use xlink:href="#DejaVuSans-3d" transform="translate(1146.296875 0.015625)"/>
     <use xlink:href="#DejaVuSans-30" transform="translate(1249.568359 0.015625)"/>
     <use xlink:href="#DejaVuSans-2c" transform="translate(1313.191406 0.015625)"/>
     <use xlink:href="#DejaVuSans-Oblique-3c3" transform="translate(1364.460938 0.015625)"/>
     <use xlink:href="#DejaVuSans-3d" transform="translate(1447.322266 0.015625)"/>
     <use xlink:href="#DejaVuSans-31" transform="translate(1550.59375 0.015625)"/>
     <use xlink:href="#DejaVuSans-29" transform="translate(1614.216797 0.015625)"/>
    </g>
   </g>
  </g>
 </g>
 <defs>
  <clipPath id="pf94e058ae8">
   <rect x="45.26" y="38.4" width="304.66" height="217.3"/>
  </clipPath>
  <clipPath id="p59f281eb39">
   <rect x="402.74" y="38.4" width="304.66" height="217.3"/>
  </clipPath>
  <clipPath id="pa014feccc1">
   <rect x="760.22" y="38.4" width="304.66" height="217.3"/>
  </clipPath>
 </defs>
</svg>
