<?xml version="1.0" encoding="utf-8" standalone="no"?>
<!DOCTYPE svg PUBLIC "-//W3C//DTD SVG 1.1//EN"
  "http://www.w3.org/Graphics/SVG/1.1/DTD/svg11.dtd">
<svg xmlns:xlink="http://www.w3.org/1999/xlink" width="576pt" height="288pt" viewBox="0 0 576 288" xmlns="http://www.w3.org/2000/svg" version="1.1">
 <metadata>
  <rdf:RDF xmlns:dc="http://purl.org/dc/elements/1.1/" xmlns:cc="http://creativecommons.org/ns#" xmlns:rdf="http://www.w3.org/1999/02/22-rdf-syntax-ns#">
   <cc:Work>
    <dc:type rdf:resource="http://purl.org/dc/dcmitype/StillImage"/>
    <dc:date>2026-03-21T17:23:26.214206</dc:date>
    <dc:format>image/svg+xml</dc:format>
    <dc:creator>
     <cc:Agent>
      <dc:title>Matplotlib v3.10.8, https://matplotlib.org/</dc:title>
     </cc:Agent>
    </dc:creator>
   </cc:Work>
  </rdf:RDF>
 </metadata>
 <defs>
  <style type="text/css">*{stroke-linejoin: round; stroke-linecap: butt}</style>
 </defs>
 <g id="figure_1">
  <g id="patch_1">
   <path d="M 0 288 
L 576 288 
L 576 0 
L 0 0 
L 0 288 
z
" style="fill: none"/>
  </g>
  <g id="axes_1">
   <g id="patch_2">
    <path d="M 61.41 232.116 
L 560.88 232.116 
L 560.88 36.96 
L 61.41 36.96 
L 61.41 232.116 
z
" style="fill: none"/>
   </g>
   <g id="matplotlib.axis_1">
    <g id="xtick_1">
     <g id="line2d_1">
      <path d="M 84.113182 232.116 
L 84.113182 36.96 
" clip-path="url(#p822f570ac9)" style="fill: none; stroke: #cbcbcb"/>
     </g>
     <g id="line2d_2"/>
     <g id="text_1">
      <!-- 500 -->
      <g transform="translate(70.751932 246.253813) scale(0.14 -0.14)">
       <defs>
        <path id="DejaVuSans-35" d="M 691 4666 
L 3169 4666 
L 3169 4134 
L 1269 4134 
L 1269 2991 
Q 1406 3038 1543 3061 
Q 1681 3084 1819 3084 
Q 2600 3084 3056 2656 
Q 3513 2228 3513 1497 
Q 3513 744 3044 326 
Q 2575 -91 1722 -91 
Q 1428 -91 1123 -41 
Q 819 9 494 109 
L 494 744 
Q 775 591 1075 516 
Q 1375 441 1709 441 
Q 2250 441 2565 725 
Q 2881 1009 2881 1497 
Q 2881 1984 2565 2268 
Q 2250 2553 1709 2553 
Q 1456 2553 1204 2497 
Q 953 2441 691 2322 
L 691 4666 
z
" transform="scale(0.015625)"/>
        <path id="DejaVuSans-30" d="M 2034 4250 
Q 1547 4250 1301 3770 
Q 1056 3291 1056 2328 
Q 1056 1369 1301 889 
Q 1547 409 2034 409 
Q 2525 409 2770 889 
Q 3016 1369 3016 2328 
Q 3016 3291 2770 3770 
Q 2525 4250 2034 4250 
z
M 2034 4750 
Q 2819 4750 3233 4129 
Q 3647 3509 3647 2328 
Q 3647 1150 3233 529 
Q 2819 -91 2034 -91 
Q 1250 -91 836 529 
Q 422 1150 422 2328 
Q 422 3509 836 4129 
Q 1250 4750 2034 4750 
z
" transform="scale(0.015625)"/>
       </defs>
       <use xlink:href="#DejaVuSans-35"/>
       <use xlink:href="#DejaVuSans-30" transform="translate(63.623047 0)"/>
       <use xlink:href="#DejaVuSans-30" transform="translate(127.246094 0)"/>
      </g>
     </g>
    </g>
    <g id="xtick_2">
     <g id="line2d_3">
      <path d="M 148.979416 232.116 
L 148.979416 36.96 
" clip-path="url(#p822f570ac9)" style="fill: none; stroke: #cbcbcb"/>
     </g>
     <g id="line2d_4"/>
     <g id="text_2">
      <!-- 1000 -->
      <g transform="translate(131.164416 246.253813) scale(0.14 -0.14)">
       <defs>
        <path id="DejaVuSans-31" d="M 794 531 
L 1825 531 
L 1825 4091 
L 703 3866 
L 703 4441 
L 1819 4666 
L 2450 4666 
L 2450 531 
L 3481 531 
L 3481 0 
L 794 0 
L 794 531 
z
" transform="scale(0.015625)"/>
       </defs>
       <use xlink:href="#DejaVuSans-31"/>
       <use xlink:href="#DejaVuSans-30" transform="translate(63.623047 0)"/>
       <use xlink:href="#DejaVuSans-30" transform="translate(127.246094 0)"/>
       <use xlink:href="#DejaVuSans-30" transform="translate(190.869141 0)"/>
      </g>
     </g>
    </g>
    <g id="xtick_3">
     <g id="line2d_5">
      <path d="M 213.845649 232.116 
L 213.845649 36.96 
" clip-path="url(#p822f570ac9)" style="fill: none; stroke: #cbcbcb"/>
     </g>
     <g id="line2d_6"/>
     <g id="text_3">
      <!-- 1500 -->
      <g transform="translate(196.030649 246.253813) scale(0.14 -0.14)">
       <use xlink:href="#DejaVuSans-31"/>
       <use xlink:href="#DejaVuSans-35" transform="translate(63.623047 0)"/>
       <use xlink:href="#DejaVuSans-30" transform="translate(127.246094 0)"/>
       <use xlink:href="#DejaVuSans-30" transform="translate(190.869141 0)"/>
      </g>
     </g>
    </g>
    <g id="xtick_4">
     <g id="line2d_7">
      <path d="M 278.711883 232.116 
L 278.711883 36.96 
" clip-path="url(#p822f570ac9)" style="fill: none; stroke: #cbcbcb"/>
     </g>
     <g id="line2d_8"/>
     <g id="text_4">
      <!-- 2000 -->
      <g transform="translate(260.896883 246.253813) scale(0.14 -0.14)">
       <defs>
        <path id="DejaVuSans-32" d="M 1228 531 
L 3431 531 
L 3431 0 
L 469 0 
L 469 531 
Q 828 903 1448 1529 
Q 2069 2156 2228 2338 
Q 2531 2678 2651 2914 
Q 2772 3150 2772 3378 
Q 2772 3750 2511 3984 
Q 2250 4219 1831 4219 
Q 1534 4219 1204 4116 
Q 875 4013 500 3803 
L 500 4441 
Q 881 4594 1212 4672 
Q 1544 4750 1819 4750 
Q 2544 4750 2975 4387 
Q 3406 4025 3406 3419 
Q 3406 3131 3298 2873 
Q 3191 2616 2906 2266 
Q 2828 2175 2409 1742 
Q 1991 1309 1228 531 
z
" transform="scale(0.015625)"/>
       </defs>
       <use xlink:href="#DejaVuSans-32"/>
       <use xlink:href="#DejaVuSans-30" transform="translate(63.623047 0)"/>
       <use xlink:href="#DejaVuSans-30" transform="translate(127.246094 0)"/>
       <use xlink:href="#DejaVuSans-30" transform="translate(190.869141 0)"/>
      </g>
     </g>
    </g>
    <g id="xtick_5">
     <g id="line2d_9">
      <path d="M 343.578117 232.116 
L 343.578117 36.96 
" clip-path="url(#p822f570ac9)" style="fill: none; stroke: #cbcbcb"/>
     </g>
     <g id="line2d_10"/>
     <g id="text_5">
      <!-- 2500 -->
      <g transform="translate(325.763117 246.253813) scale(0.14 -0.14)">
       <use xlink:href="#DejaVuSans-32"/>
       <use xlink:href="#DejaVuSans-35" transform="translate(63.623047 0)"/>
       <use xlink:href="#DejaVuSans-30" transform="translate(127.246094 0)"/>
       <use xlink:href="#DejaVuSans-30" transform="translate(190.869141 0)"/>
      </g>
     </g>
    </g>
    <g id="xtick_6">
     <g id="line2d_11">
      <path d="M 408.444351 232.116 
L 408.444351 36.96 
" clip-path="url(#p822f570ac9)" style="fill: none; stroke: #cbcbcb"/>
     </g>
     <g id="line2d_12"/>
     <g id="text_6">
      <!-- 3000 -->
      <g transform="translate(390.629351 246.253813) scale(0.14 -0.14)">
       <defs>
        <path id="DejaVuSans-33" d="M 2597 2516 
Q 3050 2419 3304 2112 
Q 3559 1806 3559 1356 
Q 3559 666 3084 287 
Q 2609 -91 1734 -91 
Q 1441 -91 1130 -33 
Q 819 25 488 141 
L 488 750 
Q 750 597 1062 519 
Q 1375 441 1716 441 
Q 2309 441 2620 675 
Q 2931 909 2931 1356 
Q 2931 1769 2642 2001 
Q 2353 2234 1838 2234 
L 1294 2234 
L 1294 2753 
L 1863 2753 
Q 2328 2753 2575 2939 
Q 2822 3125 2822 3475 
Q 2822 3834 2567 4026 
Q 2313 4219 1838 4219 
Q 1578 4219 1281 4162 
Q 984 4106 628 3988 
L 628 4550 
Q 988 4650 1302 4700 
Q 1616 4750 1894 4750 
Q 2613 4750 3031 4423 
Q 3450 4097 3450 3541 
Q 3450 3153 3228 2886 
Q 3006 2619 2597 2516 
z
" transform="scale(0.015625)"/>
       </defs>
       <use xlink:href="#DejaVuSans-33"/>
       <use xlink:href="#DejaVuSans-30" transform="translate(63.623047 0)"/>
       <use xlink:href="#DejaVuSans-30" transform="translate(127.246094 0)"/>
       <use xlink:href="#DejaVuSans-30" transform="translate(190.869141 0)"/>
      </g>
     </g>
    </g>
    <g id="xtick_7">
     <g id="line2d_13">
      <path d="M 473.310584 232.116 
L 473.310584 36.96 
" clip-path="url(#p822f570ac9)" style="fill: none; stroke: #cbcbcb"/>
     </g>
     <g id="line2d_14"/>
     <g id="text_7">
      <!-- 3500 -->
      <g transform="translate(455.495584 246.253813) scale(0.14 -0.14)">
       <use xlink:href="#DejaVuSans-33"/>
       <use xlink:href="#DejaVuSans-35" transform="translate(63.623047 0)"/>
       <use xlink:href="#DejaVuSans-30" transform="translate(127.246094 0)"/>
       <use xlink:href="#DejaVuSans-30" transform="translate(190.869141 0)"/>
      </g>
     </g>
    </g>
    <g id="xtick_8">
     <g id="line2d_15">
      <path d="M 538.176818 232.116 
L 538.176818 36.96 
" clip-path="url(#p822f570ac9)" style="fill: none; stroke: #cbcbcb"/>
     </g>
     <g id="line2d_16"/>
     <g id="text_8">
      <!-- 4000 -->
      <g transform="translate(520.361818 246.253813) scale(0.14 -0.14)">
       <defs>
        <path id="DejaVuSans-34" d="M 2419 4116 
L 825 1625 
L 2419 1625 
L 2419 4116 
z
M 2253 4666 
L 3047 4666 
L 3047 1625 
L 3713 1625 
L 3713 1100 
L 3047 1100 
L 3047 0 
L 2419 0 
L 2419 1100 
L 313 1100 
L 313 1709 
L 2253 4666 
z
" transform="scale(0.015625)"/>
       </defs>
       <use xlink:href="#DejaVuSans-34"/>
       <use xlink:href="#DejaVuSans-30" transform="translate(63.623047 0)"/>
       <use xlink:href="#DejaVuSans-30" transform="translate(127.246094 0)"/>
       <use xlink:href="#DejaVuSans-30" transform="translate(190.869141 0)"/>
      </g>
     </g>
    </g>
    <g id="text_9">
     <!-- Wavenumber (cm$^{-1}$) -->
     <g transform="translate(223.701 267.1435) scale(0.168 -0.168)">
      <defs>
       <path id="DejaVuSans-57" d="M 213 4666 
L 850 4666 
L 1831 722 
L 2809 4666 
L 3519 4666 
L 4500 722 
L 5478 4666 
L 6119 4666 
L 4947 0 
L 4153 0 
L 3169 4050 
L 2175 0 
L 1381 0 
L 213 4666 
z
" transform="scale(0.015625)"/>
       <path id="DejaVuSans-61" d="M 2194 1759 
Q 1497 1759 1228 1600 
Q 959 1441 959 1056 
Q 959 750 1161 570 
Q 1363 391 1709 391 
Q 2188 391 2477 730 
Q 2766 1069 2766 1631 
L 2766 1759 
L 2194 1759 
z
M 3341 1997 
L 3341 0 
L 2766 0 
L 2766 531 
Q 2569 213 2275 61 
Q 1981 -91 1556 -91 
Q 1019 -91 701 211 
Q 384 513 384 1019 
Q 384 1609 779 1909 
Q 1175 2209 1959 2209 
L 2766 2209 
L 2766 2266 
Q 2766 2663 2505 2880 
Q 2244 3097 1772 3097 
Q 1472 3097 1187 3025 
Q 903 2953 641 2809 
L 641 3341 
Q 956 3463 1253 3523 
Q 1550 3584 1831 3584 
Q 2591 3584 2966 3190 
Q 3341 2797 3341 1997 
z
" transform="scale(0.015625)"/>
       <path id="DejaVuSans-76" d="M 191 3500 
L 800 3500 
L 1894 563 
L 2988 3500 
L 3597 3500 
L 2284 0 
L 1503 0 
L 191 3500 
z
" transform="scale(0.015625)"/>
       <path id="DejaVuSans-65" d="M 3597 1894 
L 3597 1613 
L 953 1613 
Q 991 1019 1311 708 
Q 1631 397 2203 397 
Q 2534 397 2845 478 
Q 3156 559 3463 722 
L 3463 178 
Q 3153 47 2828 -22 
Q 2503 -91 2169 -91 
Q 1331 -91 842 396 
Q 353 884 353 1716 
Q 353 2575 817 3079 
Q 1281 3584 2069 3584 
Q 2775 3584 3186 3129 
Q 3597 2675 3597 1894 
z
M 3022 2063 
Q 3016 2534 2758 2815 
Q 2500 3097 2075 3097 
Q 1594 3097 1305 2825 
Q 1016 2553 972 2059 
L 3022 2063 
z
" transform="scale(0.015625)"/>
       <path id="DejaVuSans-6e" d="M 3513 2113 
L 3513 0 
L 2938 0 
L 2938 2094 
Q 2938 2591 2744 2837 
Q 2550 3084 2163 3084 
Q 1697 3084 1428 2787 
Q 1159 2491 1159 1978 
L 1159 0 
L 581 0 
L 581 3500 
L 1159 3500 
L 1159 2956 
Q 1366 3272 1645 3428 
Q 1925 3584 2291 3584 
Q 2894 3584 3203 3211 
Q 3513 2838 3513 2113 
z
" transform="scale(0.015625)"/>
       <path id="DejaVuSans-75" d="M 544 1381 
L 544 3500 
L 1119 3500 
L 1119 1403 
Q 1119 906 1312 657 
Q 1506 409 1894 409 
Q 2359 409 2629 706 
Q 2900 1003 2900 1516 
L 2900 3500 
L 3475 3500 
L 3475 0 
L 2900 0 
L 2900 538 
Q 2691 219 2414 64 
Q 2138 -91 1772 -91 
Q 1169 -91 856 284 
Q 544 659 544 1381 
z
M 1991 3584 
L 1991 3584 
z
" transform="scale(0.015625)"/>
       <path id="DejaVuSans-6d" d="M 3328 2828 
Q 3544 3216 3844 3400 
Q 4144 3584 4550 3584 
Q 5097 3584 5394 3201 
Q 5691 2819 5691 2113 
L 5691 0 
L 5113 0 
L 5113 2094 
Q 5113 2597 4934 2840 
Q 4756 3084 4391 3084 
Q 3944 3084 3684 2787 
Q 3425 2491 3425 1978 
L 3425 0 
L 2847 0 
L 2847 2094 
Q 2847 2600 2669 2842 
Q 2491 3084 2119 3084 
Q 1678 3084 1418 2786 
Q 1159 2488 1159 1978 
L 1159 0 
L 581 0 
L 581 3500 
L 1159 3500 
L 1159 2956 
Q 1356 3278 1631 3431 
Q 1906 3584 2284 3584 
Q 2666 3584 2933 3390 
Q 3200 3197 3328 2828 
z
" transform="scale(0.015625)"/>
       <path id="DejaVuSans-62" d="M 3116 1747 
Q 3116 2381 2855 2742 
Q 2594 3103 2138 3103 
Q 1681 3103 1420 2742 
Q 1159 2381 1159 1747 
Q 1159 1113 1420 752 
Q 1681 391 2138 391 
Q 2594 391 2855 752 
Q 3116 1113 3116 1747 
z
M 1159 2969 
Q 1341 3281 1617 3432 
Q 1894 3584 2278 3584 
Q 2916 3584 3314 3078 
Q 3713 2572 3713 1747 
Q 3713 922 3314 415 
Q 2916 -91 2278 -91 
Q 1894 -91 1617 61 
Q 1341 213 1159 525 
L 1159 0 
L 581 0 
L 581 4863 
L 1159 4863 
L 1159 2969 
z
" transform="scale(0.015625)"/>
       <path id="DejaVuSans-72" d="M 2631 2963 
Q 2534 3019 2420 3045 
Q 2306 3072 2169 3072 
Q 1681 3072 1420 2755 
Q 1159 2438 1159 1844 
L 1159 0 
L 581 0 
L 581 3500 
L 1159 3500 
L 1159 2956 
Q 1341 3275 1631 3429 
Q 1922 3584 2338 3584 
Q 2397 3584 2469 3576 
Q 2541 3569 2628 3553 
L 2631 2963 
z
" transform="scale(0.015625)"/>
       <path id="DejaVuSans-20" transform="scale(0.015625)"/>
       <path id="DejaVuSans-28" d="M 1984 4856 
Q 1566 4138 1362 3434 
Q 1159 2731 1159 2009 
Q 1159 1288 1364 580 
Q 1569 -128 1984 -844 
L 1484 -844 
Q 1016 -109 783 600 
Q 550 1309 550 2009 
Q 550 2706 781 3412 
Q 1013 4119 1484 4856 
L 1984 4856 
z
" transform="scale(0.015625)"/>
       <path id="DejaVuSans-63" d="M 3122 3366 
L 3122 2828 
Q 2878 2963 2633 3030 
Q 2388 3097 2138 3097 
Q 1578 3097 1268 2742 
Q 959 2388 959 1747 
Q 959 1106 1268 751 
Q 1578 397 2138 397 
Q 2388 397 2633 464 
Q 2878 531 3122 666 
L 3122 134 
Q 2881 22 2623 -34 
Q 2366 -91 2075 -91 
Q 1284 -91 818 406 
Q 353 903 353 1747 
Q 353 2603 823 3093 
Q 1294 3584 2113 3584 
Q 2378 3584 2631 3529 
Q 2884 3475 3122 3366 
z
" transform="scale(0.015625)"/>
       <path id="DejaVuSans-2212" d="M 678 2272 
L 4684 2272 
L 4684 1741 
L 678 1741 
L 678 2272 
z
" transform="scale(0.015625)"/>
       <path id="DejaVuSans-29" d="M 513 4856 
L 1013 4856 
Q 1481 4119 1714 3412 
Q 1947 2706 1947 2009 
Q 1947 1309 1714 600 
Q 1481 -109 1013 -844 
L 513 -844 
Q 928 -128 1133 580 
Q 1338 1288 1338 2009 
Q 1338 2731 1133 3434 
Q 928 4138 513 4856 
z
" transform="scale(0.015625)"/>
      </defs>
      <use xlink:href="#DejaVuSans-57" transform="translate(0 0.684375)"/>
      <use xlink:href="#DejaVuSans-61" transform="translate(98.876953 0.684375)"/>
      <use xlink:href="#DejaVuSans-76" transform="translate(160.15625 0.684375)"/>
      <use xlink:href="#DejaVuSans-65" transform="translate(219.335938 0.684375)"/>
      <use xlink:href="#DejaVuSans-6e" transform="translate(280.859375 0.684375)"/>
      <use xlink:href="#DejaVuSans-75" transform="translate(344.238281 0.684375)"/>
      <use xlink:href="#DejaVuSans-6d" transform="translate(407.617188 0.684375)"/>
      <use xlink:href="#DejaVuSans-62" transform="translate(505.029297 0.684375)"/>
      <use xlink:href="#DejaVuSans-65" transform="translate(568.505859 0.684375)"/>
      <use xlink:href="#DejaVuSans-72" transform="translate(630.029297 0.684375)"/>
      <use xlink:href="#DejaVuSans-20" transform="translate(671.142578 0.684375)"/>
      <use xlink:href="#DejaVuSans-28" transform="translate(702.929688 0.684375)"/>
      <use xlink:href="#DejaVuSans-63" transform="translate(741.943359 0.684375)"/>
      <use xlink:href="#DejaVuSans-6d" transform="translate(796.923828 0.684375)"/>
      <use xlink:href="#DejaVuSans-2212" transform="translate(895.292969 38.965625) scale(0.7)"/>
      <use xlink:href="#DejaVuSans-31" transform="translate(953.945312 38.965625) scale(0.7)"/>
      <use xlink:href="#DejaVuSans-29" transform="translate(1001.21582 0.684375)"/>
     </g>
    </g>
   </g>
   <g id="matplotlib.axis_2">
    <g id="ytick_1">
     <g id="line2d_17">
      <path d="M 61.41 201.367384 
L 560.88 201.367384 
" clip-path="url(#p822f570ac9)" style="fill: none; stroke: #cbcbcb"/>
     </g>
     <g id="line2d_18"/>
     <g id="text_10">
      <!-- 0.00 -->
      <g transform="translate(26.738125 206.68629) scale(0.14 -0.14)">
       <defs>
        <path id="DejaVuSans-2e" d="M 684 794 
L 1344 794 
L 1344 0 
L 684 0 
L 684 794 
z
" transform="scale(0.015625)"/>
       </defs>
       <use xlink:href="#DejaVuSans-30"/>
       <use xlink:href="#DejaVuSans-2e" transform="translate(63.623047 0)"/>
       <use xlink:href="#DejaVuSans-30" transform="translate(95.410156 0)"/>
       <use xlink:href="#DejaVuSans-30" transform="translate(159.033203 0)"/>
      </g>
     </g>
    </g>
    <g id="ytick_2">
     <g id="line2d_19">
      <path d="M 61.41 162.133161 
L 560.88 162.133161 
" clip-path="url(#p822f570ac9)" style="fill: none; stroke: #cbcbcb"/>
     </g>
     <g id="line2d_20"/>
     <g id="text_11">
      <!-- 0.25 -->
      <g transform="translate(26.738125 167.452067) scale(0.14 -0.14)">
       <use xlink:href="#DejaVuSans-30"/>
       <use xlink:href="#DejaVuSans-2e" transform="translate(63.623047 0)"/>
       <use xlink:href="#DejaVuSans-32" transform="translate(95.410156 0)"/>
       <use xlink:href="#DejaVuSans-35" transform="translate(159.033203 0)"/>
      </g>
     </g>
    </g>
    <g id="ytick_3">
     <g id="line2d_21">
      <path d="M 61.41 122.898938 
L 560.88 122.898938 
" clip-path="url(#p822f570ac9)" style="fill: none; stroke: #cbcbcb"/>
     </g>
     <g id="line2d_22"/>
     <g id="text_12">
      <!-- 0.50 -->
      <g transform="translate(26.738125 128.217845) scale(0.14 -0.14)">
       <use xlink:href="#DejaVuSans-30"/>
       <use xlink:href="#DejaVuSans-2e" transform="translate(63.623047 0)"/>
       <use xlink:href="#DejaVuSans-35" transform="translate(95.410156 0)"/>
       <use xlink:href="#DejaVuSans-30" transform="translate(159.033203 0)"/>
      </g>
     </g>
    </g>
    <g id="ytick_4">
     <g id="line2d_23">
      <path d="M 61.41 83.664715 
L 560.88 83.664715 
" clip-path="url(#p822f570ac9)" style="fill: none; stroke: #cbcbcb"/>
     </g>
     <g id="line2d_24"/>
     <g id="text_13">
      <!-- 0.75 -->
      <g transform="translate(26.738125 88.983622) scale(0.14 -0.14)">
       <defs>
        <path id="DejaVuSans-37" d="M 525 4666 
L 3525 4666 
L 3525 4397 
L 1831 0 
L 1172 0 
L 2766 4134 
L 525 4134 
L 525 4666 
z
" transform="scale(0.015625)"/>
       </defs>
       <use xlink:href="#DejaVuSans-30"/>
       <use xlink:href="#DejaVuSans-2e" transform="translate(63.623047 0)"/>
       <use xlink:href="#DejaVuSans-37" transform="translate(95.410156 0)"/>
       <use xlink:href="#DejaVuSans-35" transform="translate(159.033203 0)"/>
      </g>
     </g>
    </g>
    <g id="ytick_5">
     <g id="line2d_25">
      <path d="M 61.41 44.430492 
L 560.88 44.430492 
" clip-path="url(#p822f570ac9)" style="fill: none; stroke: #cbcbcb"/>
     </g>
     <g id="line2d_26"/>
     <g id="text_14">
      <!-- 1.00 -->
      <g transform="translate(26.738125 49.749399) scale(0.14 -0.14)">
       <use xlink:href="#DejaVuSans-31"/>
       <use xlink:href="#DejaVuSans-2e" transform="translate(63.623047 0)"/>
       <use xlink:href="#DejaVuSans-30" transform="translate(95.410156 0)"/>
       <use xlink:href="#DejaVuSans-30" transform="translate(159.033203 0)"/>
      </g>
     </g>
    </g>
    <g id="text_15">
     <!-- Absorbance -->
     <g transform="translate(19.24425 184.17675) rotate(-90) scale(0.168 -0.168)">
      <defs>
       <path id="DejaVuSans-41" d="M 2188 4044 
L 1331 1722 
L 3047 1722 
L 2188 4044 
z
M 1831 4666 
L 2547 4666 
L 4325 0 
L 3669 0 
L 3244 1197 
L 1141 1197 
L 716 0 
L 50 0 
L 1831 4666 
z
" transform="scale(0.015625)"/>
       <path id="DejaVuSans-73" d="M 2834 3397 
L 2834 2853 
Q 2591 2978 2328 3040 
Q 2066 3103 1784 3103 
Q 1356 3103 1142 2972 
Q 928 2841 928 2578 
Q 928 2378 1081 2264 
Q 1234 2150 1697 2047 
L 1894 2003 
Q 2506 1872 2764 1633 
Q 3022 1394 3022 966 
Q 3022 478 2636 193 
Q 2250 -91 1575 -91 
Q 1294 -91 989 -36 
Q 684 19 347 128 
L 347 722 
Q 666 556 975 473 
Q 1284 391 1588 391 
Q 1994 391 2212 530 
Q 2431 669 2431 922 
Q 2431 1156 2273 1281 
Q 2116 1406 1581 1522 
L 1381 1569 
Q 847 1681 609 1914 
Q 372 2147 372 2553 
Q 372 3047 722 3315 
Q 1072 3584 1716 3584 
Q 2034 3584 2315 3537 
Q 2597 3491 2834 3397 
z
" transform="scale(0.015625)"/>
       <path id="DejaVuSans-6f" d="M 1959 3097 
Q 1497 3097 1228 2736 
Q 959 2375 959 1747 
Q 959 1119 1226 758 
Q 1494 397 1959 397 
Q 2419 397 2687 759 
Q 2956 1122 2956 1747 
Q 2956 2369 2687 2733 
Q 2419 3097 1959 3097 
z
M 1959 3584 
Q 2709 3584 3137 3096 
Q 3566 2609 3566 1747 
Q 3566 888 3137 398 
Q 2709 -91 1959 -91 
Q 1206 -91 779 398 
Q 353 888 353 1747 
Q 353 2609 779 3096 
Q 1206 3584 1959 3584 
z
" transform="scale(0.015625)"/>
      </defs>
      <use xlink:href="#DejaVuSans-41"/>
      <use xlink:href="#DejaVuSans-62" transform="translate(68.408203 0)"/>
      <use xlink:href="#DejaVuSans-73" transform="translate(131.884766 0)"/>
      <use xlink:href="#DejaVuSans-6f" transform="translate(183.984375 0)"/>
      <use xlink:href="#DejaVuSans-72" transform="translate(245.166016 0)"/>
      <use xlink:href="#DejaVuSans-62" transform="translate(286.279297 0)"/>
      <use xlink:href="#DejaVuSans-61" transform="translate(349.755859 0)"/>
      <use xlink:href="#DejaVuSans-6e" transform="translate(411.035156 0)"/>
      <use xlink:href="#DejaVuSans-63" transform="translate(474.414062 0)"/>
      <use xlink:href="#DejaVuSans-65" transform="translate(529.394531 0)"/>
     </g>
    </g>
   </g>
   <g id="line2d_27">
    <path d="M 84.113182 212.125004 
L 85.023129 203.976266 
L 85.933076 185.992188 
L 86.843023 217.257604 
L 87.75297 203.531434 
L 88.662918 205.69969 
L 90.482812 195.496253 
L 91.392759 188.744236 
L 92.302706 203.487856 
L 93.212653 194.993068 
L 94.122601 197.446001 
L 95.032548 197.645255 
L 95.942495 205.792408 
L 96.852442 209.193211 
L 97.762389 209.999252 
L 98.672336 207.303029 
L 99.582284 198.84316 
L 100.492231 195.396333 
L 101.402178 198.829174 
L 102.312125 205.67495 
L 103.222072 187.196217 
L 104.132019 189.449082 
L 105.041967 204.145168 
L 105.951914 207.828722 
L 106.861861 200.345608 
L 107.771808 191.423088 
L 108.681755 198.756229 
L 109.591702 197.000231 
L 110.50165 203.03154 
L 111.411597 197.787089 
L 112.321544 189.247566 
L 113.231491 203.247988 
L 114.141438 200.242785 
L 115.051385 199.375546 
L 115.961333 199.140664 
L 116.87128 212.445506 
L 117.781227 216.093393 
L 118.691174 209.365566 
L 119.601121 200.044052 
L 120.511069 197.011053 
L 121.421016 205.512613 
L 122.330963 190.526309 
L 123.24091 202.431044 
L 124.150857 201.104617 
L 125.060804 202.71431 
L 125.970752 200.02489 
L 126.880699 195.365864 
L 127.790646 195.387774 
L 128.700593 207.232911 
L 129.61054 187.593263 
L 130.520487 207.222882 
L 131.430435 196.705802 
L 132.340382 197.673716 
L 133.250329 201.301645 
L 134.160276 190.412268 
L 135.070223 191.430173 
L 135.98017 179.725936 
L 136.890118 170.56886 
L 137.800065 154.275594 
L 138.710012 154.136218 
L 139.619959 150.746703 
L 140.529906 137.255123 
L 141.439853 120.403458 
L 142.349801 107.544948 
L 143.259748 83.526478 
L 144.169695 71.201278 
L 145.079642 73.193818 
L 145.989589 64.551266 
L 146.899536 72.358862 
L 147.809484 51.269716 
L 148.719431 52.231162 
L 149.629378 48.000603 
L 150.539325 45.830727 
L 151.449272 54.013848 
L 152.359219 64.586041 
L 153.269167 73.689352 
L 154.179114 88.543651 
L 155.089061 99.108774 
L 155.999008 139.337692 
L 156.908955 129.139831 
L 157.818902 140.22487 
L 158.72885 153.324709 
L 159.638797 162.401162 
L 160.548744 163.862952 
L 161.458691 181.398989 
L 162.368638 165.454693 
L 163.278585 182.146179 
L 164.188533 191.372031 
L 165.09848 195.830492 
L 166.008427 197.044132 
L 166.918374 205.122391 
L 167.828321 199.811975 
L 168.738268 197.663946 
L 169.648216 195.840242 
L 170.558163 196.198296 
L 171.46811 203.139097 
L 172.378057 212.244627 
L 173.288004 206.477715 
L 174.197951 188.634799 
L 175.107899 194.289115 
L 176.017846 198.440565 
L 176.927793 207.326535 
L 177.83774 201.330878 
L 178.747687 211.216229 
L 179.657634 205.696166 
L 180.567582 203.290344 
L 181.477529 204.20456 
L 182.387476 193.860805 
L 183.297423 212.499775 
L 184.20737 208.158235 
L 185.117317 212.154319 
L 186.027265 211.07669 
L 186.937212 200.393931 
L 187.847159 213.92579 
L 188.757106 195.451892 
L 189.667053 203.304108 
L 190.577 200.827611 
L 191.486948 198.836168 
L 192.396895 204.774197 
L 193.306842 193.265592 
L 194.216789 202.892079 
L 195.126736 196.704914 
L 196.036683 202.927114 
L 196.946631 199.077353 
L 197.856578 199.152545 
L 198.766525 199.354117 
L 199.676472 208.887948 
L 200.586419 197.662962 
L 201.496366 203.256943 
L 202.406314 195.167049 
L 203.316261 215.833726 
L 204.226208 208.424207 
L 206.046102 174.107667 
L 206.956049 175.162366 
L 207.865997 177.796315 
L 208.775944 174.333512 
L 209.685891 142.350894 
L 210.595838 135.552827 
L 211.505785 118.138172 
L 212.415732 112.445984 
L 213.32568 107.809262 
L 214.235627 84.46089 
L 215.145574 112.361773 
L 216.055521 122.473485 
L 216.965468 134.032357 
L 217.875415 150.855256 
L 218.785363 151.517763 
L 219.69531 173.710938 
L 220.605257 175.539434 
L 221.515204 185.624955 
L 222.425151 183.510044 
L 223.335098 193.251212 
L 224.245046 208.236935 
L 225.154993 210.394659 
L 226.06494 189.634703 
L 226.974887 205.825601 
L 227.884834 211.589227 
L 228.794781 206.562864 
L 229.704729 191.420713 
L 230.614676 212.502811 
L 231.524623 208.163523 
L 232.43457 206.598671 
L 233.344517 211.184943 
L 234.254464 210.660516 
L 235.164412 213.279713 
L 236.074359 204.986242 
L 236.984306 204.152297 
L 237.894253 206.723155 
L 238.8042 214.343694 
L 239.714147 191.532652 
L 240.624095 211.796459 
L 241.534042 199.185697 
L 242.443989 209.800911 
L 243.353936 196.123206 
L 244.263883 193.867116 
L 245.17383 208.253882 
L 246.083778 216.462483 
L 246.993725 195.907649 
L 247.903672 186.648269 
L 248.813619 198.105494 
L 249.723566 200.107617 
L 250.633513 194.93485 
L 251.543461 195.364118 
L 252.453408 207.872331 
L 253.363355 206.539642 
L 254.273302 196.571993 
L 255.183249 202.497435 
L 256.093196 191.036185 
L 257.003144 206.894248 
L 257.913091 195.477465 
L 258.823038 198.678757 
L 259.732985 202.35952 
L 260.642932 192.140195 
L 261.552879 196.030969 
L 262.462827 209.253205 
L 263.372774 196.343688 
L 264.282721 190.578046 
L 265.192668 202.390963 
L 266.102615 203.318548 
L 267.012562 206.622001 
L 268.832457 195.982874 
L 269.742404 207.7835 
L 270.652351 211.932043 
L 271.562298 204.315835 
L 272.472245 212.193872 
L 273.382193 197.26177 
L 274.29214 204.715553 
L 275.202087 215.14175 
L 276.112034 204.102853 
L 277.021981 202.878804 
L 277.931928 197.843087 
L 278.841876 202.508029 
L 279.751823 186.703778 
L 280.66177 205.437573 
L 281.571717 201.857016 
L 282.481664 202.174908 
L 283.391611 203.585125 
L 285.211506 197.120426 
L 286.121453 190.851838 
L 287.0314 213.681093 
L 287.941347 205.371965 
L 288.851294 204.880977 
L 289.761242 194.008219 
L 290.671189 204.166064 
L 291.581136 216.238533 
L 292.491083 200.678977 
L 293.40103 201.631738 
L 294.310977 199.956902 
L 295.220925 209.529381 
L 296.130872 187.878386 
L 297.040819 203.908662 
L 297.950766 202.84492 
L 298.860713 208.429612 
L 299.77066 208.672812 
L 300.680608 210.962011 
L 301.590555 204.453633 
L 302.500502 208.88138 
L 303.410449 185.230604 
L 304.320396 216.18609 
L 306.140291 204.517219 
L 307.050238 196.0826 
L 307.960185 204.614066 
L 308.870132 196.063198 
L 309.780079 209.110672 
L 310.690026 200.902122 
L 311.599974 187.682144 
L 312.509921 208.961094 
L 313.419868 198.075058 
L 314.329815 199.743593 
L 315.239762 219.034738 
L 317.059657 192.491224 
L 317.969604 200.307184 
L 318.879551 210.879494 
L 319.789498 195.946432 
L 320.699445 205.126245 
L 321.609392 198.541088 
L 322.51934 198.408317 
L 323.429287 210.143637 
L 324.339234 195.167011 
L 325.249181 209.26944 
L 326.159128 211.608641 
L 327.069075 208.287985 
L 327.979023 204.073917 
L 328.88897 200.496616 
L 329.798917 207.413335 
L 330.708864 195.501159 
L 331.618811 199.365484 
L 332.528758 206.781664 
L 333.438706 194.342331 
L 334.348653 192.192591 
L 335.2586 202.058831 
L 336.168547 202.947542 
L 337.078494 215.149054 
L 337.988441 204.390576 
L 338.898389 203.433367 
L 339.808336 199.162334 
L 340.718283 202.337683 
L 341.62823 199.013274 
L 342.538177 188.783072 
L 343.448124 204.848858 
L 344.358072 204.386277 
L 345.268019 210.61811 
L 346.177966 200.188423 
L 347.087913 192.18875 
L 347.99786 213.279134 
L 348.907807 204.394078 
L 349.817755 198.45591 
L 350.727702 191.566853 
L 351.637649 194.65574 
L 352.547596 194.443813 
L 353.457543 198.002363 
L 354.36749 191.604454 
L 355.277438 186.461097 
L 356.187385 206.74868 
L 357.097332 186.417202 
L 358.007279 191.575666 
L 358.917226 193.49311 
L 359.827173 206.902225 
L 360.737121 196.823005 
L 361.647068 170.790016 
L 362.557015 187.506 
L 363.466962 188.474803 
L 364.376909 181.282948 
L 365.286856 181.176659 
L 366.196804 171.884822 
L 367.106751 158.40728 
L 368.016698 172.301871 
L 368.926645 163.835603 
L 369.836592 171.379312 
L 370.746539 147.788695 
L 372.566434 163.025778 
L 373.476381 144.979086 
L 374.386328 140.322247 
L 375.296275 146.289383 
L 376.206222 158.421363 
L 377.11617 129.760096 
L 378.026117 139.779698 
L 378.936064 131.730119 
L 379.846011 144.213254 
L 380.755958 142.283878 
L 381.665905 137.854865 
L 382.575853 129.857072 
L 383.4858 137.652364 
L 384.395747 149.122963 
L 385.305694 137.990039 
L 386.215641 128.331383 
L 387.125588 141.945729 
L 388.035536 143.0435 
L 388.945483 155.792764 
L 389.85543 158.927183 
L 390.765377 155.132632 
L 391.675324 155.051138 
L 392.585271 154.152803 
L 393.495219 156.237741 
L 394.405166 147.601435 
L 395.315113 162.374267 
L 396.22506 157.150521 
L 397.135007 168.458668 
L 398.044954 159.383506 
L 398.954902 187.966846 
L 399.864849 180.441665 
L 400.774796 170.383569 
L 401.684743 181.685033 
L 402.59469 175.147636 
L 403.504637 181.424307 
L 404.414585 178.877544 
L 405.324532 183.205629 
L 406.234479 184.309335 
L 407.144426 179.327543 
L 408.054373 184.608686 
L 408.96432 185.734227 
L 409.874268 194.433526 
L 410.784215 200.105698 
L 411.694162 201.554148 
L 412.604109 191.225068 
L 413.514056 216.899081 
L 414.424003 208.585741 
L 415.333951 206.375065 
L 416.243898 201.179783 
L 417.153845 220.244918 
L 418.063792 190.025638 
L 418.973739 195.452347 
L 419.883686 184.807321 
L 420.793634 192.227676 
L 421.703581 192.629578 
L 422.613528 183.180045 
L 423.523475 205.424693 
L 424.433422 212.82684 
L 425.343369 202.921926 
L 426.253317 207.628328 
L 427.163264 203.215378 
L 428.073211 209.477101 
L 428.983158 196.809032 
L 429.893105 197.262728 
L 430.803052 201.517372 
L 431.713 198.875382 
L 432.622947 202.446049 
L 433.532894 195.438917 
L 434.442841 200.800201 
L 435.352788 203.434684 
L 436.262735 194.061378 
L 437.172683 191.465187 
L 438.08263 190.866113 
L 438.992577 209.13313 
L 439.902524 205.557591 
L 440.812471 214.716187 
L 441.722418 203.237495 
L 442.632366 198.100769 
L 443.542313 202.408477 
L 444.45226 186.215597 
L 445.362207 204.551474 
L 446.272154 209.908387 
L 447.182101 196.906169 
L 448.092049 200.1907 
L 449.001996 197.054301 
L 449.911943 198.983522 
L 450.82189 199.454533 
L 451.731837 218.020693 
L 452.641784 207.06506 
L 453.551732 205.999553 
L 454.461679 204.097793 
L 455.371626 204.885835 
L 456.281573 198.128054 
L 457.19152 196.652349 
L 458.101467 210.247192 
L 459.011415 195.978135 
L 459.921362 196.770952 
L 460.831309 197.712558 
L 461.741256 212.493381 
L 462.651203 197.910203 
L 463.56115 200.719271 
L 465.381045 187.365814 
L 466.290992 188.906062 
L 467.200939 200.483483 
L 468.110886 201.382095 
L 469.020833 196.408584 
L 469.930781 210.116929 
L 470.840728 212.750669 
L 471.750675 205.075258 
L 472.660622 191.78977 
L 473.570569 203.965697 
L 474.480516 189.576865 
L 475.390464 223.245273 
L 476.300411 213.821946 
L 477.210358 202.33795 
L 478.120305 194.39786 
L 479.030252 201.913706 
L 480.850147 202.322671 
L 481.760094 215.200569 
L 482.670041 192.280198 
L 483.579988 206.724933 
L 484.489935 192.817991 
L 485.399882 201.920771 
L 486.30983 192.985696 
L 487.219777 198.673892 
L 488.129724 202.204442 
L 489.039671 199.591944 
L 489.949618 212.925611 
L 490.859565 201.320073 
L 491.769513 187.901882 
L 492.67946 191.102193 
L 493.589407 209.096711 
L 494.499354 197.399346 
L 495.409301 199.421525 
L 496.319248 194.955035 
L 497.229196 200.628581 
L 498.139143 203.199654 
L 499.04909 190.926131 
L 499.959037 199.669354 
L 500.868984 191.515951 
L 501.778931 193.721527 
L 502.688879 203.913585 
L 503.598826 202.677809 
L 504.508773 186.224289 
L 505.41872 199.864852 
L 506.328667 207.320224 
L 507.238615 210.783937 
L 508.148562 193.723518 
L 509.058509 200.109584 
L 509.968456 207.582807 
L 510.878403 196.074022 
L 511.78835 200.113861 
L 512.698298 214.396874 
L 513.608245 196.74806 
L 514.518192 190.906044 
L 515.428139 181.280637 
L 516.338086 201.093509 
L 517.248033 199.541819 
L 518.157981 188.760669 
L 519.067928 200.043447 
L 519.977875 199.206819 
L 520.887822 206.315749 
L 521.797769 212.308829 
L 522.707716 194.205664 
L 523.617664 211.360892 
L 524.527611 192.416832 
L 525.437558 207.551997 
L 526.347505 199.286135 
L 527.257452 204.288543 
L 528.167399 192.150479 
L 529.077347 199.006689 
L 529.987294 185.994667 
L 530.897241 209.870835 
L 531.807188 198.119865 
L 532.717135 200.9959 
L 533.627082 199.170711 
L 534.53703 188.844439 
L 535.446977 196.774485 
L 536.356924 210.371838 
L 537.266871 197.181008 
L 538.176818 204.628685 
L 538.176818 204.628685 
" clip-path="url(#p822f570ac9)" style="fill: none; stroke: #34495e; stroke-width: 2"/>
   </g>
   <g id="patch_3">
    <path d="M 61.41 232.116 
L 61.41 36.96 
" style="fill: none; stroke: #f0f0f0; stroke-width: 3; stroke-linejoin: miter; stroke-linecap: square"/>
   </g>
   <g id="patch_4">
    <path d="M 560.88 232.116 
L 560.88 36.96 
" style="fill: none; stroke: #f0f0f0; stroke-width: 3; stroke-linejoin: miter; stroke-linecap: square"/>
   </g>
   <g id="patch_5">
    <path d="M 61.41 232.116 
L 560.88 232.116 
" style="fill: none; stroke: #f0f0f0; stroke-width: 3; stroke-linejoin: miter; stroke-linecap: square"/>
   </g>
   <g id="patch_6">
    <path d="M 61.41 36.96 
L 560.88 36.96 
" style="fill: none; stroke: #f0f0f0; stroke-width: 3; stroke-linejoin: miter; stroke-linecap: square"/>
   </g>
   <g id="text_16">
    <!-- Synthesized Material Spectrum -->
    <g transform="translate(153.703275 30.96) scale(0.2016 -0.2016)">
     <defs>
      <path id="DejaVuSans-53" d="M 3425 4513 
L 3425 3897 
Q 3066 4069 2747 4153 
Q 2428 4238 2131 4238 
Q 1616 4238 1336 4038 
Q 1056 3838 1056 3469 
Q 1056 3159 1242 3001 
Q 1428 2844 1947 2747 
L 2328 2669 
Q 3034 2534 3370 2195 
Q 3706 1856 3706 1288 
Q 3706 609 3251 259 
Q 2797 -91 1919 -91 
Q 1588 -91 1214 -16 
Q 841 59 441 206 
L 441 856 
Q 825 641 1194 531 
Q 1563 422 1919 422 
Q 2459 422 2753 634 
Q 3047 847 3047 1241 
Q 3047 1584 2836 1778 
Q 2625 1972 2144 2069 
L 1759 2144 
Q 1053 2284 737 2584 
Q 422 2884 422 3419 
Q 422 4038 858 4394 
Q 1294 4750 2059 4750 
Q 2388 4750 2728 4690 
Q 3069 4631 3425 4513 
z
" transform="scale(0.015625)"/>
      <path id="DejaVuSans-79" d="M 2059 -325 
Q 1816 -950 1584 -1140 
Q 1353 -1331 966 -1331 
L 506 -1331 
L 506 -850 
L 844 -850 
Q 1081 -850 1212 -737 
Q 1344 -625 1503 -206 
L 1606 56 
L 191 3500 
L 800 3500 
L 1894 763 
L 2988 3500 
L 3597 3500 
L 2059 -325 
z
" transform="scale(0.015625)"/>
      <path id="DejaVuSans-74" d="M 1172 4494 
L 1172 3500 
L 2356 3500 
L 2356 3053 
L 1172 3053 
L 1172 1153 
Q 1172 725 1289 603 
Q 1406 481 1766 481 
L 2356 481 
L 2356 0 
L 1766 0 
Q 1100 0 847 248 
Q 594 497 594 1153 
L 594 3053 
L 172 3053 
L 172 3500 
L 594 3500 
L 594 4494 
L 1172 4494 
z
" transform="scale(0.015625)"/>
      <path id="DejaVuSans-68" d="M 3513 2113 
L 3513 0 
L 2938 0 
L 2938 2094 
Q 2938 2591 2744 2837 
Q 2550 3084 2163 3084 
Q 1697 3084 1428 2787 
Q 1159 2491 1159 1978 
L 1159 0 
L 581 0 
L 581 4863 
L 1159 4863 
L 1159 2956 
Q 1366 3272 1645 3428 
Q 1925 3584 2291 3584 
Q 2894 3584 3203 3211 
Q 3513 2838 3513 2113 
z
" transform="scale(0.015625)"/>
      <path id="DejaVuSans-69" d="M 603 3500 
L 1178 3500 
L 1178 0 
L 603 0 
L 603 3500 
z
M 603 4863 
L 1178 4863 
L 1178 4134 
L 603 4134 
L 603 4863 
z
" transform="scale(0.015625)"/>
      <path id="DejaVuSans-7a" d="M 353 3500 
L 3084 3500 
L 3084 2975 
L 922 459 
L 3084 459 
L 3084 0 
L 275 0 
L 275 525 
L 2438 3041 
L 353 3041 
L 353 3500 
z
" transform="scale(0.015625)"/>
      <path id="DejaVuSans-64" d="M 2906 2969 
L 2906 4863 
L 3481 4863 
L 3481 0 
L 2906 0 
L 2906 525 
Q 2725 213 2448 61 
Q 2172 -91 1784 -91 
Q 1150 -91 751 415 
Q 353 922 353 1747 
Q 353 2572 751 3078 
Q 1150 3584 1784 3584 
Q 2172 3584 2448 3432 
Q 2725 3281 2906 2969 
z
M 947 1747 
Q 947 1113 1208 752 
Q 1469 391 1925 391 
Q 2381 391 2643 752 
Q 2906 1113 2906 1747 
Q 2906 2381 2643 2742 
Q 2381 3103 1925 3103 
Q 1469 3103 1208 2742 
Q 947 2381 947 1747 
z
" transform="scale(0.015625)"/>
      <path id="DejaVuSans-4d" d="M 628 4666 
L 1569 4666 
L 2759 1491 
L 3956 4666 
L 4897 4666 
L 4897 0 
L 4281 0 
L 4281 4097 
L 3078 897 
L 2444 897 
L 1241 4097 
L 1241 0 
L 628 0 
L 628 4666 
z
" transform="scale(0.015625)"/>
      <path id="DejaVuSans-6c" d="M 603 4863 
L 1178 4863 
L 1178 0 
L 603 0 
L 603 4863 
z
" transform="scale(0.015625)"/>
      <path id="DejaVuSans-70" d="M 1159 525 
L 1159 -1331 
L 581 -1331 
L 581 3500 
L 1159 3500 
L 1159 2969 
Q 1341 3281 1617 3432 
Q 1894 3584 2278 3584 
Q 2916 3584 3314 3078 
Q 3713 2572 3713 1747 
Q 3713 922 3314 415 
Q 2916 -91 2278 -91 
Q 1894 -91 1617 61 
Q 1341 213 1159 525 
z
M 3116 1747 
Q 3116 2381 2855 2742 
Q 2594 3103 2138 3103 
Q 1681 3103 1420 2742 
Q 1159 2381 1159 1747 
Q 1159 1113 1420 752 
Q 1681 391 2138 391 
Q 2594 391 2855 752 
Q 3116 1113 3116 1747 
z
" transform="scale(0.015625)"/>
     </defs>
     <use xlink:href="#DejaVuSans-53"/>
     <use xlink:href="#DejaVuSans-79" transform="translate(63.476562 0)"/>
     <use xlink:href="#DejaVuSans-6e" transform="translate(122.65625 0)"/>
     <use xlink:href="#DejaVuSans-74" transform="translate(186.035156 0)"/>
     <use xlink:href="#DejaVuSans-68" transform="translate(225.244141 0)"/>
     <use xlink:href="#DejaVuSans-65" transform="translate(288.623047 0)"/>
     <use xlink:href="#DejaVuSans-73" transform="translate(350.146484 0)"/>
     <use xlink:href="#DejaVuSans-69" transform="translate(402.246094 0)"/>
     <use xlink:href="#DejaVuSans-7a" transform="translate(430.029297 0)"/>
     <use xlink:href="#DejaVuSans-65" transform="translate(482.519531 0)"/>
     <use xlink:href="#DejaVuSans-64" transform="translate(544.042969 0)"/>
     <use xlink:href="#DejaVuSans-20" transform="translate(607.519531 0)"/>
     <use xlink:href="#DejaVuSans-4d" transform="translate(639.306641 0)"/>
     <use xlink:href="#DejaVuSans-61" transform="translate(725.585938 0)"/>
     <use xlink:href="#DejaVuSans-74" transform="translate(786.865234 0)"/>
     <use xlink:href="#DejaVuSans-65" transform="translate(826.074219 0)"/>
     <use xlink:href="#DejaVuSans-72" transform="translate(887.597656 0)"/>
     <use xlink:href="#DejaVuSans-69" transform="translate(928.710938 0)"/>
     <use xlink:href="#DejaVuSans-61" transform="translate(956.494141 0)"/>
     <use xlink:href="#DejaVuSans-6c" transform="translate(1017.773438 0)"/>
     <use xlink:href="#DejaVuSans-20" transform="translate(1045.556641 0)"/>
     <use xlink:href="#DejaVuSans-53" transform="translate(1077.34375 0)"/>
     <use xlink:href="#DejaVuSans-70" transform="translate(1140.820312 0)"/>
     <use xlink:href="#DejaVuSans-65" transform="translate(1204.296875 0)"/>
     <use xlink:href="#DejaVuSans-63" transform="translate(1265.820312 0)"/>
     <use xlink:href="#DejaVuSans-74" transform="translate(1320.800781 0)"/>
     <use xlink:href="#DejaVuSans-72" transform="translate(1360.009766 0)"/>
     <use xlink:href="#DejaVuSans-75" transform="translate(1401.123047 0)"/>
     <use xlink:href="#DejaVuSans-6d" transform="translate(1464.501953 0)"/>
    </g>
   </g>
  </g>
 </g>
 <defs>
  <clipPath id="p822f570ac9">
   <rect x="61.41" y="36.96" width="499.47" height="195.156"/>
  </clipPath>
 </defs>
</svg>
