<?xml version="1.0" encoding="utf-8" standalone="no"?>
<!DOCTYPE svg PUBLIC "-//W3C//DTD SVG 1.1//EN"
  "http://www.w3.org/Graphics/SVG/1.1/DTD/svg11.dtd">
<svg xmlns:xlink="http://www.w3.org/1999/xlink" width="720pt" height="432pt" viewBox="0 0 720 432" xmlns="http://www.w3.org/2000/svg" version="1.1">
 <metadata>
  <rdf:RDF xmlns:dc="http://purl.org/dc/elements/1.1/" xmlns:cc="http://creativecommons.org/ns#" xmlns:rdf="http://www.w3.org/1999/02/22-rdf-syntax-ns#">
   <cc:Work>
    <dc:type rdf:resource="http://purl.org/dc/dcmitype/StillImage"/>
    <dc:date>2026-03-22T16:19:36.700022</dc:date>
    <dc:format>image/svg+xml</dc:format>
    <dc:creator>
     <cc:Agent>
      <dc:title>Matplotlib v3.10.8, https://matplotlib.org/</dc:title>
     </cc:Agent>
    </dc:creator>
   </cc:Work>
  </rdf:RDF>
 </metadata>
 <defs>
  <style type="text/css">*{stroke-linejoin: round; stroke-linecap: butt}</style>
 </defs>
 <g id="figure_1">
  <g id="patch_1">
   <path d="M 0 432 
L 720 432 
L 720 0 
L 0 0 
L 0 432 
z
" style="fill: none"/>
  </g>
  <g id="axes_1">
   <g id="patch_2">
    <path d="M 41.03 121.78 
L 704.88 121.78 
L 704.88 36.96 
L 41.03 36.96 
L 41.03 121.78 
z
" style="fill: none"/>
   </g>
   <g id="matplotlib.axis_1">
    <g id="xtick_1">
     <g id="line2d_1">
      <path d="M 71.205 121.78 
L 71.205 36.96 
" clip-path="url(#pf5094a40bd)" style="fill: none; stroke: #cbcbcb"/>
     </g>
     <g id="line2d_2"/>
     <g id="text_1">
      <!-- 0 -->
      <g style="fill: #cccccc" transform="translate(66.75125 135.917813) scale(0.14 -0.14)">
       <defs>
        <path id="DejaVuSans-30" d="M 2034 4250 
Q 1547 4250 1301 3770 
Q 1056 3291 1056 2328 
Q 1056 1369 1301 889 
Q 1547 409 2034 409 
Q 2525 409 2770 889 
Q 3016 1369 3016 2328 
Q 3016 3291 2770 3770 
Q 2525 4250 2034 4250 
z
M 2034 4750 
Q 2819 4750 3233 4129 
Q 3647 3509 3647 2328 
Q 3647 1150 3233 529 
Q 2819 -91 2034 -91 
Q 1250 -91 836 529 
Q 422 1150 422 2328 
Q 422 3509 836 4129 
Q 1250 4750 2034 4750 
z
" transform="scale(0.015625)"/>
       </defs>
       <use xlink:href="#DejaVuSans-30"/>
      </g>
     </g>
    </g>
    <g id="xtick_2">
     <g id="line2d_3">
      <path d="M 146.831566 121.78 
L 146.831566 36.96 
" clip-path="url(#pf5094a40bd)" style="fill: none; stroke: #cbcbcb"/>
     </g>
     <g id="line2d_4"/>
     <g id="text_2">
      <!-- 50 -->
      <g style="fill: #cccccc" transform="translate(137.924066 135.917813) scale(0.14 -0.14)">
       <defs>
        <path id="DejaVuSans-35" d="M 691 4666 
L 3169 4666 
L 3169 4134 
L 1269 4134 
L 1269 2991 
Q 1406 3038 1543 3061 
Q 1681 3084 1819 3084 
Q 2600 3084 3056 2656 
Q 3513 2228 3513 1497 
Q 3513 744 3044 326 
Q 2575 -91 1722 -91 
Q 1428 -91 1123 -41 
Q 819 9 494 109 
L 494 744 
Q 775 591 1075 516 
Q 1375 441 1709 441 
Q 2250 441 2565 725 
Q 2881 1009 2881 1497 
Q 2881 1984 2565 2268 
Q 2250 2553 1709 2553 
Q 1456 2553 1204 2497 
Q 953 2441 691 2322 
L 691 4666 
z
" transform="scale(0.015625)"/>
       </defs>
       <use xlink:href="#DejaVuSans-35"/>
       <use xlink:href="#DejaVuSans-30" transform="translate(63.623047 0)"/>
      </g>
     </g>
    </g>
    <g id="xtick_3">
     <g id="line2d_5">
      <path d="M 222.458133 121.78 
L 222.458133 36.96 
" clip-path="url(#pf5094a40bd)" style="fill: none; stroke: #cbcbcb"/>
     </g>
     <g id="line2d_6"/>
     <g id="text_3">
      <!-- 100 -->
      <g style="fill: #cccccc" transform="translate(209.096883 135.917813) scale(0.14 -0.14)">
       <defs>
        <path id="DejaVuSans-31" d="M 794 531 
L 1825 531 
L 1825 4091 
L 703 3866 
L 703 4441 
L 1819 4666 
L 2450 4666 
L 2450 531 
L 3481 531 
L 3481 0 
L 794 0 
L 794 531 
z
" transform="scale(0.015625)"/>
       </defs>
       <use xlink:href="#DejaVuSans-31"/>
       <use xlink:href="#DejaVuSans-30" transform="translate(63.623047 0)"/>
       <use xlink:href="#DejaVuSans-30" transform="translate(127.246094 0)"/>
      </g>
     </g>
    </g>
    <g id="xtick_4">
     <g id="line2d_7">
      <path d="M 298.084699 121.78 
L 298.084699 36.96 
" clip-path="url(#pf5094a40bd)" style="fill: none; stroke: #cbcbcb"/>
     </g>
     <g id="line2d_8"/>
     <g id="text_4">
      <!-- 150 -->
      <g style="fill: #cccccc" transform="translate(284.723449 135.917813) scale(0.14 -0.14)">
       <use xlink:href="#DejaVuSans-31"/>
       <use xlink:href="#DejaVuSans-35" transform="translate(63.623047 0)"/>
       <use xlink:href="#DejaVuSans-30" transform="translate(127.246094 0)"/>
      </g>
     </g>
    </g>
    <g id="xtick_5">
     <g id="line2d_9">
      <path d="M 373.711266 121.78 
L 373.711266 36.96 
" clip-path="url(#pf5094a40bd)" style="fill: none; stroke: #cbcbcb"/>
     </g>
     <g id="line2d_10"/>
     <g id="text_5">
      <!-- 200 -->
      <g style="fill: #cccccc" transform="translate(360.350016 135.917813) scale(0.14 -0.14)">
       <defs>
        <path id="DejaVuSans-32" d="M 1228 531 
L 3431 531 
L 3431 0 
L 469 0 
L 469 531 
Q 828 903 1448 1529 
Q 2069 2156 2228 2338 
Q 2531 2678 2651 2914 
Q 2772 3150 2772 3378 
Q 2772 3750 2511 3984 
Q 2250 4219 1831 4219 
Q 1534 4219 1204 4116 
Q 875 4013 500 3803 
L 500 4441 
Q 881 4594 1212 4672 
Q 1544 4750 1819 4750 
Q 2544 4750 2975 4387 
Q 3406 4025 3406 3419 
Q 3406 3131 3298 2873 
Q 3191 2616 2906 2266 
Q 2828 2175 2409 1742 
Q 1991 1309 1228 531 
z
" transform="scale(0.015625)"/>
       </defs>
       <use xlink:href="#DejaVuSans-32"/>
       <use xlink:href="#DejaVuSans-30" transform="translate(63.623047 0)"/>
       <use xlink:href="#DejaVuSans-30" transform="translate(127.246094 0)"/>
      </g>
     </g>
    </g>
    <g id="xtick_6">
     <g id="line2d_11">
      <path d="M 449.337832 121.78 
L 449.337832 36.96 
" clip-path="url(#pf5094a40bd)" style="fill: none; stroke: #cbcbcb"/>
     </g>
     <g id="line2d_12"/>
     <g id="text_6">
      <!-- 250 -->
      <g style="fill: #cccccc" transform="translate(435.976582 135.917813) scale(0.14 -0.14)">
       <use xlink:href="#DejaVuSans-32"/>
       <use xlink:href="#DejaVuSans-35" transform="translate(63.623047 0)"/>
       <use xlink:href="#DejaVuSans-30" transform="translate(127.246094 0)"/>
      </g>
     </g>
    </g>
    <g id="xtick_7">
     <g id="line2d_13">
      <path d="M 524.964398 121.78 
L 524.964398 36.96 
" clip-path="url(#pf5094a40bd)" style="fill: none; stroke: #cbcbcb"/>
     </g>
     <g id="line2d_14"/>
     <g id="text_7">
      <!-- 300 -->
      <g style="fill: #cccccc" transform="translate(511.603148 135.917813) scale(0.14 -0.14)">
       <defs>
        <path id="DejaVuSans-33" d="M 2597 2516 
Q 3050 2419 3304 2112 
Q 3559 1806 3559 1356 
Q 3559 666 3084 287 
Q 2609 -91 1734 -91 
Q 1441 -91 1130 -33 
Q 819 25 488 141 
L 488 750 
Q 750 597 1062 519 
Q 1375 441 1716 441 
Q 2309 441 2620 675 
Q 2931 909 2931 1356 
Q 2931 1769 2642 2001 
Q 2353 2234 1838 2234 
L 1294 2234 
L 1294 2753 
L 1863 2753 
Q 2328 2753 2575 2939 
Q 2822 3125 2822 3475 
Q 2822 3834 2567 4026 
Q 2313 4219 1838 4219 
Q 1578 4219 1281 4162 
Q 984 4106 628 3988 
L 628 4550 
Q 988 4650 1302 4700 
Q 1616 4750 1894 4750 
Q 2613 4750 3031 4423 
Q 3450 4097 3450 3541 
Q 3450 3153 3228 2886 
Q 3006 2619 2597 2516 
z
" transform="scale(0.015625)"/>
       </defs>
       <use xlink:href="#DejaVuSans-33"/>
       <use xlink:href="#DejaVuSans-30" transform="translate(63.623047 0)"/>
       <use xlink:href="#DejaVuSans-30" transform="translate(127.246094 0)"/>
      </g>
     </g>
    </g>
    <g id="xtick_8">
     <g id="line2d_15">
      <path d="M 600.590965 121.78 
L 600.590965 36.96 
" clip-path="url(#pf5094a40bd)" style="fill: none; stroke: #cbcbcb"/>
     </g>
     <g id="line2d_16"/>
     <g id="text_8">
      <!-- 350 -->
      <g style="fill: #cccccc" transform="translate(587.229715 135.917813) scale(0.14 -0.14)">
       <use xlink:href="#DejaVuSans-33"/>
       <use xlink:href="#DejaVuSans-35" transform="translate(63.623047 0)"/>
       <use xlink:href="#DejaVuSans-30" transform="translate(127.246094 0)"/>
      </g>
     </g>
    </g>
    <g id="xtick_9">
     <g id="line2d_17">
      <path d="M 676.217531 121.78 
L 676.217531 36.96 
" clip-path="url(#pf5094a40bd)" style="fill: none; stroke: #cbcbcb"/>
     </g>
     <g id="line2d_18"/>
     <g id="text_9">
      <!-- 400 -->
      <g style="fill: #cccccc" transform="translate(662.856281 135.917813) scale(0.14 -0.14)">
       <defs>
        <path id="DejaVuSans-34" d="M 2419 4116 
L 825 1625 
L 2419 1625 
L 2419 4116 
z
M 2253 4666 
L 3047 4666 
L 3047 1625 
L 3713 1625 
L 3713 1100 
L 3047 1100 
L 3047 0 
L 2419 0 
L 2419 1100 
L 313 1100 
L 313 1709 
L 2253 4666 
z
" transform="scale(0.015625)"/>
       </defs>
       <use xlink:href="#DejaVuSans-34"/>
       <use xlink:href="#DejaVuSans-30" transform="translate(63.623047 0)"/>
       <use xlink:href="#DejaVuSans-30" transform="translate(127.246094 0)"/>
      </g>
     </g>
    </g>
   </g>
   <g id="matplotlib.axis_2">
    <g id="ytick_1">
     <g id="line2d_19">
      <path d="M 41.03 96.276142 
L 704.88 96.276142 
" clip-path="url(#pf5094a40bd)" style="fill: none; stroke: #cbcbcb"/>
     </g>
     <g id="line2d_20"/>
     <g id="text_10">
      <!-- 0 -->
      <g style="fill: #cccccc" transform="translate(28.6225 101.595048) scale(0.14 -0.14)">
       <use xlink:href="#DejaVuSans-30"/>
      </g>
     </g>
    </g>
    <g id="ytick_2">
     <g id="line2d_21">
      <path d="M 41.03 63.709981 
L 704.88 63.709981 
" clip-path="url(#pf5094a40bd)" style="fill: none; stroke: #cbcbcb"/>
     </g>
     <g id="line2d_22"/>
     <g id="text_11">
      <!-- 2 -->
      <g style="fill: #cccccc" transform="translate(28.6225 69.028887) scale(0.14 -0.14)">
       <use xlink:href="#DejaVuSans-32"/>
      </g>
     </g>
    </g>
   </g>
   <g id="line2d_23">
    <path d="M 71.205 100.392676 
L 72.717531 88.746774 
L 74.230063 94.393434 
L 75.742594 87.334216 
L 77.255125 87.012385 
L 78.767657 83.750286 
L 80.280188 88.701079 
L 81.792719 76.585447 
L 83.305251 80.336889 
L 84.817782 83.789212 
L 86.330313 74.853513 
L 87.842845 79.854635 
L 89.355376 83.302166 
L 90.867907 84.330325 
L 92.380439 78.649145 
L 93.89297 82.354176 
L 95.405501 87.718592 
L 96.918033 87.227785 
L 98.430564 98.140709 
L 99.943095 90.79528 
L 101.455627 96.423165 
L 102.968158 100.478648 
L 104.480689 102.819424 
L 105.993221 100.33296 
L 107.505752 115.426287 
L 109.018283 102.637188 
L 110.530815 104.904366 
L 112.043346 113.02708 
L 113.555877 108.60897 
L 115.068409 117.924545 
L 116.58094 116.140832 
L 118.093471 116.611014 
L 119.606003 109.058165 
L 121.118534 114.089655 
L 122.631065 111.5647 
L 124.143596 110.407383 
L 125.656128 102.03329 
L 127.168659 109.712909 
L 128.68119 103.359862 
L 130.193722 95.811006 
L 131.706253 92.598011 
L 133.218784 95.218054 
L 134.731316 91.084104 
L 136.243847 84.099341 
L 137.756378 87.774147 
L 139.26891 81.241199 
L 140.781441 76.747771 
L 142.293972 82.789129 
L 143.806504 81.958063 
L 145.319035 86.423885 
L 146.831566 78.202613 
L 148.344098 77.139944 
L 149.856629 78.347055 
L 151.36916 87.765088 
L 152.881692 79.265036 
L 154.394223 79.452774 
L 157.419286 92.441202 
L 158.931817 95.387643 
L 160.444348 94.172596 
L 161.95688 101.81268 
L 163.469411 103.257169 
L 164.981942 103.020108 
L 166.494474 107.462007 
L 168.007005 109.619194 
L 169.519536 112.262727 
L 171.032068 106.719938 
L 172.544599 115.493744 
L 174.05713 111.79362 
L 175.569662 113.887505 
L 177.082193 111.883371 
L 178.594724 113.779407 
L 180.107256 112.178183 
L 181.619787 111.271624 
L 183.132318 110.011562 
L 184.64485 105.600887 
L 186.157381 102.222976 
L 187.669912 105.162292 
L 189.182444 99.711529 
L 190.694975 106.75447 
L 192.207506 95.817138 
L 195.232569 91.165216 
L 196.7451 91.33029 
L 198.257632 84.401994 
L 199.770163 86.006743 
L 201.282694 86.548792 
L 202.795226 78.589492 
L 204.307757 77.762579 
L 205.820288 84.982605 
L 207.33282 80.988387 
L 208.845351 83.759469 
L 210.357882 75.430742 
L 211.870414 79.190686 
L 213.382945 80.201022 
L 214.895476 88.599975 
L 216.408008 83.08029 
L 217.920539 90.361505 
L 219.43307 90.765303 
L 220.945602 92.934155 
L 222.458133 95.435159 
L 223.970664 100.698018 
L 225.483195 99.366059 
L 226.995727 105.092514 
L 228.508258 103.342631 
L 230.020789 112.785213 
L 231.533321 111.9819 
L 233.045852 108.791456 
L 234.558383 115.094173 
L 236.070915 109.34407 
L 237.583446 109.217971 
L 239.095977 109.826352 
L 240.608509 112.859593 
L 242.12104 108.561062 
L 243.633571 107.650126 
L 245.146103 105.558956 
L 246.658634 110.034872 
L 248.171165 104.937474 
L 249.683697 90.746723 
L 251.196228 99.12942 
L 254.221291 95.620048 
L 255.733822 88.553882 
L 257.246353 89.403703 
L 258.758885 84.648355 
L 260.271416 82.535577 
L 261.783947 80.175347 
L 263.296479 80.099231 
L 264.80901 86.692289 
L 266.321541 78.898143 
L 267.834073 78.761364 
L 269.346604 77.698475 
L 270.859135 79.18304 
L 272.371667 84.147737 
L 273.884198 82.879147 
L 275.396729 89.845734 
L 276.909261 81.644201 
L 278.421792 88.356773 
L 279.934323 91.577901 
L 281.446855 94.108754 
L 282.959386 98.95151 
L 284.471917 102.479525 
L 285.984449 100.624167 
L 287.49698 103.235243 
L 289.009511 109.684595 
L 290.522043 112.048591 
L 292.034574 111.356039 
L 293.547105 111.748193 
L 295.059637 107.088943 
L 296.572168 108.447388 
L 298.084699 113.796837 
L 299.597231 112.518928 
L 301.109762 110.689468 
L 302.622293 104.016813 
L 304.134825 111.856147 
L 305.647356 105.872283 
L 307.159887 103.082991 
L 308.672419 96.00266 
L 310.18495 100.544961 
L 311.697481 96.174126 
L 313.210013 97.332007 
L 314.722544 91.419025 
L 316.235075 91.885134 
L 317.747607 88.588575 
L 319.260138 88.435141 
L 320.772669 84.83131 
L 322.285201 75.395828 
L 323.797732 85.900559 
L 325.310263 81.806752 
L 326.822794 76.705467 
L 328.335326 82.781091 
L 329.847857 85.209352 
L 331.360388 80.974338 
L 332.87292 75.813362 
L 334.385451 82.371465 
L 335.897982 83.675182 
L 337.410514 89.810768 
L 338.923045 89.894197 
L 340.435576 97.944567 
L 341.948108 89.428298 
L 343.460639 98.097099 
L 344.97317 100.11044 
L 346.485702 104.433386 
L 347.998233 103.49443 
L 349.510764 99.926765 
L 351.023296 110.35758 
L 352.535827 102.997521 
L 354.048358 113.748498 
L 355.56089 116.630587 
L 357.073421 112.243481 
L 358.585952 115.070069 
L 360.098484 105.709591 
L 361.611015 114.281353 
L 363.123546 111.197548 
L 364.636078 112.711816 
L 366.148609 112.119095 
L 367.66114 99.889784 
L 369.173672 100.101211 
L 370.686203 102.35874 
L 372.198734 96.371958 
L 373.711266 43.942612 
L 375.223797 45.915665 
L 376.736328 49.8882 
L 378.24886 45.890274 
L 379.761391 46.040375 
L 381.273922 54.30312 
L 382.786454 47.102506 
L 384.298985 50.132509 
L 385.811516 46.987917 
L 387.324048 51.227121 
L 388.836579 50.396342 
L 390.34911 48.699161 
L 391.861642 48.416471 
L 393.374173 49.761063 
L 394.886704 47.289992 
L 396.399236 53.164214 
L 397.911767 54.230495 
L 399.424298 47.054787 
L 402.449361 53.280825 
L 403.961892 55.800479 
L 405.474424 51.451007 
L 406.986955 52.527997 
L 408.499486 52.268357 
L 410.012018 57.616153 
L 411.524549 54.924034 
L 413.03708 55.562081 
L 414.549612 57.350689 
L 416.062143 59.760884 
L 417.574674 59.019171 
L 419.087206 63.541585 
L 420.599737 58.432544 
L 422.112268 59.980779 
L 423.624799 60.825262 
L 425.137331 64.394484 
L 426.649862 60.370927 
L 428.162393 58.649241 
L 429.674925 65.359862 
L 431.187456 61.282359 
L 432.699987 66.496111 
L 434.212519 63.285838 
L 435.72505 69.306901 
L 437.237581 64.776487 
L 438.750113 64.662928 
L 440.262644 61.666621 
L 441.775175 67.669788 
L 443.287707 71.667839 
L 444.800238 68.219505 
L 446.312769 69.790628 
L 447.825301 69.485759 
L 449.337832 66.495711 
L 450.850363 77.19488 
L 452.362895 67.350217 
L 453.875426 72.453377 
L 455.387957 75.744986 
L 456.900489 77.451678 
L 458.41302 75.145506 
L 459.925551 69.859165 
L 461.438083 71.801862 
L 462.950614 77.112761 
L 464.463145 74.187419 
L 465.975677 66.681491 
L 467.488208 78.392384 
L 469.000739 75.595553 
L 470.513271 76.654118 
L 472.025802 74.780502 
L 473.538333 73.551842 
L 475.050865 81.107018 
L 476.563396 76.078402 
L 478.075927 72.830993 
L 479.588459 77.089798 
L 481.10099 77.067845 
L 482.613521 78.539252 
L 484.126053 81.489809 
L 485.638584 76.723521 
L 487.151115 83.856533 
L 488.663647 83.542582 
L 490.176178 81.88179 
L 491.688709 82.610751 
L 493.201241 82.389214 
L 494.713772 83.352451 
L 496.226303 79.955519 
L 497.738835 77.042161 
L 499.251366 81.680455 
L 500.763897 77.999112 
L 502.276429 77.28483 
L 503.78896 80.630385 
L 505.301491 79.720675 
L 506.814023 78.631619 
L 508.326554 72.875709 
L 509.839085 82.195842 
L 511.351617 71.215364 
L 512.864148 78.864625 
L 514.376679 77.265683 
L 515.889211 76.82853 
L 517.401742 82.542698 
L 518.914273 74.537198 
L 520.426805 71.302885 
L 521.939336 75.79465 
L 523.451867 72.71321 
L 524.964398 75.339638 
L 526.47693 75.721233 
L 527.989461 79.821858 
L 529.501992 74.076702 
L 531.014524 75.266243 
L 532.527055 73.443437 
L 534.039586 72.643322 
L 535.552118 65.542791 
L 537.064649 74.18364 
L 538.57718 72.521929 
L 540.089712 76.861871 
L 541.602243 57.494172 
L 543.114774 70.51525 
L 544.627306 62.205401 
L 546.139837 68.158289 
L 547.652368 59.273418 
L 549.1649 65.872863 
L 550.677431 69.175041 
L 552.189962 63.914649 
L 553.702494 69.282546 
L 555.215025 60.788791 
L 556.727556 65.51541 
L 558.240088 55.189037 
L 559.752619 60.564405 
L 561.26515 56.794244 
L 562.777682 60.368887 
L 564.290213 61.604045 
L 565.802744 52.675845 
L 567.315276 57.157157 
L 568.827807 56.049944 
L 570.340338 52.97517 
L 571.85287 55.93311 
L 573.365401 57.098628 
L 574.877932 54.837865 
L 576.390464 55.267594 
L 577.902995 54.764319 
L 579.415526 54.541765 
L 580.928058 51.82878 
L 582.440589 54.521944 
L 583.95312 55.172361 
L 585.465652 52.365746 
L 586.978183 53.896403 
L 588.490714 58.980714 
L 590.003246 52.182655 
L 591.515777 49.545406 
L 593.028308 49.534026 
L 594.54084 54.932276 
L 596.053371 50.940352 
L 597.565902 53.511181 
L 599.078434 47.014234 
L 600.590965 48.910555 
L 602.103496 54.301745 
L 603.616028 52.246782 
L 605.128559 52.28382 
L 606.64109 50.156584 
L 608.153622 40.815455 
L 609.666153 48.97345 
L 611.178684 49.417933 
L 612.691216 45.69627 
L 614.203747 54.00017 
L 615.716278 48.162901 
L 617.22881 46.091427 
L 618.741341 41.053345 
L 620.253872 47.369864 
L 621.766404 44.287874 
L 623.278935 50.651876 
L 624.791466 51.347112 
L 626.303997 49.192801 
L 627.816529 53.101247 
L 629.32906 47.326642 
L 630.841591 50.395712 
L 632.354123 50.584987 
L 633.866654 47.651239 
L 635.379185 56.833186 
L 636.891717 50.703171 
L 638.404248 53.314465 
L 639.916779 56.384997 
L 641.429311 43.807498 
L 642.941842 54.059178 
L 644.454373 54.691152 
L 645.966905 49.569161 
L 647.479436 57.62882 
L 648.991967 49.644367 
L 652.01703 57.989715 
L 653.529561 53.886539 
L 655.042093 58.603414 
L 656.554624 58.231532 
L 658.067155 58.78404 
L 659.579687 56.650025 
L 661.092218 58.200436 
L 662.604749 58.019002 
L 664.117281 61.855209 
L 665.629812 64.582917 
L 667.142343 64.763152 
L 668.654875 61.364984 
L 670.167406 61.797803 
L 671.679937 61.741397 
L 673.192469 66.043784 
L 674.705 66.964122 
L 674.705 66.964122 
" clip-path="url(#pf5094a40bd)" style="fill: none; stroke: #34495e; stroke-width: 1.5"/>
   </g>
   <g id="patch_3">
    <path d="M 41.03 121.78 
L 41.03 36.96 
" style="fill: none; stroke: #cccccc; stroke-width: 3; stroke-linejoin: miter; stroke-linecap: square"/>
   </g>
   <g id="patch_4">
    <path d="M 704.88 121.78 
L 704.88 36.96 
" style="fill: none; stroke: #cccccc; stroke-width: 3; stroke-linejoin: miter; stroke-linecap: square"/>
   </g>
   <g id="patch_5">
    <path d="M 41.03 121.78 
L 704.88 121.78 
" style="fill: none; stroke: #cccccc; stroke-width: 3; stroke-linejoin: miter; stroke-linecap: square"/>
   </g>
   <g id="patch_6">
    <path d="M 41.03 36.96 
L 704.88 36.96 
" style="fill: none; stroke: #cccccc; stroke-width: 3; stroke-linejoin: miter; stroke-linecap: square"/>
   </g>
   <g id="text_12">
    <!-- Original Non-Stationary Signal -->
    <g style="fill: #cccccc" transform="translate(220.282375 30.96) scale(0.2016 -0.2016)">
     <defs>
      <path id="DejaVuSans-4f" d="M 2522 4238 
Q 1834 4238 1429 3725 
Q 1025 3213 1025 2328 
Q 1025 1447 1429 934 
Q 1834 422 2522 422 
Q 3209 422 3611 934 
Q 4013 1447 4013 2328 
Q 4013 3213 3611 3725 
Q 3209 4238 2522 4238 
z
M 2522 4750 
Q 3503 4750 4090 4092 
Q 4678 3434 4678 2328 
Q 4678 1225 4090 567 
Q 3503 -91 2522 -91 
Q 1538 -91 948 565 
Q 359 1222 359 2328 
Q 359 3434 948 4092 
Q 1538 4750 2522 4750 
z
" transform="scale(0.015625)"/>
      <path id="DejaVuSans-72" d="M 2631 2963 
Q 2534 3019 2420 3045 
Q 2306 3072 2169 3072 
Q 1681 3072 1420 2755 
Q 1159 2438 1159 1844 
L 1159 0 
L 581 0 
L 581 3500 
L 1159 3500 
L 1159 2956 
Q 1341 3275 1631 3429 
Q 1922 3584 2338 3584 
Q 2397 3584 2469 3576 
Q 2541 3569 2628 3553 
L 2631 2963 
z
" transform="scale(0.015625)"/>
      <path id="DejaVuSans-69" d="M 603 3500 
L 1178 3500 
L 1178 0 
L 603 0 
L 603 3500 
z
M 603 4863 
L 1178 4863 
L 1178 4134 
L 603 4134 
L 603 4863 
z
" transform="scale(0.015625)"/>
      <path id="DejaVuSans-67" d="M 2906 1791 
Q 2906 2416 2648 2759 
Q 2391 3103 1925 3103 
Q 1463 3103 1205 2759 
Q 947 2416 947 1791 
Q 947 1169 1205 825 
Q 1463 481 1925 481 
Q 2391 481 2648 825 
Q 2906 1169 2906 1791 
z
M 3481 434 
Q 3481 -459 3084 -895 
Q 2688 -1331 1869 -1331 
Q 1566 -1331 1297 -1286 
Q 1028 -1241 775 -1147 
L 775 -588 
Q 1028 -725 1275 -790 
Q 1522 -856 1778 -856 
Q 2344 -856 2625 -561 
Q 2906 -266 2906 331 
L 2906 616 
Q 2728 306 2450 153 
Q 2172 0 1784 0 
Q 1141 0 747 490 
Q 353 981 353 1791 
Q 353 2603 747 3093 
Q 1141 3584 1784 3584 
Q 2172 3584 2450 3431 
Q 2728 3278 2906 2969 
L 2906 3500 
L 3481 3500 
L 3481 434 
z
" transform="scale(0.015625)"/>
      <path id="DejaVuSans-6e" d="M 3513 2113 
L 3513 0 
L 2938 0 
L 2938 2094 
Q 2938 2591 2744 2837 
Q 2550 3084 2163 3084 
Q 1697 3084 1428 2787 
Q 1159 2491 1159 1978 
L 1159 0 
L 581 0 
L 581 3500 
L 1159 3500 
L 1159 2956 
Q 1366 3272 1645 3428 
Q 1925 3584 2291 3584 
Q 2894 3584 3203 3211 
Q 3513 2838 3513 2113 
z
" transform="scale(0.015625)"/>
      <path id="DejaVuSans-61" d="M 2194 1759 
Q 1497 1759 1228 1600 
Q 959 1441 959 1056 
Q 959 750 1161 570 
Q 1363 391 1709 391 
Q 2188 391 2477 730 
Q 2766 1069 2766 1631 
L 2766 1759 
L 2194 1759 
z
M 3341 1997 
L 3341 0 
L 2766 0 
L 2766 531 
Q 2569 213 2275 61 
Q 1981 -91 1556 -91 
Q 1019 -91 701 211 
Q 384 513 384 1019 
Q 384 1609 779 1909 
Q 1175 2209 1959 2209 
L 2766 2209 
L 2766 2266 
Q 2766 2663 2505 2880 
Q 2244 3097 1772 3097 
Q 1472 3097 1187 3025 
Q 903 2953 641 2809 
L 641 3341 
Q 956 3463 1253 3523 
Q 1550 3584 1831 3584 
Q 2591 3584 2966 3190 
Q 3341 2797 3341 1997 
z
" transform="scale(0.015625)"/>
      <path id="DejaVuSans-6c" d="M 603 4863 
L 1178 4863 
L 1178 0 
L 603 0 
L 603 4863 
z
" transform="scale(0.015625)"/>
      <path id="DejaVuSans-20" transform="scale(0.015625)"/>
      <path id="DejaVuSans-4e" d="M 628 4666 
L 1478 4666 
L 3547 763 
L 3547 4666 
L 4159 4666 
L 4159 0 
L 3309 0 
L 1241 3903 
L 1241 0 
L 628 0 
L 628 4666 
z
" transform="scale(0.015625)"/>
      <path id="DejaVuSans-6f" d="M 1959 3097 
Q 1497 3097 1228 2736 
Q 959 2375 959 1747 
Q 959 1119 1226 758 
Q 1494 397 1959 397 
Q 2419 397 2687 759 
Q 2956 1122 2956 1747 
Q 2956 2369 2687 2733 
Q 2419 3097 1959 3097 
z
M 1959 3584 
Q 2709 3584 3137 3096 
Q 3566 2609 3566 1747 
Q 3566 888 3137 398 
Q 2709 -91 1959 -91 
Q 1206 -91 779 398 
Q 353 888 353 1747 
Q 353 2609 779 3096 
Q 1206 3584 1959 3584 
z
" transform="scale(0.015625)"/>
      <path id="DejaVuSans-2d" d="M 313 2009 
L 1997 2009 
L 1997 1497 
L 313 1497 
L 313 2009 
z
" transform="scale(0.015625)"/>
      <path id="DejaVuSans-53" d="M 3425 4513 
L 3425 3897 
Q 3066 4069 2747 4153 
Q 2428 4238 2131 4238 
Q 1616 4238 1336 4038 
Q 1056 3838 1056 3469 
Q 1056 3159 1242 3001 
Q 1428 2844 1947 2747 
L 2328 2669 
Q 3034 2534 3370 2195 
Q 3706 1856 3706 1288 
Q 3706 609 3251 259 
Q 2797 -91 1919 -91 
Q 1588 -91 1214 -16 
Q 841 59 441 206 
L 441 856 
Q 825 641 1194 531 
Q 1563 422 1919 422 
Q 2459 422 2753 634 
Q 3047 847 3047 1241 
Q 3047 1584 2836 1778 
Q 2625 1972 2144 2069 
L 1759 2144 
Q 1053 2284 737 2584 
Q 422 2884 422 3419 
Q 422 4038 858 4394 
Q 1294 4750 2059 4750 
Q 2388 4750 2728 4690 
Q 3069 4631 3425 4513 
z
" transform="scale(0.015625)"/>
      <path id="DejaVuSans-74" d="M 1172 4494 
L 1172 3500 
L 2356 3500 
L 2356 3053 
L 1172 3053 
L 1172 1153 
Q 1172 725 1289 603 
Q 1406 481 1766 481 
L 2356 481 
L 2356 0 
L 1766 0 
Q 1100 0 847 248 
Q 594 497 594 1153 
L 594 3053 
L 172 3053 
L 172 3500 
L 594 3500 
L 594 4494 
L 1172 4494 
z
" transform="scale(0.015625)"/>
      <path id="DejaVuSans-79" d="M 2059 -325 
Q 1816 -950 1584 -1140 
Q 1353 -1331 966 -1331 
L 506 -1331 
L 506 -850 
L 844 -850 
Q 1081 -850 1212 -737 
Q 1344 -625 1503 -206 
L 1606 56 
L 191 3500 
L 800 3500 
L 1894 763 
L 2988 3500 
L 3597 3500 
L 2059 -325 
z
" transform="scale(0.015625)"/>
     </defs>
     <use xlink:href="#DejaVuSans-4f"/>
     <use xlink:href="#DejaVuSans-72" transform="translate(78.710938 0)"/>
     <use xlink:href="#DejaVuSans-69" transform="translate(119.824219 0)"/>
     <use xlink:href="#DejaVuSans-67" transform="translate(147.607422 0)"/>
     <use xlink:href="#DejaVuSans-69" transform="translate(211.083984 0)"/>
     <use xlink:href="#DejaVuSans-6e" transform="translate(238.867188 0)"/>
     <use xlink:href="#DejaVuSans-61" transform="translate(302.246094 0)"/>
     <use xlink:href="#DejaVuSans-6c" transform="translate(363.525391 0)"/>
     <use xlink:href="#DejaVuSans-20" transform="translate(391.308594 0)"/>
     <use xlink:href="#DejaVuSans-4e" transform="translate(423.095703 0)"/>
     <use xlink:href="#DejaVuSans-6f" transform="translate(497.900391 0)"/>
     <use xlink:href="#DejaVuSans-6e" transform="translate(559.082031 0)"/>
     <use xlink:href="#DejaVuSans-2d" transform="translate(622.460938 0)"/>
     <use xlink:href="#DejaVuSans-53" transform="translate(658.544922 0)"/>
     <use xlink:href="#DejaVuSans-74" transform="translate(722.021484 0)"/>
     <use xlink:href="#DejaVuSans-61" transform="translate(761.230469 0)"/>
     <use xlink:href="#DejaVuSans-74" transform="translate(822.509766 0)"/>
     <use xlink:href="#DejaVuSans-69" transform="translate(861.71875 0)"/>
     <use xlink:href="#DejaVuSans-6f" transform="translate(889.501953 0)"/>
     <use xlink:href="#DejaVuSans-6e" transform="translate(950.683594 0)"/>
     <use xlink:href="#DejaVuSans-61" transform="translate(1014.0625 0)"/>
     <use xlink:href="#DejaVuSans-72" transform="translate(1075.341797 0)"/>
     <use xlink:href="#DejaVuSans-79" transform="translate(1116.455078 0)"/>
     <use xlink:href="#DejaVuSans-20" transform="translate(1175.634766 0)"/>
     <use xlink:href="#DejaVuSans-53" transform="translate(1207.421875 0)"/>
     <use xlink:href="#DejaVuSans-69" transform="translate(1270.898438 0)"/>
     <use xlink:href="#DejaVuSans-67" transform="translate(1298.681641 0)"/>
     <use xlink:href="#DejaVuSans-6e" transform="translate(1362.158203 0)"/>
     <use xlink:href="#DejaVuSans-61" transform="translate(1425.537109 0)"/>
     <use xlink:href="#DejaVuSans-6c" transform="translate(1486.816406 0)"/>
    </g>
   </g>
  </g>
  <g id="axes_2">
   <g id="patch_7">
    <path d="M 41.03 260.74 
L 704.88 260.74 
L 704.88 175.92 
L 41.03 175.92 
L 41.03 260.74 
z
" style="fill: none"/>
   </g>
   <g id="matplotlib.axis_3">
    <g id="xtick_10">
     <g id="line2d_24">
      <path d="M 71.205 260.74 
L 71.205 175.92 
" clip-path="url(#p9fbfc8439f)" style="fill: none; stroke: #cbcbcb"/>
     </g>
     <g id="line2d_25"/>
     <g id="text_13">
      <!-- 0 -->
      <g style="fill: #cccccc" transform="translate(66.75125 274.877813) scale(0.14 -0.14)">
       <use xlink:href="#DejaVuSans-30"/>
      </g>
     </g>
    </g>
    <g id="xtick_11">
     <g id="line2d_26">
      <path d="M 145.895594 260.74 
L 145.895594 175.92 
" clip-path="url(#p9fbfc8439f)" style="fill: none; stroke: #cbcbcb"/>
     </g>
     <g id="line2d_27"/>
     <g id="text_14">
      <!-- 25 -->
      <g style="fill: #cccccc" transform="translate(136.988094 274.877813) scale(0.14 -0.14)">
       <use xlink:href="#DejaVuSans-32"/>
       <use xlink:href="#DejaVuSans-35" transform="translate(63.623047 0)"/>
      </g>
     </g>
    </g>
    <g id="xtick_12">
     <g id="line2d_28">
      <path d="M 220.586188 260.74 
L 220.586188 175.92 
" clip-path="url(#p9fbfc8439f)" style="fill: none; stroke: #cbcbcb"/>
     </g>
     <g id="line2d_29"/>
     <g id="text_15">
      <!-- 50 -->
      <g style="fill: #cccccc" transform="translate(211.678688 274.877813) scale(0.14 -0.14)">
       <use xlink:href="#DejaVuSans-35"/>
       <use xlink:href="#DejaVuSans-30" transform="translate(63.623047 0)"/>
      </g>
     </g>
    </g>
    <g id="xtick_13">
     <g id="line2d_30">
      <path d="M 295.276782 260.74 
L 295.276782 175.92 
" clip-path="url(#p9fbfc8439f)" style="fill: none; stroke: #cbcbcb"/>
     </g>
     <g id="line2d_31"/>
     <g id="text_16">
      <!-- 75 -->
      <g style="fill: #cccccc" transform="translate(286.369282 274.877813) scale(0.14 -0.14)">
       <defs>
        <path id="DejaVuSans-37" d="M 525 4666 
L 3525 4666 
L 3525 4397 
L 1831 0 
L 1172 0 
L 2766 4134 
L 525 4134 
L 525 4666 
z
" transform="scale(0.015625)"/>
       </defs>
       <use xlink:href="#DejaVuSans-37"/>
       <use xlink:href="#DejaVuSans-35" transform="translate(63.623047 0)"/>
      </g>
     </g>
    </g>
    <g id="xtick_14">
     <g id="line2d_32">
      <path d="M 369.967376 260.74 
L 369.967376 175.92 
" clip-path="url(#p9fbfc8439f)" style="fill: none; stroke: #cbcbcb"/>
     </g>
     <g id="line2d_33"/>
     <g id="text_17">
      <!-- 100 -->
      <g style="fill: #cccccc" transform="translate(356.606126 274.877813) scale(0.14 -0.14)">
       <use xlink:href="#DejaVuSans-31"/>
       <use xlink:href="#DejaVuSans-30" transform="translate(63.623047 0)"/>
       <use xlink:href="#DejaVuSans-30" transform="translate(127.246094 0)"/>
      </g>
     </g>
    </g>
    <g id="xtick_15">
     <g id="line2d_34">
      <path d="M 444.65797 260.74 
L 444.65797 175.92 
" clip-path="url(#p9fbfc8439f)" style="fill: none; stroke: #cbcbcb"/>
     </g>
     <g id="line2d_35"/>
     <g id="text_18">
      <!-- 125 -->
      <g style="fill: #cccccc" transform="translate(431.29672 274.877813) scale(0.14 -0.14)">
       <use xlink:href="#DejaVuSans-31"/>
       <use xlink:href="#DejaVuSans-32" transform="translate(63.623047 0)"/>
       <use xlink:href="#DejaVuSans-35" transform="translate(127.246094 0)"/>
      </g>
     </g>
    </g>
    <g id="xtick_16">
     <g id="line2d_36">
      <path d="M 519.348564 260.74 
L 519.348564 175.92 
" clip-path="url(#p9fbfc8439f)" style="fill: none; stroke: #cbcbcb"/>
     </g>
     <g id="line2d_37"/>
     <g id="text_19">
      <!-- 150 -->
      <g style="fill: #cccccc" transform="translate(505.987314 274.877813) scale(0.14 -0.14)">
       <use xlink:href="#DejaVuSans-31"/>
       <use xlink:href="#DejaVuSans-35" transform="translate(63.623047 0)"/>
       <use xlink:href="#DejaVuSans-30" transform="translate(127.246094 0)"/>
      </g>
     </g>
    </g>
    <g id="xtick_17">
     <g id="line2d_38">
      <path d="M 594.039158 260.74 
L 594.039158 175.92 
" clip-path="url(#p9fbfc8439f)" style="fill: none; stroke: #cbcbcb"/>
     </g>
     <g id="line2d_39"/>
     <g id="text_20">
      <!-- 175 -->
      <g style="fill: #cccccc" transform="translate(580.677908 274.877813) scale(0.14 -0.14)">
       <use xlink:href="#DejaVuSans-31"/>
       <use xlink:href="#DejaVuSans-37" transform="translate(63.623047 0)"/>
       <use xlink:href="#DejaVuSans-35" transform="translate(127.246094 0)"/>
      </g>
     </g>
    </g>
    <g id="xtick_18">
     <g id="line2d_40">
      <path d="M 668.729752 260.74 
L 668.729752 175.92 
" clip-path="url(#p9fbfc8439f)" style="fill: none; stroke: #cbcbcb"/>
     </g>
     <g id="line2d_41"/>
     <g id="text_21">
      <!-- 200 -->
      <g style="fill: #cccccc" transform="translate(655.368502 274.877813) scale(0.14 -0.14)">
       <use xlink:href="#DejaVuSans-32"/>
       <use xlink:href="#DejaVuSans-30" transform="translate(63.623047 0)"/>
       <use xlink:href="#DejaVuSans-30" transform="translate(127.246094 0)"/>
      </g>
     </g>
    </g>
   </g>
   <g id="matplotlib.axis_4">
    <g id="ytick_3">
     <g id="line2d_42">
      <path d="M 41.03 235.107428 
L 704.88 235.107428 
" clip-path="url(#p9fbfc8439f)" style="fill: none; stroke: #cbcbcb"/>
     </g>
     <g id="line2d_43"/>
     <g id="text_22">
      <!-- 0.0 -->
      <g style="fill: #cccccc" transform="translate(15.265625 240.426334) scale(0.14 -0.14)">
       <defs>
        <path id="DejaVuSans-2e" d="M 684 794 
L 1344 794 
L 1344 0 
L 684 0 
L 684 794 
z
" transform="scale(0.015625)"/>
       </defs>
       <use xlink:href="#DejaVuSans-30"/>
       <use xlink:href="#DejaVuSans-2e" transform="translate(63.623047 0)"/>
       <use xlink:href="#DejaVuSans-30" transform="translate(95.410156 0)"/>
      </g>
     </g>
    </g>
    <g id="ytick_4">
     <g id="line2d_44">
      <path d="M 41.03 204.3171 
L 704.88 204.3171 
" clip-path="url(#p9fbfc8439f)" style="fill: none; stroke: #cbcbcb"/>
     </g>
     <g id="line2d_45"/>
     <g id="text_23">
      <!-- 2.5 -->
      <g style="fill: #cccccc" transform="translate(15.265625 209.636006) scale(0.14 -0.14)">
       <use xlink:href="#DejaVuSans-32"/>
       <use xlink:href="#DejaVuSans-2e" transform="translate(63.623047 0)"/>
       <use xlink:href="#DejaVuSans-35" transform="translate(95.410156 0)"/>
      </g>
     </g>
    </g>
   </g>
   <g id="line2d_46">
    <path d="M 71.205 225.012774 
L 74.192624 228.118138 
L 77.180248 238.072653 
L 83.155495 226.105091 
L 86.143119 225.085064 
L 89.130743 218.219819 
L 92.118366 216.933369 
L 95.10599 218.585968 
L 101.081238 220.194716 
L 104.068861 229.937085 
L 107.056485 232.044356 
L 110.044109 237.961362 
L 113.031733 246.747941 
L 116.019356 244.737819 
L 119.00698 248.93409 
L 121.994604 256.884545 
L 124.982228 253.488418 
L 127.969851 253.641605 
L 130.957475 246.778986 
L 133.945099 247.22999 
L 136.932723 234.717048 
L 139.920347 232.149023 
L 142.90797 226.050906 
L 145.895594 217.963106 
L 151.870842 221.115697 
L 154.858465 215.023846 
L 157.846089 220.986815 
L 160.833713 218.356877 
L 163.821337 230.311996 
L 169.796584 241.41914 
L 172.784208 247.575014 
L 175.771832 249.116632 
L 178.759455 252.825706 
L 181.747079 252.7778 
L 184.734703 252.912774 
L 187.722327 251.710741 
L 190.70995 244.962132 
L 193.697574 242.277005 
L 196.685198 241.607408 
L 199.672822 232.49593 
L 202.660446 226.687457 
L 205.648069 225.294104 
L 208.635693 216.743293 
L 211.623317 220.957054 
L 214.610941 217.904652 
L 217.598564 216.347336 
L 220.586188 222.629496 
L 223.573812 227.279386 
L 226.561436 231.657232 
L 229.549059 238.315354 
L 232.536683 241.86875 
L 235.524307 250.350693 
L 238.511931 252.113401 
L 241.499554 249.490087 
L 244.487178 251.222653 
L 247.474802 247.965711 
L 250.462426 249.371893 
L 253.45005 239.182057 
L 256.437673 236.975625 
L 259.425297 232.457475 
L 262.412921 226.589496 
L 265.400545 218.974925 
L 268.388168 221.06616 
L 271.375792 217.93027 
L 274.363416 215.555604 
L 277.35104 221.100203 
L 280.338663 223.112516 
L 283.326287 225.89838 
L 286.313911 234.016494 
L 289.301535 239.577355 
L 292.289158 244.09123 
L 295.276782 251.900149 
L 298.264406 249.199545 
L 301.25203 250.041392 
L 304.239653 251.848025 
L 307.227277 248.173364 
L 310.214901 245.723655 
L 313.202525 237.874565 
L 316.190149 236.741341 
L 319.177772 231.138717 
L 322.165396 229.195185 
L 325.15302 219.152344 
L 328.140644 220.803074 
L 331.128267 217.241559 
L 334.115891 221.466983 
L 337.103515 215.870773 
L 340.091139 222.539955 
L 343.078762 231.448102 
L 346.066386 231.475665 
L 349.05401 241.076786 
L 352.041634 241.710678 
L 355.029257 244.079585 
L 358.016881 252.990177 
L 361.004505 254.138839 
L 363.992129 249.862527 
L 366.979752 253.548793 
L 369.967376 246.424732 
L 372.955 246.184662 
L 375.942624 216.786443 
L 378.930248 182.964065 
L 381.917871 181.71301 
L 384.905495 186.333172 
L 387.893119 183.586471 
L 390.880743 186.087868 
L 393.868366 184.80805 
L 396.85599 183.152163 
L 399.843614 189.112878 
L 402.831238 184.017338 
L 405.818861 189.991428 
L 408.806485 187.677333 
L 411.794109 190.359055 
L 414.781733 191.193711 
L 417.769356 193.459863 
L 420.75698 197.58313 
L 423.744604 195.357056 
L 426.732228 199.1316 
L 429.719851 196.489215 
L 432.707475 199.274443 
L 435.695099 200.823501 
L 438.682723 204.256428 
L 441.670347 198.99872 
L 444.65797 204.994743 
L 447.645594 206.817354 
L 450.633218 205.376684 
L 453.620842 208.45387 
L 456.608465 209.705506 
L 459.596089 214.530679 
L 462.583713 208.024254 
L 465.571337 212.299095 
L 468.55896 208.991559 
L 471.546584 214.447468 
L 474.534208 211.530322 
L 477.521832 215.74761 
L 480.509455 211.939995 
L 483.497079 215.502638 
L 486.484703 216.191609 
L 489.472327 220.632239 
L 492.45995 219.964877 
L 495.447574 221.474285 
L 498.435198 217.047974 
L 501.422822 217.120466 
L 504.410446 216.339618 
L 507.398069 216.631964 
L 510.385693 214.838043 
L 513.373317 213.287966 
L 516.360941 214.977497 
L 519.348564 216.440047 
L 522.336188 210.792879 
L 525.323812 210.713065 
L 528.311436 215.061638 
L 534.286683 210.873512 
L 537.274307 205.806867 
L 540.261931 212.417557 
L 543.249554 201.759455 
L 546.237178 202.642959 
L 549.224802 199.578788 
L 552.212426 203.852323 
L 555.20005 202.875542 
L 558.187673 197.676324 
L 561.175297 193.796151 
L 564.162921 197.032863 
L 567.150545 192.218245 
L 570.138168 190.620774 
L 573.125792 192.082505 
L 576.113416 191.343562 
L 579.10104 190.737916 
L 582.088663 189.397518 
L 585.076287 189.010788 
L 588.063911 192.533712 
L 591.051535 187.580324 
L 594.039158 186.981475 
L 597.026782 189.005517 
L 600.014406 183.806368 
L 603.00203 188.509492 
L 605.989653 187.494908 
L 608.977277 180.878424 
L 611.964901 182.942235 
L 614.952525 187.282939 
L 617.940149 179.823185 
L 620.927772 179.775455 
L 623.915396 185.127973 
L 626.90302 186.786107 
L 629.890644 185.360873 
L 632.878267 184.91301 
L 635.865891 188.173281 
L 638.853515 190.162737 
L 641.841139 185.40811 
L 644.828762 188.791393 
L 647.816386 188.513776 
L 650.80401 190.498799 
L 653.791634 192.083863 
L 656.779257 194.812558 
L 659.766881 193.415666 
L 662.754505 195.096009 
L 665.742129 201.229683 
L 668.729752 198.124933 
L 671.717376 199.479769 
L 674.705 204.108852 
L 674.705 204.108852 
" clip-path="url(#p9fbfc8439f)" style="fill: none; stroke: #e67e22; stroke-width: 1.5"/>
   </g>
   <g id="patch_8">
    <path d="M 41.03 260.74 
L 41.03 175.92 
" style="fill: none; stroke: #cccccc; stroke-width: 3; stroke-linejoin: miter; stroke-linecap: square"/>
   </g>
   <g id="patch_9">
    <path d="M 704.88 260.74 
L 704.88 175.92 
" style="fill: none; stroke: #cccccc; stroke-width: 3; stroke-linejoin: miter; stroke-linecap: square"/>
   </g>
   <g id="patch_10">
    <path d="M 41.03 260.74 
L 704.88 260.74 
" style="fill: none; stroke: #cccccc; stroke-width: 3; stroke-linejoin: miter; stroke-linecap: square"/>
   </g>
   <g id="patch_11">
    <path d="M 41.03 175.92 
L 704.88 175.92 
" style="fill: none; stroke: #cccccc; stroke-width: 3; stroke-linejoin: miter; stroke-linecap: square"/>
   </g>
   <g id="text_24">
    <!-- Approximation (cA) - Low Frequency Trend -->
    <g style="fill: #cccccc" transform="translate(159.963025 169.92) scale(0.2016 -0.2016)">
     <defs>
      <path id="DejaVuSans-41" d="M 2188 4044 
L 1331 1722 
L 3047 1722 
L 2188 4044 
z
M 1831 4666 
L 2547 4666 
L 4325 0 
L 3669 0 
L 3244 1197 
L 1141 1197 
L 716 0 
L 50 0 
L 1831 4666 
z
" transform="scale(0.015625)"/>
      <path id="DejaVuSans-70" d="M 1159 525 
L 1159 -1331 
L 581 -1331 
L 581 3500 
L 1159 3500 
L 1159 2969 
Q 1341 3281 1617 3432 
Q 1894 3584 2278 3584 
Q 2916 3584 3314 3078 
Q 3713 2572 3713 1747 
Q 3713 922 3314 415 
Q 2916 -91 2278 -91 
Q 1894 -91 1617 61 
Q 1341 213 1159 525 
z
M 3116 1747 
Q 3116 2381 2855 2742 
Q 2594 3103 2138 3103 
Q 1681 3103 1420 2742 
Q 1159 2381 1159 1747 
Q 1159 1113 1420 752 
Q 1681 391 2138 391 
Q 2594 391 2855 752 
Q 3116 1113 3116 1747 
z
" transform="scale(0.015625)"/>
      <path id="DejaVuSans-78" d="M 3513 3500 
L 2247 1797 
L 3578 0 
L 2900 0 
L 1881 1375 
L 863 0 
L 184 0 
L 1544 1831 
L 300 3500 
L 978 3500 
L 1906 2253 
L 2834 3500 
L 3513 3500 
z
" transform="scale(0.015625)"/>
      <path id="DejaVuSans-6d" d="M 3328 2828 
Q 3544 3216 3844 3400 
Q 4144 3584 4550 3584 
Q 5097 3584 5394 3201 
Q 5691 2819 5691 2113 
L 5691 0 
L 5113 0 
L 5113 2094 
Q 5113 2597 4934 2840 
Q 4756 3084 4391 3084 
Q 3944 3084 3684 2787 
Q 3425 2491 3425 1978 
L 3425 0 
L 2847 0 
L 2847 2094 
Q 2847 2600 2669 2842 
Q 2491 3084 2119 3084 
Q 1678 3084 1418 2786 
Q 1159 2488 1159 1978 
L 1159 0 
L 581 0 
L 581 3500 
L 1159 3500 
L 1159 2956 
Q 1356 3278 1631 3431 
Q 1906 3584 2284 3584 
Q 2666 3584 2933 3390 
Q 3200 3197 3328 2828 
z
" transform="scale(0.015625)"/>
      <path id="DejaVuSans-28" d="M 1984 4856 
Q 1566 4138 1362 3434 
Q 1159 2731 1159 2009 
Q 1159 1288 1364 580 
Q 1569 -128 1984 -844 
L 1484 -844 
Q 1016 -109 783 600 
Q 550 1309 550 2009 
Q 550 2706 781 3412 
Q 1013 4119 1484 4856 
L 1984 4856 
z
" transform="scale(0.015625)"/>
      <path id="DejaVuSans-63" d="M 3122 3366 
L 3122 2828 
Q 2878 2963 2633 3030 
Q 2388 3097 2138 3097 
Q 1578 3097 1268 2742 
Q 959 2388 959 1747 
Q 959 1106 1268 751 
Q 1578 397 2138 397 
Q 2388 397 2633 464 
Q 2878 531 3122 666 
L 3122 134 
Q 2881 22 2623 -34 
Q 2366 -91 2075 -91 
Q 1284 -91 818 406 
Q 353 903 353 1747 
Q 353 2603 823 3093 
Q 1294 3584 2113 3584 
Q 2378 3584 2631 3529 
Q 2884 3475 3122 3366 
z
" transform="scale(0.015625)"/>
      <path id="DejaVuSans-29" d="M 513 4856 
L 1013 4856 
Q 1481 4119 1714 3412 
Q 1947 2706 1947 2009 
Q 1947 1309 1714 600 
Q 1481 -109 1013 -844 
L 513 -844 
Q 928 -128 1133 580 
Q 1338 1288 1338 2009 
Q 1338 2731 1133 3434 
Q 928 4138 513 4856 
z
" transform="scale(0.015625)"/>
      <path id="DejaVuSans-4c" d="M 628 4666 
L 1259 4666 
L 1259 531 
L 3531 531 
L 3531 0 
L 628 0 
L 628 4666 
z
" transform="scale(0.015625)"/>
      <path id="DejaVuSans-77" d="M 269 3500 
L 844 3500 
L 1563 769 
L 2278 3500 
L 2956 3500 
L 3675 769 
L 4391 3500 
L 4966 3500 
L 4050 0 
L 3372 0 
L 2619 2869 
L 1863 0 
L 1184 0 
L 269 3500 
z
" transform="scale(0.015625)"/>
      <path id="DejaVuSans-46" d="M 628 4666 
L 3309 4666 
L 3309 4134 
L 1259 4134 
L 1259 2759 
L 3109 2759 
L 3109 2228 
L 1259 2228 
L 1259 0 
L 628 0 
L 628 4666 
z
" transform="scale(0.015625)"/>
      <path id="DejaVuSans-65" d="M 3597 1894 
L 3597 1613 
L 953 1613 
Q 991 1019 1311 708 
Q 1631 397 2203 397 
Q 2534 397 2845 478 
Q 3156 559 3463 722 
L 3463 178 
Q 3153 47 2828 -22 
Q 2503 -91 2169 -91 
Q 1331 -91 842 396 
Q 353 884 353 1716 
Q 353 2575 817 3079 
Q 1281 3584 2069 3584 
Q 2775 3584 3186 3129 
Q 3597 2675 3597 1894 
z
M 3022 2063 
Q 3016 2534 2758 2815 
Q 2500 3097 2075 3097 
Q 1594 3097 1305 2825 
Q 1016 2553 972 2059 
L 3022 2063 
z
" transform="scale(0.015625)"/>
      <path id="DejaVuSans-71" d="M 947 1747 
Q 947 1113 1208 752 
Q 1469 391 1925 391 
Q 2381 391 2643 752 
Q 2906 1113 2906 1747 
Q 2906 2381 2643 2742 
Q 2381 3103 1925 3103 
Q 1469 3103 1208 2742 
Q 947 2381 947 1747 
z
M 2906 525 
Q 2725 213 2448 61 
Q 2172 -91 1784 -91 
Q 1150 -91 751 415 
Q 353 922 353 1747 
Q 353 2572 751 3078 
Q 1150 3584 1784 3584 
Q 2172 3584 2448 3432 
Q 2725 3281 2906 2969 
L 2906 3500 
L 3481 3500 
L 3481 -1331 
L 2906 -1331 
L 2906 525 
z
" transform="scale(0.015625)"/>
      <path id="DejaVuSans-75" d="M 544 1381 
L 544 3500 
L 1119 3500 
L 1119 1403 
Q 1119 906 1312 657 
Q 1506 409 1894 409 
Q 2359 409 2629 706 
Q 2900 1003 2900 1516 
L 2900 3500 
L 3475 3500 
L 3475 0 
L 2900 0 
L 2900 538 
Q 2691 219 2414 64 
Q 2138 -91 1772 -91 
Q 1169 -91 856 284 
Q 544 659 544 1381 
z
M 1991 3584 
L 1991 3584 
z
" transform="scale(0.015625)"/>
      <path id="DejaVuSans-54" d="M -19 4666 
L 3928 4666 
L 3928 4134 
L 2272 4134 
L 2272 0 
L 1638 0 
L 1638 4134 
L -19 4134 
L -19 4666 
z
" transform="scale(0.015625)"/>
      <path id="DejaVuSans-64" d="M 2906 2969 
L 2906 4863 
L 3481 4863 
L 3481 0 
L 2906 0 
L 2906 525 
Q 2725 213 2448 61 
Q 2172 -91 1784 -91 
Q 1150 -91 751 415 
Q 353 922 353 1747 
Q 353 2572 751 3078 
Q 1150 3584 1784 3584 
Q 2172 3584 2448 3432 
Q 2725 3281 2906 2969 
z
M 947 1747 
Q 947 1113 1208 752 
Q 1469 391 1925 391 
Q 2381 391 2643 752 
Q 2906 1113 2906 1747 
Q 2906 2381 2643 2742 
Q 2381 3103 1925 3103 
Q 1469 3103 1208 2742 
Q 947 2381 947 1747 
z
" transform="scale(0.015625)"/>
     </defs>
     <use xlink:href="#DejaVuSans-41"/>
     <use xlink:href="#DejaVuSans-70" transform="translate(68.408203 0)"/>
     <use xlink:href="#DejaVuSans-70" transform="translate(131.884766 0)"/>
     <use xlink:href="#DejaVuSans-72" transform="translate(195.361328 0)"/>
     <use xlink:href="#DejaVuSans-6f" transform="translate(234.224609 0)"/>
     <use xlink:href="#DejaVuSans-78" transform="translate(292.28125 0)"/>
     <use xlink:href="#DejaVuSans-69" transform="translate(351.460938 0)"/>
     <use xlink:href="#DejaVuSans-6d" transform="translate(379.244141 0)"/>
     <use xlink:href="#DejaVuSans-61" transform="translate(476.65625 0)"/>
     <use xlink:href="#DejaVuSans-74" transform="translate(537.935547 0)"/>
     <use xlink:href="#DejaVuSans-69" transform="translate(577.144531 0)"/>
     <use xlink:href="#DejaVuSans-6f" transform="translate(604.927734 0)"/>
     <use xlink:href="#DejaVuSans-6e" transform="translate(666.109375 0)"/>
     <use xlink:href="#DejaVuSans-20" transform="translate(729.488281 0)"/>
     <use xlink:href="#DejaVuSans-28" transform="translate(761.275391 0)"/>
     <use xlink:href="#DejaVuSans-63" transform="translate(800.289062 0)"/>
     <use xlink:href="#DejaVuSans-41" transform="translate(855.269531 0)"/>
     <use xlink:href="#DejaVuSans-29" transform="translate(923.677734 0)"/>
     <use xlink:href="#DejaVuSans-20" transform="translate(962.691406 0)"/>
     <use xlink:href="#DejaVuSans-2d" transform="translate(994.478516 0)"/>
     <use xlink:href="#DejaVuSans-20" transform="translate(1030.5625 0)"/>
     <use xlink:href="#DejaVuSans-4c" transform="translate(1062.349609 0)"/>
     <use xlink:href="#DejaVuSans-6f" transform="translate(1116.3125 0)"/>
     <use xlink:href="#DejaVuSans-77" transform="translate(1177.494141 0)"/>
     <use xlink:href="#DejaVuSans-20" transform="translate(1259.28125 0)"/>
     <use xlink:href="#DejaVuSans-46" transform="translate(1291.068359 0)"/>
     <use xlink:href="#DejaVuSans-72" transform="translate(1341.337891 0)"/>
     <use xlink:href="#DejaVuSans-65" transform="translate(1380.201172 0)"/>
     <use xlink:href="#DejaVuSans-71" transform="translate(1441.724609 0)"/>
     <use xlink:href="#DejaVuSans-75" transform="translate(1505.201172 0)"/>
     <use xlink:href="#DejaVuSans-65" transform="translate(1568.580078 0)"/>
     <use xlink:href="#DejaVuSans-6e" transform="translate(1630.103516 0)"/>
     <use xlink:href="#DejaVuSans-63" transform="translate(1693.482422 0)"/>
     <use xlink:href="#DejaVuSans-79" transform="translate(1748.462891 0)"/>
     <use xlink:href="#DejaVuSans-20" transform="translate(1807.642578 0)"/>
     <use xlink:href="#DejaVuSans-54" transform="translate(1839.429688 0)"/>
     <use xlink:href="#DejaVuSans-72" transform="translate(1885.763672 0)"/>
     <use xlink:href="#DejaVuSans-65" transform="translate(1924.626953 0)"/>
     <use xlink:href="#DejaVuSans-6e" transform="translate(1986.150391 0)"/>
     <use xlink:href="#DejaVuSans-64" transform="translate(2049.529297 0)"/>
    </g>
   </g>
  </g>
  <g id="axes_3">
   <g id="patch_12">
    <path d="M 41.03 399.7 
L 704.88 399.7 
L 704.88 314.88 
L 41.03 314.88 
L 41.03 399.7 
z
" style="fill: none"/>
   </g>
   <g id="matplotlib.axis_5">
    <g id="xtick_19">
     <g id="line2d_47">
      <path d="M 71.205 399.7 
L 71.205 314.88 
" clip-path="url(#p90f142438b)" style="fill: none; stroke: #cbcbcb"/>
     </g>
     <g id="line2d_48"/>
     <g id="text_25">
      <!-- 0 -->
      <g style="fill: #cccccc" transform="translate(66.75125 413.837812) scale(0.14 -0.14)">
       <use xlink:href="#DejaVuSans-30"/>
      </g>
     </g>
    </g>
    <g id="xtick_20">
     <g id="line2d_49">
      <path d="M 145.895594 399.7 
L 145.895594 314.88 
" clip-path="url(#p90f142438b)" style="fill: none; stroke: #cbcbcb"/>
     </g>
     <g id="line2d_50"/>
     <g id="text_26">
      <!-- 25 -->
      <g style="fill: #cccccc" transform="translate(136.988094 413.837812) scale(0.14 -0.14)">
       <use xlink:href="#DejaVuSans-32"/>
       <use xlink:href="#DejaVuSans-35" transform="translate(63.623047 0)"/>
      </g>
     </g>
    </g>
    <g id="xtick_21">
     <g id="line2d_51">
      <path d="M 220.586188 399.7 
L 220.586188 314.88 
" clip-path="url(#p90f142438b)" style="fill: none; stroke: #cbcbcb"/>
     </g>
     <g id="line2d_52"/>
     <g id="text_27">
      <!-- 50 -->
      <g style="fill: #cccccc" transform="translate(211.678688 413.837812) scale(0.14 -0.14)">
       <use xlink:href="#DejaVuSans-35"/>
       <use xlink:href="#DejaVuSans-30" transform="translate(63.623047 0)"/>
      </g>
     </g>
    </g>
    <g id="xtick_22">
     <g id="line2d_53">
      <path d="M 295.276782 399.7 
L 295.276782 314.88 
" clip-path="url(#p90f142438b)" style="fill: none; stroke: #cbcbcb"/>
     </g>
     <g id="line2d_54"/>
     <g id="text_28">
      <!-- 75 -->
      <g style="fill: #cccccc" transform="translate(286.369282 413.837812) scale(0.14 -0.14)">
       <use xlink:href="#DejaVuSans-37"/>
       <use xlink:href="#DejaVuSans-35" transform="translate(63.623047 0)"/>
      </g>
     </g>
    </g>
    <g id="xtick_23">
     <g id="line2d_55">
      <path d="M 369.967376 399.7 
L 369.967376 314.88 
" clip-path="url(#p90f142438b)" style="fill: none; stroke: #cbcbcb"/>
     </g>
     <g id="line2d_56"/>
     <g id="text_29">
      <!-- 100 -->
      <g style="fill: #cccccc" transform="translate(356.606126 413.837812) scale(0.14 -0.14)">
       <use xlink:href="#DejaVuSans-31"/>
       <use xlink:href="#DejaVuSans-30" transform="translate(63.623047 0)"/>
       <use xlink:href="#DejaVuSans-30" transform="translate(127.246094 0)"/>
      </g>
     </g>
    </g>
    <g id="xtick_24">
     <g id="line2d_57">
      <path d="M 444.65797 399.7 
L 444.65797 314.88 
" clip-path="url(#p90f142438b)" style="fill: none; stroke: #cbcbcb"/>
     </g>
     <g id="line2d_58"/>
     <g id="text_30">
      <!-- 125 -->
      <g style="fill: #cccccc" transform="translate(431.29672 413.837812) scale(0.14 -0.14)">
       <use xlink:href="#DejaVuSans-31"/>
       <use xlink:href="#DejaVuSans-32" transform="translate(63.623047 0)"/>
       <use xlink:href="#DejaVuSans-35" transform="translate(127.246094 0)"/>
      </g>
     </g>
    </g>
    <g id="xtick_25">
     <g id="line2d_59">
      <path d="M 519.348564 399.7 
L 519.348564 314.88 
" clip-path="url(#p90f142438b)" style="fill: none; stroke: #cbcbcb"/>
     </g>
     <g id="line2d_60"/>
     <g id="text_31">
      <!-- 150 -->
      <g style="fill: #cccccc" transform="translate(505.987314 413.837812) scale(0.14 -0.14)">
       <use xlink:href="#DejaVuSans-31"/>
       <use xlink:href="#DejaVuSans-35" transform="translate(63.623047 0)"/>
       <use xlink:href="#DejaVuSans-30" transform="translate(127.246094 0)"/>
      </g>
     </g>
    </g>
    <g id="xtick_26">
     <g id="line2d_61">
      <path d="M 594.039158 399.7 
L 594.039158 314.88 
" clip-path="url(#p90f142438b)" style="fill: none; stroke: #cbcbcb"/>
     </g>
     <g id="line2d_62"/>
     <g id="text_32">
      <!-- 175 -->
      <g style="fill: #cccccc" transform="translate(580.677908 413.837812) scale(0.14 -0.14)">
       <use xlink:href="#DejaVuSans-31"/>
       <use xlink:href="#DejaVuSans-37" transform="translate(63.623047 0)"/>
       <use xlink:href="#DejaVuSans-35" transform="translate(127.246094 0)"/>
      </g>
     </g>
    </g>
    <g id="xtick_27">
     <g id="line2d_63">
      <path d="M 668.729752 399.7 
L 668.729752 314.88 
" clip-path="url(#p90f142438b)" style="fill: none; stroke: #cbcbcb"/>
     </g>
     <g id="line2d_64"/>
     <g id="text_33">
      <!-- 200 -->
      <g style="fill: #cccccc" transform="translate(655.368502 413.837812) scale(0.14 -0.14)">
       <use xlink:href="#DejaVuSans-32"/>
       <use xlink:href="#DejaVuSans-30" transform="translate(63.623047 0)"/>
       <use xlink:href="#DejaVuSans-30" transform="translate(127.246094 0)"/>
      </g>
     </g>
    </g>
   </g>
   <g id="matplotlib.axis_6">
    <g id="ytick_5">
     <g id="line2d_65">
      <path d="M 41.03 371.820075 
L 704.88 371.820075 
" clip-path="url(#p90f142438b)" style="fill: none; stroke: #cbcbcb"/>
     </g>
     <g id="line2d_66"/>
     <g id="text_34">
      <!-- 0 -->
      <g style="fill: #cccccc" transform="translate(28.6225 377.138981) scale(0.14 -0.14)">
       <use xlink:href="#DejaVuSans-30"/>
      </g>
     </g>
    </g>
    <g id="ytick_6">
     <g id="line2d_67">
      <path d="M 41.03 338.455869 
L 704.88 338.455869 
" clip-path="url(#p90f142438b)" style="fill: none; stroke: #cbcbcb"/>
     </g>
     <g id="line2d_68"/>
     <g id="text_35">
      <!-- 1 -->
      <g style="fill: #cccccc" transform="translate(28.6225 343.774775) scale(0.14 -0.14)">
       <use xlink:href="#DejaVuSans-31"/>
      </g>
     </g>
    </g>
   </g>
   <g id="line2d_69">
    <path d="M 71.205 376.123809 
L 74.192624 384.203272 
L 77.180248 373.091737 
L 80.167871 383.614786 
L 83.155495 375.513543 
L 86.143119 358.269252 
L 89.130743 376.610322 
L 92.118366 362.299523 
L 95.10599 378.737883 
L 98.093614 383.962977 
L 101.081238 374.342079 
L 104.068861 372.861108 
L 107.056485 393.196409 
L 110.044109 368.911869 
L 113.031733 360.749444 
L 116.019356 368.7462 
L 119.00698 362.467748 
L 121.994604 371.104929 
L 124.982228 360.599203 
L 127.969851 369.619769 
L 130.957475 371.356346 
L 133.945099 370.780883 
L 136.932723 381.742176 
L 139.920347 364.662163 
L 142.90797 368.686824 
L 145.895594 362.732096 
L 148.883218 372.001977 
L 151.870842 359.373855 
L 154.858465 378.508497 
L 157.846089 370.501779 
L 160.833713 378.784765 
L 163.821337 366.696606 
L 166.80896 372.157441 
L 169.796584 360.737579 
L 172.784208 366.864233 
L 175.771832 369.420429 
L 178.759455 370.720944 
L 181.747079 373.411442 
L 184.734703 368.727898 
L 187.722327 363.163698 
L 190.70995 361.602656 
L 193.697574 373.875562 
L 196.685198 364.062448 
L 199.672822 377.860128 
L 202.660446 369.213007 
L 205.648069 364.553501 
L 208.635693 362.313876 
L 211.623317 370.579204 
L 214.610941 359.438519 
L 217.598564 371.374323 
L 220.586188 370.902696 
L 223.573812 365.572396 
L 226.561436 364.789894 
L 229.549059 370.46512 
L 232.536683 382.248154 
L 235.524307 370.931383 
L 238.511931 377.0661 
L 241.499554 371.988261 
L 244.487178 379.794434 
L 247.474802 353.4773 
L 250.462426 373.677138 
L 253.45005 364.400281 
L 256.437673 370.346886 
L 259.425297 371.200621 
L 262.412921 382.450394 
L 265.400545 371.910191 
L 268.388168 371.701836 
L 271.375792 365.043358 
L 274.363416 359.111014 
L 277.35104 374.915105 
L 280.338663 372.646135 
L 283.326287 366.455114 
L 286.313911 377.563752 
L 289.301535 367.912604 
L 292.289158 367.376006 
L 295.276782 378.990793 
L 298.264406 371.25421 
L 301.25203 385.555228 
L 304.239653 371.023758 
L 307.227277 381.911754 
L 310.214901 374.886994 
L 313.202525 375.336785 
L 316.190149 374.046465 
L 319.177772 358.458657 
L 322.165396 370.205938 
L 325.15302 379.051411 
L 328.140644 366.884007 
L 331.128267 381.269799 
L 334.115891 374.678562 
L 337.103515 382.120064 
L 340.091139 379.730314 
L 343.078762 373.351397 
L 346.066386 362.731155 
L 349.05401 357.98908 
L 352.041634 376.088629 
L 355.029257 379.180006 
L 358.016881 383.959502 
L 361.004505 371.379322 
L 363.992129 359.697724 
L 366.979752 381.246299 
L 369.967376 318.735455 
L 372.955 395.844545 
L 375.942624 363.098585 
L 378.930248 361.002623 
L 381.917871 368.501998 
L 384.905495 371.264822 
L 387.893119 371.606189 
L 390.880743 366.265903 
L 393.868366 375.359349 
L 396.85599 375.164898 
L 402.831238 373.617986 
L 405.818861 378.272148 
L 408.806485 370.500587 
L 411.794109 374.199262 
L 414.781733 378.127063 
L 417.769356 373.109379 
L 420.75698 376.710387 
L 423.744604 366.923774 
L 426.732228 364.145445 
L 429.719851 365.617032 
L 435.695099 367.648016 
L 438.682723 376.410568 
L 441.670347 373.015508 
L 444.65797 363.728686 
L 447.645594 357.554442 
L 450.633218 376.272963 
L 453.620842 369.825356 
L 456.608465 374.099815 
L 459.596089 369.866516 
L 462.583713 388.258442 
L 465.571337 370.069933 
L 468.55896 368.025759 
L 471.546584 366.518741 
L 474.534208 378.87473 
L 477.521832 370.00461 
L 480.509455 362.618939 
L 483.497079 372.062697 
L 486.484703 373.08286 
L 489.472327 374.269655 
L 492.45995 367.436569 
L 495.447574 368.145451 
L 498.435198 376.887144 
L 501.422822 372.287703 
L 504.410446 388.630224 
L 507.398069 379.865983 
L 510.385693 366.856068 
L 513.373317 364.243517 
L 516.360941 381.638836 
L 519.348564 372.893592 
L 522.336188 377.799816 
L 525.323812 374.296557 
L 528.311436 374.724202 
L 531.299059 383.532183 
L 534.286683 382.386764 
L 537.274307 393.500585 
L 540.261931 379.612482 
L 543.249554 377.875015 
L 546.237178 360.835208 
L 549.224802 361.907217 
L 552.212426 360.391075 
L 555.20005 367.949755 
L 558.187673 376.8574 
L 561.175297 378.90174 
L 564.162921 366.05878 
L 567.150545 374.432309 
L 570.138168 372.524595 
L 573.125792 372.986748 
L 576.113416 375.056085 
L 579.10104 367.052945 
L 582.088663 380.817766 
L 585.076287 369.233809 
L 588.063911 380.319154 
L 591.051535 376.324656 
L 594.039158 372.565362 
L 597.026782 367.441786 
L 600.014406 375.008552 
L 603.00203 383.205975 
L 605.989653 360.72668 
L 608.977277 366.37757 
L 611.964901 366.437629 
L 614.952525 365.268495 
L 617.940149 372.389024 
L 620.927772 378.851048 
L 623.915396 375.257416 
L 626.90302 363.571894 
L 629.890644 362.948969 
L 632.878267 382.192933 
L 635.865891 384.095305 
L 638.853515 359.082655 
L 641.841139 361.976188 
L 644.828762 379.219588 
L 647.816386 376.003522 
L 650.80401 372.155581 
L 653.791634 374.209063 
L 656.779257 373.826893 
L 659.766881 371.50104 
L 662.754505 373.639874 
L 665.742129 375.506075 
L 668.729752 370.404318 
L 671.717376 368.204566 
L 674.705 371.302967 
L 674.705 371.302967 
" clip-path="url(#p90f142438b)" style="fill: none; stroke: #16a085; stroke-width: 1.5"/>
   </g>
   <g id="patch_13">
    <path d="M 41.03 399.7 
L 41.03 314.88 
" style="fill: none; stroke: #cccccc; stroke-width: 3; stroke-linejoin: miter; stroke-linecap: square"/>
   </g>
   <g id="patch_14">
    <path d="M 704.88 399.7 
L 704.88 314.88 
" style="fill: none; stroke: #cccccc; stroke-width: 3; stroke-linejoin: miter; stroke-linecap: square"/>
   </g>
   <g id="patch_15">
    <path d="M 41.03 399.7 
L 704.88 399.7 
" style="fill: none; stroke: #cccccc; stroke-width: 3; stroke-linejoin: miter; stroke-linecap: square"/>
   </g>
   <g id="patch_16">
    <path d="M 41.03 314.88 
L 704.88 314.88 
" style="fill: none; stroke: #cccccc; stroke-width: 3; stroke-linejoin: miter; stroke-linecap: square"/>
   </g>
   <g id="text_36">
    <!-- Detail (cD) - High Frequency Edges -->
    <g style="fill: #cccccc" transform="translate(196.575475 308.88) scale(0.2016 -0.2016)">
     <defs>
      <path id="DejaVuSans-44" d="M 1259 4147 
L 1259 519 
L 2022 519 
Q 2988 519 3436 956 
Q 3884 1394 3884 2338 
Q 3884 3275 3436 3711 
Q 2988 4147 2022 4147 
L 1259 4147 
z
M 628 4666 
L 1925 4666 
Q 3281 4666 3915 4102 
Q 4550 3538 4550 2338 
Q 4550 1131 3912 565 
Q 3275 0 1925 0 
L 628 0 
L 628 4666 
z
" transform="scale(0.015625)"/>
      <path id="DejaVuSans-48" d="M 628 4666 
L 1259 4666 
L 1259 2753 
L 3553 2753 
L 3553 4666 
L 4184 4666 
L 4184 0 
L 3553 0 
L 3553 2222 
L 1259 2222 
L 1259 0 
L 628 0 
L 628 4666 
z
" transform="scale(0.015625)"/>
      <path id="DejaVuSans-68" d="M 3513 2113 
L 3513 0 
L 2938 0 
L 2938 2094 
Q 2938 2591 2744 2837 
Q 2550 3084 2163 3084 
Q 1697 3084 1428 2787 
Q 1159 2491 1159 1978 
L 1159 0 
L 581 0 
L 581 4863 
L 1159 4863 
L 1159 2956 
Q 1366 3272 1645 3428 
Q 1925 3584 2291 3584 
Q 2894 3584 3203 3211 
Q 3513 2838 3513 2113 
z
" transform="scale(0.015625)"/>
      <path id="DejaVuSans-45" d="M 628 4666 
L 3578 4666 
L 3578 4134 
L 1259 4134 
L 1259 2753 
L 3481 2753 
L 3481 2222 
L 1259 2222 
L 1259 531 
L 3634 531 
L 3634 0 
L 628 0 
L 628 4666 
z
" transform="scale(0.015625)"/>
      <path id="DejaVuSans-73" d="M 2834 3397 
L 2834 2853 
Q 2591 2978 2328 3040 
Q 2066 3103 1784 3103 
Q 1356 3103 1142 2972 
Q 928 2841 928 2578 
Q 928 2378 1081 2264 
Q 1234 2150 1697 2047 
L 1894 2003 
Q 2506 1872 2764 1633 
Q 3022 1394 3022 966 
Q 3022 478 2636 193 
Q 2250 -91 1575 -91 
Q 1294 -91 989 -36 
Q 684 19 347 128 
L 347 722 
Q 666 556 975 473 
Q 1284 391 1588 391 
Q 1994 391 2212 530 
Q 2431 669 2431 922 
Q 2431 1156 2273 1281 
Q 2116 1406 1581 1522 
L 1381 1569 
Q 847 1681 609 1914 
Q 372 2147 372 2553 
Q 372 3047 722 3315 
Q 1072 3584 1716 3584 
Q 2034 3584 2315 3537 
Q 2597 3491 2834 3397 
z
" transform="scale(0.015625)"/>
     </defs>
     <use xlink:href="#DejaVuSans-44"/>
     <use xlink:href="#DejaVuSans-65" transform="translate(77.001953 0)"/>
     <use xlink:href="#DejaVuSans-74" transform="translate(138.525391 0)"/>
     <use xlink:href="#DejaVuSans-61" transform="translate(177.734375 0)"/>
     <use xlink:href="#DejaVuSans-69" transform="translate(239.013672 0)"/>
     <use xlink:href="#DejaVuSans-6c" transform="translate(266.796875 0)"/>
     <use xlink:href="#DejaVuSans-20" transform="translate(294.580078 0)"/>
     <use xlink:href="#DejaVuSans-28" transform="translate(326.367188 0)"/>
     <use xlink:href="#DejaVuSans-63" transform="translate(365.380859 0)"/>
     <use xlink:href="#DejaVuSans-44" transform="translate(420.361328 0)"/>
     <use xlink:href="#DejaVuSans-29" transform="translate(497.363281 0)"/>
     <use xlink:href="#DejaVuSans-20" transform="translate(536.376953 0)"/>
     <use xlink:href="#DejaVuSans-2d" transform="translate(568.164062 0)"/>
     <use xlink:href="#DejaVuSans-20" transform="translate(604.248047 0)"/>
     <use xlink:href="#DejaVuSans-48" transform="translate(636.035156 0)"/>
     <use xlink:href="#DejaVuSans-69" transform="translate(711.230469 0)"/>
     <use xlink:href="#DejaVuSans-67" transform="translate(739.013672 0)"/>
     <use xlink:href="#DejaVuSans-68" transform="translate(802.490234 0)"/>
     <use xlink:href="#DejaVuSans-20" transform="translate(865.869141 0)"/>
     <use xlink:href="#DejaVuSans-46" transform="translate(897.65625 0)"/>
     <use xlink:href="#DejaVuSans-72" transform="translate(947.925781 0)"/>
     <use xlink:href="#DejaVuSans-65" transform="translate(986.789062 0)"/>
     <use xlink:href="#DejaVuSans-71" transform="translate(1048.3125 0)"/>
     <use xlink:href="#DejaVuSans-75" transform="translate(1111.789062 0)"/>
     <use xlink:href="#DejaVuSans-65" transform="translate(1175.167969 0)"/>
     <use xlink:href="#DejaVuSans-6e" transform="translate(1236.691406 0)"/>
     <use xlink:href="#DejaVuSans-63" transform="translate(1300.070312 0)"/>
     <use xlink:href="#DejaVuSans-79" transform="translate(1355.050781 0)"/>
     <use xlink:href="#DejaVuSans-20" transform="translate(1414.230469 0)"/>
     <use xlink:href="#DejaVuSans-45" transform="translate(1446.017578 0)"/>
     <use xlink:href="#DejaVuSans-64" transform="translate(1509.201172 0)"/>
     <use xlink:href="#DejaVuSans-67" transform="translate(1572.677734 0)"/>
     <use xlink:href="#DejaVuSans-65" transform="translate(1636.154297 0)"/>
     <use xlink:href="#DejaVuSans-73" transform="translate(1697.677734 0)"/>
    </g>
   </g>
  </g>
 </g>
 <defs>
  <clipPath id="pf5094a40bd">
   <rect x="41.03" y="36.96" width="663.85" height="84.82"/>
  </clipPath>
  <clipPath id="p9fbfc8439f">
   <rect x="41.03" y="175.92" width="663.85" height="84.82"/>
  </clipPath>
  <clipPath id="p90f142438b">
   <rect x="41.03" y="314.88" width="663.85" height="84.82"/>
  </clipPath>
 </defs>
</svg>
