<?xml version="1.0" encoding="utf-8" standalone="no"?>
<!DOCTYPE svg PUBLIC "-//W3C//DTD SVG 1.1//EN"
  "http://www.w3.org/Graphics/SVG/1.1/DTD/svg11.dtd">
<svg xmlns:xlink="http://www.w3.org/1999/xlink" width="231.442188pt" height="169.678125pt" viewBox="0 0 231.442188 169.678125" xmlns="http://www.w3.org/2000/svg" version="1.1">
 <metadata>
  <rdf:RDF xmlns:dc="http://purl.org/dc/elements/1.1/" xmlns:cc="http://creativecommons.org/ns#" xmlns:rdf="http://www.w3.org/1999/02/22-rdf-syntax-ns#">
   <cc:Work>
    <dc:type rdf:resource="http://purl.org/dc/dcmitype/StillImage"/>
    <dc:date>2025-06-02T21:00:36.997876</dc:date>
    <dc:format>image/svg+xml</dc:format>
    <dc:creator>
     <cc:Agent>
      <dc:title>Matplotlib v3.6.1, https://matplotlib.org/</dc:title>
     </cc:Agent>
    </dc:creator>
   </cc:Work>
  </rdf:RDF>
 </metadata>
 <defs>
  <style type="text/css">*{stroke-linejoin: round; stroke-linecap: butt}</style>
 </defs>
 <g id="figure_1">
  <g id="patch_1">
   <path d="M 0 169.678125 
L 231.442188 169.678125 
L 231.442188 0 
L 0 0 
z
" style="fill: #ffffff"/>
  </g>
  <g id="axes_1">
   <g id="patch_2">
    <path d="M 28.942188 145.8 
L 224.242188 145.8 
L 224.242188 7.2 
L 28.942188 7.2 
z
" style="fill: #ffffff"/>
   </g>
   <g id="PolyCollection_1">
    <path d="M 37.81946 13.5 
L 37.81946 119.894384 
L 38.175263 119.894384 
L 38.531065 119.894384 
L 38.886868 119.894384 
L 39.24267 119.894384 
L 39.598473 119.894384 
L 39.954275 119.894384 
L 40.310078 119.894384 
L 40.66588 119.894384 
L 41.021683 119.894384 
L 41.377485 119.894384 
L 41.733288 119.894384 
L 42.08909 119.894384 
L 42.444893 119.894384 
L 42.800695 119.894384 
L 43.156498 119.894384 
L 43.5123 119.894384 
L 43.868103 119.894384 
L 44.223905 119.894384 
L 44.579708 119.894384 
L 44.935511 119.894384 
L 45.291313 119.894384 
L 45.647116 119.894384 
L 46.002918 119.894384 
L 46.358721 119.894384 
L 46.714523 119.894384 
L 47.070326 119.894384 
L 47.426128 119.894384 
L 47.781931 119.894384 
L 48.137733 119.894384 
L 48.493536 119.894384 
L 48.849338 119.894384 
L 49.205141 119.894384 
L 49.560943 119.894384 
L 49.916746 119.894384 
L 50.272548 119.894384 
L 50.628351 119.894384 
L 50.984153 119.894384 
L 51.339956 119.894384 
L 51.695758 119.894384 
L 52.051561 119.894384 
L 52.407363 119.894384 
L 52.763166 119.894384 
L 53.118968 119.894384 
L 53.474771 119.894384 
L 53.830573 119.894384 
L 54.186376 119.894384 
L 54.542178 119.894384 
L 54.897981 119.894384 
L 55.253783 119.894384 
L 55.609586 119.894384 
L 55.965388 119.894384 
L 56.321191 119.894384 
L 56.676993 119.894384 
L 57.032796 119.894384 
L 57.388599 119.894384 
L 57.744401 119.894384 
L 58.100204 119.894384 
L 58.456006 119.894384 
L 58.811809 119.894384 
L 59.167611 119.894384 
L 59.523414 119.894384 
L 59.879216 119.894384 
L 60.235019 119.894384 
L 60.590821 119.894384 
L 60.946624 119.894384 
L 61.302426 119.894384 
L 61.658229 119.894384 
L 62.014031 119.894384 
L 62.369834 119.894384 
L 62.725636 119.894384 
L 63.081439 119.894384 
L 63.437241 119.894384 
L 63.793044 119.894384 
L 64.148846 119.894384 
L 64.504649 119.894384 
L 64.860451 119.894384 
L 65.216254 119.894384 
L 65.572056 119.894384 
L 65.927859 119.894384 
L 66.283661 119.894384 
L 66.639464 119.894384 
L 66.995266 119.894384 
L 67.351069 119.894384 
L 67.706871 119.894384 
L 68.062674 119.894384 
L 68.418476 119.894384 
L 68.774279 119.894384 
L 69.130081 119.894384 
L 69.485884 119.894384 
L 69.841686 119.894384 
L 70.197489 119.894384 
L 70.553292 119.894384 
L 70.909094 119.894384 
L 71.264897 119.894384 
L 71.620699 119.894384 
L 71.976502 119.894384 
L 72.332304 119.894384 
L 72.688107 119.894384 
L 73.043909 119.894384 
L 73.399712 119.894384 
L 73.755514 119.894384 
L 74.111317 119.894384 
L 74.467119 119.894384 
L 74.822922 119.894384 
L 75.178724 119.894384 
L 75.534527 119.894384 
L 75.890329 119.894384 
L 76.246132 119.894384 
L 76.601934 119.894384 
L 76.957737 119.894384 
L 77.313539 119.894384 
L 77.669342 119.894384 
L 78.025144 119.894384 
L 78.380947 119.894384 
L 78.736749 119.894384 
L 79.092552 119.894384 
L 79.448354 119.894384 
L 79.804157 119.894384 
L 80.159959 119.894384 
L 80.515762 119.894384 
L 80.871564 119.894384 
L 81.227367 119.894384 
L 81.583169 119.894384 
L 81.938972 119.894384 
L 82.294774 119.894384 
L 82.650577 119.894384 
L 83.00638 119.894384 
L 83.362182 119.894384 
L 83.717985 119.894384 
L 84.073787 119.894384 
L 84.42959 119.894384 
L 84.785392 119.894384 
L 85.141195 119.894384 
L 85.496997 119.894384 
L 85.8528 119.894384 
L 86.208602 119.894384 
L 86.564405 119.894384 
L 86.920207 119.894384 
L 87.27601 119.894384 
L 87.631812 119.894384 
L 87.987615 119.894384 
L 88.343417 119.894384 
L 88.69922 119.894384 
L 89.055022 119.894384 
L 89.410825 119.894384 
L 89.766627 119.894384 
L 90.12243 119.894384 
L 90.478232 119.894384 
L 90.834035 119.894384 
L 91.189837 119.894384 
L 91.54564 119.894384 
L 91.901442 119.894384 
L 92.257245 119.894384 
L 92.613047 119.894384 
L 92.96885 119.894384 
L 93.324652 119.894384 
L 93.680455 119.894384 
L 94.036257 119.894384 
L 94.39206 119.894384 
L 94.747862 119.894384 
L 95.103665 119.894384 
L 95.459468 119.894384 
L 95.81527 119.894384 
L 96.171073 119.894384 
L 96.526875 119.894384 
L 96.882678 119.894384 
L 97.23848 119.894384 
L 97.594283 119.894384 
L 97.950085 119.894384 
L 98.305888 119.894384 
L 98.66169 119.894384 
L 99.017493 119.894384 
L 99.373295 119.894384 
L 99.729098 119.894384 
L 100.0849 119.894384 
L 100.440703 119.894384 
L 100.796505 119.894384 
L 101.152308 119.894384 
L 101.50811 119.894384 
L 101.863913 119.894384 
L 102.219715 119.894384 
L 102.575518 119.894384 
L 102.93132 119.894384 
L 103.287123 119.894384 
L 103.642925 119.894384 
L 103.998728 119.894384 
L 104.35453 119.894384 
L 104.710333 119.894384 
L 105.066135 119.894384 
L 105.421938 119.894384 
L 105.77774 119.894384 
L 106.133543 119.894384 
L 106.489345 119.894384 
L 106.845148 119.894384 
L 107.20095 119.894384 
L 107.556753 119.894384 
L 107.912556 119.894384 
L 108.268358 119.894384 
L 108.624161 119.894384 
L 108.979963 119.894384 
L 109.335766 119.894384 
L 109.691568 119.894384 
L 110.047371 119.894384 
L 110.403173 119.894384 
L 110.758976 119.894384 
L 111.114778 119.894384 
L 111.470581 119.894384 
L 111.826383 119.894384 
L 112.182186 119.894384 
L 112.537988 119.894384 
L 112.893791 119.894384 
L 113.249593 119.894384 
L 113.605396 119.894384 
L 113.961198 119.894384 
L 114.317001 119.894384 
L 114.672803 119.894384 
L 115.028606 119.894384 
L 115.384408 119.894384 
L 115.740211 119.894384 
L 116.096013 119.894384 
L 116.451816 119.894384 
L 116.807618 119.894384 
L 117.163421 119.894384 
L 117.519223 119.894384 
L 117.875026 119.894384 
L 118.230828 119.894384 
L 118.586631 119.894384 
L 118.942433 119.894384 
L 119.298236 119.894384 
L 119.654038 119.894384 
L 120.009841 119.894384 
L 120.365644 119.894384 
L 120.721446 119.894384 
L 121.077249 119.894384 
L 121.433051 119.894384 
L 121.788854 119.894384 
L 122.144656 119.894384 
L 122.500459 119.894384 
L 122.856261 119.894384 
L 123.212064 119.894384 
L 123.567866 119.894384 
L 123.923669 119.894384 
L 124.279471 119.894384 
L 124.635274 119.894384 
L 124.991076 119.894384 
L 125.346879 119.894384 
L 125.702681 119.894384 
L 126.058484 119.894384 
L 126.414286 119.894384 
L 126.770089 119.894384 
L 127.125891 119.894384 
L 127.481694 119.894384 
L 127.837496 119.894384 
L 128.193299 119.894384 
L 128.549101 119.894384 
L 128.904904 119.894384 
L 129.260706 119.894384 
L 129.616509 119.894384 
L 129.972311 119.894384 
L 130.328114 119.894384 
L 130.683916 119.894384 
L 131.039719 119.894384 
L 131.395521 119.894384 
L 131.751324 119.894384 
L 132.107126 119.894384 
L 132.462929 119.894384 
L 132.818731 119.894384 
L 133.174534 119.894384 
L 133.530337 119.894384 
L 133.886139 119.894384 
L 134.241942 119.894384 
L 134.597744 119.894384 
L 134.953547 119.894384 
L 135.309349 119.894384 
L 135.665152 119.894384 
L 136.020954 119.894384 
L 136.376757 119.894384 
L 136.732559 119.894384 
L 137.088362 119.894384 
L 137.444164 119.894384 
L 137.799967 119.894384 
L 138.155769 119.894384 
L 138.511572 119.894384 
L 138.867374 119.894384 
L 139.223177 119.894384 
L 139.578979 119.894384 
L 139.934782 119.894384 
L 140.290584 119.894384 
L 140.646387 119.894384 
L 141.002189 119.894384 
L 141.357992 119.894384 
L 141.713794 119.894384 
L 142.069597 119.894384 
L 142.425399 119.894384 
L 142.781202 119.894384 
L 143.137004 119.894384 
L 143.492807 119.894384 
L 143.848609 119.894384 
L 144.204412 119.894384 
L 144.560214 119.894384 
L 144.916017 119.894384 
L 145.271819 119.894384 
L 145.627622 119.894384 
L 145.983425 119.894384 
L 146.339227 119.894384 
L 146.69503 119.894384 
L 147.050832 119.894384 
L 147.406635 119.894384 
L 147.762437 119.894384 
L 148.11824 119.894384 
L 148.474042 119.894384 
L 148.829845 119.894384 
L 149.185647 119.894384 
L 149.54145 119.894384 
L 149.897252 119.894384 
L 150.253055 119.894384 
L 150.608857 119.894384 
L 150.96466 119.894384 
L 151.320462 119.894384 
L 151.676265 119.894384 
L 152.032067 119.894384 
L 152.38787 119.894384 
L 152.743672 119.894384 
L 153.099475 119.894384 
L 153.455277 119.894384 
L 153.81108 119.894384 
L 154.166882 119.894384 
L 154.522685 119.894384 
L 154.878487 119.894384 
L 155.23429 119.894384 
L 155.590092 119.894384 
L 155.945895 119.894384 
L 156.301697 119.894384 
L 156.6575 119.894384 
L 157.013302 119.894384 
L 157.369105 119.894384 
L 157.724907 119.894384 
L 158.08071 119.894384 
L 158.436513 119.894384 
L 158.792315 119.894384 
L 159.148118 119.894384 
L 159.50392 119.894384 
L 159.859723 119.894384 
L 160.215525 119.894384 
L 160.571328 119.894384 
L 160.92713 119.894384 
L 161.282933 119.894384 
L 161.638735 119.894384 
L 161.994538 119.894384 
L 162.35034 119.894384 
L 162.706143 119.894384 
L 163.061945 119.894384 
L 163.417748 119.894384 
L 163.77355 119.894384 
L 164.129353 119.894384 
L 164.485155 119.894384 
L 164.840958 119.894384 
L 165.19676 119.894384 
L 165.552563 119.894384 
L 165.908365 119.894384 
L 166.264168 119.894384 
L 166.61997 119.894384 
L 166.975773 119.894384 
L 167.331575 119.894384 
L 167.687378 119.894384 
L 168.04318 119.894384 
L 168.398983 119.894384 
L 168.754785 119.894384 
L 169.110588 119.894384 
L 169.46639 119.894384 
L 169.822193 119.894384 
L 170.177995 119.894384 
L 170.533798 119.894384 
L 170.889601 119.894384 
L 171.245403 119.894384 
L 171.601206 119.894384 
L 171.957008 119.894384 
L 172.312811 119.894384 
L 172.668613 119.894384 
L 173.024416 119.894384 
L 173.380218 119.894384 
L 173.736021 119.894384 
L 174.091823 119.894384 
L 174.447626 119.894384 
L 174.803428 119.894384 
L 175.159231 119.894384 
L 175.515033 119.894384 
L 175.870836 119.894384 
L 176.226638 119.894384 
L 176.582441 119.894384 
L 176.938243 119.894384 
L 177.294046 119.894384 
L 177.649848 119.894384 
L 178.005651 119.894384 
L 178.361453 119.894384 
L 178.717256 119.894384 
L 179.073058 119.894384 
L 179.428861 119.894384 
L 179.784663 119.894384 
L 180.140466 119.894384 
L 180.496268 119.894384 
L 180.852071 119.894384 
L 181.207873 119.894384 
L 181.563676 119.894384 
L 181.919478 119.894384 
L 182.275281 119.894384 
L 182.631083 119.894384 
L 182.986886 119.894384 
L 183.342689 119.894384 
L 183.698491 119.894384 
L 184.054294 119.894384 
L 184.410096 119.894384 
L 184.765899 119.894384 
L 185.121701 119.894384 
L 185.477504 119.894384 
L 185.833306 119.894384 
L 186.189109 119.894384 
L 186.544911 119.894384 
L 186.900714 119.894384 
L 187.256516 119.894384 
L 187.612319 119.894384 
L 187.968121 119.894384 
L 188.323924 119.894384 
L 188.679726 119.894384 
L 189.035529 119.894384 
L 189.391331 119.894384 
L 189.747134 119.894384 
L 190.102936 119.894384 
L 190.458739 119.894384 
L 190.814541 119.894384 
L 191.170344 119.894384 
L 191.526146 119.894384 
L 191.881949 119.894384 
L 192.237751 119.894384 
L 192.593554 119.894384 
L 192.949356 119.894384 
L 193.305159 119.894384 
L 193.660961 119.894384 
L 194.016764 119.894384 
L 194.372566 119.894384 
L 194.728369 119.894384 
L 195.084171 119.894384 
L 195.439974 119.894384 
L 195.795776 119.894384 
L 196.151579 119.894384 
L 196.507382 119.894384 
L 196.863184 119.894384 
L 197.218987 119.894384 
L 197.574789 119.894384 
L 197.930592 119.894384 
L 198.286394 119.894384 
L 198.642197 119.894384 
L 198.997999 119.894384 
L 199.353802 119.894384 
L 199.709604 119.894384 
L 200.065407 119.894384 
L 200.421209 119.894384 
L 200.777012 119.894384 
L 201.132814 119.894384 
L 201.488617 119.894384 
L 201.844419 119.894384 
L 202.200222 119.894384 
L 202.556024 119.894384 
L 202.911827 119.894384 
L 203.267629 119.894384 
L 203.623432 119.894384 
L 203.979234 119.894384 
L 204.335037 119.894384 
L 204.690839 119.894384 
L 205.046642 119.894384 
L 205.402444 119.894384 
L 205.758247 119.894384 
L 206.114049 119.894384 
L 206.469852 119.894384 
L 206.825654 119.894384 
L 207.181457 119.894384 
L 207.537259 119.894384 
L 207.893062 119.894384 
L 208.248864 119.894384 
L 208.604667 119.894384 
L 208.96047 119.894384 
L 209.316272 119.894384 
L 209.672075 119.894384 
L 210.027877 119.894384 
L 210.38368 119.894384 
L 210.739482 119.894384 
L 211.095285 119.894384 
L 211.451087 119.894384 
L 211.80689 119.894384 
L 212.162692 119.894384 
L 212.518495 119.894384 
L 212.874297 119.894384 
L 213.2301 119.894384 
L 213.585902 119.894384 
L 213.941705 119.894384 
L 214.297507 119.894384 
L 214.65331 119.894384 
L 215.009112 119.894384 
L 215.364915 119.894384 
L 215.364915 13.5 
L 215.364915 13.5 
L 215.009112 13.5 
L 214.65331 13.5 
L 214.297507 13.5 
L 213.941705 13.5 
L 213.585902 13.5 
L 213.2301 13.5 
L 212.874297 13.5 
L 212.518495 13.5 
L 212.162692 13.5 
L 211.80689 13.5 
L 211.451087 13.5 
L 211.095285 13.5 
L 210.739482 13.5 
L 210.38368 13.5 
L 210.027877 13.5 
L 209.672075 13.5 
L 209.316272 13.5 
L 208.96047 13.5 
L 208.604667 13.5 
L 208.248864 13.5 
L 207.893062 13.5 
L 207.537259 13.5 
L 207.181457 13.5 
L 206.825654 13.5 
L 206.469852 13.5 
L 206.114049 13.5 
L 205.758247 13.5 
L 205.402444 13.5 
L 205.046642 13.5 
L 204.690839 13.5 
L 204.335037 13.5 
L 203.979234 13.5 
L 203.623432 13.5 
L 203.267629 13.5 
L 202.911827 13.5 
L 202.556024 13.5 
L 202.200222 13.5 
L 201.844419 13.5 
L 201.488617 13.5 
L 201.132814 13.5 
L 200.777012 13.5 
L 200.421209 13.5 
L 200.065407 13.5 
L 199.709604 13.5 
L 199.353802 13.5 
L 198.997999 13.5 
L 198.642197 13.5 
L 198.286394 13.5 
L 197.930592 13.5 
L 197.574789 13.5 
L 197.218987 13.5 
L 196.863184 13.5 
L 196.507382 13.5 
L 196.151579 13.5 
L 195.795776 13.5 
L 195.439974 13.5 
L 195.084171 13.5 
L 194.728369 13.5 
L 194.372566 13.5 
L 194.016764 13.5 
L 193.660961 13.5 
L 193.305159 13.5 
L 192.949356 13.5 
L 192.593554 13.5 
L 192.237751 13.5 
L 191.881949 13.5 
L 191.526146 13.5 
L 191.170344 13.5 
L 190.814541 13.5 
L 190.458739 13.5 
L 190.102936 13.5 
L 189.747134 13.5 
L 189.391331 13.5 
L 189.035529 13.5 
L 188.679726 13.5 
L 188.323924 13.5 
L 187.968121 13.5 
L 187.612319 13.5 
L 187.256516 13.5 
L 186.900714 13.5 
L 186.544911 13.5 
L 186.189109 13.5 
L 185.833306 13.5 
L 185.477504 13.5 
L 185.121701 13.5 
L 184.765899 13.5 
L 184.410096 13.5 
L 184.054294 13.5 
L 183.698491 13.5 
L 183.342689 13.5 
L 182.986886 13.5 
L 182.631083 13.5 
L 182.275281 13.5 
L 181.919478 13.5 
L 181.563676 13.5 
L 181.207873 13.5 
L 180.852071 13.5 
L 180.496268 13.5 
L 180.140466 13.5 
L 179.784663 13.5 
L 179.428861 13.5 
L 179.073058 13.5 
L 178.717256 13.5 
L 178.361453 13.5 
L 178.005651 13.5 
L 177.649848 13.5 
L 177.294046 13.5 
L 176.938243 13.5 
L 176.582441 13.5 
L 176.226638 13.5 
L 175.870836 13.5 
L 175.515033 13.5 
L 175.159231 13.5 
L 174.803428 13.5 
L 174.447626 13.5 
L 174.091823 13.5 
L 173.736021 13.5 
L 173.380218 13.5 
L 173.024416 13.5 
L 172.668613 13.5 
L 172.312811 13.5 
L 171.957008 13.5 
L 171.601206 13.5 
L 171.245403 13.5 
L 170.889601 13.5 
L 170.533798 13.5 
L 170.177995 13.5 
L 169.822193 13.5 
L 169.46639 13.5 
L 169.110588 13.5 
L 168.754785 13.5 
L 168.398983 13.5 
L 168.04318 13.5 
L 167.687378 13.5 
L 167.331575 13.5 
L 166.975773 13.5 
L 166.61997 13.5 
L 166.264168 13.5 
L 165.908365 13.5 
L 165.552563 13.5 
L 165.19676 13.5 
L 164.840958 13.5 
L 164.485155 13.5 
L 164.129353 13.5 
L 163.77355 13.5 
L 163.417748 13.5 
L 163.061945 13.5 
L 162.706143 13.5 
L 162.35034 13.5 
L 161.994538 13.5 
L 161.638735 13.5 
L 161.282933 13.5 
L 160.92713 13.5 
L 160.571328 13.5 
L 160.215525 13.5 
L 159.859723 13.5 
L 159.50392 13.5 
L 159.148118 13.5 
L 158.792315 13.5 
L 158.436513 13.5 
L 158.08071 13.5 
L 157.724907 13.5 
L 157.369105 13.5 
L 157.013302 13.5 
L 156.6575 13.5 
L 156.301697 13.5 
L 155.945895 13.5 
L 155.590092 13.5 
L 155.23429 13.5 
L 154.878487 13.5 
L 154.522685 13.5 
L 154.166882 13.5 
L 153.81108 13.5 
L 153.455277 13.5 
L 153.099475 13.5 
L 152.743672 13.5 
L 152.38787 13.5 
L 152.032067 13.5 
L 151.676265 13.5 
L 151.320462 13.5 
L 150.96466 13.5 
L 150.608857 13.5 
L 150.253055 13.5 
L 149.897252 13.5 
L 149.54145 13.5 
L 149.185647 13.5 
L 148.829845 13.5 
L 148.474042 13.5 
L 148.11824 13.5 
L 147.762437 13.5 
L 147.406635 13.5 
L 147.050832 13.5 
L 146.69503 13.5 
L 146.339227 13.5 
L 145.983425 13.5 
L 145.627622 13.5 
L 145.271819 13.5 
L 144.916017 13.5 
L 144.560214 13.5 
L 144.204412 13.5 
L 143.848609 13.5 
L 143.492807 13.5 
L 143.137004 13.5 
L 142.781202 13.5 
L 142.425399 13.5 
L 142.069597 13.5 
L 141.713794 13.5 
L 141.357992 13.5 
L 141.002189 13.5 
L 140.646387 13.5 
L 140.290584 13.5 
L 139.934782 13.5 
L 139.578979 13.5 
L 139.223177 13.5 
L 138.867374 13.5 
L 138.511572 13.5 
L 138.155769 13.5 
L 137.799967 13.5 
L 137.444164 13.5 
L 137.088362 13.5 
L 136.732559 13.5 
L 136.376757 13.5 
L 136.020954 13.5 
L 135.665152 13.5 
L 135.309349 13.5 
L 134.953547 13.5 
L 134.597744 13.5 
L 134.241942 13.5 
L 133.886139 13.5 
L 133.530337 13.5 
L 133.174534 13.5 
L 132.818731 13.5 
L 132.462929 13.5 
L 132.107126 13.5 
L 131.751324 13.5 
L 131.395521 13.5 
L 131.039719 13.5 
L 130.683916 13.5 
L 130.328114 13.5 
L 129.972311 13.5 
L 129.616509 13.5 
L 129.260706 13.5 
L 128.904904 13.5 
L 128.549101 13.5 
L 128.193299 13.5 
L 127.837496 13.5 
L 127.481694 13.5 
L 127.125891 13.5 
L 126.770089 13.5 
L 126.414286 13.5 
L 126.058484 13.5 
L 125.702681 13.5 
L 125.346879 13.5 
L 124.991076 13.5 
L 124.635274 13.5 
L 124.279471 13.5 
L 123.923669 13.5 
L 123.567866 13.5 
L 123.212064 13.5 
L 122.856261 13.5 
L 122.500459 13.5 
L 122.144656 13.5 
L 121.788854 13.5 
L 121.433051 13.5 
L 121.077249 13.5 
L 120.721446 13.5 
L 120.365644 13.5 
L 120.009841 13.5 
L 119.654038 13.5 
L 119.298236 13.5 
L 118.942433 13.5 
L 118.586631 13.5 
L 118.230828 13.5 
L 117.875026 13.5 
L 117.519223 13.5 
L 117.163421 13.5 
L 116.807618 13.5 
L 116.451816 13.5 
L 116.096013 13.5 
L 115.740211 13.5 
L 115.384408 13.5 
L 115.028606 13.5 
L 114.672803 13.5 
L 114.317001 13.5 
L 113.961198 13.5 
L 113.605396 13.5 
L 113.249593 13.5 
L 112.893791 13.5 
L 112.537988 13.5 
L 112.182186 13.5 
L 111.826383 13.5 
L 111.470581 13.5 
L 111.114778 13.5 
L 110.758976 13.5 
L 110.403173 13.5 
L 110.047371 13.5 
L 109.691568 13.5 
L 109.335766 13.5 
L 108.979963 13.5 
L 108.624161 13.5 
L 108.268358 13.5 
L 107.912556 13.5 
L 107.556753 13.5 
L 107.20095 13.5 
L 106.845148 13.5 
L 106.489345 13.5 
L 106.133543 13.5 
L 105.77774 13.5 
L 105.421938 13.5 
L 105.066135 13.5 
L 104.710333 13.5 
L 104.35453 13.5 
L 103.998728 13.5 
L 103.642925 13.5 
L 103.287123 13.5 
L 102.93132 13.5 
L 102.575518 13.5 
L 102.219715 13.5 
L 101.863913 13.5 
L 101.50811 13.5 
L 101.152308 13.5 
L 100.796505 13.5 
L 100.440703 13.5 
L 100.0849 13.5 
L 99.729098 13.5 
L 99.373295 13.5 
L 99.017493 13.5 
L 98.66169 13.5 
L 98.305888 13.5 
L 97.950085 13.5 
L 97.594283 13.5 
L 97.23848 13.5 
L 96.882678 13.5 
L 96.526875 13.5 
L 96.171073 13.5 
L 95.81527 13.5 
L 95.459468 13.5 
L 95.103665 13.5 
L 94.747862 13.5 
L 94.39206 13.5 
L 94.036257 13.5 
L 93.680455 13.5 
L 93.324652 13.5 
L 92.96885 13.5 
L 92.613047 13.5 
L 92.257245 13.5 
L 91.901442 13.5 
L 91.54564 13.5 
L 91.189837 13.5 
L 90.834035 13.5 
L 90.478232 13.5 
L 90.12243 13.5 
L 89.766627 13.5 
L 89.410825 13.5 
L 89.055022 13.5 
L 88.69922 13.5 
L 88.343417 13.5 
L 87.987615 13.5 
L 87.631812 13.5 
L 87.27601 13.5 
L 86.920207 13.5 
L 86.564405 13.5 
L 86.208602 13.5 
L 85.8528 13.5 
L 85.496997 13.5 
L 85.141195 13.5 
L 84.785392 13.5 
L 84.42959 13.5 
L 84.073787 13.5 
L 83.717985 13.5 
L 83.362182 13.5 
L 83.00638 13.5 
L 82.650577 13.5 
L 82.294774 13.5 
L 81.938972 13.5 
L 81.583169 13.5 
L 81.227367 13.5 
L 80.871564 13.5 
L 80.515762 13.5 
L 80.159959 13.5 
L 79.804157 13.5 
L 79.448354 13.5 
L 79.092552 13.5 
L 78.736749 13.5 
L 78.380947 13.5 
L 78.025144 13.5 
L 77.669342 13.5 
L 77.313539 13.5 
L 76.957737 13.5 
L 76.601934 13.5 
L 76.246132 13.5 
L 75.890329 13.5 
L 75.534527 13.5 
L 75.178724 13.5 
L 74.822922 13.5 
L 74.467119 13.5 
L 74.111317 13.5 
L 73.755514 13.5 
L 73.399712 13.5 
L 73.043909 13.5 
L 72.688107 13.5 
L 72.332304 13.5 
L 71.976502 13.5 
L 71.620699 13.5 
L 71.264897 13.5 
L 70.909094 13.5 
L 70.553292 13.5 
L 70.197489 13.5 
L 69.841686 13.5 
L 69.485884 13.5 
L 69.130081 13.5 
L 68.774279 13.5 
L 68.418476 13.5 
L 68.062674 13.5 
L 67.706871 13.5 
L 67.351069 13.5 
L 66.995266 13.5 
L 66.639464 13.5 
L 66.283661 13.5 
L 65.927859 13.5 
L 65.572056 13.5 
L 65.216254 13.5 
L 64.860451 13.5 
L 64.504649 13.5 
L 64.148846 13.5 
L 63.793044 13.5 
L 63.437241 13.5 
L 63.081439 13.5 
L 62.725636 13.5 
L 62.369834 13.5 
L 62.014031 13.5 
L 61.658229 13.5 
L 61.302426 13.5 
L 60.946624 13.5 
L 60.590821 13.5 
L 60.235019 13.5 
L 59.879216 13.5 
L 59.523414 13.5 
L 59.167611 13.5 
L 58.811809 13.5 
L 58.456006 13.5 
L 58.100204 13.5 
L 57.744401 13.5 
L 57.388599 13.5 
L 57.032796 13.5 
L 56.676993 13.5 
L 56.321191 13.5 
L 55.965388 13.5 
L 55.609586 13.5 
L 55.253783 13.5 
L 54.897981 13.5 
L 54.542178 13.5 
L 54.186376 13.5 
L 53.830573 13.5 
L 53.474771 13.5 
L 53.118968 13.5 
L 52.763166 13.5 
L 52.407363 13.5 
L 52.051561 13.5 
L 51.695758 13.5 
L 51.339956 13.5 
L 50.984153 13.5 
L 50.628351 13.5 
L 50.272548 13.5 
L 49.916746 13.5 
L 49.560943 13.5 
L 49.205141 13.5 
L 48.849338 13.5 
L 48.493536 13.5 
L 48.137733 13.5 
L 47.781931 13.5 
L 47.426128 13.5 
L 47.070326 13.5 
L 46.714523 13.5 
L 46.358721 13.5 
L 46.002918 13.5 
L 45.647116 13.5 
L 45.291313 13.5 
L 44.935511 13.5 
L 44.579708 13.5 
L 44.223905 13.5 
L 43.868103 13.5 
L 43.5123 13.5 
L 43.156498 13.5 
L 42.800695 13.5 
L 42.444893 13.5 
L 42.08909 13.5 
L 41.733288 13.5 
L 41.377485 13.5 
L 41.021683 13.5 
L 40.66588 13.5 
L 40.310078 13.5 
L 39.954275 13.5 
L 39.598473 13.5 
L 39.24267 13.5 
L 38.886868 13.5 
L 38.531065 13.5 
L 38.175263 13.5 
L 37.81946 13.5 
z
" clip-path="url(#p00c3668b42)" style="fill: #1f77b4; fill-opacity: 0.25"/>
   </g>
   <g id="matplotlib.axis_1">
    <g id="xtick_1">
     <g id="line2d_1">
      <defs>
       <path id="mf212b34096" d="M 0 0 
L 0 3.5 
" style="stroke: #000000; stroke-width: 0.8"/>
      </defs>
      <g>
       <use xlink:href="#mf212b34096" x="37.81946" y="145.8" style="stroke: #000000; stroke-width: 0.8"/>
      </g>
     </g>
     <g id="text_1">
      <!-- 0 -->
      <g transform="translate(34.63821 160.398438) scale(0.1 -0.1)">
       <defs>
        <path id="DejaVuSans-30" d="M 2034 4250 
Q 1547 4250 1301 3770 
Q 1056 3291 1056 2328 
Q 1056 1369 1301 889 
Q 1547 409 2034 409 
Q 2525 409 2770 889 
Q 3016 1369 3016 2328 
Q 3016 3291 2770 3770 
Q 2525 4250 2034 4250 
z
M 2034 4750 
Q 2819 4750 3233 4129 
Q 3647 3509 3647 2328 
Q 3647 1150 3233 529 
Q 2819 -91 2034 -91 
Q 1250 -91 836 529 
Q 422 1150 422 2328 
Q 422 3509 836 4129 
Q 1250 4750 2034 4750 
z
" transform="scale(0.015625)"/>
       </defs>
       <use xlink:href="#DejaVuSans-30"/>
      </g>
     </g>
    </g>
    <g id="xtick_2">
     <g id="line2d_2">
      <g>
       <use xlink:href="#mf212b34096" x="73.328551" y="145.8" style="stroke: #000000; stroke-width: 0.8"/>
      </g>
     </g>
     <g id="text_2">
      <!-- 1 -->
      <g transform="translate(70.147301 160.398438) scale(0.1 -0.1)">
       <defs>
        <path id="DejaVuSans-31" d="M 794 531 
L 1825 531 
L 1825 4091 
L 703 3866 
L 703 4441 
L 1819 4666 
L 2450 4666 
L 2450 531 
L 3481 531 
L 3481 0 
L 794 0 
L 794 531 
z
" transform="scale(0.015625)"/>
       </defs>
       <use xlink:href="#DejaVuSans-31"/>
      </g>
     </g>
    </g>
    <g id="xtick_3">
     <g id="line2d_3">
      <g>
       <use xlink:href="#mf212b34096" x="108.837642" y="145.8" style="stroke: #000000; stroke-width: 0.8"/>
      </g>
     </g>
     <g id="text_3">
      <!-- 2 -->
      <g transform="translate(105.656392 160.398438) scale(0.1 -0.1)">
       <defs>
        <path id="DejaVuSans-32" d="M 1228 531 
L 3431 531 
L 3431 0 
L 469 0 
L 469 531 
Q 828 903 1448 1529 
Q 2069 2156 2228 2338 
Q 2531 2678 2651 2914 
Q 2772 3150 2772 3378 
Q 2772 3750 2511 3984 
Q 2250 4219 1831 4219 
Q 1534 4219 1204 4116 
Q 875 4013 500 3803 
L 500 4441 
Q 881 4594 1212 4672 
Q 1544 4750 1819 4750 
Q 2544 4750 2975 4387 
Q 3406 4025 3406 3419 
Q 3406 3131 3298 2873 
Q 3191 2616 2906 2266 
Q 2828 2175 2409 1742 
Q 1991 1309 1228 531 
z
" transform="scale(0.015625)"/>
       </defs>
       <use xlink:href="#DejaVuSans-32"/>
      </g>
     </g>
    </g>
    <g id="xtick_4">
     <g id="line2d_4">
      <g>
       <use xlink:href="#mf212b34096" x="144.346733" y="145.8" style="stroke: #000000; stroke-width: 0.8"/>
      </g>
     </g>
     <g id="text_4">
      <!-- 3 -->
      <g transform="translate(141.165483 160.398438) scale(0.1 -0.1)">
       <defs>
        <path id="DejaVuSans-33" d="M 2597 2516 
Q 3050 2419 3304 2112 
Q 3559 1806 3559 1356 
Q 3559 666 3084 287 
Q 2609 -91 1734 -91 
Q 1441 -91 1130 -33 
Q 819 25 488 141 
L 488 750 
Q 750 597 1062 519 
Q 1375 441 1716 441 
Q 2309 441 2620 675 
Q 2931 909 2931 1356 
Q 2931 1769 2642 2001 
Q 2353 2234 1838 2234 
L 1294 2234 
L 1294 2753 
L 1863 2753 
Q 2328 2753 2575 2939 
Q 2822 3125 2822 3475 
Q 2822 3834 2567 4026 
Q 2313 4219 1838 4219 
Q 1578 4219 1281 4162 
Q 984 4106 628 3988 
L 628 4550 
Q 988 4650 1302 4700 
Q 1616 4750 1894 4750 
Q 2613 4750 3031 4423 
Q 3450 4097 3450 3541 
Q 3450 3153 3228 2886 
Q 3006 2619 2597 2516 
z
" transform="scale(0.015625)"/>
       </defs>
       <use xlink:href="#DejaVuSans-33"/>
      </g>
     </g>
    </g>
    <g id="xtick_5">
     <g id="line2d_5">
      <g>
       <use xlink:href="#mf212b34096" x="179.855824" y="145.8" style="stroke: #000000; stroke-width: 0.8"/>
      </g>
     </g>
     <g id="text_5">
      <!-- 4 -->
      <g transform="translate(176.674574 160.398438) scale(0.1 -0.1)">
       <defs>
        <path id="DejaVuSans-34" d="M 2419 4116 
L 825 1625 
L 2419 1625 
L 2419 4116 
z
M 2253 4666 
L 3047 4666 
L 3047 1625 
L 3713 1625 
L 3713 1100 
L 3047 1100 
L 3047 0 
L 2419 0 
L 2419 1100 
L 313 1100 
L 313 1709 
L 2253 4666 
z
" transform="scale(0.015625)"/>
       </defs>
       <use xlink:href="#DejaVuSans-34"/>
      </g>
     </g>
    </g>
    <g id="xtick_6">
     <g id="line2d_6">
      <g>
       <use xlink:href="#mf212b34096" x="215.364915" y="145.8" style="stroke: #000000; stroke-width: 0.8"/>
      </g>
     </g>
     <g id="text_6">
      <!-- 5 -->
      <g transform="translate(212.183665 160.398438) scale(0.1 -0.1)">
       <defs>
        <path id="DejaVuSans-35" d="M 691 4666 
L 3169 4666 
L 3169 4134 
L 1269 4134 
L 1269 2991 
Q 1406 3038 1543 3061 
Q 1681 3084 1819 3084 
Q 2600 3084 3056 2656 
Q 3513 2228 3513 1497 
Q 3513 744 3044 326 
Q 2575 -91 1722 -91 
Q 1428 -91 1123 -41 
Q 819 9 494 109 
L 494 744 
Q 775 591 1075 516 
Q 1375 441 1709 441 
Q 2250 441 2565 725 
Q 2881 1009 2881 1497 
Q 2881 1984 2565 2268 
Q 2250 2553 1709 2553 
Q 1456 2553 1204 2497 
Q 953 2441 691 2322 
L 691 4666 
z
" transform="scale(0.015625)"/>
       </defs>
       <use xlink:href="#DejaVuSans-35"/>
      </g>
     </g>
    </g>
   </g>
   <g id="matplotlib.axis_2">
    <g id="ytick_1">
     <g id="line2d_7">
      <defs>
       <path id="md975be0f31" d="M 0 0 
L -3.5 0 
" style="stroke: #000000; stroke-width: 0.8"/>
      </defs>
      <g>
       <use xlink:href="#md975be0f31" x="28.942188" y="119.894384" style="stroke: #000000; stroke-width: 0.8"/>
      </g>
     </g>
     <g id="text_7">
      <!-- −2 -->
      <g transform="translate(7.2 123.693603) scale(0.1 -0.1)">
       <defs>
        <path id="DejaVuSans-2212" d="M 678 2272 
L 4684 2272 
L 4684 1741 
L 678 1741 
L 678 2272 
z
" transform="scale(0.015625)"/>
       </defs>
       <use xlink:href="#DejaVuSans-2212"/>
       <use xlink:href="#DejaVuSans-32" x="83.789062"/>
      </g>
     </g>
    </g>
    <g id="ytick_2">
     <g id="line2d_8">
      <g>
       <use xlink:href="#md975be0f31" x="28.942188" y="93.295788" style="stroke: #000000; stroke-width: 0.8"/>
      </g>
     </g>
     <g id="text_8">
      <!-- −1 -->
      <g transform="translate(7.2 97.095007) scale(0.1 -0.1)">
       <use xlink:href="#DejaVuSans-2212"/>
       <use xlink:href="#DejaVuSans-31" x="83.789062"/>
      </g>
     </g>
    </g>
    <g id="ytick_3">
     <g id="line2d_9">
      <g>
       <use xlink:href="#md975be0f31" x="28.942188" y="66.697192" style="stroke: #000000; stroke-width: 0.8"/>
      </g>
     </g>
     <g id="text_9">
      <!-- 0 -->
      <g transform="translate(15.579688 70.496411) scale(0.1 -0.1)">
       <use xlink:href="#DejaVuSans-30"/>
      </g>
     </g>
    </g>
    <g id="ytick_4">
     <g id="line2d_10">
      <g>
       <use xlink:href="#md975be0f31" x="28.942188" y="40.098596" style="stroke: #000000; stroke-width: 0.8"/>
      </g>
     </g>
     <g id="text_10">
      <!-- 1 -->
      <g transform="translate(15.579688 43.897815) scale(0.1 -0.1)">
       <use xlink:href="#DejaVuSans-31"/>
      </g>
     </g>
    </g>
    <g id="ytick_5">
     <g id="line2d_11">
      <g>
       <use xlink:href="#md975be0f31" x="28.942188" y="13.5" style="stroke: #000000; stroke-width: 0.8"/>
      </g>
     </g>
     <g id="text_11">
      <!-- 2 -->
      <g transform="translate(15.579688 17.299219) scale(0.1 -0.1)">
       <use xlink:href="#DejaVuSans-32"/>
      </g>
     </g>
    </g>
   </g>
   <g id="line2d_12">
    <path d="M 37.81946 27.61924 
L 38.886868 28.255681 
L 39.954275 29.120141 
L 41.377485 30.594704 
L 42.800695 32.385056 
L 44.579708 34.965033 
L 47.426128 39.546667 
L 51.695758 46.40468 
L 54.186376 49.953789 
L 56.676993 53.080136 
L 60.235019 57.097947 
L 63.081439 60.455975 
L 64.860451 62.89039 
L 66.639464 65.736839 
L 68.418476 69.088892 
L 70.197489 72.990513 
L 71.976502 77.422931 
L 74.467119 84.339023 
L 80.159959 100.594198 
L 81.938972 104.834152 
L 83.362182 107.658262 
L 84.42959 109.390374 
L 85.496997 110.767284 
L 86.564405 111.780131 
L 87.631812 112.432672 
L 88.69922 112.741035 
L 89.766627 112.732885 
L 90.834035 112.44582 
L 91.901442 111.92524 
L 93.324652 110.955575 
L 95.459468 109.161463 
L 99.017493 106.12798 
L 101.50811 104.342519 
L 105.066135 101.89582 
L 106.489345 100.637447 
L 107.912556 99.018972 
L 108.979963 97.488688 
L 110.047371 95.632513 
L 111.114778 93.411956 
L 112.537988 89.842213 
L 113.961198 85.562134 
L 115.384408 80.604571 
L 117.163421 73.587116 
L 119.654038 62.722863 
L 123.923669 43.880451 
L 125.702681 36.929195 
L 127.481694 30.929522 
L 128.904904 26.93475 
L 130.328114 23.707078 
L 131.395521 21.796383 
L 132.462929 20.315025 
L 133.530337 19.247059 
L 134.597744 18.570285 
L 135.665152 18.258137 
L 136.732559 18.281422 
L 137.799967 18.60992 
L 138.867374 19.213667 
L 139.934782 20.063914 
L 141.357992 21.534916 
L 142.781202 23.339131 
L 144.560214 25.986559 
L 146.69503 29.626245 
L 149.185647 34.343052 
L 153.455277 43.031811 
L 157.369105 50.845774 
L 159.859723 55.335968 
L 161.994538 58.72049 
L 163.77355 61.158633 
L 165.552563 63.233283 
L 167.331575 64.95673 
L 169.110588 66.367356 
L 171.245403 67.736125 
L 174.091823 69.250637 
L 177.649848 71.188815 
L 179.784663 72.635655 
L 181.563676 74.088527 
L 183.698491 76.145894 
L 186.189109 78.904862 
L 191.526146 84.996783 
L 193.305159 86.620336 
L 194.728369 87.616005 
L 195.795776 88.146323 
L 196.863184 88.468085 
L 197.930592 88.565753 
L 198.997999 88.429325 
L 200.065407 88.054899 
L 201.132814 87.445052 
L 202.200222 86.609078 
L 203.623432 85.171387 
L 205.046642 83.417287 
L 207.181457 80.363719 
L 211.80689 73.538032 
L 213.2301 71.859613 
L 214.297507 70.860711 
L 215.364915 70.134459 
L 215.364915 70.134459 
" clip-path="url(#p00c3668b42)" style="fill: none; stroke: #000000; stroke-opacity: 0.5; stroke-width: 1.5; stroke-linecap: square"/>
   </g>
   <g id="line2d_13">
    <path d="M 37.81946 85.942142 
L 39.24267 87.559291 
L 40.66588 88.806697 
L 41.733288 89.46064 
L 42.800695 89.846482 
L 43.868103 89.944194 
L 44.935511 89.738311 
L 46.002918 89.218635 
L 47.070326 88.380929 
L 48.137733 87.227451 
L 49.205141 85.76739 
L 50.628351 83.372971 
L 52.051561 80.521649 
L 53.830573 76.437854 
L 56.676993 69.177326 
L 60.235019 60.116007 
L 62.014031 56.104936 
L 63.793044 52.674458 
L 65.216254 50.419449 
L 66.639464 48.623251 
L 67.706871 47.572736 
L 68.774279 46.761772 
L 69.841686 46.168948 
L 71.264897 45.669902 
L 72.688107 45.433945 
L 74.467119 45.386365 
L 83.717985 45.575907 
L 86.208602 45.625499 
L 87.987615 45.882754 
L 89.410825 46.298875 
L 90.834035 46.94769 
L 92.257245 47.858455 
L 93.680455 49.045833 
L 95.103665 50.50927 
L 96.882678 52.70273 
L 98.66169 55.247035 
L 101.152308 59.245575 
L 109.335766 72.876856 
L 111.470581 75.783864 
L 113.249593 77.801944 
L 114.672803 79.105847 
L 116.096013 80.10478 
L 117.519223 80.778899 
L 118.586631 81.063897 
L 119.654038 81.157881 
L 120.721446 81.062742 
L 121.788854 80.784014 
L 123.212064 80.143401 
L 124.635274 79.225689 
L 126.414286 77.755688 
L 128.549101 75.657204 
L 134.953547 69.088784 
L 137.088362 67.349089 
L 138.867374 66.175169 
L 140.646387 65.250025 
L 142.425399 64.547907 
L 144.560214 63.945543 
L 147.050832 63.488618 
L 149.897252 63.199147 
L 152.743672 63.122755 
L 155.590092 63.275233 
L 158.436513 63.669761 
L 161.282933 64.283834 
L 164.485155 65.205419 
L 166.975773 66.140045 
L 168.754785 67.004902 
L 170.533798 68.1262 
L 171.957008 69.274041 
L 173.380218 70.699618 
L 174.803428 72.445632 
L 176.226638 74.539545 
L 177.649848 76.986724 
L 179.428861 80.506121 
L 181.563676 85.250462 
L 186.544911 96.56655 
L 187.968121 99.253013 
L 189.391331 101.450722 
L 190.458739 102.714099 
L 191.526146 103.610212 
L 192.237751 103.992679 
L 192.949356 104.199176 
L 193.660961 104.22915 
L 194.372566 104.08465 
L 195.084171 103.770267 
L 196.151579 102.996267 
L 197.218987 101.889971 
L 198.642197 99.975086 
L 200.421209 97.056821 
L 206.114049 87.077658 
L 207.537259 85.19052 
L 208.604667 84.089542 
L 209.672075 83.300729 
L 210.739482 82.854923 
L 211.451087 82.760382 
L 212.162692 82.834544 
L 212.874297 83.081603 
L 213.585902 83.504609 
L 214.65331 84.472874 
L 215.364915 85.341739 
L 215.364915 85.341739 
" clip-path="url(#p00c3668b42)" style="fill: none; stroke: #000000; stroke-opacity: 0.5; stroke-width: 1.5; stroke-linecap: square"/>
   </g>
   <g id="line2d_14">
    <path d="M 37.81946 62.158648 
L 43.868103 55.213702 
L 46.358721 52.768573 
L 48.493536 51.00679 
L 50.272548 49.792235 
L 52.407363 48.626726 
L 54.542178 47.743087 
L 56.676993 47.096198 
L 58.811809 46.655943 
L 60.946624 46.426694 
L 62.725636 46.431692 
L 64.504649 46.671087 
L 65.927859 47.078806 
L 67.351069 47.72277 
L 68.774279 48.643524 
L 70.197489 49.87696 
L 71.620699 51.449751 
L 73.043909 53.375086 
L 74.467119 55.648838 
L 76.246132 58.942049 
L 78.380947 63.422957 
L 84.785392 77.367232 
L 86.208602 79.835514 
L 87.631812 81.828918 
L 88.69922 82.958486 
L 89.766627 83.742585 
L 90.834035 84.161792 
L 91.54564 84.233281 
L 92.257245 84.137545 
L 92.96885 83.876067 
L 94.036257 83.180972 
L 95.103665 82.140037 
L 96.171073 80.780638 
L 97.594283 78.533303 
L 99.373295 75.164557 
L 101.863913 69.790731 
L 106.489345 59.648671 
L 108.268358 56.253291 
L 110.047371 53.353322 
L 111.470581 51.451024 
L 112.893791 49.951822 
L 113.961198 49.100635 
L 115.028606 48.484392 
L 116.096013 48.098858 
L 117.163421 47.935318 
L 118.230828 47.980732 
L 119.298236 48.21789 
L 120.721446 48.795362 
L 122.144656 49.616163 
L 124.279471 51.152024 
L 128.904904 54.624653 
L 130.683916 55.626604 
L 132.107126 56.193377 
L 133.530337 56.530433 
L 134.953547 56.643056 
L 136.732559 56.516267 
L 139.578979 55.983528 
L 141.713794 55.69347 
L 143.137004 55.753809 
L 144.204412 56.010818 
L 145.271819 56.497467 
L 146.339227 57.25154 
L 147.406635 58.303658 
L 148.474042 59.675563 
L 149.54145 61.378734 
L 150.96466 64.163655 
L 152.38787 67.504591 
L 154.166882 72.355067 
L 156.301697 78.884432 
L 161.282933 94.490264 
L 163.061945 99.250033 
L 164.485155 102.468486 
L 165.908365 105.065474 
L 166.975773 106.569165 
L 168.04318 107.676578 
L 169.110588 108.383752 
L 169.822193 108.634831 
L 170.533798 108.713317 
L 171.245403 108.623972 
L 171.957008 108.372833 
L 173.024416 107.708711 
L 174.091823 106.725054 
L 175.159231 105.453895 
L 176.582441 103.372429 
L 178.361453 100.273377 
L 180.496268 96.057688 
L 187.968121 80.822615 
L 190.102936 77.099959 
L 192.237751 73.76812 
L 194.728369 70.27731 
L 200.421209 62.872419 
L 207.537259 53.596552 
L 209.316272 51.732056 
L 210.739482 50.570539 
L 211.80689 49.943277 
L 212.874297 49.557824 
L 213.941705 49.438831 
L 215.009112 49.605324 
L 215.364915 49.726626 
L 215.364915 49.726626 
" clip-path="url(#p00c3668b42)" style="fill: none; stroke: #000000; stroke-opacity: 0.5; stroke-width: 1.5; stroke-linecap: square"/>
   </g>
   <g id="line2d_15">
    <path d="M 37.81946 64.76481 
L 39.24267 65.169525 
L 40.66588 65.318011 
L 42.444893 65.243082 
L 47.781931 64.739241 
L 49.205141 64.899508 
L 50.628351 65.309418 
L 52.051561 66.016672 
L 53.474771 67.056449 
L 54.897981 68.451018 
L 56.321191 70.209664 
L 57.744401 72.328783 
L 59.523414 75.45837 
L 61.302426 79.064452 
L 63.437241 83.890404 
L 67.706871 94.294563 
L 70.197489 100.087063 
L 71.976502 103.745051 
L 73.399712 106.244737 
L 74.822922 108.27522 
L 75.890329 109.447825 
L 76.957737 110.293927 
L 78.025144 110.796451 
L 78.736749 110.935228 
L 79.448354 110.915325 
L 80.159959 110.736958 
L 81.227367 110.176449 
L 82.294774 109.27571 
L 83.362182 108.054233 
L 84.785392 105.973191 
L 86.208602 103.448791 
L 87.987615 99.814516 
L 90.834035 93.375747 
L 94.747862 84.559243 
L 96.882678 80.243004 
L 99.017493 76.392117 
L 101.50811 72.402083 
L 109.335766 60.38574 
L 112.537988 54.717332 
L 116.096013 48.467396 
L 117.875026 45.805976 
L 119.298236 44.108609 
L 120.365644 43.166166 
L 121.433051 42.559952 
L 122.144656 42.363983 
L 122.856261 42.347874 
L 123.567866 42.521541 
L 124.279471 42.893397 
L 124.991076 43.470215 
L 126.058484 44.730208 
L 127.125891 46.471276 
L 128.193299 48.692666 
L 129.260706 51.383468 
L 130.683916 55.66346 
L 132.107126 60.661696 
L 133.886139 67.753268 
L 136.376757 78.762602 
L 141.357992 101.142304 
L 143.137004 108.094603 
L 144.560214 112.913802 
L 145.983425 116.939405 
L 147.050832 119.38279 
L 148.11824 121.304182 
L 149.185647 122.690463 
L 149.897252 123.316056 
L 150.608857 123.705018 
L 151.320462 123.861562 
L 152.032067 123.791795 
L 152.743672 123.503522 
L 153.455277 123.006047 
L 154.522685 121.891084 
L 155.590092 120.369634 
L 156.6575 118.485521 
L 158.08071 115.488687 
L 159.859723 111.117747 
L 161.994538 105.225706 
L 165.908365 93.565632 
L 169.822193 82.076943 
L 172.312811 75.409091 
L 174.447626 70.328987 
L 176.226638 66.64725 
L 178.005651 63.529878 
L 179.428861 61.466323 
L 180.852071 59.791485 
L 182.275281 58.498511 
L 183.698491 57.569273 
L 185.121701 56.975761 
L 186.544911 56.682271 
L 187.968121 56.648017 
L 189.391331 56.829711 
L 191.170344 57.29444 
L 193.305159 58.093716 
L 201.132814 61.284303 
L 202.911827 61.619682 
L 204.335037 61.657992 
L 205.758247 61.441466 
L 206.825654 61.085281 
L 207.893062 60.544627 
L 208.96047 59.806049 
L 210.38368 58.497409 
L 211.80689 56.810767 
L 213.2301 54.754266 
L 215.009112 51.707444 
L 215.364915 51.041809 
L 215.364915 51.041809 
" clip-path="url(#p00c3668b42)" style="fill: none; stroke: #000000; stroke-opacity: 0.5; stroke-width: 1.5; stroke-linecap: square"/>
   </g>
   <g id="line2d_16">
    <path d="M 37.81946 137.859938 
L 38.886868 138.765776 
L 39.954275 139.316489 
L 40.66588 139.480165 
L 41.377485 139.478264 
L 42.08909 139.309708 
L 42.800695 138.974724 
L 43.868103 138.164184 
L 44.935511 136.994982 
L 46.002918 135.486757 
L 47.426128 132.997086 
L 48.849338 130.040425 
L 50.984153 124.967262 
L 57.388599 109.114732 
L 59.167611 105.52328 
L 60.590821 103.083562 
L 62.014031 101.042536 
L 63.437241 99.378053 
L 64.860451 98.038656 
L 66.639464 96.705474 
L 73.043909 92.339394 
L 74.822922 90.598089 
L 76.601934 88.510117 
L 78.736749 85.634461 
L 83.362182 79.241781 
L 84.785392 77.656602 
L 86.208602 76.433385 
L 87.27601 75.802801 
L 88.343417 75.445795 
L 89.410825 75.376736 
L 90.478232 75.599355 
L 91.54564 76.106479 
L 92.613047 76.880378 
L 94.036257 78.278369 
L 95.459468 80.012581 
L 97.594283 83.004691 
L 101.152308 88.027391 
L 102.575518 89.713429 
L 103.998728 91.07159 
L 105.066135 91.832572 
L 106.133543 92.348401 
L 107.20095 92.604514 
L 108.268358 92.592774 
L 109.335766 92.311001 
L 110.403173 91.762251 
L 111.470581 90.954163 
L 112.537988 89.898189 
L 113.961198 88.13014 
L 115.384408 85.988579 
L 117.163421 82.85752 
L 119.298236 78.564522 
L 122.144656 72.22308 
L 130.328114 53.557471 
L 132.818731 48.665748 
L 134.953547 45.008207 
L 136.732559 42.388581 
L 138.511572 40.18064 
L 139.934782 38.713719 
L 141.357992 37.507118 
L 142.781202 36.548509 
L 144.204412 35.819869 
L 145.627622 35.298845 
L 147.406635 34.901604 
L 149.185647 34.74134 
L 151.320462 34.802898 
L 153.455277 35.095477 
L 155.590092 35.600911 
L 157.724907 36.32876 
L 159.859723 37.301388 
L 161.994538 38.531725 
L 164.485155 40.26484 
L 169.110588 43.895472 
L 171.601206 45.671753 
L 173.380218 46.693698 
L 175.159231 47.44367 
L 176.938243 47.904677 
L 178.717256 48.107687 
L 181.207873 48.122876 
L 183.698491 48.166914 
L 185.121701 48.384115 
L 186.544911 48.853909 
L 187.612319 49.421854 
L 188.679726 50.207533 
L 189.747134 51.233797 
L 190.814541 52.515771 
L 192.237751 54.632775 
L 193.660961 57.204669 
L 195.439974 60.995946 
L 197.574789 66.200843 
L 204.335037 83.314186 
L 205.758247 86.219014 
L 207.181457 88.660955 
L 208.248864 90.15227 
L 209.316272 91.333896 
L 210.38368 92.198001 
L 211.451087 92.744199 
L 212.518495 92.978727 
L 213.585902 92.913487 
L 214.65331 92.564784 
L 215.364915 92.184303 
L 215.364915 92.184303 
" clip-path="url(#p00c3668b42)" style="fill: none; stroke: #000000; stroke-opacity: 0.5; stroke-width: 1.5; stroke-linecap: square"/>
   </g>
   <g id="line2d_17">
    <path d="M 37.81946 66.697192 
L 215.364915 66.697192 
L 215.364915 66.697192 
" clip-path="url(#p00c3668b42)" style="fill: none; stroke: #1f77b4; stroke-width: 2; stroke-linecap: square"/>
   </g>
   <g id="patch_3">
    <path d="M 28.942188 145.8 
L 28.942188 7.2 
" style="fill: none; stroke: #000000; stroke-width: 0.8; stroke-linejoin: miter; stroke-linecap: square"/>
   </g>
   <g id="patch_4">
    <path d="M 224.242188 145.8 
L 224.242188 7.2 
" style="fill: none; stroke: #000000; stroke-width: 0.8; stroke-linejoin: miter; stroke-linecap: square"/>
   </g>
   <g id="patch_5">
    <path d="M 28.942187 145.8 
L 224.242188 145.8 
" style="fill: none; stroke: #000000; stroke-width: 0.8; stroke-linejoin: miter; stroke-linecap: square"/>
   </g>
   <g id="patch_6">
    <path d="M 28.942187 7.2 
L 224.242188 7.2 
" style="fill: none; stroke: #000000; stroke-width: 0.8; stroke-linejoin: miter; stroke-linecap: square"/>
   </g>
  </g>
 </g>
 <defs>
  <clipPath id="p00c3668b42">
   <rect x="28.942188" y="7.2" width="195.3" height="138.6"/>
  </clipPath>
 </defs>
</svg>
