<?xml version="1.0" encoding="utf-8" standalone="no"?>
<!DOCTYPE svg PUBLIC "-//W3C//DTD SVG 1.1//EN"
  "http://www.w3.org/Graphics/SVG/1.1/DTD/svg11.dtd">
<svg xmlns:xlink="http://www.w3.org/1999/xlink" width="231.442188pt" height="169.678125pt" viewBox="0 0 231.442188 169.678125" xmlns="http://www.w3.org/2000/svg" version="1.1">
 <metadata>
  <rdf:RDF xmlns:dc="http://purl.org/dc/elements/1.1/" xmlns:cc="http://creativecommons.org/ns#" xmlns:rdf="http://www.w3.org/1999/02/22-rdf-syntax-ns#">
   <cc:Work>
    <dc:type rdf:resource="http://purl.org/dc/dcmitype/StillImage"/>
    <dc:date>2025-07-01T15:52:48.339198</dc:date>
    <dc:format>image/svg+xml</dc:format>
    <dc:creator>
     <cc:Agent>
      <dc:title>Matplotlib v3.7.2, https://matplotlib.org/</dc:title>
     </cc:Agent>
    </dc:creator>
   </cc:Work>
  </rdf:RDF>
 </metadata>
 <defs>
  <style type="text/css">*{stroke-linejoin: round; stroke-linecap: butt}</style>
 </defs>
 <g id="figure_1">
  <g id="patch_1">
   <path d="M 0 169.678125 
L 231.442188 169.678125 
L 231.442188 0 
L 0 0 
z
" style="fill: #ffffff"/>
  </g>
  <g id="axes_1">
   <g id="patch_2">
    <path d="M 28.942188 145.8 
L 224.242188 145.8 
L 224.242188 7.2 
L 28.942188 7.2 
z
" style="fill: #ffffff"/>
   </g>
   <g id="PolyCollection_1">
    <path d="M 37.81946 25.495844 
L 37.81946 132.845255 
L 38.175263 132.845255 
L 38.531065 132.845255 
L 38.886868 132.845255 
L 39.24267 132.845255 
L 39.598473 132.845255 
L 39.954275 132.845255 
L 40.310078 132.845255 
L 40.66588 132.845255 
L 41.021683 132.845255 
L 41.377485 132.845255 
L 41.733288 132.845255 
L 42.08909 132.845255 
L 42.444893 132.845255 
L 42.800695 132.845255 
L 43.156498 132.845255 
L 43.5123 132.845255 
L 43.868103 132.845255 
L 44.223905 132.845255 
L 44.579708 132.845255 
L 44.935511 132.845255 
L 45.291313 132.845255 
L 45.647116 132.845255 
L 46.002918 132.845255 
L 46.358721 132.845255 
L 46.714523 132.845255 
L 47.070326 132.845255 
L 47.426128 132.845255 
L 47.781931 132.845255 
L 48.137733 132.845255 
L 48.493536 132.845255 
L 48.849338 132.845255 
L 49.205141 132.845255 
L 49.560943 132.845255 
L 49.916746 132.845255 
L 50.272548 132.845255 
L 50.628351 132.845255 
L 50.984153 132.845255 
L 51.339956 132.845255 
L 51.695758 132.845255 
L 52.051561 132.845255 
L 52.407363 132.845255 
L 52.763166 132.845255 
L 53.118968 132.845255 
L 53.474771 132.845255 
L 53.830573 132.845255 
L 54.186376 132.845255 
L 54.542178 132.845255 
L 54.897981 132.845255 
L 55.253783 132.845255 
L 55.609586 132.845255 
L 55.965388 132.845255 
L 56.321191 132.845255 
L 56.676993 132.845255 
L 57.032796 132.845255 
L 57.388599 132.845255 
L 57.744401 132.845255 
L 58.100204 132.845255 
L 58.456006 132.845255 
L 58.811809 132.845255 
L 59.167611 132.845255 
L 59.523414 132.845255 
L 59.879216 132.845255 
L 60.235019 132.845255 
L 60.590821 132.845255 
L 60.946624 132.845255 
L 61.302426 132.845255 
L 61.658229 132.845255 
L 62.014031 132.845255 
L 62.369834 132.845255 
L 62.725636 132.845255 
L 63.081439 132.845255 
L 63.437241 132.845255 
L 63.793044 132.845255 
L 64.148846 132.845255 
L 64.504649 132.845255 
L 64.860451 132.845255 
L 65.216254 132.845255 
L 65.572056 132.845255 
L 65.927859 132.845255 
L 66.283661 132.845255 
L 66.639464 132.845255 
L 66.995266 132.845255 
L 67.351069 132.845255 
L 67.706871 132.845255 
L 68.062674 132.845255 
L 68.418476 132.845255 
L 68.774279 132.845255 
L 69.130081 132.845255 
L 69.485884 132.845255 
L 69.841686 132.845255 
L 70.197489 132.845255 
L 70.553292 132.845255 
L 70.909094 132.845255 
L 71.264897 132.845255 
L 71.620699 132.845255 
L 71.976502 132.845255 
L 72.332304 132.845255 
L 72.688107 132.845255 
L 73.043909 132.845255 
L 73.399712 132.845255 
L 73.755514 132.845255 
L 74.111317 132.845255 
L 74.467119 132.845255 
L 74.822922 132.845255 
L 75.178724 132.845255 
L 75.534527 132.845255 
L 75.890329 132.845255 
L 76.246132 132.845255 
L 76.601934 132.845255 
L 76.957737 132.845255 
L 77.313539 132.845255 
L 77.669342 132.845255 
L 78.025144 132.845255 
L 78.380947 132.845255 
L 78.736749 132.845255 
L 79.092552 132.845255 
L 79.448354 132.845255 
L 79.804157 132.845255 
L 80.159959 132.845255 
L 80.515762 132.845255 
L 80.871564 132.845255 
L 81.227367 132.845255 
L 81.583169 132.845255 
L 81.938972 132.845255 
L 82.294774 132.845255 
L 82.650577 132.845255 
L 83.00638 132.845255 
L 83.362182 132.845255 
L 83.717985 132.845255 
L 84.073787 132.845255 
L 84.42959 132.845255 
L 84.785392 132.845255 
L 85.141195 132.845255 
L 85.496997 132.845255 
L 85.8528 132.845255 
L 86.208602 132.845255 
L 86.564405 132.845255 
L 86.920207 132.845255 
L 87.27601 132.845255 
L 87.631812 132.845255 
L 87.987615 132.845255 
L 88.343417 132.845255 
L 88.69922 132.845255 
L 89.055022 132.845255 
L 89.410825 132.845255 
L 89.766627 132.845255 
L 90.12243 132.845255 
L 90.478232 132.845255 
L 90.834035 132.845255 
L 91.189837 132.845255 
L 91.54564 132.845255 
L 91.901442 132.845255 
L 92.257245 132.845255 
L 92.613047 132.845255 
L 92.96885 132.845255 
L 93.324652 132.845255 
L 93.680455 132.845255 
L 94.036257 132.845255 
L 94.39206 132.845255 
L 94.747862 132.845255 
L 95.103665 132.845255 
L 95.459468 132.845255 
L 95.81527 132.845255 
L 96.171073 132.845255 
L 96.526875 132.845255 
L 96.882678 132.845255 
L 97.23848 132.845255 
L 97.594283 132.845255 
L 97.950085 132.845255 
L 98.305888 132.845255 
L 98.66169 132.845255 
L 99.017493 132.845255 
L 99.373295 132.845255 
L 99.729098 132.845255 
L 100.0849 132.845255 
L 100.440703 132.845255 
L 100.796505 132.845255 
L 101.152308 132.845255 
L 101.50811 132.845255 
L 101.863913 132.845255 
L 102.219715 132.845255 
L 102.575518 132.845255 
L 102.93132 132.845255 
L 103.287123 132.845255 
L 103.642925 132.845255 
L 103.998728 132.845255 
L 104.35453 132.845255 
L 104.710333 132.845255 
L 105.066135 132.845255 
L 105.421938 132.845255 
L 105.77774 132.845255 
L 106.133543 132.845255 
L 106.489345 132.845255 
L 106.845148 132.845255 
L 107.20095 132.845255 
L 107.556753 132.845255 
L 107.912556 132.845255 
L 108.268358 132.845255 
L 108.624161 132.845255 
L 108.979963 132.845255 
L 109.335766 132.845255 
L 109.691568 132.845255 
L 110.047371 132.845255 
L 110.403173 132.845255 
L 110.758976 132.845255 
L 111.114778 132.845255 
L 111.470581 132.845255 
L 111.826383 132.845255 
L 112.182186 132.845255 
L 112.537988 132.845255 
L 112.893791 132.845255 
L 113.249593 132.845255 
L 113.605396 132.845255 
L 113.961198 132.845255 
L 114.317001 132.845255 
L 114.672803 132.845255 
L 115.028606 132.845255 
L 115.384408 132.845255 
L 115.740211 132.845255 
L 116.096013 132.845255 
L 116.451816 132.845255 
L 116.807618 132.845255 
L 117.163421 132.845255 
L 117.519223 132.845255 
L 117.875026 132.845255 
L 118.230828 132.845255 
L 118.586631 132.845255 
L 118.942433 132.845255 
L 119.298236 132.845255 
L 119.654038 132.845255 
L 120.009841 132.845255 
L 120.365644 132.845255 
L 120.721446 132.845255 
L 121.077249 132.845255 
L 121.433051 132.845255 
L 121.788854 132.845255 
L 122.144656 132.845255 
L 122.500459 132.845255 
L 122.856261 132.845255 
L 123.212064 132.845255 
L 123.567866 132.845255 
L 123.923669 132.845255 
L 124.279471 132.845255 
L 124.635274 132.845255 
L 124.991076 132.845255 
L 125.346879 132.845255 
L 125.702681 132.845255 
L 126.058484 132.845255 
L 126.414286 132.845255 
L 126.770089 132.845255 
L 127.125891 132.845255 
L 127.481694 132.845255 
L 127.837496 132.845255 
L 128.193299 132.845255 
L 128.549101 132.845255 
L 128.904904 132.845255 
L 129.260706 132.845255 
L 129.616509 132.845255 
L 129.972311 132.845255 
L 130.328114 132.845255 
L 130.683916 132.845255 
L 131.039719 132.845255 
L 131.395521 132.845255 
L 131.751324 132.845255 
L 132.107126 132.845255 
L 132.462929 132.845255 
L 132.818731 132.845255 
L 133.174534 132.845255 
L 133.530337 132.845255 
L 133.886139 132.845255 
L 134.241942 132.845255 
L 134.597744 132.845255 
L 134.953547 132.845255 
L 135.309349 132.845255 
L 135.665152 132.845255 
L 136.020954 132.845255 
L 136.376757 132.845255 
L 136.732559 132.845255 
L 137.088362 132.845255 
L 137.444164 132.845255 
L 137.799967 132.845255 
L 138.155769 132.845255 
L 138.511572 132.845255 
L 138.867374 132.845255 
L 139.223177 132.845255 
L 139.578979 132.845255 
L 139.934782 132.845255 
L 140.290584 132.845255 
L 140.646387 132.845255 
L 141.002189 132.845255 
L 141.357992 132.845255 
L 141.713794 132.845255 
L 142.069597 132.845255 
L 142.425399 132.845255 
L 142.781202 132.845255 
L 143.137004 132.845255 
L 143.492807 132.845255 
L 143.848609 132.845255 
L 144.204412 132.845255 
L 144.560214 132.845255 
L 144.916017 132.845255 
L 145.271819 132.845255 
L 145.627622 132.845255 
L 145.983425 132.845255 
L 146.339227 132.845255 
L 146.69503 132.845255 
L 147.050832 132.845255 
L 147.406635 132.845255 
L 147.762437 132.845255 
L 148.11824 132.845255 
L 148.474042 132.845255 
L 148.829845 132.845255 
L 149.185647 132.845255 
L 149.54145 132.845255 
L 149.897252 132.845255 
L 150.253055 132.845255 
L 150.608857 132.845255 
L 150.96466 132.845255 
L 151.320462 132.845255 
L 151.676265 132.845255 
L 152.032067 132.845255 
L 152.38787 132.845255 
L 152.743672 132.845255 
L 153.099475 132.845255 
L 153.455277 132.845255 
L 153.81108 132.845255 
L 154.166882 132.845255 
L 154.522685 132.845255 
L 154.878487 132.845255 
L 155.23429 132.845255 
L 155.590092 132.845255 
L 155.945895 132.845255 
L 156.301697 132.845255 
L 156.6575 132.845255 
L 157.013302 132.845255 
L 157.369105 132.845255 
L 157.724907 132.845255 
L 158.08071 132.845255 
L 158.436513 132.845255 
L 158.792315 132.845255 
L 159.148118 132.845255 
L 159.50392 132.845255 
L 159.859723 132.845255 
L 160.215525 132.845255 
L 160.571328 132.845255 
L 160.92713 132.845255 
L 161.282933 132.845255 
L 161.638735 132.845255 
L 161.994538 132.845255 
L 162.35034 132.845255 
L 162.706143 132.845255 
L 163.061945 132.845255 
L 163.417748 132.845255 
L 163.77355 132.845255 
L 164.129353 132.845255 
L 164.485155 132.845255 
L 164.840958 132.845255 
L 165.19676 132.845255 
L 165.552563 132.845255 
L 165.908365 132.845255 
L 166.264168 132.845255 
L 166.61997 132.845255 
L 166.975773 132.845255 
L 167.331575 132.845255 
L 167.687378 132.845255 
L 168.04318 132.845255 
L 168.398983 132.845255 
L 168.754785 132.845255 
L 169.110588 132.845255 
L 169.46639 132.845255 
L 169.822193 132.845255 
L 170.177995 132.845255 
L 170.533798 132.845255 
L 170.889601 132.845255 
L 171.245403 132.845255 
L 171.601206 132.845255 
L 171.957008 132.845255 
L 172.312811 132.845255 
L 172.668613 132.845255 
L 173.024416 132.845255 
L 173.380218 132.845255 
L 173.736021 132.845255 
L 174.091823 132.845255 
L 174.447626 132.845255 
L 174.803428 132.845255 
L 175.159231 132.845255 
L 175.515033 132.845255 
L 175.870836 132.845255 
L 176.226638 132.845255 
L 176.582441 132.845255 
L 176.938243 132.845255 
L 177.294046 132.845255 
L 177.649848 132.845255 
L 178.005651 132.845255 
L 178.361453 132.845255 
L 178.717256 132.845255 
L 179.073058 132.845255 
L 179.428861 132.845255 
L 179.784663 132.845255 
L 180.140466 132.845255 
L 180.496268 132.845255 
L 180.852071 132.845255 
L 181.207873 132.845255 
L 181.563676 132.845255 
L 181.919478 132.845255 
L 182.275281 132.845255 
L 182.631083 132.845255 
L 182.986886 132.845255 
L 183.342689 132.845255 
L 183.698491 132.845255 
L 184.054294 132.845255 
L 184.410096 132.845255 
L 184.765899 132.845255 
L 185.121701 132.845255 
L 185.477504 132.845255 
L 185.833306 132.845255 
L 186.189109 132.845255 
L 186.544911 132.845255 
L 186.900714 132.845255 
L 187.256516 132.845255 
L 187.612319 132.845255 
L 187.968121 132.845255 
L 188.323924 132.845255 
L 188.679726 132.845255 
L 189.035529 132.845255 
L 189.391331 132.845255 
L 189.747134 132.845255 
L 190.102936 132.845255 
L 190.458739 132.845255 
L 190.814541 132.845255 
L 191.170344 132.845255 
L 191.526146 132.845255 
L 191.881949 132.845255 
L 192.237751 132.845255 
L 192.593554 132.845255 
L 192.949356 132.845255 
L 193.305159 132.845255 
L 193.660961 132.845255 
L 194.016764 132.845255 
L 194.372566 132.845255 
L 194.728369 132.845255 
L 195.084171 132.845255 
L 195.439974 132.845255 
L 195.795776 132.845255 
L 196.151579 132.845255 
L 196.507382 132.845255 
L 196.863184 132.845255 
L 197.218987 132.845255 
L 197.574789 132.845255 
L 197.930592 132.845255 
L 198.286394 132.845255 
L 198.642197 132.845255 
L 198.997999 132.845255 
L 199.353802 132.845255 
L 199.709604 132.845255 
L 200.065407 132.845255 
L 200.421209 132.845255 
L 200.777012 132.845255 
L 201.132814 132.845255 
L 201.488617 132.845255 
L 201.844419 132.845255 
L 202.200222 132.845255 
L 202.556024 132.845255 
L 202.911827 132.845255 
L 203.267629 132.845255 
L 203.623432 132.845255 
L 203.979234 132.845255 
L 204.335037 132.845255 
L 204.690839 132.845255 
L 205.046642 132.845255 
L 205.402444 132.845255 
L 205.758247 132.845255 
L 206.114049 132.845255 
L 206.469852 132.845255 
L 206.825654 132.845255 
L 207.181457 132.845255 
L 207.537259 132.845255 
L 207.893062 132.845255 
L 208.248864 132.845255 
L 208.604667 132.845255 
L 208.96047 132.845255 
L 209.316272 132.845255 
L 209.672075 132.845255 
L 210.027877 132.845255 
L 210.38368 132.845255 
L 210.739482 132.845255 
L 211.095285 132.845255 
L 211.451087 132.845255 
L 211.80689 132.845255 
L 212.162692 132.845255 
L 212.518495 132.845255 
L 212.874297 132.845255 
L 213.2301 132.845255 
L 213.585902 132.845255 
L 213.941705 132.845255 
L 214.297507 132.845255 
L 214.65331 132.845255 
L 215.009112 132.845255 
L 215.364915 132.845255 
L 215.364915 25.495844 
L 215.364915 25.495844 
L 215.009112 25.495844 
L 214.65331 25.495844 
L 214.297507 25.495844 
L 213.941705 25.495844 
L 213.585902 25.495844 
L 213.2301 25.495844 
L 212.874297 25.495844 
L 212.518495 25.495844 
L 212.162692 25.495844 
L 211.80689 25.495844 
L 211.451087 25.495844 
L 211.095285 25.495844 
L 210.739482 25.495844 
L 210.38368 25.495844 
L 210.027877 25.495844 
L 209.672075 25.495844 
L 209.316272 25.495844 
L 208.96047 25.495844 
L 208.604667 25.495844 
L 208.248864 25.495844 
L 207.893062 25.495844 
L 207.537259 25.495844 
L 207.181457 25.495844 
L 206.825654 25.495844 
L 206.469852 25.495844 
L 206.114049 25.495844 
L 205.758247 25.495844 
L 205.402444 25.495844 
L 205.046642 25.495844 
L 204.690839 25.495844 
L 204.335037 25.495844 
L 203.979234 25.495844 
L 203.623432 25.495844 
L 203.267629 25.495844 
L 202.911827 25.495844 
L 202.556024 25.495844 
L 202.200222 25.495844 
L 201.844419 25.495844 
L 201.488617 25.495844 
L 201.132814 25.495844 
L 200.777012 25.495844 
L 200.421209 25.495844 
L 200.065407 25.495844 
L 199.709604 25.495844 
L 199.353802 25.495844 
L 198.997999 25.495844 
L 198.642197 25.495844 
L 198.286394 25.495844 
L 197.930592 25.495844 
L 197.574789 25.495844 
L 197.218987 25.495844 
L 196.863184 25.495844 
L 196.507382 25.495844 
L 196.151579 25.495844 
L 195.795776 25.495844 
L 195.439974 25.495844 
L 195.084171 25.495844 
L 194.728369 25.495844 
L 194.372566 25.495844 
L 194.016764 25.495844 
L 193.660961 25.495844 
L 193.305159 25.495844 
L 192.949356 25.495844 
L 192.593554 25.495844 
L 192.237751 25.495844 
L 191.881949 25.495844 
L 191.526146 25.495844 
L 191.170344 25.495844 
L 190.814541 25.495844 
L 190.458739 25.495844 
L 190.102936 25.495844 
L 189.747134 25.495844 
L 189.391331 25.495844 
L 189.035529 25.495844 
L 188.679726 25.495844 
L 188.323924 25.495844 
L 187.968121 25.495844 
L 187.612319 25.495844 
L 187.256516 25.495844 
L 186.900714 25.495844 
L 186.544911 25.495844 
L 186.189109 25.495844 
L 185.833306 25.495844 
L 185.477504 25.495844 
L 185.121701 25.495844 
L 184.765899 25.495844 
L 184.410096 25.495844 
L 184.054294 25.495844 
L 183.698491 25.495844 
L 183.342689 25.495844 
L 182.986886 25.495844 
L 182.631083 25.495844 
L 182.275281 25.495844 
L 181.919478 25.495844 
L 181.563676 25.495844 
L 181.207873 25.495844 
L 180.852071 25.495844 
L 180.496268 25.495844 
L 180.140466 25.495844 
L 179.784663 25.495844 
L 179.428861 25.495844 
L 179.073058 25.495844 
L 178.717256 25.495844 
L 178.361453 25.495844 
L 178.005651 25.495844 
L 177.649848 25.495844 
L 177.294046 25.495844 
L 176.938243 25.495844 
L 176.582441 25.495844 
L 176.226638 25.495844 
L 175.870836 25.495844 
L 175.515033 25.495844 
L 175.159231 25.495844 
L 174.803428 25.495844 
L 174.447626 25.495844 
L 174.091823 25.495844 
L 173.736021 25.495844 
L 173.380218 25.495844 
L 173.024416 25.495844 
L 172.668613 25.495844 
L 172.312811 25.495844 
L 171.957008 25.495844 
L 171.601206 25.495844 
L 171.245403 25.495844 
L 170.889601 25.495844 
L 170.533798 25.495844 
L 170.177995 25.495844 
L 169.822193 25.495844 
L 169.46639 25.495844 
L 169.110588 25.495844 
L 168.754785 25.495844 
L 168.398983 25.495844 
L 168.04318 25.495844 
L 167.687378 25.495844 
L 167.331575 25.495844 
L 166.975773 25.495844 
L 166.61997 25.495844 
L 166.264168 25.495844 
L 165.908365 25.495844 
L 165.552563 25.495844 
L 165.19676 25.495844 
L 164.840958 25.495844 
L 164.485155 25.495844 
L 164.129353 25.495844 
L 163.77355 25.495844 
L 163.417748 25.495844 
L 163.061945 25.495844 
L 162.706143 25.495844 
L 162.35034 25.495844 
L 161.994538 25.495844 
L 161.638735 25.495844 
L 161.282933 25.495844 
L 160.92713 25.495844 
L 160.571328 25.495844 
L 160.215525 25.495844 
L 159.859723 25.495844 
L 159.50392 25.495844 
L 159.148118 25.495844 
L 158.792315 25.495844 
L 158.436513 25.495844 
L 158.08071 25.495844 
L 157.724907 25.495844 
L 157.369105 25.495844 
L 157.013302 25.495844 
L 156.6575 25.495844 
L 156.301697 25.495844 
L 155.945895 25.495844 
L 155.590092 25.495844 
L 155.23429 25.495844 
L 154.878487 25.495844 
L 154.522685 25.495844 
L 154.166882 25.495844 
L 153.81108 25.495844 
L 153.455277 25.495844 
L 153.099475 25.495844 
L 152.743672 25.495844 
L 152.38787 25.495844 
L 152.032067 25.495844 
L 151.676265 25.495844 
L 151.320462 25.495844 
L 150.96466 25.495844 
L 150.608857 25.495844 
L 150.253055 25.495844 
L 149.897252 25.495844 
L 149.54145 25.495844 
L 149.185647 25.495844 
L 148.829845 25.495844 
L 148.474042 25.495844 
L 148.11824 25.495844 
L 147.762437 25.495844 
L 147.406635 25.495844 
L 147.050832 25.495844 
L 146.69503 25.495844 
L 146.339227 25.495844 
L 145.983425 25.495844 
L 145.627622 25.495844 
L 145.271819 25.495844 
L 144.916017 25.495844 
L 144.560214 25.495844 
L 144.204412 25.495844 
L 143.848609 25.495844 
L 143.492807 25.495844 
L 143.137004 25.495844 
L 142.781202 25.495844 
L 142.425399 25.495844 
L 142.069597 25.495844 
L 141.713794 25.495844 
L 141.357992 25.495844 
L 141.002189 25.495844 
L 140.646387 25.495844 
L 140.290584 25.495844 
L 139.934782 25.495844 
L 139.578979 25.495844 
L 139.223177 25.495844 
L 138.867374 25.495844 
L 138.511572 25.495844 
L 138.155769 25.495844 
L 137.799967 25.495844 
L 137.444164 25.495844 
L 137.088362 25.495844 
L 136.732559 25.495844 
L 136.376757 25.495844 
L 136.020954 25.495844 
L 135.665152 25.495844 
L 135.309349 25.495844 
L 134.953547 25.495844 
L 134.597744 25.495844 
L 134.241942 25.495844 
L 133.886139 25.495844 
L 133.530337 25.495844 
L 133.174534 25.495844 
L 132.818731 25.495844 
L 132.462929 25.495844 
L 132.107126 25.495844 
L 131.751324 25.495844 
L 131.395521 25.495844 
L 131.039719 25.495844 
L 130.683916 25.495844 
L 130.328114 25.495844 
L 129.972311 25.495844 
L 129.616509 25.495844 
L 129.260706 25.495844 
L 128.904904 25.495844 
L 128.549101 25.495844 
L 128.193299 25.495844 
L 127.837496 25.495844 
L 127.481694 25.495844 
L 127.125891 25.495844 
L 126.770089 25.495844 
L 126.414286 25.495844 
L 126.058484 25.495844 
L 125.702681 25.495844 
L 125.346879 25.495844 
L 124.991076 25.495844 
L 124.635274 25.495844 
L 124.279471 25.495844 
L 123.923669 25.495844 
L 123.567866 25.495844 
L 123.212064 25.495844 
L 122.856261 25.495844 
L 122.500459 25.495844 
L 122.144656 25.495844 
L 121.788854 25.495844 
L 121.433051 25.495844 
L 121.077249 25.495844 
L 120.721446 25.495844 
L 120.365644 25.495844 
L 120.009841 25.495844 
L 119.654038 25.495844 
L 119.298236 25.495844 
L 118.942433 25.495844 
L 118.586631 25.495844 
L 118.230828 25.495844 
L 117.875026 25.495844 
L 117.519223 25.495844 
L 117.163421 25.495844 
L 116.807618 25.495844 
L 116.451816 25.495844 
L 116.096013 25.495844 
L 115.740211 25.495844 
L 115.384408 25.495844 
L 115.028606 25.495844 
L 114.672803 25.495844 
L 114.317001 25.495844 
L 113.961198 25.495844 
L 113.605396 25.495844 
L 113.249593 25.495844 
L 112.893791 25.495844 
L 112.537988 25.495844 
L 112.182186 25.495844 
L 111.826383 25.495844 
L 111.470581 25.495844 
L 111.114778 25.495844 
L 110.758976 25.495844 
L 110.403173 25.495844 
L 110.047371 25.495844 
L 109.691568 25.495844 
L 109.335766 25.495844 
L 108.979963 25.495844 
L 108.624161 25.495844 
L 108.268358 25.495844 
L 107.912556 25.495844 
L 107.556753 25.495844 
L 107.20095 25.495844 
L 106.845148 25.495844 
L 106.489345 25.495844 
L 106.133543 25.495844 
L 105.77774 25.495844 
L 105.421938 25.495844 
L 105.066135 25.495844 
L 104.710333 25.495844 
L 104.35453 25.495844 
L 103.998728 25.495844 
L 103.642925 25.495844 
L 103.287123 25.495844 
L 102.93132 25.495844 
L 102.575518 25.495844 
L 102.219715 25.495844 
L 101.863913 25.495844 
L 101.50811 25.495844 
L 101.152308 25.495844 
L 100.796505 25.495844 
L 100.440703 25.495844 
L 100.0849 25.495844 
L 99.729098 25.495844 
L 99.373295 25.495844 
L 99.017493 25.495844 
L 98.66169 25.495844 
L 98.305888 25.495844 
L 97.950085 25.495844 
L 97.594283 25.495844 
L 97.23848 25.495844 
L 96.882678 25.495844 
L 96.526875 25.495844 
L 96.171073 25.495844 
L 95.81527 25.495844 
L 95.459468 25.495844 
L 95.103665 25.495844 
L 94.747862 25.495844 
L 94.39206 25.495844 
L 94.036257 25.495844 
L 93.680455 25.495844 
L 93.324652 25.495844 
L 92.96885 25.495844 
L 92.613047 25.495844 
L 92.257245 25.495844 
L 91.901442 25.495844 
L 91.54564 25.495844 
L 91.189837 25.495844 
L 90.834035 25.495844 
L 90.478232 25.495844 
L 90.12243 25.495844 
L 89.766627 25.495844 
L 89.410825 25.495844 
L 89.055022 25.495844 
L 88.69922 25.495844 
L 88.343417 25.495844 
L 87.987615 25.495844 
L 87.631812 25.495844 
L 87.27601 25.495844 
L 86.920207 25.495844 
L 86.564405 25.495844 
L 86.208602 25.495844 
L 85.8528 25.495844 
L 85.496997 25.495844 
L 85.141195 25.495844 
L 84.785392 25.495844 
L 84.42959 25.495844 
L 84.073787 25.495844 
L 83.717985 25.495844 
L 83.362182 25.495844 
L 83.00638 25.495844 
L 82.650577 25.495844 
L 82.294774 25.495844 
L 81.938972 25.495844 
L 81.583169 25.495844 
L 81.227367 25.495844 
L 80.871564 25.495844 
L 80.515762 25.495844 
L 80.159959 25.495844 
L 79.804157 25.495844 
L 79.448354 25.495844 
L 79.092552 25.495844 
L 78.736749 25.495844 
L 78.380947 25.495844 
L 78.025144 25.495844 
L 77.669342 25.495844 
L 77.313539 25.495844 
L 76.957737 25.495844 
L 76.601934 25.495844 
L 76.246132 25.495844 
L 75.890329 25.495844 
L 75.534527 25.495844 
L 75.178724 25.495844 
L 74.822922 25.495844 
L 74.467119 25.495844 
L 74.111317 25.495844 
L 73.755514 25.495844 
L 73.399712 25.495844 
L 73.043909 25.495844 
L 72.688107 25.495844 
L 72.332304 25.495844 
L 71.976502 25.495844 
L 71.620699 25.495844 
L 71.264897 25.495844 
L 70.909094 25.495844 
L 70.553292 25.495844 
L 70.197489 25.495844 
L 69.841686 25.495844 
L 69.485884 25.495844 
L 69.130081 25.495844 
L 68.774279 25.495844 
L 68.418476 25.495844 
L 68.062674 25.495844 
L 67.706871 25.495844 
L 67.351069 25.495844 
L 66.995266 25.495844 
L 66.639464 25.495844 
L 66.283661 25.495844 
L 65.927859 25.495844 
L 65.572056 25.495844 
L 65.216254 25.495844 
L 64.860451 25.495844 
L 64.504649 25.495844 
L 64.148846 25.495844 
L 63.793044 25.495844 
L 63.437241 25.495844 
L 63.081439 25.495844 
L 62.725636 25.495844 
L 62.369834 25.495844 
L 62.014031 25.495844 
L 61.658229 25.495844 
L 61.302426 25.495844 
L 60.946624 25.495844 
L 60.590821 25.495844 
L 60.235019 25.495844 
L 59.879216 25.495844 
L 59.523414 25.495844 
L 59.167611 25.495844 
L 58.811809 25.495844 
L 58.456006 25.495844 
L 58.100204 25.495844 
L 57.744401 25.495844 
L 57.388599 25.495844 
L 57.032796 25.495844 
L 56.676993 25.495844 
L 56.321191 25.495844 
L 55.965388 25.495844 
L 55.609586 25.495844 
L 55.253783 25.495844 
L 54.897981 25.495844 
L 54.542178 25.495844 
L 54.186376 25.495844 
L 53.830573 25.495844 
L 53.474771 25.495844 
L 53.118968 25.495844 
L 52.763166 25.495844 
L 52.407363 25.495844 
L 52.051561 25.495844 
L 51.695758 25.495844 
L 51.339956 25.495844 
L 50.984153 25.495844 
L 50.628351 25.495844 
L 50.272548 25.495844 
L 49.916746 25.495844 
L 49.560943 25.495844 
L 49.205141 25.495844 
L 48.849338 25.495844 
L 48.493536 25.495844 
L 48.137733 25.495844 
L 47.781931 25.495844 
L 47.426128 25.495844 
L 47.070326 25.495844 
L 46.714523 25.495844 
L 46.358721 25.495844 
L 46.002918 25.495844 
L 45.647116 25.495844 
L 45.291313 25.495844 
L 44.935511 25.495844 
L 44.579708 25.495844 
L 44.223905 25.495844 
L 43.868103 25.495844 
L 43.5123 25.495844 
L 43.156498 25.495844 
L 42.800695 25.495844 
L 42.444893 25.495844 
L 42.08909 25.495844 
L 41.733288 25.495844 
L 41.377485 25.495844 
L 41.021683 25.495844 
L 40.66588 25.495844 
L 40.310078 25.495844 
L 39.954275 25.495844 
L 39.598473 25.495844 
L 39.24267 25.495844 
L 38.886868 25.495844 
L 38.531065 25.495844 
L 38.175263 25.495844 
L 37.81946 25.495844 
z
" clip-path="url(#pd531e44f31)" style="fill: #1f77b4; fill-opacity: 0.25"/>
   </g>
   <g id="matplotlib.axis_1">
    <g id="xtick_1">
     <g id="line2d_1">
      <defs>
       <path id="m02273a0d86" d="M 0 0 
L 0 3.5 
" style="stroke: #000000; stroke-width: 0.8"/>
      </defs>
      <g>
       <use xlink:href="#m02273a0d86" x="37.81946" y="145.8" style="stroke: #000000; stroke-width: 0.8"/>
      </g>
     </g>
     <g id="text_1">
      <!-- 0 -->
      <g transform="translate(34.63821 160.398438) scale(0.1 -0.1)">
       <defs>
        <path id="DejaVuSans-30" d="M 2034 4250 
Q 1547 4250 1301 3770 
Q 1056 3291 1056 2328 
Q 1056 1369 1301 889 
Q 1547 409 2034 409 
Q 2525 409 2770 889 
Q 3016 1369 3016 2328 
Q 3016 3291 2770 3770 
Q 2525 4250 2034 4250 
z
M 2034 4750 
Q 2819 4750 3233 4129 
Q 3647 3509 3647 2328 
Q 3647 1150 3233 529 
Q 2819 -91 2034 -91 
Q 1250 -91 836 529 
Q 422 1150 422 2328 
Q 422 3509 836 4129 
Q 1250 4750 2034 4750 
z
" transform="scale(0.015625)"/>
       </defs>
       <use xlink:href="#DejaVuSans-30"/>
      </g>
     </g>
    </g>
    <g id="xtick_2">
     <g id="line2d_2">
      <g>
       <use xlink:href="#m02273a0d86" x="73.328551" y="145.8" style="stroke: #000000; stroke-width: 0.8"/>
      </g>
     </g>
     <g id="text_2">
      <!-- 1 -->
      <g transform="translate(70.147301 160.398438) scale(0.1 -0.1)">
       <defs>
        <path id="DejaVuSans-31" d="M 794 531 
L 1825 531 
L 1825 4091 
L 703 3866 
L 703 4441 
L 1819 4666 
L 2450 4666 
L 2450 531 
L 3481 531 
L 3481 0 
L 794 0 
L 794 531 
z
" transform="scale(0.015625)"/>
       </defs>
       <use xlink:href="#DejaVuSans-31"/>
      </g>
     </g>
    </g>
    <g id="xtick_3">
     <g id="line2d_3">
      <g>
       <use xlink:href="#m02273a0d86" x="108.837642" y="145.8" style="stroke: #000000; stroke-width: 0.8"/>
      </g>
     </g>
     <g id="text_3">
      <!-- 2 -->
      <g transform="translate(105.656392 160.398438) scale(0.1 -0.1)">
       <defs>
        <path id="DejaVuSans-32" d="M 1228 531 
L 3431 531 
L 3431 0 
L 469 0 
L 469 531 
Q 828 903 1448 1529 
Q 2069 2156 2228 2338 
Q 2531 2678 2651 2914 
Q 2772 3150 2772 3378 
Q 2772 3750 2511 3984 
Q 2250 4219 1831 4219 
Q 1534 4219 1204 4116 
Q 875 4013 500 3803 
L 500 4441 
Q 881 4594 1212 4672 
Q 1544 4750 1819 4750 
Q 2544 4750 2975 4387 
Q 3406 4025 3406 3419 
Q 3406 3131 3298 2873 
Q 3191 2616 2906 2266 
Q 2828 2175 2409 1742 
Q 1991 1309 1228 531 
z
" transform="scale(0.015625)"/>
       </defs>
       <use xlink:href="#DejaVuSans-32"/>
      </g>
     </g>
    </g>
    <g id="xtick_4">
     <g id="line2d_4">
      <g>
       <use xlink:href="#m02273a0d86" x="144.346733" y="145.8" style="stroke: #000000; stroke-width: 0.8"/>
      </g>
     </g>
     <g id="text_4">
      <!-- 3 -->
      <g transform="translate(141.165483 160.398438) scale(0.1 -0.1)">
       <defs>
        <path id="DejaVuSans-33" d="M 2597 2516 
Q 3050 2419 3304 2112 
Q 3559 1806 3559 1356 
Q 3559 666 3084 287 
Q 2609 -91 1734 -91 
Q 1441 -91 1130 -33 
Q 819 25 488 141 
L 488 750 
Q 750 597 1062 519 
Q 1375 441 1716 441 
Q 2309 441 2620 675 
Q 2931 909 2931 1356 
Q 2931 1769 2642 2001 
Q 2353 2234 1838 2234 
L 1294 2234 
L 1294 2753 
L 1863 2753 
Q 2328 2753 2575 2939 
Q 2822 3125 2822 3475 
Q 2822 3834 2567 4026 
Q 2313 4219 1838 4219 
Q 1578 4219 1281 4162 
Q 984 4106 628 3988 
L 628 4550 
Q 988 4650 1302 4700 
Q 1616 4750 1894 4750 
Q 2613 4750 3031 4423 
Q 3450 4097 3450 3541 
Q 3450 3153 3228 2886 
Q 3006 2619 2597 2516 
z
" transform="scale(0.015625)"/>
       </defs>
       <use xlink:href="#DejaVuSans-33"/>
      </g>
     </g>
    </g>
    <g id="xtick_5">
     <g id="line2d_5">
      <g>
       <use xlink:href="#m02273a0d86" x="179.855824" y="145.8" style="stroke: #000000; stroke-width: 0.8"/>
      </g>
     </g>
     <g id="text_5">
      <!-- 4 -->
      <g transform="translate(176.674574 160.398438) scale(0.1 -0.1)">
       <defs>
        <path id="DejaVuSans-34" d="M 2419 4116 
L 825 1625 
L 2419 1625 
L 2419 4116 
z
M 2253 4666 
L 3047 4666 
L 3047 1625 
L 3713 1625 
L 3713 1100 
L 3047 1100 
L 3047 0 
L 2419 0 
L 2419 1100 
L 313 1100 
L 313 1709 
L 2253 4666 
z
" transform="scale(0.015625)"/>
       </defs>
       <use xlink:href="#DejaVuSans-34"/>
      </g>
     </g>
    </g>
    <g id="xtick_6">
     <g id="line2d_6">
      <g>
       <use xlink:href="#m02273a0d86" x="215.364915" y="145.8" style="stroke: #000000; stroke-width: 0.8"/>
      </g>
     </g>
     <g id="text_6">
      <!-- 5 -->
      <g transform="translate(212.183665 160.398438) scale(0.1 -0.1)">
       <defs>
        <path id="DejaVuSans-35" d="M 691 4666 
L 3169 4666 
L 3169 4134 
L 1269 4134 
L 1269 2991 
Q 1406 3038 1543 3061 
Q 1681 3084 1819 3084 
Q 2600 3084 3056 2656 
Q 3513 2228 3513 1497 
Q 3513 744 3044 326 
Q 2575 -91 1722 -91 
Q 1428 -91 1123 -41 
Q 819 9 494 109 
L 494 744 
Q 775 591 1075 516 
Q 1375 441 1709 441 
Q 2250 441 2565 725 
Q 2881 1009 2881 1497 
Q 2881 1984 2565 2268 
Q 2250 2553 1709 2553 
Q 1456 2553 1204 2497 
Q 953 2441 691 2322 
L 691 4666 
z
" transform="scale(0.015625)"/>
       </defs>
       <use xlink:href="#DejaVuSans-35"/>
      </g>
     </g>
    </g>
   </g>
   <g id="matplotlib.axis_2">
    <g id="ytick_1">
     <g id="line2d_7">
      <defs>
       <path id="m4e67a0a6c0" d="M 0 0 
L -3.5 0 
" style="stroke: #000000; stroke-width: 0.8"/>
      </defs>
      <g>
       <use xlink:href="#m4e67a0a6c0" x="28.942188" y="132.845255" style="stroke: #000000; stroke-width: 0.8"/>
      </g>
     </g>
     <g id="text_7">
      <!-- −2 -->
      <g transform="translate(7.2 136.644474) scale(0.1 -0.1)">
       <defs>
        <path id="DejaVuSans-2212" d="M 678 2272 
L 4684 2272 
L 4684 1741 
L 678 1741 
L 678 2272 
z
" transform="scale(0.015625)"/>
       </defs>
       <use xlink:href="#DejaVuSans-2212"/>
       <use xlink:href="#DejaVuSans-32" x="83.789062"/>
      </g>
     </g>
    </g>
    <g id="ytick_2">
     <g id="line2d_8">
      <g>
       <use xlink:href="#m4e67a0a6c0" x="28.942188" y="106.007902" style="stroke: #000000; stroke-width: 0.8"/>
      </g>
     </g>
     <g id="text_8">
      <!-- −1 -->
      <g transform="translate(7.2 109.807121) scale(0.1 -0.1)">
       <use xlink:href="#DejaVuSans-2212"/>
       <use xlink:href="#DejaVuSans-31" x="83.789062"/>
      </g>
     </g>
    </g>
    <g id="ytick_3">
     <g id="line2d_9">
      <g>
       <use xlink:href="#m4e67a0a6c0" x="28.942188" y="79.17055" style="stroke: #000000; stroke-width: 0.8"/>
      </g>
     </g>
     <g id="text_9">
      <!-- 0 -->
      <g transform="translate(15.579688 82.969768) scale(0.1 -0.1)">
       <use xlink:href="#DejaVuSans-30"/>
      </g>
     </g>
    </g>
    <g id="ytick_4">
     <g id="line2d_10">
      <g>
       <use xlink:href="#m4e67a0a6c0" x="28.942188" y="52.333197" style="stroke: #000000; stroke-width: 0.8"/>
      </g>
     </g>
     <g id="text_10">
      <!-- 1 -->
      <g transform="translate(15.579688 56.132416) scale(0.1 -0.1)">
       <use xlink:href="#DejaVuSans-31"/>
      </g>
     </g>
    </g>
    <g id="ytick_5">
     <g id="line2d_11">
      <g>
       <use xlink:href="#m4e67a0a6c0" x="28.942188" y="25.495844" style="stroke: #000000; stroke-width: 0.8"/>
      </g>
     </g>
     <g id="text_11">
      <!-- 2 -->
      <g transform="translate(15.579688 29.295063) scale(0.1 -0.1)">
       <use xlink:href="#DejaVuSans-32"/>
      </g>
     </g>
    </g>
   </g>
   <g id="line2d_12">
    <path d="M 37.81946 104.344272 
L 38.886868 104.497055 
L 39.954275 104.43521 
L 41.377485 104.079137 
L 43.156498 103.345015 
L 46.358721 101.969729 
L 47.781931 101.655903 
L 48.849338 101.641423 
L 49.916746 101.856159 
L 50.984153 102.323947 
L 52.051561 103.055972 
L 53.118968 104.049986 
L 54.542178 105.753726 
L 55.965388 107.82096 
L 58.100204 111.359349 
L 61.302426 116.693954 
L 62.725636 118.681001 
L 63.793044 119.892369 
L 64.860451 120.81072 
L 65.927859 121.398534 
L 66.639464 121.593606 
L 67.351069 121.625703 
L 68.062674 121.493055 
L 68.774279 121.196559 
L 69.841686 120.453128 
L 70.909094 119.372565 
L 71.976502 117.990005 
L 73.399712 115.757576 
L 75.534527 111.853957 
L 79.092552 105.174631 
L 80.515762 102.896469 
L 81.938972 101.042599 
L 83.00638 99.98914 
L 84.073787 99.255706 
L 85.141195 98.857296 
L 86.208602 98.796454 
L 87.27601 99.063375 
L 88.343417 99.636547 
L 89.410825 100.483771 
L 90.834035 101.966782 
L 92.613047 104.217947 
L 96.882678 109.873967 
L 98.305888 111.352128 
L 99.373295 112.198795 
L 100.440703 112.77505 
L 101.50811 113.047838 
L 102.219715 113.04856 
L 102.93132 112.898043 
L 103.998728 112.381587 
L 105.066135 111.512944 
L 106.133543 110.296042 
L 107.20095 108.742754 
L 108.624161 106.182638 
L 110.047371 103.1227 
L 111.826383 98.718258 
L 114.317001 91.804481 
L 120.365644 74.563701 
L 122.500459 69.347617 
L 124.279471 65.634155 
L 125.702681 63.134535 
L 127.125891 61.073467 
L 128.549101 59.448996 
L 129.972311 58.240892 
L 131.039719 57.586489 
L 132.462929 57.010262 
L 133.886139 56.718841 
L 135.309349 56.647689 
L 137.444164 56.810518 
L 145.271819 57.725345 
L 152.032067 58.146782 
L 154.522685 58.591735 
L 157.369105 59.354518 
L 161.638735 60.779111 
L 167.687378 62.997061 
L 170.177995 64.165524 
L 172.312811 65.405878 
L 174.803428 67.124299 
L 179.073058 70.126006 
L 180.496268 70.837406 
L 181.563676 71.169529 
L 182.631083 71.278712 
L 183.698491 71.122448 
L 184.765899 70.663121 
L 185.833306 69.870055 
L 186.900714 68.72123 
L 187.968121 67.204655 
L 189.035529 65.319224 
L 190.458739 62.250753 
L 191.881949 58.600677 
L 193.660961 53.35559 
L 196.151579 45.161868 
L 200.777012 29.777922 
L 202.556024 24.66008 
L 203.979234 21.142682 
L 205.402444 18.235952 
L 206.469852 16.495021 
L 207.537259 15.148761 
L 208.604667 14.203779 
L 209.316272 13.795943 
L 210.027877 13.562808 
L 210.739482 13.5 
L 211.451087 13.601648 
L 212.518495 14.046393 
L 213.585902 14.815454 
L 214.65331 15.874854 
L 215.364915 16.72407 
L 215.364915 16.72407 
" clip-path="url(#pd531e44f31)" style="fill: none; stroke: #000000; stroke-opacity: 0.5; stroke-width: 1.5; stroke-linecap: square"/>
   </g>
   <g id="line2d_13">
    <path d="M 37.81946 54.1544 
L 39.24267 53.439798 
L 40.310078 53.117165 
L 41.377485 53.041537 
L 42.444893 53.26309 
L 43.5123 53.822204 
L 44.579708 54.747206 
L 45.647116 56.052403 
L 46.714523 57.736751 
L 47.781931 59.783051 
L 49.205141 63.014401 
L 50.984153 67.682148 
L 56.321191 82.333932 
L 57.744401 85.365127 
L 58.811809 87.144172 
L 59.879216 88.421668 
L 60.590821 88.96729 
L 61.302426 89.253694 
L 62.014031 89.272613 
L 62.725636 89.019543 
L 63.437241 88.493844 
L 64.148846 87.698747 
L 64.860451 86.641305 
L 65.927859 84.587742 
L 66.995266 82.019746 
L 68.418476 77.912239 
L 70.197489 71.954789 
L 76.601934 49.390395 
L 78.025144 45.371005 
L 79.448354 42.005033 
L 80.515762 39.939959 
L 81.583169 38.272538 
L 82.650577 36.990794 
L 83.717985 36.070306 
L 84.785392 35.476373 
L 85.8528 35.16657 
L 86.920207 35.093494 
L 88.343417 35.278566 
L 90.12243 35.803331 
L 96.526875 38.011248 
L 102.575518 39.637711 
L 103.998728 40.292542 
L 105.421938 41.176974 
L 106.845148 42.342502 
L 108.268358 43.82961 
L 109.691568 45.666039 
L 111.114778 47.866316 
L 112.537988 50.432205 
L 114.317001 54.137715 
L 116.096013 58.357344 
L 118.230828 64.01282 
L 120.721446 71.256177 
L 124.635274 83.461048 
L 129.972311 100.037334 
L 132.818731 108.086507 
L 134.953547 113.532546 
L 137.088362 118.384572 
L 138.867374 121.938184 
L 140.646387 125.026423 
L 142.425399 127.633769 
L 143.848609 129.361282 
L 145.271819 130.756573 
L 146.69503 131.802571 
L 147.762437 132.345147 
L 148.829845 132.66896 
L 149.897252 132.763029 
L 150.96466 132.616278 
L 152.032067 132.218368 
L 153.099475 131.56048 
L 154.166882 130.636223 
L 155.23429 129.442505 
L 156.6575 127.434023 
L 158.08071 124.964031 
L 159.50392 122.06389 
L 161.282933 117.907409 
L 163.417748 112.306896 
L 166.975773 102.164911 
L 171.245403 90.118726 
L 173.736021 83.703784 
L 176.226638 77.893081 
L 178.717256 72.680738 
L 181.207873 68.022139 
L 183.342689 64.462923 
L 185.477504 61.358268 
L 187.256516 59.203937 
L 188.679726 57.836299 
L 189.747134 57.058512 
L 190.814541 56.523711 
L 191.881949 56.258727 
L 192.949356 56.288049 
L 194.016764 56.632223 
L 195.084171 57.306217 
L 196.151579 58.318014 
L 197.218987 59.667395 
L 198.286394 61.345138 
L 199.709604 64.059272 
L 201.132814 67.252708 
L 202.911827 71.767871 
L 206.825654 82.578578 
L 209.316272 89.038939 
L 211.095285 93.004082 
L 212.518495 95.651593 
L 213.941705 97.775732 
L 215.009112 99.013373 
L 215.364915 99.358598 
L 215.364915 99.358598 
" clip-path="url(#pd531e44f31)" style="fill: none; stroke: #000000; stroke-opacity: 0.5; stroke-width: 1.5; stroke-linecap: square"/>
   </g>
   <g id="line2d_14">
    <path d="M 37.81946 101.941404 
L 39.24267 102.942603 
L 40.66588 103.633462 
L 41.733288 103.937196 
L 42.800695 104.053315 
L 43.868103 103.982584 
L 44.935511 103.729958 
L 46.358721 103.127162 
L 47.781931 102.253545 
L 49.560943 100.858165 
L 52.407363 98.239313 
L 54.897981 96.01101 
L 56.676993 94.731757 
L 58.100204 94.018751 
L 59.167611 93.709308 
L 60.235019 93.616564 
L 61.302426 93.754086 
L 62.369834 94.127619 
L 63.437241 94.734693 
L 64.504649 95.564653 
L 65.927859 96.985047 
L 67.706871 99.173213 
L 70.197489 102.713908 
L 73.755514 107.817439 
L 75.534527 110.002276 
L 76.957737 111.441431 
L 78.380947 112.545655 
L 79.448354 113.128143 
L 80.515762 113.484524 
L 81.583169 113.604042 
L 82.650577 113.478298 
L 83.717985 113.100754 
L 84.785392 112.46631 
L 85.8528 111.571146 
L 86.920207 110.412667 
L 88.343417 108.456603 
L 89.766627 106.032702 
L 91.189837 103.150687 
L 92.96885 98.93463 
L 94.747862 94.097864 
L 96.882678 87.61101 
L 99.729098 78.180404 
L 105.066135 60.289751 
L 107.20095 53.878534 
L 108.979963 49.13597 
L 110.758976 45.049943 
L 112.182186 42.303053 
L 113.605396 40.045341 
L 115.028606 38.287342 
L 116.096013 37.296919 
L 117.163421 36.583825 
L 118.230828 36.141618 
L 119.298236 35.961617 
L 120.365644 36.033275 
L 121.433051 36.344628 
L 122.500459 36.882687 
L 123.567866 37.633884 
L 124.991076 38.943191 
L 126.414286 40.574661 
L 128.193299 43.020524 
L 129.972311 45.867506 
L 132.107126 49.747286 
L 134.241942 54.069537 
L 136.732559 59.601456 
L 139.578979 66.493417 
L 142.781202 74.895028 
L 146.339227 84.939313 
L 151.320462 99.831599 
L 154.878487 110.264692 
L 157.013302 115.91849 
L 158.792315 119.990436 
L 160.215525 122.679319 
L 161.282933 124.29589 
L 162.35034 125.525082 
L 163.417748 126.332667 
L 164.129353 126.623125 
L 164.840958 126.708073 
L 165.552563 126.583501 
L 166.264168 126.247449 
L 166.975773 125.700093 
L 168.04318 124.488795 
L 169.110588 122.82581 
L 170.177995 120.740209 
L 171.601206 117.372301 
L 173.380218 112.393599 
L 175.870836 104.516977 
L 179.784663 92.001594 
L 181.563676 87.037345 
L 182.986886 83.648034 
L 184.410096 80.883768 
L 185.477504 79.262551 
L 186.544911 78.048367 
L 187.612319 77.247983 
L 188.323924 76.943157 
L 189.035529 76.817811 
L 189.747134 76.866921 
L 190.458739 77.083786 
L 191.526146 77.705129 
L 192.593554 78.651146 
L 193.660961 79.881773 
L 195.084171 81.886729 
L 196.863184 84.81165 
L 202.556024 94.576138 
L 203.979234 96.502408 
L 205.402444 98.02472 
L 206.469852 98.856482 
L 207.537259 99.394526 
L 208.604667 99.619618 
L 209.672075 99.518105 
L 210.739482 99.081914 
L 211.80689 98.308403 
L 212.874297 97.200253 
L 213.941705 95.765269 
L 215.364915 93.366123 
L 215.364915 93.366123 
" clip-path="url(#pd531e44f31)" style="fill: none; stroke: #000000; stroke-opacity: 0.5; stroke-width: 1.5; stroke-linecap: square"/>
   </g>
   <g id="line2d_15">
    <path d="M 37.81946 77.205012 
L 39.24267 74.425943 
L 41.021683 70.444178 
L 43.868103 63.41218 
L 47.426128 54.655383 
L 49.560943 49.973124 
L 51.339956 46.601421 
L 52.763166 44.314152 
L 54.186376 42.424012 
L 55.609586 40.95064 
L 56.676993 40.126624 
L 57.744401 39.546914 
L 58.811809 39.212941 
L 59.879216 39.124749 
L 60.946624 39.280927 
L 62.014031 39.678396 
L 63.081439 40.312037 
L 64.148846 41.174301 
L 65.572056 42.660982 
L 66.995266 44.500621 
L 68.774279 47.224664 
L 70.909094 50.957439 
L 77.669342 63.234694 
L 79.448354 65.884828 
L 81.227367 68.122016 
L 83.00638 69.955285 
L 84.785392 71.462213 
L 90.12243 75.652403 
L 91.54564 77.189398 
L 92.96885 79.100193 
L 94.39206 81.459725 
L 95.81527 84.314068 
L 97.23848 87.675437 
L 99.017493 92.550267 
L 101.152308 99.21376 
L 104.710333 111.330376 
L 107.556753 120.718333 
L 109.335766 125.93677 
L 110.758976 129.585874 
L 112.182186 132.690553 
L 113.605396 135.209547 
L 114.672803 136.705278 
L 115.740211 137.866986 
L 116.807618 138.705123 
L 117.875026 139.235687 
L 118.942433 139.47888 
L 120.009841 139.457676 
L 121.077249 139.196477 
L 122.144656 138.719877 
L 123.567866 137.790296 
L 124.991076 136.57189 
L 126.770089 134.711256 
L 128.904904 132.079481 
L 131.395521 128.592846 
L 134.953547 123.15495 
L 138.867374 117.251791 
L 141.002189 114.454679 
L 142.781202 112.535088 
L 144.204412 111.337612 
L 145.627622 110.476352 
L 146.69503 110.059297 
L 147.762437 109.835487 
L 148.829845 109.793727 
L 150.253055 109.986808 
L 152.032067 110.529691 
L 156.6575 112.190638 
L 157.724907 112.329987 
L 158.792315 112.280734 
L 159.859723 112.004744 
L 160.92713 111.47119 
L 161.994538 110.657894 
L 163.061945 109.55237 
L 164.129353 108.152347 
L 165.552563 105.843019 
L 166.975773 103.072281 
L 168.754785 99.075828 
L 171.245403 92.842997 
L 175.515033 82.105375 
L 177.294046 78.203348 
L 178.717256 75.493845 
L 180.140466 73.207366 
L 181.563676 71.369473 
L 182.631083 70.286373 
L 183.698491 69.44699 
L 184.765899 68.834877 
L 185.833306 68.42693 
L 187.256516 68.149881 
L 188.679726 68.102211 
L 191.170344 68.289543 
L 193.305159 68.386494 
L 194.728369 68.254297 
L 196.151579 67.87372 
L 197.218987 67.389882 
L 198.286394 66.717707 
L 199.709604 65.51666 
L 201.132814 63.974654 
L 202.911827 61.622892 
L 205.046642 58.351855 
L 209.316272 51.624885 
L 210.739482 49.744976 
L 212.162692 48.227085 
L 213.2301 47.379555 
L 214.297507 46.814203 
L 215.364915 46.552255 
L 215.364915 46.552255 
" clip-path="url(#pd531e44f31)" style="fill: none; stroke: #000000; stroke-opacity: 0.5; stroke-width: 1.5; stroke-linecap: square"/>
   </g>
   <g id="line2d_16">
    <path d="M 37.81946 60.272079 
L 38.886868 60.825249 
L 39.954275 61.637374 
L 41.377485 63.054742 
L 43.156498 65.228124 
L 45.647116 68.695019 
L 50.272548 75.193922 
L 52.763166 78.289661 
L 55.253783 80.998522 
L 57.388599 83.013867 
L 59.523414 84.745919 
L 61.658229 86.169925 
L 63.437241 87.084392 
L 64.860451 87.61036 
L 66.283661 87.932967 
L 67.706871 88.037851 
L 69.130081 87.91848 
L 70.553292 87.578434 
L 71.976502 87.032594 
L 73.755514 86.101506 
L 75.890329 84.716361 
L 82.650577 80.092178 
L 84.785392 79.035178 
L 86.564405 78.395596 
L 88.343417 77.972093 
L 90.478232 77.704809 
L 93.680455 77.590302 
L 96.882678 77.438513 
L 99.017493 77.113195 
L 100.796505 76.637129 
L 102.93132 75.809945 
L 105.421938 74.578651 
L 108.979963 72.797096 
L 110.758976 72.169581 
L 112.182186 71.908559 
L 113.605396 71.914944 
L 114.672803 72.112491 
L 116.096013 72.635786 
L 117.519223 73.432923 
L 119.298236 74.726799 
L 123.567866 78.048778 
L 124.991076 78.772253 
L 126.058484 79.050009 
L 127.125891 79.046549 
L 128.193299 78.722613 
L 129.260706 78.050117 
L 130.328114 77.013811 
L 131.395521 75.612316 
L 132.462929 73.858363 
L 133.886139 71.018902 
L 135.665152 66.805897 
L 138.155769 60.136672 
L 141.713794 50.533885 
L 143.492807 46.309871 
L 144.916017 43.40146 
L 146.339227 40.984398 
L 147.406635 39.516013 
L 148.474042 38.348054 
L 149.54145 37.476313 
L 150.608857 36.889576 
L 151.676265 36.570805 
L 152.743672 36.498397 
L 153.81108 36.647285 
L 154.878487 36.989962 
L 156.301697 37.697722 
L 158.08071 38.884348 
L 160.92713 41.144283 
L 163.77355 43.347699 
L 165.552563 44.460087 
L 166.975773 45.113645 
L 168.398983 45.511321 
L 169.822193 45.626473 
L 171.245403 45.45011 
L 172.668613 44.992795 
L 174.091823 44.285269 
L 175.870836 43.126632 
L 181.919478 38.816221 
L 183.342689 38.189423 
L 184.410096 37.910984 
L 185.477504 37.81941 
L 186.544911 37.928303 
L 187.612319 38.244751 
L 188.679726 38.769381 
L 189.747134 39.496676 
L 191.170344 40.762016 
L 192.593554 42.329415 
L 194.372566 44.639664 
L 196.507382 47.790656 
L 199.709604 52.955252 
L 205.046642 62.032273 
L 207.893062 67.231058 
L 210.38368 72.267007 
L 212.518495 77.118367 
L 214.65331 82.557604 
L 215.364915 84.504348 
L 215.364915 84.504348 
" clip-path="url(#pd531e44f31)" style="fill: none; stroke: #000000; stroke-opacity: 0.5; stroke-width: 1.5; stroke-linecap: square"/>
   </g>
   <g id="line2d_17">
    <path d="M 37.81946 79.17055 
L 215.364915 79.17055 
L 215.364915 79.17055 
" clip-path="url(#pd531e44f31)" style="fill: none; stroke: #1f77b4; stroke-width: 2; stroke-linecap: square"/>
   </g>
   <g id="patch_3">
    <path d="M 28.942188 145.8 
L 28.942188 7.2 
" style="fill: none; stroke: #000000; stroke-width: 0.8; stroke-linejoin: miter; stroke-linecap: square"/>
   </g>
   <g id="patch_4">
    <path d="M 224.242188 145.8 
L 224.242188 7.2 
" style="fill: none; stroke: #000000; stroke-width: 0.8; stroke-linejoin: miter; stroke-linecap: square"/>
   </g>
   <g id="patch_5">
    <path d="M 28.942187 145.8 
L 224.242188 145.8 
" style="fill: none; stroke: #000000; stroke-width: 0.8; stroke-linejoin: miter; stroke-linecap: square"/>
   </g>
   <g id="patch_6">
    <path d="M 28.942187 7.2 
L 224.242188 7.2 
" style="fill: none; stroke: #000000; stroke-width: 0.8; stroke-linejoin: miter; stroke-linecap: square"/>
   </g>
  </g>
 </g>
 <defs>
  <clipPath id="pd531e44f31">
   <rect x="28.942188" y="7.2" width="195.3" height="138.6"/>
  </clipPath>
 </defs>
</svg>
