<?xml version="1.0" encoding="utf-8" standalone="no"?>
<!DOCTYPE svg PUBLIC "-//W3C//DTD SVG 1.1//EN"
  "http://www.w3.org/Graphics/SVG/1.1/DTD/svg11.dtd">
<svg xmlns:xlink="http://www.w3.org/1999/xlink" width="231.442188pt" height="169.678125pt" viewBox="0 0 231.442188 169.678125" xmlns="http://www.w3.org/2000/svg" version="1.1">
 <metadata>
  <rdf:RDF xmlns:dc="http://purl.org/dc/elements/1.1/" xmlns:cc="http://creativecommons.org/ns#" xmlns:rdf="http://www.w3.org/1999/02/22-rdf-syntax-ns#">
   <cc:Work>
    <dc:type rdf:resource="http://purl.org/dc/dcmitype/StillImage"/>
    <dc:date>2025-07-11T19:44:23.648207</dc:date>
    <dc:format>image/svg+xml</dc:format>
    <dc:creator>
     <cc:Agent>
      <dc:title>Matplotlib v3.6.1, https://matplotlib.org/</dc:title>
     </cc:Agent>
    </dc:creator>
   </cc:Work>
  </rdf:RDF>
 </metadata>
 <defs>
  <style type="text/css">*{stroke-linejoin: round; stroke-linecap: butt}</style>
 </defs>
 <g id="figure_1">
  <g id="patch_1">
   <path d="M 0 169.678125 
L 231.442188 169.678125 
L 231.442188 0 
L 0 0 
z
" style="fill: #ffffff"/>
  </g>
  <g id="axes_1">
   <g id="patch_2">
    <path d="M 28.942188 145.8 
L 224.242188 145.8 
L 224.242188 7.2 
L 28.942188 7.2 
z
" style="fill: #ffffff"/>
   </g>
   <g id="PolyCollection_1">
    <path d="M 37.81946 23.675135 
L 37.81946 139.5 
L 38.175263 139.5 
L 38.531065 139.5 
L 38.886868 139.5 
L 39.24267 139.5 
L 39.598473 139.5 
L 39.954275 139.5 
L 40.310078 139.5 
L 40.66588 139.5 
L 41.021683 139.5 
L 41.377485 139.5 
L 41.733288 139.5 
L 42.08909 139.5 
L 42.444893 139.5 
L 42.800695 139.5 
L 43.156498 139.5 
L 43.5123 139.5 
L 43.868103 139.5 
L 44.223905 139.5 
L 44.579708 139.5 
L 44.935511 139.5 
L 45.291313 139.5 
L 45.647116 139.5 
L 46.002918 139.5 
L 46.358721 139.5 
L 46.714523 139.5 
L 47.070326 139.5 
L 47.426128 139.5 
L 47.781931 139.5 
L 48.137733 139.5 
L 48.493536 139.5 
L 48.849338 139.5 
L 49.205141 139.5 
L 49.560943 139.5 
L 49.916746 139.5 
L 50.272548 139.5 
L 50.628351 139.5 
L 50.984153 139.5 
L 51.339956 139.5 
L 51.695758 139.5 
L 52.051561 139.5 
L 52.407363 139.5 
L 52.763166 139.5 
L 53.118968 139.5 
L 53.474771 139.5 
L 53.830573 139.5 
L 54.186376 139.5 
L 54.542178 139.5 
L 54.897981 139.5 
L 55.253783 139.5 
L 55.609586 139.5 
L 55.965388 139.5 
L 56.321191 139.5 
L 56.676993 139.5 
L 57.032796 139.5 
L 57.388599 139.5 
L 57.744401 139.5 
L 58.100204 139.5 
L 58.456006 139.5 
L 58.811809 139.5 
L 59.167611 139.5 
L 59.523414 139.5 
L 59.879216 139.5 
L 60.235019 139.5 
L 60.590821 139.5 
L 60.946624 139.5 
L 61.302426 139.5 
L 61.658229 139.5 
L 62.014031 139.5 
L 62.369834 139.5 
L 62.725636 139.5 
L 63.081439 139.5 
L 63.437241 139.5 
L 63.793044 139.5 
L 64.148846 139.5 
L 64.504649 139.5 
L 64.860451 139.5 
L 65.216254 139.5 
L 65.572056 139.5 
L 65.927859 139.5 
L 66.283661 139.5 
L 66.639464 139.5 
L 66.995266 139.5 
L 67.351069 139.5 
L 67.706871 139.5 
L 68.062674 139.5 
L 68.418476 139.5 
L 68.774279 139.5 
L 69.130081 139.5 
L 69.485884 139.5 
L 69.841686 139.5 
L 70.197489 139.5 
L 70.553292 139.5 
L 70.909094 139.5 
L 71.264897 139.5 
L 71.620699 139.5 
L 71.976502 139.5 
L 72.332304 139.5 
L 72.688107 139.5 
L 73.043909 139.5 
L 73.399712 139.5 
L 73.755514 139.5 
L 74.111317 139.5 
L 74.467119 139.5 
L 74.822922 139.5 
L 75.178724 139.5 
L 75.534527 139.5 
L 75.890329 139.5 
L 76.246132 139.5 
L 76.601934 139.5 
L 76.957737 139.5 
L 77.313539 139.5 
L 77.669342 139.5 
L 78.025144 139.5 
L 78.380947 139.5 
L 78.736749 139.5 
L 79.092552 139.5 
L 79.448354 139.5 
L 79.804157 139.5 
L 80.159959 139.5 
L 80.515762 139.5 
L 80.871564 139.5 
L 81.227367 139.5 
L 81.583169 139.5 
L 81.938972 139.5 
L 82.294774 139.5 
L 82.650577 139.5 
L 83.00638 139.5 
L 83.362182 139.5 
L 83.717985 139.5 
L 84.073787 139.5 
L 84.42959 139.5 
L 84.785392 139.5 
L 85.141195 139.5 
L 85.496997 139.5 
L 85.8528 139.5 
L 86.208602 139.5 
L 86.564405 139.5 
L 86.920207 139.5 
L 87.27601 139.5 
L 87.631812 139.5 
L 87.987615 139.5 
L 88.343417 139.5 
L 88.69922 139.5 
L 89.055022 139.5 
L 89.410825 139.5 
L 89.766627 139.5 
L 90.12243 139.5 
L 90.478232 139.5 
L 90.834035 139.5 
L 91.189837 139.5 
L 91.54564 139.5 
L 91.901442 139.5 
L 92.257245 139.5 
L 92.613047 139.5 
L 92.96885 139.5 
L 93.324652 139.5 
L 93.680455 139.5 
L 94.036257 139.5 
L 94.39206 139.5 
L 94.747862 139.5 
L 95.103665 139.5 
L 95.459468 139.5 
L 95.81527 139.5 
L 96.171073 139.5 
L 96.526875 139.5 
L 96.882678 139.5 
L 97.23848 139.5 
L 97.594283 139.5 
L 97.950085 139.5 
L 98.305888 139.5 
L 98.66169 139.5 
L 99.017493 139.5 
L 99.373295 139.5 
L 99.729098 139.5 
L 100.0849 139.5 
L 100.440703 139.5 
L 100.796505 139.5 
L 101.152308 139.5 
L 101.50811 139.5 
L 101.863913 139.5 
L 102.219715 139.5 
L 102.575518 139.5 
L 102.93132 139.5 
L 103.287123 139.5 
L 103.642925 139.5 
L 103.998728 139.5 
L 104.35453 139.5 
L 104.710333 139.5 
L 105.066135 139.5 
L 105.421938 139.5 
L 105.77774 139.5 
L 106.133543 139.5 
L 106.489345 139.5 
L 106.845148 139.5 
L 107.20095 139.5 
L 107.556753 139.5 
L 107.912556 139.5 
L 108.268358 139.5 
L 108.624161 139.5 
L 108.979963 139.5 
L 109.335766 139.5 
L 109.691568 139.5 
L 110.047371 139.5 
L 110.403173 139.5 
L 110.758976 139.5 
L 111.114778 139.5 
L 111.470581 139.5 
L 111.826383 139.5 
L 112.182186 139.5 
L 112.537988 139.5 
L 112.893791 139.5 
L 113.249593 139.5 
L 113.605396 139.5 
L 113.961198 139.5 
L 114.317001 139.5 
L 114.672803 139.5 
L 115.028606 139.5 
L 115.384408 139.5 
L 115.740211 139.5 
L 116.096013 139.5 
L 116.451816 139.5 
L 116.807618 139.5 
L 117.163421 139.5 
L 117.519223 139.5 
L 117.875026 139.5 
L 118.230828 139.5 
L 118.586631 139.5 
L 118.942433 139.5 
L 119.298236 139.5 
L 119.654038 139.5 
L 120.009841 139.5 
L 120.365644 139.5 
L 120.721446 139.5 
L 121.077249 139.5 
L 121.433051 139.5 
L 121.788854 139.5 
L 122.144656 139.5 
L 122.500459 139.5 
L 122.856261 139.5 
L 123.212064 139.5 
L 123.567866 139.5 
L 123.923669 139.5 
L 124.279471 139.5 
L 124.635274 139.5 
L 124.991076 139.5 
L 125.346879 139.5 
L 125.702681 139.5 
L 126.058484 139.5 
L 126.414286 139.5 
L 126.770089 139.5 
L 127.125891 139.5 
L 127.481694 139.5 
L 127.837496 139.5 
L 128.193299 139.5 
L 128.549101 139.5 
L 128.904904 139.5 
L 129.260706 139.5 
L 129.616509 139.5 
L 129.972311 139.5 
L 130.328114 139.5 
L 130.683916 139.5 
L 131.039719 139.5 
L 131.395521 139.5 
L 131.751324 139.5 
L 132.107126 139.5 
L 132.462929 139.5 
L 132.818731 139.5 
L 133.174534 139.5 
L 133.530337 139.5 
L 133.886139 139.5 
L 134.241942 139.5 
L 134.597744 139.5 
L 134.953547 139.5 
L 135.309349 139.5 
L 135.665152 139.5 
L 136.020954 139.5 
L 136.376757 139.5 
L 136.732559 139.5 
L 137.088362 139.5 
L 137.444164 139.5 
L 137.799967 139.5 
L 138.155769 139.5 
L 138.511572 139.5 
L 138.867374 139.5 
L 139.223177 139.5 
L 139.578979 139.5 
L 139.934782 139.5 
L 140.290584 139.5 
L 140.646387 139.5 
L 141.002189 139.5 
L 141.357992 139.5 
L 141.713794 139.5 
L 142.069597 139.5 
L 142.425399 139.5 
L 142.781202 139.5 
L 143.137004 139.5 
L 143.492807 139.5 
L 143.848609 139.5 
L 144.204412 139.5 
L 144.560214 139.5 
L 144.916017 139.5 
L 145.271819 139.5 
L 145.627622 139.5 
L 145.983425 139.5 
L 146.339227 139.5 
L 146.69503 139.5 
L 147.050832 139.5 
L 147.406635 139.5 
L 147.762437 139.5 
L 148.11824 139.5 
L 148.474042 139.5 
L 148.829845 139.5 
L 149.185647 139.5 
L 149.54145 139.5 
L 149.897252 139.5 
L 150.253055 139.5 
L 150.608857 139.5 
L 150.96466 139.5 
L 151.320462 139.5 
L 151.676265 139.5 
L 152.032067 139.5 
L 152.38787 139.5 
L 152.743672 139.5 
L 153.099475 139.5 
L 153.455277 139.5 
L 153.81108 139.5 
L 154.166882 139.5 
L 154.522685 139.5 
L 154.878487 139.5 
L 155.23429 139.5 
L 155.590092 139.5 
L 155.945895 139.5 
L 156.301697 139.5 
L 156.6575 139.5 
L 157.013302 139.5 
L 157.369105 139.5 
L 157.724907 139.5 
L 158.08071 139.5 
L 158.436513 139.5 
L 158.792315 139.5 
L 159.148118 139.5 
L 159.50392 139.5 
L 159.859723 139.5 
L 160.215525 139.5 
L 160.571328 139.5 
L 160.92713 139.5 
L 161.282933 139.5 
L 161.638735 139.5 
L 161.994538 139.5 
L 162.35034 139.5 
L 162.706143 139.5 
L 163.061945 139.5 
L 163.417748 139.5 
L 163.77355 139.5 
L 164.129353 139.5 
L 164.485155 139.5 
L 164.840958 139.5 
L 165.19676 139.5 
L 165.552563 139.5 
L 165.908365 139.5 
L 166.264168 139.5 
L 166.61997 139.5 
L 166.975773 139.5 
L 167.331575 139.5 
L 167.687378 139.5 
L 168.04318 139.5 
L 168.398983 139.5 
L 168.754785 139.5 
L 169.110588 139.5 
L 169.46639 139.5 
L 169.822193 139.5 
L 170.177995 139.5 
L 170.533798 139.5 
L 170.889601 139.5 
L 171.245403 139.5 
L 171.601206 139.5 
L 171.957008 139.5 
L 172.312811 139.5 
L 172.668613 139.5 
L 173.024416 139.5 
L 173.380218 139.5 
L 173.736021 139.5 
L 174.091823 139.5 
L 174.447626 139.5 
L 174.803428 139.5 
L 175.159231 139.5 
L 175.515033 139.5 
L 175.870836 139.5 
L 176.226638 139.5 
L 176.582441 139.5 
L 176.938243 139.5 
L 177.294046 139.5 
L 177.649848 139.5 
L 178.005651 139.5 
L 178.361453 139.5 
L 178.717256 139.5 
L 179.073058 139.5 
L 179.428861 139.5 
L 179.784663 139.5 
L 180.140466 139.5 
L 180.496268 139.5 
L 180.852071 139.5 
L 181.207873 139.5 
L 181.563676 139.5 
L 181.919478 139.5 
L 182.275281 139.5 
L 182.631083 139.5 
L 182.986886 139.5 
L 183.342689 139.5 
L 183.698491 139.5 
L 184.054294 139.5 
L 184.410096 139.5 
L 184.765899 139.5 
L 185.121701 139.5 
L 185.477504 139.5 
L 185.833306 139.5 
L 186.189109 139.5 
L 186.544911 139.5 
L 186.900714 139.5 
L 187.256516 139.5 
L 187.612319 139.5 
L 187.968121 139.5 
L 188.323924 139.5 
L 188.679726 139.5 
L 189.035529 139.5 
L 189.391331 139.5 
L 189.747134 139.5 
L 190.102936 139.5 
L 190.458739 139.5 
L 190.814541 139.5 
L 191.170344 139.5 
L 191.526146 139.5 
L 191.881949 139.5 
L 192.237751 139.5 
L 192.593554 139.5 
L 192.949356 139.5 
L 193.305159 139.5 
L 193.660961 139.5 
L 194.016764 139.5 
L 194.372566 139.5 
L 194.728369 139.5 
L 195.084171 139.5 
L 195.439974 139.5 
L 195.795776 139.5 
L 196.151579 139.5 
L 196.507382 139.5 
L 196.863184 139.5 
L 197.218987 139.5 
L 197.574789 139.5 
L 197.930592 139.5 
L 198.286394 139.5 
L 198.642197 139.5 
L 198.997999 139.5 
L 199.353802 139.5 
L 199.709604 139.5 
L 200.065407 139.5 
L 200.421209 139.5 
L 200.777012 139.5 
L 201.132814 139.5 
L 201.488617 139.5 
L 201.844419 139.5 
L 202.200222 139.5 
L 202.556024 139.5 
L 202.911827 139.5 
L 203.267629 139.5 
L 203.623432 139.5 
L 203.979234 139.5 
L 204.335037 139.5 
L 204.690839 139.5 
L 205.046642 139.5 
L 205.402444 139.5 
L 205.758247 139.5 
L 206.114049 139.5 
L 206.469852 139.5 
L 206.825654 139.5 
L 207.181457 139.5 
L 207.537259 139.5 
L 207.893062 139.5 
L 208.248864 139.5 
L 208.604667 139.5 
L 208.96047 139.5 
L 209.316272 139.5 
L 209.672075 139.5 
L 210.027877 139.5 
L 210.38368 139.5 
L 210.739482 139.5 
L 211.095285 139.5 
L 211.451087 139.5 
L 211.80689 139.5 
L 212.162692 139.5 
L 212.518495 139.5 
L 212.874297 139.5 
L 213.2301 139.5 
L 213.585902 139.5 
L 213.941705 139.5 
L 214.297507 139.5 
L 214.65331 139.5 
L 215.009112 139.5 
L 215.364915 139.5 
L 215.364915 23.675135 
L 215.364915 23.675135 
L 215.009112 23.675135 
L 214.65331 23.675135 
L 214.297507 23.675135 
L 213.941705 23.675135 
L 213.585902 23.675135 
L 213.2301 23.675135 
L 212.874297 23.675135 
L 212.518495 23.675135 
L 212.162692 23.675135 
L 211.80689 23.675135 
L 211.451087 23.675135 
L 211.095285 23.675135 
L 210.739482 23.675135 
L 210.38368 23.675135 
L 210.027877 23.675135 
L 209.672075 23.675135 
L 209.316272 23.675135 
L 208.96047 23.675135 
L 208.604667 23.675135 
L 208.248864 23.675135 
L 207.893062 23.675135 
L 207.537259 23.675135 
L 207.181457 23.675135 
L 206.825654 23.675135 
L 206.469852 23.675135 
L 206.114049 23.675135 
L 205.758247 23.675135 
L 205.402444 23.675135 
L 205.046642 23.675135 
L 204.690839 23.675135 
L 204.335037 23.675135 
L 203.979234 23.675135 
L 203.623432 23.675135 
L 203.267629 23.675135 
L 202.911827 23.675135 
L 202.556024 23.675135 
L 202.200222 23.675135 
L 201.844419 23.675135 
L 201.488617 23.675135 
L 201.132814 23.675135 
L 200.777012 23.675135 
L 200.421209 23.675135 
L 200.065407 23.675135 
L 199.709604 23.675135 
L 199.353802 23.675135 
L 198.997999 23.675135 
L 198.642197 23.675135 
L 198.286394 23.675135 
L 197.930592 23.675135 
L 197.574789 23.675135 
L 197.218987 23.675135 
L 196.863184 23.675135 
L 196.507382 23.675135 
L 196.151579 23.675135 
L 195.795776 23.675135 
L 195.439974 23.675135 
L 195.084171 23.675135 
L 194.728369 23.675135 
L 194.372566 23.675135 
L 194.016764 23.675135 
L 193.660961 23.675135 
L 193.305159 23.675135 
L 192.949356 23.675135 
L 192.593554 23.675135 
L 192.237751 23.675135 
L 191.881949 23.675135 
L 191.526146 23.675135 
L 191.170344 23.675135 
L 190.814541 23.675135 
L 190.458739 23.675135 
L 190.102936 23.675135 
L 189.747134 23.675135 
L 189.391331 23.675135 
L 189.035529 23.675135 
L 188.679726 23.675135 
L 188.323924 23.675135 
L 187.968121 23.675135 
L 187.612319 23.675135 
L 187.256516 23.675135 
L 186.900714 23.675135 
L 186.544911 23.675135 
L 186.189109 23.675135 
L 185.833306 23.675135 
L 185.477504 23.675135 
L 185.121701 23.675135 
L 184.765899 23.675135 
L 184.410096 23.675135 
L 184.054294 23.675135 
L 183.698491 23.675135 
L 183.342689 23.675135 
L 182.986886 23.675135 
L 182.631083 23.675135 
L 182.275281 23.675135 
L 181.919478 23.675135 
L 181.563676 23.675135 
L 181.207873 23.675135 
L 180.852071 23.675135 
L 180.496268 23.675135 
L 180.140466 23.675135 
L 179.784663 23.675135 
L 179.428861 23.675135 
L 179.073058 23.675135 
L 178.717256 23.675135 
L 178.361453 23.675135 
L 178.005651 23.675135 
L 177.649848 23.675135 
L 177.294046 23.675135 
L 176.938243 23.675135 
L 176.582441 23.675135 
L 176.226638 23.675135 
L 175.870836 23.675135 
L 175.515033 23.675135 
L 175.159231 23.675135 
L 174.803428 23.675135 
L 174.447626 23.675135 
L 174.091823 23.675135 
L 173.736021 23.675135 
L 173.380218 23.675135 
L 173.024416 23.675135 
L 172.668613 23.675135 
L 172.312811 23.675135 
L 171.957008 23.675135 
L 171.601206 23.675135 
L 171.245403 23.675135 
L 170.889601 23.675135 
L 170.533798 23.675135 
L 170.177995 23.675135 
L 169.822193 23.675135 
L 169.46639 23.675135 
L 169.110588 23.675135 
L 168.754785 23.675135 
L 168.398983 23.675135 
L 168.04318 23.675135 
L 167.687378 23.675135 
L 167.331575 23.675135 
L 166.975773 23.675135 
L 166.61997 23.675135 
L 166.264168 23.675135 
L 165.908365 23.675135 
L 165.552563 23.675135 
L 165.19676 23.675135 
L 164.840958 23.675135 
L 164.485155 23.675135 
L 164.129353 23.675135 
L 163.77355 23.675135 
L 163.417748 23.675135 
L 163.061945 23.675135 
L 162.706143 23.675135 
L 162.35034 23.675135 
L 161.994538 23.675135 
L 161.638735 23.675135 
L 161.282933 23.675135 
L 160.92713 23.675135 
L 160.571328 23.675135 
L 160.215525 23.675135 
L 159.859723 23.675135 
L 159.50392 23.675135 
L 159.148118 23.675135 
L 158.792315 23.675135 
L 158.436513 23.675135 
L 158.08071 23.675135 
L 157.724907 23.675135 
L 157.369105 23.675135 
L 157.013302 23.675135 
L 156.6575 23.675135 
L 156.301697 23.675135 
L 155.945895 23.675135 
L 155.590092 23.675135 
L 155.23429 23.675135 
L 154.878487 23.675135 
L 154.522685 23.675135 
L 154.166882 23.675135 
L 153.81108 23.675135 
L 153.455277 23.675135 
L 153.099475 23.675135 
L 152.743672 23.675135 
L 152.38787 23.675135 
L 152.032067 23.675135 
L 151.676265 23.675135 
L 151.320462 23.675135 
L 150.96466 23.675135 
L 150.608857 23.675135 
L 150.253055 23.675135 
L 149.897252 23.675135 
L 149.54145 23.675135 
L 149.185647 23.675135 
L 148.829845 23.675135 
L 148.474042 23.675135 
L 148.11824 23.675135 
L 147.762437 23.675135 
L 147.406635 23.675135 
L 147.050832 23.675135 
L 146.69503 23.675135 
L 146.339227 23.675135 
L 145.983425 23.675135 
L 145.627622 23.675135 
L 145.271819 23.675135 
L 144.916017 23.675135 
L 144.560214 23.675135 
L 144.204412 23.675135 
L 143.848609 23.675135 
L 143.492807 23.675135 
L 143.137004 23.675135 
L 142.781202 23.675135 
L 142.425399 23.675135 
L 142.069597 23.675135 
L 141.713794 23.675135 
L 141.357992 23.675135 
L 141.002189 23.675135 
L 140.646387 23.675135 
L 140.290584 23.675135 
L 139.934782 23.675135 
L 139.578979 23.675135 
L 139.223177 23.675135 
L 138.867374 23.675135 
L 138.511572 23.675135 
L 138.155769 23.675135 
L 137.799967 23.675135 
L 137.444164 23.675135 
L 137.088362 23.675135 
L 136.732559 23.675135 
L 136.376757 23.675135 
L 136.020954 23.675135 
L 135.665152 23.675135 
L 135.309349 23.675135 
L 134.953547 23.675135 
L 134.597744 23.675135 
L 134.241942 23.675135 
L 133.886139 23.675135 
L 133.530337 23.675135 
L 133.174534 23.675135 
L 132.818731 23.675135 
L 132.462929 23.675135 
L 132.107126 23.675135 
L 131.751324 23.675135 
L 131.395521 23.675135 
L 131.039719 23.675135 
L 130.683916 23.675135 
L 130.328114 23.675135 
L 129.972311 23.675135 
L 129.616509 23.675135 
L 129.260706 23.675135 
L 128.904904 23.675135 
L 128.549101 23.675135 
L 128.193299 23.675135 
L 127.837496 23.675135 
L 127.481694 23.675135 
L 127.125891 23.675135 
L 126.770089 23.675135 
L 126.414286 23.675135 
L 126.058484 23.675135 
L 125.702681 23.675135 
L 125.346879 23.675135 
L 124.991076 23.675135 
L 124.635274 23.675135 
L 124.279471 23.675135 
L 123.923669 23.675135 
L 123.567866 23.675135 
L 123.212064 23.675135 
L 122.856261 23.675135 
L 122.500459 23.675135 
L 122.144656 23.675135 
L 121.788854 23.675135 
L 121.433051 23.675135 
L 121.077249 23.675135 
L 120.721446 23.675135 
L 120.365644 23.675135 
L 120.009841 23.675135 
L 119.654038 23.675135 
L 119.298236 23.675135 
L 118.942433 23.675135 
L 118.586631 23.675135 
L 118.230828 23.675135 
L 117.875026 23.675135 
L 117.519223 23.675135 
L 117.163421 23.675135 
L 116.807618 23.675135 
L 116.451816 23.675135 
L 116.096013 23.675135 
L 115.740211 23.675135 
L 115.384408 23.675135 
L 115.028606 23.675135 
L 114.672803 23.675135 
L 114.317001 23.675135 
L 113.961198 23.675135 
L 113.605396 23.675135 
L 113.249593 23.675135 
L 112.893791 23.675135 
L 112.537988 23.675135 
L 112.182186 23.675135 
L 111.826383 23.675135 
L 111.470581 23.675135 
L 111.114778 23.675135 
L 110.758976 23.675135 
L 110.403173 23.675135 
L 110.047371 23.675135 
L 109.691568 23.675135 
L 109.335766 23.675135 
L 108.979963 23.675135 
L 108.624161 23.675135 
L 108.268358 23.675135 
L 107.912556 23.675135 
L 107.556753 23.675135 
L 107.20095 23.675135 
L 106.845148 23.675135 
L 106.489345 23.675135 
L 106.133543 23.675135 
L 105.77774 23.675135 
L 105.421938 23.675135 
L 105.066135 23.675135 
L 104.710333 23.675135 
L 104.35453 23.675135 
L 103.998728 23.675135 
L 103.642925 23.675135 
L 103.287123 23.675135 
L 102.93132 23.675135 
L 102.575518 23.675135 
L 102.219715 23.675135 
L 101.863913 23.675135 
L 101.50811 23.675135 
L 101.152308 23.675135 
L 100.796505 23.675135 
L 100.440703 23.675135 
L 100.0849 23.675135 
L 99.729098 23.675135 
L 99.373295 23.675135 
L 99.017493 23.675135 
L 98.66169 23.675135 
L 98.305888 23.675135 
L 97.950085 23.675135 
L 97.594283 23.675135 
L 97.23848 23.675135 
L 96.882678 23.675135 
L 96.526875 23.675135 
L 96.171073 23.675135 
L 95.81527 23.675135 
L 95.459468 23.675135 
L 95.103665 23.675135 
L 94.747862 23.675135 
L 94.39206 23.675135 
L 94.036257 23.675135 
L 93.680455 23.675135 
L 93.324652 23.675135 
L 92.96885 23.675135 
L 92.613047 23.675135 
L 92.257245 23.675135 
L 91.901442 23.675135 
L 91.54564 23.675135 
L 91.189837 23.675135 
L 90.834035 23.675135 
L 90.478232 23.675135 
L 90.12243 23.675135 
L 89.766627 23.675135 
L 89.410825 23.675135 
L 89.055022 23.675135 
L 88.69922 23.675135 
L 88.343417 23.675135 
L 87.987615 23.675135 
L 87.631812 23.675135 
L 87.27601 23.675135 
L 86.920207 23.675135 
L 86.564405 23.675135 
L 86.208602 23.675135 
L 85.8528 23.675135 
L 85.496997 23.675135 
L 85.141195 23.675135 
L 84.785392 23.675135 
L 84.42959 23.675135 
L 84.073787 23.675135 
L 83.717985 23.675135 
L 83.362182 23.675135 
L 83.00638 23.675135 
L 82.650577 23.675135 
L 82.294774 23.675135 
L 81.938972 23.675135 
L 81.583169 23.675135 
L 81.227367 23.675135 
L 80.871564 23.675135 
L 80.515762 23.675135 
L 80.159959 23.675135 
L 79.804157 23.675135 
L 79.448354 23.675135 
L 79.092552 23.675135 
L 78.736749 23.675135 
L 78.380947 23.675135 
L 78.025144 23.675135 
L 77.669342 23.675135 
L 77.313539 23.675135 
L 76.957737 23.675135 
L 76.601934 23.675135 
L 76.246132 23.675135 
L 75.890329 23.675135 
L 75.534527 23.675135 
L 75.178724 23.675135 
L 74.822922 23.675135 
L 74.467119 23.675135 
L 74.111317 23.675135 
L 73.755514 23.675135 
L 73.399712 23.675135 
L 73.043909 23.675135 
L 72.688107 23.675135 
L 72.332304 23.675135 
L 71.976502 23.675135 
L 71.620699 23.675135 
L 71.264897 23.675135 
L 70.909094 23.675135 
L 70.553292 23.675135 
L 70.197489 23.675135 
L 69.841686 23.675135 
L 69.485884 23.675135 
L 69.130081 23.675135 
L 68.774279 23.675135 
L 68.418476 23.675135 
L 68.062674 23.675135 
L 67.706871 23.675135 
L 67.351069 23.675135 
L 66.995266 23.675135 
L 66.639464 23.675135 
L 66.283661 23.675135 
L 65.927859 23.675135 
L 65.572056 23.675135 
L 65.216254 23.675135 
L 64.860451 23.675135 
L 64.504649 23.675135 
L 64.148846 23.675135 
L 63.793044 23.675135 
L 63.437241 23.675135 
L 63.081439 23.675135 
L 62.725636 23.675135 
L 62.369834 23.675135 
L 62.014031 23.675135 
L 61.658229 23.675135 
L 61.302426 23.675135 
L 60.946624 23.675135 
L 60.590821 23.675135 
L 60.235019 23.675135 
L 59.879216 23.675135 
L 59.523414 23.675135 
L 59.167611 23.675135 
L 58.811809 23.675135 
L 58.456006 23.675135 
L 58.100204 23.675135 
L 57.744401 23.675135 
L 57.388599 23.675135 
L 57.032796 23.675135 
L 56.676993 23.675135 
L 56.321191 23.675135 
L 55.965388 23.675135 
L 55.609586 23.675135 
L 55.253783 23.675135 
L 54.897981 23.675135 
L 54.542178 23.675135 
L 54.186376 23.675135 
L 53.830573 23.675135 
L 53.474771 23.675135 
L 53.118968 23.675135 
L 52.763166 23.675135 
L 52.407363 23.675135 
L 52.051561 23.675135 
L 51.695758 23.675135 
L 51.339956 23.675135 
L 50.984153 23.675135 
L 50.628351 23.675135 
L 50.272548 23.675135 
L 49.916746 23.675135 
L 49.560943 23.675135 
L 49.205141 23.675135 
L 48.849338 23.675135 
L 48.493536 23.675135 
L 48.137733 23.675135 
L 47.781931 23.675135 
L 47.426128 23.675135 
L 47.070326 23.675135 
L 46.714523 23.675135 
L 46.358721 23.675135 
L 46.002918 23.675135 
L 45.647116 23.675135 
L 45.291313 23.675135 
L 44.935511 23.675135 
L 44.579708 23.675135 
L 44.223905 23.675135 
L 43.868103 23.675135 
L 43.5123 23.675135 
L 43.156498 23.675135 
L 42.800695 23.675135 
L 42.444893 23.675135 
L 42.08909 23.675135 
L 41.733288 23.675135 
L 41.377485 23.675135 
L 41.021683 23.675135 
L 40.66588 23.675135 
L 40.310078 23.675135 
L 39.954275 23.675135 
L 39.598473 23.675135 
L 39.24267 23.675135 
L 38.886868 23.675135 
L 38.531065 23.675135 
L 38.175263 23.675135 
L 37.81946 23.675135 
z
" clip-path="url(#pa7a13055a8)" style="fill: #1f77b4; fill-opacity: 0.25"/>
   </g>
   <g id="matplotlib.axis_1">
    <g id="xtick_1">
     <g id="line2d_1">
      <defs>
       <path id="m27b68e0e1a" d="M 0 0 
L 0 3.5 
" style="stroke: #000000; stroke-width: 0.8"/>
      </defs>
      <g>
       <use xlink:href="#m27b68e0e1a" x="37.81946" y="145.8" style="stroke: #000000; stroke-width: 0.8"/>
      </g>
     </g>
     <g id="text_1">
      <!-- 0 -->
      <g transform="translate(34.63821 160.398438) scale(0.1 -0.1)">
       <defs>
        <path id="DejaVuSans-30" d="M 2034 4250 
Q 1547 4250 1301 3770 
Q 1056 3291 1056 2328 
Q 1056 1369 1301 889 
Q 1547 409 2034 409 
Q 2525 409 2770 889 
Q 3016 1369 3016 2328 
Q 3016 3291 2770 3770 
Q 2525 4250 2034 4250 
z
M 2034 4750 
Q 2819 4750 3233 4129 
Q 3647 3509 3647 2328 
Q 3647 1150 3233 529 
Q 2819 -91 2034 -91 
Q 1250 -91 836 529 
Q 422 1150 422 2328 
Q 422 3509 836 4129 
Q 1250 4750 2034 4750 
z
" transform="scale(0.015625)"/>
       </defs>
       <use xlink:href="#DejaVuSans-30"/>
      </g>
     </g>
    </g>
    <g id="xtick_2">
     <g id="line2d_2">
      <g>
       <use xlink:href="#m27b68e0e1a" x="73.328551" y="145.8" style="stroke: #000000; stroke-width: 0.8"/>
      </g>
     </g>
     <g id="text_2">
      <!-- 1 -->
      <g transform="translate(70.147301 160.398438) scale(0.1 -0.1)">
       <defs>
        <path id="DejaVuSans-31" d="M 794 531 
L 1825 531 
L 1825 4091 
L 703 3866 
L 703 4441 
L 1819 4666 
L 2450 4666 
L 2450 531 
L 3481 531 
L 3481 0 
L 794 0 
L 794 531 
z
" transform="scale(0.015625)"/>
       </defs>
       <use xlink:href="#DejaVuSans-31"/>
      </g>
     </g>
    </g>
    <g id="xtick_3">
     <g id="line2d_3">
      <g>
       <use xlink:href="#m27b68e0e1a" x="108.837642" y="145.8" style="stroke: #000000; stroke-width: 0.8"/>
      </g>
     </g>
     <g id="text_3">
      <!-- 2 -->
      <g transform="translate(105.656392 160.398438) scale(0.1 -0.1)">
       <defs>
        <path id="DejaVuSans-32" d="M 1228 531 
L 3431 531 
L 3431 0 
L 469 0 
L 469 531 
Q 828 903 1448 1529 
Q 2069 2156 2228 2338 
Q 2531 2678 2651 2914 
Q 2772 3150 2772 3378 
Q 2772 3750 2511 3984 
Q 2250 4219 1831 4219 
Q 1534 4219 1204 4116 
Q 875 4013 500 3803 
L 500 4441 
Q 881 4594 1212 4672 
Q 1544 4750 1819 4750 
Q 2544 4750 2975 4387 
Q 3406 4025 3406 3419 
Q 3406 3131 3298 2873 
Q 3191 2616 2906 2266 
Q 2828 2175 2409 1742 
Q 1991 1309 1228 531 
z
" transform="scale(0.015625)"/>
       </defs>
       <use xlink:href="#DejaVuSans-32"/>
      </g>
     </g>
    </g>
    <g id="xtick_4">
     <g id="line2d_4">
      <g>
       <use xlink:href="#m27b68e0e1a" x="144.346733" y="145.8" style="stroke: #000000; stroke-width: 0.8"/>
      </g>
     </g>
     <g id="text_4">
      <!-- 3 -->
      <g transform="translate(141.165483 160.398438) scale(0.1 -0.1)">
       <defs>
        <path id="DejaVuSans-33" d="M 2597 2516 
Q 3050 2419 3304 2112 
Q 3559 1806 3559 1356 
Q 3559 666 3084 287 
Q 2609 -91 1734 -91 
Q 1441 -91 1130 -33 
Q 819 25 488 141 
L 488 750 
Q 750 597 1062 519 
Q 1375 441 1716 441 
Q 2309 441 2620 675 
Q 2931 909 2931 1356 
Q 2931 1769 2642 2001 
Q 2353 2234 1838 2234 
L 1294 2234 
L 1294 2753 
L 1863 2753 
Q 2328 2753 2575 2939 
Q 2822 3125 2822 3475 
Q 2822 3834 2567 4026 
Q 2313 4219 1838 4219 
Q 1578 4219 1281 4162 
Q 984 4106 628 3988 
L 628 4550 
Q 988 4650 1302 4700 
Q 1616 4750 1894 4750 
Q 2613 4750 3031 4423 
Q 3450 4097 3450 3541 
Q 3450 3153 3228 2886 
Q 3006 2619 2597 2516 
z
" transform="scale(0.015625)"/>
       </defs>
       <use xlink:href="#DejaVuSans-33"/>
      </g>
     </g>
    </g>
    <g id="xtick_5">
     <g id="line2d_5">
      <g>
       <use xlink:href="#m27b68e0e1a" x="179.855824" y="145.8" style="stroke: #000000; stroke-width: 0.8"/>
      </g>
     </g>
     <g id="text_5">
      <!-- 4 -->
      <g transform="translate(176.674574 160.398438) scale(0.1 -0.1)">
       <defs>
        <path id="DejaVuSans-34" d="M 2419 4116 
L 825 1625 
L 2419 1625 
L 2419 4116 
z
M 2253 4666 
L 3047 4666 
L 3047 1625 
L 3713 1625 
L 3713 1100 
L 3047 1100 
L 3047 0 
L 2419 0 
L 2419 1100 
L 313 1100 
L 313 1709 
L 2253 4666 
z
" transform="scale(0.015625)"/>
       </defs>
       <use xlink:href="#DejaVuSans-34"/>
      </g>
     </g>
    </g>
    <g id="xtick_6">
     <g id="line2d_6">
      <g>
       <use xlink:href="#m27b68e0e1a" x="215.364915" y="145.8" style="stroke: #000000; stroke-width: 0.8"/>
      </g>
     </g>
     <g id="text_6">
      <!-- 5 -->
      <g transform="translate(212.183665 160.398438) scale(0.1 -0.1)">
       <defs>
        <path id="DejaVuSans-35" d="M 691 4666 
L 3169 4666 
L 3169 4134 
L 1269 4134 
L 1269 2991 
Q 1406 3038 1543 3061 
Q 1681 3084 1819 3084 
Q 2600 3084 3056 2656 
Q 3513 2228 3513 1497 
Q 3513 744 3044 326 
Q 2575 -91 1722 -91 
Q 1428 -91 1123 -41 
Q 819 9 494 109 
L 494 744 
Q 775 591 1075 516 
Q 1375 441 1709 441 
Q 2250 441 2565 725 
Q 2881 1009 2881 1497 
Q 2881 1984 2565 2268 
Q 2250 2553 1709 2553 
Q 1456 2553 1204 2497 
Q 953 2441 691 2322 
L 691 4666 
z
" transform="scale(0.015625)"/>
       </defs>
       <use xlink:href="#DejaVuSans-35"/>
      </g>
     </g>
    </g>
   </g>
   <g id="matplotlib.axis_2">
    <g id="ytick_1">
     <g id="line2d_7">
      <defs>
       <path id="mbf5596d552" d="M 0 0 
L -3.5 0 
" style="stroke: #000000; stroke-width: 0.8"/>
      </defs>
      <g>
       <use xlink:href="#mbf5596d552" x="28.942188" y="139.5" style="stroke: #000000; stroke-width: 0.8"/>
      </g>
     </g>
     <g id="text_7">
      <!-- −2 -->
      <g transform="translate(7.2 143.299219) scale(0.1 -0.1)">
       <defs>
        <path id="DejaVuSans-2212" d="M 678 2272 
L 4684 2272 
L 4684 1741 
L 678 1741 
L 678 2272 
z
" transform="scale(0.015625)"/>
       </defs>
       <use xlink:href="#DejaVuSans-2212"/>
       <use xlink:href="#DejaVuSans-32" x="83.789062"/>
      </g>
     </g>
    </g>
    <g id="ytick_2">
     <g id="line2d_8">
      <g>
       <use xlink:href="#mbf5596d552" x="28.942188" y="110.543784" style="stroke: #000000; stroke-width: 0.8"/>
      </g>
     </g>
     <g id="text_8">
      <!-- −1 -->
      <g transform="translate(7.2 114.343003) scale(0.1 -0.1)">
       <use xlink:href="#DejaVuSans-2212"/>
       <use xlink:href="#DejaVuSans-31" x="83.789062"/>
      </g>
     </g>
    </g>
    <g id="ytick_3">
     <g id="line2d_9">
      <g>
       <use xlink:href="#mbf5596d552" x="28.942188" y="81.587568" style="stroke: #000000; stroke-width: 0.8"/>
      </g>
     </g>
     <g id="text_9">
      <!-- 0 -->
      <g transform="translate(15.579688 85.386786) scale(0.1 -0.1)">
       <use xlink:href="#DejaVuSans-30"/>
      </g>
     </g>
    </g>
    <g id="ytick_4">
     <g id="line2d_10">
      <g>
       <use xlink:href="#mbf5596d552" x="28.942188" y="52.631351" style="stroke: #000000; stroke-width: 0.8"/>
      </g>
     </g>
     <g id="text_10">
      <!-- 1 -->
      <g transform="translate(15.579688 56.43057) scale(0.1 -0.1)">
       <use xlink:href="#DejaVuSans-31"/>
      </g>
     </g>
    </g>
    <g id="ytick_5">
     <g id="line2d_11">
      <g>
       <use xlink:href="#mbf5596d552" x="28.942188" y="23.675135" style="stroke: #000000; stroke-width: 0.8"/>
      </g>
     </g>
     <g id="text_11">
      <!-- 2 -->
      <g transform="translate(15.579688 27.474354) scale(0.1 -0.1)">
       <use xlink:href="#DejaVuSans-32"/>
      </g>
     </g>
    </g>
   </g>
   <g id="line2d_12">
    <path d="M 37.81946 64.633952 
L 39.598473 69.495474 
L 42.444893 78.036149 
L 46.002918 88.666638 
L 47.781931 93.391166 
L 49.205141 96.68422 
L 50.628351 99.443792 
L 51.695758 101.118456 
L 52.763166 102.427909 
L 53.830573 103.355624 
L 54.542178 103.757037 
L 55.253783 103.983356 
L 55.965388 104.034924 
L 56.676993 103.913455 
L 57.388599 103.622027 
L 58.456006 102.876173 
L 59.523414 101.778254 
L 60.590821 100.354444 
L 62.014031 98.004369 
L 63.437241 95.219207 
L 65.572056 90.444254 
L 73.043909 72.901259 
L 74.822922 69.511209 
L 76.601934 66.654592 
L 78.025144 64.774584 
L 79.448354 63.249086 
L 80.871564 62.054482 
L 82.294774 61.152736 
L 83.717985 60.494683 
L 85.496997 59.928392 
L 87.987615 59.405437 
L 91.901442 58.586656 
L 94.036257 57.904064 
L 96.171073 56.993319 
L 98.66169 55.68485 
L 105.421938 51.950194 
L 107.556753 51.095112 
L 109.691568 50.501554 
L 111.826383 50.165397 
L 114.317001 50.036959 
L 118.586631 50.127085 
L 121.788854 50.082046 
L 123.923669 49.850153 
L 126.058484 49.395782 
L 128.193299 48.696996 
L 130.328114 47.763637 
L 133.174534 46.237762 
L 138.511572 43.292054 
L 140.290584 42.594352 
L 141.713794 42.245092 
L 143.137004 42.128264 
L 144.560214 42.278794 
L 145.983425 42.720388 
L 147.406635 43.46293 
L 148.829845 44.50066 
L 150.253055 45.811655 
L 152.032067 47.776726 
L 154.522685 50.950567 
L 159.859723 57.955004 
L 161.994538 60.324524 
L 163.77355 61.983161 
L 165.552563 63.335278 
L 167.331575 64.38969 
L 169.110588 65.170477 
L 170.889601 65.705668 
L 172.668613 66.017717 
L 174.447626 66.11794 
L 176.226638 66.006547 
L 178.005651 65.678195 
L 179.784663 65.131868 
L 181.919478 64.211571 
L 184.765899 62.678199 
L 187.968121 60.995477 
L 189.391331 60.463592 
L 190.814541 60.179575 
L 191.881949 60.177178 
L 192.949356 60.389214 
L 194.016764 60.841463 
L 195.084171 61.553928 
L 196.151579 62.539738 
L 197.218987 63.804325 
L 198.642197 65.918174 
L 200.065407 68.49254 
L 201.844419 72.27387 
L 203.979234 77.432765 
L 211.095285 95.320698 
L 212.874297 98.999349 
L 214.297507 101.519082 
L 215.364915 103.133076 
L 215.364915 103.133076 
" clip-path="url(#pa7a13055a8)" style="fill: none; stroke: #000000; stroke-opacity: 0.5; stroke-width: 1.5; stroke-linecap: square"/>
   </g>
   <g id="line2d_13">
    <path d="M 37.81946 88.40441 
L 39.598473 88.777155 
L 41.377485 88.92906 
L 43.868103 88.882819 
L 52.407363 88.41691 
L 54.542178 88.661658 
L 57.032796 89.209775 
L 62.725636 90.653843 
L 64.148846 90.737833 
L 65.572056 90.57384 
L 66.639464 90.249304 
L 67.706871 89.72626 
L 68.774279 88.986786 
L 69.841686 88.018956 
L 71.264897 86.36548 
L 72.688107 84.306092 
L 74.111317 81.873256 
L 75.890329 78.394476 
L 78.736749 72.205504 
L 81.938972 65.279618 
L 83.717985 61.937164 
L 85.141195 59.728659 
L 86.208602 58.41772 
L 87.27601 57.450222 
L 88.343417 56.863282 
L 89.055022 56.69905 
L 89.766627 56.725492 
L 90.478232 56.948765 
L 91.189837 57.373483 
L 91.901442 58.002693 
L 92.96885 59.332503 
L 94.036257 61.122618 
L 95.103665 63.361664 
L 96.526875 67.00911 
L 97.950085 71.345432 
L 99.729098 77.582672 
L 101.863913 85.940142 
L 108.268358 111.738485 
L 110.047371 117.749289 
L 111.470581 121.858742 
L 112.893791 125.244187 
L 113.961198 127.266439 
L 115.028606 128.824054 
L 116.096013 129.906609 
L 116.807618 130.362964 
L 117.519223 130.608324 
L 118.230828 130.645487 
L 118.942433 130.478673 
L 119.654038 130.11348 
L 120.365644 129.556776 
L 121.433051 128.38063 
L 122.500459 126.823928 
L 123.923669 124.220623 
L 125.346879 121.105276 
L 127.125891 116.656462 
L 129.972311 108.78387 
L 134.241942 96.950903 
L 136.376757 91.691046 
L 138.155769 87.847372 
L 139.934782 84.561485 
L 141.357992 82.350738 
L 142.781202 80.508964 
L 144.204412 79.023002 
L 145.627622 77.872427 
L 147.050832 77.031656 
L 148.474042 76.471354 
L 149.897252 76.158936 
L 151.320462 76.058187 
L 153.099475 76.167473 
L 155.590092 76.592217 
L 159.148118 77.200059 
L 160.92713 77.245045 
L 162.35034 77.059306 
L 163.77355 76.634893 
L 165.19676 75.953647 
L 166.61997 75.021406 
L 168.398983 73.555861 
L 171.957008 70.16646 
L 173.736021 68.653197 
L 175.159231 67.746524 
L 176.226638 67.321732 
L 177.294046 67.164361 
L 178.361453 67.309407 
L 179.428861 67.781327 
L 180.496268 68.592218 
L 181.563676 69.740392 
L 182.631083 71.209644 
L 184.054294 73.612578 
L 185.833306 77.164691 
L 190.814541 87.607773 
L 192.237751 89.852447 
L 193.305159 91.089732 
L 194.016764 91.661633 
L 194.728369 92.009488 
L 195.439974 92.117674 
L 196.151579 91.973468 
L 196.863184 91.5673 
L 197.574789 90.892929 
L 198.286394 89.947568 
L 199.353802 88.024076 
L 200.421209 85.511011 
L 201.488617 82.443702 
L 202.911827 77.584255 
L 204.690839 70.513628 
L 207.181457 59.510649 
L 210.38368 45.447559 
L 212.162692 38.66488 
L 213.585902 34.170826 
L 214.65331 31.47683 
L 215.364915 30.042768 
L 215.364915 30.042768 
" clip-path="url(#pa7a13055a8)" style="fill: none; stroke: #000000; stroke-opacity: 0.5; stroke-width: 1.5; stroke-linecap: square"/>
   </g>
   <g id="line2d_14">
    <path d="M 37.81946 88.33893 
L 39.598473 83.473142 
L 45.291313 67.277919 
L 46.714523 64.02586 
L 48.137733 61.380439 
L 49.205141 59.844768 
L 50.272548 58.714847 
L 51.339956 57.994999 
L 52.051561 57.739081 
L 52.763166 57.656113 
L 53.474771 57.738294 
L 54.542178 58.149428 
L 55.609586 58.87011 
L 56.676993 59.854226 
L 58.100204 61.48878 
L 60.235019 64.378812 
L 64.504649 70.311433 
L 66.283661 72.3771 
L 67.706871 73.739059 
L 69.130081 74.81094 
L 70.553292 75.582794 
L 71.976502 76.060697 
L 73.399712 76.264196 
L 74.822922 76.223521 
L 76.246132 75.976852 
L 78.025144 75.445245 
L 80.515762 74.445968 
L 85.141195 72.53142 
L 87.27601 71.878421 
L 89.410825 71.452168 
L 91.54564 71.249087 
L 94.39206 71.235161 
L 99.729098 71.293753 
L 101.863913 71.087477 
L 103.998728 70.666909 
L 106.133543 70.034541 
L 108.979963 68.945658 
L 114.672803 66.680995 
L 117.163421 65.968846 
L 119.654038 65.512655 
L 122.500459 65.241655 
L 127.125891 64.837159 
L 128.904904 64.471419 
L 130.683916 63.880202 
L 132.462929 63.009379 
L 134.241942 61.826173 
L 136.020954 60.323993 
L 137.799967 58.525074 
L 139.934782 56.048983 
L 147.050832 47.387287 
L 148.474042 46.066274 
L 149.897252 45.045262 
L 150.96466 44.514606 
L 152.032067 44.21147 
L 153.099475 44.15498 
L 154.166882 44.359398 
L 155.23429 44.833354 
L 156.301697 45.579176 
L 157.369105 46.59244 
L 158.792315 48.338674 
L 160.215525 50.492812 
L 161.994538 53.655387 
L 164.485155 58.6506 
L 168.754785 67.303691 
L 170.533798 70.429959 
L 171.957008 72.582573 
L 173.380218 74.3792 
L 174.803428 75.800928 
L 176.226638 76.850108 
L 177.649848 77.54735 
L 179.073058 77.927057 
L 180.496268 78.032072 
L 181.919478 77.908188 
L 183.698491 77.497303 
L 185.833306 76.719193 
L 187.968121 75.701668 
L 190.458739 74.246419 
L 192.593554 72.75427 
L 194.728369 71.006379 
L 196.863184 68.98646 
L 199.353802 66.312418 
L 207.181457 57.504964 
L 208.604667 56.312036 
L 210.027877 55.401706 
L 211.095285 54.938346 
L 212.162692 54.684816 
L 213.2301 54.655446 
L 214.297507 54.858548 
L 215.364915 55.295565 
L 215.364915 55.295565 
" clip-path="url(#pa7a13055a8)" style="fill: none; stroke: #000000; stroke-opacity: 0.5; stroke-width: 1.5; stroke-linecap: square"/>
   </g>
   <g id="line2d_15">
    <path d="M 37.81946 115.131463 
L 42.08909 101.480711 
L 44.223905 95.352966 
L 46.002918 90.826716 
L 47.781931 86.896284 
L 49.560943 83.574286 
L 50.984153 81.336635 
L 52.407363 79.442187 
L 53.830573 77.85595 
L 55.253783 76.541679 
L 57.032796 75.232314 
L 58.811809 74.250818 
L 60.590821 73.574093 
L 62.014031 73.251252 
L 63.437241 73.130145 
L 64.860451 73.220467 
L 66.283661 73.529844 
L 67.706871 74.059361 
L 69.130081 74.799837 
L 70.909094 75.987214 
L 73.043909 77.694588 
L 77.669342 81.534319 
L 79.448354 82.666721 
L 80.871564 83.293578 
L 81.938972 83.564092 
L 83.00638 83.643073 
L 84.073787 83.517727 
L 85.141195 83.180967 
L 86.208602 82.631867 
L 87.27601 81.875852 
L 88.69922 80.56737 
L 90.12243 78.958148 
L 91.901442 76.622125 
L 98.305888 67.803812 
L 99.729098 66.353607 
L 100.796505 65.505418 
L 101.863913 64.890999 
L 102.93132 64.528641 
L 103.998728 64.429126 
L 105.066135 64.59544 
L 106.133543 65.022683 
L 107.20095 65.698508 
L 108.268358 66.603676 
L 109.691568 68.123093 
L 111.470581 70.42091 
L 113.961198 74.091866 
L 118.230828 80.472118 
L 120.365644 83.263273 
L 122.144656 85.267029 
L 123.923669 86.954677 
L 125.702681 88.331483 
L 127.481694 89.416366 
L 129.260706 90.229287 
L 131.039719 90.779899 
L 132.818731 91.059567 
L 134.241942 91.068672 
L 135.665152 90.860876 
L 137.088362 90.405849 
L 138.511572 89.670926 
L 139.934782 88.62531 
L 141.357992 87.244522 
L 142.781202 85.514684 
L 144.204412 83.436043 
L 145.983425 80.374534 
L 147.762437 76.866696 
L 150.253055 71.422681 
L 155.945895 58.71926 
L 158.08071 54.628585 
L 159.859723 51.723082 
L 161.282933 49.770072 
L 162.706143 48.16024 
L 164.129353 46.892 
L 165.552563 45.954022 
L 166.975773 45.328543 
L 168.398983 44.994535 
L 169.822193 44.930501 
L 171.245403 45.116315 
L 172.668613 45.534292 
L 174.091823 46.169301 
L 175.870836 47.248384 
L 177.649848 48.622561 
L 179.428861 50.267693 
L 181.563676 52.561491 
L 184.054294 55.611739 
L 186.900714 59.484896 
L 190.458739 64.742633 
L 195.084171 72.027353 
L 201.488617 82.154686 
L 203.623432 85.146486 
L 205.402444 87.311549 
L 206.825654 88.764302 
L 208.248864 89.927354 
L 209.672075 90.774857 
L 210.739482 91.196629 
L 211.80689 91.437166 
L 213.2301 91.491167 
L 214.65331 91.273922 
L 215.364915 91.079006 
L 215.364915 91.079006 
" clip-path="url(#pa7a13055a8)" style="fill: none; stroke: #000000; stroke-opacity: 0.5; stroke-width: 1.5; stroke-linecap: square"/>
   </g>
   <g id="line2d_16">
    <path d="M 37.81946 114.329736 
L 39.598473 111.472067 
L 41.377485 109.068297 
L 43.156498 107.092223 
L 44.935511 105.466277 
L 47.426128 103.547382 
L 50.628351 101.102184 
L 52.407363 99.479479 
L 54.186376 97.538551 
L 55.965388 95.236236 
L 58.100204 92.023873 
L 60.946624 87.230987 
L 64.504649 81.288606 
L 66.283661 78.738474 
L 67.706871 77.042647 
L 69.130081 75.713706 
L 70.197489 74.977445 
L 71.264897 74.468805 
L 72.332304 74.1822 
L 73.399712 74.103328 
L 74.467119 74.209667 
L 75.890329 74.586937 
L 77.669342 75.310994 
L 81.227367 76.827227 
L 82.650577 77.164099 
L 83.717985 77.225873 
L 84.785392 77.087335 
L 85.8528 76.722121 
L 86.920207 76.110748 
L 87.987615 75.240851 
L 89.055022 74.107199 
L 90.478232 72.189006 
L 91.901442 69.826063 
L 93.324652 67.055357 
L 95.103665 63.094629 
L 97.23848 57.76376 
L 100.0849 50.021027 
L 106.845148 31.328406 
L 108.979963 26.054366 
L 110.758976 22.141376 
L 112.182186 19.418775 
L 113.605396 17.132962 
L 114.672803 15.746335 
L 115.740211 14.671033 
L 116.807618 13.931683 
L 117.875026 13.549032 
L 118.586631 13.5 
L 119.298236 13.619565 
L 120.009841 13.909316 
L 121.077249 14.662602 
L 122.144656 15.791162 
L 123.212064 17.278502 
L 124.635274 19.773463 
L 126.058484 22.771915 
L 127.837496 27.05332 
L 134.597744 44.016535 
L 136.020954 46.820897 
L 137.444164 49.145886 
L 138.867374 50.961836 
L 139.934782 51.993905 
L 141.002189 52.761866 
L 142.069597 53.294114 
L 143.492807 53.702885 
L 144.916017 53.867284 
L 149.54145 54.167379 
L 150.96466 54.603712 
L 152.032067 55.132818 
L 153.099475 55.860189 
L 154.166882 56.799522 
L 155.590092 58.390079 
L 157.013302 60.358387 
L 158.436513 62.675415 
L 160.215525 65.990609 
L 162.706143 71.197673 
L 169.110588 85.010264 
L 170.889601 88.249365 
L 172.312811 90.458405 
L 173.736021 92.252827 
L 174.803428 93.290511 
L 175.870836 94.041413 
L 176.938243 94.490944 
L 178.005651 94.631056 
L 179.073058 94.461184 
L 180.140466 93.989033 
L 181.207873 93.231037 
L 182.275281 92.212504 
L 183.698491 90.508924 
L 185.477504 87.970763 
L 190.458739 80.482146 
L 191.881949 78.800051 
L 192.949356 77.797869 
L 194.016764 77.052261 
L 195.084171 76.583137 
L 196.151579 76.399875 
L 197.218987 76.501558 
L 198.286394 76.877728 
L 199.353802 77.509732 
L 200.421209 78.37246 
L 201.844419 79.830318 
L 203.623432 82.041332 
L 205.758247 85.084025 
L 208.96047 90.098285 
L 212.162692 95.50204 
L 214.65331 100.091291 
L 215.364915 101.48822 
L 215.364915 101.48822 
" clip-path="url(#pa7a13055a8)" style="fill: none; stroke: #000000; stroke-opacity: 0.5; stroke-width: 1.5; stroke-linecap: square"/>
   </g>
   <g id="line2d_17">
    <path d="M 37.81946 81.587568 
L 215.364915 81.587568 
L 215.364915 81.587568 
" clip-path="url(#pa7a13055a8)" style="fill: none; stroke: #1f77b4; stroke-width: 2; stroke-linecap: square"/>
   </g>
   <g id="patch_3">
    <path d="M 28.942188 145.8 
L 28.942188 7.2 
" style="fill: none; stroke: #000000; stroke-width: 0.8; stroke-linejoin: miter; stroke-linecap: square"/>
   </g>
   <g id="patch_4">
    <path d="M 224.242188 145.8 
L 224.242188 7.2 
" style="fill: none; stroke: #000000; stroke-width: 0.8; stroke-linejoin: miter; stroke-linecap: square"/>
   </g>
   <g id="patch_5">
    <path d="M 28.942187 145.8 
L 224.242188 145.8 
" style="fill: none; stroke: #000000; stroke-width: 0.8; stroke-linejoin: miter; stroke-linecap: square"/>
   </g>
   <g id="patch_6">
    <path d="M 28.942187 7.2 
L 224.242188 7.2 
" style="fill: none; stroke: #000000; stroke-width: 0.8; stroke-linejoin: miter; stroke-linecap: square"/>
   </g>
  </g>
 </g>
 <defs>
  <clipPath id="pa7a13055a8">
   <rect x="28.942188" y="7.2" width="195.3" height="138.6"/>
  </clipPath>
 </defs>
</svg>
