<?xml version="1.0" encoding="utf-8" standalone="no"?>
<!DOCTYPE svg PUBLIC "-//W3C//DTD SVG 1.1//EN"
  "http://www.w3.org/Graphics/SVG/1.1/DTD/svg11.dtd">
<svg xmlns:xlink="http://www.w3.org/1999/xlink" width="231.442188pt" height="169.678125pt" viewBox="0 0 231.442188 169.678125" xmlns="http://www.w3.org/2000/svg" version="1.1">
 <metadata>
  <rdf:RDF xmlns:dc="http://purl.org/dc/elements/1.1/" xmlns:cc="http://creativecommons.org/ns#" xmlns:rdf="http://www.w3.org/1999/02/22-rdf-syntax-ns#">
   <cc:Work>
    <dc:type rdf:resource="http://purl.org/dc/dcmitype/StillImage"/>
    <dc:date>2025-06-14T14:42:01.035812</dc:date>
    <dc:format>image/svg+xml</dc:format>
    <dc:creator>
     <cc:Agent>
      <dc:title>Matplotlib v3.6.1, https://matplotlib.org/</dc:title>
     </cc:Agent>
    </dc:creator>
   </cc:Work>
  </rdf:RDF>
 </metadata>
 <defs>
  <style type="text/css">*{stroke-linejoin: round; stroke-linecap: butt}</style>
 </defs>
 <g id="figure_1">
  <g id="patch_1">
   <path d="M 0 169.678125 
L 231.442188 169.678125 
L 231.442188 0 
L 0 0 
z
" style="fill: #ffffff"/>
  </g>
  <g id="axes_1">
   <g id="patch_2">
    <path d="M 28.942188 145.8 
L 224.242188 145.8 
L 224.242188 7.2 
L 28.942188 7.2 
z
" style="fill: #ffffff"/>
   </g>
   <g id="PolyCollection_1">
    <path d="M 37.81946 30.823578 
L 37.81946 133.565064 
L 38.175263 133.565064 
L 38.531065 133.565064 
L 38.886868 133.565064 
L 39.24267 133.565064 
L 39.598473 133.565064 
L 39.954275 133.565064 
L 40.310078 133.565064 
L 40.66588 133.565064 
L 41.021683 133.565064 
L 41.377485 133.565064 
L 41.733288 133.565064 
L 42.08909 133.565064 
L 42.444893 133.565064 
L 42.800695 133.565064 
L 43.156498 133.565064 
L 43.5123 133.565064 
L 43.868103 133.565064 
L 44.223905 133.565064 
L 44.579708 133.565064 
L 44.935511 133.565064 
L 45.291313 133.565064 
L 45.647116 133.565064 
L 46.002918 133.565064 
L 46.358721 133.565064 
L 46.714523 133.565064 
L 47.070326 133.565064 
L 47.426128 133.565064 
L 47.781931 133.565064 
L 48.137733 133.565064 
L 48.493536 133.565064 
L 48.849338 133.565064 
L 49.205141 133.565064 
L 49.560943 133.565064 
L 49.916746 133.565064 
L 50.272548 133.565064 
L 50.628351 133.565064 
L 50.984153 133.565064 
L 51.339956 133.565064 
L 51.695758 133.565064 
L 52.051561 133.565064 
L 52.407363 133.565064 
L 52.763166 133.565064 
L 53.118968 133.565064 
L 53.474771 133.565064 
L 53.830573 133.565064 
L 54.186376 133.565064 
L 54.542178 133.565064 
L 54.897981 133.565064 
L 55.253783 133.565064 
L 55.609586 133.565064 
L 55.965388 133.565064 
L 56.321191 133.565064 
L 56.676993 133.565064 
L 57.032796 133.565064 
L 57.388599 133.565064 
L 57.744401 133.565064 
L 58.100204 133.565064 
L 58.456006 133.565064 
L 58.811809 133.565064 
L 59.167611 133.565064 
L 59.523414 133.565064 
L 59.879216 133.565064 
L 60.235019 133.565064 
L 60.590821 133.565064 
L 60.946624 133.565064 
L 61.302426 133.565064 
L 61.658229 133.565064 
L 62.014031 133.565064 
L 62.369834 133.565064 
L 62.725636 133.565064 
L 63.081439 133.565064 
L 63.437241 133.565064 
L 63.793044 133.565064 
L 64.148846 133.565064 
L 64.504649 133.565064 
L 64.860451 133.565064 
L 65.216254 133.565064 
L 65.572056 133.565064 
L 65.927859 133.565064 
L 66.283661 133.565064 
L 66.639464 133.565064 
L 66.995266 133.565064 
L 67.351069 133.565064 
L 67.706871 133.565064 
L 68.062674 133.565064 
L 68.418476 133.565064 
L 68.774279 133.565064 
L 69.130081 133.565064 
L 69.485884 133.565064 
L 69.841686 133.565064 
L 70.197489 133.565064 
L 70.553292 133.565064 
L 70.909094 133.565064 
L 71.264897 133.565064 
L 71.620699 133.565064 
L 71.976502 133.565064 
L 72.332304 133.565064 
L 72.688107 133.565064 
L 73.043909 133.565064 
L 73.399712 133.565064 
L 73.755514 133.565064 
L 74.111317 133.565064 
L 74.467119 133.565064 
L 74.822922 133.565064 
L 75.178724 133.565064 
L 75.534527 133.565064 
L 75.890329 133.565064 
L 76.246132 133.565064 
L 76.601934 133.565064 
L 76.957737 133.565064 
L 77.313539 133.565064 
L 77.669342 133.565064 
L 78.025144 133.565064 
L 78.380947 133.565064 
L 78.736749 133.565064 
L 79.092552 133.565064 
L 79.448354 133.565064 
L 79.804157 133.565064 
L 80.159959 133.565064 
L 80.515762 133.565064 
L 80.871564 133.565064 
L 81.227367 133.565064 
L 81.583169 133.565064 
L 81.938972 133.565064 
L 82.294774 133.565064 
L 82.650577 133.565064 
L 83.00638 133.565064 
L 83.362182 133.565064 
L 83.717985 133.565064 
L 84.073787 133.565064 
L 84.42959 133.565064 
L 84.785392 133.565064 
L 85.141195 133.565064 
L 85.496997 133.565064 
L 85.8528 133.565064 
L 86.208602 133.565064 
L 86.564405 133.565064 
L 86.920207 133.565064 
L 87.27601 133.565064 
L 87.631812 133.565064 
L 87.987615 133.565064 
L 88.343417 133.565064 
L 88.69922 133.565064 
L 89.055022 133.565064 
L 89.410825 133.565064 
L 89.766627 133.565064 
L 90.12243 133.565064 
L 90.478232 133.565064 
L 90.834035 133.565064 
L 91.189837 133.565064 
L 91.54564 133.565064 
L 91.901442 133.565064 
L 92.257245 133.565064 
L 92.613047 133.565064 
L 92.96885 133.565064 
L 93.324652 133.565064 
L 93.680455 133.565064 
L 94.036257 133.565064 
L 94.39206 133.565064 
L 94.747862 133.565064 
L 95.103665 133.565064 
L 95.459468 133.565064 
L 95.81527 133.565064 
L 96.171073 133.565064 
L 96.526875 133.565064 
L 96.882678 133.565064 
L 97.23848 133.565064 
L 97.594283 133.565064 
L 97.950085 133.565064 
L 98.305888 133.565064 
L 98.66169 133.565064 
L 99.017493 133.565064 
L 99.373295 133.565064 
L 99.729098 133.565064 
L 100.0849 133.565064 
L 100.440703 133.565064 
L 100.796505 133.565064 
L 101.152308 133.565064 
L 101.50811 133.565064 
L 101.863913 133.565064 
L 102.219715 133.565064 
L 102.575518 133.565064 
L 102.93132 133.565064 
L 103.287123 133.565064 
L 103.642925 133.565064 
L 103.998728 133.565064 
L 104.35453 133.565064 
L 104.710333 133.565064 
L 105.066135 133.565064 
L 105.421938 133.565064 
L 105.77774 133.565064 
L 106.133543 133.565064 
L 106.489345 133.565064 
L 106.845148 133.565064 
L 107.20095 133.565064 
L 107.556753 133.565064 
L 107.912556 133.565064 
L 108.268358 133.565064 
L 108.624161 133.565064 
L 108.979963 133.565064 
L 109.335766 133.565064 
L 109.691568 133.565064 
L 110.047371 133.565064 
L 110.403173 133.565064 
L 110.758976 133.565064 
L 111.114778 133.565064 
L 111.470581 133.565064 
L 111.826383 133.565064 
L 112.182186 133.565064 
L 112.537988 133.565064 
L 112.893791 133.565064 
L 113.249593 133.565064 
L 113.605396 133.565064 
L 113.961198 133.565064 
L 114.317001 133.565064 
L 114.672803 133.565064 
L 115.028606 133.565064 
L 115.384408 133.565064 
L 115.740211 133.565064 
L 116.096013 133.565064 
L 116.451816 133.565064 
L 116.807618 133.565064 
L 117.163421 133.565064 
L 117.519223 133.565064 
L 117.875026 133.565064 
L 118.230828 133.565064 
L 118.586631 133.565064 
L 118.942433 133.565064 
L 119.298236 133.565064 
L 119.654038 133.565064 
L 120.009841 133.565064 
L 120.365644 133.565064 
L 120.721446 133.565064 
L 121.077249 133.565064 
L 121.433051 133.565064 
L 121.788854 133.565064 
L 122.144656 133.565064 
L 122.500459 133.565064 
L 122.856261 133.565064 
L 123.212064 133.565064 
L 123.567866 133.565064 
L 123.923669 133.565064 
L 124.279471 133.565064 
L 124.635274 133.565064 
L 124.991076 133.565064 
L 125.346879 133.565064 
L 125.702681 133.565064 
L 126.058484 133.565064 
L 126.414286 133.565064 
L 126.770089 133.565064 
L 127.125891 133.565064 
L 127.481694 133.565064 
L 127.837496 133.565064 
L 128.193299 133.565064 
L 128.549101 133.565064 
L 128.904904 133.565064 
L 129.260706 133.565064 
L 129.616509 133.565064 
L 129.972311 133.565064 
L 130.328114 133.565064 
L 130.683916 133.565064 
L 131.039719 133.565064 
L 131.395521 133.565064 
L 131.751324 133.565064 
L 132.107126 133.565064 
L 132.462929 133.565064 
L 132.818731 133.565064 
L 133.174534 133.565064 
L 133.530337 133.565064 
L 133.886139 133.565064 
L 134.241942 133.565064 
L 134.597744 133.565064 
L 134.953547 133.565064 
L 135.309349 133.565064 
L 135.665152 133.565064 
L 136.020954 133.565064 
L 136.376757 133.565064 
L 136.732559 133.565064 
L 137.088362 133.565064 
L 137.444164 133.565064 
L 137.799967 133.565064 
L 138.155769 133.565064 
L 138.511572 133.565064 
L 138.867374 133.565064 
L 139.223177 133.565064 
L 139.578979 133.565064 
L 139.934782 133.565064 
L 140.290584 133.565064 
L 140.646387 133.565064 
L 141.002189 133.565064 
L 141.357992 133.565064 
L 141.713794 133.565064 
L 142.069597 133.565064 
L 142.425399 133.565064 
L 142.781202 133.565064 
L 143.137004 133.565064 
L 143.492807 133.565064 
L 143.848609 133.565064 
L 144.204412 133.565064 
L 144.560214 133.565064 
L 144.916017 133.565064 
L 145.271819 133.565064 
L 145.627622 133.565064 
L 145.983425 133.565064 
L 146.339227 133.565064 
L 146.69503 133.565064 
L 147.050832 133.565064 
L 147.406635 133.565064 
L 147.762437 133.565064 
L 148.11824 133.565064 
L 148.474042 133.565064 
L 148.829845 133.565064 
L 149.185647 133.565064 
L 149.54145 133.565064 
L 149.897252 133.565064 
L 150.253055 133.565064 
L 150.608857 133.565064 
L 150.96466 133.565064 
L 151.320462 133.565064 
L 151.676265 133.565064 
L 152.032067 133.565064 
L 152.38787 133.565064 
L 152.743672 133.565064 
L 153.099475 133.565064 
L 153.455277 133.565064 
L 153.81108 133.565064 
L 154.166882 133.565064 
L 154.522685 133.565064 
L 154.878487 133.565064 
L 155.23429 133.565064 
L 155.590092 133.565064 
L 155.945895 133.565064 
L 156.301697 133.565064 
L 156.6575 133.565064 
L 157.013302 133.565064 
L 157.369105 133.565064 
L 157.724907 133.565064 
L 158.08071 133.565064 
L 158.436513 133.565064 
L 158.792315 133.565064 
L 159.148118 133.565064 
L 159.50392 133.565064 
L 159.859723 133.565064 
L 160.215525 133.565064 
L 160.571328 133.565064 
L 160.92713 133.565064 
L 161.282933 133.565064 
L 161.638735 133.565064 
L 161.994538 133.565064 
L 162.35034 133.565064 
L 162.706143 133.565064 
L 163.061945 133.565064 
L 163.417748 133.565064 
L 163.77355 133.565064 
L 164.129353 133.565064 
L 164.485155 133.565064 
L 164.840958 133.565064 
L 165.19676 133.565064 
L 165.552563 133.565064 
L 165.908365 133.565064 
L 166.264168 133.565064 
L 166.61997 133.565064 
L 166.975773 133.565064 
L 167.331575 133.565064 
L 167.687378 133.565064 
L 168.04318 133.565064 
L 168.398983 133.565064 
L 168.754785 133.565064 
L 169.110588 133.565064 
L 169.46639 133.565064 
L 169.822193 133.565064 
L 170.177995 133.565064 
L 170.533798 133.565064 
L 170.889601 133.565064 
L 171.245403 133.565064 
L 171.601206 133.565064 
L 171.957008 133.565064 
L 172.312811 133.565064 
L 172.668613 133.565064 
L 173.024416 133.565064 
L 173.380218 133.565064 
L 173.736021 133.565064 
L 174.091823 133.565064 
L 174.447626 133.565064 
L 174.803428 133.565064 
L 175.159231 133.565064 
L 175.515033 133.565064 
L 175.870836 133.565064 
L 176.226638 133.565064 
L 176.582441 133.565064 
L 176.938243 133.565064 
L 177.294046 133.565064 
L 177.649848 133.565064 
L 178.005651 133.565064 
L 178.361453 133.565064 
L 178.717256 133.565064 
L 179.073058 133.565064 
L 179.428861 133.565064 
L 179.784663 133.565064 
L 180.140466 133.565064 
L 180.496268 133.565064 
L 180.852071 133.565064 
L 181.207873 133.565064 
L 181.563676 133.565064 
L 181.919478 133.565064 
L 182.275281 133.565064 
L 182.631083 133.565064 
L 182.986886 133.565064 
L 183.342689 133.565064 
L 183.698491 133.565064 
L 184.054294 133.565064 
L 184.410096 133.565064 
L 184.765899 133.565064 
L 185.121701 133.565064 
L 185.477504 133.565064 
L 185.833306 133.565064 
L 186.189109 133.565064 
L 186.544911 133.565064 
L 186.900714 133.565064 
L 187.256516 133.565064 
L 187.612319 133.565064 
L 187.968121 133.565064 
L 188.323924 133.565064 
L 188.679726 133.565064 
L 189.035529 133.565064 
L 189.391331 133.565064 
L 189.747134 133.565064 
L 190.102936 133.565064 
L 190.458739 133.565064 
L 190.814541 133.565064 
L 191.170344 133.565064 
L 191.526146 133.565064 
L 191.881949 133.565064 
L 192.237751 133.565064 
L 192.593554 133.565064 
L 192.949356 133.565064 
L 193.305159 133.565064 
L 193.660961 133.565064 
L 194.016764 133.565064 
L 194.372566 133.565064 
L 194.728369 133.565064 
L 195.084171 133.565064 
L 195.439974 133.565064 
L 195.795776 133.565064 
L 196.151579 133.565064 
L 196.507382 133.565064 
L 196.863184 133.565064 
L 197.218987 133.565064 
L 197.574789 133.565064 
L 197.930592 133.565064 
L 198.286394 133.565064 
L 198.642197 133.565064 
L 198.997999 133.565064 
L 199.353802 133.565064 
L 199.709604 133.565064 
L 200.065407 133.565064 
L 200.421209 133.565064 
L 200.777012 133.565064 
L 201.132814 133.565064 
L 201.488617 133.565064 
L 201.844419 133.565064 
L 202.200222 133.565064 
L 202.556024 133.565064 
L 202.911827 133.565064 
L 203.267629 133.565064 
L 203.623432 133.565064 
L 203.979234 133.565064 
L 204.335037 133.565064 
L 204.690839 133.565064 
L 205.046642 133.565064 
L 205.402444 133.565064 
L 205.758247 133.565064 
L 206.114049 133.565064 
L 206.469852 133.565064 
L 206.825654 133.565064 
L 207.181457 133.565064 
L 207.537259 133.565064 
L 207.893062 133.565064 
L 208.248864 133.565064 
L 208.604667 133.565064 
L 208.96047 133.565064 
L 209.316272 133.565064 
L 209.672075 133.565064 
L 210.027877 133.565064 
L 210.38368 133.565064 
L 210.739482 133.565064 
L 211.095285 133.565064 
L 211.451087 133.565064 
L 211.80689 133.565064 
L 212.162692 133.565064 
L 212.518495 133.565064 
L 212.874297 133.565064 
L 213.2301 133.565064 
L 213.585902 133.565064 
L 213.941705 133.565064 
L 214.297507 133.565064 
L 214.65331 133.565064 
L 215.009112 133.565064 
L 215.364915 133.565064 
L 215.364915 30.823578 
L 215.364915 30.823578 
L 215.009112 30.823578 
L 214.65331 30.823578 
L 214.297507 30.823578 
L 213.941705 30.823578 
L 213.585902 30.823578 
L 213.2301 30.823578 
L 212.874297 30.823578 
L 212.518495 30.823578 
L 212.162692 30.823578 
L 211.80689 30.823578 
L 211.451087 30.823578 
L 211.095285 30.823578 
L 210.739482 30.823578 
L 210.38368 30.823578 
L 210.027877 30.823578 
L 209.672075 30.823578 
L 209.316272 30.823578 
L 208.96047 30.823578 
L 208.604667 30.823578 
L 208.248864 30.823578 
L 207.893062 30.823578 
L 207.537259 30.823578 
L 207.181457 30.823578 
L 206.825654 30.823578 
L 206.469852 30.823578 
L 206.114049 30.823578 
L 205.758247 30.823578 
L 205.402444 30.823578 
L 205.046642 30.823578 
L 204.690839 30.823578 
L 204.335037 30.823578 
L 203.979234 30.823578 
L 203.623432 30.823578 
L 203.267629 30.823578 
L 202.911827 30.823578 
L 202.556024 30.823578 
L 202.200222 30.823578 
L 201.844419 30.823578 
L 201.488617 30.823578 
L 201.132814 30.823578 
L 200.777012 30.823578 
L 200.421209 30.823578 
L 200.065407 30.823578 
L 199.709604 30.823578 
L 199.353802 30.823578 
L 198.997999 30.823578 
L 198.642197 30.823578 
L 198.286394 30.823578 
L 197.930592 30.823578 
L 197.574789 30.823578 
L 197.218987 30.823578 
L 196.863184 30.823578 
L 196.507382 30.823578 
L 196.151579 30.823578 
L 195.795776 30.823578 
L 195.439974 30.823578 
L 195.084171 30.823578 
L 194.728369 30.823578 
L 194.372566 30.823578 
L 194.016764 30.823578 
L 193.660961 30.823578 
L 193.305159 30.823578 
L 192.949356 30.823578 
L 192.593554 30.823578 
L 192.237751 30.823578 
L 191.881949 30.823578 
L 191.526146 30.823578 
L 191.170344 30.823578 
L 190.814541 30.823578 
L 190.458739 30.823578 
L 190.102936 30.823578 
L 189.747134 30.823578 
L 189.391331 30.823578 
L 189.035529 30.823578 
L 188.679726 30.823578 
L 188.323924 30.823578 
L 187.968121 30.823578 
L 187.612319 30.823578 
L 187.256516 30.823578 
L 186.900714 30.823578 
L 186.544911 30.823578 
L 186.189109 30.823578 
L 185.833306 30.823578 
L 185.477504 30.823578 
L 185.121701 30.823578 
L 184.765899 30.823578 
L 184.410096 30.823578 
L 184.054294 30.823578 
L 183.698491 30.823578 
L 183.342689 30.823578 
L 182.986886 30.823578 
L 182.631083 30.823578 
L 182.275281 30.823578 
L 181.919478 30.823578 
L 181.563676 30.823578 
L 181.207873 30.823578 
L 180.852071 30.823578 
L 180.496268 30.823578 
L 180.140466 30.823578 
L 179.784663 30.823578 
L 179.428861 30.823578 
L 179.073058 30.823578 
L 178.717256 30.823578 
L 178.361453 30.823578 
L 178.005651 30.823578 
L 177.649848 30.823578 
L 177.294046 30.823578 
L 176.938243 30.823578 
L 176.582441 30.823578 
L 176.226638 30.823578 
L 175.870836 30.823578 
L 175.515033 30.823578 
L 175.159231 30.823578 
L 174.803428 30.823578 
L 174.447626 30.823578 
L 174.091823 30.823578 
L 173.736021 30.823578 
L 173.380218 30.823578 
L 173.024416 30.823578 
L 172.668613 30.823578 
L 172.312811 30.823578 
L 171.957008 30.823578 
L 171.601206 30.823578 
L 171.245403 30.823578 
L 170.889601 30.823578 
L 170.533798 30.823578 
L 170.177995 30.823578 
L 169.822193 30.823578 
L 169.46639 30.823578 
L 169.110588 30.823578 
L 168.754785 30.823578 
L 168.398983 30.823578 
L 168.04318 30.823578 
L 167.687378 30.823578 
L 167.331575 30.823578 
L 166.975773 30.823578 
L 166.61997 30.823578 
L 166.264168 30.823578 
L 165.908365 30.823578 
L 165.552563 30.823578 
L 165.19676 30.823578 
L 164.840958 30.823578 
L 164.485155 30.823578 
L 164.129353 30.823578 
L 163.77355 30.823578 
L 163.417748 30.823578 
L 163.061945 30.823578 
L 162.706143 30.823578 
L 162.35034 30.823578 
L 161.994538 30.823578 
L 161.638735 30.823578 
L 161.282933 30.823578 
L 160.92713 30.823578 
L 160.571328 30.823578 
L 160.215525 30.823578 
L 159.859723 30.823578 
L 159.50392 30.823578 
L 159.148118 30.823578 
L 158.792315 30.823578 
L 158.436513 30.823578 
L 158.08071 30.823578 
L 157.724907 30.823578 
L 157.369105 30.823578 
L 157.013302 30.823578 
L 156.6575 30.823578 
L 156.301697 30.823578 
L 155.945895 30.823578 
L 155.590092 30.823578 
L 155.23429 30.823578 
L 154.878487 30.823578 
L 154.522685 30.823578 
L 154.166882 30.823578 
L 153.81108 30.823578 
L 153.455277 30.823578 
L 153.099475 30.823578 
L 152.743672 30.823578 
L 152.38787 30.823578 
L 152.032067 30.823578 
L 151.676265 30.823578 
L 151.320462 30.823578 
L 150.96466 30.823578 
L 150.608857 30.823578 
L 150.253055 30.823578 
L 149.897252 30.823578 
L 149.54145 30.823578 
L 149.185647 30.823578 
L 148.829845 30.823578 
L 148.474042 30.823578 
L 148.11824 30.823578 
L 147.762437 30.823578 
L 147.406635 30.823578 
L 147.050832 30.823578 
L 146.69503 30.823578 
L 146.339227 30.823578 
L 145.983425 30.823578 
L 145.627622 30.823578 
L 145.271819 30.823578 
L 144.916017 30.823578 
L 144.560214 30.823578 
L 144.204412 30.823578 
L 143.848609 30.823578 
L 143.492807 30.823578 
L 143.137004 30.823578 
L 142.781202 30.823578 
L 142.425399 30.823578 
L 142.069597 30.823578 
L 141.713794 30.823578 
L 141.357992 30.823578 
L 141.002189 30.823578 
L 140.646387 30.823578 
L 140.290584 30.823578 
L 139.934782 30.823578 
L 139.578979 30.823578 
L 139.223177 30.823578 
L 138.867374 30.823578 
L 138.511572 30.823578 
L 138.155769 30.823578 
L 137.799967 30.823578 
L 137.444164 30.823578 
L 137.088362 30.823578 
L 136.732559 30.823578 
L 136.376757 30.823578 
L 136.020954 30.823578 
L 135.665152 30.823578 
L 135.309349 30.823578 
L 134.953547 30.823578 
L 134.597744 30.823578 
L 134.241942 30.823578 
L 133.886139 30.823578 
L 133.530337 30.823578 
L 133.174534 30.823578 
L 132.818731 30.823578 
L 132.462929 30.823578 
L 132.107126 30.823578 
L 131.751324 30.823578 
L 131.395521 30.823578 
L 131.039719 30.823578 
L 130.683916 30.823578 
L 130.328114 30.823578 
L 129.972311 30.823578 
L 129.616509 30.823578 
L 129.260706 30.823578 
L 128.904904 30.823578 
L 128.549101 30.823578 
L 128.193299 30.823578 
L 127.837496 30.823578 
L 127.481694 30.823578 
L 127.125891 30.823578 
L 126.770089 30.823578 
L 126.414286 30.823578 
L 126.058484 30.823578 
L 125.702681 30.823578 
L 125.346879 30.823578 
L 124.991076 30.823578 
L 124.635274 30.823578 
L 124.279471 30.823578 
L 123.923669 30.823578 
L 123.567866 30.823578 
L 123.212064 30.823578 
L 122.856261 30.823578 
L 122.500459 30.823578 
L 122.144656 30.823578 
L 121.788854 30.823578 
L 121.433051 30.823578 
L 121.077249 30.823578 
L 120.721446 30.823578 
L 120.365644 30.823578 
L 120.009841 30.823578 
L 119.654038 30.823578 
L 119.298236 30.823578 
L 118.942433 30.823578 
L 118.586631 30.823578 
L 118.230828 30.823578 
L 117.875026 30.823578 
L 117.519223 30.823578 
L 117.163421 30.823578 
L 116.807618 30.823578 
L 116.451816 30.823578 
L 116.096013 30.823578 
L 115.740211 30.823578 
L 115.384408 30.823578 
L 115.028606 30.823578 
L 114.672803 30.823578 
L 114.317001 30.823578 
L 113.961198 30.823578 
L 113.605396 30.823578 
L 113.249593 30.823578 
L 112.893791 30.823578 
L 112.537988 30.823578 
L 112.182186 30.823578 
L 111.826383 30.823578 
L 111.470581 30.823578 
L 111.114778 30.823578 
L 110.758976 30.823578 
L 110.403173 30.823578 
L 110.047371 30.823578 
L 109.691568 30.823578 
L 109.335766 30.823578 
L 108.979963 30.823578 
L 108.624161 30.823578 
L 108.268358 30.823578 
L 107.912556 30.823578 
L 107.556753 30.823578 
L 107.20095 30.823578 
L 106.845148 30.823578 
L 106.489345 30.823578 
L 106.133543 30.823578 
L 105.77774 30.823578 
L 105.421938 30.823578 
L 105.066135 30.823578 
L 104.710333 30.823578 
L 104.35453 30.823578 
L 103.998728 30.823578 
L 103.642925 30.823578 
L 103.287123 30.823578 
L 102.93132 30.823578 
L 102.575518 30.823578 
L 102.219715 30.823578 
L 101.863913 30.823578 
L 101.50811 30.823578 
L 101.152308 30.823578 
L 100.796505 30.823578 
L 100.440703 30.823578 
L 100.0849 30.823578 
L 99.729098 30.823578 
L 99.373295 30.823578 
L 99.017493 30.823578 
L 98.66169 30.823578 
L 98.305888 30.823578 
L 97.950085 30.823578 
L 97.594283 30.823578 
L 97.23848 30.823578 
L 96.882678 30.823578 
L 96.526875 30.823578 
L 96.171073 30.823578 
L 95.81527 30.823578 
L 95.459468 30.823578 
L 95.103665 30.823578 
L 94.747862 30.823578 
L 94.39206 30.823578 
L 94.036257 30.823578 
L 93.680455 30.823578 
L 93.324652 30.823578 
L 92.96885 30.823578 
L 92.613047 30.823578 
L 92.257245 30.823578 
L 91.901442 30.823578 
L 91.54564 30.823578 
L 91.189837 30.823578 
L 90.834035 30.823578 
L 90.478232 30.823578 
L 90.12243 30.823578 
L 89.766627 30.823578 
L 89.410825 30.823578 
L 89.055022 30.823578 
L 88.69922 30.823578 
L 88.343417 30.823578 
L 87.987615 30.823578 
L 87.631812 30.823578 
L 87.27601 30.823578 
L 86.920207 30.823578 
L 86.564405 30.823578 
L 86.208602 30.823578 
L 85.8528 30.823578 
L 85.496997 30.823578 
L 85.141195 30.823578 
L 84.785392 30.823578 
L 84.42959 30.823578 
L 84.073787 30.823578 
L 83.717985 30.823578 
L 83.362182 30.823578 
L 83.00638 30.823578 
L 82.650577 30.823578 
L 82.294774 30.823578 
L 81.938972 30.823578 
L 81.583169 30.823578 
L 81.227367 30.823578 
L 80.871564 30.823578 
L 80.515762 30.823578 
L 80.159959 30.823578 
L 79.804157 30.823578 
L 79.448354 30.823578 
L 79.092552 30.823578 
L 78.736749 30.823578 
L 78.380947 30.823578 
L 78.025144 30.823578 
L 77.669342 30.823578 
L 77.313539 30.823578 
L 76.957737 30.823578 
L 76.601934 30.823578 
L 76.246132 30.823578 
L 75.890329 30.823578 
L 75.534527 30.823578 
L 75.178724 30.823578 
L 74.822922 30.823578 
L 74.467119 30.823578 
L 74.111317 30.823578 
L 73.755514 30.823578 
L 73.399712 30.823578 
L 73.043909 30.823578 
L 72.688107 30.823578 
L 72.332304 30.823578 
L 71.976502 30.823578 
L 71.620699 30.823578 
L 71.264897 30.823578 
L 70.909094 30.823578 
L 70.553292 30.823578 
L 70.197489 30.823578 
L 69.841686 30.823578 
L 69.485884 30.823578 
L 69.130081 30.823578 
L 68.774279 30.823578 
L 68.418476 30.823578 
L 68.062674 30.823578 
L 67.706871 30.823578 
L 67.351069 30.823578 
L 66.995266 30.823578 
L 66.639464 30.823578 
L 66.283661 30.823578 
L 65.927859 30.823578 
L 65.572056 30.823578 
L 65.216254 30.823578 
L 64.860451 30.823578 
L 64.504649 30.823578 
L 64.148846 30.823578 
L 63.793044 30.823578 
L 63.437241 30.823578 
L 63.081439 30.823578 
L 62.725636 30.823578 
L 62.369834 30.823578 
L 62.014031 30.823578 
L 61.658229 30.823578 
L 61.302426 30.823578 
L 60.946624 30.823578 
L 60.590821 30.823578 
L 60.235019 30.823578 
L 59.879216 30.823578 
L 59.523414 30.823578 
L 59.167611 30.823578 
L 58.811809 30.823578 
L 58.456006 30.823578 
L 58.100204 30.823578 
L 57.744401 30.823578 
L 57.388599 30.823578 
L 57.032796 30.823578 
L 56.676993 30.823578 
L 56.321191 30.823578 
L 55.965388 30.823578 
L 55.609586 30.823578 
L 55.253783 30.823578 
L 54.897981 30.823578 
L 54.542178 30.823578 
L 54.186376 30.823578 
L 53.830573 30.823578 
L 53.474771 30.823578 
L 53.118968 30.823578 
L 52.763166 30.823578 
L 52.407363 30.823578 
L 52.051561 30.823578 
L 51.695758 30.823578 
L 51.339956 30.823578 
L 50.984153 30.823578 
L 50.628351 30.823578 
L 50.272548 30.823578 
L 49.916746 30.823578 
L 49.560943 30.823578 
L 49.205141 30.823578 
L 48.849338 30.823578 
L 48.493536 30.823578 
L 48.137733 30.823578 
L 47.781931 30.823578 
L 47.426128 30.823578 
L 47.070326 30.823578 
L 46.714523 30.823578 
L 46.358721 30.823578 
L 46.002918 30.823578 
L 45.647116 30.823578 
L 45.291313 30.823578 
L 44.935511 30.823578 
L 44.579708 30.823578 
L 44.223905 30.823578 
L 43.868103 30.823578 
L 43.5123 30.823578 
L 43.156498 30.823578 
L 42.800695 30.823578 
L 42.444893 30.823578 
L 42.08909 30.823578 
L 41.733288 30.823578 
L 41.377485 30.823578 
L 41.021683 30.823578 
L 40.66588 30.823578 
L 40.310078 30.823578 
L 39.954275 30.823578 
L 39.598473 30.823578 
L 39.24267 30.823578 
L 38.886868 30.823578 
L 38.531065 30.823578 
L 38.175263 30.823578 
L 37.81946 30.823578 
z
" clip-path="url(#p3b28130d0f)" style="fill: #1f77b4; fill-opacity: 0.25"/>
   </g>
   <g id="matplotlib.axis_1">
    <g id="xtick_1">
     <g id="line2d_1">
      <defs>
       <path id="m806ba08096" d="M 0 0 
L 0 3.5 
" style="stroke: #000000; stroke-width: 0.8"/>
      </defs>
      <g>
       <use xlink:href="#m806ba08096" x="37.81946" y="145.8" style="stroke: #000000; stroke-width: 0.8"/>
      </g>
     </g>
     <g id="text_1">
      <!-- 0 -->
      <g transform="translate(34.63821 160.398438) scale(0.1 -0.1)">
       <defs>
        <path id="DejaVuSans-30" d="M 2034 4250 
Q 1547 4250 1301 3770 
Q 1056 3291 1056 2328 
Q 1056 1369 1301 889 
Q 1547 409 2034 409 
Q 2525 409 2770 889 
Q 3016 1369 3016 2328 
Q 3016 3291 2770 3770 
Q 2525 4250 2034 4250 
z
M 2034 4750 
Q 2819 4750 3233 4129 
Q 3647 3509 3647 2328 
Q 3647 1150 3233 529 
Q 2819 -91 2034 -91 
Q 1250 -91 836 529 
Q 422 1150 422 2328 
Q 422 3509 836 4129 
Q 1250 4750 2034 4750 
z
" transform="scale(0.015625)"/>
       </defs>
       <use xlink:href="#DejaVuSans-30"/>
      </g>
     </g>
    </g>
    <g id="xtick_2">
     <g id="line2d_2">
      <g>
       <use xlink:href="#m806ba08096" x="73.328551" y="145.8" style="stroke: #000000; stroke-width: 0.8"/>
      </g>
     </g>
     <g id="text_2">
      <!-- 1 -->
      <g transform="translate(70.147301 160.398438) scale(0.1 -0.1)">
       <defs>
        <path id="DejaVuSans-31" d="M 794 531 
L 1825 531 
L 1825 4091 
L 703 3866 
L 703 4441 
L 1819 4666 
L 2450 4666 
L 2450 531 
L 3481 531 
L 3481 0 
L 794 0 
L 794 531 
z
" transform="scale(0.015625)"/>
       </defs>
       <use xlink:href="#DejaVuSans-31"/>
      </g>
     </g>
    </g>
    <g id="xtick_3">
     <g id="line2d_3">
      <g>
       <use xlink:href="#m806ba08096" x="108.837642" y="145.8" style="stroke: #000000; stroke-width: 0.8"/>
      </g>
     </g>
     <g id="text_3">
      <!-- 2 -->
      <g transform="translate(105.656392 160.398438) scale(0.1 -0.1)">
       <defs>
        <path id="DejaVuSans-32" d="M 1228 531 
L 3431 531 
L 3431 0 
L 469 0 
L 469 531 
Q 828 903 1448 1529 
Q 2069 2156 2228 2338 
Q 2531 2678 2651 2914 
Q 2772 3150 2772 3378 
Q 2772 3750 2511 3984 
Q 2250 4219 1831 4219 
Q 1534 4219 1204 4116 
Q 875 4013 500 3803 
L 500 4441 
Q 881 4594 1212 4672 
Q 1544 4750 1819 4750 
Q 2544 4750 2975 4387 
Q 3406 4025 3406 3419 
Q 3406 3131 3298 2873 
Q 3191 2616 2906 2266 
Q 2828 2175 2409 1742 
Q 1991 1309 1228 531 
z
" transform="scale(0.015625)"/>
       </defs>
       <use xlink:href="#DejaVuSans-32"/>
      </g>
     </g>
    </g>
    <g id="xtick_4">
     <g id="line2d_4">
      <g>
       <use xlink:href="#m806ba08096" x="144.346733" y="145.8" style="stroke: #000000; stroke-width: 0.8"/>
      </g>
     </g>
     <g id="text_4">
      <!-- 3 -->
      <g transform="translate(141.165483 160.398438) scale(0.1 -0.1)">
       <defs>
        <path id="DejaVuSans-33" d="M 2597 2516 
Q 3050 2419 3304 2112 
Q 3559 1806 3559 1356 
Q 3559 666 3084 287 
Q 2609 -91 1734 -91 
Q 1441 -91 1130 -33 
Q 819 25 488 141 
L 488 750 
Q 750 597 1062 519 
Q 1375 441 1716 441 
Q 2309 441 2620 675 
Q 2931 909 2931 1356 
Q 2931 1769 2642 2001 
Q 2353 2234 1838 2234 
L 1294 2234 
L 1294 2753 
L 1863 2753 
Q 2328 2753 2575 2939 
Q 2822 3125 2822 3475 
Q 2822 3834 2567 4026 
Q 2313 4219 1838 4219 
Q 1578 4219 1281 4162 
Q 984 4106 628 3988 
L 628 4550 
Q 988 4650 1302 4700 
Q 1616 4750 1894 4750 
Q 2613 4750 3031 4423 
Q 3450 4097 3450 3541 
Q 3450 3153 3228 2886 
Q 3006 2619 2597 2516 
z
" transform="scale(0.015625)"/>
       </defs>
       <use xlink:href="#DejaVuSans-33"/>
      </g>
     </g>
    </g>
    <g id="xtick_5">
     <g id="line2d_5">
      <g>
       <use xlink:href="#m806ba08096" x="179.855824" y="145.8" style="stroke: #000000; stroke-width: 0.8"/>
      </g>
     </g>
     <g id="text_5">
      <!-- 4 -->
      <g transform="translate(176.674574 160.398438) scale(0.1 -0.1)">
       <defs>
        <path id="DejaVuSans-34" d="M 2419 4116 
L 825 1625 
L 2419 1625 
L 2419 4116 
z
M 2253 4666 
L 3047 4666 
L 3047 1625 
L 3713 1625 
L 3713 1100 
L 3047 1100 
L 3047 0 
L 2419 0 
L 2419 1100 
L 313 1100 
L 313 1709 
L 2253 4666 
z
" transform="scale(0.015625)"/>
       </defs>
       <use xlink:href="#DejaVuSans-34"/>
      </g>
     </g>
    </g>
    <g id="xtick_6">
     <g id="line2d_6">
      <g>
       <use xlink:href="#m806ba08096" x="215.364915" y="145.8" style="stroke: #000000; stroke-width: 0.8"/>
      </g>
     </g>
     <g id="text_6">
      <!-- 5 -->
      <g transform="translate(212.183665 160.398438) scale(0.1 -0.1)">
       <defs>
        <path id="DejaVuSans-35" d="M 691 4666 
L 3169 4666 
L 3169 4134 
L 1269 4134 
L 1269 2991 
Q 1406 3038 1543 3061 
Q 1681 3084 1819 3084 
Q 2600 3084 3056 2656 
Q 3513 2228 3513 1497 
Q 3513 744 3044 326 
Q 2575 -91 1722 -91 
Q 1428 -91 1123 -41 
Q 819 9 494 109 
L 494 744 
Q 775 591 1075 516 
Q 1375 441 1709 441 
Q 2250 441 2565 725 
Q 2881 1009 2881 1497 
Q 2881 1984 2565 2268 
Q 2250 2553 1709 2553 
Q 1456 2553 1204 2497 
Q 953 2441 691 2322 
L 691 4666 
z
" transform="scale(0.015625)"/>
       </defs>
       <use xlink:href="#DejaVuSans-35"/>
      </g>
     </g>
    </g>
   </g>
   <g id="matplotlib.axis_2">
    <g id="ytick_1">
     <g id="line2d_7">
      <defs>
       <path id="m4f5fbf523b" d="M 0 0 
L -3.5 0 
" style="stroke: #000000; stroke-width: 0.8"/>
      </defs>
      <g>
       <use xlink:href="#m4f5fbf523b" x="28.942188" y="133.565064" style="stroke: #000000; stroke-width: 0.8"/>
      </g>
     </g>
     <g id="text_7">
      <!-- −2 -->
      <g transform="translate(7.2 137.364282) scale(0.1 -0.1)">
       <defs>
        <path id="DejaVuSans-2212" d="M 678 2272 
L 4684 2272 
L 4684 1741 
L 678 1741 
L 678 2272 
z
" transform="scale(0.015625)"/>
       </defs>
       <use xlink:href="#DejaVuSans-2212"/>
       <use xlink:href="#DejaVuSans-32" x="83.789062"/>
      </g>
     </g>
    </g>
    <g id="ytick_2">
     <g id="line2d_8">
      <g>
       <use xlink:href="#m4f5fbf523b" x="28.942188" y="107.879692" style="stroke: #000000; stroke-width: 0.8"/>
      </g>
     </g>
     <g id="text_8">
      <!-- −1 -->
      <g transform="translate(7.2 111.678911) scale(0.1 -0.1)">
       <use xlink:href="#DejaVuSans-2212"/>
       <use xlink:href="#DejaVuSans-31" x="83.789062"/>
      </g>
     </g>
    </g>
    <g id="ytick_3">
     <g id="line2d_9">
      <g>
       <use xlink:href="#m4f5fbf523b" x="28.942188" y="82.194321" style="stroke: #000000; stroke-width: 0.8"/>
      </g>
     </g>
     <g id="text_9">
      <!-- 0 -->
      <g transform="translate(15.579688 85.993539) scale(0.1 -0.1)">
       <use xlink:href="#DejaVuSans-30"/>
      </g>
     </g>
    </g>
    <g id="ytick_4">
     <g id="line2d_10">
      <g>
       <use xlink:href="#m4f5fbf523b" x="28.942188" y="56.508949" style="stroke: #000000; stroke-width: 0.8"/>
      </g>
     </g>
     <g id="text_10">
      <!-- 1 -->
      <g transform="translate(15.579688 60.308168) scale(0.1 -0.1)">
       <use xlink:href="#DejaVuSans-31"/>
      </g>
     </g>
    </g>
    <g id="ytick_5">
     <g id="line2d_11">
      <g>
       <use xlink:href="#m4f5fbf523b" x="28.942188" y="30.823578" style="stroke: #000000; stroke-width: 0.8"/>
      </g>
     </g>
     <g id="text_11">
      <!-- 2 -->
      <g transform="translate(15.579688 34.622796) scale(0.1 -0.1)">
       <use xlink:href="#DejaVuSans-32"/>
      </g>
     </g>
    </g>
   </g>
   <g id="line2d_12">
    <path d="M 37.81946 77.971354 
L 38.886868 78.181907 
L 39.954275 78.107941 
L 41.021683 77.729101 
L 42.08909 77.031552 
L 43.156498 76.009336 
L 44.223905 74.665293 
L 45.291313 73.011666 
L 46.714523 70.364066 
L 48.493536 66.454784 
L 50.628351 61.157116 
L 55.253783 49.406384 
L 57.032796 45.52657 
L 58.456006 42.91198 
L 59.879216 40.821412 
L 60.946624 39.632547 
L 62.014031 38.785699 
L 63.081439 38.287629 
L 63.793044 38.149154 
L 64.504649 38.163216 
L 65.572056 38.462159 
L 66.639464 39.078395 
L 67.706871 39.988244 
L 68.774279 41.162667 
L 70.197489 43.081718 
L 71.976502 45.921739 
L 74.467119 50.384569 
L 78.380947 57.441735 
L 80.515762 60.832105 
L 82.294774 63.262988 
L 84.073787 65.305235 
L 85.8528 66.976621 
L 87.631812 68.328508 
L 89.766627 69.628549 
L 92.257245 70.854559 
L 95.459468 72.159133 
L 97.950085 72.963506 
L 100.0849 73.407228 
L 101.863913 73.513926 
L 103.287123 73.377731 
L 104.710333 73.015031 
L 106.133543 72.411245 
L 107.556753 71.567302 
L 109.335766 70.204217 
L 111.470581 68.219077 
L 117.163421 62.629283 
L 118.942433 61.315931 
L 120.365644 60.552463 
L 121.788854 60.080926 
L 122.856261 59.928199 
L 123.923669 59.947356 
L 125.346879 60.22873 
L 126.770089 60.776155 
L 128.193299 61.550526 
L 129.972311 62.7678 
L 132.462929 64.775104 
L 138.511572 70.094118 
L 145.271819 75.900334 
L 147.762437 77.802891 
L 149.54145 78.930004 
L 150.96466 79.616337 
L 152.38787 80.052227 
L 153.455277 80.183781 
L 154.522685 80.127012 
L 155.590092 79.867432 
L 156.6575 79.395613 
L 157.724907 78.708076 
L 159.148118 77.461971 
L 160.571328 75.864274 
L 162.35034 73.445315 
L 164.485155 70.101202 
L 169.822193 61.509587 
L 171.601206 59.176808 
L 173.024416 57.666641 
L 174.447626 56.522883 
L 175.515033 55.921704 
L 176.582441 55.545096 
L 177.649848 55.390717 
L 178.717256 55.450715 
L 179.784663 55.712379 
L 181.207873 56.345384 
L 182.631083 57.25816 
L 184.410096 58.708727 
L 186.544911 60.755781 
L 194.016764 68.221261 
L 196.151579 69.961621 
L 198.286394 71.413364 
L 200.421209 72.560219 
L 202.556024 73.412175 
L 204.690839 74.008299 
L 207.537259 74.53385 
L 211.451087 75.221332 
L 213.2301 75.735558 
L 215.009112 76.50073 
L 215.364915 76.691246 
L 215.364915 76.691246 
" clip-path="url(#p3b28130d0f)" style="fill: none; stroke: #000000; stroke-opacity: 0.5; stroke-width: 1.5; stroke-linecap: square"/>
   </g>
   <g id="line2d_13">
    <path d="M 37.81946 121.544905 
L 39.954275 120.593344 
L 44.935511 118.544582 
L 46.714523 117.527083 
L 48.493536 116.279545 
L 50.628351 114.521537 
L 55.965388 109.944652 
L 57.744401 108.790293 
L 59.167611 108.118872 
L 60.590821 107.697194 
L 62.014031 107.525146 
L 63.437241 107.580048 
L 65.216254 107.900934 
L 68.418476 108.814149 
L 70.553292 109.33287 
L 72.332304 109.526079 
L 73.755514 109.457248 
L 75.178724 109.157595 
L 76.601934 108.613721 
L 78.025144 107.825937 
L 79.448354 106.805293 
L 81.227367 105.229682 
L 83.00638 103.358668 
L 85.141195 100.773333 
L 87.27601 97.851309 
L 89.410825 94.596474 
L 91.54564 90.983504 
L 93.680455 86.972736 
L 95.81527 82.530177 
L 98.305888 76.79218 
L 101.152308 69.579787 
L 105.421938 57.975264 
L 109.335766 47.507106 
L 111.826383 41.483064 
L 113.961198 36.958345 
L 115.740211 33.728138 
L 117.519223 31.025486 
L 118.942433 29.243243 
L 120.365644 27.781489 
L 121.788854 26.610409 
L 123.212064 25.689098 
L 124.991076 24.813151 
L 127.125891 24.025497 
L 132.818731 22.075879 
L 134.953547 21.065509 
L 137.444164 19.624697 
L 141.357992 17.026436 
L 144.204412 15.249831 
L 145.983425 14.366741 
L 147.406635 13.855859 
L 148.829845 13.560587 
L 150.253055 13.512652 
L 151.676265 13.735825 
L 153.099475 14.245071 
L 154.522685 15.046239 
L 155.945895 16.136462 
L 157.369105 17.505093 
L 159.148118 19.581201 
L 160.92713 22.023536 
L 163.061945 25.372509 
L 165.552563 29.76143 
L 168.398983 35.299927 
L 171.245403 41.315397 
L 174.447626 48.592215 
L 178.361453 58.077068 
L 185.477504 75.459534 
L 187.968121 80.861788 
L 190.102936 84.925742 
L 191.881949 87.82941 
L 193.660961 90.254977 
L 195.084171 91.846099 
L 196.507382 93.138365 
L 197.930592 94.156378 
L 199.353802 94.936704 
L 201.132814 95.649566 
L 203.623432 96.350078 
L 207.537259 97.41655 
L 209.672075 98.2773 
L 211.451087 99.233324 
L 213.2301 100.420754 
L 215.364915 102.126182 
L 215.364915 102.126182 
" clip-path="url(#p3b28130d0f)" style="fill: none; stroke: #000000; stroke-opacity: 0.5; stroke-width: 1.5; stroke-linecap: square"/>
   </g>
   <g id="line2d_14">
    <path d="M 37.81946 84.547159 
L 39.598473 82.150402 
L 41.733288 79.722222 
L 46.358721 74.661433 
L 48.849338 71.487599 
L 55.609586 62.438777 
L 57.032796 61.080761 
L 58.100204 60.331157 
L 59.167611 59.850028 
L 60.235019 59.662692 
L 61.302426 59.784604 
L 62.369834 60.220358 
L 63.437241 60.963183 
L 64.504649 61.995056 
L 65.927859 63.769561 
L 67.351069 65.912275 
L 69.485884 69.556618 
L 73.043909 75.653376 
L 74.467119 77.712658 
L 75.890329 79.38295 
L 76.957737 80.326937 
L 78.025144 80.974442 
L 79.092552 81.305451 
L 80.159959 81.30803 
L 81.227367 80.978151 
L 82.294774 80.319431 
L 83.362182 79.342777 
L 84.42959 78.065909 
L 85.8528 75.938969 
L 87.27601 73.395257 
L 89.055022 69.768271 
L 96.171073 54.641895 
L 97.594283 52.401932 
L 98.66169 51.063582 
L 99.729098 50.058274 
L 100.796505 49.413475 
L 101.50811 49.193288 
L 102.219715 49.144584 
L 102.93132 49.268278 
L 103.642925 49.563216 
L 104.710333 50.319207 
L 105.77774 51.433874 
L 106.845148 52.879009 
L 108.268358 55.25643 
L 110.047371 58.805087 
L 112.537988 64.441573 
L 117.163421 75.079638 
L 119.298236 79.394542 
L 121.077249 82.526141 
L 122.856261 85.1917 
L 124.279471 86.978947 
L 125.702681 88.458424 
L 127.125891 89.631017 
L 128.549101 90.496662 
L 129.972311 91.053625 
L 131.039719 91.26732 
L 132.107126 91.305571 
L 133.174534 91.169368 
L 134.597744 90.722673 
L 136.020954 89.989837 
L 137.444164 89.002455 
L 139.223177 87.484589 
L 145.627622 81.649493 
L 147.050832 80.83682 
L 148.11824 80.457834 
L 149.185647 80.303118 
L 150.253055 80.388027 
L 151.320462 80.718894 
L 152.38787 81.292522 
L 153.455277 82.09621 
L 154.878487 83.486764 
L 156.6575 85.630096 
L 159.50392 89.545837 
L 161.994538 92.881697 
L 163.77355 94.915455 
L 165.19676 96.232388 
L 166.61997 97.236955 
L 168.04318 97.926526 
L 169.46639 98.327069 
L 170.889601 98.48963 
L 172.668613 98.466499 
L 176.938243 98.308764 
L 178.361453 98.487636 
L 179.784663 98.865796 
L 181.207873 99.456222 
L 182.986886 100.464687 
L 185.833306 102.439927 
L 187.968121 103.821375 
L 189.391331 104.46681 
L 190.458739 104.71066 
L 191.526146 104.685694 
L 192.237751 104.493061 
L 192.949356 104.142337 
L 193.660961 103.620126 
L 194.728369 102.489866 
L 195.795776 100.91558 
L 196.863184 98.876213 
L 197.930592 96.36308 
L 199.353802 92.285298 
L 200.777012 87.424499 
L 202.556024 80.39211 
L 204.690839 70.911863 
L 211.095285 41.675593 
L 212.874297 34.935854 
L 214.297507 30.326031 
L 215.364915 27.370284 
L 215.364915 27.370284 
" clip-path="url(#p3b28130d0f)" style="fill: none; stroke: #000000; stroke-opacity: 0.5; stroke-width: 1.5; stroke-linecap: square"/>
   </g>
   <g id="line2d_15">
    <path d="M 37.81946 79.819831 
L 39.954275 84.202164 
L 41.377485 86.72777 
L 42.444893 88.29338 
L 43.5123 89.504513 
L 44.579708 90.304028 
L 45.291313 90.584747 
L 46.002918 90.650504 
L 46.714523 90.493034 
L 47.426128 90.106868 
L 48.137733 89.489493 
L 48.849338 88.641411 
L 49.916746 86.94531 
L 50.984153 84.763435 
L 52.407363 81.167976 
L 53.830573 76.907547 
L 55.965388 69.627681 
L 61.658229 49.463219 
L 63.437241 44.214339 
L 64.860451 40.671893 
L 66.283661 37.782946 
L 67.351069 36.062361 
L 68.418476 34.724174 
L 69.485884 33.758725 
L 70.553292 33.149118 
L 71.620699 32.873076 
L 72.688107 32.904782 
L 73.755514 33.216799 
L 74.822922 33.781775 
L 75.890329 34.573974 
L 77.313539 35.944685 
L 78.736749 37.635486 
L 80.515762 40.154727 
L 82.294774 43.098831 
L 84.073787 46.46417 
L 85.8528 50.260674 
L 87.987615 55.395953 
L 90.12243 61.140691 
L 92.613047 68.487292 
L 100.0849 91.076827 
L 101.863913 95.486031 
L 103.287123 98.464666 
L 104.710333 100.874927 
L 105.77774 102.278439 
L 106.845148 103.321973 
L 107.912556 104.003036 
L 108.979963 104.328278 
L 110.047371 104.313294 
L 111.114778 103.982121 
L 112.182186 103.366434 
L 113.249593 102.504457 
L 114.672803 101.047844 
L 116.807618 98.437264 
L 120.721446 93.534068 
L 122.144656 92.074106 
L 123.567866 90.931383 
L 124.635274 90.324552 
L 125.702681 89.957721 
L 126.770089 89.847819 
L 127.837496 90.006309 
L 128.904904 90.439455 
L 129.972311 91.14862 
L 131.039719 92.130616 
L 132.107126 93.378083 
L 133.530337 95.43439 
L 134.953547 97.905871 
L 136.732559 101.506813 
L 138.867374 106.425909 
L 142.069597 114.512034 
L 145.627622 123.379232 
L 147.406635 127.283509 
L 148.829845 129.960048 
L 150.253055 132.126939 
L 151.320462 133.361016 
L 152.38787 134.221852 
L 153.099475 134.574546 
L 153.81108 134.742698 
L 154.522685 134.721647 
L 155.23429 134.508526 
L 155.945895 134.102348 
L 156.6575 133.504116 
L 157.724907 132.253884 
L 158.792315 130.597834 
L 159.859723 128.565283 
L 161.282933 125.338587 
L 163.061945 120.644121 
L 165.908365 112.27609 
L 169.110588 103.001421 
L 170.889601 98.515543 
L 172.312811 95.470106 
L 173.736021 92.990494 
L 174.803428 91.525868 
L 175.870836 90.402321 
L 176.938243 89.608586 
L 178.005651 89.121607 
L 179.073058 88.907527 
L 180.140466 88.923174 
L 181.563676 89.212979 
L 183.698491 89.948477 
L 185.833306 90.626451 
L 187.256516 90.831931 
L 188.323924 90.781556 
L 189.391331 90.519578 
L 190.458739 90.024708 
L 191.526146 89.286961 
L 192.593554 88.307827 
L 194.016764 86.650098 
L 195.439974 84.644569 
L 197.574789 81.174424 
L 202.200222 73.381875 
L 203.979234 70.902389 
L 205.402444 69.307417 
L 206.469852 68.373974 
L 207.537259 67.680423 
L 208.604667 67.231109 
L 209.672075 67.022499 
L 210.739482 67.043715 
L 211.80689 67.277309 
L 213.2301 67.878502 
L 214.65331 68.748576 
L 215.364915 69.260664 
L 215.364915 69.260664 
" clip-path="url(#p3b28130d0f)" style="fill: none; stroke: #000000; stroke-opacity: 0.5; stroke-width: 1.5; stroke-linecap: square"/>
   </g>
   <g id="line2d_16">
    <path d="M 37.81946 59.193849 
L 39.24267 58.11404 
L 41.021683 56.403272 
L 43.5123 53.607321 
L 46.358721 50.457052 
L 47.781931 49.168208 
L 48.849338 48.424109 
L 49.916746 47.925565 
L 50.984153 47.719591 
L 51.695758 47.76656 
L 52.407363 47.974915 
L 53.118968 48.35544 
L 53.830573 48.917698 
L 54.897981 50.119401 
L 55.965388 51.769381 
L 57.032796 53.880345 
L 58.100204 56.455725 
L 59.523414 60.599291 
L 60.946624 65.511975 
L 62.725636 72.615123 
L 64.860451 82.254769 
L 68.418476 99.683013 
L 71.264897 113.232445 
L 73.043909 120.814863 
L 74.467119 126.134868 
L 75.890329 130.65424 
L 76.957737 133.461615 
L 78.025144 135.74089 
L 79.092552 137.47906 
L 80.159959 138.675357 
L 80.871564 139.176841 
L 81.583169 139.448188 
L 82.294774 139.497446 
L 83.00638 139.334483 
L 83.717985 138.970773 
L 84.785392 138.07725 
L 85.8528 136.809091 
L 86.920207 135.217775 
L 88.343417 132.684972 
L 90.12243 129.031136 
L 92.96885 122.559244 
L 99.729098 106.991681 
L 103.998728 97.805382 
L 108.268358 89.100122 
L 111.114778 83.71952 
L 113.249593 80.067238 
L 115.028606 77.374782 
L 116.807618 75.082037 
L 118.230828 73.585039 
L 119.654038 72.425955 
L 120.721446 71.797702 
L 121.788854 71.389415 
L 122.856261 71.211295 
L 123.923669 71.271519 
L 124.991076 71.575759 
L 126.058484 72.126742 
L 127.125891 72.923743 
L 128.193299 73.962085 
L 129.616509 75.705727 
L 131.039719 77.827438 
L 132.818731 80.933972 
L 134.953547 85.152496 
L 141.002189 97.477465 
L 142.781202 100.441009 
L 144.204412 102.387635 
L 145.271819 103.559151 
L 146.339227 104.461899 
L 147.406635 105.082995 
L 148.474042 105.415703 
L 149.54145 105.459262 
L 150.608857 105.218511 
L 151.676265 104.703339 
L 152.743672 103.9279 
L 153.81108 102.90975 
L 155.23429 101.209441 
L 156.6575 99.164291 
L 158.436513 96.201458 
L 160.571328 92.17423 
L 163.417748 86.232759 
L 167.687378 76.656894 
L 171.957008 67.224755 
L 174.091823 63.040017 
L 175.870836 60.067311 
L 177.294046 58.135803 
L 178.361453 56.994703 
L 179.428861 56.145269 
L 180.496268 55.606491 
L 181.563676 55.390222 
L 182.631083 55.5001 
L 183.698491 55.930857 
L 184.765899 56.668002 
L 185.833306 57.687903 
L 187.256516 59.430767 
L 189.035529 62.084714 
L 191.881949 66.879685 
L 194.372566 70.935091 
L 196.151579 73.392366 
L 197.574789 74.965927 
L 198.642197 75.883069 
L 199.709604 76.564691 
L 200.777012 77.013402 
L 201.844419 77.242333 
L 202.911827 77.274464 
L 204.335037 77.066846 
L 206.114049 76.539658 
L 209.672075 75.406882 
L 211.095285 75.219377 
L 212.162692 75.259376 
L 213.2301 75.481258 
L 214.297507 75.899256 
L 215.364915 76.51758 
L 215.364915 76.51758 
" clip-path="url(#p3b28130d0f)" style="fill: none; stroke: #000000; stroke-opacity: 0.5; stroke-width: 1.5; stroke-linecap: square"/>
   </g>
   <g id="line2d_17">
    <path d="M 37.81946 82.194321 
L 215.364915 82.194321 
L 215.364915 82.194321 
" clip-path="url(#p3b28130d0f)" style="fill: none; stroke: #1f77b4; stroke-width: 2; stroke-linecap: square"/>
   </g>
   <g id="patch_3">
    <path d="M 28.942188 145.8 
L 28.942188 7.2 
" style="fill: none; stroke: #000000; stroke-width: 0.8; stroke-linejoin: miter; stroke-linecap: square"/>
   </g>
   <g id="patch_4">
    <path d="M 224.242188 145.8 
L 224.242188 7.2 
" style="fill: none; stroke: #000000; stroke-width: 0.8; stroke-linejoin: miter; stroke-linecap: square"/>
   </g>
   <g id="patch_5">
    <path d="M 28.942187 145.8 
L 224.242188 145.8 
" style="fill: none; stroke: #000000; stroke-width: 0.8; stroke-linejoin: miter; stroke-linecap: square"/>
   </g>
   <g id="patch_6">
    <path d="M 28.942187 7.2 
L 224.242188 7.2 
" style="fill: none; stroke: #000000; stroke-width: 0.8; stroke-linejoin: miter; stroke-linecap: square"/>
   </g>
  </g>
 </g>
 <defs>
  <clipPath id="p3b28130d0f">
   <rect x="28.942188" y="7.2" width="195.3" height="138.6"/>
  </clipPath>
 </defs>
</svg>
