<?xml version="1.0" encoding="utf-8" standalone="no"?>
<!DOCTYPE svg PUBLIC "-//W3C//DTD SVG 1.1//EN"
  "http://www.w3.org/Graphics/SVG/1.1/DTD/svg11.dtd">
<svg xmlns:xlink="http://www.w3.org/1999/xlink" width="231.442188pt" height="169.678125pt" viewBox="0 0 231.442188 169.678125" xmlns="http://www.w3.org/2000/svg" version="1.1">
 <metadata>
  <rdf:RDF xmlns:dc="http://purl.org/dc/elements/1.1/" xmlns:cc="http://creativecommons.org/ns#" xmlns:rdf="http://www.w3.org/1999/02/22-rdf-syntax-ns#">
   <cc:Work>
    <dc:type rdf:resource="http://purl.org/dc/dcmitype/StillImage"/>
    <dc:date>2025-07-01T15:21:45.794945</dc:date>
    <dc:format>image/svg+xml</dc:format>
    <dc:creator>
     <cc:Agent>
      <dc:title>Matplotlib v3.7.2, https://matplotlib.org/</dc:title>
     </cc:Agent>
    </dc:creator>
   </cc:Work>
  </rdf:RDF>
 </metadata>
 <defs>
  <style type="text/css">*{stroke-linejoin: round; stroke-linecap: butt}</style>
 </defs>
 <g id="figure_1">
  <g id="patch_1">
   <path d="M 0 169.678125 
L 231.442188 169.678125 
L 231.442188 0 
L 0 0 
z
" style="fill: #ffffff"/>
  </g>
  <g id="axes_1">
   <g id="patch_2">
    <path d="M 28.942188 145.8 
L 224.242188 145.8 
L 224.242188 7.2 
L 28.942188 7.2 
z
" style="fill: #ffffff"/>
   </g>
   <g id="PolyCollection_1">
    <path d="M 37.81946 13.5 
L 37.81946 126.600438 
L 38.175263 126.600438 
L 38.531065 126.600438 
L 38.886868 126.600438 
L 39.24267 126.600438 
L 39.598473 126.600438 
L 39.954275 126.600438 
L 40.310078 126.600438 
L 40.66588 126.600438 
L 41.021683 126.600438 
L 41.377485 126.600438 
L 41.733288 126.600438 
L 42.08909 126.600438 
L 42.444893 126.600438 
L 42.800695 126.600438 
L 43.156498 126.600438 
L 43.5123 126.600438 
L 43.868103 126.600438 
L 44.223905 126.600438 
L 44.579708 126.600438 
L 44.935511 126.600438 
L 45.291313 126.600438 
L 45.647116 126.600438 
L 46.002918 126.600438 
L 46.358721 126.600438 
L 46.714523 126.600438 
L 47.070326 126.600438 
L 47.426128 126.600438 
L 47.781931 126.600438 
L 48.137733 126.600438 
L 48.493536 126.600438 
L 48.849338 126.600438 
L 49.205141 126.600438 
L 49.560943 126.600438 
L 49.916746 126.600438 
L 50.272548 126.600438 
L 50.628351 126.600438 
L 50.984153 126.600438 
L 51.339956 126.600438 
L 51.695758 126.600438 
L 52.051561 126.600438 
L 52.407363 126.600438 
L 52.763166 126.600438 
L 53.118968 126.600438 
L 53.474771 126.600438 
L 53.830573 126.600438 
L 54.186376 126.600438 
L 54.542178 126.600438 
L 54.897981 126.600438 
L 55.253783 126.600438 
L 55.609586 126.600438 
L 55.965388 126.600438 
L 56.321191 126.600438 
L 56.676993 126.600438 
L 57.032796 126.600438 
L 57.388599 126.600438 
L 57.744401 126.600438 
L 58.100204 126.600438 
L 58.456006 126.600438 
L 58.811809 126.600438 
L 59.167611 126.600438 
L 59.523414 126.600438 
L 59.879216 126.600438 
L 60.235019 126.600438 
L 60.590821 126.600438 
L 60.946624 126.600438 
L 61.302426 126.600438 
L 61.658229 126.600438 
L 62.014031 126.600438 
L 62.369834 126.600438 
L 62.725636 126.600438 
L 63.081439 126.600438 
L 63.437241 126.600438 
L 63.793044 126.600438 
L 64.148846 126.600438 
L 64.504649 126.600438 
L 64.860451 126.600438 
L 65.216254 126.600438 
L 65.572056 126.600438 
L 65.927859 126.600438 
L 66.283661 126.600438 
L 66.639464 126.600438 
L 66.995266 126.600438 
L 67.351069 126.600438 
L 67.706871 126.600438 
L 68.062674 126.600438 
L 68.418476 126.600438 
L 68.774279 126.600438 
L 69.130081 126.600438 
L 69.485884 126.600438 
L 69.841686 126.600438 
L 70.197489 126.600438 
L 70.553292 126.600438 
L 70.909094 126.600438 
L 71.264897 126.600438 
L 71.620699 126.600438 
L 71.976502 126.600438 
L 72.332304 126.600438 
L 72.688107 126.600438 
L 73.043909 126.600438 
L 73.399712 126.600438 
L 73.755514 126.600438 
L 74.111317 126.600438 
L 74.467119 126.600438 
L 74.822922 126.600438 
L 75.178724 126.600438 
L 75.534527 126.600438 
L 75.890329 126.600438 
L 76.246132 126.600438 
L 76.601934 126.600438 
L 76.957737 126.600438 
L 77.313539 126.600438 
L 77.669342 126.600438 
L 78.025144 126.600438 
L 78.380947 126.600438 
L 78.736749 126.600438 
L 79.092552 126.600438 
L 79.448354 126.600438 
L 79.804157 126.600438 
L 80.159959 126.600438 
L 80.515762 126.600438 
L 80.871564 126.600438 
L 81.227367 126.600438 
L 81.583169 126.600438 
L 81.938972 126.600438 
L 82.294774 126.600438 
L 82.650577 126.600438 
L 83.00638 126.600438 
L 83.362182 126.600438 
L 83.717985 126.600438 
L 84.073787 126.600438 
L 84.42959 126.600438 
L 84.785392 126.600438 
L 85.141195 126.600438 
L 85.496997 126.600438 
L 85.8528 126.600438 
L 86.208602 126.600438 
L 86.564405 126.600438 
L 86.920207 126.600438 
L 87.27601 126.600438 
L 87.631812 126.600438 
L 87.987615 126.600438 
L 88.343417 126.600438 
L 88.69922 126.600438 
L 89.055022 126.600438 
L 89.410825 126.600438 
L 89.766627 126.600438 
L 90.12243 126.600438 
L 90.478232 126.600438 
L 90.834035 126.600438 
L 91.189837 126.600438 
L 91.54564 126.600438 
L 91.901442 126.600438 
L 92.257245 126.600438 
L 92.613047 126.600438 
L 92.96885 126.600438 
L 93.324652 126.600438 
L 93.680455 126.600438 
L 94.036257 126.600438 
L 94.39206 126.600438 
L 94.747862 126.600438 
L 95.103665 126.600438 
L 95.459468 126.600438 
L 95.81527 126.600438 
L 96.171073 126.600438 
L 96.526875 126.600438 
L 96.882678 126.600438 
L 97.23848 126.600438 
L 97.594283 126.600438 
L 97.950085 126.600438 
L 98.305888 126.600438 
L 98.66169 126.600438 
L 99.017493 126.600438 
L 99.373295 126.600438 
L 99.729098 126.600438 
L 100.0849 126.600438 
L 100.440703 126.600438 
L 100.796505 126.600438 
L 101.152308 126.600438 
L 101.50811 126.600438 
L 101.863913 126.600438 
L 102.219715 126.600438 
L 102.575518 126.600438 
L 102.93132 126.600438 
L 103.287123 126.600438 
L 103.642925 126.600438 
L 103.998728 126.600438 
L 104.35453 126.600438 
L 104.710333 126.600438 
L 105.066135 126.600438 
L 105.421938 126.600438 
L 105.77774 126.600438 
L 106.133543 126.600438 
L 106.489345 126.600438 
L 106.845148 126.600438 
L 107.20095 126.600438 
L 107.556753 126.600438 
L 107.912556 126.600438 
L 108.268358 126.600438 
L 108.624161 126.600438 
L 108.979963 126.600438 
L 109.335766 126.600438 
L 109.691568 126.600438 
L 110.047371 126.600438 
L 110.403173 126.600438 
L 110.758976 126.600438 
L 111.114778 126.600438 
L 111.470581 126.600438 
L 111.826383 126.600438 
L 112.182186 126.600438 
L 112.537988 126.600438 
L 112.893791 126.600438 
L 113.249593 126.600438 
L 113.605396 126.600438 
L 113.961198 126.600438 
L 114.317001 126.600438 
L 114.672803 126.600438 
L 115.028606 126.600438 
L 115.384408 126.600438 
L 115.740211 126.600438 
L 116.096013 126.600438 
L 116.451816 126.600438 
L 116.807618 126.600438 
L 117.163421 126.600438 
L 117.519223 126.600438 
L 117.875026 126.600438 
L 118.230828 126.600438 
L 118.586631 126.600438 
L 118.942433 126.600438 
L 119.298236 126.600438 
L 119.654038 126.600438 
L 120.009841 126.600438 
L 120.365644 126.600438 
L 120.721446 126.600438 
L 121.077249 126.600438 
L 121.433051 126.600438 
L 121.788854 126.600438 
L 122.144656 126.600438 
L 122.500459 126.600438 
L 122.856261 126.600438 
L 123.212064 126.600438 
L 123.567866 126.600438 
L 123.923669 126.600438 
L 124.279471 126.600438 
L 124.635274 126.600438 
L 124.991076 126.600438 
L 125.346879 126.600438 
L 125.702681 126.600438 
L 126.058484 126.600438 
L 126.414286 126.600438 
L 126.770089 126.600438 
L 127.125891 126.600438 
L 127.481694 126.600438 
L 127.837496 126.600438 
L 128.193299 126.600438 
L 128.549101 126.600438 
L 128.904904 126.600438 
L 129.260706 126.600438 
L 129.616509 126.600438 
L 129.972311 126.600438 
L 130.328114 126.600438 
L 130.683916 126.600438 
L 131.039719 126.600438 
L 131.395521 126.600438 
L 131.751324 126.600438 
L 132.107126 126.600438 
L 132.462929 126.600438 
L 132.818731 126.600438 
L 133.174534 126.600438 
L 133.530337 126.600438 
L 133.886139 126.600438 
L 134.241942 126.600438 
L 134.597744 126.600438 
L 134.953547 126.600438 
L 135.309349 126.600438 
L 135.665152 126.600438 
L 136.020954 126.600438 
L 136.376757 126.600438 
L 136.732559 126.600438 
L 137.088362 126.600438 
L 137.444164 126.600438 
L 137.799967 126.600438 
L 138.155769 126.600438 
L 138.511572 126.600438 
L 138.867374 126.600438 
L 139.223177 126.600438 
L 139.578979 126.600438 
L 139.934782 126.600438 
L 140.290584 126.600438 
L 140.646387 126.600438 
L 141.002189 126.600438 
L 141.357992 126.600438 
L 141.713794 126.600438 
L 142.069597 126.600438 
L 142.425399 126.600438 
L 142.781202 126.600438 
L 143.137004 126.600438 
L 143.492807 126.600438 
L 143.848609 126.600438 
L 144.204412 126.600438 
L 144.560214 126.600438 
L 144.916017 126.600438 
L 145.271819 126.600438 
L 145.627622 126.600438 
L 145.983425 126.600438 
L 146.339227 126.600438 
L 146.69503 126.600438 
L 147.050832 126.600438 
L 147.406635 126.600438 
L 147.762437 126.600438 
L 148.11824 126.600438 
L 148.474042 126.600438 
L 148.829845 126.600438 
L 149.185647 126.600438 
L 149.54145 126.600438 
L 149.897252 126.600438 
L 150.253055 126.600438 
L 150.608857 126.600438 
L 150.96466 126.600438 
L 151.320462 126.600438 
L 151.676265 126.600438 
L 152.032067 126.600438 
L 152.38787 126.600438 
L 152.743672 126.600438 
L 153.099475 126.600438 
L 153.455277 126.600438 
L 153.81108 126.600438 
L 154.166882 126.600438 
L 154.522685 126.600438 
L 154.878487 126.600438 
L 155.23429 126.600438 
L 155.590092 126.600438 
L 155.945895 126.600438 
L 156.301697 126.600438 
L 156.6575 126.600438 
L 157.013302 126.600438 
L 157.369105 126.600438 
L 157.724907 126.600438 
L 158.08071 126.600438 
L 158.436513 126.600438 
L 158.792315 126.600438 
L 159.148118 126.600438 
L 159.50392 126.600438 
L 159.859723 126.600438 
L 160.215525 126.600438 
L 160.571328 126.600438 
L 160.92713 126.600438 
L 161.282933 126.600438 
L 161.638735 126.600438 
L 161.994538 126.600438 
L 162.35034 126.600438 
L 162.706143 126.600438 
L 163.061945 126.600438 
L 163.417748 126.600438 
L 163.77355 126.600438 
L 164.129353 126.600438 
L 164.485155 126.600438 
L 164.840958 126.600438 
L 165.19676 126.600438 
L 165.552563 126.600438 
L 165.908365 126.600438 
L 166.264168 126.600438 
L 166.61997 126.600438 
L 166.975773 126.600438 
L 167.331575 126.600438 
L 167.687378 126.600438 
L 168.04318 126.600438 
L 168.398983 126.600438 
L 168.754785 126.600438 
L 169.110588 126.600438 
L 169.46639 126.600438 
L 169.822193 126.600438 
L 170.177995 126.600438 
L 170.533798 126.600438 
L 170.889601 126.600438 
L 171.245403 126.600438 
L 171.601206 126.600438 
L 171.957008 126.600438 
L 172.312811 126.600438 
L 172.668613 126.600438 
L 173.024416 126.600438 
L 173.380218 126.600438 
L 173.736021 126.600438 
L 174.091823 126.600438 
L 174.447626 126.600438 
L 174.803428 126.600438 
L 175.159231 126.600438 
L 175.515033 126.600438 
L 175.870836 126.600438 
L 176.226638 126.600438 
L 176.582441 126.600438 
L 176.938243 126.600438 
L 177.294046 126.600438 
L 177.649848 126.600438 
L 178.005651 126.600438 
L 178.361453 126.600438 
L 178.717256 126.600438 
L 179.073058 126.600438 
L 179.428861 126.600438 
L 179.784663 126.600438 
L 180.140466 126.600438 
L 180.496268 126.600438 
L 180.852071 126.600438 
L 181.207873 126.600438 
L 181.563676 126.600438 
L 181.919478 126.600438 
L 182.275281 126.600438 
L 182.631083 126.600438 
L 182.986886 126.600438 
L 183.342689 126.600438 
L 183.698491 126.600438 
L 184.054294 126.600438 
L 184.410096 126.600438 
L 184.765899 126.600438 
L 185.121701 126.600438 
L 185.477504 126.600438 
L 185.833306 126.600438 
L 186.189109 126.600438 
L 186.544911 126.600438 
L 186.900714 126.600438 
L 187.256516 126.600438 
L 187.612319 126.600438 
L 187.968121 126.600438 
L 188.323924 126.600438 
L 188.679726 126.600438 
L 189.035529 126.600438 
L 189.391331 126.600438 
L 189.747134 126.600438 
L 190.102936 126.600438 
L 190.458739 126.600438 
L 190.814541 126.600438 
L 191.170344 126.600438 
L 191.526146 126.600438 
L 191.881949 126.600438 
L 192.237751 126.600438 
L 192.593554 126.600438 
L 192.949356 126.600438 
L 193.305159 126.600438 
L 193.660961 126.600438 
L 194.016764 126.600438 
L 194.372566 126.600438 
L 194.728369 126.600438 
L 195.084171 126.600438 
L 195.439974 126.600438 
L 195.795776 126.600438 
L 196.151579 126.600438 
L 196.507382 126.600438 
L 196.863184 126.600438 
L 197.218987 126.600438 
L 197.574789 126.600438 
L 197.930592 126.600438 
L 198.286394 126.600438 
L 198.642197 126.600438 
L 198.997999 126.600438 
L 199.353802 126.600438 
L 199.709604 126.600438 
L 200.065407 126.600438 
L 200.421209 126.600438 
L 200.777012 126.600438 
L 201.132814 126.600438 
L 201.488617 126.600438 
L 201.844419 126.600438 
L 202.200222 126.600438 
L 202.556024 126.600438 
L 202.911827 126.600438 
L 203.267629 126.600438 
L 203.623432 126.600438 
L 203.979234 126.600438 
L 204.335037 126.600438 
L 204.690839 126.600438 
L 205.046642 126.600438 
L 205.402444 126.600438 
L 205.758247 126.600438 
L 206.114049 126.600438 
L 206.469852 126.600438 
L 206.825654 126.600438 
L 207.181457 126.600438 
L 207.537259 126.600438 
L 207.893062 126.600438 
L 208.248864 126.600438 
L 208.604667 126.600438 
L 208.96047 126.600438 
L 209.316272 126.600438 
L 209.672075 126.600438 
L 210.027877 126.600438 
L 210.38368 126.600438 
L 210.739482 126.600438 
L 211.095285 126.600438 
L 211.451087 126.600438 
L 211.80689 126.600438 
L 212.162692 126.600438 
L 212.518495 126.600438 
L 212.874297 126.600438 
L 213.2301 126.600438 
L 213.585902 126.600438 
L 213.941705 126.600438 
L 214.297507 126.600438 
L 214.65331 126.600438 
L 215.009112 126.600438 
L 215.364915 126.600438 
L 215.364915 13.5 
L 215.364915 13.5 
L 215.009112 13.5 
L 214.65331 13.5 
L 214.297507 13.5 
L 213.941705 13.5 
L 213.585902 13.5 
L 213.2301 13.5 
L 212.874297 13.5 
L 212.518495 13.5 
L 212.162692 13.5 
L 211.80689 13.5 
L 211.451087 13.5 
L 211.095285 13.5 
L 210.739482 13.5 
L 210.38368 13.5 
L 210.027877 13.5 
L 209.672075 13.5 
L 209.316272 13.5 
L 208.96047 13.5 
L 208.604667 13.5 
L 208.248864 13.5 
L 207.893062 13.5 
L 207.537259 13.5 
L 207.181457 13.5 
L 206.825654 13.5 
L 206.469852 13.5 
L 206.114049 13.5 
L 205.758247 13.5 
L 205.402444 13.5 
L 205.046642 13.5 
L 204.690839 13.5 
L 204.335037 13.5 
L 203.979234 13.5 
L 203.623432 13.5 
L 203.267629 13.5 
L 202.911827 13.5 
L 202.556024 13.5 
L 202.200222 13.5 
L 201.844419 13.5 
L 201.488617 13.5 
L 201.132814 13.5 
L 200.777012 13.5 
L 200.421209 13.5 
L 200.065407 13.5 
L 199.709604 13.5 
L 199.353802 13.5 
L 198.997999 13.5 
L 198.642197 13.5 
L 198.286394 13.5 
L 197.930592 13.5 
L 197.574789 13.5 
L 197.218987 13.5 
L 196.863184 13.5 
L 196.507382 13.5 
L 196.151579 13.5 
L 195.795776 13.5 
L 195.439974 13.5 
L 195.084171 13.5 
L 194.728369 13.5 
L 194.372566 13.5 
L 194.016764 13.5 
L 193.660961 13.5 
L 193.305159 13.5 
L 192.949356 13.5 
L 192.593554 13.5 
L 192.237751 13.5 
L 191.881949 13.5 
L 191.526146 13.5 
L 191.170344 13.5 
L 190.814541 13.5 
L 190.458739 13.5 
L 190.102936 13.5 
L 189.747134 13.5 
L 189.391331 13.5 
L 189.035529 13.5 
L 188.679726 13.5 
L 188.323924 13.5 
L 187.968121 13.5 
L 187.612319 13.5 
L 187.256516 13.5 
L 186.900714 13.5 
L 186.544911 13.5 
L 186.189109 13.5 
L 185.833306 13.5 
L 185.477504 13.5 
L 185.121701 13.5 
L 184.765899 13.5 
L 184.410096 13.5 
L 184.054294 13.5 
L 183.698491 13.5 
L 183.342689 13.5 
L 182.986886 13.5 
L 182.631083 13.5 
L 182.275281 13.5 
L 181.919478 13.5 
L 181.563676 13.5 
L 181.207873 13.5 
L 180.852071 13.5 
L 180.496268 13.5 
L 180.140466 13.5 
L 179.784663 13.5 
L 179.428861 13.5 
L 179.073058 13.5 
L 178.717256 13.5 
L 178.361453 13.5 
L 178.005651 13.5 
L 177.649848 13.5 
L 177.294046 13.5 
L 176.938243 13.5 
L 176.582441 13.5 
L 176.226638 13.5 
L 175.870836 13.5 
L 175.515033 13.5 
L 175.159231 13.5 
L 174.803428 13.5 
L 174.447626 13.5 
L 174.091823 13.5 
L 173.736021 13.5 
L 173.380218 13.5 
L 173.024416 13.5 
L 172.668613 13.5 
L 172.312811 13.5 
L 171.957008 13.5 
L 171.601206 13.5 
L 171.245403 13.5 
L 170.889601 13.5 
L 170.533798 13.5 
L 170.177995 13.5 
L 169.822193 13.5 
L 169.46639 13.5 
L 169.110588 13.5 
L 168.754785 13.5 
L 168.398983 13.5 
L 168.04318 13.5 
L 167.687378 13.5 
L 167.331575 13.5 
L 166.975773 13.5 
L 166.61997 13.5 
L 166.264168 13.5 
L 165.908365 13.5 
L 165.552563 13.5 
L 165.19676 13.5 
L 164.840958 13.5 
L 164.485155 13.5 
L 164.129353 13.5 
L 163.77355 13.5 
L 163.417748 13.5 
L 163.061945 13.5 
L 162.706143 13.5 
L 162.35034 13.5 
L 161.994538 13.5 
L 161.638735 13.5 
L 161.282933 13.5 
L 160.92713 13.5 
L 160.571328 13.5 
L 160.215525 13.5 
L 159.859723 13.5 
L 159.50392 13.5 
L 159.148118 13.5 
L 158.792315 13.5 
L 158.436513 13.5 
L 158.08071 13.5 
L 157.724907 13.5 
L 157.369105 13.5 
L 157.013302 13.5 
L 156.6575 13.5 
L 156.301697 13.5 
L 155.945895 13.5 
L 155.590092 13.5 
L 155.23429 13.5 
L 154.878487 13.5 
L 154.522685 13.5 
L 154.166882 13.5 
L 153.81108 13.5 
L 153.455277 13.5 
L 153.099475 13.5 
L 152.743672 13.5 
L 152.38787 13.5 
L 152.032067 13.5 
L 151.676265 13.5 
L 151.320462 13.5 
L 150.96466 13.5 
L 150.608857 13.5 
L 150.253055 13.5 
L 149.897252 13.5 
L 149.54145 13.5 
L 149.185647 13.5 
L 148.829845 13.5 
L 148.474042 13.5 
L 148.11824 13.5 
L 147.762437 13.5 
L 147.406635 13.5 
L 147.050832 13.5 
L 146.69503 13.5 
L 146.339227 13.5 
L 145.983425 13.5 
L 145.627622 13.5 
L 145.271819 13.5 
L 144.916017 13.5 
L 144.560214 13.5 
L 144.204412 13.5 
L 143.848609 13.5 
L 143.492807 13.5 
L 143.137004 13.5 
L 142.781202 13.5 
L 142.425399 13.5 
L 142.069597 13.5 
L 141.713794 13.5 
L 141.357992 13.5 
L 141.002189 13.5 
L 140.646387 13.5 
L 140.290584 13.5 
L 139.934782 13.5 
L 139.578979 13.5 
L 139.223177 13.5 
L 138.867374 13.5 
L 138.511572 13.5 
L 138.155769 13.5 
L 137.799967 13.5 
L 137.444164 13.5 
L 137.088362 13.5 
L 136.732559 13.5 
L 136.376757 13.5 
L 136.020954 13.5 
L 135.665152 13.5 
L 135.309349 13.5 
L 134.953547 13.5 
L 134.597744 13.5 
L 134.241942 13.5 
L 133.886139 13.5 
L 133.530337 13.5 
L 133.174534 13.5 
L 132.818731 13.5 
L 132.462929 13.5 
L 132.107126 13.5 
L 131.751324 13.5 
L 131.395521 13.5 
L 131.039719 13.5 
L 130.683916 13.5 
L 130.328114 13.5 
L 129.972311 13.5 
L 129.616509 13.5 
L 129.260706 13.5 
L 128.904904 13.5 
L 128.549101 13.5 
L 128.193299 13.5 
L 127.837496 13.5 
L 127.481694 13.5 
L 127.125891 13.5 
L 126.770089 13.5 
L 126.414286 13.5 
L 126.058484 13.5 
L 125.702681 13.5 
L 125.346879 13.5 
L 124.991076 13.5 
L 124.635274 13.5 
L 124.279471 13.5 
L 123.923669 13.5 
L 123.567866 13.5 
L 123.212064 13.5 
L 122.856261 13.5 
L 122.500459 13.5 
L 122.144656 13.5 
L 121.788854 13.5 
L 121.433051 13.5 
L 121.077249 13.5 
L 120.721446 13.5 
L 120.365644 13.5 
L 120.009841 13.5 
L 119.654038 13.5 
L 119.298236 13.5 
L 118.942433 13.5 
L 118.586631 13.5 
L 118.230828 13.5 
L 117.875026 13.5 
L 117.519223 13.5 
L 117.163421 13.5 
L 116.807618 13.5 
L 116.451816 13.5 
L 116.096013 13.5 
L 115.740211 13.5 
L 115.384408 13.5 
L 115.028606 13.5 
L 114.672803 13.5 
L 114.317001 13.5 
L 113.961198 13.5 
L 113.605396 13.5 
L 113.249593 13.5 
L 112.893791 13.5 
L 112.537988 13.5 
L 112.182186 13.5 
L 111.826383 13.5 
L 111.470581 13.5 
L 111.114778 13.5 
L 110.758976 13.5 
L 110.403173 13.5 
L 110.047371 13.5 
L 109.691568 13.5 
L 109.335766 13.5 
L 108.979963 13.5 
L 108.624161 13.5 
L 108.268358 13.5 
L 107.912556 13.5 
L 107.556753 13.5 
L 107.20095 13.5 
L 106.845148 13.5 
L 106.489345 13.5 
L 106.133543 13.5 
L 105.77774 13.5 
L 105.421938 13.5 
L 105.066135 13.5 
L 104.710333 13.5 
L 104.35453 13.5 
L 103.998728 13.5 
L 103.642925 13.5 
L 103.287123 13.5 
L 102.93132 13.5 
L 102.575518 13.5 
L 102.219715 13.5 
L 101.863913 13.5 
L 101.50811 13.5 
L 101.152308 13.5 
L 100.796505 13.5 
L 100.440703 13.5 
L 100.0849 13.5 
L 99.729098 13.5 
L 99.373295 13.5 
L 99.017493 13.5 
L 98.66169 13.5 
L 98.305888 13.5 
L 97.950085 13.5 
L 97.594283 13.5 
L 97.23848 13.5 
L 96.882678 13.5 
L 96.526875 13.5 
L 96.171073 13.5 
L 95.81527 13.5 
L 95.459468 13.5 
L 95.103665 13.5 
L 94.747862 13.5 
L 94.39206 13.5 
L 94.036257 13.5 
L 93.680455 13.5 
L 93.324652 13.5 
L 92.96885 13.5 
L 92.613047 13.5 
L 92.257245 13.5 
L 91.901442 13.5 
L 91.54564 13.5 
L 91.189837 13.5 
L 90.834035 13.5 
L 90.478232 13.5 
L 90.12243 13.5 
L 89.766627 13.5 
L 89.410825 13.5 
L 89.055022 13.5 
L 88.69922 13.5 
L 88.343417 13.5 
L 87.987615 13.5 
L 87.631812 13.5 
L 87.27601 13.5 
L 86.920207 13.5 
L 86.564405 13.5 
L 86.208602 13.5 
L 85.8528 13.5 
L 85.496997 13.5 
L 85.141195 13.5 
L 84.785392 13.5 
L 84.42959 13.5 
L 84.073787 13.5 
L 83.717985 13.5 
L 83.362182 13.5 
L 83.00638 13.5 
L 82.650577 13.5 
L 82.294774 13.5 
L 81.938972 13.5 
L 81.583169 13.5 
L 81.227367 13.5 
L 80.871564 13.5 
L 80.515762 13.5 
L 80.159959 13.5 
L 79.804157 13.5 
L 79.448354 13.5 
L 79.092552 13.5 
L 78.736749 13.5 
L 78.380947 13.5 
L 78.025144 13.5 
L 77.669342 13.5 
L 77.313539 13.5 
L 76.957737 13.5 
L 76.601934 13.5 
L 76.246132 13.5 
L 75.890329 13.5 
L 75.534527 13.5 
L 75.178724 13.5 
L 74.822922 13.5 
L 74.467119 13.5 
L 74.111317 13.5 
L 73.755514 13.5 
L 73.399712 13.5 
L 73.043909 13.5 
L 72.688107 13.5 
L 72.332304 13.5 
L 71.976502 13.5 
L 71.620699 13.5 
L 71.264897 13.5 
L 70.909094 13.5 
L 70.553292 13.5 
L 70.197489 13.5 
L 69.841686 13.5 
L 69.485884 13.5 
L 69.130081 13.5 
L 68.774279 13.5 
L 68.418476 13.5 
L 68.062674 13.5 
L 67.706871 13.5 
L 67.351069 13.5 
L 66.995266 13.5 
L 66.639464 13.5 
L 66.283661 13.5 
L 65.927859 13.5 
L 65.572056 13.5 
L 65.216254 13.5 
L 64.860451 13.5 
L 64.504649 13.5 
L 64.148846 13.5 
L 63.793044 13.5 
L 63.437241 13.5 
L 63.081439 13.5 
L 62.725636 13.5 
L 62.369834 13.5 
L 62.014031 13.5 
L 61.658229 13.5 
L 61.302426 13.5 
L 60.946624 13.5 
L 60.590821 13.5 
L 60.235019 13.5 
L 59.879216 13.5 
L 59.523414 13.5 
L 59.167611 13.5 
L 58.811809 13.5 
L 58.456006 13.5 
L 58.100204 13.5 
L 57.744401 13.5 
L 57.388599 13.5 
L 57.032796 13.5 
L 56.676993 13.5 
L 56.321191 13.5 
L 55.965388 13.5 
L 55.609586 13.5 
L 55.253783 13.5 
L 54.897981 13.5 
L 54.542178 13.5 
L 54.186376 13.5 
L 53.830573 13.5 
L 53.474771 13.5 
L 53.118968 13.5 
L 52.763166 13.5 
L 52.407363 13.5 
L 52.051561 13.5 
L 51.695758 13.5 
L 51.339956 13.5 
L 50.984153 13.5 
L 50.628351 13.5 
L 50.272548 13.5 
L 49.916746 13.5 
L 49.560943 13.5 
L 49.205141 13.5 
L 48.849338 13.5 
L 48.493536 13.5 
L 48.137733 13.5 
L 47.781931 13.5 
L 47.426128 13.5 
L 47.070326 13.5 
L 46.714523 13.5 
L 46.358721 13.5 
L 46.002918 13.5 
L 45.647116 13.5 
L 45.291313 13.5 
L 44.935511 13.5 
L 44.579708 13.5 
L 44.223905 13.5 
L 43.868103 13.5 
L 43.5123 13.5 
L 43.156498 13.5 
L 42.800695 13.5 
L 42.444893 13.5 
L 42.08909 13.5 
L 41.733288 13.5 
L 41.377485 13.5 
L 41.021683 13.5 
L 40.66588 13.5 
L 40.310078 13.5 
L 39.954275 13.5 
L 39.598473 13.5 
L 39.24267 13.5 
L 38.886868 13.5 
L 38.531065 13.5 
L 38.175263 13.5 
L 37.81946 13.5 
z
" clip-path="url(#p7485ec6192)" style="fill: #1f77b4; fill-opacity: 0.25"/>
   </g>
   <g id="matplotlib.axis_1">
    <g id="xtick_1">
     <g id="line2d_1">
      <defs>
       <path id="m1c75b07671" d="M 0 0 
L 0 3.5 
" style="stroke: #000000; stroke-width: 0.8"/>
      </defs>
      <g>
       <use xlink:href="#m1c75b07671" x="37.81946" y="145.8" style="stroke: #000000; stroke-width: 0.8"/>
      </g>
     </g>
     <g id="text_1">
      <!-- 0 -->
      <g transform="translate(34.63821 160.398438) scale(0.1 -0.1)">
       <defs>
        <path id="DejaVuSans-30" d="M 2034 4250 
Q 1547 4250 1301 3770 
Q 1056 3291 1056 2328 
Q 1056 1369 1301 889 
Q 1547 409 2034 409 
Q 2525 409 2770 889 
Q 3016 1369 3016 2328 
Q 3016 3291 2770 3770 
Q 2525 4250 2034 4250 
z
M 2034 4750 
Q 2819 4750 3233 4129 
Q 3647 3509 3647 2328 
Q 3647 1150 3233 529 
Q 2819 -91 2034 -91 
Q 1250 -91 836 529 
Q 422 1150 422 2328 
Q 422 3509 836 4129 
Q 1250 4750 2034 4750 
z
" transform="scale(0.015625)"/>
       </defs>
       <use xlink:href="#DejaVuSans-30"/>
      </g>
     </g>
    </g>
    <g id="xtick_2">
     <g id="line2d_2">
      <g>
       <use xlink:href="#m1c75b07671" x="73.328551" y="145.8" style="stroke: #000000; stroke-width: 0.8"/>
      </g>
     </g>
     <g id="text_2">
      <!-- 1 -->
      <g transform="translate(70.147301 160.398438) scale(0.1 -0.1)">
       <defs>
        <path id="DejaVuSans-31" d="M 794 531 
L 1825 531 
L 1825 4091 
L 703 3866 
L 703 4441 
L 1819 4666 
L 2450 4666 
L 2450 531 
L 3481 531 
L 3481 0 
L 794 0 
L 794 531 
z
" transform="scale(0.015625)"/>
       </defs>
       <use xlink:href="#DejaVuSans-31"/>
      </g>
     </g>
    </g>
    <g id="xtick_3">
     <g id="line2d_3">
      <g>
       <use xlink:href="#m1c75b07671" x="108.837642" y="145.8" style="stroke: #000000; stroke-width: 0.8"/>
      </g>
     </g>
     <g id="text_3">
      <!-- 2 -->
      <g transform="translate(105.656392 160.398438) scale(0.1 -0.1)">
       <defs>
        <path id="DejaVuSans-32" d="M 1228 531 
L 3431 531 
L 3431 0 
L 469 0 
L 469 531 
Q 828 903 1448 1529 
Q 2069 2156 2228 2338 
Q 2531 2678 2651 2914 
Q 2772 3150 2772 3378 
Q 2772 3750 2511 3984 
Q 2250 4219 1831 4219 
Q 1534 4219 1204 4116 
Q 875 4013 500 3803 
L 500 4441 
Q 881 4594 1212 4672 
Q 1544 4750 1819 4750 
Q 2544 4750 2975 4387 
Q 3406 4025 3406 3419 
Q 3406 3131 3298 2873 
Q 3191 2616 2906 2266 
Q 2828 2175 2409 1742 
Q 1991 1309 1228 531 
z
" transform="scale(0.015625)"/>
       </defs>
       <use xlink:href="#DejaVuSans-32"/>
      </g>
     </g>
    </g>
    <g id="xtick_4">
     <g id="line2d_4">
      <g>
       <use xlink:href="#m1c75b07671" x="144.346733" y="145.8" style="stroke: #000000; stroke-width: 0.8"/>
      </g>
     </g>
     <g id="text_4">
      <!-- 3 -->
      <g transform="translate(141.165483 160.398438) scale(0.1 -0.1)">
       <defs>
        <path id="DejaVuSans-33" d="M 2597 2516 
Q 3050 2419 3304 2112 
Q 3559 1806 3559 1356 
Q 3559 666 3084 287 
Q 2609 -91 1734 -91 
Q 1441 -91 1130 -33 
Q 819 25 488 141 
L 488 750 
Q 750 597 1062 519 
Q 1375 441 1716 441 
Q 2309 441 2620 675 
Q 2931 909 2931 1356 
Q 2931 1769 2642 2001 
Q 2353 2234 1838 2234 
L 1294 2234 
L 1294 2753 
L 1863 2753 
Q 2328 2753 2575 2939 
Q 2822 3125 2822 3475 
Q 2822 3834 2567 4026 
Q 2313 4219 1838 4219 
Q 1578 4219 1281 4162 
Q 984 4106 628 3988 
L 628 4550 
Q 988 4650 1302 4700 
Q 1616 4750 1894 4750 
Q 2613 4750 3031 4423 
Q 3450 4097 3450 3541 
Q 3450 3153 3228 2886 
Q 3006 2619 2597 2516 
z
" transform="scale(0.015625)"/>
       </defs>
       <use xlink:href="#DejaVuSans-33"/>
      </g>
     </g>
    </g>
    <g id="xtick_5">
     <g id="line2d_5">
      <g>
       <use xlink:href="#m1c75b07671" x="179.855824" y="145.8" style="stroke: #000000; stroke-width: 0.8"/>
      </g>
     </g>
     <g id="text_5">
      <!-- 4 -->
      <g transform="translate(176.674574 160.398438) scale(0.1 -0.1)">
       <defs>
        <path id="DejaVuSans-34" d="M 2419 4116 
L 825 1625 
L 2419 1625 
L 2419 4116 
z
M 2253 4666 
L 3047 4666 
L 3047 1625 
L 3713 1625 
L 3713 1100 
L 3047 1100 
L 3047 0 
L 2419 0 
L 2419 1100 
L 313 1100 
L 313 1709 
L 2253 4666 
z
" transform="scale(0.015625)"/>
       </defs>
       <use xlink:href="#DejaVuSans-34"/>
      </g>
     </g>
    </g>
    <g id="xtick_6">
     <g id="line2d_6">
      <g>
       <use xlink:href="#m1c75b07671" x="215.364915" y="145.8" style="stroke: #000000; stroke-width: 0.8"/>
      </g>
     </g>
     <g id="text_6">
      <!-- 5 -->
      <g transform="translate(212.183665 160.398438) scale(0.1 -0.1)">
       <defs>
        <path id="DejaVuSans-35" d="M 691 4666 
L 3169 4666 
L 3169 4134 
L 1269 4134 
L 1269 2991 
Q 1406 3038 1543 3061 
Q 1681 3084 1819 3084 
Q 2600 3084 3056 2656 
Q 3513 2228 3513 1497 
Q 3513 744 3044 326 
Q 2575 -91 1722 -91 
Q 1428 -91 1123 -41 
Q 819 9 494 109 
L 494 744 
Q 775 591 1075 516 
Q 1375 441 1709 441 
Q 2250 441 2565 725 
Q 2881 1009 2881 1497 
Q 2881 1984 2565 2268 
Q 2250 2553 1709 2553 
Q 1456 2553 1204 2497 
Q 953 2441 691 2322 
L 691 4666 
z
" transform="scale(0.015625)"/>
       </defs>
       <use xlink:href="#DejaVuSans-35"/>
      </g>
     </g>
    </g>
   </g>
   <g id="matplotlib.axis_2">
    <g id="ytick_1">
     <g id="line2d_7">
      <defs>
       <path id="m069d3733e0" d="M 0 0 
L -3.5 0 
" style="stroke: #000000; stroke-width: 0.8"/>
      </defs>
      <g>
       <use xlink:href="#m069d3733e0" x="28.942188" y="126.600438" style="stroke: #000000; stroke-width: 0.8"/>
      </g>
     </g>
     <g id="text_7">
      <!-- −2 -->
      <g transform="translate(7.2 130.399656) scale(0.1 -0.1)">
       <defs>
        <path id="DejaVuSans-2212" d="M 678 2272 
L 4684 2272 
L 4684 1741 
L 678 1741 
L 678 2272 
z
" transform="scale(0.015625)"/>
       </defs>
       <use xlink:href="#DejaVuSans-2212"/>
       <use xlink:href="#DejaVuSans-32" x="83.789062"/>
      </g>
     </g>
    </g>
    <g id="ytick_2">
     <g id="line2d_8">
      <g>
       <use xlink:href="#m069d3733e0" x="28.942188" y="98.325328" style="stroke: #000000; stroke-width: 0.8"/>
      </g>
     </g>
     <g id="text_8">
      <!-- −1 -->
      <g transform="translate(7.2 102.124547) scale(0.1 -0.1)">
       <use xlink:href="#DejaVuSans-2212"/>
       <use xlink:href="#DejaVuSans-31" x="83.789062"/>
      </g>
     </g>
    </g>
    <g id="ytick_3">
     <g id="line2d_9">
      <g>
       <use xlink:href="#m069d3733e0" x="28.942188" y="70.050219" style="stroke: #000000; stroke-width: 0.8"/>
      </g>
     </g>
     <g id="text_9">
      <!-- 0 -->
      <g transform="translate(15.579688 73.849438) scale(0.1 -0.1)">
       <use xlink:href="#DejaVuSans-30"/>
      </g>
     </g>
    </g>
    <g id="ytick_4">
     <g id="line2d_10">
      <g>
       <use xlink:href="#m069d3733e0" x="28.942188" y="41.775109" style="stroke: #000000; stroke-width: 0.8"/>
      </g>
     </g>
     <g id="text_10">
      <!-- 1 -->
      <g transform="translate(15.579688 45.574328) scale(0.1 -0.1)">
       <use xlink:href="#DejaVuSans-31"/>
      </g>
     </g>
    </g>
    <g id="ytick_5">
     <g id="line2d_11">
      <g>
       <use xlink:href="#m069d3733e0" x="28.942188" y="13.5" style="stroke: #000000; stroke-width: 0.8"/>
      </g>
     </g>
     <g id="text_11">
      <!-- 2 -->
      <g transform="translate(15.579688 17.299219) scale(0.1 -0.1)">
       <use xlink:href="#DejaVuSans-32"/>
      </g>
     </g>
    </g>
   </g>
   <g id="line2d_12">
    <path d="M 37.81946 56.34425 
L 39.24267 56.204246 
L 40.66588 56.337959 
L 42.08909 56.731963 
L 43.5123 57.354932 
L 45.291313 58.387868 
L 47.781931 60.135268 
L 52.763166 63.980985 
L 55.965388 66.671632 
L 58.100204 68.766483 
L 59.879216 70.810067 
L 61.658229 73.178243 
L 63.793044 76.452505 
L 66.283661 80.744815 
L 71.264897 89.527553 
L 73.043909 92.213218 
L 74.467119 94.033829 
L 75.890329 95.509584 
L 77.313539 96.612544 
L 78.380947 97.190595 
L 79.448354 97.560541 
L 80.515762 97.73452 
L 81.938972 97.694093 
L 83.362182 97.396829 
L 85.141195 96.775977 
L 89.410825 95.132804 
L 90.834035 94.862632 
L 91.901442 94.844516 
L 92.96885 95.021819 
L 94.036257 95.423699 
L 95.103665 96.074247 
L 96.171073 96.991629 
L 97.23848 98.187247 
L 98.305888 99.665097 
L 99.729098 102.066701 
L 101.152308 104.930336 
L 102.93132 109.069613 
L 105.066135 114.6331 
L 110.403173 128.860934 
L 112.182186 132.816458 
L 113.605396 135.424234 
L 114.672803 136.993489 
L 115.740211 138.197929 
L 116.807618 139.017007 
L 117.519223 139.343083 
L 118.230828 139.491859 
L 118.942433 139.464353 
L 119.654038 139.263477 
L 120.365644 138.89398 
L 121.433051 138.038197 
L 122.500459 136.846643 
L 123.567866 135.355147 
L 124.991076 132.972825 
L 126.770089 129.519903 
L 130.328114 121.91316 
L 132.818731 116.801797 
L 134.597744 113.582225 
L 136.020954 111.368733 
L 137.444164 109.528619 
L 138.867374 108.091821 
L 139.934782 107.288272 
L 141.002189 106.72117 
L 142.069597 106.387476 
L 143.137004 106.280254 
L 144.204412 106.388848 
L 145.271819 106.698841 
L 146.69503 107.393426 
L 148.11824 108.359091 
L 149.897252 109.843849 
L 154.878487 114.221661 
L 156.301697 115.077012 
L 157.369105 115.474488 
L 158.436513 115.613101 
L 159.50392 115.452638 
L 160.571328 114.95876 
L 161.638735 114.104517 
L 162.706143 112.871572 
L 163.77355 111.251173 
L 164.840958 109.244642 
L 166.264168 105.989914 
L 167.687378 102.124193 
L 169.46639 96.557981 
L 171.601206 89.072917 
L 175.870836 72.981706 
L 179.073058 61.319058 
L 181.563676 53.064695 
L 183.698491 46.706604 
L 185.833306 41.057393 
L 187.612319 36.913046 
L 189.391331 33.312284 
L 190.814541 30.857577 
L 192.237751 28.822605 
L 193.305159 27.600237 
L 194.372566 26.663039 
L 195.439974 26.034045 
L 196.507382 25.735549 
L 197.218987 25.730213 
L 197.930592 25.885813 
L 198.642197 26.206459 
L 199.709604 27.00299 
L 200.777012 28.181379 
L 201.844419 29.737935 
L 202.911827 31.660274 
L 204.335037 34.753733 
L 205.758247 38.381364 
L 207.537259 43.506223 
L 210.739482 53.58674 
L 213.585902 62.279783 
L 215.364915 67.026349 
L 215.364915 67.026349 
" clip-path="url(#p7485ec6192)" style="fill: none; stroke: #000000; stroke-opacity: 0.5; stroke-width: 1.5; stroke-linecap: square"/>
   </g>
   <g id="line2d_13">
    <path d="M 37.81946 76.138653 
L 40.310078 75.138663 
L 42.444893 74.056405 
L 44.579708 72.696982 
L 46.358721 71.314812 
L 48.493536 69.336066 
L 50.628351 67.021612 
L 53.118968 63.980288 
L 59.167611 56.389783 
L 60.946624 54.618027 
L 62.369834 53.534401 
L 63.437241 52.966778 
L 64.504649 52.642679 
L 65.572056 52.588587 
L 66.639464 52.82635 
L 67.706871 53.371976 
L 68.774279 54.234492 
L 69.841686 55.415037 
L 70.909094 56.90616 
L 72.332304 59.34766 
L 73.755514 62.246991 
L 75.534527 66.374125 
L 79.448354 76.289141 
L 81.583169 81.360729 
L 83.00638 84.309571 
L 84.42959 86.779179 
L 85.496997 88.263909 
L 86.564405 89.40457 
L 87.631812 90.185973 
L 88.69922 90.603199 
L 89.410825 90.681103 
L 90.12243 90.602927 
L 91.189837 90.205275 
L 92.257245 89.493197 
L 93.324652 88.496665 
L 94.747862 86.784501 
L 96.171073 84.712593 
L 97.950085 81.744429 
L 100.440703 77.135536 
L 104.35453 69.376088 
L 108.979963 59.715117 
L 113.249593 50.245567 
L 117.519223 40.817017 
L 119.654038 36.621938 
L 121.433051 33.655753 
L 122.856261 31.737548 
L 123.923669 30.604578 
L 124.991076 29.753301 
L 126.058484 29.192465 
L 127.125891 28.92165 
L 128.193299 28.930798 
L 129.260706 29.200365 
L 130.328114 29.701926 
L 131.751324 30.668117 
L 133.530337 32.208172 
L 138.155769 36.445948 
L 139.578979 37.439956 
L 141.002189 38.179506 
L 142.425399 38.648975 
L 143.848609 38.864721 
L 145.627622 38.849672 
L 151.320462 38.458981 
L 152.743672 38.757929 
L 153.81108 39.18623 
L 154.878487 39.813857 
L 155.945895 40.655098 
L 157.369105 42.1201 
L 158.792315 43.973633 
L 160.215525 46.192862 
L 161.994538 49.420469 
L 164.129353 53.823572 
L 166.975773 60.26821 
L 173.736021 75.822877 
L 176.226638 80.898939 
L 178.005651 84.083206 
L 179.428861 86.282434 
L 180.852071 88.105974 
L 181.919478 89.189266 
L 182.986886 90.000208 
L 184.054294 90.515234 
L 185.121701 90.714191 
L 185.833306 90.663395 
L 186.900714 90.304248 
L 187.968121 89.601714 
L 189.035529 88.558447 
L 190.102936 87.185086 
L 191.526146 84.874103 
L 192.949356 82.076607 
L 194.728369 78.030654 
L 197.218987 71.717263 
L 201.488617 60.766219 
L 203.623432 55.939433 
L 205.402444 52.477809 
L 206.825654 50.123214 
L 208.248864 48.146062 
L 209.672075 46.53372 
L 211.095285 45.257081 
L 212.518495 44.274117 
L 213.941705 43.533583 
L 215.364915 42.978557 
L 215.364915 42.978557 
" clip-path="url(#p7485ec6192)" style="fill: none; stroke: #000000; stroke-opacity: 0.5; stroke-width: 1.5; stroke-linecap: square"/>
   </g>
   <g id="line2d_14">
    <path d="M 37.81946 61.506427 
L 40.310078 56.652974 
L 42.08909 53.697037 
L 43.5123 51.768967 
L 44.579708 50.626533 
L 45.647116 49.773539 
L 46.714523 49.231276 
L 47.781931 49.016015 
L 48.493536 49.059857 
L 49.205141 49.255989 
L 50.272548 49.837263 
L 51.339956 50.760982 
L 52.407363 52.019721 
L 53.474771 53.600476 
L 54.897981 56.176628 
L 56.321191 59.234611 
L 58.100204 63.624003 
L 60.235019 69.499593 
L 67.351069 89.666919 
L 69.130081 93.818343 
L 70.553292 96.627794 
L 71.976502 98.896539 
L 73.043909 100.20138 
L 74.111317 101.138083 
L 74.822922 101.547526 
L 75.534527 101.778851 
L 76.246132 101.827943 
L 76.957737 101.691695 
L 77.669342 101.368158 
L 78.380947 100.856572 
L 79.448354 99.738097 
L 80.515762 98.205486 
L 81.583169 96.273504 
L 83.00638 93.115945 
L 84.42959 89.362801 
L 86.208602 83.983419 
L 88.69922 75.596331 
L 93.324652 59.758964 
L 95.103665 54.382155 
L 96.882678 49.727034 
L 98.305888 46.606331 
L 99.729098 44.051896 
L 100.796505 42.50478 
L 101.863913 41.259052 
L 102.93132 40.29257 
L 103.998728 39.576612 
L 105.066135 39.07777 
L 106.489345 38.688093 
L 107.912556 38.535152 
L 109.691568 38.560664 
L 112.537988 38.859301 
L 115.384408 39.374157 
L 117.163421 39.900397 
L 118.586631 40.525901 
L 120.009841 41.407709 
L 121.433051 42.611034 
L 122.856261 44.187049 
L 124.279471 46.163775 
L 125.702681 48.538984 
L 127.481694 52.009074 
L 129.972311 57.51547 
L 133.530337 65.466329 
L 135.309349 68.842675 
L 136.732559 71.005198 
L 137.799967 72.23937 
L 138.867374 73.103163 
L 139.578979 73.462381 
L 140.290584 73.64446 
L 141.002189 73.649151 
L 141.713794 73.47885 
L 142.425399 73.138597 
L 143.492807 72.326656 
L 144.560214 71.184886 
L 145.983425 69.229051 
L 147.762437 66.273096 
L 153.455277 56.218775 
L 154.878487 54.264101 
L 156.301697 52.72659 
L 157.369105 51.874882 
L 158.436513 51.289017 
L 159.50392 50.964074 
L 160.571328 50.884807 
L 161.638735 51.026509 
L 163.061945 51.500969 
L 164.840958 52.41322 
L 168.754785 54.604353 
L 170.177995 55.094696 
L 171.245403 55.251446 
L 172.312811 55.188957 
L 173.380218 54.881271 
L 174.447626 54.311474 
L 175.515033 53.47248 
L 176.582441 52.367508 
L 178.005651 50.505673 
L 179.428861 48.257439 
L 181.563676 44.367354 
L 185.833306 36.349362 
L 187.256516 34.161374 
L 188.323924 32.836858 
L 189.391331 31.846397 
L 190.458739 31.238192 
L 191.170344 31.064547 
L 191.881949 31.086788 
L 192.593554 31.311122 
L 193.305159 31.741197 
L 194.016764 32.377959 
L 195.084171 33.715986 
L 196.151579 35.49676 
L 197.218987 37.68913 
L 198.642197 41.175254 
L 200.421209 46.244575 
L 203.267629 55.238701 
L 206.114049 64.0965 
L 207.893062 69.014242 
L 209.316272 72.431288 
L 210.739482 75.326028 
L 212.162692 77.686061 
L 213.585902 79.539535 
L 215.009112 80.949182 
L 215.364915 81.242194 
L 215.364915 81.242194 
" clip-path="url(#p7485ec6192)" style="fill: none; stroke: #000000; stroke-opacity: 0.5; stroke-width: 1.5; stroke-linecap: square"/>
   </g>
   <g id="line2d_15">
    <path d="M 37.81946 53.080616 
L 39.598473 52.716015 
L 41.021683 52.620941 
L 42.444893 52.731951 
L 43.868103 53.070456 
L 45.291313 53.650015 
L 46.714523 54.475992 
L 48.137733 55.545487 
L 49.916746 57.207301 
L 51.695758 59.193685 
L 53.830573 61.927189 
L 57.032796 66.479135 
L 61.658229 73.059816 
L 63.793044 75.693974 
L 65.572056 77.538243 
L 66.995266 78.731903 
L 68.418476 79.644561 
L 69.841686 80.25737 
L 70.909094 80.514196 
L 71.976502 80.596429 
L 73.043909 80.506499 
L 74.467119 80.127891 
L 75.890329 79.470748 
L 77.313539 78.558879 
L 79.092552 77.10287 
L 80.871564 75.348766 
L 83.00638 72.92874 
L 85.8528 69.308999 
L 89.766627 63.895578 
L 95.103665 56.49755 
L 97.23848 53.882671 
L 99.017493 52.031479 
L 100.440703 50.845729 
L 101.863913 49.985965 
L 102.93132 49.588708 
L 103.998728 49.427069 
L 105.066135 49.518574 
L 106.133543 49.876434 
L 107.20095 50.508691 
L 108.268358 51.417494 
L 109.335766 52.59863 
L 110.758976 54.57734 
L 112.182186 56.975897 
L 113.961198 60.464915 
L 116.451816 65.962838 
L 120.721446 75.544989 
L 122.500459 78.99637 
L 123.923669 81.31675 
L 124.991076 82.738445 
L 126.058484 83.849189 
L 127.125891 84.62057 
L 128.193299 85.030148 
L 128.904904 85.094102 
L 129.616509 84.987169 
L 130.328114 84.707927 
L 131.039719 84.25653 
L 132.107126 83.260989 
L 133.174534 81.895548 
L 134.241942 80.181882 
L 135.665152 77.408729 
L 137.444164 73.294251 
L 139.578979 67.720416 
L 144.204412 55.481727 
L 145.983425 51.516571 
L 147.406635 48.87944 
L 148.474042 47.261065 
L 149.54145 45.969219 
L 150.608857 45.007772 
L 151.676265 44.369116 
L 152.743672 44.034867 
L 153.81108 43.977151 
L 154.878487 44.160217 
L 155.945895 44.542425 
L 157.369105 45.283099 
L 159.859723 46.905195 
L 162.35034 48.481904 
L 164.129353 49.350073 
L 165.552563 49.817431 
L 166.975773 50.059219 
L 168.398983 50.07348 
L 169.822193 49.873172 
L 171.601206 49.3577 
L 173.380218 48.60359 
L 175.870836 47.268923 
L 180.496268 44.435291 
L 183.698491 42.591392 
L 185.833306 41.578654 
L 187.612319 40.944143 
L 189.391331 40.561299 
L 190.814541 40.477107 
L 192.237751 40.625354 
L 193.660961 41.039078 
L 195.084171 41.751696 
L 196.507382 42.796539 
L 197.930592 44.206176 
L 199.353802 46.011281 
L 200.777012 48.23906 
L 202.200222 50.911025 
L 203.623432 54.040305 
L 205.402444 58.59647 
L 207.181457 63.840541 
L 209.316272 70.939097 
L 211.80689 80.057449 
L 215.364915 93.684733 
L 215.364915 93.684733 
" clip-path="url(#p7485ec6192)" style="fill: none; stroke: #000000; stroke-opacity: 0.5; stroke-width: 1.5; stroke-linecap: square"/>
   </g>
   <g id="line2d_16">
    <path d="M 37.81946 69.044298 
L 40.66588 68.278992 
L 43.5123 67.301275 
L 46.358721 66.07728 
L 49.205141 64.577044 
L 52.051561 62.818755 
L 57.388599 59.171523 
L 60.590821 57.114965 
L 63.081439 55.749162 
L 65.572056 54.625745 
L 69.130081 53.316986 
L 72.332304 52.101275 
L 74.467119 51.060838 
L 76.246132 49.974998 
L 78.380947 48.390581 
L 80.871564 46.238696 
L 85.141195 42.518986 
L 86.920207 41.289779 
L 88.343417 40.547157 
L 89.766627 40.046951 
L 91.189837 39.788612 
L 92.613047 39.744714 
L 94.39206 39.909545 
L 98.66169 40.431332 
L 100.0849 40.36077 
L 101.50811 40.065359 
L 102.93132 39.520804 
L 104.35453 38.734382 
L 106.133543 37.473158 
L 111.826383 33.142901 
L 113.249593 32.492213 
L 114.317001 32.223919 
L 115.384408 32.169564 
L 116.451816 32.343877 
L 117.519223 32.753943 
L 118.586631 33.399776 
L 119.654038 34.27534 
L 121.077249 35.78094 
L 122.500459 37.641469 
L 124.279471 40.408583 
L 126.058484 43.601422 
L 128.193299 47.917366 
L 130.683916 53.540005 
L 133.174534 59.720898 
L 136.376757 68.293897 
L 141.713794 82.661278 
L 143.492807 86.865018 
L 144.916017 89.804413 
L 146.339227 92.270607 
L 147.406635 93.763277 
L 148.474042 94.920573 
L 149.54145 95.72271 
L 150.608857 96.156544 
L 151.320462 96.237737 
L 152.032067 96.152033 
L 152.743672 95.900456 
L 153.81108 95.217171 
L 154.878487 94.177689 
L 155.945895 92.798459 
L 157.013302 91.099536 
L 158.436513 88.376422 
L 159.859723 85.183209 
L 161.638735 80.620927 
L 163.77355 74.457299 
L 166.264168 66.545885 
L 169.822193 54.424685 
L 174.803428 37.504827 
L 176.938243 31.054291 
L 178.717256 26.424378 
L 180.140466 23.367287 
L 181.207873 21.521322 
L 182.275281 20.10157 
L 183.342689 19.139282 
L 184.054294 18.763337 
L 184.765899 18.604944 
L 185.477504 18.665975 
L 186.189109 18.945991 
L 186.900714 19.442151 
L 187.612319 20.149241 
L 188.679726 21.588168 
L 189.747134 23.449194 
L 191.170344 26.507954 
L 192.593554 30.106675 
L 194.728369 36.194086 
L 200.777012 53.96159 
L 202.911827 59.281572 
L 204.690839 63.11598 
L 206.469852 66.394329 
L 208.248864 69.142788 
L 209.672075 70.987118 
L 211.095285 72.537635 
L 212.518495 73.807686 
L 213.941705 74.802188 
L 215.364915 75.517252 
L 215.364915 75.517252 
" clip-path="url(#p7485ec6192)" style="fill: none; stroke: #000000; stroke-opacity: 0.5; stroke-width: 1.5; stroke-linecap: square"/>
   </g>
   <g id="line2d_17">
    <path d="M 37.81946 70.050219 
L 215.364915 70.050219 
L 215.364915 70.050219 
" clip-path="url(#p7485ec6192)" style="fill: none; stroke: #1f77b4; stroke-width: 2; stroke-linecap: square"/>
   </g>
   <g id="patch_3">
    <path d="M 28.942188 145.8 
L 28.942188 7.2 
" style="fill: none; stroke: #000000; stroke-width: 0.8; stroke-linejoin: miter; stroke-linecap: square"/>
   </g>
   <g id="patch_4">
    <path d="M 224.242188 145.8 
L 224.242188 7.2 
" style="fill: none; stroke: #000000; stroke-width: 0.8; stroke-linejoin: miter; stroke-linecap: square"/>
   </g>
   <g id="patch_5">
    <path d="M 28.942187 145.8 
L 224.242188 145.8 
" style="fill: none; stroke: #000000; stroke-width: 0.8; stroke-linejoin: miter; stroke-linecap: square"/>
   </g>
   <g id="patch_6">
    <path d="M 28.942187 7.2 
L 224.242188 7.2 
" style="fill: none; stroke: #000000; stroke-width: 0.8; stroke-linejoin: miter; stroke-linecap: square"/>
   </g>
  </g>
 </g>
 <defs>
  <clipPath id="p7485ec6192">
   <rect x="28.942188" y="7.2" width="195.3" height="138.6"/>
  </clipPath>
 </defs>
</svg>
