<?xml version="1.0" encoding="utf-8" standalone="no"?>
<!DOCTYPE svg PUBLIC "-//W3C//DTD SVG 1.1//EN"
  "http://www.w3.org/Graphics/SVG/1.1/DTD/svg11.dtd">
<svg xmlns:xlink="http://www.w3.org/1999/xlink" width="231.442188pt" height="169.678125pt" viewBox="0 0 231.442188 169.678125" xmlns="http://www.w3.org/2000/svg" version="1.1">
 <metadata>
  <rdf:RDF xmlns:dc="http://purl.org/dc/elements/1.1/" xmlns:cc="http://creativecommons.org/ns#" xmlns:rdf="http://www.w3.org/1999/02/22-rdf-syntax-ns#">
   <cc:Work>
    <dc:type rdf:resource="http://purl.org/dc/dcmitype/StillImage"/>
    <dc:date>2025-07-08T14:29:58.620625</dc:date>
    <dc:format>image/svg+xml</dc:format>
    <dc:creator>
     <cc:Agent>
      <dc:title>Matplotlib v3.7.2, https://matplotlib.org/</dc:title>
     </cc:Agent>
    </dc:creator>
   </cc:Work>
  </rdf:RDF>
 </metadata>
 <defs>
  <style type="text/css">*{stroke-linejoin: round; stroke-linecap: butt}</style>
 </defs>
 <g id="figure_1">
  <g id="patch_1">
   <path d="M 0 169.678125 
L 231.442188 169.678125 
L 231.442188 0 
L 0 0 
z
" style="fill: #ffffff"/>
  </g>
  <g id="axes_1">
   <g id="patch_2">
    <path d="M 28.942188 145.8 
L 224.242188 145.8 
L 224.242188 7.2 
L 28.942188 7.2 
z
" style="fill: #ffffff"/>
   </g>
   <g id="PolyCollection_1">
    <path d="M 37.81946 14.266715 
L 37.81946 113.366331 
L 38.175263 113.366331 
L 38.531065 113.366331 
L 38.886868 113.366331 
L 39.24267 113.366331 
L 39.598473 113.366331 
L 39.954275 113.366331 
L 40.310078 113.366331 
L 40.66588 113.366331 
L 41.021683 113.366331 
L 41.377485 113.366331 
L 41.733288 113.366331 
L 42.08909 113.366331 
L 42.444893 113.366331 
L 42.800695 113.366331 
L 43.156498 113.366331 
L 43.5123 113.366331 
L 43.868103 113.366331 
L 44.223905 113.366331 
L 44.579708 113.366331 
L 44.935511 113.366331 
L 45.291313 113.366331 
L 45.647116 113.366331 
L 46.002918 113.366331 
L 46.358721 113.366331 
L 46.714523 113.366331 
L 47.070326 113.366331 
L 47.426128 113.366331 
L 47.781931 113.366331 
L 48.137733 113.366331 
L 48.493536 113.366331 
L 48.849338 113.366331 
L 49.205141 113.366331 
L 49.560943 113.366331 
L 49.916746 113.366331 
L 50.272548 113.366331 
L 50.628351 113.366331 
L 50.984153 113.366331 
L 51.339956 113.366331 
L 51.695758 113.366331 
L 52.051561 113.366331 
L 52.407363 113.366331 
L 52.763166 113.366331 
L 53.118968 113.366331 
L 53.474771 113.366331 
L 53.830573 113.366331 
L 54.186376 113.366331 
L 54.542178 113.366331 
L 54.897981 113.366331 
L 55.253783 113.366331 
L 55.609586 113.366331 
L 55.965388 113.366331 
L 56.321191 113.366331 
L 56.676993 113.366331 
L 57.032796 113.366331 
L 57.388599 113.366331 
L 57.744401 113.366331 
L 58.100204 113.366331 
L 58.456006 113.366331 
L 58.811809 113.366331 
L 59.167611 113.366331 
L 59.523414 113.366331 
L 59.879216 113.366331 
L 60.235019 113.366331 
L 60.590821 113.366331 
L 60.946624 113.366331 
L 61.302426 113.366331 
L 61.658229 113.366331 
L 62.014031 113.366331 
L 62.369834 113.366331 
L 62.725636 113.366331 
L 63.081439 113.366331 
L 63.437241 113.366331 
L 63.793044 113.366331 
L 64.148846 113.366331 
L 64.504649 113.366331 
L 64.860451 113.366331 
L 65.216254 113.366331 
L 65.572056 113.366331 
L 65.927859 113.366331 
L 66.283661 113.366331 
L 66.639464 113.366331 
L 66.995266 113.366331 
L 67.351069 113.366331 
L 67.706871 113.366331 
L 68.062674 113.366331 
L 68.418476 113.366331 
L 68.774279 113.366331 
L 69.130081 113.366331 
L 69.485884 113.366331 
L 69.841686 113.366331 
L 70.197489 113.366331 
L 70.553292 113.366331 
L 70.909094 113.366331 
L 71.264897 113.366331 
L 71.620699 113.366331 
L 71.976502 113.366331 
L 72.332304 113.366331 
L 72.688107 113.366331 
L 73.043909 113.366331 
L 73.399712 113.366331 
L 73.755514 113.366331 
L 74.111317 113.366331 
L 74.467119 113.366331 
L 74.822922 113.366331 
L 75.178724 113.366331 
L 75.534527 113.366331 
L 75.890329 113.366331 
L 76.246132 113.366331 
L 76.601934 113.366331 
L 76.957737 113.366331 
L 77.313539 113.366331 
L 77.669342 113.366331 
L 78.025144 113.366331 
L 78.380947 113.366331 
L 78.736749 113.366331 
L 79.092552 113.366331 
L 79.448354 113.366331 
L 79.804157 113.366331 
L 80.159959 113.366331 
L 80.515762 113.366331 
L 80.871564 113.366331 
L 81.227367 113.366331 
L 81.583169 113.366331 
L 81.938972 113.366331 
L 82.294774 113.366331 
L 82.650577 113.366331 
L 83.00638 113.366331 
L 83.362182 113.366331 
L 83.717985 113.366331 
L 84.073787 113.366331 
L 84.42959 113.366331 
L 84.785392 113.366331 
L 85.141195 113.366331 
L 85.496997 113.366331 
L 85.8528 113.366331 
L 86.208602 113.366331 
L 86.564405 113.366331 
L 86.920207 113.366331 
L 87.27601 113.366331 
L 87.631812 113.366331 
L 87.987615 113.366331 
L 88.343417 113.366331 
L 88.69922 113.366331 
L 89.055022 113.366331 
L 89.410825 113.366331 
L 89.766627 113.366331 
L 90.12243 113.366331 
L 90.478232 113.366331 
L 90.834035 113.366331 
L 91.189837 113.366331 
L 91.54564 113.366331 
L 91.901442 113.366331 
L 92.257245 113.366331 
L 92.613047 113.366331 
L 92.96885 113.366331 
L 93.324652 113.366331 
L 93.680455 113.366331 
L 94.036257 113.366331 
L 94.39206 113.366331 
L 94.747862 113.366331 
L 95.103665 113.366331 
L 95.459468 113.366331 
L 95.81527 113.366331 
L 96.171073 113.366331 
L 96.526875 113.366331 
L 96.882678 113.366331 
L 97.23848 113.366331 
L 97.594283 113.366331 
L 97.950085 113.366331 
L 98.305888 113.366331 
L 98.66169 113.366331 
L 99.017493 113.366331 
L 99.373295 113.366331 
L 99.729098 113.366331 
L 100.0849 113.366331 
L 100.440703 113.366331 
L 100.796505 113.366331 
L 101.152308 113.366331 
L 101.50811 113.366331 
L 101.863913 113.366331 
L 102.219715 113.366331 
L 102.575518 113.366331 
L 102.93132 113.366331 
L 103.287123 113.366331 
L 103.642925 113.366331 
L 103.998728 113.366331 
L 104.35453 113.366331 
L 104.710333 113.366331 
L 105.066135 113.366331 
L 105.421938 113.366331 
L 105.77774 113.366331 
L 106.133543 113.366331 
L 106.489345 113.366331 
L 106.845148 113.366331 
L 107.20095 113.366331 
L 107.556753 113.366331 
L 107.912556 113.366331 
L 108.268358 113.366331 
L 108.624161 113.366331 
L 108.979963 113.366331 
L 109.335766 113.366331 
L 109.691568 113.366331 
L 110.047371 113.366331 
L 110.403173 113.366331 
L 110.758976 113.366331 
L 111.114778 113.366331 
L 111.470581 113.366331 
L 111.826383 113.366331 
L 112.182186 113.366331 
L 112.537988 113.366331 
L 112.893791 113.366331 
L 113.249593 113.366331 
L 113.605396 113.366331 
L 113.961198 113.366331 
L 114.317001 113.366331 
L 114.672803 113.366331 
L 115.028606 113.366331 
L 115.384408 113.366331 
L 115.740211 113.366331 
L 116.096013 113.366331 
L 116.451816 113.366331 
L 116.807618 113.366331 
L 117.163421 113.366331 
L 117.519223 113.366331 
L 117.875026 113.366331 
L 118.230828 113.366331 
L 118.586631 113.366331 
L 118.942433 113.366331 
L 119.298236 113.366331 
L 119.654038 113.366331 
L 120.009841 113.366331 
L 120.365644 113.366331 
L 120.721446 113.366331 
L 121.077249 113.366331 
L 121.433051 113.366331 
L 121.788854 113.366331 
L 122.144656 113.366331 
L 122.500459 113.366331 
L 122.856261 113.366331 
L 123.212064 113.366331 
L 123.567866 113.366331 
L 123.923669 113.366331 
L 124.279471 113.366331 
L 124.635274 113.366331 
L 124.991076 113.366331 
L 125.346879 113.366331 
L 125.702681 113.366331 
L 126.058484 113.366331 
L 126.414286 113.366331 
L 126.770089 113.366331 
L 127.125891 113.366331 
L 127.481694 113.366331 
L 127.837496 113.366331 
L 128.193299 113.366331 
L 128.549101 113.366331 
L 128.904904 113.366331 
L 129.260706 113.366331 
L 129.616509 113.366331 
L 129.972311 113.366331 
L 130.328114 113.366331 
L 130.683916 113.366331 
L 131.039719 113.366331 
L 131.395521 113.366331 
L 131.751324 113.366331 
L 132.107126 113.366331 
L 132.462929 113.366331 
L 132.818731 113.366331 
L 133.174534 113.366331 
L 133.530337 113.366331 
L 133.886139 113.366331 
L 134.241942 113.366331 
L 134.597744 113.366331 
L 134.953547 113.366331 
L 135.309349 113.366331 
L 135.665152 113.366331 
L 136.020954 113.366331 
L 136.376757 113.366331 
L 136.732559 113.366331 
L 137.088362 113.366331 
L 137.444164 113.366331 
L 137.799967 113.366331 
L 138.155769 113.366331 
L 138.511572 113.366331 
L 138.867374 113.366331 
L 139.223177 113.366331 
L 139.578979 113.366331 
L 139.934782 113.366331 
L 140.290584 113.366331 
L 140.646387 113.366331 
L 141.002189 113.366331 
L 141.357992 113.366331 
L 141.713794 113.366331 
L 142.069597 113.366331 
L 142.425399 113.366331 
L 142.781202 113.366331 
L 143.137004 113.366331 
L 143.492807 113.366331 
L 143.848609 113.366331 
L 144.204412 113.366331 
L 144.560214 113.366331 
L 144.916017 113.366331 
L 145.271819 113.366331 
L 145.627622 113.366331 
L 145.983425 113.366331 
L 146.339227 113.366331 
L 146.69503 113.366331 
L 147.050832 113.366331 
L 147.406635 113.366331 
L 147.762437 113.366331 
L 148.11824 113.366331 
L 148.474042 113.366331 
L 148.829845 113.366331 
L 149.185647 113.366331 
L 149.54145 113.366331 
L 149.897252 113.366331 
L 150.253055 113.366331 
L 150.608857 113.366331 
L 150.96466 113.366331 
L 151.320462 113.366331 
L 151.676265 113.366331 
L 152.032067 113.366331 
L 152.38787 113.366331 
L 152.743672 113.366331 
L 153.099475 113.366331 
L 153.455277 113.366331 
L 153.81108 113.366331 
L 154.166882 113.366331 
L 154.522685 113.366331 
L 154.878487 113.366331 
L 155.23429 113.366331 
L 155.590092 113.366331 
L 155.945895 113.366331 
L 156.301697 113.366331 
L 156.6575 113.366331 
L 157.013302 113.366331 
L 157.369105 113.366331 
L 157.724907 113.366331 
L 158.08071 113.366331 
L 158.436513 113.366331 
L 158.792315 113.366331 
L 159.148118 113.366331 
L 159.50392 113.366331 
L 159.859723 113.366331 
L 160.215525 113.366331 
L 160.571328 113.366331 
L 160.92713 113.366331 
L 161.282933 113.366331 
L 161.638735 113.366331 
L 161.994538 113.366331 
L 162.35034 113.366331 
L 162.706143 113.366331 
L 163.061945 113.366331 
L 163.417748 113.366331 
L 163.77355 113.366331 
L 164.129353 113.366331 
L 164.485155 113.366331 
L 164.840958 113.366331 
L 165.19676 113.366331 
L 165.552563 113.366331 
L 165.908365 113.366331 
L 166.264168 113.366331 
L 166.61997 113.366331 
L 166.975773 113.366331 
L 167.331575 113.366331 
L 167.687378 113.366331 
L 168.04318 113.366331 
L 168.398983 113.366331 
L 168.754785 113.366331 
L 169.110588 113.366331 
L 169.46639 113.366331 
L 169.822193 113.366331 
L 170.177995 113.366331 
L 170.533798 113.366331 
L 170.889601 113.366331 
L 171.245403 113.366331 
L 171.601206 113.366331 
L 171.957008 113.366331 
L 172.312811 113.366331 
L 172.668613 113.366331 
L 173.024416 113.366331 
L 173.380218 113.366331 
L 173.736021 113.366331 
L 174.091823 113.366331 
L 174.447626 113.366331 
L 174.803428 113.366331 
L 175.159231 113.366331 
L 175.515033 113.366331 
L 175.870836 113.366331 
L 176.226638 113.366331 
L 176.582441 113.366331 
L 176.938243 113.366331 
L 177.294046 113.366331 
L 177.649848 113.366331 
L 178.005651 113.366331 
L 178.361453 113.366331 
L 178.717256 113.366331 
L 179.073058 113.366331 
L 179.428861 113.366331 
L 179.784663 113.366331 
L 180.140466 113.366331 
L 180.496268 113.366331 
L 180.852071 113.366331 
L 181.207873 113.366331 
L 181.563676 113.366331 
L 181.919478 113.366331 
L 182.275281 113.366331 
L 182.631083 113.366331 
L 182.986886 113.366331 
L 183.342689 113.366331 
L 183.698491 113.366331 
L 184.054294 113.366331 
L 184.410096 113.366331 
L 184.765899 113.366331 
L 185.121701 113.366331 
L 185.477504 113.366331 
L 185.833306 113.366331 
L 186.189109 113.366331 
L 186.544911 113.366331 
L 186.900714 113.366331 
L 187.256516 113.366331 
L 187.612319 113.366331 
L 187.968121 113.366331 
L 188.323924 113.366331 
L 188.679726 113.366331 
L 189.035529 113.366331 
L 189.391331 113.366331 
L 189.747134 113.366331 
L 190.102936 113.366331 
L 190.458739 113.366331 
L 190.814541 113.366331 
L 191.170344 113.366331 
L 191.526146 113.366331 
L 191.881949 113.366331 
L 192.237751 113.366331 
L 192.593554 113.366331 
L 192.949356 113.366331 
L 193.305159 113.366331 
L 193.660961 113.366331 
L 194.016764 113.366331 
L 194.372566 113.366331 
L 194.728369 113.366331 
L 195.084171 113.366331 
L 195.439974 113.366331 
L 195.795776 113.366331 
L 196.151579 113.366331 
L 196.507382 113.366331 
L 196.863184 113.366331 
L 197.218987 113.366331 
L 197.574789 113.366331 
L 197.930592 113.366331 
L 198.286394 113.366331 
L 198.642197 113.366331 
L 198.997999 113.366331 
L 199.353802 113.366331 
L 199.709604 113.366331 
L 200.065407 113.366331 
L 200.421209 113.366331 
L 200.777012 113.366331 
L 201.132814 113.366331 
L 201.488617 113.366331 
L 201.844419 113.366331 
L 202.200222 113.366331 
L 202.556024 113.366331 
L 202.911827 113.366331 
L 203.267629 113.366331 
L 203.623432 113.366331 
L 203.979234 113.366331 
L 204.335037 113.366331 
L 204.690839 113.366331 
L 205.046642 113.366331 
L 205.402444 113.366331 
L 205.758247 113.366331 
L 206.114049 113.366331 
L 206.469852 113.366331 
L 206.825654 113.366331 
L 207.181457 113.366331 
L 207.537259 113.366331 
L 207.893062 113.366331 
L 208.248864 113.366331 
L 208.604667 113.366331 
L 208.96047 113.366331 
L 209.316272 113.366331 
L 209.672075 113.366331 
L 210.027877 113.366331 
L 210.38368 113.366331 
L 210.739482 113.366331 
L 211.095285 113.366331 
L 211.451087 113.366331 
L 211.80689 113.366331 
L 212.162692 113.366331 
L 212.518495 113.366331 
L 212.874297 113.366331 
L 213.2301 113.366331 
L 213.585902 113.366331 
L 213.941705 113.366331 
L 214.297507 113.366331 
L 214.65331 113.366331 
L 215.009112 113.366331 
L 215.364915 113.366331 
L 215.364915 14.266715 
L 215.364915 14.266715 
L 215.009112 14.266715 
L 214.65331 14.266715 
L 214.297507 14.266715 
L 213.941705 14.266715 
L 213.585902 14.266715 
L 213.2301 14.266715 
L 212.874297 14.266715 
L 212.518495 14.266715 
L 212.162692 14.266715 
L 211.80689 14.266715 
L 211.451087 14.266715 
L 211.095285 14.266715 
L 210.739482 14.266715 
L 210.38368 14.266715 
L 210.027877 14.266715 
L 209.672075 14.266715 
L 209.316272 14.266715 
L 208.96047 14.266715 
L 208.604667 14.266715 
L 208.248864 14.266715 
L 207.893062 14.266715 
L 207.537259 14.266715 
L 207.181457 14.266715 
L 206.825654 14.266715 
L 206.469852 14.266715 
L 206.114049 14.266715 
L 205.758247 14.266715 
L 205.402444 14.266715 
L 205.046642 14.266715 
L 204.690839 14.266715 
L 204.335037 14.266715 
L 203.979234 14.266715 
L 203.623432 14.266715 
L 203.267629 14.266715 
L 202.911827 14.266715 
L 202.556024 14.266715 
L 202.200222 14.266715 
L 201.844419 14.266715 
L 201.488617 14.266715 
L 201.132814 14.266715 
L 200.777012 14.266715 
L 200.421209 14.266715 
L 200.065407 14.266715 
L 199.709604 14.266715 
L 199.353802 14.266715 
L 198.997999 14.266715 
L 198.642197 14.266715 
L 198.286394 14.266715 
L 197.930592 14.266715 
L 197.574789 14.266715 
L 197.218987 14.266715 
L 196.863184 14.266715 
L 196.507382 14.266715 
L 196.151579 14.266715 
L 195.795776 14.266715 
L 195.439974 14.266715 
L 195.084171 14.266715 
L 194.728369 14.266715 
L 194.372566 14.266715 
L 194.016764 14.266715 
L 193.660961 14.266715 
L 193.305159 14.266715 
L 192.949356 14.266715 
L 192.593554 14.266715 
L 192.237751 14.266715 
L 191.881949 14.266715 
L 191.526146 14.266715 
L 191.170344 14.266715 
L 190.814541 14.266715 
L 190.458739 14.266715 
L 190.102936 14.266715 
L 189.747134 14.266715 
L 189.391331 14.266715 
L 189.035529 14.266715 
L 188.679726 14.266715 
L 188.323924 14.266715 
L 187.968121 14.266715 
L 187.612319 14.266715 
L 187.256516 14.266715 
L 186.900714 14.266715 
L 186.544911 14.266715 
L 186.189109 14.266715 
L 185.833306 14.266715 
L 185.477504 14.266715 
L 185.121701 14.266715 
L 184.765899 14.266715 
L 184.410096 14.266715 
L 184.054294 14.266715 
L 183.698491 14.266715 
L 183.342689 14.266715 
L 182.986886 14.266715 
L 182.631083 14.266715 
L 182.275281 14.266715 
L 181.919478 14.266715 
L 181.563676 14.266715 
L 181.207873 14.266715 
L 180.852071 14.266715 
L 180.496268 14.266715 
L 180.140466 14.266715 
L 179.784663 14.266715 
L 179.428861 14.266715 
L 179.073058 14.266715 
L 178.717256 14.266715 
L 178.361453 14.266715 
L 178.005651 14.266715 
L 177.649848 14.266715 
L 177.294046 14.266715 
L 176.938243 14.266715 
L 176.582441 14.266715 
L 176.226638 14.266715 
L 175.870836 14.266715 
L 175.515033 14.266715 
L 175.159231 14.266715 
L 174.803428 14.266715 
L 174.447626 14.266715 
L 174.091823 14.266715 
L 173.736021 14.266715 
L 173.380218 14.266715 
L 173.024416 14.266715 
L 172.668613 14.266715 
L 172.312811 14.266715 
L 171.957008 14.266715 
L 171.601206 14.266715 
L 171.245403 14.266715 
L 170.889601 14.266715 
L 170.533798 14.266715 
L 170.177995 14.266715 
L 169.822193 14.266715 
L 169.46639 14.266715 
L 169.110588 14.266715 
L 168.754785 14.266715 
L 168.398983 14.266715 
L 168.04318 14.266715 
L 167.687378 14.266715 
L 167.331575 14.266715 
L 166.975773 14.266715 
L 166.61997 14.266715 
L 166.264168 14.266715 
L 165.908365 14.266715 
L 165.552563 14.266715 
L 165.19676 14.266715 
L 164.840958 14.266715 
L 164.485155 14.266715 
L 164.129353 14.266715 
L 163.77355 14.266715 
L 163.417748 14.266715 
L 163.061945 14.266715 
L 162.706143 14.266715 
L 162.35034 14.266715 
L 161.994538 14.266715 
L 161.638735 14.266715 
L 161.282933 14.266715 
L 160.92713 14.266715 
L 160.571328 14.266715 
L 160.215525 14.266715 
L 159.859723 14.266715 
L 159.50392 14.266715 
L 159.148118 14.266715 
L 158.792315 14.266715 
L 158.436513 14.266715 
L 158.08071 14.266715 
L 157.724907 14.266715 
L 157.369105 14.266715 
L 157.013302 14.266715 
L 156.6575 14.266715 
L 156.301697 14.266715 
L 155.945895 14.266715 
L 155.590092 14.266715 
L 155.23429 14.266715 
L 154.878487 14.266715 
L 154.522685 14.266715 
L 154.166882 14.266715 
L 153.81108 14.266715 
L 153.455277 14.266715 
L 153.099475 14.266715 
L 152.743672 14.266715 
L 152.38787 14.266715 
L 152.032067 14.266715 
L 151.676265 14.266715 
L 151.320462 14.266715 
L 150.96466 14.266715 
L 150.608857 14.266715 
L 150.253055 14.266715 
L 149.897252 14.266715 
L 149.54145 14.266715 
L 149.185647 14.266715 
L 148.829845 14.266715 
L 148.474042 14.266715 
L 148.11824 14.266715 
L 147.762437 14.266715 
L 147.406635 14.266715 
L 147.050832 14.266715 
L 146.69503 14.266715 
L 146.339227 14.266715 
L 145.983425 14.266715 
L 145.627622 14.266715 
L 145.271819 14.266715 
L 144.916017 14.266715 
L 144.560214 14.266715 
L 144.204412 14.266715 
L 143.848609 14.266715 
L 143.492807 14.266715 
L 143.137004 14.266715 
L 142.781202 14.266715 
L 142.425399 14.266715 
L 142.069597 14.266715 
L 141.713794 14.266715 
L 141.357992 14.266715 
L 141.002189 14.266715 
L 140.646387 14.266715 
L 140.290584 14.266715 
L 139.934782 14.266715 
L 139.578979 14.266715 
L 139.223177 14.266715 
L 138.867374 14.266715 
L 138.511572 14.266715 
L 138.155769 14.266715 
L 137.799967 14.266715 
L 137.444164 14.266715 
L 137.088362 14.266715 
L 136.732559 14.266715 
L 136.376757 14.266715 
L 136.020954 14.266715 
L 135.665152 14.266715 
L 135.309349 14.266715 
L 134.953547 14.266715 
L 134.597744 14.266715 
L 134.241942 14.266715 
L 133.886139 14.266715 
L 133.530337 14.266715 
L 133.174534 14.266715 
L 132.818731 14.266715 
L 132.462929 14.266715 
L 132.107126 14.266715 
L 131.751324 14.266715 
L 131.395521 14.266715 
L 131.039719 14.266715 
L 130.683916 14.266715 
L 130.328114 14.266715 
L 129.972311 14.266715 
L 129.616509 14.266715 
L 129.260706 14.266715 
L 128.904904 14.266715 
L 128.549101 14.266715 
L 128.193299 14.266715 
L 127.837496 14.266715 
L 127.481694 14.266715 
L 127.125891 14.266715 
L 126.770089 14.266715 
L 126.414286 14.266715 
L 126.058484 14.266715 
L 125.702681 14.266715 
L 125.346879 14.266715 
L 124.991076 14.266715 
L 124.635274 14.266715 
L 124.279471 14.266715 
L 123.923669 14.266715 
L 123.567866 14.266715 
L 123.212064 14.266715 
L 122.856261 14.266715 
L 122.500459 14.266715 
L 122.144656 14.266715 
L 121.788854 14.266715 
L 121.433051 14.266715 
L 121.077249 14.266715 
L 120.721446 14.266715 
L 120.365644 14.266715 
L 120.009841 14.266715 
L 119.654038 14.266715 
L 119.298236 14.266715 
L 118.942433 14.266715 
L 118.586631 14.266715 
L 118.230828 14.266715 
L 117.875026 14.266715 
L 117.519223 14.266715 
L 117.163421 14.266715 
L 116.807618 14.266715 
L 116.451816 14.266715 
L 116.096013 14.266715 
L 115.740211 14.266715 
L 115.384408 14.266715 
L 115.028606 14.266715 
L 114.672803 14.266715 
L 114.317001 14.266715 
L 113.961198 14.266715 
L 113.605396 14.266715 
L 113.249593 14.266715 
L 112.893791 14.266715 
L 112.537988 14.266715 
L 112.182186 14.266715 
L 111.826383 14.266715 
L 111.470581 14.266715 
L 111.114778 14.266715 
L 110.758976 14.266715 
L 110.403173 14.266715 
L 110.047371 14.266715 
L 109.691568 14.266715 
L 109.335766 14.266715 
L 108.979963 14.266715 
L 108.624161 14.266715 
L 108.268358 14.266715 
L 107.912556 14.266715 
L 107.556753 14.266715 
L 107.20095 14.266715 
L 106.845148 14.266715 
L 106.489345 14.266715 
L 106.133543 14.266715 
L 105.77774 14.266715 
L 105.421938 14.266715 
L 105.066135 14.266715 
L 104.710333 14.266715 
L 104.35453 14.266715 
L 103.998728 14.266715 
L 103.642925 14.266715 
L 103.287123 14.266715 
L 102.93132 14.266715 
L 102.575518 14.266715 
L 102.219715 14.266715 
L 101.863913 14.266715 
L 101.50811 14.266715 
L 101.152308 14.266715 
L 100.796505 14.266715 
L 100.440703 14.266715 
L 100.0849 14.266715 
L 99.729098 14.266715 
L 99.373295 14.266715 
L 99.017493 14.266715 
L 98.66169 14.266715 
L 98.305888 14.266715 
L 97.950085 14.266715 
L 97.594283 14.266715 
L 97.23848 14.266715 
L 96.882678 14.266715 
L 96.526875 14.266715 
L 96.171073 14.266715 
L 95.81527 14.266715 
L 95.459468 14.266715 
L 95.103665 14.266715 
L 94.747862 14.266715 
L 94.39206 14.266715 
L 94.036257 14.266715 
L 93.680455 14.266715 
L 93.324652 14.266715 
L 92.96885 14.266715 
L 92.613047 14.266715 
L 92.257245 14.266715 
L 91.901442 14.266715 
L 91.54564 14.266715 
L 91.189837 14.266715 
L 90.834035 14.266715 
L 90.478232 14.266715 
L 90.12243 14.266715 
L 89.766627 14.266715 
L 89.410825 14.266715 
L 89.055022 14.266715 
L 88.69922 14.266715 
L 88.343417 14.266715 
L 87.987615 14.266715 
L 87.631812 14.266715 
L 87.27601 14.266715 
L 86.920207 14.266715 
L 86.564405 14.266715 
L 86.208602 14.266715 
L 85.8528 14.266715 
L 85.496997 14.266715 
L 85.141195 14.266715 
L 84.785392 14.266715 
L 84.42959 14.266715 
L 84.073787 14.266715 
L 83.717985 14.266715 
L 83.362182 14.266715 
L 83.00638 14.266715 
L 82.650577 14.266715 
L 82.294774 14.266715 
L 81.938972 14.266715 
L 81.583169 14.266715 
L 81.227367 14.266715 
L 80.871564 14.266715 
L 80.515762 14.266715 
L 80.159959 14.266715 
L 79.804157 14.266715 
L 79.448354 14.266715 
L 79.092552 14.266715 
L 78.736749 14.266715 
L 78.380947 14.266715 
L 78.025144 14.266715 
L 77.669342 14.266715 
L 77.313539 14.266715 
L 76.957737 14.266715 
L 76.601934 14.266715 
L 76.246132 14.266715 
L 75.890329 14.266715 
L 75.534527 14.266715 
L 75.178724 14.266715 
L 74.822922 14.266715 
L 74.467119 14.266715 
L 74.111317 14.266715 
L 73.755514 14.266715 
L 73.399712 14.266715 
L 73.043909 14.266715 
L 72.688107 14.266715 
L 72.332304 14.266715 
L 71.976502 14.266715 
L 71.620699 14.266715 
L 71.264897 14.266715 
L 70.909094 14.266715 
L 70.553292 14.266715 
L 70.197489 14.266715 
L 69.841686 14.266715 
L 69.485884 14.266715 
L 69.130081 14.266715 
L 68.774279 14.266715 
L 68.418476 14.266715 
L 68.062674 14.266715 
L 67.706871 14.266715 
L 67.351069 14.266715 
L 66.995266 14.266715 
L 66.639464 14.266715 
L 66.283661 14.266715 
L 65.927859 14.266715 
L 65.572056 14.266715 
L 65.216254 14.266715 
L 64.860451 14.266715 
L 64.504649 14.266715 
L 64.148846 14.266715 
L 63.793044 14.266715 
L 63.437241 14.266715 
L 63.081439 14.266715 
L 62.725636 14.266715 
L 62.369834 14.266715 
L 62.014031 14.266715 
L 61.658229 14.266715 
L 61.302426 14.266715 
L 60.946624 14.266715 
L 60.590821 14.266715 
L 60.235019 14.266715 
L 59.879216 14.266715 
L 59.523414 14.266715 
L 59.167611 14.266715 
L 58.811809 14.266715 
L 58.456006 14.266715 
L 58.100204 14.266715 
L 57.744401 14.266715 
L 57.388599 14.266715 
L 57.032796 14.266715 
L 56.676993 14.266715 
L 56.321191 14.266715 
L 55.965388 14.266715 
L 55.609586 14.266715 
L 55.253783 14.266715 
L 54.897981 14.266715 
L 54.542178 14.266715 
L 54.186376 14.266715 
L 53.830573 14.266715 
L 53.474771 14.266715 
L 53.118968 14.266715 
L 52.763166 14.266715 
L 52.407363 14.266715 
L 52.051561 14.266715 
L 51.695758 14.266715 
L 51.339956 14.266715 
L 50.984153 14.266715 
L 50.628351 14.266715 
L 50.272548 14.266715 
L 49.916746 14.266715 
L 49.560943 14.266715 
L 49.205141 14.266715 
L 48.849338 14.266715 
L 48.493536 14.266715 
L 48.137733 14.266715 
L 47.781931 14.266715 
L 47.426128 14.266715 
L 47.070326 14.266715 
L 46.714523 14.266715 
L 46.358721 14.266715 
L 46.002918 14.266715 
L 45.647116 14.266715 
L 45.291313 14.266715 
L 44.935511 14.266715 
L 44.579708 14.266715 
L 44.223905 14.266715 
L 43.868103 14.266715 
L 43.5123 14.266715 
L 43.156498 14.266715 
L 42.800695 14.266715 
L 42.444893 14.266715 
L 42.08909 14.266715 
L 41.733288 14.266715 
L 41.377485 14.266715 
L 41.021683 14.266715 
L 40.66588 14.266715 
L 40.310078 14.266715 
L 39.954275 14.266715 
L 39.598473 14.266715 
L 39.24267 14.266715 
L 38.886868 14.266715 
L 38.531065 14.266715 
L 38.175263 14.266715 
L 37.81946 14.266715 
z
" clip-path="url(#pd7014d00b3)" style="fill: #1f77b4; fill-opacity: 0.25"/>
   </g>
   <g id="matplotlib.axis_1">
    <g id="xtick_1">
     <g id="line2d_1">
      <defs>
       <path id="mb6ee433fc5" d="M 0 0 
L 0 3.5 
" style="stroke: #000000; stroke-width: 0.8"/>
      </defs>
      <g>
       <use xlink:href="#mb6ee433fc5" x="37.81946" y="145.8" style="stroke: #000000; stroke-width: 0.8"/>
      </g>
     </g>
     <g id="text_1">
      <!-- 0 -->
      <g transform="translate(34.63821 160.398438) scale(0.1 -0.1)">
       <defs>
        <path id="DejaVuSans-30" d="M 2034 4250 
Q 1547 4250 1301 3770 
Q 1056 3291 1056 2328 
Q 1056 1369 1301 889 
Q 1547 409 2034 409 
Q 2525 409 2770 889 
Q 3016 1369 3016 2328 
Q 3016 3291 2770 3770 
Q 2525 4250 2034 4250 
z
M 2034 4750 
Q 2819 4750 3233 4129 
Q 3647 3509 3647 2328 
Q 3647 1150 3233 529 
Q 2819 -91 2034 -91 
Q 1250 -91 836 529 
Q 422 1150 422 2328 
Q 422 3509 836 4129 
Q 1250 4750 2034 4750 
z
" transform="scale(0.015625)"/>
       </defs>
       <use xlink:href="#DejaVuSans-30"/>
      </g>
     </g>
    </g>
    <g id="xtick_2">
     <g id="line2d_2">
      <g>
       <use xlink:href="#mb6ee433fc5" x="73.328551" y="145.8" style="stroke: #000000; stroke-width: 0.8"/>
      </g>
     </g>
     <g id="text_2">
      <!-- 1 -->
      <g transform="translate(70.147301 160.398438) scale(0.1 -0.1)">
       <defs>
        <path id="DejaVuSans-31" d="M 794 531 
L 1825 531 
L 1825 4091 
L 703 3866 
L 703 4441 
L 1819 4666 
L 2450 4666 
L 2450 531 
L 3481 531 
L 3481 0 
L 794 0 
L 794 531 
z
" transform="scale(0.015625)"/>
       </defs>
       <use xlink:href="#DejaVuSans-31"/>
      </g>
     </g>
    </g>
    <g id="xtick_3">
     <g id="line2d_3">
      <g>
       <use xlink:href="#mb6ee433fc5" x="108.837642" y="145.8" style="stroke: #000000; stroke-width: 0.8"/>
      </g>
     </g>
     <g id="text_3">
      <!-- 2 -->
      <g transform="translate(105.656392 160.398438) scale(0.1 -0.1)">
       <defs>
        <path id="DejaVuSans-32" d="M 1228 531 
L 3431 531 
L 3431 0 
L 469 0 
L 469 531 
Q 828 903 1448 1529 
Q 2069 2156 2228 2338 
Q 2531 2678 2651 2914 
Q 2772 3150 2772 3378 
Q 2772 3750 2511 3984 
Q 2250 4219 1831 4219 
Q 1534 4219 1204 4116 
Q 875 4013 500 3803 
L 500 4441 
Q 881 4594 1212 4672 
Q 1544 4750 1819 4750 
Q 2544 4750 2975 4387 
Q 3406 4025 3406 3419 
Q 3406 3131 3298 2873 
Q 3191 2616 2906 2266 
Q 2828 2175 2409 1742 
Q 1991 1309 1228 531 
z
" transform="scale(0.015625)"/>
       </defs>
       <use xlink:href="#DejaVuSans-32"/>
      </g>
     </g>
    </g>
    <g id="xtick_4">
     <g id="line2d_4">
      <g>
       <use xlink:href="#mb6ee433fc5" x="144.346733" y="145.8" style="stroke: #000000; stroke-width: 0.8"/>
      </g>
     </g>
     <g id="text_4">
      <!-- 3 -->
      <g transform="translate(141.165483 160.398438) scale(0.1 -0.1)">
       <defs>
        <path id="DejaVuSans-33" d="M 2597 2516 
Q 3050 2419 3304 2112 
Q 3559 1806 3559 1356 
Q 3559 666 3084 287 
Q 2609 -91 1734 -91 
Q 1441 -91 1130 -33 
Q 819 25 488 141 
L 488 750 
Q 750 597 1062 519 
Q 1375 441 1716 441 
Q 2309 441 2620 675 
Q 2931 909 2931 1356 
Q 2931 1769 2642 2001 
Q 2353 2234 1838 2234 
L 1294 2234 
L 1294 2753 
L 1863 2753 
Q 2328 2753 2575 2939 
Q 2822 3125 2822 3475 
Q 2822 3834 2567 4026 
Q 2313 4219 1838 4219 
Q 1578 4219 1281 4162 
Q 984 4106 628 3988 
L 628 4550 
Q 988 4650 1302 4700 
Q 1616 4750 1894 4750 
Q 2613 4750 3031 4423 
Q 3450 4097 3450 3541 
Q 3450 3153 3228 2886 
Q 3006 2619 2597 2516 
z
" transform="scale(0.015625)"/>
       </defs>
       <use xlink:href="#DejaVuSans-33"/>
      </g>
     </g>
    </g>
    <g id="xtick_5">
     <g id="line2d_5">
      <g>
       <use xlink:href="#mb6ee433fc5" x="179.855824" y="145.8" style="stroke: #000000; stroke-width: 0.8"/>
      </g>
     </g>
     <g id="text_5">
      <!-- 4 -->
      <g transform="translate(176.674574 160.398438) scale(0.1 -0.1)">
       <defs>
        <path id="DejaVuSans-34" d="M 2419 4116 
L 825 1625 
L 2419 1625 
L 2419 4116 
z
M 2253 4666 
L 3047 4666 
L 3047 1625 
L 3713 1625 
L 3713 1100 
L 3047 1100 
L 3047 0 
L 2419 0 
L 2419 1100 
L 313 1100 
L 313 1709 
L 2253 4666 
z
" transform="scale(0.015625)"/>
       </defs>
       <use xlink:href="#DejaVuSans-34"/>
      </g>
     </g>
    </g>
    <g id="xtick_6">
     <g id="line2d_6">
      <g>
       <use xlink:href="#mb6ee433fc5" x="215.364915" y="145.8" style="stroke: #000000; stroke-width: 0.8"/>
      </g>
     </g>
     <g id="text_6">
      <!-- 5 -->
      <g transform="translate(212.183665 160.398438) scale(0.1 -0.1)">
       <defs>
        <path id="DejaVuSans-35" d="M 691 4666 
L 3169 4666 
L 3169 4134 
L 1269 4134 
L 1269 2991 
Q 1406 3038 1543 3061 
Q 1681 3084 1819 3084 
Q 2600 3084 3056 2656 
Q 3513 2228 3513 1497 
Q 3513 744 3044 326 
Q 2575 -91 1722 -91 
Q 1428 -91 1123 -41 
Q 819 9 494 109 
L 494 744 
Q 775 591 1075 516 
Q 1375 441 1709 441 
Q 2250 441 2565 725 
Q 2881 1009 2881 1497 
Q 2881 1984 2565 2268 
Q 2250 2553 1709 2553 
Q 1456 2553 1204 2497 
Q 953 2441 691 2322 
L 691 4666 
z
" transform="scale(0.015625)"/>
       </defs>
       <use xlink:href="#DejaVuSans-35"/>
      </g>
     </g>
    </g>
   </g>
   <g id="matplotlib.axis_2">
    <g id="ytick_1">
     <g id="line2d_7">
      <defs>
       <path id="md023561924" d="M 0 0 
L -3.5 0 
" style="stroke: #000000; stroke-width: 0.8"/>
      </defs>
      <g>
       <use xlink:href="#md023561924" x="28.942188" y="138.141235" style="stroke: #000000; stroke-width: 0.8"/>
      </g>
     </g>
     <g id="text_7">
      <!-- −3 -->
      <g transform="translate(7.2 141.940453) scale(0.1 -0.1)">
       <defs>
        <path id="DejaVuSans-2212" d="M 678 2272 
L 4684 2272 
L 4684 1741 
L 678 1741 
L 678 2272 
z
" transform="scale(0.015625)"/>
       </defs>
       <use xlink:href="#DejaVuSans-2212"/>
       <use xlink:href="#DejaVuSans-33" x="83.789062"/>
      </g>
     </g>
    </g>
    <g id="ytick_2">
     <g id="line2d_8">
      <g>
       <use xlink:href="#md023561924" x="28.942188" y="113.366331" style="stroke: #000000; stroke-width: 0.8"/>
      </g>
     </g>
     <g id="text_8">
      <!-- −2 -->
      <g transform="translate(7.2 117.16555) scale(0.1 -0.1)">
       <use xlink:href="#DejaVuSans-2212"/>
       <use xlink:href="#DejaVuSans-32" x="83.789062"/>
      </g>
     </g>
    </g>
    <g id="ytick_3">
     <g id="line2d_9">
      <g>
       <use xlink:href="#md023561924" x="28.942188" y="88.591427" style="stroke: #000000; stroke-width: 0.8"/>
      </g>
     </g>
     <g id="text_9">
      <!-- −1 -->
      <g transform="translate(7.2 92.390646) scale(0.1 -0.1)">
       <use xlink:href="#DejaVuSans-2212"/>
       <use xlink:href="#DejaVuSans-31" x="83.789062"/>
      </g>
     </g>
    </g>
    <g id="ytick_4">
     <g id="line2d_10">
      <g>
       <use xlink:href="#md023561924" x="28.942188" y="63.816523" style="stroke: #000000; stroke-width: 0.8"/>
      </g>
     </g>
     <g id="text_10">
      <!-- 0 -->
      <g transform="translate(15.579688 67.615742) scale(0.1 -0.1)">
       <use xlink:href="#DejaVuSans-30"/>
      </g>
     </g>
    </g>
    <g id="ytick_5">
     <g id="line2d_11">
      <g>
       <use xlink:href="#md023561924" x="28.942188" y="39.041619" style="stroke: #000000; stroke-width: 0.8"/>
      </g>
     </g>
     <g id="text_11">
      <!-- 1 -->
      <g transform="translate(15.579688 42.840838) scale(0.1 -0.1)">
       <use xlink:href="#DejaVuSans-31"/>
      </g>
     </g>
    </g>
    <g id="ytick_6">
     <g id="line2d_12">
      <g>
       <use xlink:href="#md023561924" x="28.942188" y="14.266715" style="stroke: #000000; stroke-width: 0.8"/>
      </g>
     </g>
     <g id="text_12">
      <!-- 2 -->
      <g transform="translate(15.579688 18.065934) scale(0.1 -0.1)">
       <use xlink:href="#DejaVuSans-32"/>
      </g>
     </g>
    </g>
   </g>
   <g id="line2d_13">
    <path d="M 37.81946 66.711666 
L 39.24267 65.427066 
L 40.310078 64.695205 
L 41.377485 64.185335 
L 42.444893 63.919468 
L 43.5123 63.919531 
L 44.579708 64.206369 
L 45.647116 64.798611 
L 46.714523 65.711479 
L 47.781931 66.955624 
L 48.849338 68.536014 
L 49.916746 70.450991 
L 51.339956 73.508222 
L 52.763166 77.100962 
L 54.542178 82.241144 
L 56.676993 89.120832 
L 63.793044 112.784849 
L 65.572056 117.795618 
L 67.351069 122.178393 
L 69.130081 125.905658 
L 70.553292 128.433315 
L 71.976502 130.593691 
L 73.755514 132.846667 
L 75.534527 134.689457 
L 77.313539 136.202785 
L 79.092552 137.439207 
L 80.871564 138.414506 
L 82.650577 139.107183 
L 84.073787 139.423806 
L 85.496997 139.491539 
L 86.564405 139.356455 
L 87.631812 139.04544 
L 88.69922 138.545836 
L 89.766627 137.848164 
L 91.189837 136.600943 
L 92.613047 134.991911 
L 94.036257 133.03574 
L 95.81527 130.147936 
L 97.950085 126.1468 
L 100.796505 120.203358 
L 109.335766 101.942184 
L 113.249593 94.356091 
L 121.433051 79.222962 
L 127.125891 68.937131 
L 129.616509 64.859286 
L 131.751324 61.779019 
L 133.530337 59.595302 
L 134.953547 58.136875 
L 136.376757 56.95102 
L 137.799967 56.038585 
L 139.223177 55.385352 
L 140.646387 54.961286 
L 142.425399 54.683039 
L 145.271819 54.531474 
L 147.406635 54.350557 
L 148.829845 54.05905 
L 150.253055 53.555964 
L 151.676265 52.793558 
L 153.099475 51.744126 
L 154.522685 50.403642 
L 156.301697 48.354038 
L 158.436513 45.482794 
L 163.061945 39.067903 
L 164.485155 37.464353 
L 165.908365 36.208043 
L 166.975773 35.539425 
L 168.04318 35.130972 
L 169.110588 34.996117 
L 170.177995 35.138848 
L 171.245403 35.553741 
L 172.312811 36.226513 
L 173.380218 37.135087 
L 174.803428 38.663615 
L 176.582441 40.971788 
L 179.073058 44.656242 
L 188.323924 59.099322 
L 190.458739 62.816175 
L 192.593554 67.012625 
L 194.728369 71.797717 
L 196.863184 77.163319 
L 200.065407 85.944103 
L 203.623432 95.594345 
L 205.402444 99.848111 
L 206.825654 102.783368 
L 208.248864 105.208128 
L 209.316272 106.652506 
L 210.38368 107.756112 
L 211.451087 108.510081 
L 212.518495 108.914009 
L 213.585902 108.975505 
L 214.65331 108.709564 
L 215.364915 108.360723 
L 215.364915 108.360723 
" clip-path="url(#pd7014d00b3)" style="fill: none; stroke: #000000; stroke-opacity: 0.5; stroke-width: 1.5; stroke-linecap: square"/>
   </g>
   <g id="line2d_14">
    <path d="M 37.81946 88.152826 
L 39.24267 90.99566 
L 40.66588 93.302736 
L 41.733288 94.653359 
L 42.800695 95.66651 
L 43.868103 96.339974 
L 44.935511 96.679537 
L 46.002918 96.698857 
L 47.070326 96.419086 
L 48.137733 95.868281 
L 49.205141 95.080627 
L 50.628351 93.730614 
L 52.407363 91.709193 
L 57.032796 86.216739 
L 58.456006 84.870121 
L 59.879216 83.837919 
L 60.946624 83.306934 
L 62.014031 83.004366 
L 63.081439 82.94056 
L 64.148846 83.118757 
L 65.216254 83.535314 
L 66.283661 84.180155 
L 67.706871 85.367027 
L 69.130081 86.880684 
L 70.909094 89.13848 
L 73.399712 92.747613 
L 81.583169 104.994375 
L 89.410825 116.164684 
L 92.613047 121.290629 
L 97.594283 129.348675 
L 99.373295 131.81687 
L 100.796505 133.465568 
L 102.219715 134.742785 
L 103.287123 135.418124 
L 104.35453 135.827423 
L 105.421938 135.955562 
L 106.489345 135.793669 
L 107.556753 135.339204 
L 108.624161 134.595616 
L 109.691568 133.571752 
L 110.758976 132.28103 
L 112.182186 130.174601 
L 113.605396 127.670547 
L 115.384408 124.056797 
L 117.519223 119.134505 
L 120.009841 112.762776 
L 123.212064 103.850108 
L 127.837496 90.167452 
L 132.107126 77.674763 
L 134.597744 71.04477 
L 136.376757 66.852738 
L 138.155769 63.258968 
L 139.578979 60.889617 
L 141.002189 59.017486 
L 142.069597 57.956922 
L 143.137004 57.19679 
L 144.204412 56.735654 
L 145.271819 56.565574 
L 146.339227 56.672164 
L 147.406635 57.034888 
L 148.474042 57.627633 
L 149.897252 58.721701 
L 151.676265 60.458275 
L 154.522685 63.665203 
L 157.369105 66.759904 
L 159.148118 68.348322 
L 160.571328 69.322784 
L 161.994538 69.978734 
L 163.061945 70.237684 
L 164.129353 70.28245 
L 165.19676 70.1033 
L 166.264168 69.693375 
L 167.331575 69.048649 
L 168.398983 68.167991 
L 169.822193 66.630652 
L 171.245403 64.692019 
L 172.668613 62.378836 
L 174.447626 59.024589 
L 176.582441 54.477428 
L 182.986886 40.390264 
L 184.410096 37.871613 
L 185.833306 35.807922 
L 186.900714 34.609342 
L 187.968121 33.740055 
L 189.035529 33.217761 
L 189.747134 33.066842 
L 190.458739 33.074105 
L 191.170344 33.237702 
L 192.237751 33.767525 
L 193.305159 34.620086 
L 194.372566 35.766975 
L 195.795776 37.691887 
L 197.574789 40.592935 
L 200.065407 45.192856 
L 203.979234 52.432295 
L 206.114049 55.847215 
L 207.893062 58.23956 
L 209.316272 59.82641 
L 210.739482 61.121097 
L 212.162692 62.136738 
L 213.585902 62.896442 
L 215.009112 63.429768 
L 215.364915 63.531529 
L 215.364915 63.531529 
" clip-path="url(#pd7014d00b3)" style="fill: none; stroke: #000000; stroke-opacity: 0.5; stroke-width: 1.5; stroke-linecap: square"/>
   </g>
   <g id="line2d_15">
    <path d="M 37.81946 85.460215 
L 38.531065 85.590205 
L 39.24267 85.507331 
L 39.954275 85.213706 
L 40.66588 84.714342 
L 41.733288 83.597369 
L 42.800695 82.073175 
L 43.868103 80.191215 
L 45.291313 77.229289 
L 47.426128 72.149084 
L 51.339956 62.609571 
L 53.118968 58.883608 
L 54.542178 56.38817 
L 55.965388 54.387738 
L 57.032796 53.223668 
L 58.100204 52.340735 
L 59.167611 51.72022 
L 60.235019 51.333364 
L 61.302426 51.14311 
L 62.725636 51.119545 
L 65.216254 51.388335 
L 67.351069 51.53704 
L 68.774279 51.416558 
L 70.197489 51.034315 
L 71.620699 50.347216 
L 73.043909 49.343057 
L 74.467119 48.041577 
L 76.246132 46.076374 
L 81.938972 39.344789 
L 83.362182 38.169932 
L 84.42959 37.567833 
L 85.496997 37.247676 
L 86.564405 37.238642 
L 87.631812 37.559697 
L 88.69922 38.218561 
L 89.766627 39.211106 
L 90.834035 40.521379 
L 92.257245 42.714111 
L 93.680455 45.330366 
L 95.81527 49.790392 
L 100.440703 59.725633 
L 102.219715 63.011044 
L 103.998728 65.797225 
L 105.421938 67.652088 
L 106.845148 69.201893 
L 108.624161 70.792903 
L 110.758976 72.380296 
L 115.740211 75.970693 
L 118.942433 78.685255 
L 122.144656 81.367464 
L 123.923669 82.561816 
L 125.346879 83.243132 
L 126.414286 83.555088 
L 127.481694 83.67661 
L 128.549101 83.597799 
L 129.616509 83.316934 
L 130.683916 82.840778 
L 132.107126 81.929525 
L 133.530337 80.756597 
L 135.665152 78.683958 
L 138.867374 75.542377 
L 140.290584 74.410895 
L 141.713794 73.586995 
L 142.781202 73.223164 
L 143.848609 73.110201 
L 144.916017 73.270163 
L 145.983425 73.717045 
L 147.050832 74.456213 
L 148.11824 75.484023 
L 149.185647 76.787753 
L 150.608857 78.916698 
L 152.38787 82.097142 
L 154.878487 87.158055 
L 158.436513 94.386578 
L 160.215525 97.418987 
L 161.638735 99.336493 
L 162.706143 100.404254 
L 163.77355 101.109301 
L 164.485155 101.360769 
L 165.19676 101.427386 
L 165.908365 101.302145 
L 166.61997 100.979472 
L 167.331575 100.455265 
L 168.04318 99.726912 
L 169.110588 98.249596 
L 170.177995 96.313516 
L 171.245403 93.929119 
L 172.668613 90.085167 
L 174.091823 85.54213 
L 175.870836 79.017569 
L 178.005651 70.249508 
L 185.121701 40.064217 
L 186.900714 33.953889 
L 188.323924 29.866451 
L 189.391331 27.326527 
L 190.458739 25.261683 
L 191.526146 23.679269 
L 192.593554 22.572748 
L 193.305159 22.09008 
L 194.016764 21.801156 
L 194.728369 21.694577 
L 195.439974 21.75691 
L 196.507382 22.133464 
L 197.574789 22.798628 
L 198.997999 24.028215 
L 200.777012 25.908557 
L 205.046642 30.569406 
L 206.825654 32.178416 
L 208.96047 33.778125 
L 214.297507 37.441927 
L 215.364915 38.425533 
L 215.364915 38.425533 
" clip-path="url(#pd7014d00b3)" style="fill: none; stroke: #000000; stroke-opacity: 0.5; stroke-width: 1.5; stroke-linecap: square"/>
   </g>
   <g id="line2d_16">
    <path d="M 37.81946 69.033971 
L 41.377485 63.188839 
L 43.868103 59.348414 
L 45.647116 57.064683 
L 47.070326 55.632847 
L 48.137733 54.830363 
L 49.205141 54.282186 
L 50.272548 54.001317 
L 51.339956 53.994378 
L 52.407363 54.261382 
L 53.474771 54.795607 
L 54.542178 55.583667 
L 55.965388 56.994158 
L 57.388599 58.756879 
L 59.167611 61.334424 
L 62.725636 67.049022 
L 65.216254 70.859824 
L 66.995266 73.223386 
L 68.774279 75.188 
L 70.197489 76.45367 
L 71.620699 77.460885 
L 73.399712 78.411039 
L 75.534527 79.234861 
L 81.583169 81.321498 
L 84.073787 82.530581 
L 90.478232 85.847227 
L 92.257245 86.40342 
L 93.680455 86.624299 
L 95.103665 86.62018 
L 96.526875 86.382627 
L 97.950085 85.917919 
L 99.373295 85.245902 
L 101.152308 84.162879 
L 103.642925 82.338778 
L 108.979963 78.283664 
L 111.114778 76.959257 
L 113.249593 75.907828 
L 115.384408 75.115401 
L 118.586631 74.228565 
L 121.433051 73.403604 
L 123.212064 72.689584 
L 124.991076 71.721325 
L 126.770089 70.442194 
L 128.549101 68.831595 
L 130.328114 66.910368 
L 132.818731 63.823808 
L 138.155769 56.980744 
L 139.934782 55.092229 
L 141.357992 53.853958 
L 142.781202 52.901819 
L 144.204412 52.261766 
L 145.271819 51.994003 
L 146.339227 51.908203 
L 147.406635 51.999695 
L 148.829845 52.382056 
L 150.253055 53.03377 
L 151.676265 53.91533 
L 153.455277 55.268656 
L 156.301697 57.771709 
L 160.215525 61.197681 
L 162.35034 62.763065 
L 164.129353 63.820378 
L 165.908365 64.646045 
L 168.04318 65.381069 
L 174.091823 67.238644 
L 175.515033 67.972366 
L 176.938243 68.930442 
L 178.361453 70.144426 
L 179.784663 71.626553 
L 181.563676 73.840074 
L 183.698491 76.932728 
L 190.814541 87.810064 
L 192.237751 89.503669 
L 193.660961 90.88269 
L 195.084171 91.905849 
L 196.151579 92.422567 
L 197.218987 92.716103 
L 198.286394 92.782397 
L 199.353802 92.619842 
L 200.421209 92.228689 
L 201.488617 91.610477 
L 202.556024 90.76775 
L 203.979234 89.300937 
L 205.402444 87.452356 
L 206.825654 85.238205 
L 208.604667 81.993671 
L 210.38368 78.286149 
L 212.874297 72.520175 
L 215.364915 66.44805 
L 215.364915 66.44805 
" clip-path="url(#pd7014d00b3)" style="fill: none; stroke: #000000; stroke-opacity: 0.5; stroke-width: 1.5; stroke-linecap: square"/>
   </g>
   <g id="line2d_17">
    <path d="M 37.81946 92.696427 
L 42.444893 99.316181 
L 48.493536 108.16431 
L 49.916746 109.814958 
L 50.984153 110.80169 
L 52.051561 111.517044 
L 53.118968 111.913797 
L 53.830573 111.980418 
L 54.542178 111.876284 
L 55.253783 111.59278 
L 55.965388 111.123376 
L 57.032796 110.06214 
L 58.100204 108.569997 
L 59.167611 106.656494 
L 60.235019 104.344637 
L 61.658229 100.706717 
L 63.437241 95.439721 
L 66.283661 86.082673 
L 69.130081 76.863407 
L 70.909094 71.815936 
L 72.332304 68.420143 
L 73.399712 66.325034 
L 74.467119 64.655987 
L 75.534527 63.434171 
L 76.246132 62.872645 
L 76.957737 62.512999 
L 77.669342 62.352006 
L 78.380947 62.38411 
L 79.092552 62.601563 
L 79.804157 62.994641 
L 80.871564 63.887967 
L 81.938972 65.105183 
L 83.362182 67.14359 
L 85.141195 70.175654 
L 89.055022 77.553501 
L 91.54564 81.91761 
L 93.324652 84.589218 
L 94.747862 86.38797 
L 96.171073 87.857081 
L 97.594283 88.982997 
L 99.017493 89.759675 
L 100.0849 90.111143 
L 101.152308 90.262939 
L 102.219715 90.212493 
L 103.287123 89.955678 
L 104.35453 89.48655 
L 105.421938 88.797365 
L 106.489345 87.878867 
L 107.556753 86.72084 
L 108.979963 84.786126 
L 110.403173 82.384371 
L 111.826383 79.499296 
L 113.249593 76.125389 
L 115.028606 71.236561 
L 116.807618 65.659081 
L 118.942433 58.215698 
L 122.500459 44.789714 
L 125.702681 32.967925 
L 127.481694 27.102309 
L 128.904904 22.992782 
L 130.328114 19.524833 
L 131.395521 17.401343 
L 132.462929 15.720954 
L 133.530337 14.504589 
L 134.241942 13.957539 
L 134.953547 13.622998 
L 135.665152 13.5 
L 136.376757 13.585625 
L 137.088362 13.875047 
L 137.799967 14.361574 
L 138.867374 15.441944 
L 139.934782 16.910788 
L 141.002189 18.72495 
L 142.425399 21.594559 
L 144.204412 25.719329 
L 150.96466 42.18105 
L 152.743672 45.608154 
L 154.166882 47.865823 
L 155.590092 49.668967 
L 157.013302 51.030795 
L 158.436513 51.997017 
L 159.859723 52.642449 
L 161.638735 53.149361 
L 165.19676 54.027038 
L 166.61997 54.64408 
L 168.04318 55.552152 
L 169.46639 56.806622 
L 170.889601 58.427451 
L 172.312811 60.396447 
L 174.091823 63.259264 
L 180.496268 74.067872 
L 181.919478 75.780258 
L 182.986886 76.7473 
L 184.054294 77.411378 
L 185.121701 77.757441 
L 186.189109 77.78322 
L 187.256516 77.499492 
L 188.323924 76.92972 
L 189.391331 76.109239 
L 190.814541 74.70575 
L 192.949356 72.212844 
L 195.439974 69.334016 
L 196.863184 68.004863 
L 197.930592 67.265821 
L 198.997999 66.801425 
L 200.065407 66.648733 
L 200.777012 66.73295 
L 201.488617 66.971172 
L 202.556024 67.619491 
L 203.623432 68.609515 
L 204.690839 69.91989 
L 206.114049 72.103252 
L 207.893062 75.363935 
L 213.2301 85.659195 
L 214.65331 87.710927 
L 215.364915 88.525601 
L 215.364915 88.525601 
" clip-path="url(#pd7014d00b3)" style="fill: none; stroke: #000000; stroke-opacity: 0.5; stroke-width: 1.5; stroke-linecap: square"/>
   </g>
   <g id="line2d_18">
    <path d="M 37.81946 63.816523 
L 215.364915 63.816523 
L 215.364915 63.816523 
" clip-path="url(#pd7014d00b3)" style="fill: none; stroke: #1f77b4; stroke-width: 2; stroke-linecap: square"/>
   </g>
   <g id="patch_3">
    <path d="M 28.942188 145.8 
L 28.942188 7.2 
" style="fill: none; stroke: #000000; stroke-width: 0.8; stroke-linejoin: miter; stroke-linecap: square"/>
   </g>
   <g id="patch_4">
    <path d="M 224.242188 145.8 
L 224.242188 7.2 
" style="fill: none; stroke: #000000; stroke-width: 0.8; stroke-linejoin: miter; stroke-linecap: square"/>
   </g>
   <g id="patch_5">
    <path d="M 28.942187 145.8 
L 224.242188 145.8 
" style="fill: none; stroke: #000000; stroke-width: 0.8; stroke-linejoin: miter; stroke-linecap: square"/>
   </g>
   <g id="patch_6">
    <path d="M 28.942187 7.2 
L 224.242188 7.2 
" style="fill: none; stroke: #000000; stroke-width: 0.8; stroke-linejoin: miter; stroke-linecap: square"/>
   </g>
  </g>
 </g>
 <defs>
  <clipPath id="pd7014d00b3">
   <rect x="28.942188" y="7.2" width="195.3" height="138.6"/>
  </clipPath>
 </defs>
</svg>
