<?xml version="1.0" encoding="utf-8" standalone="no"?>
<!DOCTYPE svg PUBLIC "-//W3C//DTD SVG 1.1//EN"
  "http://www.w3.org/Graphics/SVG/1.1/DTD/svg11.dtd">
<svg xmlns:xlink="http://www.w3.org/1999/xlink" width="231.442188pt" height="169.678125pt" viewBox="0 0 231.442188 169.678125" xmlns="http://www.w3.org/2000/svg" version="1.1">
 <metadata>
  <rdf:RDF xmlns:dc="http://purl.org/dc/elements/1.1/" xmlns:cc="http://creativecommons.org/ns#" xmlns:rdf="http://www.w3.org/1999/02/22-rdf-syntax-ns#">
   <cc:Work>
    <dc:type rdf:resource="http://purl.org/dc/dcmitype/StillImage"/>
    <dc:date>2025-07-01T15:52:56.518954</dc:date>
    <dc:format>image/svg+xml</dc:format>
    <dc:creator>
     <cc:Agent>
      <dc:title>Matplotlib v3.7.2, https://matplotlib.org/</dc:title>
     </cc:Agent>
    </dc:creator>
   </cc:Work>
  </rdf:RDF>
 </metadata>
 <defs>
  <style type="text/css">*{stroke-linejoin: round; stroke-linecap: butt}</style>
 </defs>
 <g id="figure_1">
  <g id="patch_1">
   <path d="M 0 169.678125 
L 231.442188 169.678125 
L 231.442188 0 
L 0 0 
z
" style="fill: #ffffff"/>
  </g>
  <g id="axes_1">
   <g id="patch_2">
    <path d="M 28.942188 145.8 
L 224.242188 145.8 
L 224.242188 7.2 
L 28.942188 7.2 
z
" style="fill: #ffffff"/>
   </g>
   <g id="PolyCollection_1">
    <path d="M 37.81946 29.660605 
L 37.81946 132.05249 
L 38.175263 132.05249 
L 38.531065 132.05249 
L 38.886868 132.05249 
L 39.24267 132.05249 
L 39.598473 132.05249 
L 39.954275 132.05249 
L 40.310078 132.05249 
L 40.66588 132.05249 
L 41.021683 132.05249 
L 41.377485 132.05249 
L 41.733288 132.05249 
L 42.08909 132.05249 
L 42.444893 132.05249 
L 42.800695 132.05249 
L 43.156498 132.05249 
L 43.5123 132.05249 
L 43.868103 132.05249 
L 44.223905 132.05249 
L 44.579708 132.05249 
L 44.935511 132.05249 
L 45.291313 132.05249 
L 45.647116 132.05249 
L 46.002918 132.05249 
L 46.358721 132.05249 
L 46.714523 132.05249 
L 47.070326 132.05249 
L 47.426128 132.05249 
L 47.781931 132.05249 
L 48.137733 132.05249 
L 48.493536 132.05249 
L 48.849338 132.05249 
L 49.205141 132.05249 
L 49.560943 132.05249 
L 49.916746 132.05249 
L 50.272548 132.05249 
L 50.628351 132.05249 
L 50.984153 132.05249 
L 51.339956 132.05249 
L 51.695758 132.05249 
L 52.051561 132.05249 
L 52.407363 132.05249 
L 52.763166 132.05249 
L 53.118968 132.05249 
L 53.474771 132.05249 
L 53.830573 132.05249 
L 54.186376 132.05249 
L 54.542178 132.05249 
L 54.897981 132.05249 
L 55.253783 132.05249 
L 55.609586 132.05249 
L 55.965388 132.05249 
L 56.321191 132.05249 
L 56.676993 132.05249 
L 57.032796 132.05249 
L 57.388599 132.05249 
L 57.744401 132.05249 
L 58.100204 132.05249 
L 58.456006 132.05249 
L 58.811809 132.05249 
L 59.167611 132.05249 
L 59.523414 132.05249 
L 59.879216 132.05249 
L 60.235019 132.05249 
L 60.590821 132.05249 
L 60.946624 132.05249 
L 61.302426 132.05249 
L 61.658229 132.05249 
L 62.014031 132.05249 
L 62.369834 132.05249 
L 62.725636 132.05249 
L 63.081439 132.05249 
L 63.437241 132.05249 
L 63.793044 132.05249 
L 64.148846 132.05249 
L 64.504649 132.05249 
L 64.860451 132.05249 
L 65.216254 132.05249 
L 65.572056 132.05249 
L 65.927859 132.05249 
L 66.283661 132.05249 
L 66.639464 132.05249 
L 66.995266 132.05249 
L 67.351069 132.05249 
L 67.706871 132.05249 
L 68.062674 132.05249 
L 68.418476 132.05249 
L 68.774279 132.05249 
L 69.130081 132.05249 
L 69.485884 132.05249 
L 69.841686 132.05249 
L 70.197489 132.05249 
L 70.553292 132.05249 
L 70.909094 132.05249 
L 71.264897 132.05249 
L 71.620699 132.05249 
L 71.976502 132.05249 
L 72.332304 132.05249 
L 72.688107 132.05249 
L 73.043909 132.05249 
L 73.399712 132.05249 
L 73.755514 132.05249 
L 74.111317 132.05249 
L 74.467119 132.05249 
L 74.822922 132.05249 
L 75.178724 132.05249 
L 75.534527 132.05249 
L 75.890329 132.05249 
L 76.246132 132.05249 
L 76.601934 132.05249 
L 76.957737 132.05249 
L 77.313539 132.05249 
L 77.669342 132.05249 
L 78.025144 132.05249 
L 78.380947 132.05249 
L 78.736749 132.05249 
L 79.092552 132.05249 
L 79.448354 132.05249 
L 79.804157 132.05249 
L 80.159959 132.05249 
L 80.515762 132.05249 
L 80.871564 132.05249 
L 81.227367 132.05249 
L 81.583169 132.05249 
L 81.938972 132.05249 
L 82.294774 132.05249 
L 82.650577 132.05249 
L 83.00638 132.05249 
L 83.362182 132.05249 
L 83.717985 132.05249 
L 84.073787 132.05249 
L 84.42959 132.05249 
L 84.785392 132.05249 
L 85.141195 132.05249 
L 85.496997 132.05249 
L 85.8528 132.05249 
L 86.208602 132.05249 
L 86.564405 132.05249 
L 86.920207 132.05249 
L 87.27601 132.05249 
L 87.631812 132.05249 
L 87.987615 132.05249 
L 88.343417 132.05249 
L 88.69922 132.05249 
L 89.055022 132.05249 
L 89.410825 132.05249 
L 89.766627 132.05249 
L 90.12243 132.05249 
L 90.478232 132.05249 
L 90.834035 132.05249 
L 91.189837 132.05249 
L 91.54564 132.05249 
L 91.901442 132.05249 
L 92.257245 132.05249 
L 92.613047 132.05249 
L 92.96885 132.05249 
L 93.324652 132.05249 
L 93.680455 132.05249 
L 94.036257 132.05249 
L 94.39206 132.05249 
L 94.747862 132.05249 
L 95.103665 132.05249 
L 95.459468 132.05249 
L 95.81527 132.05249 
L 96.171073 132.05249 
L 96.526875 132.05249 
L 96.882678 132.05249 
L 97.23848 132.05249 
L 97.594283 132.05249 
L 97.950085 132.05249 
L 98.305888 132.05249 
L 98.66169 132.05249 
L 99.017493 132.05249 
L 99.373295 132.05249 
L 99.729098 132.05249 
L 100.0849 132.05249 
L 100.440703 132.05249 
L 100.796505 132.05249 
L 101.152308 132.05249 
L 101.50811 132.05249 
L 101.863913 132.05249 
L 102.219715 132.05249 
L 102.575518 132.05249 
L 102.93132 132.05249 
L 103.287123 132.05249 
L 103.642925 132.05249 
L 103.998728 132.05249 
L 104.35453 132.05249 
L 104.710333 132.05249 
L 105.066135 132.05249 
L 105.421938 132.05249 
L 105.77774 132.05249 
L 106.133543 132.05249 
L 106.489345 132.05249 
L 106.845148 132.05249 
L 107.20095 132.05249 
L 107.556753 132.05249 
L 107.912556 132.05249 
L 108.268358 132.05249 
L 108.624161 132.05249 
L 108.979963 132.05249 
L 109.335766 132.05249 
L 109.691568 132.05249 
L 110.047371 132.05249 
L 110.403173 132.05249 
L 110.758976 132.05249 
L 111.114778 132.05249 
L 111.470581 132.05249 
L 111.826383 132.05249 
L 112.182186 132.05249 
L 112.537988 132.05249 
L 112.893791 132.05249 
L 113.249593 132.05249 
L 113.605396 132.05249 
L 113.961198 132.05249 
L 114.317001 132.05249 
L 114.672803 132.05249 
L 115.028606 132.05249 
L 115.384408 132.05249 
L 115.740211 132.05249 
L 116.096013 132.05249 
L 116.451816 132.05249 
L 116.807618 132.05249 
L 117.163421 132.05249 
L 117.519223 132.05249 
L 117.875026 132.05249 
L 118.230828 132.05249 
L 118.586631 132.05249 
L 118.942433 132.05249 
L 119.298236 132.05249 
L 119.654038 132.05249 
L 120.009841 132.05249 
L 120.365644 132.05249 
L 120.721446 132.05249 
L 121.077249 132.05249 
L 121.433051 132.05249 
L 121.788854 132.05249 
L 122.144656 132.05249 
L 122.500459 132.05249 
L 122.856261 132.05249 
L 123.212064 132.05249 
L 123.567866 132.05249 
L 123.923669 132.05249 
L 124.279471 132.05249 
L 124.635274 132.05249 
L 124.991076 132.05249 
L 125.346879 132.05249 
L 125.702681 132.05249 
L 126.058484 132.05249 
L 126.414286 132.05249 
L 126.770089 132.05249 
L 127.125891 132.05249 
L 127.481694 132.05249 
L 127.837496 132.05249 
L 128.193299 132.05249 
L 128.549101 132.05249 
L 128.904904 132.05249 
L 129.260706 132.05249 
L 129.616509 132.05249 
L 129.972311 132.05249 
L 130.328114 132.05249 
L 130.683916 132.05249 
L 131.039719 132.05249 
L 131.395521 132.05249 
L 131.751324 132.05249 
L 132.107126 132.05249 
L 132.462929 132.05249 
L 132.818731 132.05249 
L 133.174534 132.05249 
L 133.530337 132.05249 
L 133.886139 132.05249 
L 134.241942 132.05249 
L 134.597744 132.05249 
L 134.953547 132.05249 
L 135.309349 132.05249 
L 135.665152 132.05249 
L 136.020954 132.05249 
L 136.376757 132.05249 
L 136.732559 132.05249 
L 137.088362 132.05249 
L 137.444164 132.05249 
L 137.799967 132.05249 
L 138.155769 132.05249 
L 138.511572 132.05249 
L 138.867374 132.05249 
L 139.223177 132.05249 
L 139.578979 132.05249 
L 139.934782 132.05249 
L 140.290584 132.05249 
L 140.646387 132.05249 
L 141.002189 132.05249 
L 141.357992 132.05249 
L 141.713794 132.05249 
L 142.069597 132.05249 
L 142.425399 132.05249 
L 142.781202 132.05249 
L 143.137004 132.05249 
L 143.492807 132.05249 
L 143.848609 132.05249 
L 144.204412 132.05249 
L 144.560214 132.05249 
L 144.916017 132.05249 
L 145.271819 132.05249 
L 145.627622 132.05249 
L 145.983425 132.05249 
L 146.339227 132.05249 
L 146.69503 132.05249 
L 147.050832 132.05249 
L 147.406635 132.05249 
L 147.762437 132.05249 
L 148.11824 132.05249 
L 148.474042 132.05249 
L 148.829845 132.05249 
L 149.185647 132.05249 
L 149.54145 132.05249 
L 149.897252 132.05249 
L 150.253055 132.05249 
L 150.608857 132.05249 
L 150.96466 132.05249 
L 151.320462 132.05249 
L 151.676265 132.05249 
L 152.032067 132.05249 
L 152.38787 132.05249 
L 152.743672 132.05249 
L 153.099475 132.05249 
L 153.455277 132.05249 
L 153.81108 132.05249 
L 154.166882 132.05249 
L 154.522685 132.05249 
L 154.878487 132.05249 
L 155.23429 132.05249 
L 155.590092 132.05249 
L 155.945895 132.05249 
L 156.301697 132.05249 
L 156.6575 132.05249 
L 157.013302 132.05249 
L 157.369105 132.05249 
L 157.724907 132.05249 
L 158.08071 132.05249 
L 158.436513 132.05249 
L 158.792315 132.05249 
L 159.148118 132.05249 
L 159.50392 132.05249 
L 159.859723 132.05249 
L 160.215525 132.05249 
L 160.571328 132.05249 
L 160.92713 132.05249 
L 161.282933 132.05249 
L 161.638735 132.05249 
L 161.994538 132.05249 
L 162.35034 132.05249 
L 162.706143 132.05249 
L 163.061945 132.05249 
L 163.417748 132.05249 
L 163.77355 132.05249 
L 164.129353 132.05249 
L 164.485155 132.05249 
L 164.840958 132.05249 
L 165.19676 132.05249 
L 165.552563 132.05249 
L 165.908365 132.05249 
L 166.264168 132.05249 
L 166.61997 132.05249 
L 166.975773 132.05249 
L 167.331575 132.05249 
L 167.687378 132.05249 
L 168.04318 132.05249 
L 168.398983 132.05249 
L 168.754785 132.05249 
L 169.110588 132.05249 
L 169.46639 132.05249 
L 169.822193 132.05249 
L 170.177995 132.05249 
L 170.533798 132.05249 
L 170.889601 132.05249 
L 171.245403 132.05249 
L 171.601206 132.05249 
L 171.957008 132.05249 
L 172.312811 132.05249 
L 172.668613 132.05249 
L 173.024416 132.05249 
L 173.380218 132.05249 
L 173.736021 132.05249 
L 174.091823 132.05249 
L 174.447626 132.05249 
L 174.803428 132.05249 
L 175.159231 132.05249 
L 175.515033 132.05249 
L 175.870836 132.05249 
L 176.226638 132.05249 
L 176.582441 132.05249 
L 176.938243 132.05249 
L 177.294046 132.05249 
L 177.649848 132.05249 
L 178.005651 132.05249 
L 178.361453 132.05249 
L 178.717256 132.05249 
L 179.073058 132.05249 
L 179.428861 132.05249 
L 179.784663 132.05249 
L 180.140466 132.05249 
L 180.496268 132.05249 
L 180.852071 132.05249 
L 181.207873 132.05249 
L 181.563676 132.05249 
L 181.919478 132.05249 
L 182.275281 132.05249 
L 182.631083 132.05249 
L 182.986886 132.05249 
L 183.342689 132.05249 
L 183.698491 132.05249 
L 184.054294 132.05249 
L 184.410096 132.05249 
L 184.765899 132.05249 
L 185.121701 132.05249 
L 185.477504 132.05249 
L 185.833306 132.05249 
L 186.189109 132.05249 
L 186.544911 132.05249 
L 186.900714 132.05249 
L 187.256516 132.05249 
L 187.612319 132.05249 
L 187.968121 132.05249 
L 188.323924 132.05249 
L 188.679726 132.05249 
L 189.035529 132.05249 
L 189.391331 132.05249 
L 189.747134 132.05249 
L 190.102936 132.05249 
L 190.458739 132.05249 
L 190.814541 132.05249 
L 191.170344 132.05249 
L 191.526146 132.05249 
L 191.881949 132.05249 
L 192.237751 132.05249 
L 192.593554 132.05249 
L 192.949356 132.05249 
L 193.305159 132.05249 
L 193.660961 132.05249 
L 194.016764 132.05249 
L 194.372566 132.05249 
L 194.728369 132.05249 
L 195.084171 132.05249 
L 195.439974 132.05249 
L 195.795776 132.05249 
L 196.151579 132.05249 
L 196.507382 132.05249 
L 196.863184 132.05249 
L 197.218987 132.05249 
L 197.574789 132.05249 
L 197.930592 132.05249 
L 198.286394 132.05249 
L 198.642197 132.05249 
L 198.997999 132.05249 
L 199.353802 132.05249 
L 199.709604 132.05249 
L 200.065407 132.05249 
L 200.421209 132.05249 
L 200.777012 132.05249 
L 201.132814 132.05249 
L 201.488617 132.05249 
L 201.844419 132.05249 
L 202.200222 132.05249 
L 202.556024 132.05249 
L 202.911827 132.05249 
L 203.267629 132.05249 
L 203.623432 132.05249 
L 203.979234 132.05249 
L 204.335037 132.05249 
L 204.690839 132.05249 
L 205.046642 132.05249 
L 205.402444 132.05249 
L 205.758247 132.05249 
L 206.114049 132.05249 
L 206.469852 132.05249 
L 206.825654 132.05249 
L 207.181457 132.05249 
L 207.537259 132.05249 
L 207.893062 132.05249 
L 208.248864 132.05249 
L 208.604667 132.05249 
L 208.96047 132.05249 
L 209.316272 132.05249 
L 209.672075 132.05249 
L 210.027877 132.05249 
L 210.38368 132.05249 
L 210.739482 132.05249 
L 211.095285 132.05249 
L 211.451087 132.05249 
L 211.80689 132.05249 
L 212.162692 132.05249 
L 212.518495 132.05249 
L 212.874297 132.05249 
L 213.2301 132.05249 
L 213.585902 132.05249 
L 213.941705 132.05249 
L 214.297507 132.05249 
L 214.65331 132.05249 
L 215.009112 132.05249 
L 215.364915 132.05249 
L 215.364915 29.660605 
L 215.364915 29.660605 
L 215.009112 29.660605 
L 214.65331 29.660605 
L 214.297507 29.660605 
L 213.941705 29.660605 
L 213.585902 29.660605 
L 213.2301 29.660605 
L 212.874297 29.660605 
L 212.518495 29.660605 
L 212.162692 29.660605 
L 211.80689 29.660605 
L 211.451087 29.660605 
L 211.095285 29.660605 
L 210.739482 29.660605 
L 210.38368 29.660605 
L 210.027877 29.660605 
L 209.672075 29.660605 
L 209.316272 29.660605 
L 208.96047 29.660605 
L 208.604667 29.660605 
L 208.248864 29.660605 
L 207.893062 29.660605 
L 207.537259 29.660605 
L 207.181457 29.660605 
L 206.825654 29.660605 
L 206.469852 29.660605 
L 206.114049 29.660605 
L 205.758247 29.660605 
L 205.402444 29.660605 
L 205.046642 29.660605 
L 204.690839 29.660605 
L 204.335037 29.660605 
L 203.979234 29.660605 
L 203.623432 29.660605 
L 203.267629 29.660605 
L 202.911827 29.660605 
L 202.556024 29.660605 
L 202.200222 29.660605 
L 201.844419 29.660605 
L 201.488617 29.660605 
L 201.132814 29.660605 
L 200.777012 29.660605 
L 200.421209 29.660605 
L 200.065407 29.660605 
L 199.709604 29.660605 
L 199.353802 29.660605 
L 198.997999 29.660605 
L 198.642197 29.660605 
L 198.286394 29.660605 
L 197.930592 29.660605 
L 197.574789 29.660605 
L 197.218987 29.660605 
L 196.863184 29.660605 
L 196.507382 29.660605 
L 196.151579 29.660605 
L 195.795776 29.660605 
L 195.439974 29.660605 
L 195.084171 29.660605 
L 194.728369 29.660605 
L 194.372566 29.660605 
L 194.016764 29.660605 
L 193.660961 29.660605 
L 193.305159 29.660605 
L 192.949356 29.660605 
L 192.593554 29.660605 
L 192.237751 29.660605 
L 191.881949 29.660605 
L 191.526146 29.660605 
L 191.170344 29.660605 
L 190.814541 29.660605 
L 190.458739 29.660605 
L 190.102936 29.660605 
L 189.747134 29.660605 
L 189.391331 29.660605 
L 189.035529 29.660605 
L 188.679726 29.660605 
L 188.323924 29.660605 
L 187.968121 29.660605 
L 187.612319 29.660605 
L 187.256516 29.660605 
L 186.900714 29.660605 
L 186.544911 29.660605 
L 186.189109 29.660605 
L 185.833306 29.660605 
L 185.477504 29.660605 
L 185.121701 29.660605 
L 184.765899 29.660605 
L 184.410096 29.660605 
L 184.054294 29.660605 
L 183.698491 29.660605 
L 183.342689 29.660605 
L 182.986886 29.660605 
L 182.631083 29.660605 
L 182.275281 29.660605 
L 181.919478 29.660605 
L 181.563676 29.660605 
L 181.207873 29.660605 
L 180.852071 29.660605 
L 180.496268 29.660605 
L 180.140466 29.660605 
L 179.784663 29.660605 
L 179.428861 29.660605 
L 179.073058 29.660605 
L 178.717256 29.660605 
L 178.361453 29.660605 
L 178.005651 29.660605 
L 177.649848 29.660605 
L 177.294046 29.660605 
L 176.938243 29.660605 
L 176.582441 29.660605 
L 176.226638 29.660605 
L 175.870836 29.660605 
L 175.515033 29.660605 
L 175.159231 29.660605 
L 174.803428 29.660605 
L 174.447626 29.660605 
L 174.091823 29.660605 
L 173.736021 29.660605 
L 173.380218 29.660605 
L 173.024416 29.660605 
L 172.668613 29.660605 
L 172.312811 29.660605 
L 171.957008 29.660605 
L 171.601206 29.660605 
L 171.245403 29.660605 
L 170.889601 29.660605 
L 170.533798 29.660605 
L 170.177995 29.660605 
L 169.822193 29.660605 
L 169.46639 29.660605 
L 169.110588 29.660605 
L 168.754785 29.660605 
L 168.398983 29.660605 
L 168.04318 29.660605 
L 167.687378 29.660605 
L 167.331575 29.660605 
L 166.975773 29.660605 
L 166.61997 29.660605 
L 166.264168 29.660605 
L 165.908365 29.660605 
L 165.552563 29.660605 
L 165.19676 29.660605 
L 164.840958 29.660605 
L 164.485155 29.660605 
L 164.129353 29.660605 
L 163.77355 29.660605 
L 163.417748 29.660605 
L 163.061945 29.660605 
L 162.706143 29.660605 
L 162.35034 29.660605 
L 161.994538 29.660605 
L 161.638735 29.660605 
L 161.282933 29.660605 
L 160.92713 29.660605 
L 160.571328 29.660605 
L 160.215525 29.660605 
L 159.859723 29.660605 
L 159.50392 29.660605 
L 159.148118 29.660605 
L 158.792315 29.660605 
L 158.436513 29.660605 
L 158.08071 29.660605 
L 157.724907 29.660605 
L 157.369105 29.660605 
L 157.013302 29.660605 
L 156.6575 29.660605 
L 156.301697 29.660605 
L 155.945895 29.660605 
L 155.590092 29.660605 
L 155.23429 29.660605 
L 154.878487 29.660605 
L 154.522685 29.660605 
L 154.166882 29.660605 
L 153.81108 29.660605 
L 153.455277 29.660605 
L 153.099475 29.660605 
L 152.743672 29.660605 
L 152.38787 29.660605 
L 152.032067 29.660605 
L 151.676265 29.660605 
L 151.320462 29.660605 
L 150.96466 29.660605 
L 150.608857 29.660605 
L 150.253055 29.660605 
L 149.897252 29.660605 
L 149.54145 29.660605 
L 149.185647 29.660605 
L 148.829845 29.660605 
L 148.474042 29.660605 
L 148.11824 29.660605 
L 147.762437 29.660605 
L 147.406635 29.660605 
L 147.050832 29.660605 
L 146.69503 29.660605 
L 146.339227 29.660605 
L 145.983425 29.660605 
L 145.627622 29.660605 
L 145.271819 29.660605 
L 144.916017 29.660605 
L 144.560214 29.660605 
L 144.204412 29.660605 
L 143.848609 29.660605 
L 143.492807 29.660605 
L 143.137004 29.660605 
L 142.781202 29.660605 
L 142.425399 29.660605 
L 142.069597 29.660605 
L 141.713794 29.660605 
L 141.357992 29.660605 
L 141.002189 29.660605 
L 140.646387 29.660605 
L 140.290584 29.660605 
L 139.934782 29.660605 
L 139.578979 29.660605 
L 139.223177 29.660605 
L 138.867374 29.660605 
L 138.511572 29.660605 
L 138.155769 29.660605 
L 137.799967 29.660605 
L 137.444164 29.660605 
L 137.088362 29.660605 
L 136.732559 29.660605 
L 136.376757 29.660605 
L 136.020954 29.660605 
L 135.665152 29.660605 
L 135.309349 29.660605 
L 134.953547 29.660605 
L 134.597744 29.660605 
L 134.241942 29.660605 
L 133.886139 29.660605 
L 133.530337 29.660605 
L 133.174534 29.660605 
L 132.818731 29.660605 
L 132.462929 29.660605 
L 132.107126 29.660605 
L 131.751324 29.660605 
L 131.395521 29.660605 
L 131.039719 29.660605 
L 130.683916 29.660605 
L 130.328114 29.660605 
L 129.972311 29.660605 
L 129.616509 29.660605 
L 129.260706 29.660605 
L 128.904904 29.660605 
L 128.549101 29.660605 
L 128.193299 29.660605 
L 127.837496 29.660605 
L 127.481694 29.660605 
L 127.125891 29.660605 
L 126.770089 29.660605 
L 126.414286 29.660605 
L 126.058484 29.660605 
L 125.702681 29.660605 
L 125.346879 29.660605 
L 124.991076 29.660605 
L 124.635274 29.660605 
L 124.279471 29.660605 
L 123.923669 29.660605 
L 123.567866 29.660605 
L 123.212064 29.660605 
L 122.856261 29.660605 
L 122.500459 29.660605 
L 122.144656 29.660605 
L 121.788854 29.660605 
L 121.433051 29.660605 
L 121.077249 29.660605 
L 120.721446 29.660605 
L 120.365644 29.660605 
L 120.009841 29.660605 
L 119.654038 29.660605 
L 119.298236 29.660605 
L 118.942433 29.660605 
L 118.586631 29.660605 
L 118.230828 29.660605 
L 117.875026 29.660605 
L 117.519223 29.660605 
L 117.163421 29.660605 
L 116.807618 29.660605 
L 116.451816 29.660605 
L 116.096013 29.660605 
L 115.740211 29.660605 
L 115.384408 29.660605 
L 115.028606 29.660605 
L 114.672803 29.660605 
L 114.317001 29.660605 
L 113.961198 29.660605 
L 113.605396 29.660605 
L 113.249593 29.660605 
L 112.893791 29.660605 
L 112.537988 29.660605 
L 112.182186 29.660605 
L 111.826383 29.660605 
L 111.470581 29.660605 
L 111.114778 29.660605 
L 110.758976 29.660605 
L 110.403173 29.660605 
L 110.047371 29.660605 
L 109.691568 29.660605 
L 109.335766 29.660605 
L 108.979963 29.660605 
L 108.624161 29.660605 
L 108.268358 29.660605 
L 107.912556 29.660605 
L 107.556753 29.660605 
L 107.20095 29.660605 
L 106.845148 29.660605 
L 106.489345 29.660605 
L 106.133543 29.660605 
L 105.77774 29.660605 
L 105.421938 29.660605 
L 105.066135 29.660605 
L 104.710333 29.660605 
L 104.35453 29.660605 
L 103.998728 29.660605 
L 103.642925 29.660605 
L 103.287123 29.660605 
L 102.93132 29.660605 
L 102.575518 29.660605 
L 102.219715 29.660605 
L 101.863913 29.660605 
L 101.50811 29.660605 
L 101.152308 29.660605 
L 100.796505 29.660605 
L 100.440703 29.660605 
L 100.0849 29.660605 
L 99.729098 29.660605 
L 99.373295 29.660605 
L 99.017493 29.660605 
L 98.66169 29.660605 
L 98.305888 29.660605 
L 97.950085 29.660605 
L 97.594283 29.660605 
L 97.23848 29.660605 
L 96.882678 29.660605 
L 96.526875 29.660605 
L 96.171073 29.660605 
L 95.81527 29.660605 
L 95.459468 29.660605 
L 95.103665 29.660605 
L 94.747862 29.660605 
L 94.39206 29.660605 
L 94.036257 29.660605 
L 93.680455 29.660605 
L 93.324652 29.660605 
L 92.96885 29.660605 
L 92.613047 29.660605 
L 92.257245 29.660605 
L 91.901442 29.660605 
L 91.54564 29.660605 
L 91.189837 29.660605 
L 90.834035 29.660605 
L 90.478232 29.660605 
L 90.12243 29.660605 
L 89.766627 29.660605 
L 89.410825 29.660605 
L 89.055022 29.660605 
L 88.69922 29.660605 
L 88.343417 29.660605 
L 87.987615 29.660605 
L 87.631812 29.660605 
L 87.27601 29.660605 
L 86.920207 29.660605 
L 86.564405 29.660605 
L 86.208602 29.660605 
L 85.8528 29.660605 
L 85.496997 29.660605 
L 85.141195 29.660605 
L 84.785392 29.660605 
L 84.42959 29.660605 
L 84.073787 29.660605 
L 83.717985 29.660605 
L 83.362182 29.660605 
L 83.00638 29.660605 
L 82.650577 29.660605 
L 82.294774 29.660605 
L 81.938972 29.660605 
L 81.583169 29.660605 
L 81.227367 29.660605 
L 80.871564 29.660605 
L 80.515762 29.660605 
L 80.159959 29.660605 
L 79.804157 29.660605 
L 79.448354 29.660605 
L 79.092552 29.660605 
L 78.736749 29.660605 
L 78.380947 29.660605 
L 78.025144 29.660605 
L 77.669342 29.660605 
L 77.313539 29.660605 
L 76.957737 29.660605 
L 76.601934 29.660605 
L 76.246132 29.660605 
L 75.890329 29.660605 
L 75.534527 29.660605 
L 75.178724 29.660605 
L 74.822922 29.660605 
L 74.467119 29.660605 
L 74.111317 29.660605 
L 73.755514 29.660605 
L 73.399712 29.660605 
L 73.043909 29.660605 
L 72.688107 29.660605 
L 72.332304 29.660605 
L 71.976502 29.660605 
L 71.620699 29.660605 
L 71.264897 29.660605 
L 70.909094 29.660605 
L 70.553292 29.660605 
L 70.197489 29.660605 
L 69.841686 29.660605 
L 69.485884 29.660605 
L 69.130081 29.660605 
L 68.774279 29.660605 
L 68.418476 29.660605 
L 68.062674 29.660605 
L 67.706871 29.660605 
L 67.351069 29.660605 
L 66.995266 29.660605 
L 66.639464 29.660605 
L 66.283661 29.660605 
L 65.927859 29.660605 
L 65.572056 29.660605 
L 65.216254 29.660605 
L 64.860451 29.660605 
L 64.504649 29.660605 
L 64.148846 29.660605 
L 63.793044 29.660605 
L 63.437241 29.660605 
L 63.081439 29.660605 
L 62.725636 29.660605 
L 62.369834 29.660605 
L 62.014031 29.660605 
L 61.658229 29.660605 
L 61.302426 29.660605 
L 60.946624 29.660605 
L 60.590821 29.660605 
L 60.235019 29.660605 
L 59.879216 29.660605 
L 59.523414 29.660605 
L 59.167611 29.660605 
L 58.811809 29.660605 
L 58.456006 29.660605 
L 58.100204 29.660605 
L 57.744401 29.660605 
L 57.388599 29.660605 
L 57.032796 29.660605 
L 56.676993 29.660605 
L 56.321191 29.660605 
L 55.965388 29.660605 
L 55.609586 29.660605 
L 55.253783 29.660605 
L 54.897981 29.660605 
L 54.542178 29.660605 
L 54.186376 29.660605 
L 53.830573 29.660605 
L 53.474771 29.660605 
L 53.118968 29.660605 
L 52.763166 29.660605 
L 52.407363 29.660605 
L 52.051561 29.660605 
L 51.695758 29.660605 
L 51.339956 29.660605 
L 50.984153 29.660605 
L 50.628351 29.660605 
L 50.272548 29.660605 
L 49.916746 29.660605 
L 49.560943 29.660605 
L 49.205141 29.660605 
L 48.849338 29.660605 
L 48.493536 29.660605 
L 48.137733 29.660605 
L 47.781931 29.660605 
L 47.426128 29.660605 
L 47.070326 29.660605 
L 46.714523 29.660605 
L 46.358721 29.660605 
L 46.002918 29.660605 
L 45.647116 29.660605 
L 45.291313 29.660605 
L 44.935511 29.660605 
L 44.579708 29.660605 
L 44.223905 29.660605 
L 43.868103 29.660605 
L 43.5123 29.660605 
L 43.156498 29.660605 
L 42.800695 29.660605 
L 42.444893 29.660605 
L 42.08909 29.660605 
L 41.733288 29.660605 
L 41.377485 29.660605 
L 41.021683 29.660605 
L 40.66588 29.660605 
L 40.310078 29.660605 
L 39.954275 29.660605 
L 39.598473 29.660605 
L 39.24267 29.660605 
L 38.886868 29.660605 
L 38.531065 29.660605 
L 38.175263 29.660605 
L 37.81946 29.660605 
z
" clip-path="url(#p2e732897c1)" style="fill: #1f77b4; fill-opacity: 0.25"/>
   </g>
   <g id="matplotlib.axis_1">
    <g id="xtick_1">
     <g id="line2d_1">
      <defs>
       <path id="m53d4faeb60" d="M 0 0 
L 0 3.5 
" style="stroke: #000000; stroke-width: 0.8"/>
      </defs>
      <g>
       <use xlink:href="#m53d4faeb60" x="37.81946" y="145.8" style="stroke: #000000; stroke-width: 0.8"/>
      </g>
     </g>
     <g id="text_1">
      <!-- 0 -->
      <g transform="translate(34.63821 160.398438) scale(0.1 -0.1)">
       <defs>
        <path id="DejaVuSans-30" d="M 2034 4250 
Q 1547 4250 1301 3770 
Q 1056 3291 1056 2328 
Q 1056 1369 1301 889 
Q 1547 409 2034 409 
Q 2525 409 2770 889 
Q 3016 1369 3016 2328 
Q 3016 3291 2770 3770 
Q 2525 4250 2034 4250 
z
M 2034 4750 
Q 2819 4750 3233 4129 
Q 3647 3509 3647 2328 
Q 3647 1150 3233 529 
Q 2819 -91 2034 -91 
Q 1250 -91 836 529 
Q 422 1150 422 2328 
Q 422 3509 836 4129 
Q 1250 4750 2034 4750 
z
" transform="scale(0.015625)"/>
       </defs>
       <use xlink:href="#DejaVuSans-30"/>
      </g>
     </g>
    </g>
    <g id="xtick_2">
     <g id="line2d_2">
      <g>
       <use xlink:href="#m53d4faeb60" x="73.328551" y="145.8" style="stroke: #000000; stroke-width: 0.8"/>
      </g>
     </g>
     <g id="text_2">
      <!-- 1 -->
      <g transform="translate(70.147301 160.398438) scale(0.1 -0.1)">
       <defs>
        <path id="DejaVuSans-31" d="M 794 531 
L 1825 531 
L 1825 4091 
L 703 3866 
L 703 4441 
L 1819 4666 
L 2450 4666 
L 2450 531 
L 3481 531 
L 3481 0 
L 794 0 
L 794 531 
z
" transform="scale(0.015625)"/>
       </defs>
       <use xlink:href="#DejaVuSans-31"/>
      </g>
     </g>
    </g>
    <g id="xtick_3">
     <g id="line2d_3">
      <g>
       <use xlink:href="#m53d4faeb60" x="108.837642" y="145.8" style="stroke: #000000; stroke-width: 0.8"/>
      </g>
     </g>
     <g id="text_3">
      <!-- 2 -->
      <g transform="translate(105.656392 160.398438) scale(0.1 -0.1)">
       <defs>
        <path id="DejaVuSans-32" d="M 1228 531 
L 3431 531 
L 3431 0 
L 469 0 
L 469 531 
Q 828 903 1448 1529 
Q 2069 2156 2228 2338 
Q 2531 2678 2651 2914 
Q 2772 3150 2772 3378 
Q 2772 3750 2511 3984 
Q 2250 4219 1831 4219 
Q 1534 4219 1204 4116 
Q 875 4013 500 3803 
L 500 4441 
Q 881 4594 1212 4672 
Q 1544 4750 1819 4750 
Q 2544 4750 2975 4387 
Q 3406 4025 3406 3419 
Q 3406 3131 3298 2873 
Q 3191 2616 2906 2266 
Q 2828 2175 2409 1742 
Q 1991 1309 1228 531 
z
" transform="scale(0.015625)"/>
       </defs>
       <use xlink:href="#DejaVuSans-32"/>
      </g>
     </g>
    </g>
    <g id="xtick_4">
     <g id="line2d_4">
      <g>
       <use xlink:href="#m53d4faeb60" x="144.346733" y="145.8" style="stroke: #000000; stroke-width: 0.8"/>
      </g>
     </g>
     <g id="text_4">
      <!-- 3 -->
      <g transform="translate(141.165483 160.398438) scale(0.1 -0.1)">
       <defs>
        <path id="DejaVuSans-33" d="M 2597 2516 
Q 3050 2419 3304 2112 
Q 3559 1806 3559 1356 
Q 3559 666 3084 287 
Q 2609 -91 1734 -91 
Q 1441 -91 1130 -33 
Q 819 25 488 141 
L 488 750 
Q 750 597 1062 519 
Q 1375 441 1716 441 
Q 2309 441 2620 675 
Q 2931 909 2931 1356 
Q 2931 1769 2642 2001 
Q 2353 2234 1838 2234 
L 1294 2234 
L 1294 2753 
L 1863 2753 
Q 2328 2753 2575 2939 
Q 2822 3125 2822 3475 
Q 2822 3834 2567 4026 
Q 2313 4219 1838 4219 
Q 1578 4219 1281 4162 
Q 984 4106 628 3988 
L 628 4550 
Q 988 4650 1302 4700 
Q 1616 4750 1894 4750 
Q 2613 4750 3031 4423 
Q 3450 4097 3450 3541 
Q 3450 3153 3228 2886 
Q 3006 2619 2597 2516 
z
" transform="scale(0.015625)"/>
       </defs>
       <use xlink:href="#DejaVuSans-33"/>
      </g>
     </g>
    </g>
    <g id="xtick_5">
     <g id="line2d_5">
      <g>
       <use xlink:href="#m53d4faeb60" x="179.855824" y="145.8" style="stroke: #000000; stroke-width: 0.8"/>
      </g>
     </g>
     <g id="text_5">
      <!-- 4 -->
      <g transform="translate(176.674574 160.398438) scale(0.1 -0.1)">
       <defs>
        <path id="DejaVuSans-34" d="M 2419 4116 
L 825 1625 
L 2419 1625 
L 2419 4116 
z
M 2253 4666 
L 3047 4666 
L 3047 1625 
L 3713 1625 
L 3713 1100 
L 3047 1100 
L 3047 0 
L 2419 0 
L 2419 1100 
L 313 1100 
L 313 1709 
L 2253 4666 
z
" transform="scale(0.015625)"/>
       </defs>
       <use xlink:href="#DejaVuSans-34"/>
      </g>
     </g>
    </g>
    <g id="xtick_6">
     <g id="line2d_6">
      <g>
       <use xlink:href="#m53d4faeb60" x="215.364915" y="145.8" style="stroke: #000000; stroke-width: 0.8"/>
      </g>
     </g>
     <g id="text_6">
      <!-- 5 -->
      <g transform="translate(212.183665 160.398438) scale(0.1 -0.1)">
       <defs>
        <path id="DejaVuSans-35" d="M 691 4666 
L 3169 4666 
L 3169 4134 
L 1269 4134 
L 1269 2991 
Q 1406 3038 1543 3061 
Q 1681 3084 1819 3084 
Q 2600 3084 3056 2656 
Q 3513 2228 3513 1497 
Q 3513 744 3044 326 
Q 2575 -91 1722 -91 
Q 1428 -91 1123 -41 
Q 819 9 494 109 
L 494 744 
Q 775 591 1075 516 
Q 1375 441 1709 441 
Q 2250 441 2565 725 
Q 2881 1009 2881 1497 
Q 2881 1984 2565 2268 
Q 2250 2553 1709 2553 
Q 1456 2553 1204 2497 
Q 953 2441 691 2322 
L 691 4666 
z
" transform="scale(0.015625)"/>
       </defs>
       <use xlink:href="#DejaVuSans-35"/>
      </g>
     </g>
    </g>
   </g>
   <g id="matplotlib.axis_2">
    <g id="ytick_1">
     <g id="line2d_7">
      <defs>
       <path id="m69626607be" d="M 0 0 
L -3.5 0 
" style="stroke: #000000; stroke-width: 0.8"/>
      </defs>
      <g>
       <use xlink:href="#m69626607be" x="28.942188" y="132.05249" style="stroke: #000000; stroke-width: 0.8"/>
      </g>
     </g>
     <g id="text_7">
      <!-- −2 -->
      <g transform="translate(7.2 135.851709) scale(0.1 -0.1)">
       <defs>
        <path id="DejaVuSans-2212" d="M 678 2272 
L 4684 2272 
L 4684 1741 
L 678 1741 
L 678 2272 
z
" transform="scale(0.015625)"/>
       </defs>
       <use xlink:href="#DejaVuSans-2212"/>
       <use xlink:href="#DejaVuSans-32" x="83.789062"/>
      </g>
     </g>
    </g>
    <g id="ytick_2">
     <g id="line2d_8">
      <g>
       <use xlink:href="#m69626607be" x="28.942188" y="106.454519" style="stroke: #000000; stroke-width: 0.8"/>
      </g>
     </g>
     <g id="text_8">
      <!-- −1 -->
      <g transform="translate(7.2 110.253737) scale(0.1 -0.1)">
       <use xlink:href="#DejaVuSans-2212"/>
       <use xlink:href="#DejaVuSans-31" x="83.789062"/>
      </g>
     </g>
    </g>
    <g id="ytick_3">
     <g id="line2d_9">
      <g>
       <use xlink:href="#m69626607be" x="28.942188" y="80.856547" style="stroke: #000000; stroke-width: 0.8"/>
      </g>
     </g>
     <g id="text_9">
      <!-- 0 -->
      <g transform="translate(15.579688 84.655766) scale(0.1 -0.1)">
       <use xlink:href="#DejaVuSans-30"/>
      </g>
     </g>
    </g>
    <g id="ytick_4">
     <g id="line2d_10">
      <g>
       <use xlink:href="#m69626607be" x="28.942188" y="55.258576" style="stroke: #000000; stroke-width: 0.8"/>
      </g>
     </g>
     <g id="text_10">
      <!-- 1 -->
      <g transform="translate(15.579688 59.057795) scale(0.1 -0.1)">
       <use xlink:href="#DejaVuSans-31"/>
      </g>
     </g>
    </g>
    <g id="ytick_5">
     <g id="line2d_11">
      <g>
       <use xlink:href="#m69626607be" x="28.942188" y="29.660605" style="stroke: #000000; stroke-width: 0.8"/>
      </g>
     </g>
     <g id="text_11">
      <!-- 2 -->
      <g transform="translate(15.579688 33.459824) scale(0.1 -0.1)">
       <use xlink:href="#DejaVuSans-32"/>
      </g>
     </g>
    </g>
   </g>
   <g id="line2d_12">
    <path d="M 37.81946 101.18095 
L 41.021683 95.947085 
L 46.714523 87.208593 
L 54.897981 74.857669 
L 57.032796 72.059992 
L 59.167611 69.63641 
L 60.946624 67.942736 
L 62.725636 66.557114 
L 64.504649 65.478315 
L 66.283661 64.705812 
L 67.706871 64.316494 
L 69.130081 64.148788 
L 70.553292 64.232088 
L 71.620699 64.483585 
L 72.688107 64.920109 
L 73.755514 65.564664 
L 74.822922 66.441097 
L 75.890329 67.572614 
L 76.957737 68.980216 
L 78.025144 70.681136 
L 79.448354 73.425048 
L 80.871564 76.720694 
L 82.294774 80.553251 
L 84.073787 86.033405 
L 86.208602 93.430427 
L 89.766627 106.813996 
L 92.96885 118.553295 
L 94.747862 124.383102 
L 96.526875 129.443351 
L 97.950085 132.824569 
L 99.373295 135.545386 
L 100.440703 137.128335 
L 101.50811 138.309014 
L 102.575518 139.085498 
L 103.287123 139.380413 
L 103.998728 139.5 
L 104.710333 139.447847 
L 105.421938 139.228455 
L 106.489345 138.597531 
L 107.556753 137.62313 
L 108.624161 136.328862 
L 110.047371 134.150475 
L 111.470581 131.514763 
L 113.249593 127.68054 
L 115.384408 122.46483 
L 118.230828 114.838335 
L 125.346879 95.410822 
L 127.837496 89.360587 
L 129.972311 84.731237 
L 131.751324 81.31893 
L 133.530337 78.331017 
L 135.309349 75.765631 
L 137.088362 73.603128 
L 138.867374 71.808503 
L 140.646387 70.334983 
L 142.425399 69.128473 
L 144.560214 67.954426 
L 147.050832 66.851616 
L 150.253055 65.705369 
L 153.455277 64.80042 
L 155.945895 64.306173 
L 158.08071 64.084131 
L 160.215525 64.089568 
L 162.35034 64.341744 
L 164.485155 64.833013 
L 166.975773 65.663846 
L 169.822193 66.858976 
L 174.091823 68.917586 
L 182.275281 72.915913 
L 184.410096 73.683643 
L 186.189109 74.089033 
L 187.612319 74.205157 
L 189.035529 74.097412 
L 190.458739 73.738138 
L 191.881949 73.112045 
L 193.305159 72.219995 
L 194.728369 71.081855 
L 196.507382 69.376323 
L 202.911827 62.870528 
L 203.979234 62.156338 
L 205.046642 61.667891 
L 206.114049 61.446094 
L 207.181457 61.527152 
L 208.248864 61.941296 
L 209.316272 62.711634 
L 210.38368 63.853139 
L 211.451087 65.371837 
L 212.518495 67.264205 
L 213.941705 70.343848 
L 215.364915 74.00279 
L 215.364915 74.00279 
" clip-path="url(#p2e732897c1)" style="fill: none; stroke: #000000; stroke-opacity: 0.5; stroke-width: 1.5; stroke-linecap: square"/>
   </g>
   <g id="line2d_13">
    <path d="M 37.81946 49.139407 
L 38.886868 49.753267 
L 39.954275 50.610563 
L 41.377485 52.089433 
L 42.800695 53.890587 
L 44.579708 56.483544 
L 47.781931 61.655357 
L 50.984153 66.760177 
L 53.118968 69.761273 
L 54.897981 71.871497 
L 56.321191 73.255738 
L 57.744401 74.350151 
L 59.167611 75.153297 
L 60.590821 75.680886 
L 62.014031 75.96625 
L 63.793044 76.06069 
L 69.485884 76.024949 
L 70.909094 76.366286 
L 72.332304 76.99458 
L 73.399712 77.682986 
L 74.822922 78.91152 
L 76.246132 80.496697 
L 77.669342 82.414688 
L 79.448354 85.201301 
L 82.294774 90.187602 
L 85.141195 95.109904 
L 86.920207 97.777145 
L 88.343417 99.538446 
L 89.766627 100.897262 
L 90.834035 101.628184 
L 91.901442 102.10522 
L 92.96885 102.33247 
L 94.036257 102.323277 
L 95.103665 102.099613 
L 96.526875 101.519731 
L 98.305888 100.466143 
L 103.642925 96.959987 
L 105.066135 96.34938 
L 106.489345 95.981038 
L 107.912556 95.867944 
L 109.335766 95.997235 
L 110.758976 96.333458 
L 112.893791 97.107606 
L 117.875026 99.061419 
L 119.654038 99.471715 
L 121.433051 99.627617 
L 123.212064 99.508743 
L 124.991076 99.114973 
L 126.770089 98.455108 
L 128.549101 97.537406 
L 130.328114 96.365246 
L 132.107126 94.939517 
L 134.241942 92.904953 
L 136.732559 90.153767 
L 142.425399 83.65089 
L 143.848609 82.418727 
L 144.916017 81.717127 
L 145.983425 81.249226 
L 147.050832 81.049053 
L 148.11824 81.144419 
L 149.185647 81.555315 
L 150.253055 82.292685 
L 151.320462 83.357564 
L 152.38787 84.740747 
L 153.81108 87.045272 
L 155.23429 89.808295 
L 157.013302 93.756722 
L 160.571328 102.403008 
L 163.061945 108.184328 
L 164.840958 111.790587 
L 166.264168 114.237439 
L 167.687378 116.237256 
L 168.754785 117.426537 
L 169.822193 118.345671 
L 170.889601 118.998063 
L 171.957008 119.392397 
L 173.024416 119.541363 
L 174.091823 119.460251 
L 175.159231 119.165594 
L 176.226638 118.673783 
L 177.649848 117.737102 
L 179.073058 116.505564 
L 180.496268 114.998433 
L 182.275281 112.739067 
L 184.054294 110.057917 
L 185.833306 106.936738 
L 187.612319 103.35654 
L 189.391331 99.313323 
L 191.526146 93.889555 
L 194.372566 85.909787 
L 199.709604 70.671471 
L 201.488617 66.268651 
L 202.911827 63.235601 
L 204.335037 60.741101 
L 205.402444 59.271826 
L 206.469852 58.176443 
L 207.537259 57.47437 
L 208.248864 57.231242 
L 208.96047 57.170492 
L 209.672075 57.292673 
L 210.38368 57.597013 
L 211.095285 58.081473 
L 212.162692 59.138557 
L 213.2301 60.578081 
L 214.297507 62.380002 
L 215.364915 64.520429 
L 215.364915 64.520429 
" clip-path="url(#p2e732897c1)" style="fill: none; stroke: #000000; stroke-opacity: 0.5; stroke-width: 1.5; stroke-linecap: square"/>
   </g>
   <g id="line2d_14">
    <path d="M 37.81946 65.572379 
L 39.598473 64.708078 
L 42.444893 63.677815 
L 44.579708 62.840911 
L 46.358721 61.897089 
L 47.781931 60.912831 
L 49.560943 59.375646 
L 51.695758 57.156379 
L 55.965388 52.543238 
L 57.388599 51.383566 
L 58.456006 50.771491 
L 59.523414 50.435556 
L 60.590821 50.418358 
L 61.302426 50.601087 
L 62.014031 50.948233 
L 63.081439 51.78817 
L 64.148846 53.017389 
L 65.216254 54.631824 
L 66.283661 56.615562 
L 67.706871 59.786924 
L 69.485884 64.465068 
L 71.620699 70.820575 
L 78.025144 90.474418 
L 79.804157 95.124901 
L 81.583169 99.171485 
L 83.00638 101.943529 
L 84.42959 104.300816 
L 85.8528 106.257811 
L 87.27601 107.838211 
L 88.69922 109.069797 
L 90.12243 109.979974 
L 91.54564 110.592453 
L 92.96885 110.925527 
L 94.39206 110.991961 
L 95.81527 110.800477 
L 97.23848 110.358429 
L 98.66169 109.675289 
L 100.0849 108.76623 
L 101.863913 107.34979 
L 103.998728 105.336815 
L 109.691568 99.712898 
L 111.470581 98.363991 
L 112.893791 97.558702 
L 114.317001 97.032269 
L 115.740211 96.796193 
L 117.163421 96.840179 
L 118.586631 97.132372 
L 120.365644 97.766701 
L 126.414286 100.256875 
L 127.837496 100.461776 
L 128.904904 100.430752 
L 129.972311 100.220776 
L 131.039719 99.819809 
L 132.107126 99.222225 
L 133.530337 98.12194 
L 134.953547 96.69343 
L 136.732559 94.504109 
L 138.867374 91.426554 
L 146.339227 80.076565 
L 148.11824 77.961159 
L 149.54145 76.568823 
L 150.96466 75.468586 
L 152.38787 74.669109 
L 153.81108 74.164685 
L 155.23429 73.935278 
L 156.6575 73.946819 
L 158.436513 74.226771 
L 161.282933 74.998654 
L 163.77355 75.5946 
L 165.19676 75.732676 
L 166.61997 75.634568 
L 167.687378 75.371045 
L 168.754785 74.924515 
L 169.822193 74.283973 
L 171.245403 73.123235 
L 172.668613 71.626187 
L 174.447626 69.344087 
L 176.582441 66.178013 
L 181.207873 59.168478 
L 182.986886 56.987021 
L 184.410096 55.63006 
L 185.477504 54.880395 
L 186.544911 54.380992 
L 187.612319 54.142719 
L 188.679726 54.169497 
L 189.747134 54.458656 
L 190.814541 55.001499 
L 191.881949 55.783985 
L 193.305159 57.167459 
L 194.728369 58.889877 
L 196.507382 61.424962 
L 198.997999 65.452274 
L 205.046642 75.519237 
L 207.181457 78.554228 
L 208.96047 80.710556 
L 210.739482 82.482585 
L 212.162692 83.613117 
L 213.585902 84.493567 
L 215.009112 85.139883 
L 215.364915 85.267648 
L 215.364915 85.267648 
" clip-path="url(#p2e732897c1)" style="fill: none; stroke: #000000; stroke-opacity: 0.5; stroke-width: 1.5; stroke-linecap: square"/>
   </g>
   <g id="line2d_15">
    <path d="M 37.81946 79.529662 
L 40.66588 79.986743 
L 42.444893 80.051772 
L 43.868103 79.892348 
L 45.291313 79.479983 
L 46.358721 78.96995 
L 47.426128 78.263389 
L 48.493536 77.341692 
L 49.916746 75.753703 
L 51.339956 73.736956 
L 52.763166 71.287306 
L 54.186376 68.418205 
L 55.965388 64.290179 
L 58.100204 58.670266 
L 60.946624 50.414868 
L 66.639464 33.650949 
L 68.774279 28.077743 
L 70.553292 23.986397 
L 72.332304 20.500217 
L 73.755514 18.19444 
L 75.178724 16.343558 
L 76.246132 15.260974 
L 77.313539 14.44094 
L 78.380947 13.879989 
L 79.448354 13.571022 
L 80.515762 13.503569 
L 81.583169 13.664021 
L 82.650577 14.036015 
L 84.073787 14.82852 
L 85.496997 15.914691 
L 87.27601 17.605692 
L 89.410825 19.988253 
L 92.613047 23.949233 
L 99.373295 32.366278 
L 106.133543 40.264307 
L 116.451816 52.201272 
L 118.586631 54.224491 
L 120.365644 55.5931 
L 121.788854 56.429257 
L 123.212064 57.005916 
L 124.635274 57.308533 
L 126.058484 57.337859 
L 127.481694 57.112082 
L 128.904904 56.667612 
L 131.039719 55.712828 
L 134.953547 53.834944 
L 136.376757 53.385116 
L 137.799967 53.182741 
L 138.867374 53.229987 
L 139.934782 53.46866 
L 141.002189 53.909958 
L 142.069597 54.557579 
L 143.492807 55.734091 
L 144.916017 57.239706 
L 146.69503 59.505481 
L 149.185647 63.143573 
L 153.455277 69.454111 
L 155.23429 71.689281 
L 156.6575 73.188331 
L 158.08071 74.387911 
L 159.50392 75.265851 
L 160.92713 75.81549 
L 161.994538 76.016295 
L 163.061945 76.04418 
L 164.485155 75.832139 
L 165.908365 75.367325 
L 167.687378 74.495102 
L 169.822193 73.146904 
L 175.515033 69.309449 
L 177.294046 68.463282 
L 178.717256 68.036549 
L 180.140466 67.883674 
L 181.207873 67.973111 
L 182.275281 68.253056 
L 183.342689 68.734326 
L 184.410096 69.42462 
L 185.477504 70.328506 
L 186.900714 71.867982 
L 188.323924 73.784671 
L 189.747134 76.06536 
L 191.526146 79.395793 
L 193.305159 83.206856 
L 195.439974 88.3145 
L 198.286394 95.775614 
L 204.335037 111.922297 
L 206.114049 116.062119 
L 207.893062 119.624538 
L 209.316272 121.96245 
L 210.38368 123.38058 
L 211.451087 124.494986 
L 212.518495 125.30011 
L 213.585902 125.799515 
L 214.65331 126.006143 
L 215.364915 125.991738 
L 215.364915 125.991738 
" clip-path="url(#p2e732897c1)" style="fill: none; stroke: #000000; stroke-opacity: 0.5; stroke-width: 1.5; stroke-linecap: square"/>
   </g>
   <g id="line2d_16">
    <path d="M 37.81946 67.38853 
L 40.310078 67.539381 
L 42.444893 67.462568 
L 44.579708 67.154512 
L 46.714523 66.613223 
L 48.849338 65.854852 
L 51.339956 64.71249 
L 53.474771 63.502897 
L 55.609586 62.044207 
L 57.744401 60.285847 
L 59.879216 58.183327 
L 62.014031 55.724165 
L 64.504649 52.463899 
L 71.620699 42.80536 
L 73.399712 40.932 
L 74.822922 39.741031 
L 76.246132 38.859713 
L 77.669342 38.302988 
L 78.736749 38.096968 
L 80.159959 38.088528 
L 81.583169 38.352187 
L 83.00638 38.840241 
L 84.785392 39.678634 
L 92.96885 43.89189 
L 95.81527 44.870707 
L 99.373295 46.076639 
L 101.152308 46.896317 
L 102.93132 47.98955 
L 104.35453 49.108904 
L 105.77774 50.467468 
L 107.556753 52.503444 
L 109.335766 54.882145 
L 111.826383 58.656123 
L 116.451816 66.264037 
L 121.077249 73.670295 
L 133.530337 92.790406 
L 135.665152 95.621313 
L 137.088362 97.204219 
L 138.511572 98.462385 
L 139.578979 99.154757 
L 140.646387 99.606725 
L 141.713794 99.801059 
L 142.781202 99.726378 
L 143.848609 99.377801 
L 144.916017 98.757299 
L 145.983425 97.873737 
L 147.050832 96.742649 
L 148.474042 94.887775 
L 150.253055 92.107197 
L 152.38787 88.301568 
L 158.436513 77.216808 
L 160.215525 74.474337 
L 161.994538 72.143152 
L 163.417748 70.601311 
L 164.840958 69.350853 
L 166.264168 68.382 
L 167.687378 67.674931 
L 169.110588 67.203037 
L 170.533798 66.936589 
L 172.312811 66.848486 
L 174.091823 66.989819 
L 175.870836 67.334139 
L 177.649848 67.881367 
L 179.428861 68.659811 
L 181.207873 69.722711 
L 182.631083 70.824114 
L 184.054294 72.188915 
L 185.477504 73.849719 
L 186.900714 75.828946 
L 188.679726 78.759473 
L 190.458739 82.166535 
L 192.593554 86.760693 
L 198.997999 101.063532 
L 200.777012 104.259241 
L 202.200222 106.324305 
L 203.267629 107.541424 
L 204.335037 108.452707 
L 205.402444 109.047795 
L 206.469852 109.32478 
L 207.537259 109.29003 
L 208.604667 108.957614 
L 209.672075 108.348463 
L 210.739482 107.489297 
L 212.162692 106.009313 
L 213.941705 103.738487 
L 215.364915 101.689883 
L 215.364915 101.689883 
" clip-path="url(#p2e732897c1)" style="fill: none; stroke: #000000; stroke-opacity: 0.5; stroke-width: 1.5; stroke-linecap: square"/>
   </g>
   <g id="line2d_17">
    <path d="M 37.81946 80.856547 
L 215.364915 80.856547 
L 215.364915 80.856547 
" clip-path="url(#p2e732897c1)" style="fill: none; stroke: #1f77b4; stroke-width: 2; stroke-linecap: square"/>
   </g>
   <g id="patch_3">
    <path d="M 28.942188 145.8 
L 28.942188 7.2 
" style="fill: none; stroke: #000000; stroke-width: 0.8; stroke-linejoin: miter; stroke-linecap: square"/>
   </g>
   <g id="patch_4">
    <path d="M 224.242188 145.8 
L 224.242188 7.2 
" style="fill: none; stroke: #000000; stroke-width: 0.8; stroke-linejoin: miter; stroke-linecap: square"/>
   </g>
   <g id="patch_5">
    <path d="M 28.942187 145.8 
L 224.242188 145.8 
" style="fill: none; stroke: #000000; stroke-width: 0.8; stroke-linejoin: miter; stroke-linecap: square"/>
   </g>
   <g id="patch_6">
    <path d="M 28.942187 7.2 
L 224.242188 7.2 
" style="fill: none; stroke: #000000; stroke-width: 0.8; stroke-linejoin: miter; stroke-linecap: square"/>
   </g>
  </g>
 </g>
 <defs>
  <clipPath id="p2e732897c1">
   <rect x="28.942188" y="7.2" width="195.3" height="138.6"/>
  </clipPath>
 </defs>
</svg>
