<?xml version="1.0" encoding="utf-8" standalone="no"?>
<!DOCTYPE svg PUBLIC "-//W3C//DTD SVG 1.1//EN"
  "http://www.w3.org/Graphics/SVG/1.1/DTD/svg11.dtd">
<svg xmlns:xlink="http://www.w3.org/1999/xlink" width="705.742188pt" height="308.278125pt" viewBox="0 0 705.742188 308.278125" xmlns="http://www.w3.org/2000/svg" version="1.1">
 <metadata>
  <rdf:RDF xmlns:dc="http://purl.org/dc/elements/1.1/" xmlns:cc="http://creativecommons.org/ns#" xmlns:rdf="http://www.w3.org/1999/02/22-rdf-syntax-ns#">
   <cc:Work>
    <dc:type rdf:resource="http://purl.org/dc/dcmitype/StillImage"/>
    <dc:date>2025-07-01T15:21:53.690745</dc:date>
    <dc:format>image/svg+xml</dc:format>
    <dc:creator>
     <cc:Agent>
      <dc:title>Matplotlib v3.7.2, https://matplotlib.org/</dc:title>
     </cc:Agent>
    </dc:creator>
   </cc:Work>
  </rdf:RDF>
 </metadata>
 <defs>
  <style type="text/css">*{stroke-linejoin: round; stroke-linecap: butt}</style>
 </defs>
 <g id="figure_1">
  <g id="patch_1">
   <path d="M 0 308.278125 
L 705.742188 308.278125 
L 705.742188 0 
L 0 0 
z
" style="fill: #ffffff"/>
  </g>
  <g id="axes_1">
   <g id="patch_2">
    <path d="M 28.942188 284.4 
L 698.542188 284.4 
L 698.542188 7.2 
L 28.942188 7.2 
z
" style="fill: #ffffff"/>
   </g>
   <g id="matplotlib.axis_1">
    <g id="xtick_1">
     <g id="line2d_1">
      <defs>
       <path id="m949fe37a83" d="M 0 0 
L 0 3.5 
" style="stroke: #000000; stroke-width: 0.8"/>
      </defs>
      <g>
       <use xlink:href="#m949fe37a83" x="59.378551" y="284.4" style="stroke: #000000; stroke-width: 0.8"/>
      </g>
     </g>
     <g id="text_1">
      <!-- 0 -->
      <g transform="translate(56.197301 298.998438) scale(0.1 -0.1)">
       <defs>
        <path id="DejaVuSans-30" d="M 2034 4250 
Q 1547 4250 1301 3770 
Q 1056 3291 1056 2328 
Q 1056 1369 1301 889 
Q 1547 409 2034 409 
Q 2525 409 2770 889 
Q 3016 1369 3016 2328 
Q 3016 3291 2770 3770 
Q 2525 4250 2034 4250 
z
M 2034 4750 
Q 2819 4750 3233 4129 
Q 3647 3509 3647 2328 
Q 3647 1150 3233 529 
Q 2819 -91 2034 -91 
Q 1250 -91 836 529 
Q 422 1150 422 2328 
Q 422 3509 836 4129 
Q 1250 4750 2034 4750 
z
" transform="scale(0.015625)"/>
       </defs>
       <use xlink:href="#DejaVuSans-30"/>
      </g>
     </g>
    </g>
    <g id="xtick_2">
     <g id="line2d_2">
      <g>
       <use xlink:href="#m949fe37a83" x="181.124006" y="284.4" style="stroke: #000000; stroke-width: 0.8"/>
      </g>
     </g>
     <g id="text_2">
      <!-- 1 -->
      <g transform="translate(177.942756 298.998438) scale(0.1 -0.1)">
       <defs>
        <path id="DejaVuSans-31" d="M 794 531 
L 1825 531 
L 1825 4091 
L 703 3866 
L 703 4441 
L 1819 4666 
L 2450 4666 
L 2450 531 
L 3481 531 
L 3481 0 
L 794 0 
L 794 531 
z
" transform="scale(0.015625)"/>
       </defs>
       <use xlink:href="#DejaVuSans-31"/>
      </g>
     </g>
    </g>
    <g id="xtick_3">
     <g id="line2d_3">
      <g>
       <use xlink:href="#m949fe37a83" x="302.86946" y="284.4" style="stroke: #000000; stroke-width: 0.8"/>
      </g>
     </g>
     <g id="text_3">
      <!-- 2 -->
      <g transform="translate(299.68821 298.998438) scale(0.1 -0.1)">
       <defs>
        <path id="DejaVuSans-32" d="M 1228 531 
L 3431 531 
L 3431 0 
L 469 0 
L 469 531 
Q 828 903 1448 1529 
Q 2069 2156 2228 2338 
Q 2531 2678 2651 2914 
Q 2772 3150 2772 3378 
Q 2772 3750 2511 3984 
Q 2250 4219 1831 4219 
Q 1534 4219 1204 4116 
Q 875 4013 500 3803 
L 500 4441 
Q 881 4594 1212 4672 
Q 1544 4750 1819 4750 
Q 2544 4750 2975 4387 
Q 3406 4025 3406 3419 
Q 3406 3131 3298 2873 
Q 3191 2616 2906 2266 
Q 2828 2175 2409 1742 
Q 1991 1309 1228 531 
z
" transform="scale(0.015625)"/>
       </defs>
       <use xlink:href="#DejaVuSans-32"/>
      </g>
     </g>
    </g>
    <g id="xtick_4">
     <g id="line2d_4">
      <g>
       <use xlink:href="#m949fe37a83" x="424.614915" y="284.4" style="stroke: #000000; stroke-width: 0.8"/>
      </g>
     </g>
     <g id="text_4">
      <!-- 3 -->
      <g transform="translate(421.433665 298.998438) scale(0.1 -0.1)">
       <defs>
        <path id="DejaVuSans-33" d="M 2597 2516 
Q 3050 2419 3304 2112 
Q 3559 1806 3559 1356 
Q 3559 666 3084 287 
Q 2609 -91 1734 -91 
Q 1441 -91 1130 -33 
Q 819 25 488 141 
L 488 750 
Q 750 597 1062 519 
Q 1375 441 1716 441 
Q 2309 441 2620 675 
Q 2931 909 2931 1356 
Q 2931 1769 2642 2001 
Q 2353 2234 1838 2234 
L 1294 2234 
L 1294 2753 
L 1863 2753 
Q 2328 2753 2575 2939 
Q 2822 3125 2822 3475 
Q 2822 3834 2567 4026 
Q 2313 4219 1838 4219 
Q 1578 4219 1281 4162 
Q 984 4106 628 3988 
L 628 4550 
Q 988 4650 1302 4700 
Q 1616 4750 1894 4750 
Q 2613 4750 3031 4423 
Q 3450 4097 3450 3541 
Q 3450 3153 3228 2886 
Q 3006 2619 2597 2516 
z
" transform="scale(0.015625)"/>
       </defs>
       <use xlink:href="#DejaVuSans-33"/>
      </g>
     </g>
    </g>
    <g id="xtick_5">
     <g id="line2d_5">
      <g>
       <use xlink:href="#m949fe37a83" x="546.360369" y="284.4" style="stroke: #000000; stroke-width: 0.8"/>
      </g>
     </g>
     <g id="text_5">
      <!-- 4 -->
      <g transform="translate(543.179119 298.998438) scale(0.1 -0.1)">
       <defs>
        <path id="DejaVuSans-34" d="M 2419 4116 
L 825 1625 
L 2419 1625 
L 2419 4116 
z
M 2253 4666 
L 3047 4666 
L 3047 1625 
L 3713 1625 
L 3713 1100 
L 3047 1100 
L 3047 0 
L 2419 0 
L 2419 1100 
L 313 1100 
L 313 1709 
L 2253 4666 
z
" transform="scale(0.015625)"/>
       </defs>
       <use xlink:href="#DejaVuSans-34"/>
      </g>
     </g>
    </g>
    <g id="xtick_6">
     <g id="line2d_6">
      <g>
       <use xlink:href="#m949fe37a83" x="668.105824" y="284.4" style="stroke: #000000; stroke-width: 0.8"/>
      </g>
     </g>
     <g id="text_6">
      <!-- 5 -->
      <g transform="translate(664.924574 298.998438) scale(0.1 -0.1)">
       <defs>
        <path id="DejaVuSans-35" d="M 691 4666 
L 3169 4666 
L 3169 4134 
L 1269 4134 
L 1269 2991 
Q 1406 3038 1543 3061 
Q 1681 3084 1819 3084 
Q 2600 3084 3056 2656 
Q 3513 2228 3513 1497 
Q 3513 744 3044 326 
Q 2575 -91 1722 -91 
Q 1428 -91 1123 -41 
Q 819 9 494 109 
L 494 744 
Q 775 591 1075 516 
Q 1375 441 1709 441 
Q 2250 441 2565 725 
Q 2881 1009 2881 1497 
Q 2881 1984 2565 2268 
Q 2250 2553 1709 2553 
Q 1456 2553 1204 2497 
Q 953 2441 691 2322 
L 691 4666 
z
" transform="scale(0.015625)"/>
       </defs>
       <use xlink:href="#DejaVuSans-35"/>
      </g>
     </g>
    </g>
   </g>
   <g id="matplotlib.axis_2">
    <g id="ytick_1">
     <g id="line2d_7">
      <defs>
       <path id="m3b1c0d5f7e" d="M 0 0 
L -3.5 0 
" style="stroke: #000000; stroke-width: 0.8"/>
      </defs>
      <g>
       <use xlink:href="#m3b1c0d5f7e" x="28.942188" y="283.151044" style="stroke: #000000; stroke-width: 0.8"/>
      </g>
     </g>
     <g id="text_7">
      <!-- −3 -->
      <g transform="translate(7.2 286.950263) scale(0.1 -0.1)">
       <defs>
        <path id="DejaVuSans-2212" d="M 678 2272 
L 4684 2272 
L 4684 1741 
L 678 1741 
L 678 2272 
z
" transform="scale(0.015625)"/>
       </defs>
       <use xlink:href="#DejaVuSans-2212"/>
       <use xlink:href="#DejaVuSans-33" x="83.789062"/>
      </g>
     </g>
    </g>
    <g id="ytick_2">
     <g id="line2d_8">
      <g>
       <use xlink:href="#m3b1c0d5f7e" x="28.942188" y="235.536912" style="stroke: #000000; stroke-width: 0.8"/>
      </g>
     </g>
     <g id="text_8">
      <!-- −2 -->
      <g transform="translate(7.2 239.33613) scale(0.1 -0.1)">
       <use xlink:href="#DejaVuSans-2212"/>
       <use xlink:href="#DejaVuSans-32" x="83.789062"/>
      </g>
     </g>
    </g>
    <g id="ytick_3">
     <g id="line2d_9">
      <g>
       <use xlink:href="#m3b1c0d5f7e" x="28.942188" y="187.922779" style="stroke: #000000; stroke-width: 0.8"/>
      </g>
     </g>
     <g id="text_9">
      <!-- −1 -->
      <g transform="translate(7.2 191.721998) scale(0.1 -0.1)">
       <use xlink:href="#DejaVuSans-2212"/>
       <use xlink:href="#DejaVuSans-31" x="83.789062"/>
      </g>
     </g>
    </g>
    <g id="ytick_4">
     <g id="line2d_10">
      <g>
       <use xlink:href="#m3b1c0d5f7e" x="28.942188" y="140.308647" style="stroke: #000000; stroke-width: 0.8"/>
      </g>
     </g>
     <g id="text_10">
      <!-- 0 -->
      <g transform="translate(15.579688 144.107866) scale(0.1 -0.1)">
       <use xlink:href="#DejaVuSans-30"/>
      </g>
     </g>
    </g>
    <g id="ytick_5">
     <g id="line2d_11">
      <g>
       <use xlink:href="#m3b1c0d5f7e" x="28.942188" y="92.694515" style="stroke: #000000; stroke-width: 0.8"/>
      </g>
     </g>
     <g id="text_11">
      <!-- 1 -->
      <g transform="translate(15.579688 96.493734) scale(0.1 -0.1)">
       <use xlink:href="#DejaVuSans-31"/>
      </g>
     </g>
    </g>
    <g id="ytick_6">
     <g id="line2d_12">
      <g>
       <use xlink:href="#m3b1c0d5f7e" x="28.942188" y="45.080383" style="stroke: #000000; stroke-width: 0.8"/>
      </g>
     </g>
     <g id="text_12">
      <!-- 2 -->
      <g transform="translate(15.579688 48.879601) scale(0.1 -0.1)">
       <use xlink:href="#DejaVuSans-32"/>
      </g>
     </g>
    </g>
   </g>
   <g id="line2d_13">
    <path d="M 59.378551 178.454933 
L 71.801557 183.78347 
L 84.224562 188.68528 
L 96.647568 192.818753 
L 109.070573 195.902354 
L 121.493579 197.748535 
L 133.916585 198.285489 
L 146.33959 197.564313 
L 158.762596 195.751037 
L 171.185601 193.105252 
L 183.608607 189.94827 
L 196.031612 186.625299 
L 208.454618 183.466625 
L 220.877623 180.752562 
L 233.300629 178.686525 
L 245.723635 177.378934 
L 258.14664 176.843226 
L 270.569646 177.003443 
L 282.992651 177.711283 
L 295.415657 178.769387 
L 307.838662 179.957118 
L 320.261668 181.055197 
L 332.684674 181.866153 
L 345.107679 182.228865 
L 357.530685 182.026508 
L 369.95369 181.188481 
L 382.376696 179.687752 
L 394.799701 177.53545 
L 407.222707 174.774518 
L 419.645713 171.473922 
L 432.068718 167.724076 
L 444.491724 163.633763 
L 456.914729 159.327943 
L 469.337735 154.945684 
L 481.76074 150.637386 
L 494.183746 146.560413 
L 506.606752 142.872926 
L 519.029757 139.725907 
L 531.452763 137.253885 
L 543.875768 135.56529 
L 556.298774 134.733414 
L 568.721779 134.789067 
L 581.144785 135.715968 
L 593.56779 137.449432 
L 605.990796 139.878831 
L 618.413802 142.853805 
L 630.836807 146.193746 
L 643.259813 149.699765 
L 655.682818 153.168191 
L 668.105824 156.404217 
" clip-path="url(#pa1d9ae17fe)" style="fill: none; stroke: #1f77b4; stroke-opacity: 0.5; stroke-width: 1.5; stroke-linecap: square"/>
   </g>
   <g id="line2d_14">
    <path d="M 59.378551 123.219246 
L 71.801557 124.073859 
L 84.224562 124.688064 
L 96.647568 125.012668 
L 109.070573 124.999329 
L 121.493579 124.609221 
L 133.916585 123.82115 
L 146.33959 122.638247 
L 158.762596 121.092447 
L 171.185601 119.246476 
L 183.608607 117.19314 
L 196.031612 115.052069 
L 208.454618 112.964041 
L 220.877623 111.083121 
L 233.300629 109.566909 
L 245.723635 108.565325 
L 258.14664 108.208512 
L 270.569646 108.594835 
L 282.992651 109.780153 
L 295.415657 111.769805 
L 307.838662 114.514653 
L 320.261668 117.912404 
L 332.684674 121.814528 
L 345.107679 126.038603 
L 357.530685 130.384633 
L 369.95369 134.653417 
L 382.376696 138.664105 
L 394.799701 142.268556 
L 407.222707 145.360164 
L 419.645713 147.875938 
L 432.068718 149.791751 
L 444.491724 151.112095 
L 456.914729 151.856413 
L 469.337735 152.044958 
L 481.76074 151.687025 
L 494.183746 150.774105 
L 506.606752 149.279276 
L 519.029757 147.163337 
L 531.452763 144.386626 
L 543.875768 140.924635 
L 556.298774 136.78472 
L 568.721779 132.020976 
L 581.144785 126.744533 
L 593.56779 121.127166 
L 605.990796 115.397065 
L 618.413802 109.826624 
L 630.836807 104.713288 
L 643.259813 100.35538 
L 655.682818 97.025592 
L 668.105824 94.94508 
" clip-path="url(#pa1d9ae17fe)" style="fill: none; stroke: #ff7f0e; stroke-opacity: 0.5; stroke-width: 1.5; stroke-linecap: square"/>
   </g>
   <g id="line2d_15">
    <path d="M 59.378551 90.823105 
L 71.801557 83.378318 
L 84.224562 76.027884 
L 96.647568 69.058944 
L 109.070573 62.729181 
L 121.493579 57.253835 
L 133.916585 52.798287 
L 146.33959 49.476302 
L 158.762596 47.353442 
L 171.185601 46.454234 
L 183.608607 46.771487 
L 196.031612 48.275782 
L 208.454618 50.923384 
L 220.877623 54.661269 
L 233.300629 59.428389 
L 245.723635 65.153342 
L 258.14664 71.749075 
L 270.569646 79.106038 
L 282.992651 87.085451 
L 295.415657 95.514496 
L 307.838662 104.184773 
L 320.261668 112.854969 
L 332.684674 121.257764 
L 345.107679 129.11037 
L 357.530685 136.127405 
L 369.95369 142.034633 
L 382.376696 146.581965 
L 394.799701 149.554728 
L 407.222707 150.782468 
L 419.645713 150.14563 
L 432.068718 147.580427 
L 444.491724 143.082893 
L 456.914729 136.712667 
L 469.337735 128.596751 
L 481.76074 118.93277 
L 494.183746 107.990516 
L 506.606752 96.110379 
L 519.029757 83.696845 
L 531.452763 71.205878 
L 543.875768 59.125742 
L 556.298774 47.951796 
L 568.721779 38.157115 
L 581.144785 30.161622 
L 593.56779 24.302972 
L 605.990796 20.812647 
L 618.413802 19.8 
L 630.836807 21.246273 
L 643.259813 25.009186 
L 655.682818 30.837551 
L 668.105824 38.394146 
" clip-path="url(#pa1d9ae17fe)" style="fill: none; stroke: #2ca02c; stroke-opacity: 0.5; stroke-width: 1.5; stroke-linecap: square"/>
   </g>
   <g id="line2d_16">
    <path d="M 59.378551 150.579867 
L 71.801557 154.40864 
L 84.224562 158.011801 
L 96.647568 161.378169 
L 109.070573 164.456693 
L 121.493579 167.162499 
L 133.916585 169.392117 
L 146.33959 171.044994 
L 158.762596 172.047226 
L 171.185601 172.373233 
L 183.608607 172.061436 
L 196.031612 171.221341 
L 208.454618 170.030972 
L 220.877623 168.725185 
L 233.300629 167.576887 
L 245.723635 166.873899 
L 258.14664 166.894434 
L 270.569646 167.883976 
L 282.992651 170.035503 
L 295.415657 173.47435 
L 307.838662 178.248209 
L 320.261668 184.322436 
L 332.684674 191.580421 
L 345.107679 199.829013 
L 357.530685 208.808844 
L 369.95369 218.209365 
L 382.376696 227.688123 
L 394.799701 236.893175 
L 407.222707 245.4869 
L 419.645713 253.168833 
L 432.068718 259.694753 
L 444.491724 264.889421 
L 456.914729 268.651025 
L 469.337735 270.946709 
L 481.76074 271.8 
L 494.183746 271.272477 
L 506.606752 269.443312 
L 519.029757 266.390611 
L 531.452763 262.17829 
L 543.875768 256.850878 
L 556.298774 250.437092 
L 568.721779 242.960943 
L 581.144785 234.457454 
L 593.56779 224.98917 
L 605.990796 214.659174 
L 618.413802 203.617374 
L 630.836807 192.058033 
L 643.259813 180.20856 
L 655.682818 168.311316 
L 668.105824 156.601678 
" clip-path="url(#pa1d9ae17fe)" style="fill: none; stroke: #d62728; stroke-opacity: 0.5; stroke-width: 1.5; stroke-linecap: square"/>
   </g>
   <g id="line2d_17">
    <path d="M 59.378551 71.601543 
L 71.801557 66.54713 
L 84.224562 62.528773 
L 96.647568 59.639187 
L 109.070573 57.910189 
L 121.493579 57.315225 
L 133.916585 57.775329 
L 146.33959 59.168193 
L 158.762596 61.339903 
L 171.185601 64.11858 
L 183.608607 67.328918 
L 196.031612 70.806304 
L 208.454618 74.409053 
L 220.877623 78.027461 
L 233.300629 81.588615 
L 245.723635 85.056509 
L 258.14664 88.427673 
L 270.569646 91.723243 
L 282.992651 94.97886 
L 295.415657 98.234088 
L 307.838662 101.522917 
L 320.261668 104.866608 
L 332.684674 108.269459 
L 345.107679 111.717563 
L 357.530685 115.180079 
L 369.95369 118.612037 
L 382.376696 121.957969 
L 394.799701 125.155421 
L 407.222707 128.138066 
L 419.645713 130.83816 
L 432.068718 133.188729 
L 444.491724 135.125697 
L 456.914729 136.590465 
L 469.337735 137.533087 
L 481.76074 137.916109 
L 494.183746 137.71861 
L 506.606752 136.940079 
L 519.029757 135.603185 
L 531.452763 133.7548 
L 543.875768 131.464483 
L 556.298774 128.820134 
L 568.721779 125.920629 
L 581.144785 122.865991 
L 593.56779 119.746016 
L 605.990796 116.62866 
L 618.413802 113.549969 
L 630.836807 110.507176 
L 643.259813 107.456609 
L 655.682818 104.317324 
L 668.105824 100.980875 
" clip-path="url(#pa1d9ae17fe)" style="fill: none; stroke: #9467bd; stroke-opacity: 0.5; stroke-width: 1.5; stroke-linecap: square"/>
   </g>
   <g id="patch_3">
    <path d="M 28.942188 284.4 
L 28.942188 7.2 
" style="fill: none; stroke: #000000; stroke-width: 0.8; stroke-linejoin: miter; stroke-linecap: square"/>
   </g>
   <g id="patch_4">
    <path d="M 698.542188 284.4 
L 698.542188 7.2 
" style="fill: none; stroke: #000000; stroke-width: 0.8; stroke-linejoin: miter; stroke-linecap: square"/>
   </g>
   <g id="patch_5">
    <path d="M 28.942188 284.4 
L 698.542188 284.4 
" style="fill: none; stroke: #000000; stroke-width: 0.8; stroke-linejoin: miter; stroke-linecap: square"/>
   </g>
   <g id="patch_6">
    <path d="M 28.942188 7.2 
L 698.542188 7.2 
" style="fill: none; stroke: #000000; stroke-width: 0.8; stroke-linejoin: miter; stroke-linecap: square"/>
   </g>
  </g>
 </g>
 <defs>
  <clipPath id="pa1d9ae17fe">
   <rect x="28.942188" y="7.2" width="669.6" height="277.2"/>
  </clipPath>
 </defs>
</svg>
