<?xml version="1.0" encoding="utf-8" standalone="no"?>
<!DOCTYPE svg PUBLIC "-//W3C//DTD SVG 1.1//EN"
  "http://www.w3.org/Graphics/SVG/1.1/DTD/svg11.dtd">
<svg xmlns:xlink="http://www.w3.org/1999/xlink" width="735.460937pt" height="331.634375pt" viewBox="0 0 735.460937 331.634375" xmlns="http://www.w3.org/2000/svg" version="1.1">
 <metadata>
  <rdf:RDF xmlns:dc="http://purl.org/dc/elements/1.1/" xmlns:cc="http://creativecommons.org/ns#" xmlns:rdf="http://www.w3.org/1999/02/22-rdf-syntax-ns#">
   <cc:Work>
    <dc:type rdf:resource="http://purl.org/dc/dcmitype/StillImage"/>
    <dc:date>2025-07-01T15:21:53.563121</dc:date>
    <dc:format>image/svg+xml</dc:format>
    <dc:creator>
     <cc:Agent>
      <dc:title>Matplotlib v3.7.2, https://matplotlib.org/</dc:title>
     </cc:Agent>
    </dc:creator>
   </cc:Work>
  </rdf:RDF>
 </metadata>
 <defs>
  <style type="text/css">*{stroke-linejoin: round; stroke-linecap: butt}</style>
 </defs>
 <g id="figure_1">
  <g id="patch_1">
   <path d="M 0 331.634375 
L 735.460937 331.634375 
L 735.460937 0 
L 0 0 
z
" style="fill: #ffffff"/>
  </g>
  <g id="axes_1">
   <g id="patch_2">
    <path d="M 58.660938 284.4 
L 728.260938 284.4 
L 728.260938 7.2 
L 58.660938 7.2 
z
" style="fill: #ffffff"/>
   </g>
   <g id="PolyCollection_1">
    <path d="M 89.097301 19.8 
L 89.097301 268.92703 
L 101.520307 264.042346 
L 113.943312 259.166329 
L 126.366318 254.300133 
L 138.789323 249.445122 
L 151.212329 244.602921 
L 163.635335 239.775481 
L 176.05834 234.965161 
L 188.481346 230.17484 
L 200.904351 225.408065 
L 213.327357 220.669248 
L 225.750362 215.963941 
L 238.173368 211.299211 
L 250.596373 206.68417 
L 263.019379 202.130729 
L 275.442385 197.654679 
L 287.86539 193.277273 
L 300.288396 189.027521 
L 312.711401 184.945549 
L 325.134407 181.087347 
L 337.557412 177.531096 
L 349.980418 174.384297 
L 362.403424 171.788258 
L 374.826429 169.91143 
L 387.249435 168.919282 
L 399.67244 168.919282 
L 412.095446 169.91143 
L 424.518451 171.788258 
L 436.941457 174.384297 
L 449.364463 177.531096 
L 461.787468 181.087347 
L 474.210474 184.945549 
L 486.633479 189.027521 
L 499.056485 193.277273 
L 511.47949 197.654679 
L 523.902496 202.130729 
L 536.325502 206.68417 
L 548.748507 211.299211 
L 561.171513 215.963941 
L 573.594518 220.669248 
L 586.017524 225.408065 
L 598.440529 230.17484 
L 610.863535 234.965161 
L 623.28654 239.775481 
L 635.709546 244.602921 
L 648.132552 249.445122 
L 660.555557 254.300133 
L 672.978563 259.166329 
L 685.401568 264.042346 
L 697.824574 268.92703 
L 697.824574 19.8 
L 697.824574 19.8 
L 685.401568 24.684684 
L 672.978563 29.560701 
L 660.555557 34.426897 
L 648.132552 39.281908 
L 635.709546 44.124108 
L 623.28654 48.951549 
L 610.863535 53.761869 
L 598.440529 58.55219 
L 586.017524 63.318965 
L 573.594518 68.057782 
L 561.171513 72.763089 
L 548.748507 77.427819 
L 536.325502 82.04286 
L 523.902496 86.596301 
L 511.47949 91.07235 
L 499.056485 95.449757 
L 486.633479 99.699508 
L 474.210474 103.78148 
L 461.787468 107.639683 
L 449.364463 111.195933 
L 436.941457 114.342733 
L 424.518451 116.938772 
L 412.095446 118.8156 
L 399.67244 119.807748 
L 387.249435 119.807748 
L 374.826429 118.8156 
L 362.403424 116.938772 
L 349.980418 114.342733 
L 337.557412 111.195933 
L 325.134407 107.639683 
L 312.711401 103.78148 
L 300.288396 99.699508 
L 287.86539 95.449757 
L 275.442385 91.07235 
L 263.019379 86.596301 
L 250.596373 82.04286 
L 238.173368 77.427819 
L 225.750362 72.763089 
L 213.327357 68.057782 
L 200.904351 63.318965 
L 188.481346 58.55219 
L 176.05834 53.761869 
L 163.635335 48.951549 
L 151.212329 44.124108 
L 138.789323 39.281908 
L 126.366318 34.426897 
L 113.943312 29.560701 
L 101.520307 24.684684 
L 89.097301 19.8 
z
" clip-path="url(#p93272bd54d)" style="fill: #1f77b4; fill-opacity: 0.25"/>
   </g>
   <g id="matplotlib.axis_1">
    <g id="xtick_1">
     <g id="line2d_1">
      <defs>
       <path id="m4f8ac6eef0" d="M 0 0 
L 0 3.5 
" style="stroke: #000000; stroke-width: 0.8"/>
      </defs>
      <g>
       <use xlink:href="#m4f8ac6eef0" x="149.970028" y="284.4" style="stroke: #000000; stroke-width: 0.8"/>
      </g>
     </g>
     <g id="text_1">
      <!-- −4 -->
      <g transform="translate(142.598935 298.998437) scale(0.1 -0.1)">
       <defs>
        <path id="DejaVuSans-2212" d="M 678 2272 
L 4684 2272 
L 4684 1741 
L 678 1741 
L 678 2272 
z
" transform="scale(0.015625)"/>
        <path id="DejaVuSans-34" d="M 2419 4116 
L 825 1625 
L 2419 1625 
L 2419 4116 
z
M 2253 4666 
L 3047 4666 
L 3047 1625 
L 3713 1625 
L 3713 1100 
L 3047 1100 
L 3047 0 
L 2419 0 
L 2419 1100 
L 313 1100 
L 313 1709 
L 2253 4666 
z
" transform="scale(0.015625)"/>
       </defs>
       <use xlink:href="#DejaVuSans-2212"/>
       <use xlink:href="#DejaVuSans-34" x="83.789062"/>
      </g>
     </g>
    </g>
    <g id="xtick_2">
     <g id="line2d_2">
      <g>
       <use xlink:href="#m4f8ac6eef0" x="271.715483" y="284.4" style="stroke: #000000; stroke-width: 0.8"/>
      </g>
     </g>
     <g id="text_2">
      <!-- −2 -->
      <g transform="translate(264.344389 298.998437) scale(0.1 -0.1)">
       <defs>
        <path id="DejaVuSans-32" d="M 1228 531 
L 3431 531 
L 3431 0 
L 469 0 
L 469 531 
Q 828 903 1448 1529 
Q 2069 2156 2228 2338 
Q 2531 2678 2651 2914 
Q 2772 3150 2772 3378 
Q 2772 3750 2511 3984 
Q 2250 4219 1831 4219 
Q 1534 4219 1204 4116 
Q 875 4013 500 3803 
L 500 4441 
Q 881 4594 1212 4672 
Q 1544 4750 1819 4750 
Q 2544 4750 2975 4387 
Q 3406 4025 3406 3419 
Q 3406 3131 3298 2873 
Q 3191 2616 2906 2266 
Q 2828 2175 2409 1742 
Q 1991 1309 1228 531 
z
" transform="scale(0.015625)"/>
       </defs>
       <use xlink:href="#DejaVuSans-2212"/>
       <use xlink:href="#DejaVuSans-32" x="83.789062"/>
      </g>
     </g>
    </g>
    <g id="xtick_3">
     <g id="line2d_3">
      <g>
       <use xlink:href="#m4f8ac6eef0" x="393.460938" y="284.4" style="stroke: #000000; stroke-width: 0.8"/>
      </g>
     </g>
     <g id="text_3">
      <!-- 0 -->
      <g transform="translate(390.279688 298.998437) scale(0.1 -0.1)">
       <defs>
        <path id="DejaVuSans-30" d="M 2034 4250 
Q 1547 4250 1301 3770 
Q 1056 3291 1056 2328 
Q 1056 1369 1301 889 
Q 1547 409 2034 409 
Q 2525 409 2770 889 
Q 3016 1369 3016 2328 
Q 3016 3291 2770 3770 
Q 2525 4250 2034 4250 
z
M 2034 4750 
Q 2819 4750 3233 4129 
Q 3647 3509 3647 2328 
Q 3647 1150 3233 529 
Q 2819 -91 2034 -91 
Q 1250 -91 836 529 
Q 422 1150 422 2328 
Q 422 3509 836 4129 
Q 1250 4750 2034 4750 
z
" transform="scale(0.015625)"/>
       </defs>
       <use xlink:href="#DejaVuSans-30"/>
      </g>
     </g>
    </g>
    <g id="xtick_4">
     <g id="line2d_4">
      <g>
       <use xlink:href="#m4f8ac6eef0" x="515.206392" y="284.4" style="stroke: #000000; stroke-width: 0.8"/>
      </g>
     </g>
     <g id="text_4">
      <!-- 2 -->
      <g transform="translate(512.025142 298.998437) scale(0.1 -0.1)">
       <use xlink:href="#DejaVuSans-32"/>
      </g>
     </g>
    </g>
    <g id="xtick_5">
     <g id="line2d_5">
      <g>
       <use xlink:href="#m4f8ac6eef0" x="636.951847" y="284.4" style="stroke: #000000; stroke-width: 0.8"/>
      </g>
     </g>
     <g id="text_5">
      <!-- 4 -->
      <g transform="translate(633.770597 298.998437) scale(0.1 -0.1)">
       <use xlink:href="#DejaVuSans-34"/>
      </g>
     </g>
    </g>
    <g id="text_6">
     <!-- x -->
     <g transform="translate(387.542188 320.275) scale(0.2 -0.2)">
      <defs>
       <path id="DejaVuSans-78" d="M 3513 3500 
L 2247 1797 
L 3578 0 
L 2900 0 
L 1881 1375 
L 863 0 
L 184 0 
L 1544 1831 
L 300 3500 
L 978 3500 
L 1906 2253 
L 2834 3500 
L 3513 3500 
z
" transform="scale(0.015625)"/>
      </defs>
      <use xlink:href="#DejaVuSans-78"/>
     </g>
    </g>
   </g>
   <g id="matplotlib.axis_2">
    <g id="ytick_1">
     <g id="line2d_6">
      <defs>
       <path id="m0afcbc08e7" d="M 0 0 
L -3.5 0 
" style="stroke: #000000; stroke-width: 0.8"/>
      </defs>
      <g>
       <use xlink:href="#m0afcbc08e7" x="58.660938" y="266.50809" style="stroke: #000000; stroke-width: 0.8"/>
      </g>
     </g>
     <g id="text_7">
      <!-- −10 -->
      <g transform="translate(30.55625 270.307309) scale(0.1 -0.1)">
       <defs>
        <path id="DejaVuSans-31" d="M 794 531 
L 1825 531 
L 1825 4091 
L 703 3866 
L 703 4441 
L 1819 4666 
L 2450 4666 
L 2450 531 
L 3481 531 
L 3481 0 
L 794 0 
L 794 531 
z
" transform="scale(0.015625)"/>
       </defs>
       <use xlink:href="#DejaVuSans-2212"/>
       <use xlink:href="#DejaVuSans-31" x="83.789062"/>
       <use xlink:href="#DejaVuSans-30" x="147.412109"/>
      </g>
     </g>
    </g>
    <g id="ytick_2">
     <g id="line2d_7">
      <g>
       <use xlink:href="#m0afcbc08e7" x="58.660938" y="205.435803" style="stroke: #000000; stroke-width: 0.8"/>
      </g>
     </g>
     <g id="text_8">
      <!-- −5 -->
      <g transform="translate(36.91875 209.235021) scale(0.1 -0.1)">
       <defs>
        <path id="DejaVuSans-35" d="M 691 4666 
L 3169 4666 
L 3169 4134 
L 1269 4134 
L 1269 2991 
Q 1406 3038 1543 3061 
Q 1681 3084 1819 3084 
Q 2600 3084 3056 2656 
Q 3513 2228 3513 1497 
Q 3513 744 3044 326 
Q 2575 -91 1722 -91 
Q 1428 -91 1123 -41 
Q 819 9 494 109 
L 494 744 
Q 775 591 1075 516 
Q 1375 441 1709 441 
Q 2250 441 2565 725 
Q 2881 1009 2881 1497 
Q 2881 1984 2565 2268 
Q 2250 2553 1709 2553 
Q 1456 2553 1204 2497 
Q 953 2441 691 2322 
L 691 4666 
z
" transform="scale(0.015625)"/>
       </defs>
       <use xlink:href="#DejaVuSans-2212"/>
       <use xlink:href="#DejaVuSans-35" x="83.789062"/>
      </g>
     </g>
    </g>
    <g id="ytick_3">
     <g id="line2d_8">
      <g>
       <use xlink:href="#m0afcbc08e7" x="58.660938" y="144.363515" style="stroke: #000000; stroke-width: 0.8"/>
      </g>
     </g>
     <g id="text_9">
      <!-- 0 -->
      <g transform="translate(45.298438 148.162734) scale(0.1 -0.1)">
       <use xlink:href="#DejaVuSans-30"/>
      </g>
     </g>
    </g>
    <g id="ytick_4">
     <g id="line2d_9">
      <g>
       <use xlink:href="#m0afcbc08e7" x="58.660938" y="83.291227" style="stroke: #000000; stroke-width: 0.8"/>
      </g>
     </g>
     <g id="text_10">
      <!-- 5 -->
      <g transform="translate(45.298438 87.090446) scale(0.1 -0.1)">
       <use xlink:href="#DejaVuSans-35"/>
      </g>
     </g>
    </g>
    <g id="ytick_5">
     <g id="line2d_10">
      <g>
       <use xlink:href="#m0afcbc08e7" x="58.660938" y="22.218939" style="stroke: #000000; stroke-width: 0.8"/>
      </g>
     </g>
     <g id="text_11">
      <!-- 10 -->
      <g transform="translate(38.935938 26.018158) scale(0.1 -0.1)">
       <use xlink:href="#DejaVuSans-31"/>
       <use xlink:href="#DejaVuSans-30" x="63.623047"/>
      </g>
     </g>
    </g>
    <g id="text_12">
     <!-- f(x) -->
     <g transform="translate(22.396875 163.042187) rotate(-90) scale(0.2 -0.2)">
      <defs>
       <path id="DejaVuSans-66" d="M 2375 4863 
L 2375 4384 
L 1825 4384 
Q 1516 4384 1395 4259 
Q 1275 4134 1275 3809 
L 1275 3500 
L 2222 3500 
L 2222 3053 
L 1275 3053 
L 1275 0 
L 697 0 
L 697 3053 
L 147 3053 
L 147 3500 
L 697 3500 
L 697 3744 
Q 697 4328 969 4595 
Q 1241 4863 1831 4863 
L 2375 4863 
z
" transform="scale(0.015625)"/>
       <path id="DejaVuSans-28" d="M 1984 4856 
Q 1566 4138 1362 3434 
Q 1159 2731 1159 2009 
Q 1159 1288 1364 580 
Q 1569 -128 1984 -844 
L 1484 -844 
Q 1016 -109 783 600 
Q 550 1309 550 2009 
Q 550 2706 781 3412 
Q 1013 4119 1484 4856 
L 1984 4856 
z
" transform="scale(0.015625)"/>
       <path id="DejaVuSans-29" d="M 513 4856 
L 1013 4856 
Q 1481 4119 1714 3412 
Q 1947 2706 1947 2009 
Q 1947 1309 1714 600 
Q 1481 -109 1013 -844 
L 513 -844 
Q 928 -128 1133 580 
Q 1338 1288 1338 2009 
Q 1338 2731 1133 3434 
Q 928 4138 513 4856 
z
" transform="scale(0.015625)"/>
      </defs>
      <use xlink:href="#DejaVuSans-66"/>
      <use xlink:href="#DejaVuSans-28" x="35.205078"/>
      <use xlink:href="#DejaVuSans-78" x="74.21875"/>
      <use xlink:href="#DejaVuSans-29" x="133.398438"/>
     </g>
    </g>
   </g>
   <g id="line2d_11">
    <path d="M 89.097301 144.363515 
L 101.520307 144.363515 
L 113.943312 144.363515 
L 126.366318 144.363515 
L 138.789323 144.363515 
L 151.212329 144.363515 
L 163.635335 144.363515 
L 176.05834 144.363515 
L 188.481346 144.363515 
L 200.904351 144.363515 
L 213.327357 144.363515 
L 225.750362 144.363515 
L 238.173368 144.363515 
L 250.596373 144.363515 
L 263.019379 144.363515 
L 275.442385 144.363515 
L 287.86539 144.363515 
L 300.288396 144.363515 
L 312.711401 144.363515 
L 325.134407 144.363515 
L 337.557412 144.363515 
L 349.980418 144.363515 
L 362.403424 144.363515 
L 374.826429 144.363515 
L 387.249435 144.363515 
L 399.67244 144.363515 
L 412.095446 144.363515 
L 424.518451 144.363515 
L 436.941457 144.363515 
L 449.364463 144.363515 
L 461.787468 144.363515 
L 474.210474 144.363515 
L 486.633479 144.363515 
L 499.056485 144.363515 
L 511.47949 144.363515 
L 523.902496 144.363515 
L 536.325502 144.363515 
L 548.748507 144.363515 
L 561.171513 144.363515 
L 573.594518 144.363515 
L 586.017524 144.363515 
L 598.440529 144.363515 
L 610.863535 144.363515 
L 623.28654 144.363515 
L 635.709546 144.363515 
L 648.132552 144.363515 
L 660.555557 144.363515 
L 672.978563 144.363515 
L 685.401568 144.363515 
L 697.824574 144.363515 
" clip-path="url(#p93272bd54d)" style="fill: none; stroke: #000000; stroke-width: 4; stroke-linecap: square"/>
   </g>
   <g id="line2d_12">
    <path d="M 89.097301 121.399285 
L 101.520307 122.480588 
L 113.943312 123.561892 
L 126.366318 124.643196 
L 138.789323 125.7245 
L 151.212329 126.805803 
L 163.635335 127.887107 
L 176.05834 128.968411 
L 188.481346 130.049715 
L 200.904351 131.131019 
L 213.327357 132.212322 
L 225.750362 133.293626 
L 238.173368 134.37493 
L 250.596373 135.456234 
L 263.019379 136.537537 
L 275.442385 137.618841 
L 287.86539 138.700145 
L 300.288396 139.781449 
L 312.711401 140.862753 
L 325.134407 141.944056 
L 337.557412 143.02536 
L 349.980418 144.106664 
L 362.403424 145.187968 
L 374.826429 146.269271 
L 387.249435 147.350575 
L 399.67244 148.431879 
L 412.095446 149.513183 
L 424.518451 150.594487 
L 436.941457 151.67579 
L 449.364463 152.757094 
L 461.787468 153.838398 
L 474.210474 154.919702 
L 486.633479 156.001005 
L 499.056485 157.082309 
L 511.47949 158.163613 
L 523.902496 159.244917 
L 536.325502 160.326221 
L 548.748507 161.407524 
L 561.171513 162.488828 
L 573.594518 163.570132 
L 586.017524 164.651436 
L 598.440529 165.732739 
L 610.863535 166.814043 
L 623.28654 167.895347 
L 635.709546 168.976651 
L 648.132552 170.057955 
L 660.555557 171.139258 
L 672.978563 172.220562 
L 685.401568 173.301866 
L 697.824574 174.38317 
" clip-path="url(#p93272bd54d)" style="fill: none; stroke: #1f77b4; stroke-width: 1.5; stroke-linecap: square"/>
   </g>
   <g id="line2d_13">
    <path d="M 89.097301 208.405716 
L 101.520307 205.287551 
L 113.943312 202.169387 
L 126.366318 199.051222 
L 138.789323 195.933058 
L 151.212329 192.814893 
L 163.635335 189.696728 
L 176.05834 186.578564 
L 188.481346 183.460399 
L 200.904351 180.342235 
L 213.327357 177.22407 
L 225.750362 174.105906 
L 238.173368 170.987741 
L 250.596373 167.869577 
L 263.019379 164.751412 
L 275.442385 161.633247 
L 287.86539 158.515083 
L 300.288396 155.396918 
L 312.711401 152.278754 
L 325.134407 149.160589 
L 337.557412 146.042425 
L 349.980418 142.92426 
L 362.403424 139.806096 
L 374.826429 136.687931 
L 387.249435 133.569766 
L 399.67244 130.451602 
L 412.095446 127.333437 
L 424.518451 124.215273 
L 436.941457 121.097108 
L 449.364463 117.978944 
L 461.787468 114.860779 
L 474.210474 111.742615 
L 486.633479 108.62445 
L 499.056485 105.506285 
L 511.47949 102.388121 
L 523.902496 99.269956 
L 536.325502 96.151792 
L 548.748507 93.033627 
L 561.171513 89.915463 
L 573.594518 86.797298 
L 586.017524 83.679133 
L 598.440529 80.560969 
L 610.863535 77.442804 
L 623.28654 74.32464 
L 635.709546 71.206475 
L 648.132552 68.088311 
L 660.555557 64.970146 
L 672.978563 61.851982 
L 685.401568 58.733817 
L 697.824574 55.615652 
" clip-path="url(#p93272bd54d)" style="fill: none; stroke: #ff7f0e; stroke-width: 1.5; stroke-linecap: square"/>
   </g>
   <g id="line2d_14">
    <path d="M 89.097301 155.16132 
L 101.520307 154.269573 
L 113.943312 153.377825 
L 126.366318 152.486078 
L 138.789323 151.59433 
L 151.212329 150.702583 
L 163.635335 149.810835 
L 176.05834 148.919088 
L 188.481346 148.02734 
L 200.904351 147.135592 
L 213.327357 146.243845 
L 225.750362 145.352097 
L 238.173368 144.46035 
L 250.596373 143.568602 
L 263.019379 142.676855 
L 275.442385 141.785107 
L 287.86539 140.893359 
L 300.288396 140.001612 
L 312.711401 139.109864 
L 325.134407 138.218117 
L 337.557412 137.326369 
L 349.980418 136.434622 
L 362.403424 135.542874 
L 374.826429 134.651126 
L 387.249435 133.759379 
L 399.67244 132.867631 
L 412.095446 131.975884 
L 424.518451 131.084136 
L 436.941457 130.192389 
L 449.364463 129.300641 
L 461.787468 128.408893 
L 474.210474 127.517146 
L 486.633479 126.625398 
L 499.056485 125.733651 
L 511.47949 124.841903 
L 523.902496 123.950156 
L 536.325502 123.058408 
L 548.748507 122.16666 
L 561.171513 121.274913 
L 573.594518 120.383165 
L 586.017524 119.491418 
L 598.440529 118.59967 
L 610.863535 117.707923 
L 623.28654 116.816175 
L 635.709546 115.924427 
L 648.132552 115.03268 
L 660.555557 114.140932 
L 672.978563 113.249185 
L 685.401568 112.357437 
L 697.824574 111.46569 
" clip-path="url(#p93272bd54d)" style="fill: none; stroke: #2ca02c; stroke-width: 1.5; stroke-linecap: square"/>
   </g>
   <g id="line2d_15">
    <path d="M 89.097301 135.955178 
L 101.520307 136.390693 
L 113.943312 136.826208 
L 126.366318 137.261722 
L 138.789323 137.697237 
L 151.212329 138.132752 
L 163.635335 138.568266 
L 176.05834 139.003781 
L 188.481346 139.439296 
L 200.904351 139.87481 
L 213.327357 140.310325 
L 225.750362 140.745839 
L 238.173368 141.181354 
L 250.596373 141.616869 
L 263.019379 142.052383 
L 275.442385 142.487898 
L 287.86539 142.923413 
L 300.288396 143.358927 
L 312.711401 143.794442 
L 325.134407 144.229957 
L 337.557412 144.665471 
L 349.980418 145.100986 
L 362.403424 145.5365 
L 374.826429 145.972015 
L 387.249435 146.40753 
L 399.67244 146.843044 
L 412.095446 147.278559 
L 424.518451 147.714074 
L 436.941457 148.149588 
L 449.364463 148.585103 
L 461.787468 149.020618 
L 474.210474 149.456132 
L 486.633479 149.891647 
L 499.056485 150.327161 
L 511.47949 150.762676 
L 523.902496 151.198191 
L 536.325502 151.633705 
L 548.748507 152.06922 
L 561.171513 152.504735 
L 573.594518 152.940249 
L 586.017524 153.375764 
L 598.440529 153.811279 
L 610.863535 154.246793 
L 623.28654 154.682308 
L 635.709546 155.117822 
L 648.132552 155.553337 
L 660.555557 155.988852 
L 672.978563 156.424366 
L 685.401568 156.859881 
L 697.824574 157.295396 
" clip-path="url(#p93272bd54d)" style="fill: none; stroke: #d62728; stroke-width: 1.5; stroke-linecap: square"/>
   </g>
   <g id="line2d_16">
    <path d="M 89.097301 271.8 
L 101.520307 266.80312 
L 113.943312 261.80624 
L 126.366318 256.809361 
L 138.789323 251.812481 
L 151.212329 246.815601 
L 163.635335 241.818721 
L 176.05834 236.821841 
L 188.481346 231.824962 
L 200.904351 226.828082 
L 213.327357 221.831202 
L 225.750362 216.834322 
L 238.173368 211.837443 
L 250.596373 206.840563 
L 263.019379 201.843683 
L 275.442385 196.846803 
L 287.86539 191.849923 
L 300.288396 186.853044 
L 312.711401 181.856164 
L 325.134407 176.859284 
L 337.557412 171.862404 
L 349.980418 166.865524 
L 362.403424 161.868645 
L 374.826429 156.871765 
L 387.249435 151.874885 
L 399.67244 146.878005 
L 412.095446 141.881125 
L 424.518451 136.884246 
L 436.941457 131.887366 
L 449.364463 126.890486 
L 461.787468 121.893606 
L 474.210474 116.896727 
L 486.633479 111.899847 
L 499.056485 106.902967 
L 511.47949 101.906087 
L 523.902496 96.909207 
L 536.325502 91.912328 
L 548.748507 86.915448 
L 561.171513 81.918568 
L 573.594518 76.921688 
L 586.017524 71.924808 
L 598.440529 66.927929 
L 610.863535 61.931049 
L 623.28654 56.934169 
L 635.709546 51.937289 
L 648.132552 46.94041 
L 660.555557 41.94353 
L 672.978563 36.94665 
L 685.401568 31.94977 
L 697.824574 26.95289 
" clip-path="url(#p93272bd54d)" style="fill: none; stroke: #9467bd; stroke-width: 1.5; stroke-linecap: square"/>
   </g>
   <g id="line2d_17">
    <path d="M 89.097301 186.712317 
L 101.520307 185.698018 
L 113.943312 184.68372 
L 126.366318 183.669421 
L 138.789323 182.655123 
L 151.212329 181.640824 
L 163.635335 180.626525 
L 176.05834 179.612227 
L 188.481346 178.597928 
L 200.904351 177.583629 
L 213.327357 176.569331 
L 225.750362 175.555032 
L 238.173368 174.540734 
L 250.596373 173.526435 
L 263.019379 172.512136 
L 275.442385 171.497838 
L 287.86539 170.483539 
L 300.288396 169.46924 
L 312.711401 168.454942 
L 325.134407 167.440643 
L 337.557412 166.426345 
L 349.980418 165.412046 
L 362.403424 164.397747 
L 374.826429 163.383449 
L 387.249435 162.36915 
L 399.67244 161.354851 
L 412.095446 160.340553 
L 424.518451 159.326254 
L 436.941457 158.311956 
L 449.364463 157.297657 
L 461.787468 156.283358 
L 474.210474 155.26906 
L 486.633479 154.254761 
L 499.056485 153.240462 
L 511.47949 152.226164 
L 523.902496 151.211865 
L 536.325502 150.197567 
L 548.748507 149.183268 
L 561.171513 148.168969 
L 573.594518 147.154671 
L 586.017524 146.140372 
L 598.440529 145.126073 
L 610.863535 144.111775 
L 623.28654 143.097476 
L 635.709546 142.083178 
L 648.132552 141.068879 
L 660.555557 140.05458 
L 672.978563 139.040282 
L 685.401568 138.025983 
L 697.824574 137.011684 
" clip-path="url(#p93272bd54d)" style="fill: none; stroke: #8c564b; stroke-width: 1.5; stroke-linecap: square"/>
   </g>
   <g id="line2d_18">
    <path d="M 89.097301 92.509918 
L 101.520307 93.632631 
L 113.943312 94.755344 
L 126.366318 95.878057 
L 138.789323 97.00077 
L 151.212329 98.123484 
L 163.635335 99.246197 
L 176.05834 100.36891 
L 188.481346 101.491623 
L 200.904351 102.614336 
L 213.327357 103.737049 
L 225.750362 104.859762 
L 238.173368 105.982476 
L 250.596373 107.105189 
L 263.019379 108.227902 
L 275.442385 109.350615 
L 287.86539 110.473328 
L 300.288396 111.596041 
L 312.711401 112.718755 
L 325.134407 113.841468 
L 337.557412 114.964181 
L 349.980418 116.086894 
L 362.403424 117.209607 
L 374.826429 118.33232 
L 387.249435 119.455033 
L 399.67244 120.577747 
L 412.095446 121.70046 
L 424.518451 122.823173 
L 436.941457 123.945886 
L 449.364463 125.068599 
L 461.787468 126.191312 
L 474.210474 127.314026 
L 486.633479 128.436739 
L 499.056485 129.559452 
L 511.47949 130.682165 
L 523.902496 131.804878 
L 536.325502 132.927591 
L 548.748507 134.050304 
L 561.171513 135.173018 
L 573.594518 136.295731 
L 586.017524 137.418444 
L 598.440529 138.541157 
L 610.863535 139.66387 
L 623.28654 140.786583 
L 635.709546 141.909297 
L 648.132552 143.03201 
L 660.555557 144.154723 
L 672.978563 145.277436 
L 685.401568 146.400149 
L 697.824574 147.522862 
" clip-path="url(#p93272bd54d)" style="fill: none; stroke: #e377c2; stroke-width: 1.5; stroke-linecap: square"/>
   </g>
   <g id="line2d_19">
    <path d="M 89.097301 167.532977 
L 101.520307 166.684612 
L 113.943312 165.836246 
L 126.366318 164.987881 
L 138.789323 164.139516 
L 151.212329 163.291151 
L 163.635335 162.442785 
L 176.05834 161.59442 
L 188.481346 160.746055 
L 200.904351 159.897689 
L 213.327357 159.049324 
L 225.750362 158.200959 
L 238.173368 157.352593 
L 250.596373 156.504228 
L 263.019379 155.655863 
L 275.442385 154.807497 
L 287.86539 153.959132 
L 300.288396 153.110767 
L 312.711401 152.262402 
L 325.134407 151.414036 
L 337.557412 150.565671 
L 349.980418 149.717306 
L 362.403424 148.86894 
L 374.826429 148.020575 
L 387.249435 147.17221 
L 399.67244 146.323844 
L 412.095446 145.475479 
L 424.518451 144.627114 
L 436.941457 143.778748 
L 449.364463 142.930383 
L 461.787468 142.082018 
L 474.210474 141.233653 
L 486.633479 140.385287 
L 499.056485 139.536922 
L 511.47949 138.688557 
L 523.902496 137.840191 
L 536.325502 136.991826 
L 548.748507 136.143461 
L 561.171513 135.295095 
L 573.594518 134.44673 
L 586.017524 133.598365 
L 598.440529 132.749999 
L 610.863535 131.901634 
L 623.28654 131.053269 
L 635.709546 130.204904 
L 648.132552 129.356538 
L 660.555557 128.508173 
L 672.978563 127.659808 
L 685.401568 126.811442 
L 697.824574 125.963077 
" clip-path="url(#p93272bd54d)" style="fill: none; stroke: #7f7f7f; stroke-width: 1.5; stroke-linecap: square"/>
   </g>
   <g id="line2d_20">
    <path d="M 89.097301 120.293224 
L 101.520307 121.245358 
L 113.943312 122.197492 
L 126.366318 123.149626 
L 138.789323 124.10176 
L 151.212329 125.053893 
L 163.635335 126.006027 
L 176.05834 126.958161 
L 188.481346 127.910295 
L 200.904351 128.862429 
L 213.327357 129.814563 
L 225.750362 130.766697 
L 238.173368 131.718831 
L 250.596373 132.670965 
L 263.019379 133.623099 
L 275.442385 134.575232 
L 287.86539 135.527366 
L 300.288396 136.4795 
L 312.711401 137.431634 
L 325.134407 138.383768 
L 337.557412 139.335902 
L 349.980418 140.288036 
L 362.403424 141.24017 
L 374.826429 142.192304 
L 387.249435 143.144437 
L 399.67244 144.096571 
L 412.095446 145.048705 
L 424.518451 146.000839 
L 436.941457 146.952973 
L 449.364463 147.905107 
L 461.787468 148.857241 
L 474.210474 149.809375 
L 486.633479 150.761509 
L 499.056485 151.713643 
L 511.47949 152.665776 
L 523.902496 153.61791 
L 536.325502 154.570044 
L 548.748507 155.522178 
L 561.171513 156.474312 
L 573.594518 157.426446 
L 586.017524 158.37858 
L 598.440529 159.330714 
L 610.863535 160.282848 
L 623.28654 161.234981 
L 635.709546 162.187115 
L 648.132552 163.139249 
L 660.555557 164.091383 
L 672.978563 165.043517 
L 685.401568 165.995651 
L 697.824574 166.947785 
" clip-path="url(#p93272bd54d)" style="fill: none; stroke: #bcbd22; stroke-width: 1.5; stroke-linecap: square"/>
   </g>
   <g id="line2d_21">
    <path d="M 89.097301 91.869232 
L 101.520307 93.710943 
L 113.943312 95.552654 
L 126.366318 97.394365 
L 138.789323 99.236076 
L 151.212329 101.077786 
L 163.635335 102.919497 
L 176.05834 104.761208 
L 188.481346 106.602919 
L 200.904351 108.44463 
L 213.327357 110.286341 
L 225.750362 112.128051 
L 238.173368 113.969762 
L 250.596373 115.811473 
L 263.019379 117.653184 
L 275.442385 119.494895 
L 287.86539 121.336606 
L 300.288396 123.178316 
L 312.711401 125.020027 
L 325.134407 126.861738 
L 337.557412 128.703449 
L 349.980418 130.54516 
L 362.403424 132.38687 
L 374.826429 134.228581 
L 387.249435 136.070292 
L 399.67244 137.912003 
L 412.095446 139.753714 
L 424.518451 141.595425 
L 436.941457 143.437135 
L 449.364463 145.278846 
L 461.787468 147.120557 
L 474.210474 148.962268 
L 486.633479 150.803979 
L 499.056485 152.64569 
L 511.47949 154.4874 
L 523.902496 156.329111 
L 536.325502 158.170822 
L 548.748507 160.012533 
L 561.171513 161.854244 
L 573.594518 163.695954 
L 586.017524 165.537665 
L 598.440529 167.379376 
L 610.863535 169.221087 
L 623.28654 171.062798 
L 635.709546 172.904509 
L 648.132552 174.746219 
L 660.555557 176.58793 
L 672.978563 178.429641 
L 685.401568 180.271352 
L 697.824574 182.113063 
" clip-path="url(#p93272bd54d)" style="fill: none; stroke: #17becf; stroke-width: 1.5; stroke-linecap: square"/>
   </g>
   <g id="patch_3">
    <path d="M 58.660938 284.4 
L 58.660938 7.2 
" style="fill: none; stroke: #000000; stroke-width: 0.8; stroke-linejoin: miter; stroke-linecap: square"/>
   </g>
   <g id="patch_4">
    <path d="M 728.260938 284.4 
L 728.260938 7.2 
" style="fill: none; stroke: #000000; stroke-width: 0.8; stroke-linejoin: miter; stroke-linecap: square"/>
   </g>
   <g id="patch_5">
    <path d="M 58.660937 284.4 
L 728.260937 284.4 
" style="fill: none; stroke: #000000; stroke-width: 0.8; stroke-linejoin: miter; stroke-linecap: square"/>
   </g>
   <g id="patch_6">
    <path d="M 58.660937 7.2 
L 728.260937 7.2 
" style="fill: none; stroke: #000000; stroke-width: 0.8; stroke-linejoin: miter; stroke-linecap: square"/>
   </g>
  </g>
 </g>
 <defs>
  <clipPath id="p93272bd54d">
   <rect x="58.660938" y="7.2" width="669.6" height="277.2"/>
  </clipPath>
 </defs>
</svg>
