<?xml version="1.0" encoding="utf-8" standalone="no"?>
<!DOCTYPE svg PUBLIC "-//W3C//DTD SVG 1.1//EN"
  "http://www.w3.org/Graphics/SVG/1.1/DTD/svg11.dtd">
<svg xmlns:xlink="http://www.w3.org/1999/xlink" width="705.742188pt" height="308.278125pt" viewBox="0 0 705.742188 308.278125" xmlns="http://www.w3.org/2000/svg" version="1.1">
 <metadata>
  <rdf:RDF xmlns:dc="http://purl.org/dc/elements/1.1/" xmlns:cc="http://creativecommons.org/ns#" xmlns:rdf="http://www.w3.org/1999/02/22-rdf-syntax-ns#">
   <cc:Work>
    <dc:type rdf:resource="http://purl.org/dc/dcmitype/StillImage"/>
    <dc:date>2025-07-01T15:52:56.070183</dc:date>
    <dc:format>image/svg+xml</dc:format>
    <dc:creator>
     <cc:Agent>
      <dc:title>Matplotlib v3.7.2, https://matplotlib.org/</dc:title>
     </cc:Agent>
    </dc:creator>
   </cc:Work>
  </rdf:RDF>
 </metadata>
 <defs>
  <style type="text/css">*{stroke-linejoin: round; stroke-linecap: butt}</style>
 </defs>
 <g id="figure_1">
  <g id="patch_1">
   <path d="M 0 308.278125 
L 705.742188 308.278125 
L 705.742188 0 
L 0 0 
z
" style="fill: #ffffff"/>
  </g>
  <g id="axes_1">
   <g id="patch_2">
    <path d="M 28.942188 284.4 
L 698.542188 284.4 
L 698.542188 7.2 
L 28.942188 7.2 
z
" style="fill: #ffffff"/>
   </g>
   <g id="matplotlib.axis_1">
    <g id="xtick_1">
     <g id="line2d_1">
      <defs>
       <path id="m8f7959e9f1" d="M 0 0 
L 0 3.5 
" style="stroke: #000000; stroke-width: 0.8"/>
      </defs>
      <g>
       <use xlink:href="#m8f7959e9f1" x="59.378551" y="284.4" style="stroke: #000000; stroke-width: 0.8"/>
      </g>
     </g>
     <g id="text_1">
      <!-- 0 -->
      <g transform="translate(56.197301 298.998438) scale(0.1 -0.1)">
       <defs>
        <path id="DejaVuSans-30" d="M 2034 4250 
Q 1547 4250 1301 3770 
Q 1056 3291 1056 2328 
Q 1056 1369 1301 889 
Q 1547 409 2034 409 
Q 2525 409 2770 889 
Q 3016 1369 3016 2328 
Q 3016 3291 2770 3770 
Q 2525 4250 2034 4250 
z
M 2034 4750 
Q 2819 4750 3233 4129 
Q 3647 3509 3647 2328 
Q 3647 1150 3233 529 
Q 2819 -91 2034 -91 
Q 1250 -91 836 529 
Q 422 1150 422 2328 
Q 422 3509 836 4129 
Q 1250 4750 2034 4750 
z
" transform="scale(0.015625)"/>
       </defs>
       <use xlink:href="#DejaVuSans-30"/>
      </g>
     </g>
    </g>
    <g id="xtick_2">
     <g id="line2d_2">
      <g>
       <use xlink:href="#m8f7959e9f1" x="181.124006" y="284.4" style="stroke: #000000; stroke-width: 0.8"/>
      </g>
     </g>
     <g id="text_2">
      <!-- 1 -->
      <g transform="translate(177.942756 298.998438) scale(0.1 -0.1)">
       <defs>
        <path id="DejaVuSans-31" d="M 794 531 
L 1825 531 
L 1825 4091 
L 703 3866 
L 703 4441 
L 1819 4666 
L 2450 4666 
L 2450 531 
L 3481 531 
L 3481 0 
L 794 0 
L 794 531 
z
" transform="scale(0.015625)"/>
       </defs>
       <use xlink:href="#DejaVuSans-31"/>
      </g>
     </g>
    </g>
    <g id="xtick_3">
     <g id="line2d_3">
      <g>
       <use xlink:href="#m8f7959e9f1" x="302.86946" y="284.4" style="stroke: #000000; stroke-width: 0.8"/>
      </g>
     </g>
     <g id="text_3">
      <!-- 2 -->
      <g transform="translate(299.68821 298.998438) scale(0.1 -0.1)">
       <defs>
        <path id="DejaVuSans-32" d="M 1228 531 
L 3431 531 
L 3431 0 
L 469 0 
L 469 531 
Q 828 903 1448 1529 
Q 2069 2156 2228 2338 
Q 2531 2678 2651 2914 
Q 2772 3150 2772 3378 
Q 2772 3750 2511 3984 
Q 2250 4219 1831 4219 
Q 1534 4219 1204 4116 
Q 875 4013 500 3803 
L 500 4441 
Q 881 4594 1212 4672 
Q 1544 4750 1819 4750 
Q 2544 4750 2975 4387 
Q 3406 4025 3406 3419 
Q 3406 3131 3298 2873 
Q 3191 2616 2906 2266 
Q 2828 2175 2409 1742 
Q 1991 1309 1228 531 
z
" transform="scale(0.015625)"/>
       </defs>
       <use xlink:href="#DejaVuSans-32"/>
      </g>
     </g>
    </g>
    <g id="xtick_4">
     <g id="line2d_4">
      <g>
       <use xlink:href="#m8f7959e9f1" x="424.614915" y="284.4" style="stroke: #000000; stroke-width: 0.8"/>
      </g>
     </g>
     <g id="text_4">
      <!-- 3 -->
      <g transform="translate(421.433665 298.998438) scale(0.1 -0.1)">
       <defs>
        <path id="DejaVuSans-33" d="M 2597 2516 
Q 3050 2419 3304 2112 
Q 3559 1806 3559 1356 
Q 3559 666 3084 287 
Q 2609 -91 1734 -91 
Q 1441 -91 1130 -33 
Q 819 25 488 141 
L 488 750 
Q 750 597 1062 519 
Q 1375 441 1716 441 
Q 2309 441 2620 675 
Q 2931 909 2931 1356 
Q 2931 1769 2642 2001 
Q 2353 2234 1838 2234 
L 1294 2234 
L 1294 2753 
L 1863 2753 
Q 2328 2753 2575 2939 
Q 2822 3125 2822 3475 
Q 2822 3834 2567 4026 
Q 2313 4219 1838 4219 
Q 1578 4219 1281 4162 
Q 984 4106 628 3988 
L 628 4550 
Q 988 4650 1302 4700 
Q 1616 4750 1894 4750 
Q 2613 4750 3031 4423 
Q 3450 4097 3450 3541 
Q 3450 3153 3228 2886 
Q 3006 2619 2597 2516 
z
" transform="scale(0.015625)"/>
       </defs>
       <use xlink:href="#DejaVuSans-33"/>
      </g>
     </g>
    </g>
    <g id="xtick_5">
     <g id="line2d_5">
      <g>
       <use xlink:href="#m8f7959e9f1" x="546.360369" y="284.4" style="stroke: #000000; stroke-width: 0.8"/>
      </g>
     </g>
     <g id="text_5">
      <!-- 4 -->
      <g transform="translate(543.179119 298.998438) scale(0.1 -0.1)">
       <defs>
        <path id="DejaVuSans-34" d="M 2419 4116 
L 825 1625 
L 2419 1625 
L 2419 4116 
z
M 2253 4666 
L 3047 4666 
L 3047 1625 
L 3713 1625 
L 3713 1100 
L 3047 1100 
L 3047 0 
L 2419 0 
L 2419 1100 
L 313 1100 
L 313 1709 
L 2253 4666 
z
" transform="scale(0.015625)"/>
       </defs>
       <use xlink:href="#DejaVuSans-34"/>
      </g>
     </g>
    </g>
    <g id="xtick_6">
     <g id="line2d_6">
      <g>
       <use xlink:href="#m8f7959e9f1" x="668.105824" y="284.4" style="stroke: #000000; stroke-width: 0.8"/>
      </g>
     </g>
     <g id="text_6">
      <!-- 5 -->
      <g transform="translate(664.924574 298.998438) scale(0.1 -0.1)">
       <defs>
        <path id="DejaVuSans-35" d="M 691 4666 
L 3169 4666 
L 3169 4134 
L 1269 4134 
L 1269 2991 
Q 1406 3038 1543 3061 
Q 1681 3084 1819 3084 
Q 2600 3084 3056 2656 
Q 3513 2228 3513 1497 
Q 3513 744 3044 326 
Q 2575 -91 1722 -91 
Q 1428 -91 1123 -41 
Q 819 9 494 109 
L 494 744 
Q 775 591 1075 516 
Q 1375 441 1709 441 
Q 2250 441 2565 725 
Q 2881 1009 2881 1497 
Q 2881 1984 2565 2268 
Q 2250 2553 1709 2553 
Q 1456 2553 1204 2497 
Q 953 2441 691 2322 
L 691 4666 
z
" transform="scale(0.015625)"/>
       </defs>
       <use xlink:href="#DejaVuSans-35"/>
      </g>
     </g>
    </g>
   </g>
   <g id="matplotlib.axis_2">
    <g id="ytick_1">
     <g id="line2d_7">
      <defs>
       <path id="m1a98140c76" d="M 0 0 
L -3.5 0 
" style="stroke: #000000; stroke-width: 0.8"/>
      </defs>
      <g>
       <use xlink:href="#m1a98140c76" x="28.942188" y="257.643131" style="stroke: #000000; stroke-width: 0.8"/>
      </g>
     </g>
     <g id="text_7">
      <!-- −2 -->
      <g transform="translate(7.2 261.442349) scale(0.1 -0.1)">
       <defs>
        <path id="DejaVuSans-2212" d="M 678 2272 
L 4684 2272 
L 4684 1741 
L 678 1741 
L 678 2272 
z
" transform="scale(0.015625)"/>
       </defs>
       <use xlink:href="#DejaVuSans-2212"/>
       <use xlink:href="#DejaVuSans-32" x="83.789062"/>
      </g>
     </g>
    </g>
    <g id="ytick_2">
     <g id="line2d_8">
      <g>
       <use xlink:href="#m1a98140c76" x="28.942188" y="200.598432" style="stroke: #000000; stroke-width: 0.8"/>
      </g>
     </g>
     <g id="text_8">
      <!-- −1 -->
      <g transform="translate(7.2 204.397651) scale(0.1 -0.1)">
       <use xlink:href="#DejaVuSans-2212"/>
       <use xlink:href="#DejaVuSans-31" x="83.789062"/>
      </g>
     </g>
    </g>
    <g id="ytick_3">
     <g id="line2d_9">
      <g>
       <use xlink:href="#m1a98140c76" x="28.942188" y="143.553733" style="stroke: #000000; stroke-width: 0.8"/>
      </g>
     </g>
     <g id="text_9">
      <!-- 0 -->
      <g transform="translate(15.579688 147.352952) scale(0.1 -0.1)">
       <use xlink:href="#DejaVuSans-30"/>
      </g>
     </g>
    </g>
    <g id="ytick_4">
     <g id="line2d_10">
      <g>
       <use xlink:href="#m1a98140c76" x="28.942188" y="86.509035" style="stroke: #000000; stroke-width: 0.8"/>
      </g>
     </g>
     <g id="text_10">
      <!-- 1 -->
      <g transform="translate(15.579688 90.308254) scale(0.1 -0.1)">
       <use xlink:href="#DejaVuSans-31"/>
      </g>
     </g>
    </g>
    <g id="ytick_5">
     <g id="line2d_11">
      <g>
       <use xlink:href="#m1a98140c76" x="28.942188" y="29.464336" style="stroke: #000000; stroke-width: 0.8"/>
      </g>
     </g>
     <g id="text_11">
      <!-- 2 -->
      <g transform="translate(15.579688 33.263555) scale(0.1 -0.1)">
       <use xlink:href="#DejaVuSans-32"/>
      </g>
     </g>
    </g>
   </g>
   <g id="line2d_12">
    <path d="M 59.378551 175.41898 
L 71.801557 183.8782 
L 84.224562 191.900296 
L 96.647568 199.206453 
L 109.070573 205.542429 
L 121.493579 210.693393 
L 133.916585 214.493324 
L 146.33959 216.8293 
L 158.762596 217.642024 
L 171.185601 216.92423 
L 183.608607 214.718325 
L 196.031612 211.114149 
L 208.454618 206.246947 
L 220.877623 200.294779 
L 233.300629 193.474483 
L 245.723635 186.034984 
L 258.14664 178.247399 
L 270.569646 170.392025 
L 282.992651 162.743226 
L 295.415657 155.55381 
L 307.838662 149.041034 
L 320.261668 143.376043 
L 332.684674 138.678292 
L 345.107679 135.01519 
L 357.530685 132.406494 
L 369.95369 130.831753 
L 382.376696 130.238783 
L 394.799701 130.550906 
L 407.222707 131.671261 
L 419.645713 133.483462 
L 432.068718 135.848814 
L 444.491724 138.601708 
L 456.914729 141.545207 
L 469.337735 144.449396 
L 481.76074 147.054492 
L 494.183746 149.080107 
L 506.606752 150.240733 
L 519.029757 150.266212 
L 531.452763 148.924983 
L 543.875768 146.046934 
L 556.298774 141.542629 
L 568.721779 135.415952 
L 581.144785 127.767878 
L 593.56779 118.790633 
L 605.990796 108.752568 
L 618.413802 97.9756 
L 630.836807 86.808101 
L 643.259813 75.596762 
L 655.682818 64.661182 
L 668.105824 54.274215 
" clip-path="url(#p089da5bed5)" style="fill: none; stroke: #1f77b4; stroke-opacity: 0.5; stroke-width: 1.5; stroke-linecap: square"/>
   </g>
   <g id="line2d_13">
    <path d="M 59.378551 138.403406 
L 71.801557 146.400437 
L 84.224562 154.969449 
L 96.647568 164.044842 
L 109.070573 173.565657 
L 121.493579 183.462391 
L 133.916585 193.643746 
L 146.33959 203.986399 
L 158.762596 214.329996 
L 171.185601 224.4784 
L 183.608607 234.206898 
L 196.031612 243.274093 
L 208.454618 251.43661 
L 220.877623 258.464383 
L 233.300629 264.154681 
L 245.723635 268.343537 
L 258.14664 270.91382 
L 270.569646 271.8 
L 282.992651 270.989929 
L 295.415657 268.52438 
L 307.838662 264.495055 
L 320.261668 259.041504 
L 332.684674 252.347371 
L 345.107679 244.635822 
L 357.530685 236.163898 
L 369.95369 227.215343 
L 382.376696 218.091469 
L 394.799701 209.099717 
L 407.222707 200.540117 
L 419.645713 192.690001 
L 432.068718 185.788129 
L 444.491724 180.019583 
L 456.914729 175.503258 
L 469.337735 172.28364 
L 481.76074 170.328317 
L 494.183746 169.532158 
L 506.606752 169.72808 
L 519.029757 170.703585 
L 531.452763 172.221338 
L 543.875768 174.041387 
L 556.298774 175.942392 
L 568.721779 177.739387 
L 581.144785 179.295987 
L 593.56779 180.529733 
L 605.990796 181.410327 
L 618.413802 181.951273 
L 630.836807 182.19635 
L 643.259813 182.202973 
L 655.682818 182.024836 
L 668.105824 181.696292 
" clip-path="url(#p089da5bed5)" style="fill: none; stroke: #ff7f0e; stroke-opacity: 0.5; stroke-width: 1.5; stroke-linecap: square"/>
   </g>
   <g id="line2d_14">
    <path d="M 59.378551 144.827906 
L 71.801557 147.475751 
L 84.224562 150.167385 
L 96.647568 153.045955 
L 109.070573 156.265558 
L 121.493579 159.971162 
L 133.916585 164.278644 
L 146.33959 169.257752 
L 158.762596 174.920685 
L 171.185601 181.217701 
L 183.608607 188.040012 
L 196.031612 195.22908 
L 208.454618 202.590489 
L 220.877623 209.910014 
L 233.300629 216.969727 
L 245.723635 223.562131 
L 258.14664 229.501169 
L 270.569646 234.629707 
L 282.992651 238.82335 
L 295.415657 241.991454 
L 307.838662 244.07595 
L 320.261668 245.048777 
L 332.684674 244.908837 
L 345.107679 243.678848 
L 357.530685 241.402675 
L 369.95369 238.143323 
L 382.376696 233.981736 
L 394.799701 229.016362 
L 407.222707 223.363204 
L 419.645713 217.155915 
L 432.068718 210.545333 
L 444.491724 203.697601 
L 456.914729 196.790232 
L 469.337735 190.005588 
L 481.76074 183.521543 
L 494.183746 177.499913 
L 506.606752 172.073517 
L 519.029757 167.333709 
L 531.452763 163.320169 
L 543.875768 160.015215 
L 556.298774 157.344292 
L 568.721779 155.1838 
L 581.144785 153.376313 
L 593.56779 151.752107 
L 605.990796 150.154745 
L 618.413802 148.467591 
L 630.836807 146.637573 
L 643.259813 144.692445 
L 655.682818 142.748678 
L 668.105824 141.007895 
" clip-path="url(#p089da5bed5)" style="fill: none; stroke: #2ca02c; stroke-opacity: 0.5; stroke-width: 1.5; stroke-linecap: square"/>
   </g>
   <g id="line2d_15">
    <path d="M 59.378551 228.320908 
L 71.801557 221.045296 
L 84.224562 212.378735 
L 96.647568 202.618967 
L 109.070573 192.108967 
L 121.493579 181.218894 
L 133.916585 170.327815 
L 146.33959 159.805578 
L 158.762596 149.994706 
L 171.185601 141.192691 
L 183.608607 133.634823 
L 196.031612 127.47858 
L 208.454618 122.790891 
L 220.877623 119.540065 
L 233.300629 117.594483 
L 245.723635 116.729384 
L 258.14664 116.643043 
L 270.569646 116.98191 
L 282.992651 117.373252 
L 295.415657 117.462394 
L 307.838662 116.950519 
L 320.261668 115.628529 
L 332.684674 113.402336 
L 345.107679 110.306009 
L 357.530685 106.500591 
L 369.95369 102.258307 
L 382.376696 97.933803 
L 394.799701 93.9261 
L 407.222707 90.635822 
L 419.645713 88.422964 
L 432.068718 87.570245 
L 444.491724 88.255947 
L 456.914729 90.53878 
L 469.337735 94.355634 
L 481.76074 99.531494 
L 494.183746 105.799322 
L 506.606752 112.826982 
L 519.029757 120.24772 
L 531.452763 127.690999 
L 543.875768 134.810729 
L 556.298774 141.30879 
L 568.721779 146.952582 
L 581.144785 151.586035 
L 593.56779 155.134328 
L 605.990796 157.602881 
L 618.413802 159.07156 
L 630.836807 159.685104 
L 643.259813 159.640649 
L 655.682818 159.173146 
L 668.105824 158.539548 
" clip-path="url(#p089da5bed5)" style="fill: none; stroke: #d62728; stroke-opacity: 0.5; stroke-width: 1.5; stroke-linecap: square"/>
   </g>
   <g id="line2d_16">
    <path d="M 59.378551 224.755526 
L 71.801557 214.079279 
L 84.224562 203.146589 
L 96.647568 192.203843 
L 109.070573 181.460509 
L 121.493579 171.07757 
L 133.916585 161.163124 
L 146.33959 151.775579 
L 158.762596 142.933325 
L 171.185601 134.628855 
L 183.608607 126.844696 
L 196.031612 119.567868 
L 208.454618 112.800561 
L 220.877623 106.564879 
L 233.300629 100.900939 
L 245.723635 95.858994 
L 258.14664 91.486784 
L 270.569646 87.814737 
L 282.992651 84.841524 
L 295.415657 82.522546 
L 307.838662 80.763443 
L 320.261668 79.419845 
L 332.684674 78.303897 
L 345.107679 77.197008 
L 357.530685 75.867738 
L 369.95369 74.093075 
L 382.376696 71.681024 
L 394.799701 68.492365 
L 407.222707 64.45922 
L 419.645713 59.598701 
L 432.068718 54.019969 
L 444.491724 47.923783 
L 456.914729 41.594212 
L 469.337735 35.382998 
L 481.76074 29.687777 
L 494.183746 24.925852 
L 506.606752 21.505905 
L 519.029757 19.8 
L 531.452763 20.118174 
L 543.875768 22.687741 
L 556.298774 27.638705 
L 568.721779 34.996057 
L 581.144785 44.679326 
L 593.56779 56.508714 
L 605.990796 70.217319 
L 618.413802 85.468007 
L 630.836807 101.873898 
L 643.259813 119.021024 
L 655.682818 136.491699 
L 668.105824 153.887227 
" clip-path="url(#p089da5bed5)" style="fill: none; stroke: #9467bd; stroke-opacity: 0.5; stroke-width: 1.5; stroke-linecap: square"/>
   </g>
   <g id="patch_3">
    <path d="M 28.942188 284.4 
L 28.942188 7.2 
" style="fill: none; stroke: #000000; stroke-width: 0.8; stroke-linejoin: miter; stroke-linecap: square"/>
   </g>
   <g id="patch_4">
    <path d="M 698.542188 284.4 
L 698.542188 7.2 
" style="fill: none; stroke: #000000; stroke-width: 0.8; stroke-linejoin: miter; stroke-linecap: square"/>
   </g>
   <g id="patch_5">
    <path d="M 28.942188 284.4 
L 698.542188 284.4 
" style="fill: none; stroke: #000000; stroke-width: 0.8; stroke-linejoin: miter; stroke-linecap: square"/>
   </g>
   <g id="patch_6">
    <path d="M 28.942188 7.2 
L 698.542188 7.2 
" style="fill: none; stroke: #000000; stroke-width: 0.8; stroke-linejoin: miter; stroke-linecap: square"/>
   </g>
  </g>
 </g>
 <defs>
  <clipPath id="p089da5bed5">
   <rect x="28.942188" y="7.2" width="669.6" height="277.2"/>
  </clipPath>
 </defs>
</svg>
