<?xml version="1.0" encoding="utf-8" standalone="no"?>
<!DOCTYPE svg PUBLIC "-//W3C//DTD SVG 1.1//EN"
  "http://www.w3.org/Graphics/SVG/1.1/DTD/svg11.dtd">
<svg xmlns:xlink="http://www.w3.org/1999/xlink" width="745.001562pt" height="331.634375pt" viewBox="0 0 745.001562 331.634375" xmlns="http://www.w3.org/2000/svg" version="1.1">
 <metadata>
  <rdf:RDF xmlns:dc="http://purl.org/dc/elements/1.1/" xmlns:cc="http://creativecommons.org/ns#" xmlns:rdf="http://www.w3.org/1999/02/22-rdf-syntax-ns#">
   <cc:Work>
    <dc:type rdf:resource="http://purl.org/dc/dcmitype/StillImage"/>
    <dc:date>2025-07-08T14:29:58.149436</dc:date>
    <dc:format>image/svg+xml</dc:format>
    <dc:creator>
     <cc:Agent>
      <dc:title>Matplotlib v3.7.2, https://matplotlib.org/</dc:title>
     </cc:Agent>
    </dc:creator>
   </cc:Work>
  </rdf:RDF>
 </metadata>
 <defs>
  <style type="text/css">*{stroke-linejoin: round; stroke-linecap: butt}</style>
 </defs>
 <g id="figure_1">
  <g id="patch_1">
   <path d="M 0 331.634375 
L 745.001562 331.634375 
L 745.001562 0 
L 0 0 
z
" style="fill: #ffffff"/>
  </g>
  <g id="axes_1">
   <g id="patch_2">
    <path d="M 68.201563 284.4 
L 737.801563 284.4 
L 737.801563 7.2 
L 68.201563 7.2 
z
" style="fill: #ffffff"/>
   </g>
   <g id="PolyCollection_1">
    <path d="M 98.637926 19.8 
L 98.637926 271.8 
L 111.060932 266.858985 
L 123.483937 261.926737 
L 135.906943 257.004424 
L 148.329948 252.093424 
L 160.752954 247.195382 
L 173.17596 242.312271 
L 185.598965 237.446478 
L 198.021971 232.600914 
L 210.444976 227.779168 
L 222.867982 222.985702 
L 235.290987 218.226133 
L 247.713993 213.507609 
L 260.136998 208.839346 
L 272.560004 204.233394 
L 284.98301 199.705726 
L 297.406015 195.277839 
L 309.829021 190.979079 
L 322.252026 186.850033 
L 334.675032 182.947337 
L 347.098037 179.350075 
L 359.521043 176.166986 
L 371.944049 173.541009 
L 384.367054 171.642537 
L 396.79006 170.638947 
L 409.213065 170.638947 
L 421.636071 171.642537 
L 434.059076 173.541009 
L 446.482082 176.166986 
L 458.905088 179.350075 
L 471.328093 182.947337 
L 483.751099 186.850033 
L 496.174104 190.979079 
L 508.59711 195.277839 
L 521.020115 199.705726 
L 533.443121 204.233394 
L 545.866127 208.839346 
L 558.289132 213.507609 
L 570.712138 218.226133 
L 583.135143 222.985702 
L 595.558149 227.779168 
L 607.981154 232.600914 
L 620.40416 237.446478 
L 632.827165 242.312271 
L 645.250171 247.195382 
L 657.673177 252.093424 
L 670.096182 257.004424 
L 682.519188 261.926737 
L 694.942193 266.858985 
L 707.365199 271.8 
L 707.365199 19.8 
L 707.365199 19.8 
L 694.942193 24.741015 
L 682.519188 29.673263 
L 670.096182 34.595576 
L 657.673177 39.506576 
L 645.250171 44.404618 
L 632.827165 49.287729 
L 620.40416 54.153522 
L 607.981154 58.999086 
L 595.558149 63.820832 
L 583.135143 68.614298 
L 570.712138 73.373867 
L 558.289132 78.092391 
L 545.866127 82.760654 
L 533.443121 87.366606 
L 521.020115 91.894274 
L 508.59711 96.322161 
L 496.174104 100.620921 
L 483.751099 104.749967 
L 471.328093 108.652663 
L 458.905088 112.249925 
L 446.482082 115.433014 
L 434.059076 118.058991 
L 421.636071 119.957463 
L 409.213065 120.961053 
L 396.79006 120.961053 
L 384.367054 119.957463 
L 371.944049 118.058991 
L 359.521043 115.433014 
L 347.098037 112.249925 
L 334.675032 108.652663 
L 322.252026 104.749967 
L 309.829021 100.620921 
L 297.406015 96.322161 
L 284.98301 91.894274 
L 272.560004 87.366606 
L 260.136998 82.760654 
L 247.713993 78.092391 
L 235.290987 73.373867 
L 222.867982 68.614298 
L 210.444976 63.820832 
L 198.021971 58.999086 
L 185.598965 54.153522 
L 173.17596 49.287729 
L 160.752954 44.404618 
L 148.329948 39.506576 
L 135.906943 34.595576 
L 123.483937 29.673263 
L 111.060932 24.741015 
L 98.637926 19.8 
z
" clip-path="url(#pa47fdd08b4)" style="fill: #1f77b4; fill-opacity: 0.25"/>
   </g>
   <g id="matplotlib.axis_1">
    <g id="xtick_1">
     <g id="line2d_1">
      <defs>
       <path id="mb3cafa2894" d="M 0 0 
L 0 3.5 
" style="stroke: #000000; stroke-width: 0.8"/>
      </defs>
      <g>
       <use xlink:href="#mb3cafa2894" x="159.510653" y="284.4" style="stroke: #000000; stroke-width: 0.8"/>
      </g>
     </g>
     <g id="text_1">
      <!-- −4 -->
      <g transform="translate(152.13956 298.998437) scale(0.1 -0.1)">
       <defs>
        <path id="DejaVuSans-2212" d="M 678 2272 
L 4684 2272 
L 4684 1741 
L 678 1741 
L 678 2272 
z
" transform="scale(0.015625)"/>
        <path id="DejaVuSans-34" d="M 2419 4116 
L 825 1625 
L 2419 1625 
L 2419 4116 
z
M 2253 4666 
L 3047 4666 
L 3047 1625 
L 3713 1625 
L 3713 1100 
L 3047 1100 
L 3047 0 
L 2419 0 
L 2419 1100 
L 313 1100 
L 313 1709 
L 2253 4666 
z
" transform="scale(0.015625)"/>
       </defs>
       <use xlink:href="#DejaVuSans-2212"/>
       <use xlink:href="#DejaVuSans-34" x="83.789062"/>
      </g>
     </g>
    </g>
    <g id="xtick_2">
     <g id="line2d_2">
      <g>
       <use xlink:href="#mb3cafa2894" x="281.256108" y="284.4" style="stroke: #000000; stroke-width: 0.8"/>
      </g>
     </g>
     <g id="text_2">
      <!-- −2 -->
      <g transform="translate(273.885014 298.998437) scale(0.1 -0.1)">
       <defs>
        <path id="DejaVuSans-32" d="M 1228 531 
L 3431 531 
L 3431 0 
L 469 0 
L 469 531 
Q 828 903 1448 1529 
Q 2069 2156 2228 2338 
Q 2531 2678 2651 2914 
Q 2772 3150 2772 3378 
Q 2772 3750 2511 3984 
Q 2250 4219 1831 4219 
Q 1534 4219 1204 4116 
Q 875 4013 500 3803 
L 500 4441 
Q 881 4594 1212 4672 
Q 1544 4750 1819 4750 
Q 2544 4750 2975 4387 
Q 3406 4025 3406 3419 
Q 3406 3131 3298 2873 
Q 3191 2616 2906 2266 
Q 2828 2175 2409 1742 
Q 1991 1309 1228 531 
z
" transform="scale(0.015625)"/>
       </defs>
       <use xlink:href="#DejaVuSans-2212"/>
       <use xlink:href="#DejaVuSans-32" x="83.789062"/>
      </g>
     </g>
    </g>
    <g id="xtick_3">
     <g id="line2d_3">
      <g>
       <use xlink:href="#mb3cafa2894" x="403.001563" y="284.4" style="stroke: #000000; stroke-width: 0.8"/>
      </g>
     </g>
     <g id="text_3">
      <!-- 0 -->
      <g transform="translate(399.820313 298.998437) scale(0.1 -0.1)">
       <defs>
        <path id="DejaVuSans-30" d="M 2034 4250 
Q 1547 4250 1301 3770 
Q 1056 3291 1056 2328 
Q 1056 1369 1301 889 
Q 1547 409 2034 409 
Q 2525 409 2770 889 
Q 3016 1369 3016 2328 
Q 3016 3291 2770 3770 
Q 2525 4250 2034 4250 
z
M 2034 4750 
Q 2819 4750 3233 4129 
Q 3647 3509 3647 2328 
Q 3647 1150 3233 529 
Q 2819 -91 2034 -91 
Q 1250 -91 836 529 
Q 422 1150 422 2328 
Q 422 3509 836 4129 
Q 1250 4750 2034 4750 
z
" transform="scale(0.015625)"/>
       </defs>
       <use xlink:href="#DejaVuSans-30"/>
      </g>
     </g>
    </g>
    <g id="xtick_4">
     <g id="line2d_4">
      <g>
       <use xlink:href="#mb3cafa2894" x="524.747017" y="284.4" style="stroke: #000000; stroke-width: 0.8"/>
      </g>
     </g>
     <g id="text_4">
      <!-- 2 -->
      <g transform="translate(521.565767 298.998437) scale(0.1 -0.1)">
       <use xlink:href="#DejaVuSans-32"/>
      </g>
     </g>
    </g>
    <g id="xtick_5">
     <g id="line2d_5">
      <g>
       <use xlink:href="#mb3cafa2894" x="646.492472" y="284.4" style="stroke: #000000; stroke-width: 0.8"/>
      </g>
     </g>
     <g id="text_5">
      <!-- 4 -->
      <g transform="translate(643.311222 298.998437) scale(0.1 -0.1)">
       <use xlink:href="#DejaVuSans-34"/>
      </g>
     </g>
    </g>
    <g id="text_6">
     <!-- x -->
     <g transform="translate(397.082813 320.275) scale(0.2 -0.2)">
      <defs>
       <path id="DejaVuSans-78" d="M 3513 3500 
L 2247 1797 
L 3578 0 
L 2900 0 
L 1881 1375 
L 863 0 
L 184 0 
L 1544 1831 
L 300 3500 
L 978 3500 
L 1906 2253 
L 2834 3500 
L 3513 3500 
z
" transform="scale(0.015625)"/>
      </defs>
      <use xlink:href="#DejaVuSans-78"/>
     </g>
    </g>
   </g>
   <g id="matplotlib.axis_2">
    <g id="ytick_1">
     <g id="line2d_6">
      <defs>
       <path id="m57ff0c80ed" d="M 0 0 
L -3.5 0 
" style="stroke: #000000; stroke-width: 0.8"/>
      </defs>
      <g>
       <use xlink:href="#m57ff0c80ed" x="68.201563" y="269.353165" style="stroke: #000000; stroke-width: 0.8"/>
      </g>
     </g>
     <g id="text_7">
      <!-- −10.0 -->
      <g transform="translate(30.55625 273.152384) scale(0.1 -0.1)">
       <defs>
        <path id="DejaVuSans-31" d="M 794 531 
L 1825 531 
L 1825 4091 
L 703 3866 
L 703 4441 
L 1819 4666 
L 2450 4666 
L 2450 531 
L 3481 531 
L 3481 0 
L 794 0 
L 794 531 
z
" transform="scale(0.015625)"/>
        <path id="DejaVuSans-2e" d="M 684 794 
L 1344 794 
L 1344 0 
L 684 0 
L 684 794 
z
" transform="scale(0.015625)"/>
       </defs>
       <use xlink:href="#DejaVuSans-2212"/>
       <use xlink:href="#DejaVuSans-31" x="83.789062"/>
       <use xlink:href="#DejaVuSans-30" x="147.412109"/>
       <use xlink:href="#DejaVuSans-2e" x="211.035156"/>
       <use xlink:href="#DejaVuSans-30" x="242.822266"/>
      </g>
     </g>
    </g>
    <g id="ytick_2">
     <g id="line2d_7">
      <g>
       <use xlink:href="#m57ff0c80ed" x="68.201563" y="238.464874" style="stroke: #000000; stroke-width: 0.8"/>
      </g>
     </g>
     <g id="text_8">
      <!-- −7.5 -->
      <g transform="translate(36.91875 242.264093) scale(0.1 -0.1)">
       <defs>
        <path id="DejaVuSans-37" d="M 525 4666 
L 3525 4666 
L 3525 4397 
L 1831 0 
L 1172 0 
L 2766 4134 
L 525 4134 
L 525 4666 
z
" transform="scale(0.015625)"/>
        <path id="DejaVuSans-35" d="M 691 4666 
L 3169 4666 
L 3169 4134 
L 1269 4134 
L 1269 2991 
Q 1406 3038 1543 3061 
Q 1681 3084 1819 3084 
Q 2600 3084 3056 2656 
Q 3513 2228 3513 1497 
Q 3513 744 3044 326 
Q 2575 -91 1722 -91 
Q 1428 -91 1123 -41 
Q 819 9 494 109 
L 494 744 
Q 775 591 1075 516 
Q 1375 441 1709 441 
Q 2250 441 2565 725 
Q 2881 1009 2881 1497 
Q 2881 1984 2565 2268 
Q 2250 2553 1709 2553 
Q 1456 2553 1204 2497 
Q 953 2441 691 2322 
L 691 4666 
z
" transform="scale(0.015625)"/>
       </defs>
       <use xlink:href="#DejaVuSans-2212"/>
       <use xlink:href="#DejaVuSans-37" x="83.789062"/>
       <use xlink:href="#DejaVuSans-2e" x="147.412109"/>
       <use xlink:href="#DejaVuSans-35" x="179.199219"/>
      </g>
     </g>
    </g>
    <g id="ytick_3">
     <g id="line2d_8">
      <g>
       <use xlink:href="#m57ff0c80ed" x="68.201563" y="207.576583" style="stroke: #000000; stroke-width: 0.8"/>
      </g>
     </g>
     <g id="text_9">
      <!-- −5.0 -->
      <g transform="translate(36.91875 211.375801) scale(0.1 -0.1)">
       <use xlink:href="#DejaVuSans-2212"/>
       <use xlink:href="#DejaVuSans-35" x="83.789062"/>
       <use xlink:href="#DejaVuSans-2e" x="147.412109"/>
       <use xlink:href="#DejaVuSans-30" x="179.199219"/>
      </g>
     </g>
    </g>
    <g id="ytick_4">
     <g id="line2d_9">
      <g>
       <use xlink:href="#m57ff0c80ed" x="68.201563" y="176.688291" style="stroke: #000000; stroke-width: 0.8"/>
      </g>
     </g>
     <g id="text_10">
      <!-- −2.5 -->
      <g transform="translate(36.91875 180.48751) scale(0.1 -0.1)">
       <use xlink:href="#DejaVuSans-2212"/>
       <use xlink:href="#DejaVuSans-32" x="83.789062"/>
       <use xlink:href="#DejaVuSans-2e" x="147.412109"/>
       <use xlink:href="#DejaVuSans-35" x="179.199219"/>
      </g>
     </g>
    </g>
    <g id="ytick_5">
     <g id="line2d_10">
      <g>
       <use xlink:href="#m57ff0c80ed" x="68.201563" y="145.8" style="stroke: #000000; stroke-width: 0.8"/>
      </g>
     </g>
     <g id="text_11">
      <!-- 0.0 -->
      <g transform="translate(45.298438 149.599219) scale(0.1 -0.1)">
       <use xlink:href="#DejaVuSans-30"/>
       <use xlink:href="#DejaVuSans-2e" x="63.623047"/>
       <use xlink:href="#DejaVuSans-30" x="95.410156"/>
      </g>
     </g>
    </g>
    <g id="ytick_6">
     <g id="line2d_11">
      <g>
       <use xlink:href="#m57ff0c80ed" x="68.201563" y="114.911709" style="stroke: #000000; stroke-width: 0.8"/>
      </g>
     </g>
     <g id="text_12">
      <!-- 2.5 -->
      <g transform="translate(45.298438 118.710927) scale(0.1 -0.1)">
       <use xlink:href="#DejaVuSans-32"/>
       <use xlink:href="#DejaVuSans-2e" x="63.623047"/>
       <use xlink:href="#DejaVuSans-35" x="95.410156"/>
      </g>
     </g>
    </g>
    <g id="ytick_7">
     <g id="line2d_12">
      <g>
       <use xlink:href="#m57ff0c80ed" x="68.201563" y="84.023417" style="stroke: #000000; stroke-width: 0.8"/>
      </g>
     </g>
     <g id="text_13">
      <!-- 5.0 -->
      <g transform="translate(45.298438 87.822636) scale(0.1 -0.1)">
       <use xlink:href="#DejaVuSans-35"/>
       <use xlink:href="#DejaVuSans-2e" x="63.623047"/>
       <use xlink:href="#DejaVuSans-30" x="95.410156"/>
      </g>
     </g>
    </g>
    <g id="ytick_8">
     <g id="line2d_13">
      <g>
       <use xlink:href="#m57ff0c80ed" x="68.201563" y="53.135126" style="stroke: #000000; stroke-width: 0.8"/>
      </g>
     </g>
     <g id="text_14">
      <!-- 7.5 -->
      <g transform="translate(45.298438 56.934345) scale(0.1 -0.1)">
       <use xlink:href="#DejaVuSans-37"/>
       <use xlink:href="#DejaVuSans-2e" x="63.623047"/>
       <use xlink:href="#DejaVuSans-35" x="95.410156"/>
      </g>
     </g>
    </g>
    <g id="ytick_9">
     <g id="line2d_14">
      <g>
       <use xlink:href="#m57ff0c80ed" x="68.201563" y="22.246835" style="stroke: #000000; stroke-width: 0.8"/>
      </g>
     </g>
     <g id="text_15">
      <!-- 10.0 -->
      <g transform="translate(38.935938 26.046054) scale(0.1 -0.1)">
       <use xlink:href="#DejaVuSans-31"/>
       <use xlink:href="#DejaVuSans-30" x="63.623047"/>
       <use xlink:href="#DejaVuSans-2e" x="127.246094"/>
       <use xlink:href="#DejaVuSans-30" x="159.033203"/>
      </g>
     </g>
    </g>
    <g id="text_16">
     <!-- f(x) -->
     <g transform="translate(22.396875 163.042187) rotate(-90) scale(0.2 -0.2)">
      <defs>
       <path id="DejaVuSans-66" d="M 2375 4863 
L 2375 4384 
L 1825 4384 
Q 1516 4384 1395 4259 
Q 1275 4134 1275 3809 
L 1275 3500 
L 2222 3500 
L 2222 3053 
L 1275 3053 
L 1275 0 
L 697 0 
L 697 3053 
L 147 3053 
L 147 3500 
L 697 3500 
L 697 3744 
Q 697 4328 969 4595 
Q 1241 4863 1831 4863 
L 2375 4863 
z
" transform="scale(0.015625)"/>
       <path id="DejaVuSans-28" d="M 1984 4856 
Q 1566 4138 1362 3434 
Q 1159 2731 1159 2009 
Q 1159 1288 1364 580 
Q 1569 -128 1984 -844 
L 1484 -844 
Q 1016 -109 783 600 
Q 550 1309 550 2009 
Q 550 2706 781 3412 
Q 1013 4119 1484 4856 
L 1984 4856 
z
" transform="scale(0.015625)"/>
       <path id="DejaVuSans-29" d="M 513 4856 
L 1013 4856 
Q 1481 4119 1714 3412 
Q 1947 2706 1947 2009 
Q 1947 1309 1714 600 
Q 1481 -109 1013 -844 
L 513 -844 
Q 928 -128 1133 580 
Q 1338 1288 1338 2009 
Q 1338 2731 1133 3434 
Q 928 4138 513 4856 
z
" transform="scale(0.015625)"/>
      </defs>
      <use xlink:href="#DejaVuSans-66"/>
      <use xlink:href="#DejaVuSans-28" x="35.205078"/>
      <use xlink:href="#DejaVuSans-78" x="74.21875"/>
      <use xlink:href="#DejaVuSans-29" x="133.398438"/>
     </g>
    </g>
   </g>
   <g id="line2d_15">
    <path d="M 98.637926 145.8 
L 111.060932 145.8 
L 123.483937 145.8 
L 135.906943 145.8 
L 148.329948 145.8 
L 160.752954 145.8 
L 173.17596 145.8 
L 185.598965 145.8 
L 198.021971 145.8 
L 210.444976 145.8 
L 222.867982 145.8 
L 235.290987 145.8 
L 247.713993 145.8 
L 260.136998 145.8 
L 272.560004 145.8 
L 284.98301 145.8 
L 297.406015 145.8 
L 309.829021 145.8 
L 322.252026 145.8 
L 334.675032 145.8 
L 347.098037 145.8 
L 359.521043 145.8 
L 371.944049 145.8 
L 384.367054 145.8 
L 396.79006 145.8 
L 409.213065 145.8 
L 421.636071 145.8 
L 434.059076 145.8 
L 446.482082 145.8 
L 458.905088 145.8 
L 471.328093 145.8 
L 483.751099 145.8 
L 496.174104 145.8 
L 508.59711 145.8 
L 521.020115 145.8 
L 533.443121 145.8 
L 545.866127 145.8 
L 558.289132 145.8 
L 570.712138 145.8 
L 583.135143 145.8 
L 595.558149 145.8 
L 607.981154 145.8 
L 620.40416 145.8 
L 632.827165 145.8 
L 645.250171 145.8 
L 657.673177 145.8 
L 670.096182 145.8 
L 682.519188 145.8 
L 694.942193 145.8 
L 707.365199 145.8 
" clip-path="url(#pa47fdd08b4)" style="fill: none; stroke: #000000; stroke-width: 4; stroke-linecap: square"/>
   </g>
   <g id="line2d_16">
    <path d="M 98.637926 93.384481 
L 111.060932 95.035002 
L 123.483937 96.685523 
L 135.906943 98.336043 
L 148.329948 99.986564 
L 160.752954 101.637085 
L 173.17596 103.287605 
L 185.598965 104.938126 
L 198.021971 106.588647 
L 210.444976 108.239167 
L 222.867982 109.889688 
L 235.290987 111.540209 
L 247.713993 113.190729 
L 260.136998 114.84125 
L 272.560004 116.491771 
L 284.98301 118.142291 
L 297.406015 119.792812 
L 309.829021 121.443333 
L 322.252026 123.093853 
L 334.675032 124.744374 
L 347.098037 126.394894 
L 359.521043 128.045415 
L 371.944049 129.695936 
L 384.367054 131.346456 
L 396.79006 132.996977 
L 409.213065 134.647498 
L 421.636071 136.298018 
L 434.059076 137.948539 
L 446.482082 139.59906 
L 458.905088 141.24958 
L 471.328093 142.900101 
L 483.751099 144.550622 
L 496.174104 146.201142 
L 508.59711 147.851663 
L 521.020115 149.502184 
L 533.443121 151.152704 
L 545.866127 152.803225 
L 558.289132 154.453746 
L 570.712138 156.104266 
L 583.135143 157.754787 
L 595.558149 159.405307 
L 607.981154 161.055828 
L 620.40416 162.706349 
L 632.827165 164.356869 
L 645.250171 166.00739 
L 657.673177 167.657911 
L 670.096182 169.308431 
L 682.519188 170.958952 
L 694.942193 172.609473 
L 707.365199 174.259993 
" clip-path="url(#pa47fdd08b4)" style="fill: none; stroke: #1f77b4; stroke-width: 1.5; stroke-linecap: square"/>
   </g>
   <g id="line2d_17">
    <path d="M 98.637926 176.92929 
L 111.060932 175.64872 
L 123.483937 174.368151 
L 135.906943 173.087582 
L 148.329948 171.807012 
L 160.752954 170.526443 
L 173.17596 169.245874 
L 185.598965 167.965304 
L 198.021971 166.684735 
L 210.444976 165.404166 
L 222.867982 164.123597 
L 235.290987 162.843027 
L 247.713993 161.562458 
L 260.136998 160.281889 
L 272.560004 159.001319 
L 284.98301 157.72075 
L 297.406015 156.440181 
L 309.829021 155.159611 
L 322.252026 153.879042 
L 334.675032 152.598473 
L 347.098037 151.317903 
L 359.521043 150.037334 
L 371.944049 148.756765 
L 384.367054 147.476196 
L 396.79006 146.195626 
L 409.213065 144.915057 
L 421.636071 143.634488 
L 434.059076 142.353918 
L 446.482082 141.073349 
L 458.905088 139.79278 
L 471.328093 138.51221 
L 483.751099 137.231641 
L 496.174104 135.951072 
L 508.59711 134.670502 
L 521.020115 133.389933 
L 533.443121 132.109364 
L 545.866127 130.828795 
L 558.289132 129.548225 
L 570.712138 128.267656 
L 583.135143 126.987087 
L 595.558149 125.706517 
L 607.981154 124.425948 
L 620.40416 123.145379 
L 632.827165 121.864809 
L 645.250171 120.58424 
L 657.673177 119.303671 
L 670.096182 118.023102 
L 682.519188 116.742532 
L 694.942193 115.461963 
L 707.365199 114.181394 
" clip-path="url(#pa47fdd08b4)" style="fill: none; stroke: #ff7f0e; stroke-width: 1.5; stroke-linecap: square"/>
   </g>
   <g id="line2d_18">
    <path d="M 98.637926 229.740608 
L 111.060932 226.448567 
L 123.483937 223.156525 
L 135.906943 219.864483 
L 148.329948 216.572442 
L 160.752954 213.2804 
L 173.17596 209.988358 
L 185.598965 206.696317 
L 198.021971 203.404275 
L 210.444976 200.112233 
L 222.867982 196.820192 
L 235.290987 193.52815 
L 247.713993 190.236108 
L 260.136998 186.944067 
L 272.560004 183.652025 
L 284.98301 180.359983 
L 297.406015 177.067942 
L 309.829021 173.7759 
L 322.252026 170.483858 
L 334.675032 167.191817 
L 347.098037 163.899775 
L 359.521043 160.607733 
L 371.944049 157.315692 
L 384.367054 154.02365 
L 396.79006 150.731608 
L 409.213065 147.439567 
L 421.636071 144.147525 
L 434.059076 140.855483 
L 446.482082 137.563442 
L 458.905088 134.2714 
L 471.328093 130.979358 
L 483.751099 127.687317 
L 496.174104 124.395275 
L 508.59711 121.103233 
L 521.020115 117.811192 
L 533.443121 114.51915 
L 545.866127 111.227108 
L 558.289132 107.935067 
L 570.712138 104.643025 
L 583.135143 101.350983 
L 595.558149 98.058942 
L 607.981154 94.7669 
L 620.40416 91.474858 
L 632.827165 88.182817 
L 645.250171 84.890775 
L 657.673177 81.598734 
L 670.096182 78.306692 
L 682.519188 75.01465 
L 694.942193 71.722609 
L 707.365199 68.430567 
" clip-path="url(#pa47fdd08b4)" style="fill: none; stroke: #2ca02c; stroke-width: 1.5; stroke-linecap: square"/>
   </g>
   <g id="line2d_19">
    <path d="M 98.637926 134.747215 
L 111.060932 135.101137 
L 123.483937 135.455059 
L 135.906943 135.80898 
L 148.329948 136.162902 
L 160.752954 136.516824 
L 173.17596 136.870746 
L 185.598965 137.224668 
L 198.021971 137.578589 
L 210.444976 137.932511 
L 222.867982 138.286433 
L 235.290987 138.640355 
L 247.713993 138.994277 
L 260.136998 139.348199 
L 272.560004 139.70212 
L 284.98301 140.056042 
L 297.406015 140.409964 
L 309.829021 140.763886 
L 322.252026 141.117808 
L 334.675032 141.471729 
L 347.098037 141.825651 
L 359.521043 142.179573 
L 371.944049 142.533495 
L 384.367054 142.887417 
L 396.79006 143.241338 
L 409.213065 143.59526 
L 421.636071 143.949182 
L 434.059076 144.303104 
L 446.482082 144.657026 
L 458.905088 145.010948 
L 471.328093 145.364869 
L 483.751099 145.718791 
L 496.174104 146.072713 
L 508.59711 146.426635 
L 521.020115 146.780557 
L 533.443121 147.134478 
L 545.866127 147.4884 
L 558.289132 147.842322 
L 570.712138 148.196244 
L 583.135143 148.550166 
L 595.558149 148.904088 
L 607.981154 149.258009 
L 620.40416 149.611931 
L 632.827165 149.965853 
L 645.250171 150.319775 
L 657.673177 150.673697 
L 670.096182 151.027618 
L 682.519188 151.38154 
L 694.942193 151.735462 
L 707.365199 152.089384 
" clip-path="url(#pa47fdd08b4)" style="fill: none; stroke: #d62728; stroke-width: 1.5; stroke-linecap: square"/>
   </g>
   <g id="line2d_20">
    <path d="M 98.637926 157.622028 
L 111.060932 157.498804 
L 123.483937 157.37558 
L 135.906943 157.252357 
L 148.329948 157.129133 
L 160.752954 157.005909 
L 173.17596 156.882686 
L 185.598965 156.759462 
L 198.021971 156.636238 
L 210.444976 156.513015 
L 222.867982 156.389791 
L 235.290987 156.266567 
L 247.713993 156.143344 
L 260.136998 156.02012 
L 272.560004 155.896896 
L 284.98301 155.773673 
L 297.406015 155.650449 
L 309.829021 155.527225 
L 322.252026 155.404001 
L 334.675032 155.280778 
L 347.098037 155.157554 
L 359.521043 155.03433 
L 371.944049 154.911107 
L 384.367054 154.787883 
L 396.79006 154.664659 
L 409.213065 154.541436 
L 421.636071 154.418212 
L 434.059076 154.294988 
L 446.482082 154.171765 
L 458.905088 154.048541 
L 471.328093 153.925317 
L 483.751099 153.802094 
L 496.174104 153.67887 
L 508.59711 153.555646 
L 521.020115 153.432423 
L 533.443121 153.309199 
L 545.866127 153.185975 
L 558.289132 153.062751 
L 570.712138 152.939528 
L 583.135143 152.816304 
L 595.558149 152.69308 
L 607.981154 152.569857 
L 620.40416 152.446633 
L 632.827165 152.323409 
L 645.250171 152.200186 
L 657.673177 152.076962 
L 670.096182 151.953738 
L 682.519188 151.830515 
L 694.942193 151.707291 
L 707.365199 151.584067 
" clip-path="url(#pa47fdd08b4)" style="fill: none; stroke: #9467bd; stroke-width: 1.5; stroke-linecap: square"/>
   </g>
   <g id="line2d_21">
    <path d="M 98.637926 206.596166 
L 111.060932 205.289892 
L 123.483937 203.983617 
L 135.906943 202.677343 
L 148.329948 201.371069 
L 160.752954 200.064794 
L 173.17596 198.75852 
L 185.598965 197.452246 
L 198.021971 196.145971 
L 210.444976 194.839697 
L 222.867982 193.533423 
L 235.290987 192.227148 
L 247.713993 190.920874 
L 260.136998 189.6146 
L 272.560004 188.308325 
L 284.98301 187.002051 
L 297.406015 185.695777 
L 309.829021 184.389502 
L 322.252026 183.083228 
L 334.675032 181.776954 
L 347.098037 180.470679 
L 359.521043 179.164405 
L 371.944049 177.858131 
L 384.367054 176.551856 
L 396.79006 175.245582 
L 409.213065 173.939308 
L 421.636071 172.633034 
L 434.059076 171.326759 
L 446.482082 170.020485 
L 458.905088 168.714211 
L 471.328093 167.407936 
L 483.751099 166.101662 
L 496.174104 164.795388 
L 508.59711 163.489113 
L 521.020115 162.182839 
L 533.443121 160.876565 
L 545.866127 159.57029 
L 558.289132 158.264016 
L 570.712138 156.957742 
L 583.135143 155.651467 
L 595.558149 154.345193 
L 607.981154 153.038919 
L 620.40416 151.732644 
L 632.827165 150.42637 
L 645.250171 149.120096 
L 657.673177 147.813821 
L 670.096182 146.507547 
L 682.519188 145.201273 
L 694.942193 143.894998 
L 707.365199 142.588724 
" clip-path="url(#pa47fdd08b4)" style="fill: none; stroke: #8c564b; stroke-width: 1.5; stroke-linecap: square"/>
   </g>
   <g id="line2d_22">
    <path d="M 98.637926 196.534057 
L 111.060932 193.558115 
L 123.483937 190.582173 
L 135.906943 187.60623 
L 148.329948 184.630288 
L 160.752954 181.654346 
L 173.17596 178.678403 
L 185.598965 175.702461 
L 198.021971 172.726519 
L 210.444976 169.750576 
L 222.867982 166.774634 
L 235.290987 163.798692 
L 247.713993 160.82275 
L 260.136998 157.846807 
L 272.560004 154.870865 
L 284.98301 151.894923 
L 297.406015 148.91898 
L 309.829021 145.943038 
L 322.252026 142.967096 
L 334.675032 139.991154 
L 347.098037 137.015211 
L 359.521043 134.039269 
L 371.944049 131.063327 
L 384.367054 128.087384 
L 396.79006 125.111442 
L 409.213065 122.1355 
L 421.636071 119.159558 
L 434.059076 116.183615 
L 446.482082 113.207673 
L 458.905088 110.231731 
L 471.328093 107.255788 
L 483.751099 104.279846 
L 496.174104 101.303904 
L 508.59711 98.327962 
L 521.020115 95.352019 
L 533.443121 92.376077 
L 545.866127 89.400135 
L 558.289132 86.424192 
L 570.712138 83.44825 
L 583.135143 80.472308 
L 595.558149 77.496366 
L 607.981154 74.520423 
L 620.40416 71.544481 
L 632.827165 68.568539 
L 645.250171 65.592596 
L 657.673177 62.616654 
L 670.096182 59.640712 
L 682.519188 56.66477 
L 694.942193 53.688827 
L 707.365199 50.712885 
" clip-path="url(#pa47fdd08b4)" style="fill: none; stroke: #e377c2; stroke-width: 1.5; stroke-linecap: square"/>
   </g>
   <g id="line2d_23">
    <path d="M 98.637926 41.809648 
L 111.060932 46.041739 
L 123.483937 50.273831 
L 135.906943 54.505922 
L 148.329948 58.738014 
L 160.752954 62.970105 
L 173.17596 67.202196 
L 185.598965 71.434288 
L 198.021971 75.666379 
L 210.444976 79.898471 
L 222.867982 84.130562 
L 235.290987 88.362654 
L 247.713993 92.594745 
L 260.136998 96.826836 
L 272.560004 101.058928 
L 284.98301 105.291019 
L 297.406015 109.523111 
L 309.829021 113.755202 
L 322.252026 117.987293 
L 334.675032 122.219385 
L 347.098037 126.451476 
L 359.521043 130.683568 
L 371.944049 134.915659 
L 384.367054 139.14775 
L 396.79006 143.379842 
L 409.213065 147.611933 
L 421.636071 151.844025 
L 434.059076 156.076116 
L 446.482082 160.308207 
L 458.905088 164.540299 
L 471.328093 168.77239 
L 483.751099 173.004482 
L 496.174104 177.236573 
L 508.59711 181.468664 
L 521.020115 185.700756 
L 533.443121 189.932847 
L 545.866127 194.164939 
L 558.289132 198.39703 
L 570.712138 202.629121 
L 583.135143 206.861213 
L 595.558149 211.093304 
L 607.981154 215.325396 
L 620.40416 219.557487 
L 632.827165 223.789578 
L 645.250171 228.02167 
L 657.673177 232.253761 
L 670.096182 236.485853 
L 682.519188 240.717944 
L 694.942193 244.950035 
L 707.365199 249.182127 
" clip-path="url(#pa47fdd08b4)" style="fill: none; stroke: #7f7f7f; stroke-width: 1.5; stroke-linecap: square"/>
   </g>
   <g id="line2d_24">
    <path d="M 98.637926 256.986379 
L 111.060932 252.466642 
L 123.483937 247.946905 
L 135.906943 243.427169 
L 148.329948 238.907432 
L 160.752954 234.387695 
L 173.17596 229.867958 
L 185.598965 225.348222 
L 198.021971 220.828485 
L 210.444976 216.308748 
L 222.867982 211.789012 
L 235.290987 207.269275 
L 247.713993 202.749538 
L 260.136998 198.229801 
L 272.560004 193.710065 
L 284.98301 189.190328 
L 297.406015 184.670591 
L 309.829021 180.150855 
L 322.252026 175.631118 
L 334.675032 171.111381 
L 347.098037 166.591644 
L 359.521043 162.071908 
L 371.944049 157.552171 
L 384.367054 153.032434 
L 396.79006 148.512698 
L 409.213065 143.992961 
L 421.636071 139.473224 
L 434.059076 134.953487 
L 446.482082 130.433751 
L 458.905088 125.914014 
L 471.328093 121.394277 
L 483.751099 116.874541 
L 496.174104 112.354804 
L 508.59711 107.835067 
L 521.020115 103.31533 
L 533.443121 98.795594 
L 545.866127 94.275857 
L 558.289132 89.75612 
L 570.712138 85.236383 
L 583.135143 80.716647 
L 595.558149 76.19691 
L 607.981154 71.677173 
L 620.40416 67.157437 
L 632.827165 62.6377 
L 645.250171 58.117963 
L 657.673177 53.598226 
L 670.096182 49.07849 
L 682.519188 44.558753 
L 694.942193 40.039016 
L 707.365199 35.51928 
" clip-path="url(#pa47fdd08b4)" style="fill: none; stroke: #bcbd22; stroke-width: 1.5; stroke-linecap: square"/>
   </g>
   <g id="line2d_25">
    <path d="M 98.637926 109.008159 
L 111.060932 110.639448 
L 123.483937 112.270737 
L 135.906943 113.902026 
L 148.329948 115.533315 
L 160.752954 117.164604 
L 173.17596 118.795893 
L 185.598965 120.427181 
L 198.021971 122.05847 
L 210.444976 123.689759 
L 222.867982 125.321048 
L 235.290987 126.952337 
L 247.713993 128.583626 
L 260.136998 130.214915 
L 272.560004 131.846204 
L 284.98301 133.477493 
L 297.406015 135.108782 
L 309.829021 136.740071 
L 322.252026 138.37136 
L 334.675032 140.002649 
L 347.098037 141.633937 
L 359.521043 143.265226 
L 371.944049 144.896515 
L 384.367054 146.527804 
L 396.79006 148.159093 
L 409.213065 149.790382 
L 421.636071 151.421671 
L 434.059076 153.05296 
L 446.482082 154.684249 
L 458.905088 156.315538 
L 471.328093 157.946827 
L 483.751099 159.578116 
L 496.174104 161.209405 
L 508.59711 162.840693 
L 521.020115 164.471982 
L 533.443121 166.103271 
L 545.866127 167.73456 
L 558.289132 169.365849 
L 570.712138 170.997138 
L 583.135143 172.628427 
L 595.558149 174.259716 
L 607.981154 175.891005 
L 620.40416 177.522294 
L 632.827165 179.153583 
L 645.250171 180.784872 
L 657.673177 182.416161 
L 670.096182 184.04745 
L 682.519188 185.678738 
L 694.942193 187.310027 
L 707.365199 188.941316 
" clip-path="url(#pa47fdd08b4)" style="fill: none; stroke: #17becf; stroke-width: 1.5; stroke-linecap: square"/>
   </g>
   <g id="patch_3">
    <path d="M 68.201563 284.4 
L 68.201563 7.2 
" style="fill: none; stroke: #000000; stroke-width: 0.8; stroke-linejoin: miter; stroke-linecap: square"/>
   </g>
   <g id="patch_4">
    <path d="M 737.801563 284.4 
L 737.801563 7.2 
" style="fill: none; stroke: #000000; stroke-width: 0.8; stroke-linejoin: miter; stroke-linecap: square"/>
   </g>
   <g id="patch_5">
    <path d="M 68.201563 284.4 
L 737.801563 284.4 
" style="fill: none; stroke: #000000; stroke-width: 0.8; stroke-linejoin: miter; stroke-linecap: square"/>
   </g>
   <g id="patch_6">
    <path d="M 68.201563 7.2 
L 737.801563 7.2 
" style="fill: none; stroke: #000000; stroke-width: 0.8; stroke-linejoin: miter; stroke-linecap: square"/>
   </g>
  </g>
 </g>
 <defs>
  <clipPath id="pa47fdd08b4">
   <rect x="68.201563" y="7.2" width="669.6" height="277.2"/>
  </clipPath>
 </defs>
</svg>
