<?xml version="1.0" encoding="utf-8" standalone="no"?>
<!DOCTYPE svg PUBLIC "-//W3C//DTD SVG 1.1//EN"
  "http://www.w3.org/Graphics/SVG/1.1/DTD/svg11.dtd">
<svg xmlns:xlink="http://www.w3.org/1999/xlink" width="745.001562pt" height="331.634375pt" viewBox="0 0 745.001562 331.634375" xmlns="http://www.w3.org/2000/svg" version="1.1">
 <metadata>
  <rdf:RDF xmlns:dc="http://purl.org/dc/elements/1.1/" xmlns:cc="http://creativecommons.org/ns#" xmlns:rdf="http://www.w3.org/1999/02/22-rdf-syntax-ns#">
   <cc:Work>
    <dc:type rdf:resource="http://purl.org/dc/dcmitype/StillImage"/>
    <dc:date>2025-06-02T21:00:44.183396</dc:date>
    <dc:format>image/svg+xml</dc:format>
    <dc:creator>
     <cc:Agent>
      <dc:title>Matplotlib v3.6.1, https://matplotlib.org/</dc:title>
     </cc:Agent>
    </dc:creator>
   </cc:Work>
  </rdf:RDF>
 </metadata>
 <defs>
  <style type="text/css">*{stroke-linejoin: round; stroke-linecap: butt}</style>
 </defs>
 <g id="figure_1">
  <g id="patch_1">
   <path d="M 0 331.634375 
L 745.001562 331.634375 
L 745.001562 0 
L 0 0 
z
" style="fill: #ffffff"/>
  </g>
  <g id="axes_1">
   <g id="patch_2">
    <path d="M 68.201563 284.4 
L 737.801563 284.4 
L 737.801563 7.2 
L 68.201563 7.2 
z
" style="fill: #ffffff"/>
   </g>
   <g id="PolyCollection_1">
    <path d="M 98.637926 19.8 
L 98.637926 271.8 
L 111.060932 266.858985 
L 123.483937 261.926737 
L 135.906943 257.004424 
L 148.329948 252.093424 
L 160.752954 247.195382 
L 173.17596 242.312271 
L 185.598965 237.446478 
L 198.021971 232.600914 
L 210.444976 227.779168 
L 222.867982 222.985702 
L 235.290987 218.226133 
L 247.713993 213.507609 
L 260.136998 208.839346 
L 272.560004 204.233394 
L 284.98301 199.705726 
L 297.406015 195.277839 
L 309.829021 190.979079 
L 322.252026 186.850033 
L 334.675032 182.947337 
L 347.098037 179.350075 
L 359.521043 176.166986 
L 371.944049 173.541009 
L 384.367054 171.642537 
L 396.79006 170.638947 
L 409.213065 170.638947 
L 421.636071 171.642537 
L 434.059076 173.541009 
L 446.482082 176.166986 
L 458.905088 179.350075 
L 471.328093 182.947337 
L 483.751099 186.850033 
L 496.174104 190.979079 
L 508.59711 195.277839 
L 521.020115 199.705726 
L 533.443121 204.233394 
L 545.866127 208.839346 
L 558.289132 213.507609 
L 570.712138 218.226133 
L 583.135143 222.985702 
L 595.558149 227.779168 
L 607.981154 232.600914 
L 620.40416 237.446478 
L 632.827165 242.312271 
L 645.250171 247.195382 
L 657.673177 252.093424 
L 670.096182 257.004424 
L 682.519188 261.926737 
L 694.942193 266.858985 
L 707.365199 271.8 
L 707.365199 19.8 
L 707.365199 19.8 
L 694.942193 24.741015 
L 682.519188 29.673263 
L 670.096182 34.595576 
L 657.673177 39.506576 
L 645.250171 44.404618 
L 632.827165 49.287729 
L 620.40416 54.153522 
L 607.981154 58.999086 
L 595.558149 63.820832 
L 583.135143 68.614298 
L 570.712138 73.373867 
L 558.289132 78.092391 
L 545.866127 82.760654 
L 533.443121 87.366606 
L 521.020115 91.894274 
L 508.59711 96.322161 
L 496.174104 100.620921 
L 483.751099 104.749967 
L 471.328093 108.652663 
L 458.905088 112.249925 
L 446.482082 115.433014 
L 434.059076 118.058991 
L 421.636071 119.957463 
L 409.213065 120.961053 
L 396.79006 120.961053 
L 384.367054 119.957463 
L 371.944049 118.058991 
L 359.521043 115.433014 
L 347.098037 112.249925 
L 334.675032 108.652663 
L 322.252026 104.749967 
L 309.829021 100.620921 
L 297.406015 96.322161 
L 284.98301 91.894274 
L 272.560004 87.366606 
L 260.136998 82.760654 
L 247.713993 78.092391 
L 235.290987 73.373867 
L 222.867982 68.614298 
L 210.444976 63.820832 
L 198.021971 58.999086 
L 185.598965 54.153522 
L 173.17596 49.287729 
L 160.752954 44.404618 
L 148.329948 39.506576 
L 135.906943 34.595576 
L 123.483937 29.673263 
L 111.060932 24.741015 
L 98.637926 19.8 
z
" clip-path="url(#pdc63ddf48d)" style="fill: #1f77b4; fill-opacity: 0.25"/>
   </g>
   <g id="matplotlib.axis_1">
    <g id="xtick_1">
     <g id="line2d_1">
      <defs>
       <path id="m5834ed3d8c" d="M 0 0 
L 0 3.5 
" style="stroke: #000000; stroke-width: 0.8"/>
      </defs>
      <g>
       <use xlink:href="#m5834ed3d8c" x="159.510653" y="284.4" style="stroke: #000000; stroke-width: 0.8"/>
      </g>
     </g>
     <g id="text_1">
      <!-- −4 -->
      <g transform="translate(152.13956 298.998437) scale(0.1 -0.1)">
       <defs>
        <path id="DejaVuSans-2212" d="M 678 2272 
L 4684 2272 
L 4684 1741 
L 678 1741 
L 678 2272 
z
" transform="scale(0.015625)"/>
        <path id="DejaVuSans-34" d="M 2419 4116 
L 825 1625 
L 2419 1625 
L 2419 4116 
z
M 2253 4666 
L 3047 4666 
L 3047 1625 
L 3713 1625 
L 3713 1100 
L 3047 1100 
L 3047 0 
L 2419 0 
L 2419 1100 
L 313 1100 
L 313 1709 
L 2253 4666 
z
" transform="scale(0.015625)"/>
       </defs>
       <use xlink:href="#DejaVuSans-2212"/>
       <use xlink:href="#DejaVuSans-34" x="83.789062"/>
      </g>
     </g>
    </g>
    <g id="xtick_2">
     <g id="line2d_2">
      <g>
       <use xlink:href="#m5834ed3d8c" x="281.256108" y="284.4" style="stroke: #000000; stroke-width: 0.8"/>
      </g>
     </g>
     <g id="text_2">
      <!-- −2 -->
      <g transform="translate(273.885014 298.998437) scale(0.1 -0.1)">
       <defs>
        <path id="DejaVuSans-32" d="M 1228 531 
L 3431 531 
L 3431 0 
L 469 0 
L 469 531 
Q 828 903 1448 1529 
Q 2069 2156 2228 2338 
Q 2531 2678 2651 2914 
Q 2772 3150 2772 3378 
Q 2772 3750 2511 3984 
Q 2250 4219 1831 4219 
Q 1534 4219 1204 4116 
Q 875 4013 500 3803 
L 500 4441 
Q 881 4594 1212 4672 
Q 1544 4750 1819 4750 
Q 2544 4750 2975 4387 
Q 3406 4025 3406 3419 
Q 3406 3131 3298 2873 
Q 3191 2616 2906 2266 
Q 2828 2175 2409 1742 
Q 1991 1309 1228 531 
z
" transform="scale(0.015625)"/>
       </defs>
       <use xlink:href="#DejaVuSans-2212"/>
       <use xlink:href="#DejaVuSans-32" x="83.789062"/>
      </g>
     </g>
    </g>
    <g id="xtick_3">
     <g id="line2d_3">
      <g>
       <use xlink:href="#m5834ed3d8c" x="403.001563" y="284.4" style="stroke: #000000; stroke-width: 0.8"/>
      </g>
     </g>
     <g id="text_3">
      <!-- 0 -->
      <g transform="translate(399.820313 298.998437) scale(0.1 -0.1)">
       <defs>
        <path id="DejaVuSans-30" d="M 2034 4250 
Q 1547 4250 1301 3770 
Q 1056 3291 1056 2328 
Q 1056 1369 1301 889 
Q 1547 409 2034 409 
Q 2525 409 2770 889 
Q 3016 1369 3016 2328 
Q 3016 3291 2770 3770 
Q 2525 4250 2034 4250 
z
M 2034 4750 
Q 2819 4750 3233 4129 
Q 3647 3509 3647 2328 
Q 3647 1150 3233 529 
Q 2819 -91 2034 -91 
Q 1250 -91 836 529 
Q 422 1150 422 2328 
Q 422 3509 836 4129 
Q 1250 4750 2034 4750 
z
" transform="scale(0.015625)"/>
       </defs>
       <use xlink:href="#DejaVuSans-30"/>
      </g>
     </g>
    </g>
    <g id="xtick_4">
     <g id="line2d_4">
      <g>
       <use xlink:href="#m5834ed3d8c" x="524.747017" y="284.4" style="stroke: #000000; stroke-width: 0.8"/>
      </g>
     </g>
     <g id="text_4">
      <!-- 2 -->
      <g transform="translate(521.565767 298.998437) scale(0.1 -0.1)">
       <use xlink:href="#DejaVuSans-32"/>
      </g>
     </g>
    </g>
    <g id="xtick_5">
     <g id="line2d_5">
      <g>
       <use xlink:href="#m5834ed3d8c" x="646.492472" y="284.4" style="stroke: #000000; stroke-width: 0.8"/>
      </g>
     </g>
     <g id="text_5">
      <!-- 4 -->
      <g transform="translate(643.311222 298.998437) scale(0.1 -0.1)">
       <use xlink:href="#DejaVuSans-34"/>
      </g>
     </g>
    </g>
    <g id="text_6">
     <!-- x -->
     <g transform="translate(397.082813 320.275) scale(0.2 -0.2)">
      <defs>
       <path id="DejaVuSans-78" d="M 3513 3500 
L 2247 1797 
L 3578 0 
L 2900 0 
L 1881 1375 
L 863 0 
L 184 0 
L 1544 1831 
L 300 3500 
L 978 3500 
L 1906 2253 
L 2834 3500 
L 3513 3500 
z
" transform="scale(0.015625)"/>
      </defs>
      <use xlink:href="#DejaVuSans-78"/>
     </g>
    </g>
   </g>
   <g id="matplotlib.axis_2">
    <g id="ytick_1">
     <g id="line2d_6">
      <defs>
       <path id="me61bb7aa7b" d="M 0 0 
L -3.5 0 
" style="stroke: #000000; stroke-width: 0.8"/>
      </defs>
      <g>
       <use xlink:href="#me61bb7aa7b" x="68.201563" y="269.353165" style="stroke: #000000; stroke-width: 0.8"/>
      </g>
     </g>
     <g id="text_7">
      <!-- −10.0 -->
      <g transform="translate(30.55625 273.152384) scale(0.1 -0.1)">
       <defs>
        <path id="DejaVuSans-31" d="M 794 531 
L 1825 531 
L 1825 4091 
L 703 3866 
L 703 4441 
L 1819 4666 
L 2450 4666 
L 2450 531 
L 3481 531 
L 3481 0 
L 794 0 
L 794 531 
z
" transform="scale(0.015625)"/>
        <path id="DejaVuSans-2e" d="M 684 794 
L 1344 794 
L 1344 0 
L 684 0 
L 684 794 
z
" transform="scale(0.015625)"/>
       </defs>
       <use xlink:href="#DejaVuSans-2212"/>
       <use xlink:href="#DejaVuSans-31" x="83.789062"/>
       <use xlink:href="#DejaVuSans-30" x="147.412109"/>
       <use xlink:href="#DejaVuSans-2e" x="211.035156"/>
       <use xlink:href="#DejaVuSans-30" x="242.822266"/>
      </g>
     </g>
    </g>
    <g id="ytick_2">
     <g id="line2d_7">
      <g>
       <use xlink:href="#me61bb7aa7b" x="68.201563" y="238.464874" style="stroke: #000000; stroke-width: 0.8"/>
      </g>
     </g>
     <g id="text_8">
      <!-- −7.5 -->
      <g transform="translate(36.91875 242.264093) scale(0.1 -0.1)">
       <defs>
        <path id="DejaVuSans-37" d="M 525 4666 
L 3525 4666 
L 3525 4397 
L 1831 0 
L 1172 0 
L 2766 4134 
L 525 4134 
L 525 4666 
z
" transform="scale(0.015625)"/>
        <path id="DejaVuSans-35" d="M 691 4666 
L 3169 4666 
L 3169 4134 
L 1269 4134 
L 1269 2991 
Q 1406 3038 1543 3061 
Q 1681 3084 1819 3084 
Q 2600 3084 3056 2656 
Q 3513 2228 3513 1497 
Q 3513 744 3044 326 
Q 2575 -91 1722 -91 
Q 1428 -91 1123 -41 
Q 819 9 494 109 
L 494 744 
Q 775 591 1075 516 
Q 1375 441 1709 441 
Q 2250 441 2565 725 
Q 2881 1009 2881 1497 
Q 2881 1984 2565 2268 
Q 2250 2553 1709 2553 
Q 1456 2553 1204 2497 
Q 953 2441 691 2322 
L 691 4666 
z
" transform="scale(0.015625)"/>
       </defs>
       <use xlink:href="#DejaVuSans-2212"/>
       <use xlink:href="#DejaVuSans-37" x="83.789062"/>
       <use xlink:href="#DejaVuSans-2e" x="147.412109"/>
       <use xlink:href="#DejaVuSans-35" x="179.199219"/>
      </g>
     </g>
    </g>
    <g id="ytick_3">
     <g id="line2d_8">
      <g>
       <use xlink:href="#me61bb7aa7b" x="68.201563" y="207.576583" style="stroke: #000000; stroke-width: 0.8"/>
      </g>
     </g>
     <g id="text_9">
      <!-- −5.0 -->
      <g transform="translate(36.91875 211.375801) scale(0.1 -0.1)">
       <use xlink:href="#DejaVuSans-2212"/>
       <use xlink:href="#DejaVuSans-35" x="83.789062"/>
       <use xlink:href="#DejaVuSans-2e" x="147.412109"/>
       <use xlink:href="#DejaVuSans-30" x="179.199219"/>
      </g>
     </g>
    </g>
    <g id="ytick_4">
     <g id="line2d_9">
      <g>
       <use xlink:href="#me61bb7aa7b" x="68.201563" y="176.688291" style="stroke: #000000; stroke-width: 0.8"/>
      </g>
     </g>
     <g id="text_10">
      <!-- −2.5 -->
      <g transform="translate(36.91875 180.48751) scale(0.1 -0.1)">
       <use xlink:href="#DejaVuSans-2212"/>
       <use xlink:href="#DejaVuSans-32" x="83.789062"/>
       <use xlink:href="#DejaVuSans-2e" x="147.412109"/>
       <use xlink:href="#DejaVuSans-35" x="179.199219"/>
      </g>
     </g>
    </g>
    <g id="ytick_5">
     <g id="line2d_10">
      <g>
       <use xlink:href="#me61bb7aa7b" x="68.201563" y="145.8" style="stroke: #000000; stroke-width: 0.8"/>
      </g>
     </g>
     <g id="text_11">
      <!-- 0.0 -->
      <g transform="translate(45.298438 149.599219) scale(0.1 -0.1)">
       <use xlink:href="#DejaVuSans-30"/>
       <use xlink:href="#DejaVuSans-2e" x="63.623047"/>
       <use xlink:href="#DejaVuSans-30" x="95.410156"/>
      </g>
     </g>
    </g>
    <g id="ytick_6">
     <g id="line2d_11">
      <g>
       <use xlink:href="#me61bb7aa7b" x="68.201563" y="114.911709" style="stroke: #000000; stroke-width: 0.8"/>
      </g>
     </g>
     <g id="text_12">
      <!-- 2.5 -->
      <g transform="translate(45.298438 118.710927) scale(0.1 -0.1)">
       <use xlink:href="#DejaVuSans-32"/>
       <use xlink:href="#DejaVuSans-2e" x="63.623047"/>
       <use xlink:href="#DejaVuSans-35" x="95.410156"/>
      </g>
     </g>
    </g>
    <g id="ytick_7">
     <g id="line2d_12">
      <g>
       <use xlink:href="#me61bb7aa7b" x="68.201563" y="84.023417" style="stroke: #000000; stroke-width: 0.8"/>
      </g>
     </g>
     <g id="text_13">
      <!-- 5.0 -->
      <g transform="translate(45.298438 87.822636) scale(0.1 -0.1)">
       <use xlink:href="#DejaVuSans-35"/>
       <use xlink:href="#DejaVuSans-2e" x="63.623047"/>
       <use xlink:href="#DejaVuSans-30" x="95.410156"/>
      </g>
     </g>
    </g>
    <g id="ytick_8">
     <g id="line2d_13">
      <g>
       <use xlink:href="#me61bb7aa7b" x="68.201563" y="53.135126" style="stroke: #000000; stroke-width: 0.8"/>
      </g>
     </g>
     <g id="text_14">
      <!-- 7.5 -->
      <g transform="translate(45.298438 56.934345) scale(0.1 -0.1)">
       <use xlink:href="#DejaVuSans-37"/>
       <use xlink:href="#DejaVuSans-2e" x="63.623047"/>
       <use xlink:href="#DejaVuSans-35" x="95.410156"/>
      </g>
     </g>
    </g>
    <g id="ytick_9">
     <g id="line2d_14">
      <g>
       <use xlink:href="#me61bb7aa7b" x="68.201563" y="22.246835" style="stroke: #000000; stroke-width: 0.8"/>
      </g>
     </g>
     <g id="text_15">
      <!-- 10.0 -->
      <g transform="translate(38.935938 26.046054) scale(0.1 -0.1)">
       <use xlink:href="#DejaVuSans-31"/>
       <use xlink:href="#DejaVuSans-30" x="63.623047"/>
       <use xlink:href="#DejaVuSans-2e" x="127.246094"/>
       <use xlink:href="#DejaVuSans-30" x="159.033203"/>
      </g>
     </g>
    </g>
    <g id="text_16">
     <!-- f(x) -->
     <g transform="translate(22.396875 163.042187) rotate(-90) scale(0.2 -0.2)">
      <defs>
       <path id="DejaVuSans-66" d="M 2375 4863 
L 2375 4384 
L 1825 4384 
Q 1516 4384 1395 4259 
Q 1275 4134 1275 3809 
L 1275 3500 
L 2222 3500 
L 2222 3053 
L 1275 3053 
L 1275 0 
L 697 0 
L 697 3053 
L 147 3053 
L 147 3500 
L 697 3500 
L 697 3744 
Q 697 4328 969 4595 
Q 1241 4863 1831 4863 
L 2375 4863 
z
" transform="scale(0.015625)"/>
       <path id="DejaVuSans-28" d="M 1984 4856 
Q 1566 4138 1362 3434 
Q 1159 2731 1159 2009 
Q 1159 1288 1364 580 
Q 1569 -128 1984 -844 
L 1484 -844 
Q 1016 -109 783 600 
Q 550 1309 550 2009 
Q 550 2706 781 3412 
Q 1013 4119 1484 4856 
L 1984 4856 
z
" transform="scale(0.015625)"/>
       <path id="DejaVuSans-29" d="M 513 4856 
L 1013 4856 
Q 1481 4119 1714 3412 
Q 1947 2706 1947 2009 
Q 1947 1309 1714 600 
Q 1481 -109 1013 -844 
L 513 -844 
Q 928 -128 1133 580 
Q 1338 1288 1338 2009 
Q 1338 2731 1133 3434 
Q 928 4138 513 4856 
z
" transform="scale(0.015625)"/>
      </defs>
      <use xlink:href="#DejaVuSans-66"/>
      <use xlink:href="#DejaVuSans-28" x="35.205078"/>
      <use xlink:href="#DejaVuSans-78" x="74.21875"/>
      <use xlink:href="#DejaVuSans-29" x="133.398438"/>
     </g>
    </g>
   </g>
   <g id="line2d_15">
    <path d="M 98.637926 145.8 
L 111.060932 145.8 
L 123.483937 145.8 
L 135.906943 145.8 
L 148.329948 145.8 
L 160.752954 145.8 
L 173.17596 145.8 
L 185.598965 145.8 
L 198.021971 145.8 
L 210.444976 145.8 
L 222.867982 145.8 
L 235.290987 145.8 
L 247.713993 145.8 
L 260.136998 145.8 
L 272.560004 145.8 
L 284.98301 145.8 
L 297.406015 145.8 
L 309.829021 145.8 
L 322.252026 145.8 
L 334.675032 145.8 
L 347.098037 145.8 
L 359.521043 145.8 
L 371.944049 145.8 
L 384.367054 145.8 
L 396.79006 145.8 
L 409.213065 145.8 
L 421.636071 145.8 
L 434.059076 145.8 
L 446.482082 145.8 
L 458.905088 145.8 
L 471.328093 145.8 
L 483.751099 145.8 
L 496.174104 145.8 
L 508.59711 145.8 
L 521.020115 145.8 
L 533.443121 145.8 
L 545.866127 145.8 
L 558.289132 145.8 
L 570.712138 145.8 
L 583.135143 145.8 
L 595.558149 145.8 
L 607.981154 145.8 
L 620.40416 145.8 
L 632.827165 145.8 
L 645.250171 145.8 
L 657.673177 145.8 
L 670.096182 145.8 
L 682.519188 145.8 
L 694.942193 145.8 
L 707.365199 145.8 
" clip-path="url(#pdc63ddf48d)" style="fill: none; stroke: #000000; stroke-width: 4; stroke-linecap: square"/>
   </g>
   <g id="line2d_16">
    <path d="M 98.637926 146.365529 
L 111.060932 145.642114 
L 123.483937 144.918699 
L 135.906943 144.195284 
L 148.329948 143.471869 
L 160.752954 142.748454 
L 173.17596 142.025039 
L 185.598965 141.301624 
L 198.021971 140.578209 
L 210.444976 139.854793 
L 222.867982 139.131378 
L 235.290987 138.407963 
L 247.713993 137.684548 
L 260.136998 136.961133 
L 272.560004 136.237718 
L 284.98301 135.514303 
L 297.406015 134.790888 
L 309.829021 134.067473 
L 322.252026 133.344058 
L 334.675032 132.620642 
L 347.098037 131.897227 
L 359.521043 131.173812 
L 371.944049 130.450397 
L 384.367054 129.726982 
L 396.79006 129.003567 
L 409.213065 128.280152 
L 421.636071 127.556737 
L 434.059076 126.833322 
L 446.482082 126.109906 
L 458.905088 125.386491 
L 471.328093 124.663076 
L 483.751099 123.939661 
L 496.174104 123.216246 
L 508.59711 122.492831 
L 521.020115 121.769416 
L 533.443121 121.046001 
L 545.866127 120.322586 
L 558.289132 119.59917 
L 570.712138 118.875755 
L 583.135143 118.15234 
L 595.558149 117.428925 
L 607.981154 116.70551 
L 620.40416 115.982095 
L 632.827165 115.25868 
L 645.250171 114.535265 
L 657.673177 113.81185 
L 670.096182 113.088435 
L 682.519188 112.365019 
L 694.942193 111.641604 
L 707.365199 110.918189 
" clip-path="url(#pdc63ddf48d)" style="fill: none; stroke: #1f77b4; stroke-width: 1.5; stroke-linecap: square"/>
   </g>
   <g id="line2d_17">
    <path d="M 98.637926 187.835924 
L 111.060932 186.571864 
L 123.483937 185.307803 
L 135.906943 184.043742 
L 148.329948 182.779682 
L 160.752954 181.515621 
L 173.17596 180.251561 
L 185.598965 178.9875 
L 198.021971 177.723439 
L 210.444976 176.459379 
L 222.867982 175.195318 
L 235.290987 173.931258 
L 247.713993 172.667197 
L 260.136998 171.403136 
L 272.560004 170.139076 
L 284.98301 168.875015 
L 297.406015 167.610955 
L 309.829021 166.346894 
L 322.252026 165.082833 
L 334.675032 163.818773 
L 347.098037 162.554712 
L 359.521043 161.290652 
L 371.944049 160.026591 
L 384.367054 158.76253 
L 396.79006 157.49847 
L 409.213065 156.234409 
L 421.636071 154.970349 
L 434.059076 153.706288 
L 446.482082 152.442227 
L 458.905088 151.178167 
L 471.328093 149.914106 
L 483.751099 148.650046 
L 496.174104 147.385985 
L 508.59711 146.121924 
L 521.020115 144.857864 
L 533.443121 143.593803 
L 545.866127 142.329743 
L 558.289132 141.065682 
L 570.712138 139.801621 
L 583.135143 138.537561 
L 595.558149 137.2735 
L 607.981154 136.00944 
L 620.40416 134.745379 
L 632.827165 133.481318 
L 645.250171 132.217258 
L 657.673177 130.953197 
L 670.096182 129.689137 
L 682.519188 128.425076 
L 694.942193 127.161016 
L 707.365199 125.896955 
" clip-path="url(#pdc63ddf48d)" style="fill: none; stroke: #ff7f0e; stroke-width: 1.5; stroke-linecap: square"/>
   </g>
   <g id="line2d_18">
    <path d="M 98.637926 66.744928 
L 111.060932 69.475205 
L 123.483937 72.205482 
L 135.906943 74.935759 
L 148.329948 77.666036 
L 160.752954 80.396313 
L 173.17596 83.12659 
L 185.598965 85.856867 
L 198.021971 88.587144 
L 210.444976 91.317421 
L 222.867982 94.047698 
L 235.290987 96.777975 
L 247.713993 99.508252 
L 260.136998 102.23853 
L 272.560004 104.968807 
L 284.98301 107.699084 
L 297.406015 110.429361 
L 309.829021 113.159638 
L 322.252026 115.889915 
L 334.675032 118.620192 
L 347.098037 121.350469 
L 359.521043 124.080746 
L 371.944049 126.811023 
L 384.367054 129.5413 
L 396.79006 132.271577 
L 409.213065 135.001854 
L 421.636071 137.732132 
L 434.059076 140.462409 
L 446.482082 143.192686 
L 458.905088 145.922963 
L 471.328093 148.65324 
L 483.751099 151.383517 
L 496.174104 154.113794 
L 508.59711 156.844071 
L 521.020115 159.574348 
L 533.443121 162.304625 
L 545.866127 165.034902 
L 558.289132 167.765179 
L 570.712138 170.495456 
L 583.135143 173.225734 
L 595.558149 175.956011 
L 607.981154 178.686288 
L 620.40416 181.416565 
L 632.827165 184.146842 
L 645.250171 186.877119 
L 657.673177 189.607396 
L 670.096182 192.337673 
L 682.519188 195.06795 
L 694.942193 197.798227 
L 707.365199 200.528504 
" clip-path="url(#pdc63ddf48d)" style="fill: none; stroke: #2ca02c; stroke-width: 1.5; stroke-linecap: square"/>
   </g>
   <g id="line2d_19">
    <path d="M 98.637926 117.719383 
L 111.060932 118.763636 
L 123.483937 119.807889 
L 135.906943 120.852142 
L 148.329948 121.896396 
L 160.752954 122.940649 
L 173.17596 123.984902 
L 185.598965 125.029155 
L 198.021971 126.073408 
L 210.444976 127.117661 
L 222.867982 128.161915 
L 235.290987 129.206168 
L 247.713993 130.250421 
L 260.136998 131.294674 
L 272.560004 132.338927 
L 284.98301 133.38318 
L 297.406015 134.427433 
L 309.829021 135.471687 
L 322.252026 136.51594 
L 334.675032 137.560193 
L 347.098037 138.604446 
L 359.521043 139.648699 
L 371.944049 140.692952 
L 384.367054 141.737205 
L 396.79006 142.781459 
L 409.213065 143.825712 
L 421.636071 144.869965 
L 434.059076 145.914218 
L 446.482082 146.958471 
L 458.905088 148.002724 
L 471.328093 149.046978 
L 483.751099 150.091231 
L 496.174104 151.135484 
L 508.59711 152.179737 
L 521.020115 153.22399 
L 533.443121 154.268243 
L 545.866127 155.312496 
L 558.289132 156.35675 
L 570.712138 157.401003 
L 583.135143 158.445256 
L 595.558149 159.489509 
L 607.981154 160.533762 
L 620.40416 161.578015 
L 632.827165 162.622269 
L 645.250171 163.666522 
L 657.673177 164.710775 
L 670.096182 165.755028 
L 682.519188 166.799281 
L 694.942193 167.843534 
L 707.365199 168.887787 
" clip-path="url(#pdc63ddf48d)" style="fill: none; stroke: #d62728; stroke-width: 1.5; stroke-linecap: square"/>
   </g>
   <g id="line2d_20">
    <path d="M 98.637926 80.785689 
L 111.060932 83.52428 
L 123.483937 86.26287 
L 135.906943 89.001461 
L 148.329948 91.740051 
L 160.752954 94.478642 
L 173.17596 97.217232 
L 185.598965 99.955823 
L 198.021971 102.694413 
L 210.444976 105.433004 
L 222.867982 108.171594 
L 235.290987 110.910185 
L 247.713993 113.648775 
L 260.136998 116.387366 
L 272.560004 119.125956 
L 284.98301 121.864547 
L 297.406015 124.603137 
L 309.829021 127.341728 
L 322.252026 130.080318 
L 334.675032 132.818909 
L 347.098037 135.557499 
L 359.521043 138.29609 
L 371.944049 141.03468 
L 384.367054 143.773271 
L 396.79006 146.511861 
L 409.213065 149.250452 
L 421.636071 151.989042 
L 434.059076 154.727633 
L 446.482082 157.466223 
L 458.905088 160.204814 
L 471.328093 162.943404 
L 483.751099 165.681995 
L 496.174104 168.420585 
L 508.59711 171.159176 
L 521.020115 173.897766 
L 533.443121 176.636357 
L 545.866127 179.374947 
L 558.289132 182.113538 
L 570.712138 184.852128 
L 583.135143 187.590719 
L 595.558149 190.329309 
L 607.981154 193.0679 
L 620.40416 195.80649 
L 632.827165 198.545081 
L 645.250171 201.283671 
L 657.673177 204.022262 
L 670.096182 206.760852 
L 682.519188 209.499443 
L 694.942193 212.238033 
L 707.365199 214.976624 
" clip-path="url(#pdc63ddf48d)" style="fill: none; stroke: #9467bd; stroke-width: 1.5; stroke-linecap: square"/>
   </g>
   <g id="line2d_21">
    <path d="M 98.637926 153.740135 
L 111.060932 153.426746 
L 123.483937 153.113358 
L 135.906943 152.799969 
L 148.329948 152.486581 
L 160.752954 152.173192 
L 173.17596 151.859804 
L 185.598965 151.546415 
L 198.021971 151.233027 
L 210.444976 150.919638 
L 222.867982 150.60625 
L 235.290987 150.292861 
L 247.713993 149.979473 
L 260.136998 149.666084 
L 272.560004 149.352696 
L 284.98301 149.039307 
L 297.406015 148.725919 
L 309.829021 148.41253 
L 322.252026 148.099141 
L 334.675032 147.785753 
L 347.098037 147.472364 
L 359.521043 147.158976 
L 371.944049 146.845587 
L 384.367054 146.532199 
L 396.79006 146.21881 
L 409.213065 145.905422 
L 421.636071 145.592033 
L 434.059076 145.278645 
L 446.482082 144.965256 
L 458.905088 144.651868 
L 471.328093 144.338479 
L 483.751099 144.025091 
L 496.174104 143.711702 
L 508.59711 143.398314 
L 521.020115 143.084925 
L 533.443121 142.771536 
L 545.866127 142.458148 
L 558.289132 142.144759 
L 570.712138 141.831371 
L 583.135143 141.517982 
L 595.558149 141.204594 
L 607.981154 140.891205 
L 620.40416 140.577817 
L 632.827165 140.264428 
L 645.250171 139.95104 
L 657.673177 139.637651 
L 670.096182 139.324263 
L 682.519188 139.010874 
L 694.942193 138.697486 
L 707.365199 138.384097 
" clip-path="url(#pdc63ddf48d)" style="fill: none; stroke: #8c564b; stroke-width: 1.5; stroke-linecap: square"/>
   </g>
   <g id="line2d_22">
    <path d="M 98.637926 66.376053 
L 111.060932 69.395268 
L 123.483937 72.414483 
L 135.906943 75.433698 
L 148.329948 78.452913 
L 160.752954 81.472128 
L 173.17596 84.491343 
L 185.598965 87.510558 
L 198.021971 90.529772 
L 210.444976 93.548987 
L 222.867982 96.568202 
L 235.290987 99.587417 
L 247.713993 102.606632 
L 260.136998 105.625847 
L 272.560004 108.645062 
L 284.98301 111.664277 
L 297.406015 114.683491 
L 309.829021 117.702706 
L 322.252026 120.721921 
L 334.675032 123.741136 
L 347.098037 126.760351 
L 359.521043 129.779566 
L 371.944049 132.798781 
L 384.367054 135.817996 
L 396.79006 138.83721 
L 409.213065 141.856425 
L 421.636071 144.87564 
L 434.059076 147.894855 
L 446.482082 150.91407 
L 458.905088 153.933285 
L 471.328093 156.9525 
L 483.751099 159.971715 
L 496.174104 162.99093 
L 508.59711 166.010144 
L 521.020115 169.029359 
L 533.443121 172.048574 
L 545.866127 175.067789 
L 558.289132 178.087004 
L 570.712138 181.106219 
L 583.135143 184.125434 
L 595.558149 187.144649 
L 607.981154 190.163863 
L 620.40416 193.183078 
L 632.827165 196.202293 
L 645.250171 199.221508 
L 657.673177 202.240723 
L 670.096182 205.259938 
L 682.519188 208.279153 
L 694.942193 211.298368 
L 707.365199 214.317582 
" clip-path="url(#pdc63ddf48d)" style="fill: none; stroke: #e377c2; stroke-width: 1.5; stroke-linecap: square"/>
   </g>
   <g id="line2d_23">
    <path d="M 98.637926 268.87031 
L 111.060932 264.482514 
L 123.483937 260.094718 
L 135.906943 255.706922 
L 148.329948 251.319125 
L 160.752954 246.931329 
L 173.17596 242.543533 
L 185.598965 238.155736 
L 198.021971 233.76794 
L 210.444976 229.380144 
L 222.867982 224.992348 
L 235.290987 220.604551 
L 247.713993 216.216755 
L 260.136998 211.828959 
L 272.560004 207.441163 
L 284.98301 203.053366 
L 297.406015 198.66557 
L 309.829021 194.277774 
L 322.252026 189.889977 
L 334.675032 185.502181 
L 347.098037 181.114385 
L 359.521043 176.726589 
L 371.944049 172.338792 
L 384.367054 167.950996 
L 396.79006 163.5632 
L 409.213065 159.175403 
L 421.636071 154.787607 
L 434.059076 150.399811 
L 446.482082 146.012015 
L 458.905088 141.624218 
L 471.328093 137.236422 
L 483.751099 132.848626 
L 496.174104 128.46083 
L 508.59711 124.073033 
L 521.020115 119.685237 
L 533.443121 115.297441 
L 545.866127 110.909644 
L 558.289132 106.521848 
L 570.712138 102.134052 
L 583.135143 97.746256 
L 595.558149 93.358459 
L 607.981154 88.970663 
L 620.40416 84.582867 
L 632.827165 80.19507 
L 645.250171 75.807274 
L 657.673177 71.419478 
L 670.096182 67.031682 
L 682.519188 62.643885 
L 694.942193 58.256089 
L 707.365199 53.868293 
" clip-path="url(#pdc63ddf48d)" style="fill: none; stroke: #7f7f7f; stroke-width: 1.5; stroke-linecap: square"/>
   </g>
   <g id="line2d_24">
    <path d="M 98.637926 195.399856 
L 111.060932 193.711891 
L 123.483937 192.023925 
L 135.906943 190.335959 
L 148.329948 188.647993 
L 160.752954 186.960027 
L 173.17596 185.272061 
L 185.598965 183.584095 
L 198.021971 181.896129 
L 210.444976 180.208163 
L 222.867982 178.520197 
L 235.290987 176.832231 
L 247.713993 175.144265 
L 260.136998 173.456299 
L 272.560004 171.768333 
L 284.98301 170.080368 
L 297.406015 168.392402 
L 309.829021 166.704436 
L 322.252026 165.01647 
L 334.675032 163.328504 
L 347.098037 161.640538 
L 359.521043 159.952572 
L 371.944049 158.264606 
L 384.367054 156.57664 
L 396.79006 154.888674 
L 409.213065 153.200708 
L 421.636071 151.512742 
L 434.059076 149.824776 
L 446.482082 148.13681 
L 458.905088 146.448845 
L 471.328093 144.760879 
L 483.751099 143.072913 
L 496.174104 141.384947 
L 508.59711 139.696981 
L 521.020115 138.009015 
L 533.443121 136.321049 
L 545.866127 134.633083 
L 558.289132 132.945117 
L 570.712138 131.257151 
L 583.135143 129.569185 
L 595.558149 127.881219 
L 607.981154 126.193253 
L 620.40416 124.505287 
L 632.827165 122.817322 
L 645.250171 121.129356 
L 657.673177 119.44139 
L 670.096182 117.753424 
L 682.519188 116.065458 
L 694.942193 114.377492 
L 707.365199 112.689526 
" clip-path="url(#pdc63ddf48d)" style="fill: none; stroke: #bcbd22; stroke-width: 1.5; stroke-linecap: square"/>
   </g>
   <g id="line2d_25">
    <path d="M 98.637926 173.960889 
L 111.060932 172.679946 
L 123.483937 171.399003 
L 135.906943 170.11806 
L 148.329948 168.837117 
L 160.752954 167.556174 
L 173.17596 166.275231 
L 185.598965 164.994288 
L 198.021971 163.713346 
L 210.444976 162.432403 
L 222.867982 161.15146 
L 235.290987 159.870517 
L 247.713993 158.589574 
L 260.136998 157.308631 
L 272.560004 156.027688 
L 284.98301 154.746745 
L 297.406015 153.465802 
L 309.829021 152.184859 
L 322.252026 150.903917 
L 334.675032 149.622974 
L 347.098037 148.342031 
L 359.521043 147.061088 
L 371.944049 145.780145 
L 384.367054 144.499202 
L 396.79006 143.218259 
L 409.213065 141.937316 
L 421.636071 140.656373 
L 434.059076 139.37543 
L 446.482082 138.094488 
L 458.905088 136.813545 
L 471.328093 135.532602 
L 483.751099 134.251659 
L 496.174104 132.970716 
L 508.59711 131.689773 
L 521.020115 130.40883 
L 533.443121 129.127887 
L 545.866127 127.846944 
L 558.289132 126.566001 
L 570.712138 125.285058 
L 583.135143 124.004116 
L 595.558149 122.723173 
L 607.981154 121.44223 
L 620.40416 120.161287 
L 632.827165 118.880344 
L 645.250171 117.599401 
L 657.673177 116.318458 
L 670.096182 115.037515 
L 682.519188 113.756572 
L 694.942193 112.475629 
L 707.365199 111.194687 
" clip-path="url(#pdc63ddf48d)" style="fill: none; stroke: #17becf; stroke-width: 1.5; stroke-linecap: square"/>
   </g>
   <g id="patch_3">
    <path d="M 68.201563 284.4 
L 68.201563 7.2 
" style="fill: none; stroke: #000000; stroke-width: 0.8; stroke-linejoin: miter; stroke-linecap: square"/>
   </g>
   <g id="patch_4">
    <path d="M 737.801563 284.4 
L 737.801563 7.2 
" style="fill: none; stroke: #000000; stroke-width: 0.8; stroke-linejoin: miter; stroke-linecap: square"/>
   </g>
   <g id="patch_5">
    <path d="M 68.201563 284.4 
L 737.801563 284.4 
" style="fill: none; stroke: #000000; stroke-width: 0.8; stroke-linejoin: miter; stroke-linecap: square"/>
   </g>
   <g id="patch_6">
    <path d="M 68.201563 7.2 
L 737.801563 7.2 
" style="fill: none; stroke: #000000; stroke-width: 0.8; stroke-linejoin: miter; stroke-linecap: square"/>
   </g>
  </g>
 </g>
 <defs>
  <clipPath id="pdc63ddf48d">
   <rect x="68.201563" y="7.2" width="669.6" height="277.2"/>
  </clipPath>
 </defs>
</svg>
