<?xml version="1.0" encoding="utf-8" standalone="no"?>
<!DOCTYPE svg PUBLIC "-//W3C//DTD SVG 1.1//EN"
  "http://www.w3.org/Graphics/SVG/1.1/DTD/svg11.dtd">
<svg xmlns:xlink="http://www.w3.org/1999/xlink" width="705.742188pt" height="308.652179pt" viewBox="0 0 705.742188 308.652179" xmlns="http://www.w3.org/2000/svg" version="1.1">
 <metadata>
  <rdf:RDF xmlns:dc="http://purl.org/dc/elements/1.1/" xmlns:cc="http://creativecommons.org/ns#" xmlns:rdf="http://www.w3.org/1999/02/22-rdf-syntax-ns#">
   <cc:Work>
    <dc:type rdf:resource="http://purl.org/dc/dcmitype/StillImage"/>
    <dc:date>2025-07-08T14:29:58.263294</dc:date>
    <dc:format>image/svg+xml</dc:format>
    <dc:creator>
     <cc:Agent>
      <dc:title>Matplotlib v3.7.2, https://matplotlib.org/</dc:title>
     </cc:Agent>
    </dc:creator>
   </cc:Work>
  </rdf:RDF>
 </metadata>
 <defs>
  <style type="text/css">*{stroke-linejoin: round; stroke-linecap: butt}</style>
 </defs>
 <g id="figure_1">
  <g id="patch_1">
   <path d="M 0 308.652179 
L 705.742188 308.652179 
L 705.742188 0 
L 0 0 
z
" style="fill: #ffffff"/>
  </g>
  <g id="axes_1">
   <g id="patch_2">
    <path d="M 28.942188 284.774054 
L 698.542188 284.774054 
L 698.542188 7.574054 
L 28.942188 7.574054 
z
" style="fill: #ffffff"/>
   </g>
   <g id="matplotlib.axis_1">
    <g id="xtick_1">
     <g id="line2d_1">
      <defs>
       <path id="m66bd5da918" d="M 0 0 
L 0 3.5 
" style="stroke: #000000; stroke-width: 0.8"/>
      </defs>
      <g>
       <use xlink:href="#m66bd5da918" x="59.378551" y="284.774054" style="stroke: #000000; stroke-width: 0.8"/>
      </g>
     </g>
     <g id="text_1">
      <!-- 0 -->
      <g transform="translate(56.197301 299.372492) scale(0.1 -0.1)">
       <defs>
        <path id="DejaVuSans-30" d="M 2034 4250 
Q 1547 4250 1301 3770 
Q 1056 3291 1056 2328 
Q 1056 1369 1301 889 
Q 1547 409 2034 409 
Q 2525 409 2770 889 
Q 3016 1369 3016 2328 
Q 3016 3291 2770 3770 
Q 2525 4250 2034 4250 
z
M 2034 4750 
Q 2819 4750 3233 4129 
Q 3647 3509 3647 2328 
Q 3647 1150 3233 529 
Q 2819 -91 2034 -91 
Q 1250 -91 836 529 
Q 422 1150 422 2328 
Q 422 3509 836 4129 
Q 1250 4750 2034 4750 
z
" transform="scale(0.015625)"/>
       </defs>
       <use xlink:href="#DejaVuSans-30"/>
      </g>
     </g>
    </g>
    <g id="xtick_2">
     <g id="line2d_2">
      <g>
       <use xlink:href="#m66bd5da918" x="181.124006" y="284.774054" style="stroke: #000000; stroke-width: 0.8"/>
      </g>
     </g>
     <g id="text_2">
      <!-- 1 -->
      <g transform="translate(177.942756 299.372492) scale(0.1 -0.1)">
       <defs>
        <path id="DejaVuSans-31" d="M 794 531 
L 1825 531 
L 1825 4091 
L 703 3866 
L 703 4441 
L 1819 4666 
L 2450 4666 
L 2450 531 
L 3481 531 
L 3481 0 
L 794 0 
L 794 531 
z
" transform="scale(0.015625)"/>
       </defs>
       <use xlink:href="#DejaVuSans-31"/>
      </g>
     </g>
    </g>
    <g id="xtick_3">
     <g id="line2d_3">
      <g>
       <use xlink:href="#m66bd5da918" x="302.86946" y="284.774054" style="stroke: #000000; stroke-width: 0.8"/>
      </g>
     </g>
     <g id="text_3">
      <!-- 2 -->
      <g transform="translate(299.68821 299.372492) scale(0.1 -0.1)">
       <defs>
        <path id="DejaVuSans-32" d="M 1228 531 
L 3431 531 
L 3431 0 
L 469 0 
L 469 531 
Q 828 903 1448 1529 
Q 2069 2156 2228 2338 
Q 2531 2678 2651 2914 
Q 2772 3150 2772 3378 
Q 2772 3750 2511 3984 
Q 2250 4219 1831 4219 
Q 1534 4219 1204 4116 
Q 875 4013 500 3803 
L 500 4441 
Q 881 4594 1212 4672 
Q 1544 4750 1819 4750 
Q 2544 4750 2975 4387 
Q 3406 4025 3406 3419 
Q 3406 3131 3298 2873 
Q 3191 2616 2906 2266 
Q 2828 2175 2409 1742 
Q 1991 1309 1228 531 
z
" transform="scale(0.015625)"/>
       </defs>
       <use xlink:href="#DejaVuSans-32"/>
      </g>
     </g>
    </g>
    <g id="xtick_4">
     <g id="line2d_4">
      <g>
       <use xlink:href="#m66bd5da918" x="424.614915" y="284.774054" style="stroke: #000000; stroke-width: 0.8"/>
      </g>
     </g>
     <g id="text_4">
      <!-- 3 -->
      <g transform="translate(421.433665 299.372492) scale(0.1 -0.1)">
       <defs>
        <path id="DejaVuSans-33" d="M 2597 2516 
Q 3050 2419 3304 2112 
Q 3559 1806 3559 1356 
Q 3559 666 3084 287 
Q 2609 -91 1734 -91 
Q 1441 -91 1130 -33 
Q 819 25 488 141 
L 488 750 
Q 750 597 1062 519 
Q 1375 441 1716 441 
Q 2309 441 2620 675 
Q 2931 909 2931 1356 
Q 2931 1769 2642 2001 
Q 2353 2234 1838 2234 
L 1294 2234 
L 1294 2753 
L 1863 2753 
Q 2328 2753 2575 2939 
Q 2822 3125 2822 3475 
Q 2822 3834 2567 4026 
Q 2313 4219 1838 4219 
Q 1578 4219 1281 4162 
Q 984 4106 628 3988 
L 628 4550 
Q 988 4650 1302 4700 
Q 1616 4750 1894 4750 
Q 2613 4750 3031 4423 
Q 3450 4097 3450 3541 
Q 3450 3153 3228 2886 
Q 3006 2619 2597 2516 
z
" transform="scale(0.015625)"/>
       </defs>
       <use xlink:href="#DejaVuSans-33"/>
      </g>
     </g>
    </g>
    <g id="xtick_5">
     <g id="line2d_5">
      <g>
       <use xlink:href="#m66bd5da918" x="546.360369" y="284.774054" style="stroke: #000000; stroke-width: 0.8"/>
      </g>
     </g>
     <g id="text_5">
      <!-- 4 -->
      <g transform="translate(543.179119 299.372492) scale(0.1 -0.1)">
       <defs>
        <path id="DejaVuSans-34" d="M 2419 4116 
L 825 1625 
L 2419 1625 
L 2419 4116 
z
M 2253 4666 
L 3047 4666 
L 3047 1625 
L 3713 1625 
L 3713 1100 
L 3047 1100 
L 3047 0 
L 2419 0 
L 2419 1100 
L 313 1100 
L 313 1709 
L 2253 4666 
z
" transform="scale(0.015625)"/>
       </defs>
       <use xlink:href="#DejaVuSans-34"/>
      </g>
     </g>
    </g>
    <g id="xtick_6">
     <g id="line2d_6">
      <g>
       <use xlink:href="#m66bd5da918" x="668.105824" y="284.774054" style="stroke: #000000; stroke-width: 0.8"/>
      </g>
     </g>
     <g id="text_6">
      <!-- 5 -->
      <g transform="translate(664.924574 299.372492) scale(0.1 -0.1)">
       <defs>
        <path id="DejaVuSans-35" d="M 691 4666 
L 3169 4666 
L 3169 4134 
L 1269 4134 
L 1269 2991 
Q 1406 3038 1543 3061 
Q 1681 3084 1819 3084 
Q 2600 3084 3056 2656 
Q 3513 2228 3513 1497 
Q 3513 744 3044 326 
Q 2575 -91 1722 -91 
Q 1428 -91 1123 -41 
Q 819 9 494 109 
L 494 744 
Q 775 591 1075 516 
Q 1375 441 1709 441 
Q 2250 441 2565 725 
Q 2881 1009 2881 1497 
Q 2881 1984 2565 2268 
Q 2250 2553 1709 2553 
Q 1456 2553 1204 2497 
Q 953 2441 691 2322 
L 691 4666 
z
" transform="scale(0.015625)"/>
       </defs>
       <use xlink:href="#DejaVuSans-35"/>
      </g>
     </g>
    </g>
   </g>
   <g id="matplotlib.axis_2">
    <g id="ytick_1">
     <g id="line2d_7">
      <defs>
       <path id="m1cb71b4519" d="M 0 0 
L -3.5 0 
" style="stroke: #000000; stroke-width: 0.8"/>
      </defs>
      <g>
       <use xlink:href="#m1cb71b4519" x="28.942188" y="255.908237" style="stroke: #000000; stroke-width: 0.8"/>
      </g>
     </g>
     <g id="text_7">
      <!-- −2 -->
      <g transform="translate(7.2 259.707455) scale(0.1 -0.1)">
       <defs>
        <path id="DejaVuSans-2212" d="M 678 2272 
L 4684 2272 
L 4684 1741 
L 678 1741 
L 678 2272 
z
" transform="scale(0.015625)"/>
       </defs>
       <use xlink:href="#DejaVuSans-2212"/>
       <use xlink:href="#DejaVuSans-32" x="83.789062"/>
      </g>
     </g>
    </g>
    <g id="ytick_2">
     <g id="line2d_8">
      <g>
       <use xlink:href="#m1cb71b4519" x="28.942188" y="194.680982" style="stroke: #000000; stroke-width: 0.8"/>
      </g>
     </g>
     <g id="text_8">
      <!-- −1 -->
      <g transform="translate(7.2 198.480201) scale(0.1 -0.1)">
       <use xlink:href="#DejaVuSans-2212"/>
       <use xlink:href="#DejaVuSans-31" x="83.789062"/>
      </g>
     </g>
    </g>
    <g id="ytick_3">
     <g id="line2d_9">
      <g>
       <use xlink:href="#m1cb71b4519" x="28.942188" y="133.453728" style="stroke: #000000; stroke-width: 0.8"/>
      </g>
     </g>
     <g id="text_9">
      <!-- 0 -->
      <g transform="translate(15.579688 137.252946) scale(0.1 -0.1)">
       <use xlink:href="#DejaVuSans-30"/>
      </g>
     </g>
    </g>
    <g id="ytick_4">
     <g id="line2d_10">
      <g>
       <use xlink:href="#m1cb71b4519" x="28.942188" y="72.226473" style="stroke: #000000; stroke-width: 0.8"/>
      </g>
     </g>
     <g id="text_10">
      <!-- 1 -->
      <g transform="translate(15.579688 76.025692) scale(0.1 -0.1)">
       <use xlink:href="#DejaVuSans-31"/>
      </g>
     </g>
    </g>
    <g id="ytick_5">
     <g id="line2d_11">
      <g>
       <use xlink:href="#m1cb71b4519" x="28.942188" y="10.999219" style="stroke: #000000; stroke-width: 0.8"/>
      </g>
     </g>
     <g id="text_11">
      <!-- 2 -->
      <g transform="translate(15.579688 14.798438) scale(0.1 -0.1)">
       <use xlink:href="#DejaVuSans-32"/>
      </g>
     </g>
    </g>
   </g>
   <g id="line2d_12">
    <path d="M 59.378551 201.023562 
L 71.801557 193.783519 
L 84.224562 185.837442 
L 96.647568 177.630901 
L 109.070573 169.602069 
L 121.493579 162.153764 
L 133.916585 155.626767 
L 146.33959 150.277752 
L 158.762596 146.264897 
L 171.185601 143.642989 
L 183.608607 142.368413 
L 196.031612 142.313147 
L 208.454618 143.285391 
L 220.877623 145.053809 
L 233.300629 147.372007 
L 245.723635 150.000364 
L 258.14664 152.723021 
L 270.569646 155.358892 
L 282.992651 157.766575 
L 295.415657 159.844058 
L 307.838662 161.524299 
L 320.261668 162.768431 
L 332.684674 163.557791 
L 345.107679 163.886063 
L 357.530685 163.752236 
L 369.95369 163.154926 
L 382.376696 162.088255 
L 394.799701 160.539379 
L 407.222707 158.487736 
L 419.645713 155.905967 
L 432.068718 152.762391 
L 444.491724 149.025002 
L 456.914729 144.666691 
L 469.337735 139.671345 
L 481.76074 134.040362 
L 494.183746 127.798927 
L 506.606752 121.001359 
L 519.029757 113.734758 
L 531.452763 106.120149 
L 543.875768 98.310564 
L 556.298774 90.485617 
L 568.721779 82.842557 
L 581.144785 75.584262 
L 593.56779 68.905068 
L 605.990796 62.975949 
L 618.413802 57.930672 
L 630.836807 53.855012 
L 643.259813 50.780545 
L 655.682818 48.684331 
L 668.105824 47.494741 
" clip-path="url(#p7f1cb9bab1)" style="fill: none; stroke: #1f77b4; stroke-opacity: 0.5; stroke-width: 1.5; stroke-linecap: square"/>
   </g>
   <g id="line2d_13">
    <path d="M 59.378551 131.047134 
L 71.801557 135.075102 
L 84.224562 138.169087 
L 96.647568 140.072343 
L 109.070573 140.616585 
L 121.493579 139.741508 
L 133.916585 137.506871 
L 146.33959 134.095588 
L 158.762596 129.80702 
L 171.185601 125.040474 
L 183.608607 120.26992 
L 196.031612 116.011706 
L 208.454618 112.787954 
L 220.877623 111.088463 
L 233.300629 111.334268 
L 245.723635 113.845561 
L 258.14664 118.81628 
L 270.569646 126.297001 
L 282.992651 136.187085 
L 295.415657 148.236441 
L 307.838662 162.056872 
L 320.261668 177.142323 
L 332.684674 192.897235 
L 345.107679 208.671647 
L 357.530685 223.801078 
L 369.95369 237.64899 
L 382.376696 249.648668 
L 394.799701 259.341312 
L 407.222707 266.406638 
L 419.645713 270.682961 
L 432.068718 272.174054 
L 444.491724 271.04182 
L 456.914729 267.584995 
L 469.337735 262.206071 
L 481.76074 255.37031 
L 494.183746 247.561567 
L 506.606752 239.240632 
L 519.029757 230.810935 
L 531.452763 222.595825 
L 543.875768 214.829441 
L 556.298774 207.661261 
L 568.721779 201.171967 
L 581.144785 195.396604 
L 593.56779 190.349724 
L 605.990796 186.047005 
L 618.413802 182.518773 
L 630.836807 179.81219 
L 643.259813 177.981565 
L 655.682818 177.068234 
L 668.105824 177.074061 
" clip-path="url(#p7f1cb9bab1)" style="fill: none; stroke: #ff7f0e; stroke-opacity: 0.5; stroke-width: 1.5; stroke-linecap: square"/>
   </g>
   <g id="line2d_14">
    <path d="M 59.378551 256.912057 
L 71.801557 260.804337 
L 84.224562 262.650462 
L 96.647568 262.156532 
L 109.070573 259.106682 
L 121.493579 253.383937 
L 133.916585 244.986113 
L 146.33959 234.034138 
L 158.762596 220.770907 
L 171.185601 205.54951 
L 183.608607 188.811415 
L 196.031612 171.056371 
L 208.454618 152.807529 
L 220.877623 134.575898 
L 233.300629 116.828727 
L 245.723635 99.96571 
L 258.14664 84.305893 
L 270.569646 70.086105 
L 282.992651 57.470237 
L 295.415657 46.566476 
L 307.838662 37.448804 
L 320.261668 30.178318 
L 332.684674 24.820353 
L 345.107679 21.454222 
L 357.530685 20.174054 
L 369.95369 21.080587 
L 382.376696 24.265399 
L 394.799701 29.790148 
L 407.222707 37.663754 
L 419.645713 47.820985 
L 432.068718 60.104972 
L 444.491724 74.25595 
L 456.914729 89.907704 
L 469.337735 106.592293 
L 481.76074 123.753391 
L 494.183746 140.767802 
L 506.606752 156.97456 
L 519.029757 171.710393 
L 531.452763 184.34992 
L 543.875768 194.348311 
L 556.298774 201.28318 
L 568.721779 204.892195 
L 581.144785 205.102237 
L 593.56779 202.046137 
L 605.990796 196.063741 
L 618.413802 187.685238 
L 630.836807 177.59663 
L 643.259813 166.589237 
L 655.682818 155.497369 
L 668.105824 145.12983 
" clip-path="url(#p7f1cb9bab1)" style="fill: none; stroke: #2ca02c; stroke-opacity: 0.5; stroke-width: 1.5; stroke-linecap: square"/>
   </g>
   <g id="line2d_15">
    <path d="M 59.378551 141.648467 
L 71.801557 140.109631 
L 84.224562 139.16374 
L 96.647568 138.976449 
L 109.070573 139.641206 
L 121.493579 141.164868 
L 133.916585 143.461148 
L 146.33959 146.352511 
L 158.762596 149.580325 
L 171.185601 152.82231 
L 183.608607 155.715702 
L 196.031612 157.884236 
L 208.454618 158.96685 
L 220.877623 158.646135 
L 233.300629 156.674647 
L 245.723635 152.897312 
L 258.14664 147.268518 
L 270.569646 139.86268 
L 282.992651 130.876995 
L 295.415657 120.625787 
L 307.838662 109.525971 
L 320.261668 98.07383 
L 332.684674 86.814144 
L 345.107679 76.303582 
L 357.530685 67.071148 
L 369.95369 59.579446 
L 382.376696 54.190549 
L 394.799701 51.14048 
L 407.222707 50.525287 
L 419.645713 52.300225 
L 432.068718 56.292247 
L 444.491724 62.223424 
L 456.914729 69.742079 
L 469.337735 78.456924 
L 481.76074 87.969467 
L 494.183746 97.900693 
L 506.606752 107.909344 
L 519.029757 117.700907 
L 531.452763 127.028349 
L 543.875768 135.686731 
L 556.298774 143.504981 
L 568.721779 150.33776 
L 581.144785 156.059702 
L 593.56779 160.563043 
L 605.990796 163.758552 
L 618.413802 165.578438 
L 630.836807 165.979547 
L 643.259813 164.945402 
L 655.682818 162.486127 
L 668.105824 158.636546 
" clip-path="url(#p7f1cb9bab1)" style="fill: none; stroke: #d62728; stroke-opacity: 0.5; stroke-width: 1.5; stroke-linecap: square"/>
   </g>
   <g id="line2d_16">
    <path d="M 59.378551 168.595935 
L 71.801557 166.82357 
L 84.224562 163.982853 
L 96.647568 160.314375 
L 109.070573 156.073735 
L 121.493579 151.518938 
L 133.916585 146.899035 
L 146.33959 142.444558 
L 158.762596 138.359493 
L 171.185601 134.814813 
L 183.608607 131.943515 
L 196.031612 129.837041 
L 208.454618 128.543223 
L 220.877623 128.06566 
L 233.300629 128.364766 
L 245.723635 129.360269 
L 258.14664 130.935305 
L 270.569646 132.941997 
L 282.992651 135.208427 
L 295.415657 137.547106 
L 307.838662 139.764907 
L 320.261668 141.674381 
L 332.684674 143.106326 
L 345.107679 143.922935 
L 357.530685 144.030653 
L 369.95369 143.391403 
L 382.376696 142.030705 
L 394.799701 140.041072 
L 407.222707 137.579653 
L 419.645713 134.85951 
L 432.068718 132.13505 
L 444.491724 129.68281 
L 456.914729 127.779731 
L 469.337735 126.681453 
L 481.76074 126.60305 
L 494.183746 127.704314 
L 506.606752 130.080845 
L 519.029757 133.761073 
L 531.452763 138.708659 
L 543.875768 144.828769 
L 556.298774 151.976531 
L 568.721779 159.965936 
L 581.144785 168.578042 
L 593.56779 177.567675 
L 605.990796 186.668945 
L 618.413802 195.600166 
L 630.836807 204.069288 
L 643.259813 211.781071 
L 655.682818 218.446759 
L 668.105824 223.796725 
" clip-path="url(#p7f1cb9bab1)" style="fill: none; stroke: #9467bd; stroke-opacity: 0.5; stroke-width: 1.5; stroke-linecap: square"/>
   </g>
   <g id="patch_3">
    <path d="M 28.942188 284.774054 
L 28.942188 7.574054 
" style="fill: none; stroke: #000000; stroke-width: 0.8; stroke-linejoin: miter; stroke-linecap: square"/>
   </g>
   <g id="patch_4">
    <path d="M 698.542188 284.774054 
L 698.542188 7.574054 
" style="fill: none; stroke: #000000; stroke-width: 0.8; stroke-linejoin: miter; stroke-linecap: square"/>
   </g>
   <g id="patch_5">
    <path d="M 28.942188 284.774054 
L 698.542188 284.774054 
" style="fill: none; stroke: #000000; stroke-width: 0.8; stroke-linejoin: miter; stroke-linecap: square"/>
   </g>
   <g id="patch_6">
    <path d="M 28.942188 7.574054 
L 698.542188 7.574054 
" style="fill: none; stroke: #000000; stroke-width: 0.8; stroke-linejoin: miter; stroke-linecap: square"/>
   </g>
  </g>
 </g>
 <defs>
  <clipPath id="p7f1cb9bab1">
   <rect x="28.942188" y="7.574054" width="669.6" height="277.2"/>
  </clipPath>
 </defs>
</svg>
