<?xml version="1.0" encoding="utf-8" standalone="no"?>
<!DOCTYPE svg PUBLIC "-//W3C//DTD SVG 1.1//EN"
  "http://www.w3.org/Graphics/SVG/1.1/DTD/svg11.dtd">
<svg xmlns:xlink="http://www.w3.org/1999/xlink" width="715.282813pt" height="308.278125pt" viewBox="0 0 715.282813 308.278125" xmlns="http://www.w3.org/2000/svg" version="1.1">
 <metadata>
  <rdf:RDF xmlns:dc="http://purl.org/dc/elements/1.1/" xmlns:cc="http://creativecommons.org/ns#" xmlns:rdf="http://www.w3.org/1999/02/22-rdf-syntax-ns#">
   <cc:Work>
    <dc:type rdf:resource="http://purl.org/dc/dcmitype/StillImage"/>
    <dc:date>2025-06-14T14:42:07.837477</dc:date>
    <dc:format>image/svg+xml</dc:format>
    <dc:creator>
     <cc:Agent>
      <dc:title>Matplotlib v3.6.1, https://matplotlib.org/</dc:title>
     </cc:Agent>
    </dc:creator>
   </cc:Work>
  </rdf:RDF>
 </metadata>
 <defs>
  <style type="text/css">*{stroke-linejoin: round; stroke-linecap: butt}</style>
 </defs>
 <g id="figure_1">
  <g id="patch_1">
   <path d="M 0 308.278125 
L 715.282813 308.278125 
L 715.282813 0 
L 0 0 
z
" style="fill: #ffffff"/>
  </g>
  <g id="axes_1">
   <g id="patch_2">
    <path d="M 38.482813 284.4 
L 708.082813 284.4 
L 708.082813 7.2 
L 38.482813 7.2 
z
" style="fill: #ffffff"/>
   </g>
   <g id="matplotlib.axis_1">
    <g id="xtick_1">
     <g id="line2d_1">
      <defs>
       <path id="md4bfe330a7" d="M 0 0 
L 0 3.5 
" style="stroke: #000000; stroke-width: 0.8"/>
      </defs>
      <g>
       <use xlink:href="#md4bfe330a7" x="68.919176" y="284.4" style="stroke: #000000; stroke-width: 0.8"/>
      </g>
     </g>
     <g id="text_1">
      <!-- 0 -->
      <g transform="translate(65.737926 298.998438) scale(0.1 -0.1)">
       <defs>
        <path id="DejaVuSans-30" d="M 2034 4250 
Q 1547 4250 1301 3770 
Q 1056 3291 1056 2328 
Q 1056 1369 1301 889 
Q 1547 409 2034 409 
Q 2525 409 2770 889 
Q 3016 1369 3016 2328 
Q 3016 3291 2770 3770 
Q 2525 4250 2034 4250 
z
M 2034 4750 
Q 2819 4750 3233 4129 
Q 3647 3509 3647 2328 
Q 3647 1150 3233 529 
Q 2819 -91 2034 -91 
Q 1250 -91 836 529 
Q 422 1150 422 2328 
Q 422 3509 836 4129 
Q 1250 4750 2034 4750 
z
" transform="scale(0.015625)"/>
       </defs>
       <use xlink:href="#DejaVuSans-30"/>
      </g>
     </g>
    </g>
    <g id="xtick_2">
     <g id="line2d_2">
      <g>
       <use xlink:href="#md4bfe330a7" x="190.664631" y="284.4" style="stroke: #000000; stroke-width: 0.8"/>
      </g>
     </g>
     <g id="text_2">
      <!-- 1 -->
      <g transform="translate(187.483381 298.998438) scale(0.1 -0.1)">
       <defs>
        <path id="DejaVuSans-31" d="M 794 531 
L 1825 531 
L 1825 4091 
L 703 3866 
L 703 4441 
L 1819 4666 
L 2450 4666 
L 2450 531 
L 3481 531 
L 3481 0 
L 794 0 
L 794 531 
z
" transform="scale(0.015625)"/>
       </defs>
       <use xlink:href="#DejaVuSans-31"/>
      </g>
     </g>
    </g>
    <g id="xtick_3">
     <g id="line2d_3">
      <g>
       <use xlink:href="#md4bfe330a7" x="312.410085" y="284.4" style="stroke: #000000; stroke-width: 0.8"/>
      </g>
     </g>
     <g id="text_3">
      <!-- 2 -->
      <g transform="translate(309.228835 298.998438) scale(0.1 -0.1)">
       <defs>
        <path id="DejaVuSans-32" d="M 1228 531 
L 3431 531 
L 3431 0 
L 469 0 
L 469 531 
Q 828 903 1448 1529 
Q 2069 2156 2228 2338 
Q 2531 2678 2651 2914 
Q 2772 3150 2772 3378 
Q 2772 3750 2511 3984 
Q 2250 4219 1831 4219 
Q 1534 4219 1204 4116 
Q 875 4013 500 3803 
L 500 4441 
Q 881 4594 1212 4672 
Q 1544 4750 1819 4750 
Q 2544 4750 2975 4387 
Q 3406 4025 3406 3419 
Q 3406 3131 3298 2873 
Q 3191 2616 2906 2266 
Q 2828 2175 2409 1742 
Q 1991 1309 1228 531 
z
" transform="scale(0.015625)"/>
       </defs>
       <use xlink:href="#DejaVuSans-32"/>
      </g>
     </g>
    </g>
    <g id="xtick_4">
     <g id="line2d_4">
      <g>
       <use xlink:href="#md4bfe330a7" x="434.15554" y="284.4" style="stroke: #000000; stroke-width: 0.8"/>
      </g>
     </g>
     <g id="text_4">
      <!-- 3 -->
      <g transform="translate(430.97429 298.998438) scale(0.1 -0.1)">
       <defs>
        <path id="DejaVuSans-33" d="M 2597 2516 
Q 3050 2419 3304 2112 
Q 3559 1806 3559 1356 
Q 3559 666 3084 287 
Q 2609 -91 1734 -91 
Q 1441 -91 1130 -33 
Q 819 25 488 141 
L 488 750 
Q 750 597 1062 519 
Q 1375 441 1716 441 
Q 2309 441 2620 675 
Q 2931 909 2931 1356 
Q 2931 1769 2642 2001 
Q 2353 2234 1838 2234 
L 1294 2234 
L 1294 2753 
L 1863 2753 
Q 2328 2753 2575 2939 
Q 2822 3125 2822 3475 
Q 2822 3834 2567 4026 
Q 2313 4219 1838 4219 
Q 1578 4219 1281 4162 
Q 984 4106 628 3988 
L 628 4550 
Q 988 4650 1302 4700 
Q 1616 4750 1894 4750 
Q 2613 4750 3031 4423 
Q 3450 4097 3450 3541 
Q 3450 3153 3228 2886 
Q 3006 2619 2597 2516 
z
" transform="scale(0.015625)"/>
       </defs>
       <use xlink:href="#DejaVuSans-33"/>
      </g>
     </g>
    </g>
    <g id="xtick_5">
     <g id="line2d_5">
      <g>
       <use xlink:href="#md4bfe330a7" x="555.900994" y="284.4" style="stroke: #000000; stroke-width: 0.8"/>
      </g>
     </g>
     <g id="text_5">
      <!-- 4 -->
      <g transform="translate(552.719744 298.998438) scale(0.1 -0.1)">
       <defs>
        <path id="DejaVuSans-34" d="M 2419 4116 
L 825 1625 
L 2419 1625 
L 2419 4116 
z
M 2253 4666 
L 3047 4666 
L 3047 1625 
L 3713 1625 
L 3713 1100 
L 3047 1100 
L 3047 0 
L 2419 0 
L 2419 1100 
L 313 1100 
L 313 1709 
L 2253 4666 
z
" transform="scale(0.015625)"/>
       </defs>
       <use xlink:href="#DejaVuSans-34"/>
      </g>
     </g>
    </g>
    <g id="xtick_6">
     <g id="line2d_6">
      <g>
       <use xlink:href="#md4bfe330a7" x="677.646449" y="284.4" style="stroke: #000000; stroke-width: 0.8"/>
      </g>
     </g>
     <g id="text_6">
      <!-- 5 -->
      <g transform="translate(674.465199 298.998438) scale(0.1 -0.1)">
       <defs>
        <path id="DejaVuSans-35" d="M 691 4666 
L 3169 4666 
L 3169 4134 
L 1269 4134 
L 1269 2991 
Q 1406 3038 1543 3061 
Q 1681 3084 1819 3084 
Q 2600 3084 3056 2656 
Q 3513 2228 3513 1497 
Q 3513 744 3044 326 
Q 2575 -91 1722 -91 
Q 1428 -91 1123 -41 
Q 819 9 494 109 
L 494 744 
Q 775 591 1075 516 
Q 1375 441 1709 441 
Q 2250 441 2565 725 
Q 2881 1009 2881 1497 
Q 2881 1984 2565 2268 
Q 2250 2553 1709 2553 
Q 1456 2553 1204 2497 
Q 953 2441 691 2322 
L 691 4666 
z
" transform="scale(0.015625)"/>
       </defs>
       <use xlink:href="#DejaVuSans-35"/>
      </g>
     </g>
    </g>
   </g>
   <g id="matplotlib.axis_2">
    <g id="ytick_1">
     <g id="line2d_7">
      <defs>
       <path id="m16eee4cbac" d="M 0 0 
L -3.5 0 
" style="stroke: #000000; stroke-width: 0.8"/>
      </defs>
      <g>
       <use xlink:href="#m16eee4cbac" x="38.482813" y="254.517145" style="stroke: #000000; stroke-width: 0.8"/>
      </g>
     </g>
     <g id="text_7">
      <!-- −1.5 -->
      <g transform="translate(7.2 258.316363) scale(0.1 -0.1)">
       <defs>
        <path id="DejaVuSans-2212" d="M 678 2272 
L 4684 2272 
L 4684 1741 
L 678 1741 
L 678 2272 
z
" transform="scale(0.015625)"/>
        <path id="DejaVuSans-2e" d="M 684 794 
L 1344 794 
L 1344 0 
L 684 0 
L 684 794 
z
" transform="scale(0.015625)"/>
       </defs>
       <use xlink:href="#DejaVuSans-2212"/>
       <use xlink:href="#DejaVuSans-31" x="83.789062"/>
       <use xlink:href="#DejaVuSans-2e" x="147.412109"/>
       <use xlink:href="#DejaVuSans-35" x="179.199219"/>
      </g>
     </g>
    </g>
    <g id="ytick_2">
     <g id="line2d_8">
      <g>
       <use xlink:href="#m16eee4cbac" x="38.482813" y="220.255827" style="stroke: #000000; stroke-width: 0.8"/>
      </g>
     </g>
     <g id="text_8">
      <!-- −1.0 -->
      <g transform="translate(7.2 224.055046) scale(0.1 -0.1)">
       <use xlink:href="#DejaVuSans-2212"/>
       <use xlink:href="#DejaVuSans-31" x="83.789062"/>
       <use xlink:href="#DejaVuSans-2e" x="147.412109"/>
       <use xlink:href="#DejaVuSans-30" x="179.199219"/>
      </g>
     </g>
    </g>
    <g id="ytick_3">
     <g id="line2d_9">
      <g>
       <use xlink:href="#m16eee4cbac" x="38.482813" y="185.99451" style="stroke: #000000; stroke-width: 0.8"/>
      </g>
     </g>
     <g id="text_9">
      <!-- −0.5 -->
      <g transform="translate(7.2 189.793729) scale(0.1 -0.1)">
       <use xlink:href="#DejaVuSans-2212"/>
       <use xlink:href="#DejaVuSans-30" x="83.789062"/>
       <use xlink:href="#DejaVuSans-2e" x="147.412109"/>
       <use xlink:href="#DejaVuSans-35" x="179.199219"/>
      </g>
     </g>
    </g>
    <g id="ytick_4">
     <g id="line2d_10">
      <g>
       <use xlink:href="#m16eee4cbac" x="38.482813" y="151.733193" style="stroke: #000000; stroke-width: 0.8"/>
      </g>
     </g>
     <g id="text_10">
      <!-- 0.0 -->
      <g transform="translate(15.579688 155.532412) scale(0.1 -0.1)">
       <use xlink:href="#DejaVuSans-30"/>
       <use xlink:href="#DejaVuSans-2e" x="63.623047"/>
       <use xlink:href="#DejaVuSans-30" x="95.410156"/>
      </g>
     </g>
    </g>
    <g id="ytick_5">
     <g id="line2d_11">
      <g>
       <use xlink:href="#m16eee4cbac" x="38.482813" y="117.471876" style="stroke: #000000; stroke-width: 0.8"/>
      </g>
     </g>
     <g id="text_11">
      <!-- 0.5 -->
      <g transform="translate(15.579688 121.271095) scale(0.1 -0.1)">
       <use xlink:href="#DejaVuSans-30"/>
       <use xlink:href="#DejaVuSans-2e" x="63.623047"/>
       <use xlink:href="#DejaVuSans-35" x="95.410156"/>
      </g>
     </g>
    </g>
    <g id="ytick_6">
     <g id="line2d_12">
      <g>
       <use xlink:href="#m16eee4cbac" x="38.482813" y="83.210559" style="stroke: #000000; stroke-width: 0.8"/>
      </g>
     </g>
     <g id="text_12">
      <!-- 1.0 -->
      <g transform="translate(15.579688 87.009778) scale(0.1 -0.1)">
       <use xlink:href="#DejaVuSans-31"/>
       <use xlink:href="#DejaVuSans-2e" x="63.623047"/>
       <use xlink:href="#DejaVuSans-30" x="95.410156"/>
      </g>
     </g>
    </g>
    <g id="ytick_7">
     <g id="line2d_13">
      <g>
       <use xlink:href="#m16eee4cbac" x="38.482813" y="48.949242" style="stroke: #000000; stroke-width: 0.8"/>
      </g>
     </g>
     <g id="text_13">
      <!-- 1.5 -->
      <g transform="translate(15.579688 52.748461) scale(0.1 -0.1)">
       <use xlink:href="#DejaVuSans-31"/>
       <use xlink:href="#DejaVuSans-2e" x="63.623047"/>
       <use xlink:href="#DejaVuSans-35" x="95.410156"/>
      </g>
     </g>
    </g>
    <g id="ytick_8">
     <g id="line2d_14">
      <g>
       <use xlink:href="#m16eee4cbac" x="38.482813" y="14.687925" style="stroke: #000000; stroke-width: 0.8"/>
      </g>
     </g>
     <g id="text_14">
      <!-- 2.0 -->
      <g transform="translate(15.579688 18.487144) scale(0.1 -0.1)">
       <use xlink:href="#DejaVuSans-32"/>
       <use xlink:href="#DejaVuSans-2e" x="63.623047"/>
       <use xlink:href="#DejaVuSans-30" x="95.410156"/>
      </g>
     </g>
    </g>
   </g>
   <g id="line2d_15">
    <path d="M 68.919176 137.206876 
L 81.342182 129.572327 
L 93.765187 122.911746 
L 106.188193 117.624566 
L 118.611198 114.07397 
L 131.034204 112.55535 
L 143.45721 113.266942 
L 155.880215 116.286625 
L 168.303221 121.558068 
L 180.726226 128.889027 
L 193.149232 137.962851 
L 205.572237 148.362639 
L 217.995243 159.605459 
L 230.418248 171.18249 
L 242.841254 182.599852 
L 255.26426 193.414785 
L 267.687265 203.262296 
L 280.110271 211.869258 
L 292.533276 219.05449 
L 304.956282 224.71634 
L 317.379287 228.810641 
L 329.802293 231.324156 
L 342.225299 232.248892 
L 354.648304 231.562571 
L 367.07131 229.219326 
L 379.494315 225.152791 
L 391.917321 219.291225 
L 404.340326 211.582266 
L 416.763332 202.022738 
L 429.186338 190.687823 
L 441.609343 177.754001 
L 454.032349 163.510614 
L 466.455354 148.356922 
L 478.87836 132.783765 
L 491.301365 117.341261 
L 503.724371 102.596295 
L 516.147377 89.085293 
L 528.570382 77.26813 
L 540.993388 67.489087 
L 553.416393 59.949761 
L 565.839399 54.696656 
L 578.262404 51.624746 
L 590.68541 50.495683 
L 603.108415 50.968048 
L 615.531421 52.635548 
L 627.954427 55.068608 
L 640.377432 57.854869 
L 652.800438 60.634593 
L 665.223443 63.127943 
L 677.646449 65.152151 
" clip-path="url(#pc4ae6d8dfd)" style="fill: none; stroke: #1f77b4; stroke-opacity: 0.5; stroke-width: 1.5; stroke-linecap: square"/>
   </g>
   <g id="line2d_16">
    <path d="M 68.919176 182.902362 
L 81.342182 184.471008 
L 93.765187 187.852112 
L 106.188193 192.994278 
L 118.611198 199.73309 
L 131.034204 207.798846 
L 143.45721 216.832044 
L 155.880215 226.405433 
L 168.303221 236.051138 
L 180.726226 245.29115 
L 193.149232 253.668942 
L 205.572237 260.78039 
L 217.995243 266.301394 
L 230.418248 270.009835 
L 242.841254 271.8 
L 255.26426 271.687477 
L 267.687265 269.804096 
L 280.110271 266.382753 
L 292.533276 261.733596 
L 304.956282 256.213678 
L 317.379287 250.193075 
L 329.802293 244.020911 
L 342.225299 237.994516 
L 354.648304 232.335093 
L 367.07131 227.17204 
L 379.494315 222.537558 
L 391.917321 218.371915 
L 404.340326 214.538479 
L 416.763332 210.846793 
L 429.186338 207.080538 
L 441.609343 203.027073 
L 454.032349 198.504741 
L 466.455354 193.384535 
L 478.87836 187.603706 
L 491.301365 181.1701 
L 503.724371 174.157611 
L 516.147377 166.694495 
L 528.570382 158.947385 
L 540.993388 151.104389 
L 553.416393 143.360025 
L 565.839399 135.904271 
L 578.262404 128.916181 
L 590.68541 122.561413 
L 603.108415 116.991599 
L 615.531421 112.343282 
L 627.954427 108.734042 
L 640.377432 106.254671 
L 652.800438 104.95742 
L 665.223443 104.842006 
L 677.646449 105.842117 
" clip-path="url(#pc4ae6d8dfd)" style="fill: none; stroke: #ff7f0e; stroke-opacity: 0.5; stroke-width: 1.5; stroke-linecap: square"/>
   </g>
   <g id="line2d_17">
    <path d="M 68.919176 101.865171 
L 81.342182 100.814377 
L 93.765187 99.527985 
L 106.188193 97.6502 
L 118.611198 94.899063 
L 131.034204 91.102801 
L 143.45721 86.223787 
L 155.880215 80.36786 
L 168.303221 73.778112 
L 180.726226 66.814609 
L 193.149232 59.922382 
L 205.572237 53.591615 
L 217.995243 48.314214 
L 230.418248 44.541423 
L 242.841254 42.646345 
L 255.26426 42.894852 
L 267.687265 45.426942 
L 280.110271 50.249324 
L 292.533276 57.239021 
L 304.956282 66.156353 
L 317.379287 76.665224 
L 329.802293 88.35812 
L 342.225299 100.783357 
L 354.648304 113.472175 
L 367.07131 125.964062 
L 379.494315 137.828855 
L 391.917321 148.684816 
L 404.340326 158.212274 
L 416.763332 166.16263 
L 429.186338 172.362821 
L 441.609343 176.715822 
L 454.032349 179.197845 
L 466.455354 179.8532 
L 478.87836 178.788059 
L 491.301365 176.163992 
L 503.724371 172.192158 
L 516.147377 167.128077 
L 528.570382 161.266561 
L 540.993388 154.935583 
L 553.416393 148.487553 
L 565.839399 142.28674 
L 578.262404 136.692014 
L 590.68541 132.03531 
L 603.108415 128.597511 
L 615.531421 126.584497 
L 627.954427 126.10689 
L 640.377432 127.167307 
L 652.800438 129.657891 
L 665.223443 133.36974 
L 677.646449 138.013925 
" clip-path="url(#pc4ae6d8dfd)" style="fill: none; stroke: #2ca02c; stroke-opacity: 0.5; stroke-width: 1.5; stroke-linecap: square"/>
   </g>
   <g id="line2d_18">
    <path d="M 68.919176 28.688251 
L 81.342182 22.42804 
L 93.765187 19.8 
L 106.188193 20.833023 
L 118.611198 25.425132 
L 131.034204 33.355577 
L 143.45721 44.298879 
L 155.880215 57.839898 
L 168.303221 73.489658 
L 180.726226 90.702392 
L 193.149232 108.894552 
L 205.572237 127.466555 
L 217.995243 145.827169 
L 230.418248 163.420286 
L 242.841254 179.752352 
L 255.26426 194.41861 
L 267.687265 207.125238 
L 280.110271 217.704883 
L 292.533276 226.122943 
L 304.956282 232.472984 
L 317.379287 236.960783 
L 329.802293 239.87762 
L 342.225299 241.565262 
L 354.648304 242.376024 
L 367.07131 242.632494 
L 379.494315 242.591794 
L 391.917321 242.418983 
L 404.340326 242.173299 
L 416.763332 241.809117 
L 429.186338 241.191748 
L 441.609343 240.125767 
L 454.032349 238.392067 
L 466.455354 235.7882 
L 478.87836 232.166168 
L 491.301365 227.462376 
L 503.724371 221.715551 
L 516.147377 215.070156 
L 528.570382 207.765112 
L 540.993388 200.109591 
L 553.416393 192.449433 
L 565.839399 185.128616 
L 578.262404 178.450922 
L 590.68541 172.64651 
L 603.108415 167.847369 
L 615.531421 164.074387 
L 627.954427 161.23725 
L 640.377432 159.147087 
L 652.800438 157.540012 
L 665.223443 156.108896 
L 677.646449 154.539409 
" clip-path="url(#pc4ae6d8dfd)" style="fill: none; stroke: #d62728; stroke-opacity: 0.5; stroke-width: 1.5; stroke-linecap: square"/>
   </g>
   <g id="line2d_19">
    <path d="M 68.919176 243.74992 
L 81.342182 243.854755 
L 93.765187 243.925759 
L 106.188193 244.053216 
L 118.611198 244.33255 
L 131.034204 244.841664 
L 143.45721 245.618973 
L 155.880215 246.645646 
L 168.303221 247.835295 
L 180.726226 249.03338 
L 193.149232 250.027181 
L 205.572237 250.565756 
L 217.995243 250.387264 
L 230.418248 249.250019 
L 242.841254 246.962678 
L 255.26426 243.408948 
L 267.687265 238.563056 
L 280.110271 232.493422 
L 292.533276 225.354189 
L 304.956282 217.365793 
L 317.379287 208.787875 
L 329.802293 199.888684 
L 342.225299 190.9156 
L 354.648304 182.07117 
L 367.07131 173.497689 
L 379.494315 165.272055 
L 391.917321 157.410671 
L 404.340326 149.882857 
L 416.763332 142.62976 
L 429.186338 135.585274 
L 441.609343 128.695458 
L 454.032349 121.933375 
L 466.455354 115.307403 
L 478.87836 108.862041 
L 491.301365 102.671846 
L 503.724371 96.829855 
L 516.147377 91.43306 
L 528.570382 86.567495 
L 540.993388 82.295944 
L 553.416393 78.650248 
L 565.839399 75.629666 
L 578.262404 73.205598 
L 590.68541 71.331628 
L 603.108415 69.957045 
L 615.531421 69.04133 
L 627.954427 68.566861 
L 640.377432 68.547394 
L 652.800438 69.030849 
L 665.223443 70.095778 
L 677.646449 71.842145 
" clip-path="url(#pc4ae6d8dfd)" style="fill: none; stroke: #9467bd; stroke-opacity: 0.5; stroke-width: 1.5; stroke-linecap: square"/>
   </g>
   <g id="patch_3">
    <path d="M 38.482813 284.4 
L 38.482813 7.2 
" style="fill: none; stroke: #000000; stroke-width: 0.8; stroke-linejoin: miter; stroke-linecap: square"/>
   </g>
   <g id="patch_4">
    <path d="M 708.082813 284.4 
L 708.082813 7.2 
" style="fill: none; stroke: #000000; stroke-width: 0.8; stroke-linejoin: miter; stroke-linecap: square"/>
   </g>
   <g id="patch_5">
    <path d="M 38.482813 284.4 
L 708.082813 284.4 
" style="fill: none; stroke: #000000; stroke-width: 0.8; stroke-linejoin: miter; stroke-linecap: square"/>
   </g>
   <g id="patch_6">
    <path d="M 38.482813 7.2 
L 708.082813 7.2 
" style="fill: none; stroke: #000000; stroke-width: 0.8; stroke-linejoin: miter; stroke-linecap: square"/>
   </g>
  </g>
 </g>
 <defs>
  <clipPath id="pc4ae6d8dfd">
   <rect x="38.482813" y="7.2" width="669.6" height="277.2"/>
  </clipPath>
 </defs>
</svg>
