<?xml version="1.0" encoding="utf-8" standalone="no"?>
<!DOCTYPE svg PUBLIC "-//W3C//DTD SVG 1.1//EN"
  "http://www.w3.org/Graphics/SVG/1.1/DTD/svg11.dtd">
<svg xmlns:xlink="http://www.w3.org/1999/xlink" width="231.442188pt" height="169.678125pt" viewBox="0 0 231.442188 169.678125" xmlns="http://www.w3.org/2000/svg" version="1.1">
 <metadata>
  <rdf:RDF xmlns:dc="http://purl.org/dc/elements/1.1/" xmlns:cc="http://creativecommons.org/ns#" xmlns:rdf="http://www.w3.org/1999/02/22-rdf-syntax-ns#">
   <cc:Work>
    <dc:type rdf:resource="http://purl.org/dc/dcmitype/StillImage"/>
    <dc:date>2025-07-11T19:44:33.302665</dc:date>
    <dc:format>image/svg+xml</dc:format>
    <dc:creator>
     <cc:Agent>
      <dc:title>Matplotlib v3.6.1, https://matplotlib.org/</dc:title>
     </cc:Agent>
    </dc:creator>
   </cc:Work>
  </rdf:RDF>
 </metadata>
 <defs>
  <style type="text/css">*{stroke-linejoin: round; stroke-linecap: butt}</style>
 </defs>
 <g id="figure_1">
  <g id="patch_1">
   <path d="M 0 169.678125 
L 231.442188 169.678125 
L 231.442188 0 
L 0 0 
z
" style="fill: #ffffff"/>
  </g>
  <g id="axes_1">
   <g id="patch_2">
    <path d="M 28.942188 145.8 
L 224.242188 145.8 
L 224.242188 7.2 
L 28.942188 7.2 
z
" style="fill: #ffffff"/>
   </g>
   <g id="PolyCollection_1">
    <path d="M 37.81946 20.788592 
L 37.81946 113.43114 
L 38.175263 113.43114 
L 38.531065 113.43114 
L 38.886868 113.43114 
L 39.24267 113.43114 
L 39.598473 113.43114 
L 39.954275 113.43114 
L 40.310078 113.43114 
L 40.66588 113.43114 
L 41.021683 113.43114 
L 41.377485 113.43114 
L 41.733288 113.43114 
L 42.08909 113.43114 
L 42.444893 113.43114 
L 42.800695 113.43114 
L 43.156498 113.43114 
L 43.5123 113.43114 
L 43.868103 113.43114 
L 44.223905 113.43114 
L 44.579708 113.43114 
L 44.935511 113.43114 
L 45.291313 113.43114 
L 45.647116 113.43114 
L 46.002918 113.43114 
L 46.358721 113.43114 
L 46.714523 113.43114 
L 47.070326 113.43114 
L 47.426128 113.43114 
L 47.781931 113.43114 
L 48.137733 113.43114 
L 48.493536 113.43114 
L 48.849338 113.43114 
L 49.205141 113.43114 
L 49.560943 113.43114 
L 49.916746 113.43114 
L 50.272548 113.43114 
L 50.628351 113.43114 
L 50.984153 113.43114 
L 51.339956 113.43114 
L 51.695758 113.43114 
L 52.051561 113.43114 
L 52.407363 113.43114 
L 52.763166 113.43114 
L 53.118968 113.43114 
L 53.474771 113.43114 
L 53.830573 113.43114 
L 54.186376 113.43114 
L 54.542178 113.43114 
L 54.897981 113.43114 
L 55.253783 113.43114 
L 55.609586 113.43114 
L 55.965388 113.43114 
L 56.321191 113.43114 
L 56.676993 113.43114 
L 57.032796 113.43114 
L 57.388599 113.43114 
L 57.744401 113.43114 
L 58.100204 113.43114 
L 58.456006 113.43114 
L 58.811809 113.43114 
L 59.167611 113.43114 
L 59.523414 113.43114 
L 59.879216 113.43114 
L 60.235019 113.43114 
L 60.590821 113.43114 
L 60.946624 113.43114 
L 61.302426 113.43114 
L 61.658229 113.43114 
L 62.014031 113.43114 
L 62.369834 113.43114 
L 62.725636 113.43114 
L 63.081439 113.43114 
L 63.437241 113.43114 
L 63.793044 113.43114 
L 64.148846 113.43114 
L 64.504649 113.43114 
L 64.860451 113.43114 
L 65.216254 113.43114 
L 65.572056 113.43114 
L 65.927859 113.43114 
L 66.283661 113.43114 
L 66.639464 113.43114 
L 66.995266 113.43114 
L 67.351069 113.43114 
L 67.706871 113.43114 
L 68.062674 113.43114 
L 68.418476 113.43114 
L 68.774279 113.43114 
L 69.130081 113.43114 
L 69.485884 113.43114 
L 69.841686 113.43114 
L 70.197489 113.43114 
L 70.553292 113.43114 
L 70.909094 113.43114 
L 71.264897 113.43114 
L 71.620699 113.43114 
L 71.976502 113.43114 
L 72.332304 113.43114 
L 72.688107 113.43114 
L 73.043909 113.43114 
L 73.399712 113.43114 
L 73.755514 113.43114 
L 74.111317 113.43114 
L 74.467119 113.43114 
L 74.822922 113.43114 
L 75.178724 113.43114 
L 75.534527 113.43114 
L 75.890329 113.43114 
L 76.246132 113.43114 
L 76.601934 113.43114 
L 76.957737 113.43114 
L 77.313539 113.43114 
L 77.669342 113.43114 
L 78.025144 113.43114 
L 78.380947 113.43114 
L 78.736749 113.43114 
L 79.092552 113.43114 
L 79.448354 113.43114 
L 79.804157 113.43114 
L 80.159959 113.43114 
L 80.515762 113.43114 
L 80.871564 113.43114 
L 81.227367 113.43114 
L 81.583169 113.43114 
L 81.938972 113.43114 
L 82.294774 113.43114 
L 82.650577 113.43114 
L 83.00638 113.43114 
L 83.362182 113.43114 
L 83.717985 113.43114 
L 84.073787 113.43114 
L 84.42959 113.43114 
L 84.785392 113.43114 
L 85.141195 113.43114 
L 85.496997 113.43114 
L 85.8528 113.43114 
L 86.208602 113.43114 
L 86.564405 113.43114 
L 86.920207 113.43114 
L 87.27601 113.43114 
L 87.631812 113.43114 
L 87.987615 113.43114 
L 88.343417 113.43114 
L 88.69922 113.43114 
L 89.055022 113.43114 
L 89.410825 113.43114 
L 89.766627 113.43114 
L 90.12243 113.43114 
L 90.478232 113.43114 
L 90.834035 113.43114 
L 91.189837 113.43114 
L 91.54564 113.43114 
L 91.901442 113.43114 
L 92.257245 113.43114 
L 92.613047 113.43114 
L 92.96885 113.43114 
L 93.324652 113.43114 
L 93.680455 113.43114 
L 94.036257 113.43114 
L 94.39206 113.43114 
L 94.747862 113.43114 
L 95.103665 113.43114 
L 95.459468 113.43114 
L 95.81527 113.43114 
L 96.171073 113.43114 
L 96.526875 113.43114 
L 96.882678 113.43114 
L 97.23848 113.43114 
L 97.594283 113.43114 
L 97.950085 113.43114 
L 98.305888 113.43114 
L 98.66169 113.43114 
L 99.017493 113.43114 
L 99.373295 113.43114 
L 99.729098 113.43114 
L 100.0849 113.43114 
L 100.440703 113.43114 
L 100.796505 113.43114 
L 101.152308 113.43114 
L 101.50811 113.43114 
L 101.863913 113.43114 
L 102.219715 113.43114 
L 102.575518 113.43114 
L 102.93132 113.43114 
L 103.287123 113.43114 
L 103.642925 113.43114 
L 103.998728 113.43114 
L 104.35453 113.43114 
L 104.710333 113.43114 
L 105.066135 113.43114 
L 105.421938 113.43114 
L 105.77774 113.43114 
L 106.133543 113.43114 
L 106.489345 113.43114 
L 106.845148 113.43114 
L 107.20095 113.43114 
L 107.556753 113.43114 
L 107.912556 113.43114 
L 108.268358 113.43114 
L 108.624161 113.43114 
L 108.979963 113.43114 
L 109.335766 113.43114 
L 109.691568 113.43114 
L 110.047371 113.43114 
L 110.403173 113.43114 
L 110.758976 113.43114 
L 111.114778 113.43114 
L 111.470581 113.43114 
L 111.826383 113.43114 
L 112.182186 113.43114 
L 112.537988 113.43114 
L 112.893791 113.43114 
L 113.249593 113.43114 
L 113.605396 113.43114 
L 113.961198 113.43114 
L 114.317001 113.43114 
L 114.672803 113.43114 
L 115.028606 113.43114 
L 115.384408 113.43114 
L 115.740211 113.43114 
L 116.096013 113.43114 
L 116.451816 113.43114 
L 116.807618 113.43114 
L 117.163421 113.43114 
L 117.519223 113.43114 
L 117.875026 113.43114 
L 118.230828 113.43114 
L 118.586631 113.43114 
L 118.942433 113.43114 
L 119.298236 113.43114 
L 119.654038 113.43114 
L 120.009841 113.43114 
L 120.365644 113.43114 
L 120.721446 113.43114 
L 121.077249 113.43114 
L 121.433051 113.43114 
L 121.788854 113.43114 
L 122.144656 113.43114 
L 122.500459 113.43114 
L 122.856261 113.43114 
L 123.212064 113.43114 
L 123.567866 113.43114 
L 123.923669 113.43114 
L 124.279471 113.43114 
L 124.635274 113.43114 
L 124.991076 113.43114 
L 125.346879 113.43114 
L 125.702681 113.43114 
L 126.058484 113.43114 
L 126.414286 113.43114 
L 126.770089 113.43114 
L 127.125891 113.43114 
L 127.481694 113.43114 
L 127.837496 113.43114 
L 128.193299 113.43114 
L 128.549101 113.43114 
L 128.904904 113.43114 
L 129.260706 113.43114 
L 129.616509 113.43114 
L 129.972311 113.43114 
L 130.328114 113.43114 
L 130.683916 113.43114 
L 131.039719 113.43114 
L 131.395521 113.43114 
L 131.751324 113.43114 
L 132.107126 113.43114 
L 132.462929 113.43114 
L 132.818731 113.43114 
L 133.174534 113.43114 
L 133.530337 113.43114 
L 133.886139 113.43114 
L 134.241942 113.43114 
L 134.597744 113.43114 
L 134.953547 113.43114 
L 135.309349 113.43114 
L 135.665152 113.43114 
L 136.020954 113.43114 
L 136.376757 113.43114 
L 136.732559 113.43114 
L 137.088362 113.43114 
L 137.444164 113.43114 
L 137.799967 113.43114 
L 138.155769 113.43114 
L 138.511572 113.43114 
L 138.867374 113.43114 
L 139.223177 113.43114 
L 139.578979 113.43114 
L 139.934782 113.43114 
L 140.290584 113.43114 
L 140.646387 113.43114 
L 141.002189 113.43114 
L 141.357992 113.43114 
L 141.713794 113.43114 
L 142.069597 113.43114 
L 142.425399 113.43114 
L 142.781202 113.43114 
L 143.137004 113.43114 
L 143.492807 113.43114 
L 143.848609 113.43114 
L 144.204412 113.43114 
L 144.560214 113.43114 
L 144.916017 113.43114 
L 145.271819 113.43114 
L 145.627622 113.43114 
L 145.983425 113.43114 
L 146.339227 113.43114 
L 146.69503 113.43114 
L 147.050832 113.43114 
L 147.406635 113.43114 
L 147.762437 113.43114 
L 148.11824 113.43114 
L 148.474042 113.43114 
L 148.829845 113.43114 
L 149.185647 113.43114 
L 149.54145 113.43114 
L 149.897252 113.43114 
L 150.253055 113.43114 
L 150.608857 113.43114 
L 150.96466 113.43114 
L 151.320462 113.43114 
L 151.676265 113.43114 
L 152.032067 113.43114 
L 152.38787 113.43114 
L 152.743672 113.43114 
L 153.099475 113.43114 
L 153.455277 113.43114 
L 153.81108 113.43114 
L 154.166882 113.43114 
L 154.522685 113.43114 
L 154.878487 113.43114 
L 155.23429 113.43114 
L 155.590092 113.43114 
L 155.945895 113.43114 
L 156.301697 113.43114 
L 156.6575 113.43114 
L 157.013302 113.43114 
L 157.369105 113.43114 
L 157.724907 113.43114 
L 158.08071 113.43114 
L 158.436513 113.43114 
L 158.792315 113.43114 
L 159.148118 113.43114 
L 159.50392 113.43114 
L 159.859723 113.43114 
L 160.215525 113.43114 
L 160.571328 113.43114 
L 160.92713 113.43114 
L 161.282933 113.43114 
L 161.638735 113.43114 
L 161.994538 113.43114 
L 162.35034 113.43114 
L 162.706143 113.43114 
L 163.061945 113.43114 
L 163.417748 113.43114 
L 163.77355 113.43114 
L 164.129353 113.43114 
L 164.485155 113.43114 
L 164.840958 113.43114 
L 165.19676 113.43114 
L 165.552563 113.43114 
L 165.908365 113.43114 
L 166.264168 113.43114 
L 166.61997 113.43114 
L 166.975773 113.43114 
L 167.331575 113.43114 
L 167.687378 113.43114 
L 168.04318 113.43114 
L 168.398983 113.43114 
L 168.754785 113.43114 
L 169.110588 113.43114 
L 169.46639 113.43114 
L 169.822193 113.43114 
L 170.177995 113.43114 
L 170.533798 113.43114 
L 170.889601 113.43114 
L 171.245403 113.43114 
L 171.601206 113.43114 
L 171.957008 113.43114 
L 172.312811 113.43114 
L 172.668613 113.43114 
L 173.024416 113.43114 
L 173.380218 113.43114 
L 173.736021 113.43114 
L 174.091823 113.43114 
L 174.447626 113.43114 
L 174.803428 113.43114 
L 175.159231 113.43114 
L 175.515033 113.43114 
L 175.870836 113.43114 
L 176.226638 113.43114 
L 176.582441 113.43114 
L 176.938243 113.43114 
L 177.294046 113.43114 
L 177.649848 113.43114 
L 178.005651 113.43114 
L 178.361453 113.43114 
L 178.717256 113.43114 
L 179.073058 113.43114 
L 179.428861 113.43114 
L 179.784663 113.43114 
L 180.140466 113.43114 
L 180.496268 113.43114 
L 180.852071 113.43114 
L 181.207873 113.43114 
L 181.563676 113.43114 
L 181.919478 113.43114 
L 182.275281 113.43114 
L 182.631083 113.43114 
L 182.986886 113.43114 
L 183.342689 113.43114 
L 183.698491 113.43114 
L 184.054294 113.43114 
L 184.410096 113.43114 
L 184.765899 113.43114 
L 185.121701 113.43114 
L 185.477504 113.43114 
L 185.833306 113.43114 
L 186.189109 113.43114 
L 186.544911 113.43114 
L 186.900714 113.43114 
L 187.256516 113.43114 
L 187.612319 113.43114 
L 187.968121 113.43114 
L 188.323924 113.43114 
L 188.679726 113.43114 
L 189.035529 113.43114 
L 189.391331 113.43114 
L 189.747134 113.43114 
L 190.102936 113.43114 
L 190.458739 113.43114 
L 190.814541 113.43114 
L 191.170344 113.43114 
L 191.526146 113.43114 
L 191.881949 113.43114 
L 192.237751 113.43114 
L 192.593554 113.43114 
L 192.949356 113.43114 
L 193.305159 113.43114 
L 193.660961 113.43114 
L 194.016764 113.43114 
L 194.372566 113.43114 
L 194.728369 113.43114 
L 195.084171 113.43114 
L 195.439974 113.43114 
L 195.795776 113.43114 
L 196.151579 113.43114 
L 196.507382 113.43114 
L 196.863184 113.43114 
L 197.218987 113.43114 
L 197.574789 113.43114 
L 197.930592 113.43114 
L 198.286394 113.43114 
L 198.642197 113.43114 
L 198.997999 113.43114 
L 199.353802 113.43114 
L 199.709604 113.43114 
L 200.065407 113.43114 
L 200.421209 113.43114 
L 200.777012 113.43114 
L 201.132814 113.43114 
L 201.488617 113.43114 
L 201.844419 113.43114 
L 202.200222 113.43114 
L 202.556024 113.43114 
L 202.911827 113.43114 
L 203.267629 113.43114 
L 203.623432 113.43114 
L 203.979234 113.43114 
L 204.335037 113.43114 
L 204.690839 113.43114 
L 205.046642 113.43114 
L 205.402444 113.43114 
L 205.758247 113.43114 
L 206.114049 113.43114 
L 206.469852 113.43114 
L 206.825654 113.43114 
L 207.181457 113.43114 
L 207.537259 113.43114 
L 207.893062 113.43114 
L 208.248864 113.43114 
L 208.604667 113.43114 
L 208.96047 113.43114 
L 209.316272 113.43114 
L 209.672075 113.43114 
L 210.027877 113.43114 
L 210.38368 113.43114 
L 210.739482 113.43114 
L 211.095285 113.43114 
L 211.451087 113.43114 
L 211.80689 113.43114 
L 212.162692 113.43114 
L 212.518495 113.43114 
L 212.874297 113.43114 
L 213.2301 113.43114 
L 213.585902 113.43114 
L 213.941705 113.43114 
L 214.297507 113.43114 
L 214.65331 113.43114 
L 215.009112 113.43114 
L 215.364915 113.43114 
L 215.364915 20.788592 
L 215.364915 20.788592 
L 215.009112 20.788592 
L 214.65331 20.788592 
L 214.297507 20.788592 
L 213.941705 20.788592 
L 213.585902 20.788592 
L 213.2301 20.788592 
L 212.874297 20.788592 
L 212.518495 20.788592 
L 212.162692 20.788592 
L 211.80689 20.788592 
L 211.451087 20.788592 
L 211.095285 20.788592 
L 210.739482 20.788592 
L 210.38368 20.788592 
L 210.027877 20.788592 
L 209.672075 20.788592 
L 209.316272 20.788592 
L 208.96047 20.788592 
L 208.604667 20.788592 
L 208.248864 20.788592 
L 207.893062 20.788592 
L 207.537259 20.788592 
L 207.181457 20.788592 
L 206.825654 20.788592 
L 206.469852 20.788592 
L 206.114049 20.788592 
L 205.758247 20.788592 
L 205.402444 20.788592 
L 205.046642 20.788592 
L 204.690839 20.788592 
L 204.335037 20.788592 
L 203.979234 20.788592 
L 203.623432 20.788592 
L 203.267629 20.788592 
L 202.911827 20.788592 
L 202.556024 20.788592 
L 202.200222 20.788592 
L 201.844419 20.788592 
L 201.488617 20.788592 
L 201.132814 20.788592 
L 200.777012 20.788592 
L 200.421209 20.788592 
L 200.065407 20.788592 
L 199.709604 20.788592 
L 199.353802 20.788592 
L 198.997999 20.788592 
L 198.642197 20.788592 
L 198.286394 20.788592 
L 197.930592 20.788592 
L 197.574789 20.788592 
L 197.218987 20.788592 
L 196.863184 20.788592 
L 196.507382 20.788592 
L 196.151579 20.788592 
L 195.795776 20.788592 
L 195.439974 20.788592 
L 195.084171 20.788592 
L 194.728369 20.788592 
L 194.372566 20.788592 
L 194.016764 20.788592 
L 193.660961 20.788592 
L 193.305159 20.788592 
L 192.949356 20.788592 
L 192.593554 20.788592 
L 192.237751 20.788592 
L 191.881949 20.788592 
L 191.526146 20.788592 
L 191.170344 20.788592 
L 190.814541 20.788592 
L 190.458739 20.788592 
L 190.102936 20.788592 
L 189.747134 20.788592 
L 189.391331 20.788592 
L 189.035529 20.788592 
L 188.679726 20.788592 
L 188.323924 20.788592 
L 187.968121 20.788592 
L 187.612319 20.788592 
L 187.256516 20.788592 
L 186.900714 20.788592 
L 186.544911 20.788592 
L 186.189109 20.788592 
L 185.833306 20.788592 
L 185.477504 20.788592 
L 185.121701 20.788592 
L 184.765899 20.788592 
L 184.410096 20.788592 
L 184.054294 20.788592 
L 183.698491 20.788592 
L 183.342689 20.788592 
L 182.986886 20.788592 
L 182.631083 20.788592 
L 182.275281 20.788592 
L 181.919478 20.788592 
L 181.563676 20.788592 
L 181.207873 20.788592 
L 180.852071 20.788592 
L 180.496268 20.788592 
L 180.140466 20.788592 
L 179.784663 20.788592 
L 179.428861 20.788592 
L 179.073058 20.788592 
L 178.717256 20.788592 
L 178.361453 20.788592 
L 178.005651 20.788592 
L 177.649848 20.788592 
L 177.294046 20.788592 
L 176.938243 20.788592 
L 176.582441 20.788592 
L 176.226638 20.788592 
L 175.870836 20.788592 
L 175.515033 20.788592 
L 175.159231 20.788592 
L 174.803428 20.788592 
L 174.447626 20.788592 
L 174.091823 20.788592 
L 173.736021 20.788592 
L 173.380218 20.788592 
L 173.024416 20.788592 
L 172.668613 20.788592 
L 172.312811 20.788592 
L 171.957008 20.788592 
L 171.601206 20.788592 
L 171.245403 20.788592 
L 170.889601 20.788592 
L 170.533798 20.788592 
L 170.177995 20.788592 
L 169.822193 20.788592 
L 169.46639 20.788592 
L 169.110588 20.788592 
L 168.754785 20.788592 
L 168.398983 20.788592 
L 168.04318 20.788592 
L 167.687378 20.788592 
L 167.331575 20.788592 
L 166.975773 20.788592 
L 166.61997 20.788592 
L 166.264168 20.788592 
L 165.908365 20.788592 
L 165.552563 20.788592 
L 165.19676 20.788592 
L 164.840958 20.788592 
L 164.485155 20.788592 
L 164.129353 20.788592 
L 163.77355 20.788592 
L 163.417748 20.788592 
L 163.061945 20.788592 
L 162.706143 20.788592 
L 162.35034 20.788592 
L 161.994538 20.788592 
L 161.638735 20.788592 
L 161.282933 20.788592 
L 160.92713 20.788592 
L 160.571328 20.788592 
L 160.215525 20.788592 
L 159.859723 20.788592 
L 159.50392 20.788592 
L 159.148118 20.788592 
L 158.792315 20.788592 
L 158.436513 20.788592 
L 158.08071 20.788592 
L 157.724907 20.788592 
L 157.369105 20.788592 
L 157.013302 20.788592 
L 156.6575 20.788592 
L 156.301697 20.788592 
L 155.945895 20.788592 
L 155.590092 20.788592 
L 155.23429 20.788592 
L 154.878487 20.788592 
L 154.522685 20.788592 
L 154.166882 20.788592 
L 153.81108 20.788592 
L 153.455277 20.788592 
L 153.099475 20.788592 
L 152.743672 20.788592 
L 152.38787 20.788592 
L 152.032067 20.788592 
L 151.676265 20.788592 
L 151.320462 20.788592 
L 150.96466 20.788592 
L 150.608857 20.788592 
L 150.253055 20.788592 
L 149.897252 20.788592 
L 149.54145 20.788592 
L 149.185647 20.788592 
L 148.829845 20.788592 
L 148.474042 20.788592 
L 148.11824 20.788592 
L 147.762437 20.788592 
L 147.406635 20.788592 
L 147.050832 20.788592 
L 146.69503 20.788592 
L 146.339227 20.788592 
L 145.983425 20.788592 
L 145.627622 20.788592 
L 145.271819 20.788592 
L 144.916017 20.788592 
L 144.560214 20.788592 
L 144.204412 20.788592 
L 143.848609 20.788592 
L 143.492807 20.788592 
L 143.137004 20.788592 
L 142.781202 20.788592 
L 142.425399 20.788592 
L 142.069597 20.788592 
L 141.713794 20.788592 
L 141.357992 20.788592 
L 141.002189 20.788592 
L 140.646387 20.788592 
L 140.290584 20.788592 
L 139.934782 20.788592 
L 139.578979 20.788592 
L 139.223177 20.788592 
L 138.867374 20.788592 
L 138.511572 20.788592 
L 138.155769 20.788592 
L 137.799967 20.788592 
L 137.444164 20.788592 
L 137.088362 20.788592 
L 136.732559 20.788592 
L 136.376757 20.788592 
L 136.020954 20.788592 
L 135.665152 20.788592 
L 135.309349 20.788592 
L 134.953547 20.788592 
L 134.597744 20.788592 
L 134.241942 20.788592 
L 133.886139 20.788592 
L 133.530337 20.788592 
L 133.174534 20.788592 
L 132.818731 20.788592 
L 132.462929 20.788592 
L 132.107126 20.788592 
L 131.751324 20.788592 
L 131.395521 20.788592 
L 131.039719 20.788592 
L 130.683916 20.788592 
L 130.328114 20.788592 
L 129.972311 20.788592 
L 129.616509 20.788592 
L 129.260706 20.788592 
L 128.904904 20.788592 
L 128.549101 20.788592 
L 128.193299 20.788592 
L 127.837496 20.788592 
L 127.481694 20.788592 
L 127.125891 20.788592 
L 126.770089 20.788592 
L 126.414286 20.788592 
L 126.058484 20.788592 
L 125.702681 20.788592 
L 125.346879 20.788592 
L 124.991076 20.788592 
L 124.635274 20.788592 
L 124.279471 20.788592 
L 123.923669 20.788592 
L 123.567866 20.788592 
L 123.212064 20.788592 
L 122.856261 20.788592 
L 122.500459 20.788592 
L 122.144656 20.788592 
L 121.788854 20.788592 
L 121.433051 20.788592 
L 121.077249 20.788592 
L 120.721446 20.788592 
L 120.365644 20.788592 
L 120.009841 20.788592 
L 119.654038 20.788592 
L 119.298236 20.788592 
L 118.942433 20.788592 
L 118.586631 20.788592 
L 118.230828 20.788592 
L 117.875026 20.788592 
L 117.519223 20.788592 
L 117.163421 20.788592 
L 116.807618 20.788592 
L 116.451816 20.788592 
L 116.096013 20.788592 
L 115.740211 20.788592 
L 115.384408 20.788592 
L 115.028606 20.788592 
L 114.672803 20.788592 
L 114.317001 20.788592 
L 113.961198 20.788592 
L 113.605396 20.788592 
L 113.249593 20.788592 
L 112.893791 20.788592 
L 112.537988 20.788592 
L 112.182186 20.788592 
L 111.826383 20.788592 
L 111.470581 20.788592 
L 111.114778 20.788592 
L 110.758976 20.788592 
L 110.403173 20.788592 
L 110.047371 20.788592 
L 109.691568 20.788592 
L 109.335766 20.788592 
L 108.979963 20.788592 
L 108.624161 20.788592 
L 108.268358 20.788592 
L 107.912556 20.788592 
L 107.556753 20.788592 
L 107.20095 20.788592 
L 106.845148 20.788592 
L 106.489345 20.788592 
L 106.133543 20.788592 
L 105.77774 20.788592 
L 105.421938 20.788592 
L 105.066135 20.788592 
L 104.710333 20.788592 
L 104.35453 20.788592 
L 103.998728 20.788592 
L 103.642925 20.788592 
L 103.287123 20.788592 
L 102.93132 20.788592 
L 102.575518 20.788592 
L 102.219715 20.788592 
L 101.863913 20.788592 
L 101.50811 20.788592 
L 101.152308 20.788592 
L 100.796505 20.788592 
L 100.440703 20.788592 
L 100.0849 20.788592 
L 99.729098 20.788592 
L 99.373295 20.788592 
L 99.017493 20.788592 
L 98.66169 20.788592 
L 98.305888 20.788592 
L 97.950085 20.788592 
L 97.594283 20.788592 
L 97.23848 20.788592 
L 96.882678 20.788592 
L 96.526875 20.788592 
L 96.171073 20.788592 
L 95.81527 20.788592 
L 95.459468 20.788592 
L 95.103665 20.788592 
L 94.747862 20.788592 
L 94.39206 20.788592 
L 94.036257 20.788592 
L 93.680455 20.788592 
L 93.324652 20.788592 
L 92.96885 20.788592 
L 92.613047 20.788592 
L 92.257245 20.788592 
L 91.901442 20.788592 
L 91.54564 20.788592 
L 91.189837 20.788592 
L 90.834035 20.788592 
L 90.478232 20.788592 
L 90.12243 20.788592 
L 89.766627 20.788592 
L 89.410825 20.788592 
L 89.055022 20.788592 
L 88.69922 20.788592 
L 88.343417 20.788592 
L 87.987615 20.788592 
L 87.631812 20.788592 
L 87.27601 20.788592 
L 86.920207 20.788592 
L 86.564405 20.788592 
L 86.208602 20.788592 
L 85.8528 20.788592 
L 85.496997 20.788592 
L 85.141195 20.788592 
L 84.785392 20.788592 
L 84.42959 20.788592 
L 84.073787 20.788592 
L 83.717985 20.788592 
L 83.362182 20.788592 
L 83.00638 20.788592 
L 82.650577 20.788592 
L 82.294774 20.788592 
L 81.938972 20.788592 
L 81.583169 20.788592 
L 81.227367 20.788592 
L 80.871564 20.788592 
L 80.515762 20.788592 
L 80.159959 20.788592 
L 79.804157 20.788592 
L 79.448354 20.788592 
L 79.092552 20.788592 
L 78.736749 20.788592 
L 78.380947 20.788592 
L 78.025144 20.788592 
L 77.669342 20.788592 
L 77.313539 20.788592 
L 76.957737 20.788592 
L 76.601934 20.788592 
L 76.246132 20.788592 
L 75.890329 20.788592 
L 75.534527 20.788592 
L 75.178724 20.788592 
L 74.822922 20.788592 
L 74.467119 20.788592 
L 74.111317 20.788592 
L 73.755514 20.788592 
L 73.399712 20.788592 
L 73.043909 20.788592 
L 72.688107 20.788592 
L 72.332304 20.788592 
L 71.976502 20.788592 
L 71.620699 20.788592 
L 71.264897 20.788592 
L 70.909094 20.788592 
L 70.553292 20.788592 
L 70.197489 20.788592 
L 69.841686 20.788592 
L 69.485884 20.788592 
L 69.130081 20.788592 
L 68.774279 20.788592 
L 68.418476 20.788592 
L 68.062674 20.788592 
L 67.706871 20.788592 
L 67.351069 20.788592 
L 66.995266 20.788592 
L 66.639464 20.788592 
L 66.283661 20.788592 
L 65.927859 20.788592 
L 65.572056 20.788592 
L 65.216254 20.788592 
L 64.860451 20.788592 
L 64.504649 20.788592 
L 64.148846 20.788592 
L 63.793044 20.788592 
L 63.437241 20.788592 
L 63.081439 20.788592 
L 62.725636 20.788592 
L 62.369834 20.788592 
L 62.014031 20.788592 
L 61.658229 20.788592 
L 61.302426 20.788592 
L 60.946624 20.788592 
L 60.590821 20.788592 
L 60.235019 20.788592 
L 59.879216 20.788592 
L 59.523414 20.788592 
L 59.167611 20.788592 
L 58.811809 20.788592 
L 58.456006 20.788592 
L 58.100204 20.788592 
L 57.744401 20.788592 
L 57.388599 20.788592 
L 57.032796 20.788592 
L 56.676993 20.788592 
L 56.321191 20.788592 
L 55.965388 20.788592 
L 55.609586 20.788592 
L 55.253783 20.788592 
L 54.897981 20.788592 
L 54.542178 20.788592 
L 54.186376 20.788592 
L 53.830573 20.788592 
L 53.474771 20.788592 
L 53.118968 20.788592 
L 52.763166 20.788592 
L 52.407363 20.788592 
L 52.051561 20.788592 
L 51.695758 20.788592 
L 51.339956 20.788592 
L 50.984153 20.788592 
L 50.628351 20.788592 
L 50.272548 20.788592 
L 49.916746 20.788592 
L 49.560943 20.788592 
L 49.205141 20.788592 
L 48.849338 20.788592 
L 48.493536 20.788592 
L 48.137733 20.788592 
L 47.781931 20.788592 
L 47.426128 20.788592 
L 47.070326 20.788592 
L 46.714523 20.788592 
L 46.358721 20.788592 
L 46.002918 20.788592 
L 45.647116 20.788592 
L 45.291313 20.788592 
L 44.935511 20.788592 
L 44.579708 20.788592 
L 44.223905 20.788592 
L 43.868103 20.788592 
L 43.5123 20.788592 
L 43.156498 20.788592 
L 42.800695 20.788592 
L 42.444893 20.788592 
L 42.08909 20.788592 
L 41.733288 20.788592 
L 41.377485 20.788592 
L 41.021683 20.788592 
L 40.66588 20.788592 
L 40.310078 20.788592 
L 39.954275 20.788592 
L 39.598473 20.788592 
L 39.24267 20.788592 
L 38.886868 20.788592 
L 38.531065 20.788592 
L 38.175263 20.788592 
L 37.81946 20.788592 
z
" clip-path="url(#pa99ec8b792)" style="fill: #1f77b4; fill-opacity: 0.25"/>
   </g>
   <g id="matplotlib.axis_1">
    <g id="xtick_1">
     <g id="line2d_1">
      <defs>
       <path id="m9c7dc03542" d="M 0 0 
L 0 3.5 
" style="stroke: #000000; stroke-width: 0.8"/>
      </defs>
      <g>
       <use xlink:href="#m9c7dc03542" x="37.81946" y="145.8" style="stroke: #000000; stroke-width: 0.8"/>
      </g>
     </g>
     <g id="text_1">
      <!-- 0 -->
      <g transform="translate(34.63821 160.398438) scale(0.1 -0.1)">
       <defs>
        <path id="DejaVuSans-30" d="M 2034 4250 
Q 1547 4250 1301 3770 
Q 1056 3291 1056 2328 
Q 1056 1369 1301 889 
Q 1547 409 2034 409 
Q 2525 409 2770 889 
Q 3016 1369 3016 2328 
Q 3016 3291 2770 3770 
Q 2525 4250 2034 4250 
z
M 2034 4750 
Q 2819 4750 3233 4129 
Q 3647 3509 3647 2328 
Q 3647 1150 3233 529 
Q 2819 -91 2034 -91 
Q 1250 -91 836 529 
Q 422 1150 422 2328 
Q 422 3509 836 4129 
Q 1250 4750 2034 4750 
z
" transform="scale(0.015625)"/>
       </defs>
       <use xlink:href="#DejaVuSans-30"/>
      </g>
     </g>
    </g>
    <g id="xtick_2">
     <g id="line2d_2">
      <g>
       <use xlink:href="#m9c7dc03542" x="73.328551" y="145.8" style="stroke: #000000; stroke-width: 0.8"/>
      </g>
     </g>
     <g id="text_2">
      <!-- 1 -->
      <g transform="translate(70.147301 160.398438) scale(0.1 -0.1)">
       <defs>
        <path id="DejaVuSans-31" d="M 794 531 
L 1825 531 
L 1825 4091 
L 703 3866 
L 703 4441 
L 1819 4666 
L 2450 4666 
L 2450 531 
L 3481 531 
L 3481 0 
L 794 0 
L 794 531 
z
" transform="scale(0.015625)"/>
       </defs>
       <use xlink:href="#DejaVuSans-31"/>
      </g>
     </g>
    </g>
    <g id="xtick_3">
     <g id="line2d_3">
      <g>
       <use xlink:href="#m9c7dc03542" x="108.837642" y="145.8" style="stroke: #000000; stroke-width: 0.8"/>
      </g>
     </g>
     <g id="text_3">
      <!-- 2 -->
      <g transform="translate(105.656392 160.398438) scale(0.1 -0.1)">
       <defs>
        <path id="DejaVuSans-32" d="M 1228 531 
L 3431 531 
L 3431 0 
L 469 0 
L 469 531 
Q 828 903 1448 1529 
Q 2069 2156 2228 2338 
Q 2531 2678 2651 2914 
Q 2772 3150 2772 3378 
Q 2772 3750 2511 3984 
Q 2250 4219 1831 4219 
Q 1534 4219 1204 4116 
Q 875 4013 500 3803 
L 500 4441 
Q 881 4594 1212 4672 
Q 1544 4750 1819 4750 
Q 2544 4750 2975 4387 
Q 3406 4025 3406 3419 
Q 3406 3131 3298 2873 
Q 3191 2616 2906 2266 
Q 2828 2175 2409 1742 
Q 1991 1309 1228 531 
z
" transform="scale(0.015625)"/>
       </defs>
       <use xlink:href="#DejaVuSans-32"/>
      </g>
     </g>
    </g>
    <g id="xtick_4">
     <g id="line2d_4">
      <g>
       <use xlink:href="#m9c7dc03542" x="144.346733" y="145.8" style="stroke: #000000; stroke-width: 0.8"/>
      </g>
     </g>
     <g id="text_4">
      <!-- 3 -->
      <g transform="translate(141.165483 160.398438) scale(0.1 -0.1)">
       <defs>
        <path id="DejaVuSans-33" d="M 2597 2516 
Q 3050 2419 3304 2112 
Q 3559 1806 3559 1356 
Q 3559 666 3084 287 
Q 2609 -91 1734 -91 
Q 1441 -91 1130 -33 
Q 819 25 488 141 
L 488 750 
Q 750 597 1062 519 
Q 1375 441 1716 441 
Q 2309 441 2620 675 
Q 2931 909 2931 1356 
Q 2931 1769 2642 2001 
Q 2353 2234 1838 2234 
L 1294 2234 
L 1294 2753 
L 1863 2753 
Q 2328 2753 2575 2939 
Q 2822 3125 2822 3475 
Q 2822 3834 2567 4026 
Q 2313 4219 1838 4219 
Q 1578 4219 1281 4162 
Q 984 4106 628 3988 
L 628 4550 
Q 988 4650 1302 4700 
Q 1616 4750 1894 4750 
Q 2613 4750 3031 4423 
Q 3450 4097 3450 3541 
Q 3450 3153 3228 2886 
Q 3006 2619 2597 2516 
z
" transform="scale(0.015625)"/>
       </defs>
       <use xlink:href="#DejaVuSans-33"/>
      </g>
     </g>
    </g>
    <g id="xtick_5">
     <g id="line2d_5">
      <g>
       <use xlink:href="#m9c7dc03542" x="179.855824" y="145.8" style="stroke: #000000; stroke-width: 0.8"/>
      </g>
     </g>
     <g id="text_5">
      <!-- 4 -->
      <g transform="translate(176.674574 160.398438) scale(0.1 -0.1)">
       <defs>
        <path id="DejaVuSans-34" d="M 2419 4116 
L 825 1625 
L 2419 1625 
L 2419 4116 
z
M 2253 4666 
L 3047 4666 
L 3047 1625 
L 3713 1625 
L 3713 1100 
L 3047 1100 
L 3047 0 
L 2419 0 
L 2419 1100 
L 313 1100 
L 313 1709 
L 2253 4666 
z
" transform="scale(0.015625)"/>
       </defs>
       <use xlink:href="#DejaVuSans-34"/>
      </g>
     </g>
    </g>
    <g id="xtick_6">
     <g id="line2d_6">
      <g>
       <use xlink:href="#m9c7dc03542" x="215.364915" y="145.8" style="stroke: #000000; stroke-width: 0.8"/>
      </g>
     </g>
     <g id="text_6">
      <!-- 5 -->
      <g transform="translate(212.183665 160.398438) scale(0.1 -0.1)">
       <defs>
        <path id="DejaVuSans-35" d="M 691 4666 
L 3169 4666 
L 3169 4134 
L 1269 4134 
L 1269 2991 
Q 1406 3038 1543 3061 
Q 1681 3084 1819 3084 
Q 2600 3084 3056 2656 
Q 3513 2228 3513 1497 
Q 3513 744 3044 326 
Q 2575 -91 1722 -91 
Q 1428 -91 1123 -41 
Q 819 9 494 109 
L 494 744 
Q 775 591 1075 516 
Q 1375 441 1709 441 
Q 2250 441 2565 725 
Q 2881 1009 2881 1497 
Q 2881 1984 2565 2268 
Q 2250 2553 1709 2553 
Q 1456 2553 1204 2497 
Q 953 2441 691 2322 
L 691 4666 
z
" transform="scale(0.015625)"/>
       </defs>
       <use xlink:href="#DejaVuSans-35"/>
      </g>
     </g>
    </g>
   </g>
   <g id="matplotlib.axis_2">
    <g id="ytick_1">
     <g id="line2d_7">
      <defs>
       <path id="mdba6ea6f1c" d="M 0 0 
L -3.5 0 
" style="stroke: #000000; stroke-width: 0.8"/>
      </defs>
      <g>
       <use xlink:href="#mdba6ea6f1c" x="28.942188" y="136.591777" style="stroke: #000000; stroke-width: 0.8"/>
      </g>
     </g>
     <g id="text_7">
      <!-- −3 -->
      <g transform="translate(7.2 140.390996) scale(0.1 -0.1)">
       <defs>
        <path id="DejaVuSans-2212" d="M 678 2272 
L 4684 2272 
L 4684 1741 
L 678 1741 
L 678 2272 
z
" transform="scale(0.015625)"/>
       </defs>
       <use xlink:href="#DejaVuSans-2212"/>
       <use xlink:href="#DejaVuSans-33" x="83.789062"/>
      </g>
     </g>
    </g>
    <g id="ytick_2">
     <g id="line2d_8">
      <g>
       <use xlink:href="#mdba6ea6f1c" x="28.942188" y="113.43114" style="stroke: #000000; stroke-width: 0.8"/>
      </g>
     </g>
     <g id="text_8">
      <!-- −2 -->
      <g transform="translate(7.2 117.230359) scale(0.1 -0.1)">
       <use xlink:href="#DejaVuSans-2212"/>
       <use xlink:href="#DejaVuSans-32" x="83.789062"/>
      </g>
     </g>
    </g>
    <g id="ytick_3">
     <g id="line2d_9">
      <g>
       <use xlink:href="#mdba6ea6f1c" x="28.942188" y="90.270503" style="stroke: #000000; stroke-width: 0.8"/>
      </g>
     </g>
     <g id="text_9">
      <!-- −1 -->
      <g transform="translate(7.2 94.069722) scale(0.1 -0.1)">
       <use xlink:href="#DejaVuSans-2212"/>
       <use xlink:href="#DejaVuSans-31" x="83.789062"/>
      </g>
     </g>
    </g>
    <g id="ytick_4">
     <g id="line2d_10">
      <g>
       <use xlink:href="#mdba6ea6f1c" x="28.942188" y="67.109866" style="stroke: #000000; stroke-width: 0.8"/>
      </g>
     </g>
     <g id="text_10">
      <!-- 0 -->
      <g transform="translate(15.579688 70.909085) scale(0.1 -0.1)">
       <use xlink:href="#DejaVuSans-30"/>
      </g>
     </g>
    </g>
    <g id="ytick_5">
     <g id="line2d_11">
      <g>
       <use xlink:href="#mdba6ea6f1c" x="28.942188" y="43.949229" style="stroke: #000000; stroke-width: 0.8"/>
      </g>
     </g>
     <g id="text_11">
      <!-- 1 -->
      <g transform="translate(15.579688 47.748448) scale(0.1 -0.1)">
       <use xlink:href="#DejaVuSans-31"/>
      </g>
     </g>
    </g>
    <g id="ytick_6">
     <g id="line2d_12">
      <g>
       <use xlink:href="#mdba6ea6f1c" x="28.942188" y="20.788592" style="stroke: #000000; stroke-width: 0.8"/>
      </g>
     </g>
     <g id="text_12">
      <!-- 2 -->
      <g transform="translate(15.579688 24.587811) scale(0.1 -0.1)">
       <use xlink:href="#DejaVuSans-32"/>
      </g>
     </g>
    </g>
   </g>
   <g id="line2d_13">
    <path d="M 37.81946 56.649157 
L 43.868103 46.461767 
L 50.984153 34.158651 
L 52.763166 31.575661 
L 54.542178 29.412647 
L 55.965388 28.040385 
L 57.388599 27.014203 
L 58.456006 26.476624 
L 59.523414 26.134401 
L 60.590821 25.978417 
L 62.014031 26.035229 
L 63.437241 26.353172 
L 65.216254 27.035602 
L 67.351069 28.122123 
L 73.043909 31.168877 
L 75.178724 32.028173 
L 77.313539 32.640267 
L 79.092552 32.943288 
L 80.871564 33.043898 
L 82.650577 32.925394 
L 84.42959 32.568621 
L 86.208602 31.957876 
L 87.987615 31.090636 
L 89.766627 29.988809 
L 92.257245 28.166288 
L 95.81527 25.556998 
L 97.23848 24.754762 
L 98.66169 24.226397 
L 99.729098 24.063189 
L 100.796505 24.137292 
L 101.863913 24.477187 
L 102.93132 25.104927 
L 103.998728 26.035074 
L 105.066135 27.27387 
L 106.133543 28.81883 
L 107.556753 31.334463 
L 108.979963 34.324167 
L 110.758976 38.616027 
L 113.249593 45.33111 
L 118.942433 60.988923 
L 121.077249 66.074131 
L 122.856261 69.758085 
L 124.635274 72.893765 
L 126.058484 75.008157 
L 127.481694 76.791205 
L 128.904904 78.273523 
L 130.683916 79.765195 
L 132.462929 80.941973 
L 134.597744 82.079125 
L 141.357992 85.441872 
L 143.848609 87.0625 
L 146.69503 89.215772 
L 152.032067 93.364266 
L 154.166882 94.695547 
L 155.945895 95.535277 
L 157.724907 96.091333 
L 159.148118 96.324836 
L 160.92713 96.363125 
L 162.706143 96.149126 
L 164.840958 95.622625 
L 167.331575 94.749769 
L 178.005651 90.660278 
L 181.207873 89.863128 
L 189.747134 87.961415 
L 191.526146 87.245822 
L 193.305159 86.286805 
L 195.084171 85.034593 
L 196.863184 83.452173 
L 198.642197 81.518343 
L 200.421209 79.229395 
L 202.200222 76.599464 
L 204.335037 73.038444 
L 206.825654 68.432702 
L 210.739482 60.629978 
L 215.009112 52.186989 
L 215.364915 51.52024 
L 215.364915 51.52024 
" clip-path="url(#pa99ec8b792)" style="fill: none; stroke: #000000; stroke-opacity: 0.5; stroke-width: 1.5; stroke-linecap: square"/>
   </g>
   <g id="line2d_14">
    <path d="M 37.81946 54.561371 
L 38.886868 55.814798 
L 39.954275 56.772592 
L 41.021683 57.40837 
L 42.08909 57.704532 
L 42.800695 57.708763 
L 43.5123 57.557897 
L 44.579708 57.044718 
L 45.647116 56.199074 
L 46.714523 55.041749 
L 48.137733 53.063549 
L 49.560943 50.666608 
L 51.339956 47.235984 
L 58.100204 33.626397 
L 59.523414 31.384427 
L 60.946624 29.554064 
L 62.014031 28.481137 
L 63.081439 27.677903 
L 64.148846 27.146571 
L 65.216254 26.880776 
L 66.283661 26.865863 
L 67.351069 27.079545 
L 68.418476 27.492854 
L 69.841686 28.29452 
L 71.620699 29.569841 
L 76.601934 33.310887 
L 78.380947 34.303711 
L 80.159959 35.035354 
L 82.294774 35.647658 
L 85.496997 36.519974 
L 86.920207 37.144992 
L 87.987615 37.806245 
L 89.055022 38.682334 
L 90.12243 39.813341 
L 91.189837 41.232648 
L 92.257245 42.965111 
L 93.680455 45.786306 
L 95.103665 49.193781 
L 96.526875 53.15531 
L 98.305888 58.77987 
L 100.796505 67.533627 
L 105.77774 85.347973 
L 107.556753 90.904651 
L 109.335766 95.685226 
L 110.758976 98.858923 
L 112.182186 101.411458 
L 113.249593 102.909766 
L 114.317001 104.053867 
L 115.384408 104.852033 
L 116.451816 105.316874 
L 117.519223 105.464017 
L 118.586631 105.31097 
L 119.654038 104.876161 
L 120.721446 104.178161 
L 121.788854 103.23523 
L 123.212064 101.6275 
L 124.635274 99.656382 
L 126.414286 96.742583 
L 128.193299 93.40481 
L 130.683916 88.191213 
L 135.309349 77.756877 
L 138.511572 70.844132 
L 140.646387 66.72194 
L 142.425399 63.683619 
L 144.204412 61.040783 
L 145.983425 58.798695 
L 147.762437 56.944681 
L 149.54145 55.459412 
L 150.96466 54.527019 
L 152.38787 53.821609 
L 153.81108 53.352198 
L 155.23429 53.137385 
L 156.6575 53.204235 
L 157.724907 53.458716 
L 158.792315 53.904332 
L 159.859723 54.554524 
L 160.92713 55.420375 
L 162.35034 56.922165 
L 163.77355 58.821965 
L 165.19676 61.100747 
L 166.975773 64.412943 
L 169.46639 69.642181 
L 173.024416 77.185596 
L 174.803428 80.382622 
L 175.870836 81.950311 
L 176.938243 83.183726 
L 178.005651 84.030942 
L 178.717256 84.358979 
L 179.428861 84.484619 
L 180.140466 84.398991 
L 180.852071 84.095395 
L 181.563676 83.569425 
L 182.275281 82.819059 
L 183.342689 81.274349 
L 184.410096 79.238046 
L 185.477504 76.734209 
L 186.900714 72.731814 
L 188.323924 68.076868 
L 190.458739 60.187481 
L 197.218987 34.152956 
L 198.997999 28.563197 
L 200.421209 24.795272 
L 201.844419 21.72598 
L 202.911827 19.903752 
L 203.979234 18.49661 
L 205.046642 17.498151 
L 206.114049 16.893833 
L 206.825654 16.699499 
L 207.537259 16.662943 
L 208.604667 16.884263 
L 209.672075 17.407069 
L 210.739482 18.195228 
L 212.162692 19.593439 
L 213.585902 21.305773 
L 215.364915 23.755081 
L 215.364915 23.755081 
" clip-path="url(#pa99ec8b792)" style="fill: none; stroke: #000000; stroke-opacity: 0.5; stroke-width: 1.5; stroke-linecap: square"/>
   </g>
   <g id="line2d_15">
    <path d="M 37.81946 75.472902 
L 39.598473 78.016303 
L 42.08909 82.022935 
L 54.542178 102.997246 
L 57.032796 107.919979 
L 59.523414 113.381777 
L 67.351069 131.202843 
L 69.130081 134.381723 
L 70.553292 136.438341 
L 71.620699 137.655638 
L 72.688107 138.57343 
L 73.755514 139.180453 
L 74.822922 139.472427 
L 75.890329 139.451904 
L 76.957737 139.127768 
L 78.025144 138.514611 
L 79.092552 137.631904 
L 80.515762 136.076527 
L 81.938972 134.147074 
L 83.717985 131.313834 
L 85.8528 127.476442 
L 94.747862 110.916436 
L 96.526875 108.253917 
L 98.305888 106.02562 
L 99.729098 104.608998 
L 101.152308 103.55326 
L 102.219715 103.011528 
L 103.287123 102.688468 
L 104.35453 102.581785 
L 105.421938 102.68266 
L 106.489345 102.975115 
L 107.912556 103.621714 
L 109.691568 104.732947 
L 113.961198 107.615041 
L 115.384408 108.236164 
L 116.451816 108.476239 
L 117.519223 108.482144 
L 118.586631 108.226825 
L 119.654038 107.693759 
L 120.721446 106.878004 
L 121.788854 105.786767 
L 123.212064 103.938272 
L 124.635274 101.7124 
L 126.770089 97.906911 
L 130.328114 91.455691 
L 131.751324 89.248541 
L 133.174534 87.441807 
L 134.241942 86.406941 
L 135.309349 85.679204 
L 136.376757 85.276962 
L 137.444164 85.208091 
L 138.511572 85.470125 
L 139.578979 86.050679 
L 140.646387 86.92824 
L 141.713794 88.073096 
L 143.137004 89.950809 
L 144.916017 92.714572 
L 150.608857 101.98652 
L 152.032067 103.747656 
L 153.099475 104.775717 
L 154.166882 105.508267 
L 155.23429 105.91224 
L 155.945895 105.986111 
L 156.6575 105.897034 
L 157.369105 105.641418 
L 158.08071 105.217607 
L 159.148118 104.267885 
L 160.215525 102.950996 
L 161.282933 101.287577 
L 162.706143 98.585749 
L 164.485155 94.57713 
L 166.975773 88.254875 
L 170.177995 80.147156 
L 171.957008 76.268661 
L 173.380218 73.730356 
L 174.447626 72.231643 
L 175.515033 71.121641 
L 176.226638 70.611105 
L 176.938243 70.29057 
L 177.649848 70.163163 
L 178.361453 70.229921 
L 179.073058 70.489797 
L 179.784663 70.939719 
L 180.852071 71.959427 
L 181.919478 73.370258 
L 182.986886 75.138812 
L 184.410096 77.981213 
L 186.189109 82.146413 
L 189.035529 89.594287 
L 191.881949 96.961721 
L 193.660961 101.001459 
L 195.084171 103.7125 
L 196.151579 105.372972 
L 197.218987 106.676534 
L 198.286394 107.600438 
L 198.997999 107.999146 
L 199.709604 108.222924 
L 200.421209 108.27334 
L 201.132814 108.154217 
L 201.844419 107.871545 
L 202.911827 107.159104 
L 203.979234 106.132589 
L 205.402444 104.351768 
L 207.181457 101.636213 
L 213.585902 91.172119 
L 215.009112 89.382601 
L 215.364915 88.98682 
L 215.364915 88.98682 
" clip-path="url(#pa99ec8b792)" style="fill: none; stroke: #000000; stroke-opacity: 0.5; stroke-width: 1.5; stroke-linecap: square"/>
   </g>
   <g id="line2d_16">
    <path d="M 37.81946 50.017257 
L 39.24267 49.825854 
L 40.66588 49.839488 
L 42.444893 50.091338 
L 44.935511 50.708458 
L 48.137733 51.488863 
L 49.916746 51.684318 
L 51.339956 51.625367 
L 52.763166 51.32517 
L 54.186376 50.746634 
L 55.609586 49.862329 
L 57.032796 48.655646 
L 58.456006 47.122208 
L 59.879216 45.2714 
L 61.658229 42.551118 
L 63.793044 38.810162 
L 69.841686 27.74817 
L 71.264897 25.716618 
L 72.332304 24.505475 
L 73.399712 23.621199 
L 74.111317 23.237365 
L 74.822922 23.033162 
L 75.534527 23.0198 
L 76.246132 23.206689 
L 76.957737 23.601211 
L 77.669342 24.208553 
L 78.736749 25.524035 
L 79.804157 27.322857 
L 80.871564 29.590624 
L 82.294774 33.294062 
L 83.717985 37.679946 
L 85.496997 43.911598 
L 88.69922 56.207068 
L 91.54564 66.833438 
L 93.324652 72.676909 
L 94.747862 76.690595 
L 96.171073 80.016836 
L 97.23848 82.028587 
L 98.305888 83.617931 
L 99.373295 84.790326 
L 100.440703 85.562227 
L 101.50811 85.959756 
L 102.575518 86.017069 
L 103.642925 85.774567 
L 104.710333 85.277072 
L 106.133543 84.29917 
L 107.912556 82.731807 
L 113.605396 77.399563 
L 115.028606 76.423796 
L 116.451816 75.708734 
L 117.875026 75.289296 
L 118.942433 75.182087 
L 120.009841 75.257497 
L 121.077249 75.515204 
L 122.500459 76.133557 
L 123.923669 77.043486 
L 125.346879 78.207469 
L 127.125891 79.941227 
L 130.683916 83.844023 
L 133.174534 86.408723 
L 134.953547 87.908649 
L 136.376757 88.825123 
L 137.799967 89.451429 
L 139.223177 89.774171 
L 140.646387 89.802091 
L 142.069597 89.565693 
L 143.848609 88.976587 
L 146.339227 87.848214 
L 148.829845 86.758915 
L 150.253055 86.321213 
L 151.676265 86.105948 
L 153.099475 86.166794 
L 154.166882 86.415596 
L 155.23429 86.8472 
L 156.6575 87.706539 
L 158.08071 88.871906 
L 159.859723 90.69584 
L 161.994538 93.257466 
L 165.908365 98.070121 
L 167.331575 99.525678 
L 168.754785 100.661504 
L 169.822193 101.246744 
L 170.889601 101.564186 
L 171.957008 101.583982 
L 173.024416 101.282357 
L 174.091823 100.642352 
L 175.159231 99.654452 
L 176.226638 98.316975 
L 177.294046 96.63625 
L 178.717256 93.887225 
L 180.140466 90.609447 
L 181.919478 85.888315 
L 184.410096 78.467452 
L 189.747134 62.161469 
L 191.526146 57.452251 
L 192.949356 54.179622 
L 194.372566 51.428641 
L 195.439974 49.740985 
L 196.507382 48.392407 
L 197.574789 47.39108 
L 198.642197 46.738736 
L 199.709604 46.431213 
L 200.777012 46.459057 
L 201.844419 46.808381 
L 202.911827 47.461733 
L 203.979234 48.398998 
L 205.046642 49.598337 
L 206.469852 51.565643 
L 207.893062 53.903694 
L 209.672075 57.266117 
L 211.80689 61.813276 
L 214.65331 68.464019 
L 215.364915 70.187507 
L 215.364915 70.187507 
" clip-path="url(#pa99ec8b792)" style="fill: none; stroke: #000000; stroke-opacity: 0.5; stroke-width: 1.5; stroke-linecap: square"/>
   </g>
   <g id="line2d_17">
    <path d="M 37.81946 100.127984 
L 46.358721 73.15714 
L 48.849338 66.304151 
L 51.695758 59.129839 
L 54.897981 51.688143 
L 58.456006 44.010273 
L 61.302426 38.363407 
L 63.793044 33.924574 
L 65.927859 30.596193 
L 67.706871 28.202655 
L 69.485884 26.165227 
L 71.264897 24.468134 
L 73.043909 23.072542 
L 75.178724 21.71545 
L 77.669342 20.425151 
L 83.00638 18.019084 
L 89.766627 15.082366 
L 92.257245 14.259749 
L 94.39206 13.779642 
L 96.526875 13.535302 
L 98.66169 13.517631 
L 101.152308 13.729822 
L 104.710333 14.295836 
L 111.114778 15.57608 
L 114.672803 16.483768 
L 117.519223 17.44788 
L 120.009841 18.517623 
L 122.500459 19.811823 
L 125.346879 21.564872 
L 127.837496 23.345286 
L 130.328114 25.379135 
L 132.818731 27.69666 
L 135.309349 30.315085 
L 138.155769 33.658504 
L 141.357992 37.794356 
L 144.560214 42.269453 
L 147.406635 46.604563 
L 149.897252 50.838059 
L 152.032067 54.939478 
L 154.166882 59.57799 
L 156.301697 64.779692 
L 158.792315 71.447492 
L 164.485155 87.005497 
L 166.264168 91.10954 
L 167.687378 93.855465 
L 168.754785 95.535462 
L 169.822193 96.8525 
L 170.889601 97.781665 
L 171.601206 98.17749 
L 172.312811 98.391531 
L 173.024416 98.423498 
L 173.736021 98.275071 
L 174.447626 97.949841 
L 175.515033 97.142867 
L 176.582441 95.976449 
L 177.649848 94.484337 
L 179.073058 92.059452 
L 180.852071 88.488162 
L 183.698491 82.105285 
L 186.900714 75.056354 
L 188.679726 71.655251 
L 190.102936 69.347404 
L 191.526146 67.471338 
L 192.593554 66.370358 
L 193.660961 65.540698 
L 194.728369 64.983715 
L 195.795776 64.695321 
L 196.863184 64.666854 
L 197.930592 64.886019 
L 198.997999 65.337821 
L 200.065407 66.005445 
L 201.488617 67.200311 
L 202.911827 68.703164 
L 204.690839 70.946967 
L 206.825654 74.057114 
L 210.027877 79.220159 
L 213.585902 84.880709 
L 215.364915 87.315826 
L 215.364915 87.315826 
" clip-path="url(#pa99ec8b792)" style="fill: none; stroke: #000000; stroke-opacity: 0.5; stroke-width: 1.5; stroke-linecap: square"/>
   </g>
   <g id="line2d_18">
    <path d="M 37.81946 67.109866 
L 215.364915 67.109866 
L 215.364915 67.109866 
" clip-path="url(#pa99ec8b792)" style="fill: none; stroke: #1f77b4; stroke-width: 2; stroke-linecap: square"/>
   </g>
   <g id="patch_3">
    <path d="M 28.942188 145.8 
L 28.942188 7.2 
" style="fill: none; stroke: #000000; stroke-width: 0.8; stroke-linejoin: miter; stroke-linecap: square"/>
   </g>
   <g id="patch_4">
    <path d="M 224.242188 145.8 
L 224.242188 7.2 
" style="fill: none; stroke: #000000; stroke-width: 0.8; stroke-linejoin: miter; stroke-linecap: square"/>
   </g>
   <g id="patch_5">
    <path d="M 28.942187 145.8 
L 224.242188 145.8 
" style="fill: none; stroke: #000000; stroke-width: 0.8; stroke-linejoin: miter; stroke-linecap: square"/>
   </g>
   <g id="patch_6">
    <path d="M 28.942187 7.2 
L 224.242188 7.2 
" style="fill: none; stroke: #000000; stroke-width: 0.8; stroke-linejoin: miter; stroke-linecap: square"/>
   </g>
  </g>
 </g>
 <defs>
  <clipPath id="pa99ec8b792">
   <rect x="28.942188" y="7.2" width="195.3" height="138.6"/>
  </clipPath>
 </defs>
</svg>
