<?xml version="1.0" encoding="utf-8" standalone="no"?>
<!DOCTYPE svg PUBLIC "-//W3C//DTD SVG 1.1//EN"
  "http://www.w3.org/Graphics/SVG/1.1/DTD/svg11.dtd">
<svg xmlns:xlink="http://www.w3.org/1999/xlink" width="735.460937pt" height="331.634375pt" viewBox="0 0 735.460937 331.634375" xmlns="http://www.w3.org/2000/svg" version="1.1">
 <metadata>
  <rdf:RDF xmlns:dc="http://purl.org/dc/elements/1.1/" xmlns:cc="http://creativecommons.org/ns#" xmlns:rdf="http://www.w3.org/1999/02/22-rdf-syntax-ns#">
   <cc:Work>
    <dc:type rdf:resource="http://purl.org/dc/dcmitype/StillImage"/>
    <dc:date>2025-07-01T15:52:55.935938</dc:date>
    <dc:format>image/svg+xml</dc:format>
    <dc:creator>
     <cc:Agent>
      <dc:title>Matplotlib v3.7.2, https://matplotlib.org/</dc:title>
     </cc:Agent>
    </dc:creator>
   </cc:Work>
  </rdf:RDF>
 </metadata>
 <defs>
  <style type="text/css">*{stroke-linejoin: round; stroke-linecap: butt}</style>
 </defs>
 <g id="figure_1">
  <g id="patch_1">
   <path d="M 0 331.634375 
L 735.460937 331.634375 
L 735.460937 0 
L 0 0 
z
" style="fill: #ffffff"/>
  </g>
  <g id="axes_1">
   <g id="patch_2">
    <path d="M 58.660938 284.4 
L 728.260938 284.4 
L 728.260938 7.2 
L 58.660938 7.2 
z
" style="fill: #ffffff"/>
   </g>
   <g id="PolyCollection_1">
    <path d="M 89.097301 46.857477 
L 89.097301 249.052055 
L 101.520307 245.087585 
L 113.943312 241.13015 
L 126.366318 237.180685 
L 138.789323 233.240298 
L 151.212329 229.310308 
L 163.635335 225.392298 
L 176.05834 221.488182 
L 188.481346 217.600299 
L 200.904351 213.731525 
L 213.327357 209.885443 
L 225.750362 206.066557 
L 238.173368 202.280604 
L 250.596373 198.53498 
L 263.019379 194.839351 
L 275.442385 191.206534 
L 287.86539 187.653777 
L 300.288396 184.204626 
L 312.711401 180.891647 
L 325.134407 177.760282 
L 337.557412 174.873985 
L 349.980418 172.320004 
L 362.403424 170.213026 
L 374.826429 168.689769 
L 387.249435 167.88453 
L 399.67244 167.88453 
L 412.095446 168.689769 
L 424.518451 170.213026 
L 436.941457 172.320004 
L 449.364463 174.873985 
L 461.787468 177.760282 
L 474.210474 180.891647 
L 486.633479 184.204626 
L 499.056485 187.653777 
L 511.47949 191.206534 
L 523.902496 194.839351 
L 536.325502 198.53498 
L 548.748507 202.280604 
L 561.171513 206.066557 
L 573.594518 209.885443 
L 586.017524 213.731525 
L 598.440529 217.600299 
L 610.863535 221.488182 
L 623.28654 225.392298 
L 635.709546 229.310308 
L 648.132552 233.240298 
L 660.555557 237.180685 
L 672.978563 241.13015 
L 685.401568 245.087585 
L 697.824574 249.052055 
L 697.824574 46.857477 
L 697.824574 46.857477 
L 685.401568 50.821946 
L 672.978563 54.779382 
L 660.555557 58.728847 
L 648.132552 62.669234 
L 635.709546 66.599224 
L 623.28654 70.517234 
L 610.863535 74.421349 
L 598.440529 78.309233 
L 586.017524 82.178007 
L 573.594518 86.024089 
L 561.171513 89.842974 
L 548.748507 93.628927 
L 536.325502 97.374551 
L 523.902496 101.070181 
L 511.47949 104.702998 
L 499.056485 108.255755 
L 486.633479 111.704906 
L 474.210474 115.017885 
L 461.787468 118.149249 
L 449.364463 121.035546 
L 436.941457 123.589528 
L 424.518451 125.696505 
L 412.095446 127.219762 
L 399.67244 128.025002 
L 387.249435 128.025002 
L 374.826429 127.219762 
L 362.403424 125.696505 
L 349.980418 123.589528 
L 337.557412 121.035546 
L 325.134407 118.149249 
L 312.711401 115.017885 
L 300.288396 111.704906 
L 287.86539 108.255755 
L 275.442385 104.702998 
L 263.019379 101.070181 
L 250.596373 97.374551 
L 238.173368 93.628927 
L 225.750362 89.842974 
L 213.327357 86.024089 
L 200.904351 82.178007 
L 188.481346 78.309233 
L 176.05834 74.421349 
L 163.635335 70.517234 
L 151.212329 66.599224 
L 138.789323 62.669234 
L 126.366318 58.728847 
L 113.943312 54.779382 
L 101.520307 50.821946 
L 89.097301 46.857477 
z
" clip-path="url(#pfd94ed845a)" style="fill: #1f77b4; fill-opacity: 0.25"/>
   </g>
   <g id="matplotlib.axis_1">
    <g id="xtick_1">
     <g id="line2d_1">
      <defs>
       <path id="m31f364bdaa" d="M 0 0 
L 0 3.5 
" style="stroke: #000000; stroke-width: 0.8"/>
      </defs>
      <g>
       <use xlink:href="#m31f364bdaa" x="149.970028" y="284.4" style="stroke: #000000; stroke-width: 0.8"/>
      </g>
     </g>
     <g id="text_1">
      <!-- −4 -->
      <g transform="translate(142.598935 298.998437) scale(0.1 -0.1)">
       <defs>
        <path id="DejaVuSans-2212" d="M 678 2272 
L 4684 2272 
L 4684 1741 
L 678 1741 
L 678 2272 
z
" transform="scale(0.015625)"/>
        <path id="DejaVuSans-34" d="M 2419 4116 
L 825 1625 
L 2419 1625 
L 2419 4116 
z
M 2253 4666 
L 3047 4666 
L 3047 1625 
L 3713 1625 
L 3713 1100 
L 3047 1100 
L 3047 0 
L 2419 0 
L 2419 1100 
L 313 1100 
L 313 1709 
L 2253 4666 
z
" transform="scale(0.015625)"/>
       </defs>
       <use xlink:href="#DejaVuSans-2212"/>
       <use xlink:href="#DejaVuSans-34" x="83.789062"/>
      </g>
     </g>
    </g>
    <g id="xtick_2">
     <g id="line2d_2">
      <g>
       <use xlink:href="#m31f364bdaa" x="271.715483" y="284.4" style="stroke: #000000; stroke-width: 0.8"/>
      </g>
     </g>
     <g id="text_2">
      <!-- −2 -->
      <g transform="translate(264.344389 298.998437) scale(0.1 -0.1)">
       <defs>
        <path id="DejaVuSans-32" d="M 1228 531 
L 3431 531 
L 3431 0 
L 469 0 
L 469 531 
Q 828 903 1448 1529 
Q 2069 2156 2228 2338 
Q 2531 2678 2651 2914 
Q 2772 3150 2772 3378 
Q 2772 3750 2511 3984 
Q 2250 4219 1831 4219 
Q 1534 4219 1204 4116 
Q 875 4013 500 3803 
L 500 4441 
Q 881 4594 1212 4672 
Q 1544 4750 1819 4750 
Q 2544 4750 2975 4387 
Q 3406 4025 3406 3419 
Q 3406 3131 3298 2873 
Q 3191 2616 2906 2266 
Q 2828 2175 2409 1742 
Q 1991 1309 1228 531 
z
" transform="scale(0.015625)"/>
       </defs>
       <use xlink:href="#DejaVuSans-2212"/>
       <use xlink:href="#DejaVuSans-32" x="83.789062"/>
      </g>
     </g>
    </g>
    <g id="xtick_3">
     <g id="line2d_3">
      <g>
       <use xlink:href="#m31f364bdaa" x="393.460938" y="284.4" style="stroke: #000000; stroke-width: 0.8"/>
      </g>
     </g>
     <g id="text_3">
      <!-- 0 -->
      <g transform="translate(390.279688 298.998437) scale(0.1 -0.1)">
       <defs>
        <path id="DejaVuSans-30" d="M 2034 4250 
Q 1547 4250 1301 3770 
Q 1056 3291 1056 2328 
Q 1056 1369 1301 889 
Q 1547 409 2034 409 
Q 2525 409 2770 889 
Q 3016 1369 3016 2328 
Q 3016 3291 2770 3770 
Q 2525 4250 2034 4250 
z
M 2034 4750 
Q 2819 4750 3233 4129 
Q 3647 3509 3647 2328 
Q 3647 1150 3233 529 
Q 2819 -91 2034 -91 
Q 1250 -91 836 529 
Q 422 1150 422 2328 
Q 422 3509 836 4129 
Q 1250 4750 2034 4750 
z
" transform="scale(0.015625)"/>
       </defs>
       <use xlink:href="#DejaVuSans-30"/>
      </g>
     </g>
    </g>
    <g id="xtick_4">
     <g id="line2d_4">
      <g>
       <use xlink:href="#m31f364bdaa" x="515.206392" y="284.4" style="stroke: #000000; stroke-width: 0.8"/>
      </g>
     </g>
     <g id="text_4">
      <!-- 2 -->
      <g transform="translate(512.025142 298.998437) scale(0.1 -0.1)">
       <use xlink:href="#DejaVuSans-32"/>
      </g>
     </g>
    </g>
    <g id="xtick_5">
     <g id="line2d_5">
      <g>
       <use xlink:href="#m31f364bdaa" x="636.951847" y="284.4" style="stroke: #000000; stroke-width: 0.8"/>
      </g>
     </g>
     <g id="text_5">
      <!-- 4 -->
      <g transform="translate(633.770597 298.998437) scale(0.1 -0.1)">
       <use xlink:href="#DejaVuSans-34"/>
      </g>
     </g>
    </g>
    <g id="text_6">
     <!-- x -->
     <g transform="translate(387.542188 320.275) scale(0.2 -0.2)">
      <defs>
       <path id="DejaVuSans-78" d="M 3513 3500 
L 2247 1797 
L 3578 0 
L 2900 0 
L 1881 1375 
L 863 0 
L 184 0 
L 1544 1831 
L 300 3500 
L 978 3500 
L 1906 2253 
L 2834 3500 
L 3513 3500 
z
" transform="scale(0.015625)"/>
      </defs>
      <use xlink:href="#DejaVuSans-78"/>
     </g>
    </g>
   </g>
   <g id="matplotlib.axis_2">
    <g id="ytick_1">
     <g id="line2d_6">
      <defs>
       <path id="m383447776a" d="M 0 0 
L -3.5 0 
" style="stroke: #000000; stroke-width: 0.8"/>
      </defs>
      <g>
       <use xlink:href="#m383447776a" x="58.660938" y="247.088814" style="stroke: #000000; stroke-width: 0.8"/>
      </g>
     </g>
     <g id="text_7">
      <!-- −10 -->
      <g transform="translate(30.55625 250.888033) scale(0.1 -0.1)">
       <defs>
        <path id="DejaVuSans-31" d="M 794 531 
L 1825 531 
L 1825 4091 
L 703 3866 
L 703 4441 
L 1819 4666 
L 2450 4666 
L 2450 531 
L 3481 531 
L 3481 0 
L 794 0 
L 794 531 
z
" transform="scale(0.015625)"/>
       </defs>
       <use xlink:href="#DejaVuSans-2212"/>
       <use xlink:href="#DejaVuSans-31" x="83.789062"/>
       <use xlink:href="#DejaVuSans-30" x="147.412109"/>
      </g>
     </g>
    </g>
    <g id="ytick_2">
     <g id="line2d_7">
      <g>
       <use xlink:href="#m383447776a" x="58.660938" y="197.52179" style="stroke: #000000; stroke-width: 0.8"/>
      </g>
     </g>
     <g id="text_8">
      <!-- −5 -->
      <g transform="translate(36.91875 201.321009) scale(0.1 -0.1)">
       <defs>
        <path id="DejaVuSans-35" d="M 691 4666 
L 3169 4666 
L 3169 4134 
L 1269 4134 
L 1269 2991 
Q 1406 3038 1543 3061 
Q 1681 3084 1819 3084 
Q 2600 3084 3056 2656 
Q 3513 2228 3513 1497 
Q 3513 744 3044 326 
Q 2575 -91 1722 -91 
Q 1428 -91 1123 -41 
Q 819 9 494 109 
L 494 744 
Q 775 591 1075 516 
Q 1375 441 1709 441 
Q 2250 441 2565 725 
Q 2881 1009 2881 1497 
Q 2881 1984 2565 2268 
Q 2250 2553 1709 2553 
Q 1456 2553 1204 2497 
Q 953 2441 691 2322 
L 691 4666 
z
" transform="scale(0.015625)"/>
       </defs>
       <use xlink:href="#DejaVuSans-2212"/>
       <use xlink:href="#DejaVuSans-35" x="83.789062"/>
      </g>
     </g>
    </g>
    <g id="ytick_3">
     <g id="line2d_8">
      <g>
       <use xlink:href="#m383447776a" x="58.660938" y="147.954766" style="stroke: #000000; stroke-width: 0.8"/>
      </g>
     </g>
     <g id="text_9">
      <!-- 0 -->
      <g transform="translate(45.298438 151.753984) scale(0.1 -0.1)">
       <use xlink:href="#DejaVuSans-30"/>
      </g>
     </g>
    </g>
    <g id="ytick_4">
     <g id="line2d_9">
      <g>
       <use xlink:href="#m383447776a" x="58.660938" y="98.387742" style="stroke: #000000; stroke-width: 0.8"/>
      </g>
     </g>
     <g id="text_10">
      <!-- 5 -->
      <g transform="translate(45.298438 102.18696) scale(0.1 -0.1)">
       <use xlink:href="#DejaVuSans-35"/>
      </g>
     </g>
    </g>
    <g id="ytick_5">
     <g id="line2d_10">
      <g>
       <use xlink:href="#m383447776a" x="58.660938" y="48.820718" style="stroke: #000000; stroke-width: 0.8"/>
      </g>
     </g>
     <g id="text_11">
      <!-- 10 -->
      <g transform="translate(38.935938 52.619936) scale(0.1 -0.1)">
       <use xlink:href="#DejaVuSans-31"/>
       <use xlink:href="#DejaVuSans-30" x="63.623047"/>
      </g>
     </g>
    </g>
    <g id="text_12">
     <!-- f(x) -->
     <g transform="translate(22.396875 163.042187) rotate(-90) scale(0.2 -0.2)">
      <defs>
       <path id="DejaVuSans-66" d="M 2375 4863 
L 2375 4384 
L 1825 4384 
Q 1516 4384 1395 4259 
Q 1275 4134 1275 3809 
L 1275 3500 
L 2222 3500 
L 2222 3053 
L 1275 3053 
L 1275 0 
L 697 0 
L 697 3053 
L 147 3053 
L 147 3500 
L 697 3500 
L 697 3744 
Q 697 4328 969 4595 
Q 1241 4863 1831 4863 
L 2375 4863 
z
" transform="scale(0.015625)"/>
       <path id="DejaVuSans-28" d="M 1984 4856 
Q 1566 4138 1362 3434 
Q 1159 2731 1159 2009 
Q 1159 1288 1364 580 
Q 1569 -128 1984 -844 
L 1484 -844 
Q 1016 -109 783 600 
Q 550 1309 550 2009 
Q 550 2706 781 3412 
Q 1013 4119 1484 4856 
L 1984 4856 
z
" transform="scale(0.015625)"/>
       <path id="DejaVuSans-29" d="M 513 4856 
L 1013 4856 
Q 1481 4119 1714 3412 
Q 1947 2706 1947 2009 
Q 1947 1309 1714 600 
Q 1481 -109 1013 -844 
L 513 -844 
Q 928 -128 1133 580 
Q 1338 1288 1338 2009 
Q 1338 2731 1133 3434 
Q 928 4138 513 4856 
z
" transform="scale(0.015625)"/>
      </defs>
      <use xlink:href="#DejaVuSans-66"/>
      <use xlink:href="#DejaVuSans-28" x="35.205078"/>
      <use xlink:href="#DejaVuSans-78" x="74.21875"/>
      <use xlink:href="#DejaVuSans-29" x="133.398438"/>
     </g>
    </g>
   </g>
   <g id="line2d_11">
    <path d="M 89.097301 147.954766 
L 101.520307 147.954766 
L 113.943312 147.954766 
L 126.366318 147.954766 
L 138.789323 147.954766 
L 151.212329 147.954766 
L 163.635335 147.954766 
L 176.05834 147.954766 
L 188.481346 147.954766 
L 200.904351 147.954766 
L 213.327357 147.954766 
L 225.750362 147.954766 
L 238.173368 147.954766 
L 250.596373 147.954766 
L 263.019379 147.954766 
L 275.442385 147.954766 
L 287.86539 147.954766 
L 300.288396 147.954766 
L 312.711401 147.954766 
L 325.134407 147.954766 
L 337.557412 147.954766 
L 349.980418 147.954766 
L 362.403424 147.954766 
L 374.826429 147.954766 
L 387.249435 147.954766 
L 399.67244 147.954766 
L 412.095446 147.954766 
L 424.518451 147.954766 
L 436.941457 147.954766 
L 449.364463 147.954766 
L 461.787468 147.954766 
L 474.210474 147.954766 
L 486.633479 147.954766 
L 499.056485 147.954766 
L 511.47949 147.954766 
L 523.902496 147.954766 
L 536.325502 147.954766 
L 548.748507 147.954766 
L 561.171513 147.954766 
L 573.594518 147.954766 
L 586.017524 147.954766 
L 598.440529 147.954766 
L 610.863535 147.954766 
L 623.28654 147.954766 
L 635.709546 147.954766 
L 648.132552 147.954766 
L 660.555557 147.954766 
L 672.978563 147.954766 
L 685.401568 147.954766 
L 697.824574 147.954766 
" clip-path="url(#pfd94ed845a)" style="fill: none; stroke: #000000; stroke-width: 4; stroke-linecap: square"/>
   </g>
   <g id="line2d_12">
    <path d="M 89.097301 236.547193 
L 101.520307 232.12378 
L 113.943312 227.700368 
L 126.366318 223.276956 
L 138.789323 218.853544 
L 151.212329 214.430132 
L 163.635335 210.00672 
L 176.05834 205.583308 
L 188.481346 201.159896 
L 200.904351 196.736484 
L 213.327357 192.313072 
L 225.750362 187.88966 
L 238.173368 183.466247 
L 250.596373 179.042835 
L 263.019379 174.619423 
L 275.442385 170.196011 
L 287.86539 165.772599 
L 300.288396 161.349187 
L 312.711401 156.925775 
L 325.134407 152.502363 
L 337.557412 148.078951 
L 349.980418 143.655539 
L 362.403424 139.232127 
L 374.826429 134.808714 
L 387.249435 130.385302 
L 399.67244 125.96189 
L 412.095446 121.538478 
L 424.518451 117.115066 
L 436.941457 112.691654 
L 449.364463 108.268242 
L 461.787468 103.84483 
L 474.210474 99.421418 
L 486.633479 94.998006 
L 499.056485 90.574593 
L 511.47949 86.151181 
L 523.902496 81.727769 
L 536.325502 77.304357 
L 548.748507 72.880945 
L 561.171513 68.457533 
L 573.594518 64.034121 
L 586.017524 59.610709 
L 598.440529 55.187297 
L 610.863535 50.763885 
L 623.28654 46.340473 
L 635.709546 41.91706 
L 648.132552 37.493648 
L 660.555557 33.070236 
L 672.978563 28.646824 
L 685.401568 24.223412 
L 697.824574 19.8 
" clip-path="url(#pfd94ed845a)" style="fill: none; stroke: #1f77b4; stroke-width: 1.5; stroke-linecap: square"/>
   </g>
   <g id="line2d_13">
    <path d="M 89.097301 210.700129 
L 101.520307 207.792298 
L 113.943312 204.884467 
L 126.366318 201.976636 
L 138.789323 199.068805 
L 151.212329 196.160974 
L 163.635335 193.253143 
L 176.05834 190.345312 
L 188.481346 187.437481 
L 200.904351 184.52965 
L 213.327357 181.62182 
L 225.750362 178.713989 
L 238.173368 175.806158 
L 250.596373 172.898327 
L 263.019379 169.990496 
L 275.442385 167.082665 
L 287.86539 164.174834 
L 300.288396 161.267003 
L 312.711401 158.359172 
L 325.134407 155.451341 
L 337.557412 152.54351 
L 349.980418 149.635679 
L 362.403424 146.727848 
L 374.826429 143.820018 
L 387.249435 140.912187 
L 399.67244 138.004356 
L 412.095446 135.096525 
L 424.518451 132.188694 
L 436.941457 129.280863 
L 449.364463 126.373032 
L 461.787468 123.465201 
L 474.210474 120.55737 
L 486.633479 117.649539 
L 499.056485 114.741708 
L 511.47949 111.833877 
L 523.902496 108.926046 
L 536.325502 106.018216 
L 548.748507 103.110385 
L 561.171513 100.202554 
L 573.594518 97.294723 
L 586.017524 94.386892 
L 598.440529 91.479061 
L 610.863535 88.57123 
L 623.28654 85.663399 
L 635.709546 82.755568 
L 648.132552 79.847737 
L 660.555557 76.939906 
L 672.978563 74.032075 
L 685.401568 71.124244 
L 697.824574 68.216414 
" clip-path="url(#pfd94ed845a)" style="fill: none; stroke: #ff7f0e; stroke-width: 1.5; stroke-linecap: square"/>
   </g>
   <g id="line2d_14">
    <path d="M 89.097301 225.128336 
L 101.520307 222.096658 
L 113.943312 219.06498 
L 126.366318 216.033302 
L 138.789323 213.001624 
L 151.212329 209.969946 
L 163.635335 206.938268 
L 176.05834 203.906591 
L 188.481346 200.874913 
L 200.904351 197.843235 
L 213.327357 194.811557 
L 225.750362 191.779879 
L 238.173368 188.748201 
L 250.596373 185.716523 
L 263.019379 182.684845 
L 275.442385 179.653167 
L 287.86539 176.621489 
L 300.288396 173.589811 
L 312.711401 170.558133 
L 325.134407 167.526455 
L 337.557412 164.494777 
L 349.980418 161.463099 
L 362.403424 158.431422 
L 374.826429 155.399744 
L 387.249435 152.368066 
L 399.67244 149.336388 
L 412.095446 146.30471 
L 424.518451 143.273032 
L 436.941457 140.241354 
L 449.364463 137.209676 
L 461.787468 134.177998 
L 474.210474 131.14632 
L 486.633479 128.114642 
L 499.056485 125.082964 
L 511.47949 122.051286 
L 523.902496 119.019608 
L 536.325502 115.98793 
L 548.748507 112.956253 
L 561.171513 109.924575 
L 573.594518 106.892897 
L 586.017524 103.861219 
L 598.440529 100.829541 
L 610.863535 97.797863 
L 623.28654 94.766185 
L 635.709546 91.734507 
L 648.132552 88.702829 
L 660.555557 85.671151 
L 672.978563 82.639473 
L 685.401568 79.607795 
L 697.824574 76.576117 
" clip-path="url(#pfd94ed845a)" style="fill: none; stroke: #2ca02c; stroke-width: 1.5; stroke-linecap: square"/>
   </g>
   <g id="line2d_15">
    <path d="M 89.097301 29.665573 
L 101.520307 34.607092 
L 113.943312 39.548611 
L 126.366318 44.49013 
L 138.789323 49.431649 
L 151.212329 54.373168 
L 163.635335 59.314687 
L 176.05834 64.256206 
L 188.481346 69.197724 
L 200.904351 74.139243 
L 213.327357 79.080762 
L 225.750362 84.022281 
L 238.173368 88.9638 
L 250.596373 93.905319 
L 263.019379 98.846838 
L 275.442385 103.788357 
L 287.86539 108.729876 
L 300.288396 113.671395 
L 312.711401 118.612914 
L 325.134407 123.554433 
L 337.557412 128.495951 
L 349.980418 133.43747 
L 362.403424 138.378989 
L 374.826429 143.320508 
L 387.249435 148.262027 
L 399.67244 153.203546 
L 412.095446 158.145065 
L 424.518451 163.086584 
L 436.941457 168.028103 
L 449.364463 172.969622 
L 461.787468 177.911141 
L 474.210474 182.85266 
L 486.633479 187.794178 
L 499.056485 192.735697 
L 511.47949 197.677216 
L 523.902496 202.618735 
L 536.325502 207.560254 
L 548.748507 212.501773 
L 561.171513 217.443292 
L 573.594518 222.384811 
L 586.017524 227.32633 
L 598.440529 232.267849 
L 610.863535 237.209368 
L 623.28654 242.150887 
L 635.709546 247.092405 
L 648.132552 252.033924 
L 660.555557 256.975443 
L 672.978563 261.916962 
L 685.401568 266.858481 
L 697.824574 271.8 
" clip-path="url(#pfd94ed845a)" style="fill: none; stroke: #d62728; stroke-width: 1.5; stroke-linecap: square"/>
   </g>
   <g id="line2d_16">
    <path d="M 89.097301 92.611561 
L 101.520307 94.512605 
L 113.943312 96.413649 
L 126.366318 98.314694 
L 138.789323 100.215738 
L 151.212329 102.116782 
L 163.635335 104.017826 
L 176.05834 105.91887 
L 188.481346 107.819914 
L 200.904351 109.720958 
L 213.327357 111.622002 
L 225.750362 113.523047 
L 238.173368 115.424091 
L 250.596373 117.325135 
L 263.019379 119.226179 
L 275.442385 121.127223 
L 287.86539 123.028267 
L 300.288396 124.929311 
L 312.711401 126.830355 
L 325.134407 128.731399 
L 337.557412 130.632444 
L 349.980418 132.533488 
L 362.403424 134.434532 
L 374.826429 136.335576 
L 387.249435 138.23662 
L 399.67244 140.137664 
L 412.095446 142.038708 
L 424.518451 143.939752 
L 436.941457 145.840797 
L 449.364463 147.741841 
L 461.787468 149.642885 
L 474.210474 151.543929 
L 486.633479 153.444973 
L 499.056485 155.346017 
L 511.47949 157.247061 
L 523.902496 159.148105 
L 536.325502 161.04915 
L 548.748507 162.950194 
L 561.171513 164.851238 
L 573.594518 166.752282 
L 586.017524 168.653326 
L 598.440529 170.55437 
L 610.863535 172.455414 
L 623.28654 174.356458 
L 635.709546 176.257502 
L 648.132552 178.158547 
L 660.555557 180.059591 
L 672.978563 181.960635 
L 685.401568 183.861679 
L 697.824574 185.762723 
" clip-path="url(#pfd94ed845a)" style="fill: none; stroke: #9467bd; stroke-width: 1.5; stroke-linecap: square"/>
   </g>
   <g id="line2d_17">
    <path d="M 89.097301 185.375455 
L 101.520307 184.598818 
L 113.943312 183.822181 
L 126.366318 183.045544 
L 138.789323 182.268906 
L 151.212329 181.492269 
L 163.635335 180.715632 
L 176.05834 179.938994 
L 188.481346 179.162357 
L 200.904351 178.38572 
L 213.327357 177.609082 
L 225.750362 176.832445 
L 238.173368 176.055808 
L 250.596373 175.279171 
L 263.019379 174.502533 
L 275.442385 173.725896 
L 287.86539 172.949259 
L 300.288396 172.172621 
L 312.711401 171.395984 
L 325.134407 170.619347 
L 337.557412 169.84271 
L 349.980418 169.066072 
L 362.403424 168.289435 
L 374.826429 167.512798 
L 387.249435 166.73616 
L 399.67244 165.959523 
L 412.095446 165.182886 
L 424.518451 164.406248 
L 436.941457 163.629611 
L 449.364463 162.852974 
L 461.787468 162.076337 
L 474.210474 161.299699 
L 486.633479 160.523062 
L 499.056485 159.746425 
L 511.47949 158.969787 
L 523.902496 158.19315 
L 536.325502 157.416513 
L 548.748507 156.639875 
L 561.171513 155.863238 
L 573.594518 155.086601 
L 586.017524 154.309964 
L 598.440529 153.533326 
L 610.863535 152.756689 
L 623.28654 151.980052 
L 635.709546 151.203414 
L 648.132552 150.426777 
L 660.555557 149.65014 
L 672.978563 148.873503 
L 685.401568 148.096865 
L 697.824574 147.320228 
" clip-path="url(#pfd94ed845a)" style="fill: none; stroke: #8c564b; stroke-width: 1.5; stroke-linecap: square"/>
   </g>
   <g id="line2d_18">
    <path d="M 89.097301 121.898944 
L 101.520307 123.158337 
L 113.943312 124.41773 
L 126.366318 125.677123 
L 138.789323 126.936517 
L 151.212329 128.19591 
L 163.635335 129.455303 
L 176.05834 130.714696 
L 188.481346 131.97409 
L 200.904351 133.233483 
L 213.327357 134.492876 
L 225.750362 135.75227 
L 238.173368 137.011663 
L 250.596373 138.271056 
L 263.019379 139.530449 
L 275.442385 140.789843 
L 287.86539 142.049236 
L 300.288396 143.308629 
L 312.711401 144.568022 
L 325.134407 145.827416 
L 337.557412 147.086809 
L 349.980418 148.346202 
L 362.403424 149.605596 
L 374.826429 150.864989 
L 387.249435 152.124382 
L 399.67244 153.383775 
L 412.095446 154.643169 
L 424.518451 155.902562 
L 436.941457 157.161955 
L 449.364463 158.421348 
L 461.787468 159.680742 
L 474.210474 160.940135 
L 486.633479 162.199528 
L 499.056485 163.458921 
L 511.47949 164.718315 
L 523.902496 165.977708 
L 536.325502 167.237101 
L 548.748507 168.496495 
L 561.171513 169.755888 
L 573.594518 171.015281 
L 586.017524 172.274674 
L 598.440529 173.534068 
L 610.863535 174.793461 
L 623.28654 176.052854 
L 635.709546 177.312247 
L 648.132552 178.571641 
L 660.555557 179.831034 
L 672.978563 181.090427 
L 685.401568 182.349821 
L 697.824574 183.609214 
" clip-path="url(#pfd94ed845a)" style="fill: none; stroke: #e377c2; stroke-width: 1.5; stroke-linecap: square"/>
   </g>
   <g id="line2d_19">
    <path d="M 89.097301 206.573532 
L 101.520307 204.155973 
L 113.943312 201.738413 
L 126.366318 199.320854 
L 138.789323 196.903295 
L 151.212329 194.485735 
L 163.635335 192.068176 
L 176.05834 189.650616 
L 188.481346 187.233057 
L 200.904351 184.815498 
L 213.327357 182.397938 
L 225.750362 179.980379 
L 238.173368 177.562819 
L 250.596373 175.14526 
L 263.019379 172.727701 
L 275.442385 170.310141 
L 287.86539 167.892582 
L 300.288396 165.475023 
L 312.711401 163.057463 
L 325.134407 160.639904 
L 337.557412 158.222344 
L 349.980418 155.804785 
L 362.403424 153.387226 
L 374.826429 150.969666 
L 387.249435 148.552107 
L 399.67244 146.134547 
L 412.095446 143.716988 
L 424.518451 141.299429 
L 436.941457 138.881869 
L 449.364463 136.46431 
L 461.787468 134.04675 
L 474.210474 131.629191 
L 486.633479 129.211632 
L 499.056485 126.794072 
L 511.47949 124.376513 
L 523.902496 121.958953 
L 536.325502 119.541394 
L 548.748507 117.123835 
L 561.171513 114.706275 
L 573.594518 112.288716 
L 586.017524 109.871156 
L 598.440529 107.453597 
L 610.863535 105.036038 
L 623.28654 102.618478 
L 635.709546 100.200919 
L 648.132552 97.783359 
L 660.555557 95.3658 
L 672.978563 92.948241 
L 685.401568 90.530681 
L 697.824574 88.113122 
" clip-path="url(#pfd94ed845a)" style="fill: none; stroke: #7f7f7f; stroke-width: 1.5; stroke-linecap: square"/>
   </g>
   <g id="line2d_20">
    <path d="M 89.097301 62.188301 
L 101.520307 65.990257 
L 113.943312 69.792213 
L 126.366318 73.59417 
L 138.789323 77.396126 
L 151.212329 81.198083 
L 163.635335 85.000039 
L 176.05834 88.801995 
L 188.481346 92.603952 
L 200.904351 96.405908 
L 213.327357 100.207865 
L 225.750362 104.009821 
L 238.173368 107.811777 
L 250.596373 111.613734 
L 263.019379 115.41569 
L 275.442385 119.217647 
L 287.86539 123.019603 
L 300.288396 126.821559 
L 312.711401 130.623516 
L 325.134407 134.425472 
L 337.557412 138.227429 
L 349.980418 142.029385 
L 362.403424 145.831341 
L 374.826429 149.633298 
L 387.249435 153.435254 
L 399.67244 157.237211 
L 412.095446 161.039167 
L 424.518451 164.841123 
L 436.941457 168.64308 
L 449.364463 172.445036 
L 461.787468 176.246993 
L 474.210474 180.048949 
L 486.633479 183.850905 
L 499.056485 187.652862 
L 511.47949 191.454818 
L 523.902496 195.256775 
L 536.325502 199.058731 
L 548.748507 202.860687 
L 561.171513 206.662644 
L 573.594518 210.4646 
L 586.017524 214.266556 
L 598.440529 218.068513 
L 610.863535 221.870469 
L 623.28654 225.672426 
L 635.709546 229.474382 
L 648.132552 233.276338 
L 660.555557 237.078295 
L 672.978563 240.880251 
L 685.401568 244.682208 
L 697.824574 248.484164 
" clip-path="url(#pfd94ed845a)" style="fill: none; stroke: #bcbd22; stroke-width: 1.5; stroke-linecap: square"/>
   </g>
   <g id="line2d_21">
    <path d="M 89.097301 245.143099 
L 101.520307 241.468278 
L 113.943312 237.793457 
L 126.366318 234.118636 
L 138.789323 230.443815 
L 151.212329 226.768995 
L 163.635335 223.094174 
L 176.05834 219.419353 
L 188.481346 215.744532 
L 200.904351 212.069711 
L 213.327357 208.39489 
L 225.750362 204.720069 
L 238.173368 201.045248 
L 250.596373 197.370428 
L 263.019379 193.695607 
L 275.442385 190.020786 
L 287.86539 186.345965 
L 300.288396 182.671144 
L 312.711401 178.996323 
L 325.134407 175.321502 
L 337.557412 171.646681 
L 349.980418 167.971861 
L 362.403424 164.29704 
L 374.826429 160.622219 
L 387.249435 156.947398 
L 399.67244 153.272577 
L 412.095446 149.597756 
L 424.518451 145.922935 
L 436.941457 142.248114 
L 449.364463 138.573294 
L 461.787468 134.898473 
L 474.210474 131.223652 
L 486.633479 127.548831 
L 499.056485 123.87401 
L 511.47949 120.199189 
L 523.902496 116.524368 
L 536.325502 112.849547 
L 548.748507 109.174726 
L 561.171513 105.499906 
L 573.594518 101.825085 
L 586.017524 98.150264 
L 598.440529 94.475443 
L 610.863535 90.800622 
L 623.28654 87.125801 
L 635.709546 83.45098 
L 648.132552 79.776159 
L 660.555557 76.101339 
L 672.978563 72.426518 
L 685.401568 68.751697 
L 697.824574 65.076876 
" clip-path="url(#pfd94ed845a)" style="fill: none; stroke: #17becf; stroke-width: 1.5; stroke-linecap: square"/>
   </g>
   <g id="patch_3">
    <path d="M 58.660938 284.4 
L 58.660938 7.2 
" style="fill: none; stroke: #000000; stroke-width: 0.8; stroke-linejoin: miter; stroke-linecap: square"/>
   </g>
   <g id="patch_4">
    <path d="M 728.260938 284.4 
L 728.260938 7.2 
" style="fill: none; stroke: #000000; stroke-width: 0.8; stroke-linejoin: miter; stroke-linecap: square"/>
   </g>
   <g id="patch_5">
    <path d="M 58.660937 284.4 
L 728.260937 284.4 
" style="fill: none; stroke: #000000; stroke-width: 0.8; stroke-linejoin: miter; stroke-linecap: square"/>
   </g>
   <g id="patch_6">
    <path d="M 58.660937 7.2 
L 728.260937 7.2 
" style="fill: none; stroke: #000000; stroke-width: 0.8; stroke-linejoin: miter; stroke-linecap: square"/>
   </g>
  </g>
 </g>
 <defs>
  <clipPath id="pfd94ed845a">
   <rect x="58.660938" y="7.2" width="669.6" height="277.2"/>
  </clipPath>
 </defs>
</svg>
