<?xml version="1.0" encoding="utf-8" standalone="no"?>
<!DOCTYPE svg PUBLIC "-//W3C//DTD SVG 1.1//EN"
  "http://www.w3.org/Graphics/SVG/1.1/DTD/svg11.dtd">
<svg xmlns:xlink="http://www.w3.org/1999/xlink" width="231.442188pt" height="169.678125pt" viewBox="0 0 231.442188 169.678125" xmlns="http://www.w3.org/2000/svg" version="1.1">
 <metadata>
  <rdf:RDF xmlns:dc="http://purl.org/dc/elements/1.1/" xmlns:cc="http://creativecommons.org/ns#" xmlns:rdf="http://www.w3.org/1999/02/22-rdf-syntax-ns#">
   <cc:Work>
    <dc:type rdf:resource="http://purl.org/dc/dcmitype/StillImage"/>
    <dc:date>2025-07-01T15:21:54.090774</dc:date>
    <dc:format>image/svg+xml</dc:format>
    <dc:creator>
     <cc:Agent>
      <dc:title>Matplotlib v3.7.2, https://matplotlib.org/</dc:title>
     </cc:Agent>
    </dc:creator>
   </cc:Work>
  </rdf:RDF>
 </metadata>
 <defs>
  <style type="text/css">*{stroke-linejoin: round; stroke-linecap: butt}</style>
 </defs>
 <g id="figure_1">
  <g id="patch_1">
   <path d="M 0 169.678125 
L 231.442188 169.678125 
L 231.442188 0 
L 0 0 
z
" style="fill: #ffffff"/>
  </g>
  <g id="axes_1">
   <g id="patch_2">
    <path d="M 28.942188 145.8 
L 224.242188 145.8 
L 224.242188 7.2 
L 28.942188 7.2 
z
" style="fill: #ffffff"/>
   </g>
   <g id="PolyCollection_1">
    <path d="M 37.81946 13.5 
L 37.81946 114.03196 
L 38.175263 114.03196 
L 38.531065 114.03196 
L 38.886868 114.03196 
L 39.24267 114.03196 
L 39.598473 114.03196 
L 39.954275 114.03196 
L 40.310078 114.03196 
L 40.66588 114.03196 
L 41.021683 114.03196 
L 41.377485 114.03196 
L 41.733288 114.03196 
L 42.08909 114.03196 
L 42.444893 114.03196 
L 42.800695 114.03196 
L 43.156498 114.03196 
L 43.5123 114.03196 
L 43.868103 114.03196 
L 44.223905 114.03196 
L 44.579708 114.03196 
L 44.935511 114.03196 
L 45.291313 114.03196 
L 45.647116 114.03196 
L 46.002918 114.03196 
L 46.358721 114.03196 
L 46.714523 114.03196 
L 47.070326 114.03196 
L 47.426128 114.03196 
L 47.781931 114.03196 
L 48.137733 114.03196 
L 48.493536 114.03196 
L 48.849338 114.03196 
L 49.205141 114.03196 
L 49.560943 114.03196 
L 49.916746 114.03196 
L 50.272548 114.03196 
L 50.628351 114.03196 
L 50.984153 114.03196 
L 51.339956 114.03196 
L 51.695758 114.03196 
L 52.051561 114.03196 
L 52.407363 114.03196 
L 52.763166 114.03196 
L 53.118968 114.03196 
L 53.474771 114.03196 
L 53.830573 114.03196 
L 54.186376 114.03196 
L 54.542178 114.03196 
L 54.897981 114.03196 
L 55.253783 114.03196 
L 55.609586 114.03196 
L 55.965388 114.03196 
L 56.321191 114.03196 
L 56.676993 114.03196 
L 57.032796 114.03196 
L 57.388599 114.03196 
L 57.744401 114.03196 
L 58.100204 114.03196 
L 58.456006 114.03196 
L 58.811809 114.03196 
L 59.167611 114.03196 
L 59.523414 114.03196 
L 59.879216 114.03196 
L 60.235019 114.03196 
L 60.590821 114.03196 
L 60.946624 114.03196 
L 61.302426 114.03196 
L 61.658229 114.03196 
L 62.014031 114.03196 
L 62.369834 114.03196 
L 62.725636 114.03196 
L 63.081439 114.03196 
L 63.437241 114.03196 
L 63.793044 114.03196 
L 64.148846 114.03196 
L 64.504649 114.03196 
L 64.860451 114.03196 
L 65.216254 114.03196 
L 65.572056 114.03196 
L 65.927859 114.03196 
L 66.283661 114.03196 
L 66.639464 114.03196 
L 66.995266 114.03196 
L 67.351069 114.03196 
L 67.706871 114.03196 
L 68.062674 114.03196 
L 68.418476 114.03196 
L 68.774279 114.03196 
L 69.130081 114.03196 
L 69.485884 114.03196 
L 69.841686 114.03196 
L 70.197489 114.03196 
L 70.553292 114.03196 
L 70.909094 114.03196 
L 71.264897 114.03196 
L 71.620699 114.03196 
L 71.976502 114.03196 
L 72.332304 114.03196 
L 72.688107 114.03196 
L 73.043909 114.03196 
L 73.399712 114.03196 
L 73.755514 114.03196 
L 74.111317 114.03196 
L 74.467119 114.03196 
L 74.822922 114.03196 
L 75.178724 114.03196 
L 75.534527 114.03196 
L 75.890329 114.03196 
L 76.246132 114.03196 
L 76.601934 114.03196 
L 76.957737 114.03196 
L 77.313539 114.03196 
L 77.669342 114.03196 
L 78.025144 114.03196 
L 78.380947 114.03196 
L 78.736749 114.03196 
L 79.092552 114.03196 
L 79.448354 114.03196 
L 79.804157 114.03196 
L 80.159959 114.03196 
L 80.515762 114.03196 
L 80.871564 114.03196 
L 81.227367 114.03196 
L 81.583169 114.03196 
L 81.938972 114.03196 
L 82.294774 114.03196 
L 82.650577 114.03196 
L 83.00638 114.03196 
L 83.362182 114.03196 
L 83.717985 114.03196 
L 84.073787 114.03196 
L 84.42959 114.03196 
L 84.785392 114.03196 
L 85.141195 114.03196 
L 85.496997 114.03196 
L 85.8528 114.03196 
L 86.208602 114.03196 
L 86.564405 114.03196 
L 86.920207 114.03196 
L 87.27601 114.03196 
L 87.631812 114.03196 
L 87.987615 114.03196 
L 88.343417 114.03196 
L 88.69922 114.03196 
L 89.055022 114.03196 
L 89.410825 114.03196 
L 89.766627 114.03196 
L 90.12243 114.03196 
L 90.478232 114.03196 
L 90.834035 114.03196 
L 91.189837 114.03196 
L 91.54564 114.03196 
L 91.901442 114.03196 
L 92.257245 114.03196 
L 92.613047 114.03196 
L 92.96885 114.03196 
L 93.324652 114.03196 
L 93.680455 114.03196 
L 94.036257 114.03196 
L 94.39206 114.03196 
L 94.747862 114.03196 
L 95.103665 114.03196 
L 95.459468 114.03196 
L 95.81527 114.03196 
L 96.171073 114.03196 
L 96.526875 114.03196 
L 96.882678 114.03196 
L 97.23848 114.03196 
L 97.594283 114.03196 
L 97.950085 114.03196 
L 98.305888 114.03196 
L 98.66169 114.03196 
L 99.017493 114.03196 
L 99.373295 114.03196 
L 99.729098 114.03196 
L 100.0849 114.03196 
L 100.440703 114.03196 
L 100.796505 114.03196 
L 101.152308 114.03196 
L 101.50811 114.03196 
L 101.863913 114.03196 
L 102.219715 114.03196 
L 102.575518 114.03196 
L 102.93132 114.03196 
L 103.287123 114.03196 
L 103.642925 114.03196 
L 103.998728 114.03196 
L 104.35453 114.03196 
L 104.710333 114.03196 
L 105.066135 114.03196 
L 105.421938 114.03196 
L 105.77774 114.03196 
L 106.133543 114.03196 
L 106.489345 114.03196 
L 106.845148 114.03196 
L 107.20095 114.03196 
L 107.556753 114.03196 
L 107.912556 114.03196 
L 108.268358 114.03196 
L 108.624161 114.03196 
L 108.979963 114.03196 
L 109.335766 114.03196 
L 109.691568 114.03196 
L 110.047371 114.03196 
L 110.403173 114.03196 
L 110.758976 114.03196 
L 111.114778 114.03196 
L 111.470581 114.03196 
L 111.826383 114.03196 
L 112.182186 114.03196 
L 112.537988 114.03196 
L 112.893791 114.03196 
L 113.249593 114.03196 
L 113.605396 114.03196 
L 113.961198 114.03196 
L 114.317001 114.03196 
L 114.672803 114.03196 
L 115.028606 114.03196 
L 115.384408 114.03196 
L 115.740211 114.03196 
L 116.096013 114.03196 
L 116.451816 114.03196 
L 116.807618 114.03196 
L 117.163421 114.03196 
L 117.519223 114.03196 
L 117.875026 114.03196 
L 118.230828 114.03196 
L 118.586631 114.03196 
L 118.942433 114.03196 
L 119.298236 114.03196 
L 119.654038 114.03196 
L 120.009841 114.03196 
L 120.365644 114.03196 
L 120.721446 114.03196 
L 121.077249 114.03196 
L 121.433051 114.03196 
L 121.788854 114.03196 
L 122.144656 114.03196 
L 122.500459 114.03196 
L 122.856261 114.03196 
L 123.212064 114.03196 
L 123.567866 114.03196 
L 123.923669 114.03196 
L 124.279471 114.03196 
L 124.635274 114.03196 
L 124.991076 114.03196 
L 125.346879 114.03196 
L 125.702681 114.03196 
L 126.058484 114.03196 
L 126.414286 114.03196 
L 126.770089 114.03196 
L 127.125891 114.03196 
L 127.481694 114.03196 
L 127.837496 114.03196 
L 128.193299 114.03196 
L 128.549101 114.03196 
L 128.904904 114.03196 
L 129.260706 114.03196 
L 129.616509 114.03196 
L 129.972311 114.03196 
L 130.328114 114.03196 
L 130.683916 114.03196 
L 131.039719 114.03196 
L 131.395521 114.03196 
L 131.751324 114.03196 
L 132.107126 114.03196 
L 132.462929 114.03196 
L 132.818731 114.03196 
L 133.174534 114.03196 
L 133.530337 114.03196 
L 133.886139 114.03196 
L 134.241942 114.03196 
L 134.597744 114.03196 
L 134.953547 114.03196 
L 135.309349 114.03196 
L 135.665152 114.03196 
L 136.020954 114.03196 
L 136.376757 114.03196 
L 136.732559 114.03196 
L 137.088362 114.03196 
L 137.444164 114.03196 
L 137.799967 114.03196 
L 138.155769 114.03196 
L 138.511572 114.03196 
L 138.867374 114.03196 
L 139.223177 114.03196 
L 139.578979 114.03196 
L 139.934782 114.03196 
L 140.290584 114.03196 
L 140.646387 114.03196 
L 141.002189 114.03196 
L 141.357992 114.03196 
L 141.713794 114.03196 
L 142.069597 114.03196 
L 142.425399 114.03196 
L 142.781202 114.03196 
L 143.137004 114.03196 
L 143.492807 114.03196 
L 143.848609 114.03196 
L 144.204412 114.03196 
L 144.560214 114.03196 
L 144.916017 114.03196 
L 145.271819 114.03196 
L 145.627622 114.03196 
L 145.983425 114.03196 
L 146.339227 114.03196 
L 146.69503 114.03196 
L 147.050832 114.03196 
L 147.406635 114.03196 
L 147.762437 114.03196 
L 148.11824 114.03196 
L 148.474042 114.03196 
L 148.829845 114.03196 
L 149.185647 114.03196 
L 149.54145 114.03196 
L 149.897252 114.03196 
L 150.253055 114.03196 
L 150.608857 114.03196 
L 150.96466 114.03196 
L 151.320462 114.03196 
L 151.676265 114.03196 
L 152.032067 114.03196 
L 152.38787 114.03196 
L 152.743672 114.03196 
L 153.099475 114.03196 
L 153.455277 114.03196 
L 153.81108 114.03196 
L 154.166882 114.03196 
L 154.522685 114.03196 
L 154.878487 114.03196 
L 155.23429 114.03196 
L 155.590092 114.03196 
L 155.945895 114.03196 
L 156.301697 114.03196 
L 156.6575 114.03196 
L 157.013302 114.03196 
L 157.369105 114.03196 
L 157.724907 114.03196 
L 158.08071 114.03196 
L 158.436513 114.03196 
L 158.792315 114.03196 
L 159.148118 114.03196 
L 159.50392 114.03196 
L 159.859723 114.03196 
L 160.215525 114.03196 
L 160.571328 114.03196 
L 160.92713 114.03196 
L 161.282933 114.03196 
L 161.638735 114.03196 
L 161.994538 114.03196 
L 162.35034 114.03196 
L 162.706143 114.03196 
L 163.061945 114.03196 
L 163.417748 114.03196 
L 163.77355 114.03196 
L 164.129353 114.03196 
L 164.485155 114.03196 
L 164.840958 114.03196 
L 165.19676 114.03196 
L 165.552563 114.03196 
L 165.908365 114.03196 
L 166.264168 114.03196 
L 166.61997 114.03196 
L 166.975773 114.03196 
L 167.331575 114.03196 
L 167.687378 114.03196 
L 168.04318 114.03196 
L 168.398983 114.03196 
L 168.754785 114.03196 
L 169.110588 114.03196 
L 169.46639 114.03196 
L 169.822193 114.03196 
L 170.177995 114.03196 
L 170.533798 114.03196 
L 170.889601 114.03196 
L 171.245403 114.03196 
L 171.601206 114.03196 
L 171.957008 114.03196 
L 172.312811 114.03196 
L 172.668613 114.03196 
L 173.024416 114.03196 
L 173.380218 114.03196 
L 173.736021 114.03196 
L 174.091823 114.03196 
L 174.447626 114.03196 
L 174.803428 114.03196 
L 175.159231 114.03196 
L 175.515033 114.03196 
L 175.870836 114.03196 
L 176.226638 114.03196 
L 176.582441 114.03196 
L 176.938243 114.03196 
L 177.294046 114.03196 
L 177.649848 114.03196 
L 178.005651 114.03196 
L 178.361453 114.03196 
L 178.717256 114.03196 
L 179.073058 114.03196 
L 179.428861 114.03196 
L 179.784663 114.03196 
L 180.140466 114.03196 
L 180.496268 114.03196 
L 180.852071 114.03196 
L 181.207873 114.03196 
L 181.563676 114.03196 
L 181.919478 114.03196 
L 182.275281 114.03196 
L 182.631083 114.03196 
L 182.986886 114.03196 
L 183.342689 114.03196 
L 183.698491 114.03196 
L 184.054294 114.03196 
L 184.410096 114.03196 
L 184.765899 114.03196 
L 185.121701 114.03196 
L 185.477504 114.03196 
L 185.833306 114.03196 
L 186.189109 114.03196 
L 186.544911 114.03196 
L 186.900714 114.03196 
L 187.256516 114.03196 
L 187.612319 114.03196 
L 187.968121 114.03196 
L 188.323924 114.03196 
L 188.679726 114.03196 
L 189.035529 114.03196 
L 189.391331 114.03196 
L 189.747134 114.03196 
L 190.102936 114.03196 
L 190.458739 114.03196 
L 190.814541 114.03196 
L 191.170344 114.03196 
L 191.526146 114.03196 
L 191.881949 114.03196 
L 192.237751 114.03196 
L 192.593554 114.03196 
L 192.949356 114.03196 
L 193.305159 114.03196 
L 193.660961 114.03196 
L 194.016764 114.03196 
L 194.372566 114.03196 
L 194.728369 114.03196 
L 195.084171 114.03196 
L 195.439974 114.03196 
L 195.795776 114.03196 
L 196.151579 114.03196 
L 196.507382 114.03196 
L 196.863184 114.03196 
L 197.218987 114.03196 
L 197.574789 114.03196 
L 197.930592 114.03196 
L 198.286394 114.03196 
L 198.642197 114.03196 
L 198.997999 114.03196 
L 199.353802 114.03196 
L 199.709604 114.03196 
L 200.065407 114.03196 
L 200.421209 114.03196 
L 200.777012 114.03196 
L 201.132814 114.03196 
L 201.488617 114.03196 
L 201.844419 114.03196 
L 202.200222 114.03196 
L 202.556024 114.03196 
L 202.911827 114.03196 
L 203.267629 114.03196 
L 203.623432 114.03196 
L 203.979234 114.03196 
L 204.335037 114.03196 
L 204.690839 114.03196 
L 205.046642 114.03196 
L 205.402444 114.03196 
L 205.758247 114.03196 
L 206.114049 114.03196 
L 206.469852 114.03196 
L 206.825654 114.03196 
L 207.181457 114.03196 
L 207.537259 114.03196 
L 207.893062 114.03196 
L 208.248864 114.03196 
L 208.604667 114.03196 
L 208.96047 114.03196 
L 209.316272 114.03196 
L 209.672075 114.03196 
L 210.027877 114.03196 
L 210.38368 114.03196 
L 210.739482 114.03196 
L 211.095285 114.03196 
L 211.451087 114.03196 
L 211.80689 114.03196 
L 212.162692 114.03196 
L 212.518495 114.03196 
L 212.874297 114.03196 
L 213.2301 114.03196 
L 213.585902 114.03196 
L 213.941705 114.03196 
L 214.297507 114.03196 
L 214.65331 114.03196 
L 215.009112 114.03196 
L 215.364915 114.03196 
L 215.364915 13.5 
L 215.364915 13.5 
L 215.009112 13.5 
L 214.65331 13.5 
L 214.297507 13.5 
L 213.941705 13.5 
L 213.585902 13.5 
L 213.2301 13.5 
L 212.874297 13.5 
L 212.518495 13.5 
L 212.162692 13.5 
L 211.80689 13.5 
L 211.451087 13.5 
L 211.095285 13.5 
L 210.739482 13.5 
L 210.38368 13.5 
L 210.027877 13.5 
L 209.672075 13.5 
L 209.316272 13.5 
L 208.96047 13.5 
L 208.604667 13.5 
L 208.248864 13.5 
L 207.893062 13.5 
L 207.537259 13.5 
L 207.181457 13.5 
L 206.825654 13.5 
L 206.469852 13.5 
L 206.114049 13.5 
L 205.758247 13.5 
L 205.402444 13.5 
L 205.046642 13.5 
L 204.690839 13.5 
L 204.335037 13.5 
L 203.979234 13.5 
L 203.623432 13.5 
L 203.267629 13.5 
L 202.911827 13.5 
L 202.556024 13.5 
L 202.200222 13.5 
L 201.844419 13.5 
L 201.488617 13.5 
L 201.132814 13.5 
L 200.777012 13.5 
L 200.421209 13.5 
L 200.065407 13.5 
L 199.709604 13.5 
L 199.353802 13.5 
L 198.997999 13.5 
L 198.642197 13.5 
L 198.286394 13.5 
L 197.930592 13.5 
L 197.574789 13.5 
L 197.218987 13.5 
L 196.863184 13.5 
L 196.507382 13.5 
L 196.151579 13.5 
L 195.795776 13.5 
L 195.439974 13.5 
L 195.084171 13.5 
L 194.728369 13.5 
L 194.372566 13.5 
L 194.016764 13.5 
L 193.660961 13.5 
L 193.305159 13.5 
L 192.949356 13.5 
L 192.593554 13.5 
L 192.237751 13.5 
L 191.881949 13.5 
L 191.526146 13.5 
L 191.170344 13.5 
L 190.814541 13.5 
L 190.458739 13.5 
L 190.102936 13.5 
L 189.747134 13.5 
L 189.391331 13.5 
L 189.035529 13.5 
L 188.679726 13.5 
L 188.323924 13.5 
L 187.968121 13.5 
L 187.612319 13.5 
L 187.256516 13.5 
L 186.900714 13.5 
L 186.544911 13.5 
L 186.189109 13.5 
L 185.833306 13.5 
L 185.477504 13.5 
L 185.121701 13.5 
L 184.765899 13.5 
L 184.410096 13.5 
L 184.054294 13.5 
L 183.698491 13.5 
L 183.342689 13.5 
L 182.986886 13.5 
L 182.631083 13.5 
L 182.275281 13.5 
L 181.919478 13.5 
L 181.563676 13.5 
L 181.207873 13.5 
L 180.852071 13.5 
L 180.496268 13.5 
L 180.140466 13.5 
L 179.784663 13.5 
L 179.428861 13.5 
L 179.073058 13.5 
L 178.717256 13.5 
L 178.361453 13.5 
L 178.005651 13.5 
L 177.649848 13.5 
L 177.294046 13.5 
L 176.938243 13.5 
L 176.582441 13.5 
L 176.226638 13.5 
L 175.870836 13.5 
L 175.515033 13.5 
L 175.159231 13.5 
L 174.803428 13.5 
L 174.447626 13.5 
L 174.091823 13.5 
L 173.736021 13.5 
L 173.380218 13.5 
L 173.024416 13.5 
L 172.668613 13.5 
L 172.312811 13.5 
L 171.957008 13.5 
L 171.601206 13.5 
L 171.245403 13.5 
L 170.889601 13.5 
L 170.533798 13.5 
L 170.177995 13.5 
L 169.822193 13.5 
L 169.46639 13.5 
L 169.110588 13.5 
L 168.754785 13.5 
L 168.398983 13.5 
L 168.04318 13.5 
L 167.687378 13.5 
L 167.331575 13.5 
L 166.975773 13.5 
L 166.61997 13.5 
L 166.264168 13.5 
L 165.908365 13.5 
L 165.552563 13.5 
L 165.19676 13.5 
L 164.840958 13.5 
L 164.485155 13.5 
L 164.129353 13.5 
L 163.77355 13.5 
L 163.417748 13.5 
L 163.061945 13.5 
L 162.706143 13.5 
L 162.35034 13.5 
L 161.994538 13.5 
L 161.638735 13.5 
L 161.282933 13.5 
L 160.92713 13.5 
L 160.571328 13.5 
L 160.215525 13.5 
L 159.859723 13.5 
L 159.50392 13.5 
L 159.148118 13.5 
L 158.792315 13.5 
L 158.436513 13.5 
L 158.08071 13.5 
L 157.724907 13.5 
L 157.369105 13.5 
L 157.013302 13.5 
L 156.6575 13.5 
L 156.301697 13.5 
L 155.945895 13.5 
L 155.590092 13.5 
L 155.23429 13.5 
L 154.878487 13.5 
L 154.522685 13.5 
L 154.166882 13.5 
L 153.81108 13.5 
L 153.455277 13.5 
L 153.099475 13.5 
L 152.743672 13.5 
L 152.38787 13.5 
L 152.032067 13.5 
L 151.676265 13.5 
L 151.320462 13.5 
L 150.96466 13.5 
L 150.608857 13.5 
L 150.253055 13.5 
L 149.897252 13.5 
L 149.54145 13.5 
L 149.185647 13.5 
L 148.829845 13.5 
L 148.474042 13.5 
L 148.11824 13.5 
L 147.762437 13.5 
L 147.406635 13.5 
L 147.050832 13.5 
L 146.69503 13.5 
L 146.339227 13.5 
L 145.983425 13.5 
L 145.627622 13.5 
L 145.271819 13.5 
L 144.916017 13.5 
L 144.560214 13.5 
L 144.204412 13.5 
L 143.848609 13.5 
L 143.492807 13.5 
L 143.137004 13.5 
L 142.781202 13.5 
L 142.425399 13.5 
L 142.069597 13.5 
L 141.713794 13.5 
L 141.357992 13.5 
L 141.002189 13.5 
L 140.646387 13.5 
L 140.290584 13.5 
L 139.934782 13.5 
L 139.578979 13.5 
L 139.223177 13.5 
L 138.867374 13.5 
L 138.511572 13.5 
L 138.155769 13.5 
L 137.799967 13.5 
L 137.444164 13.5 
L 137.088362 13.5 
L 136.732559 13.5 
L 136.376757 13.5 
L 136.020954 13.5 
L 135.665152 13.5 
L 135.309349 13.5 
L 134.953547 13.5 
L 134.597744 13.5 
L 134.241942 13.5 
L 133.886139 13.5 
L 133.530337 13.5 
L 133.174534 13.5 
L 132.818731 13.5 
L 132.462929 13.5 
L 132.107126 13.5 
L 131.751324 13.5 
L 131.395521 13.5 
L 131.039719 13.5 
L 130.683916 13.5 
L 130.328114 13.5 
L 129.972311 13.5 
L 129.616509 13.5 
L 129.260706 13.5 
L 128.904904 13.5 
L 128.549101 13.5 
L 128.193299 13.5 
L 127.837496 13.5 
L 127.481694 13.5 
L 127.125891 13.5 
L 126.770089 13.5 
L 126.414286 13.5 
L 126.058484 13.5 
L 125.702681 13.5 
L 125.346879 13.5 
L 124.991076 13.5 
L 124.635274 13.5 
L 124.279471 13.5 
L 123.923669 13.5 
L 123.567866 13.5 
L 123.212064 13.5 
L 122.856261 13.5 
L 122.500459 13.5 
L 122.144656 13.5 
L 121.788854 13.5 
L 121.433051 13.5 
L 121.077249 13.5 
L 120.721446 13.5 
L 120.365644 13.5 
L 120.009841 13.5 
L 119.654038 13.5 
L 119.298236 13.5 
L 118.942433 13.5 
L 118.586631 13.5 
L 118.230828 13.5 
L 117.875026 13.5 
L 117.519223 13.5 
L 117.163421 13.5 
L 116.807618 13.5 
L 116.451816 13.5 
L 116.096013 13.5 
L 115.740211 13.5 
L 115.384408 13.5 
L 115.028606 13.5 
L 114.672803 13.5 
L 114.317001 13.5 
L 113.961198 13.5 
L 113.605396 13.5 
L 113.249593 13.5 
L 112.893791 13.5 
L 112.537988 13.5 
L 112.182186 13.5 
L 111.826383 13.5 
L 111.470581 13.5 
L 111.114778 13.5 
L 110.758976 13.5 
L 110.403173 13.5 
L 110.047371 13.5 
L 109.691568 13.5 
L 109.335766 13.5 
L 108.979963 13.5 
L 108.624161 13.5 
L 108.268358 13.5 
L 107.912556 13.5 
L 107.556753 13.5 
L 107.20095 13.5 
L 106.845148 13.5 
L 106.489345 13.5 
L 106.133543 13.5 
L 105.77774 13.5 
L 105.421938 13.5 
L 105.066135 13.5 
L 104.710333 13.5 
L 104.35453 13.5 
L 103.998728 13.5 
L 103.642925 13.5 
L 103.287123 13.5 
L 102.93132 13.5 
L 102.575518 13.5 
L 102.219715 13.5 
L 101.863913 13.5 
L 101.50811 13.5 
L 101.152308 13.5 
L 100.796505 13.5 
L 100.440703 13.5 
L 100.0849 13.5 
L 99.729098 13.5 
L 99.373295 13.5 
L 99.017493 13.5 
L 98.66169 13.5 
L 98.305888 13.5 
L 97.950085 13.5 
L 97.594283 13.5 
L 97.23848 13.5 
L 96.882678 13.5 
L 96.526875 13.5 
L 96.171073 13.5 
L 95.81527 13.5 
L 95.459468 13.5 
L 95.103665 13.5 
L 94.747862 13.5 
L 94.39206 13.5 
L 94.036257 13.5 
L 93.680455 13.5 
L 93.324652 13.5 
L 92.96885 13.5 
L 92.613047 13.5 
L 92.257245 13.5 
L 91.901442 13.5 
L 91.54564 13.5 
L 91.189837 13.5 
L 90.834035 13.5 
L 90.478232 13.5 
L 90.12243 13.5 
L 89.766627 13.5 
L 89.410825 13.5 
L 89.055022 13.5 
L 88.69922 13.5 
L 88.343417 13.5 
L 87.987615 13.5 
L 87.631812 13.5 
L 87.27601 13.5 
L 86.920207 13.5 
L 86.564405 13.5 
L 86.208602 13.5 
L 85.8528 13.5 
L 85.496997 13.5 
L 85.141195 13.5 
L 84.785392 13.5 
L 84.42959 13.5 
L 84.073787 13.5 
L 83.717985 13.5 
L 83.362182 13.5 
L 83.00638 13.5 
L 82.650577 13.5 
L 82.294774 13.5 
L 81.938972 13.5 
L 81.583169 13.5 
L 81.227367 13.5 
L 80.871564 13.5 
L 80.515762 13.5 
L 80.159959 13.5 
L 79.804157 13.5 
L 79.448354 13.5 
L 79.092552 13.5 
L 78.736749 13.5 
L 78.380947 13.5 
L 78.025144 13.5 
L 77.669342 13.5 
L 77.313539 13.5 
L 76.957737 13.5 
L 76.601934 13.5 
L 76.246132 13.5 
L 75.890329 13.5 
L 75.534527 13.5 
L 75.178724 13.5 
L 74.822922 13.5 
L 74.467119 13.5 
L 74.111317 13.5 
L 73.755514 13.5 
L 73.399712 13.5 
L 73.043909 13.5 
L 72.688107 13.5 
L 72.332304 13.5 
L 71.976502 13.5 
L 71.620699 13.5 
L 71.264897 13.5 
L 70.909094 13.5 
L 70.553292 13.5 
L 70.197489 13.5 
L 69.841686 13.5 
L 69.485884 13.5 
L 69.130081 13.5 
L 68.774279 13.5 
L 68.418476 13.5 
L 68.062674 13.5 
L 67.706871 13.5 
L 67.351069 13.5 
L 66.995266 13.5 
L 66.639464 13.5 
L 66.283661 13.5 
L 65.927859 13.5 
L 65.572056 13.5 
L 65.216254 13.5 
L 64.860451 13.5 
L 64.504649 13.5 
L 64.148846 13.5 
L 63.793044 13.5 
L 63.437241 13.5 
L 63.081439 13.5 
L 62.725636 13.5 
L 62.369834 13.5 
L 62.014031 13.5 
L 61.658229 13.5 
L 61.302426 13.5 
L 60.946624 13.5 
L 60.590821 13.5 
L 60.235019 13.5 
L 59.879216 13.5 
L 59.523414 13.5 
L 59.167611 13.5 
L 58.811809 13.5 
L 58.456006 13.5 
L 58.100204 13.5 
L 57.744401 13.5 
L 57.388599 13.5 
L 57.032796 13.5 
L 56.676993 13.5 
L 56.321191 13.5 
L 55.965388 13.5 
L 55.609586 13.5 
L 55.253783 13.5 
L 54.897981 13.5 
L 54.542178 13.5 
L 54.186376 13.5 
L 53.830573 13.5 
L 53.474771 13.5 
L 53.118968 13.5 
L 52.763166 13.5 
L 52.407363 13.5 
L 52.051561 13.5 
L 51.695758 13.5 
L 51.339956 13.5 
L 50.984153 13.5 
L 50.628351 13.5 
L 50.272548 13.5 
L 49.916746 13.5 
L 49.560943 13.5 
L 49.205141 13.5 
L 48.849338 13.5 
L 48.493536 13.5 
L 48.137733 13.5 
L 47.781931 13.5 
L 47.426128 13.5 
L 47.070326 13.5 
L 46.714523 13.5 
L 46.358721 13.5 
L 46.002918 13.5 
L 45.647116 13.5 
L 45.291313 13.5 
L 44.935511 13.5 
L 44.579708 13.5 
L 44.223905 13.5 
L 43.868103 13.5 
L 43.5123 13.5 
L 43.156498 13.5 
L 42.800695 13.5 
L 42.444893 13.5 
L 42.08909 13.5 
L 41.733288 13.5 
L 41.377485 13.5 
L 41.021683 13.5 
L 40.66588 13.5 
L 40.310078 13.5 
L 39.954275 13.5 
L 39.598473 13.5 
L 39.24267 13.5 
L 38.886868 13.5 
L 38.531065 13.5 
L 38.175263 13.5 
L 37.81946 13.5 
z
" clip-path="url(#p34bbf548e4)" style="fill: #1f77b4; fill-opacity: 0.25"/>
   </g>
   <g id="matplotlib.axis_1">
    <g id="xtick_1">
     <g id="line2d_1">
      <defs>
       <path id="ma13ae7417a" d="M 0 0 
L 0 3.5 
" style="stroke: #000000; stroke-width: 0.8"/>
      </defs>
      <g>
       <use xlink:href="#ma13ae7417a" x="37.81946" y="145.8" style="stroke: #000000; stroke-width: 0.8"/>
      </g>
     </g>
     <g id="text_1">
      <!-- 0 -->
      <g transform="translate(34.63821 160.398438) scale(0.1 -0.1)">
       <defs>
        <path id="DejaVuSans-30" d="M 2034 4250 
Q 1547 4250 1301 3770 
Q 1056 3291 1056 2328 
Q 1056 1369 1301 889 
Q 1547 409 2034 409 
Q 2525 409 2770 889 
Q 3016 1369 3016 2328 
Q 3016 3291 2770 3770 
Q 2525 4250 2034 4250 
z
M 2034 4750 
Q 2819 4750 3233 4129 
Q 3647 3509 3647 2328 
Q 3647 1150 3233 529 
Q 2819 -91 2034 -91 
Q 1250 -91 836 529 
Q 422 1150 422 2328 
Q 422 3509 836 4129 
Q 1250 4750 2034 4750 
z
" transform="scale(0.015625)"/>
       </defs>
       <use xlink:href="#DejaVuSans-30"/>
      </g>
     </g>
    </g>
    <g id="xtick_2">
     <g id="line2d_2">
      <g>
       <use xlink:href="#ma13ae7417a" x="73.328551" y="145.8" style="stroke: #000000; stroke-width: 0.8"/>
      </g>
     </g>
     <g id="text_2">
      <!-- 1 -->
      <g transform="translate(70.147301 160.398438) scale(0.1 -0.1)">
       <defs>
        <path id="DejaVuSans-31" d="M 794 531 
L 1825 531 
L 1825 4091 
L 703 3866 
L 703 4441 
L 1819 4666 
L 2450 4666 
L 2450 531 
L 3481 531 
L 3481 0 
L 794 0 
L 794 531 
z
" transform="scale(0.015625)"/>
       </defs>
       <use xlink:href="#DejaVuSans-31"/>
      </g>
     </g>
    </g>
    <g id="xtick_3">
     <g id="line2d_3">
      <g>
       <use xlink:href="#ma13ae7417a" x="108.837642" y="145.8" style="stroke: #000000; stroke-width: 0.8"/>
      </g>
     </g>
     <g id="text_3">
      <!-- 2 -->
      <g transform="translate(105.656392 160.398438) scale(0.1 -0.1)">
       <defs>
        <path id="DejaVuSans-32" d="M 1228 531 
L 3431 531 
L 3431 0 
L 469 0 
L 469 531 
Q 828 903 1448 1529 
Q 2069 2156 2228 2338 
Q 2531 2678 2651 2914 
Q 2772 3150 2772 3378 
Q 2772 3750 2511 3984 
Q 2250 4219 1831 4219 
Q 1534 4219 1204 4116 
Q 875 4013 500 3803 
L 500 4441 
Q 881 4594 1212 4672 
Q 1544 4750 1819 4750 
Q 2544 4750 2975 4387 
Q 3406 4025 3406 3419 
Q 3406 3131 3298 2873 
Q 3191 2616 2906 2266 
Q 2828 2175 2409 1742 
Q 1991 1309 1228 531 
z
" transform="scale(0.015625)"/>
       </defs>
       <use xlink:href="#DejaVuSans-32"/>
      </g>
     </g>
    </g>
    <g id="xtick_4">
     <g id="line2d_4">
      <g>
       <use xlink:href="#ma13ae7417a" x="144.346733" y="145.8" style="stroke: #000000; stroke-width: 0.8"/>
      </g>
     </g>
     <g id="text_4">
      <!-- 3 -->
      <g transform="translate(141.165483 160.398438) scale(0.1 -0.1)">
       <defs>
        <path id="DejaVuSans-33" d="M 2597 2516 
Q 3050 2419 3304 2112 
Q 3559 1806 3559 1356 
Q 3559 666 3084 287 
Q 2609 -91 1734 -91 
Q 1441 -91 1130 -33 
Q 819 25 488 141 
L 488 750 
Q 750 597 1062 519 
Q 1375 441 1716 441 
Q 2309 441 2620 675 
Q 2931 909 2931 1356 
Q 2931 1769 2642 2001 
Q 2353 2234 1838 2234 
L 1294 2234 
L 1294 2753 
L 1863 2753 
Q 2328 2753 2575 2939 
Q 2822 3125 2822 3475 
Q 2822 3834 2567 4026 
Q 2313 4219 1838 4219 
Q 1578 4219 1281 4162 
Q 984 4106 628 3988 
L 628 4550 
Q 988 4650 1302 4700 
Q 1616 4750 1894 4750 
Q 2613 4750 3031 4423 
Q 3450 4097 3450 3541 
Q 3450 3153 3228 2886 
Q 3006 2619 2597 2516 
z
" transform="scale(0.015625)"/>
       </defs>
       <use xlink:href="#DejaVuSans-33"/>
      </g>
     </g>
    </g>
    <g id="xtick_5">
     <g id="line2d_5">
      <g>
       <use xlink:href="#ma13ae7417a" x="179.855824" y="145.8" style="stroke: #000000; stroke-width: 0.8"/>
      </g>
     </g>
     <g id="text_5">
      <!-- 4 -->
      <g transform="translate(176.674574 160.398438) scale(0.1 -0.1)">
       <defs>
        <path id="DejaVuSans-34" d="M 2419 4116 
L 825 1625 
L 2419 1625 
L 2419 4116 
z
M 2253 4666 
L 3047 4666 
L 3047 1625 
L 3713 1625 
L 3713 1100 
L 3047 1100 
L 3047 0 
L 2419 0 
L 2419 1100 
L 313 1100 
L 313 1709 
L 2253 4666 
z
" transform="scale(0.015625)"/>
       </defs>
       <use xlink:href="#DejaVuSans-34"/>
      </g>
     </g>
    </g>
    <g id="xtick_6">
     <g id="line2d_6">
      <g>
       <use xlink:href="#ma13ae7417a" x="215.364915" y="145.8" style="stroke: #000000; stroke-width: 0.8"/>
      </g>
     </g>
     <g id="text_6">
      <!-- 5 -->
      <g transform="translate(212.183665 160.398438) scale(0.1 -0.1)">
       <defs>
        <path id="DejaVuSans-35" d="M 691 4666 
L 3169 4666 
L 3169 4134 
L 1269 4134 
L 1269 2991 
Q 1406 3038 1543 3061 
Q 1681 3084 1819 3084 
Q 2600 3084 3056 2656 
Q 3513 2228 3513 1497 
Q 3513 744 3044 326 
Q 2575 -91 1722 -91 
Q 1428 -91 1123 -41 
Q 819 9 494 109 
L 494 744 
Q 775 591 1075 516 
Q 1375 441 1709 441 
Q 2250 441 2565 725 
Q 2881 1009 2881 1497 
Q 2881 1984 2565 2268 
Q 2250 2553 1709 2553 
Q 1456 2553 1204 2497 
Q 953 2441 691 2322 
L 691 4666 
z
" transform="scale(0.015625)"/>
       </defs>
       <use xlink:href="#DejaVuSans-35"/>
      </g>
     </g>
    </g>
   </g>
   <g id="matplotlib.axis_2">
    <g id="ytick_1">
     <g id="line2d_7">
      <defs>
       <path id="mf7d63a8702" d="M 0 0 
L -3.5 0 
" style="stroke: #000000; stroke-width: 0.8"/>
      </defs>
      <g>
       <use xlink:href="#mf7d63a8702" x="28.942188" y="139.16495" style="stroke: #000000; stroke-width: 0.8"/>
      </g>
     </g>
     <g id="text_7">
      <!-- −3 -->
      <g transform="translate(7.2 142.964169) scale(0.1 -0.1)">
       <defs>
        <path id="DejaVuSans-2212" d="M 678 2272 
L 4684 2272 
L 4684 1741 
L 678 1741 
L 678 2272 
z
" transform="scale(0.015625)"/>
       </defs>
       <use xlink:href="#DejaVuSans-2212"/>
       <use xlink:href="#DejaVuSans-33" x="83.789062"/>
      </g>
     </g>
    </g>
    <g id="ytick_2">
     <g id="line2d_8">
      <g>
       <use xlink:href="#mf7d63a8702" x="28.942188" y="114.03196" style="stroke: #000000; stroke-width: 0.8"/>
      </g>
     </g>
     <g id="text_8">
      <!-- −2 -->
      <g transform="translate(7.2 117.831179) scale(0.1 -0.1)">
       <use xlink:href="#DejaVuSans-2212"/>
       <use xlink:href="#DejaVuSans-32" x="83.789062"/>
      </g>
     </g>
    </g>
    <g id="ytick_3">
     <g id="line2d_9">
      <g>
       <use xlink:href="#mf7d63a8702" x="28.942188" y="88.89897" style="stroke: #000000; stroke-width: 0.8"/>
      </g>
     </g>
     <g id="text_9">
      <!-- −1 -->
      <g transform="translate(7.2 92.698189) scale(0.1 -0.1)">
       <use xlink:href="#DejaVuSans-2212"/>
       <use xlink:href="#DejaVuSans-31" x="83.789062"/>
      </g>
     </g>
    </g>
    <g id="ytick_4">
     <g id="line2d_10">
      <g>
       <use xlink:href="#mf7d63a8702" x="28.942188" y="63.76598" style="stroke: #000000; stroke-width: 0.8"/>
      </g>
     </g>
     <g id="text_10">
      <!-- 0 -->
      <g transform="translate(15.579688 67.565199) scale(0.1 -0.1)">
       <use xlink:href="#DejaVuSans-30"/>
      </g>
     </g>
    </g>
    <g id="ytick_5">
     <g id="line2d_11">
      <g>
       <use xlink:href="#mf7d63a8702" x="28.942188" y="38.63299" style="stroke: #000000; stroke-width: 0.8"/>
      </g>
     </g>
     <g id="text_11">
      <!-- 1 -->
      <g transform="translate(15.579688 42.432209) scale(0.1 -0.1)">
       <use xlink:href="#DejaVuSans-31"/>
      </g>
     </g>
    </g>
    <g id="ytick_6">
     <g id="line2d_12">
      <g>
       <use xlink:href="#mf7d63a8702" x="28.942188" y="13.5" style="stroke: #000000; stroke-width: 0.8"/>
      </g>
     </g>
     <g id="text_12">
      <!-- 2 -->
      <g transform="translate(15.579688 17.299219) scale(0.1 -0.1)">
       <use xlink:href="#DejaVuSans-32"/>
      </g>
     </g>
    </g>
   </g>
   <g id="line2d_13">
    <path d="M 37.81946 73.860951 
L 38.886868 73.424323 
L 39.954275 72.766122 
L 41.021683 71.892647 
L 42.444893 70.411951 
L 43.868103 68.60253 
L 45.647116 65.944769 
L 47.781931 62.299929 
L 50.628351 56.938221 
L 58.456006 41.876021 
L 60.590821 38.313748 
L 62.369834 35.727325 
L 63.793044 33.971601 
L 65.216254 32.538347 
L 66.639464 31.459421 
L 67.706871 30.895077 
L 68.774279 30.543948 
L 69.841686 30.40301 
L 70.909094 30.463251 
L 71.976502 30.709608 
L 73.399712 31.290658 
L 75.178724 32.330371 
L 78.025144 34.349617 
L 80.515762 36.00431 
L 81.938972 36.729443 
L 83.362182 37.216891 
L 84.785392 37.42661 
L 85.8528 37.389676 
L 87.27601 37.082346 
L 88.69922 36.499682 
L 90.12243 35.681428 
L 92.257245 34.137984 
L 97.23848 30.316893 
L 99.017493 29.321489 
L 100.440703 28.792419 
L 101.863913 28.543138 
L 102.93132 28.554813 
L 103.998728 28.742715 
L 105.066135 29.107681 
L 106.489345 29.864081 
L 107.912556 30.913516 
L 109.335766 32.231767 
L 111.114778 34.212046 
L 113.249593 36.992061 
L 115.740211 40.659316 
L 118.942433 45.84376 
L 122.500459 52.046372 
L 126.414286 59.308305 
L 135.309349 76.080909 
L 137.444164 79.520397 
L 139.223177 82.012001 
L 141.002189 84.106055 
L 142.425399 85.476515 
L 143.848609 86.575127 
L 145.271819 87.413004 
L 146.69503 88.010619 
L 148.11824 88.394852 
L 149.897252 88.620184 
L 151.676265 88.61276 
L 153.81108 88.352666 
L 155.945895 87.844022 
L 157.724907 87.215811 
L 159.50392 86.364228 
L 161.282933 85.24049 
L 163.061945 83.794839 
L 164.840958 81.988973 
L 166.61997 79.807247 
L 168.398983 77.264605 
L 170.533798 73.807998 
L 173.736021 68.111026 
L 177.649848 61.189879 
L 179.784663 57.835765 
L 181.563676 55.404864 
L 183.342689 53.351941 
L 185.121701 51.685429 
L 186.900714 50.382698 
L 188.679726 49.396353 
L 190.458739 48.662617 
L 192.593554 48.015256 
L 196.863184 47.034597 
L 200.065407 46.20786 
L 202.556024 45.360069 
L 205.046642 44.275104 
L 207.537259 42.938405 
L 210.38368 41.142731 
L 215.364915 37.768649 
L 215.364915 37.768649 
" clip-path="url(#p34bbf548e4)" style="fill: none; stroke: #000000; stroke-opacity: 0.5; stroke-width: 1.5; stroke-linecap: square"/>
   </g>
   <g id="line2d_14">
    <path d="M 37.81946 56.976608 
L 41.021683 57.898909 
L 42.800695 58.61073 
L 44.579708 59.551608 
L 46.358721 60.764818 
L 48.137733 62.272165 
L 49.916746 64.075625 
L 52.051561 66.607326 
L 54.186376 69.485021 
L 57.032796 73.709106 
L 63.793044 83.933998 
L 65.927859 86.694354 
L 67.706871 88.652422 
L 69.130081 89.947039 
L 70.553292 90.968693 
L 71.976502 91.693837 
L 73.043909 92.032154 
L 74.111317 92.188355 
L 75.178724 92.159423 
L 76.246132 91.94467 
L 77.313539 91.545852 
L 78.736749 90.73554 
L 80.159959 89.623129 
L 81.583169 88.23367 
L 83.362182 86.156658 
L 85.496997 83.265301 
L 88.343417 78.968671 
L 96.882678 65.765076 
L 100.0849 61.318481 
L 102.93132 57.727331 
L 105.066135 55.330472 
L 106.845148 53.596481 
L 108.624161 52.173591 
L 110.047371 51.310296 
L 111.470581 50.73388 
L 112.537988 50.511461 
L 113.605396 50.483178 
L 114.672803 50.658684 
L 115.740211 51.044091 
L 116.807618 51.641416 
L 117.875026 52.448311 
L 119.298236 53.837556 
L 120.721446 55.557885 
L 122.500459 58.109295 
L 124.635274 61.617907 
L 128.904904 69.262378 
L 131.751324 74.119263 
L 133.886139 77.32203 
L 135.665152 79.596685 
L 137.444164 81.463211 
L 138.867374 82.648971 
L 140.290584 83.563773 
L 141.713794 84.221963 
L 143.137004 84.649675 
L 144.916017 84.919143 
L 147.050832 84.987915 
L 150.608857 85.064089 
L 152.032067 85.294958 
L 153.455277 85.746184 
L 154.878487 86.475302 
L 156.301697 87.523138 
L 157.724907 88.908966 
L 159.148118 90.627055 
L 160.92713 93.190105 
L 163.061945 96.708843 
L 167.331575 103.927769 
L 168.754785 105.961289 
L 170.177995 107.613932 
L 171.245403 108.541421 
L 172.312811 109.160021 
L 173.380218 109.43935 
L 174.091823 109.425315 
L 174.803428 109.245044 
L 175.515033 108.89509 
L 176.582441 108.048371 
L 177.649848 106.816446 
L 178.717256 105.207568 
L 179.784663 103.237612 
L 181.207873 100.090184 
L 182.631083 96.415461 
L 184.410096 91.220602 
L 186.900714 83.205761 
L 191.881949 66.947659 
L 194.016764 60.821513 
L 195.795776 56.402344 
L 197.218987 53.382147 
L 198.642197 50.841216 
L 200.065407 48.775812 
L 201.488617 47.162687 
L 202.911827 45.96266 
L 204.335037 45.124907 
L 205.758247 44.591321 
L 207.181457 44.300578 
L 208.96047 44.185612 
L 211.451087 44.287428 
L 215.364915 44.475162 
L 215.364915 44.475162 
" clip-path="url(#p34bbf548e4)" style="fill: none; stroke: #000000; stroke-opacity: 0.5; stroke-width: 1.5; stroke-linecap: square"/>
   </g>
   <g id="line2d_15">
    <path d="M 37.81946 39.650133 
L 42.08909 43.138336 
L 44.579708 45.302412 
L 46.714523 47.470052 
L 48.493536 49.600705 
L 50.272548 52.081994 
L 52.051561 54.932598 
L 54.186376 58.811441 
L 56.676993 63.824623 
L 62.369834 75.536395 
L 64.148846 78.675471 
L 65.572056 80.828141 
L 66.995266 82.594261 
L 68.062674 83.635678 
L 69.130081 84.417942 
L 70.197489 84.932201 
L 71.264897 85.175352 
L 72.332304 85.150071 
L 73.399712 84.864731 
L 74.467119 84.333162 
L 75.534527 83.574287 
L 76.957737 82.250108 
L 78.736749 80.188487 
L 80.871564 77.319302 
L 85.8528 70.461317 
L 87.631812 68.422614 
L 89.055022 67.068049 
L 90.478232 65.991643 
L 91.901442 65.204991 
L 93.324652 64.703245 
L 94.747862 64.467506 
L 96.171073 64.468423 
L 97.594283 64.670684 
L 99.373295 65.151174 
L 101.50811 65.97989 
L 103.998728 67.205113 
L 106.489345 68.675928 
L 108.979963 70.423483 
L 111.114778 72.181135 
L 113.605396 74.552922 
L 116.451816 77.625706 
L 123.923669 85.937834 
L 126.058484 87.850609 
L 127.837496 89.128477 
L 129.260706 89.897682 
L 130.683916 90.405724 
L 131.751324 90.594775 
L 132.818731 90.603143 
L 133.886139 90.416734 
L 134.953547 90.022541 
L 136.020954 89.409507 
L 137.088362 88.569523 
L 138.155769 87.49851 
L 139.578979 85.713713 
L 141.002189 83.54013 
L 142.781202 80.341588 
L 144.916017 75.977148 
L 150.253055 64.767867 
L 151.676265 62.295571 
L 153.099475 60.25229 
L 154.166882 59.051293 
L 155.23429 58.163014 
L 156.301697 57.603692 
L 157.369105 57.380537 
L 158.436513 57.491873 
L 159.50392 57.927717 
L 160.571328 58.670519 
L 161.638735 59.696225 
L 163.061945 61.452375 
L 164.485155 63.577583 
L 166.61997 67.259333 
L 173.380218 79.421905 
L 174.803428 81.453785 
L 176.226638 83.127863 
L 177.294046 84.114027 
L 178.361453 84.848648 
L 179.428861 85.319342 
L 180.496268 85.520146 
L 181.563676 85.452031 
L 182.631083 85.123238 
L 183.698491 84.549342 
L 184.765899 83.753074 
L 186.189109 82.397075 
L 187.968121 80.351765 
L 193.660961 73.452099 
L 195.084171 72.172672 
L 196.507382 71.235151 
L 197.574789 70.786626 
L 198.642197 70.570502 
L 199.709604 70.591551 
L 200.777012 70.847401 
L 201.844419 71.329061 
L 202.911827 72.021672 
L 204.335037 73.238473 
L 205.758247 74.737453 
L 207.893062 77.372517 
L 211.80689 82.732518 
L 215.009112 86.941633 
L 215.364915 87.376704 
L 215.364915 87.376704 
" clip-path="url(#p34bbf548e4)" style="fill: none; stroke: #000000; stroke-opacity: 0.5; stroke-width: 1.5; stroke-linecap: square"/>
   </g>
   <g id="line2d_16">
    <path d="M 37.81946 30.641721 
L 39.24267 30.626392 
L 41.021683 30.876236 
L 43.156498 31.46814 
L 52.407363 34.473002 
L 56.321191 35.53516 
L 58.100204 36.237252 
L 59.879216 37.200654 
L 61.302426 38.202038 
L 63.081439 39.76437 
L 64.860451 41.654683 
L 66.995266 44.261452 
L 72.688107 51.427153 
L 74.467119 53.176655 
L 75.890329 54.257698 
L 77.313539 55.014969 
L 78.380947 55.3599 
L 79.448354 55.513941 
L 80.515762 55.484152 
L 81.938972 55.181297 
L 83.362182 54.618498 
L 85.141195 53.634088 
L 87.631812 51.95216 
L 91.189837 49.544365 
L 92.96885 48.569475 
L 94.747862 47.85081 
L 96.171073 47.493843 
L 97.594283 47.346745 
L 99.017493 47.414956 
L 100.440703 47.695606 
L 101.863913 48.178057 
L 103.642925 49.036856 
L 105.77774 50.373891 
L 108.624161 52.478259 
L 112.537988 55.350009 
L 114.317001 56.388875 
L 115.740211 57.003811 
L 117.163421 57.378293 
L 118.586631 57.477222 
L 119.654038 57.35635 
L 120.721446 57.063317 
L 122.144656 56.408052 
L 123.567866 55.469544 
L 125.346879 53.95934 
L 127.481694 51.813283 
L 131.039719 48.175276 
L 132.462929 46.987549 
L 133.886139 46.102835 
L 134.953547 45.692515 
L 136.020954 45.53565 
L 137.088362 45.65859 
L 138.155769 46.080685 
L 139.223177 46.813509 
L 140.290584 47.860372 
L 141.357992 49.216099 
L 142.781202 51.479411 
L 144.204412 54.211855 
L 145.983425 58.166133 
L 148.474042 64.347375 
L 152.38787 74.133815 
L 154.166882 78.004714 
L 155.590092 80.623678 
L 157.013302 82.714775 
L 158.08071 83.891045 
L 159.148118 84.70473 
L 159.859723 85.037606 
L 160.571328 85.199299 
L 161.282933 85.188465 
L 161.994538 85.005208 
L 162.706143 84.651082 
L 163.77355 83.806155 
L 164.840958 82.59862 
L 165.908365 81.04935 
L 167.331575 78.497545 
L 168.754785 75.457771 
L 170.533798 71.099426 
L 173.024416 64.277607 
L 179.073058 47.244671 
L 180.852071 42.928677 
L 182.275281 39.927886 
L 183.698491 37.41373 
L 184.765899 35.886918 
L 185.833306 34.691757 
L 186.900714 33.843324 
L 187.968121 33.349848 
L 188.679726 33.218759 
L 189.391331 33.244244 
L 190.458739 33.568471 
L 191.526146 34.219637 
L 192.593554 35.172451 
L 193.660961 36.394442 
L 195.084171 38.374555 
L 196.863184 41.261607 
L 202.556024 50.948806 
L 203.979234 52.879106 
L 205.402444 54.426966 
L 206.469852 55.300315 
L 207.537259 55.908064 
L 208.604667 56.241096 
L 209.672075 56.297561 
L 210.739482 56.082633 
L 211.80689 55.607927 
L 212.874297 54.890791 
L 214.297507 53.596513 
L 215.364915 52.406779 
L 215.364915 52.406779 
" clip-path="url(#p34bbf548e4)" style="fill: none; stroke: #000000; stroke-opacity: 0.5; stroke-width: 1.5; stroke-linecap: square"/>
   </g>
   <g id="line2d_17">
    <path d="M 37.81946 58.74294 
L 38.886868 59.276425 
L 39.954275 60.015622 
L 41.377485 61.314388 
L 42.800695 62.946555 
L 44.579708 65.386837 
L 46.714523 68.739698 
L 52.763166 78.543886 
L 54.542178 80.908817 
L 55.965388 82.486826 
L 57.388599 83.747031 
L 58.811809 84.668426 
L 59.879216 85.131958 
L 60.946624 85.401385 
L 62.014031 85.481039 
L 63.081439 85.377912 
L 64.504649 84.971814 
L 65.927859 84.281501 
L 67.351069 83.332899 
L 69.130081 81.821069 
L 70.909094 79.983737 
L 72.688107 77.848263 
L 74.822922 74.910892 
L 76.957737 71.567911 
L 79.092552 67.815703 
L 81.583169 62.933318 
L 84.42959 56.779248 
L 92.613047 38.532545 
L 94.39206 35.289323 
L 95.81527 33.106186 
L 97.23848 31.371035 
L 98.305888 30.407479 
L 99.373295 29.765819 
L 100.0849 29.530389 
L 100.796505 29.457689 
L 101.50811 29.554792 
L 102.219715 29.828239 
L 102.93132 30.283979 
L 103.998728 31.320807 
L 105.066135 32.794351 
L 106.133543 34.715149 
L 107.20095 37.08887 
L 108.268358 39.915645 
L 109.691568 44.378078 
L 111.114778 49.601267 
L 112.893791 57.111698 
L 115.028606 67.339458 
L 117.875026 82.370144 
L 122.856261 108.980032 
L 124.991076 118.993898 
L 126.414286 124.800703 
L 127.837496 129.757469 
L 128.904904 132.853604 
L 129.972311 135.379488 
L 131.039719 137.312053 
L 131.751324 138.264052 
L 132.462929 138.945187 
L 133.174534 139.356242 
L 133.886139 139.5 
L 134.597744 139.381159 
L 135.309349 139.006319 
L 136.020954 138.383836 
L 136.732559 137.523774 
L 137.799967 135.814072 
L 138.867374 133.641629 
L 140.290584 130.115246 
L 141.713794 125.994971 
L 143.848609 119.026387 
L 150.608857 96.142095 
L 152.38787 91.161785 
L 153.81108 87.746485 
L 155.23429 84.893641 
L 156.6575 82.628417 
L 157.724907 81.315733 
L 158.792315 80.32423 
L 159.859723 79.636792 
L 160.92713 79.229196 
L 161.994538 79.070704 
L 163.061945 79.124813 
L 164.485155 79.45538 
L 166.264168 80.128876 
L 169.46639 81.369282 
L 170.889601 81.642588 
L 171.957008 81.638801 
L 173.024416 81.411492 
L 174.091823 80.926858 
L 175.159231 80.158007 
L 176.226638 79.085892 
L 177.294046 77.700023 
L 178.361453 75.998955 
L 179.784663 73.255541 
L 181.207873 70.01119 
L 182.986886 65.363865 
L 185.477504 58.116013 
L 189.747134 45.545889 
L 191.526146 40.995238 
L 192.949356 37.895851 
L 194.372566 35.385485 
L 195.439974 33.934474 
L 196.507382 32.877629 
L 197.574789 32.226912 
L 198.286394 32.020624 
L 198.997999 31.995231 
L 199.709604 32.147976 
L 200.421209 32.474653 
L 201.488617 33.278331 
L 202.556024 34.437049 
L 203.623432 35.922447 
L 205.046642 38.35558 
L 206.469852 41.230633 
L 208.248864 45.316846 
L 210.739482 51.666564 
L 215.364915 64.146767 
L 215.364915 64.146767 
" clip-path="url(#p34bbf548e4)" style="fill: none; stroke: #000000; stroke-opacity: 0.5; stroke-width: 1.5; stroke-linecap: square"/>
   </g>
   <g id="line2d_18">
    <path d="M 37.81946 63.76598 
L 215.364915 63.76598 
L 215.364915 63.76598 
" clip-path="url(#p34bbf548e4)" style="fill: none; stroke: #1f77b4; stroke-width: 2; stroke-linecap: square"/>
   </g>
   <g id="patch_3">
    <path d="M 28.942188 145.8 
L 28.942188 7.2 
" style="fill: none; stroke: #000000; stroke-width: 0.8; stroke-linejoin: miter; stroke-linecap: square"/>
   </g>
   <g id="patch_4">
    <path d="M 224.242188 145.8 
L 224.242188 7.2 
" style="fill: none; stroke: #000000; stroke-width: 0.8; stroke-linejoin: miter; stroke-linecap: square"/>
   </g>
   <g id="patch_5">
    <path d="M 28.942187 145.8 
L 224.242188 145.8 
" style="fill: none; stroke: #000000; stroke-width: 0.8; stroke-linejoin: miter; stroke-linecap: square"/>
   </g>
   <g id="patch_6">
    <path d="M 28.942187 7.2 
L 224.242188 7.2 
" style="fill: none; stroke: #000000; stroke-width: 0.8; stroke-linejoin: miter; stroke-linecap: square"/>
   </g>
  </g>
 </g>
 <defs>
  <clipPath id="p34bbf548e4">
   <rect x="28.942188" y="7.2" width="195.3" height="138.6"/>
  </clipPath>
 </defs>
</svg>
