<?xml version="1.0" encoding="utf-8" standalone="no"?>
<!DOCTYPE svg PUBLIC "-//W3C//DTD SVG 1.1//EN"
  "http://www.w3.org/Graphics/SVG/1.1/DTD/svg11.dtd">
<svg xmlns:xlink="http://www.w3.org/1999/xlink" width="231.442188pt" height="169.678125pt" viewBox="0 0 231.442188 169.678125" xmlns="http://www.w3.org/2000/svg" version="1.1">
 <metadata>
  <rdf:RDF xmlns:dc="http://purl.org/dc/elements/1.1/" xmlns:cc="http://creativecommons.org/ns#" xmlns:rdf="http://www.w3.org/1999/02/22-rdf-syntax-ns#">
   <cc:Work>
    <dc:type rdf:resource="http://purl.org/dc/dcmitype/StillImage"/>
    <dc:date>2025-06-02T21:00:44.708706</dc:date>
    <dc:format>image/svg+xml</dc:format>
    <dc:creator>
     <cc:Agent>
      <dc:title>Matplotlib v3.6.1, https://matplotlib.org/</dc:title>
     </cc:Agent>
    </dc:creator>
   </cc:Work>
  </rdf:RDF>
 </metadata>
 <defs>
  <style type="text/css">*{stroke-linejoin: round; stroke-linecap: butt}</style>
 </defs>
 <g id="figure_1">
  <g id="patch_1">
   <path d="M 0 169.678125 
L 231.442188 169.678125 
L 231.442188 0 
L 0 0 
z
" style="fill: #ffffff"/>
  </g>
  <g id="axes_1">
   <g id="patch_2">
    <path d="M 28.942188 145.8 
L 224.242188 145.8 
L 224.242188 7.2 
L 28.942188 7.2 
z
" style="fill: #ffffff"/>
   </g>
   <g id="PolyCollection_1">
    <path d="M 37.81946 18.306407 
L 37.81946 128.269227 
L 38.175263 128.269227 
L 38.531065 128.269227 
L 38.886868 128.269227 
L 39.24267 128.269227 
L 39.598473 128.269227 
L 39.954275 128.269227 
L 40.310078 128.269227 
L 40.66588 128.269227 
L 41.021683 128.269227 
L 41.377485 128.269227 
L 41.733288 128.269227 
L 42.08909 128.269227 
L 42.444893 128.269227 
L 42.800695 128.269227 
L 43.156498 128.269227 
L 43.5123 128.269227 
L 43.868103 128.269227 
L 44.223905 128.269227 
L 44.579708 128.269227 
L 44.935511 128.269227 
L 45.291313 128.269227 
L 45.647116 128.269227 
L 46.002918 128.269227 
L 46.358721 128.269227 
L 46.714523 128.269227 
L 47.070326 128.269227 
L 47.426128 128.269227 
L 47.781931 128.269227 
L 48.137733 128.269227 
L 48.493536 128.269227 
L 48.849338 128.269227 
L 49.205141 128.269227 
L 49.560943 128.269227 
L 49.916746 128.269227 
L 50.272548 128.269227 
L 50.628351 128.269227 
L 50.984153 128.269227 
L 51.339956 128.269227 
L 51.695758 128.269227 
L 52.051561 128.269227 
L 52.407363 128.269227 
L 52.763166 128.269227 
L 53.118968 128.269227 
L 53.474771 128.269227 
L 53.830573 128.269227 
L 54.186376 128.269227 
L 54.542178 128.269227 
L 54.897981 128.269227 
L 55.253783 128.269227 
L 55.609586 128.269227 
L 55.965388 128.269227 
L 56.321191 128.269227 
L 56.676993 128.269227 
L 57.032796 128.269227 
L 57.388599 128.269227 
L 57.744401 128.269227 
L 58.100204 128.269227 
L 58.456006 128.269227 
L 58.811809 128.269227 
L 59.167611 128.269227 
L 59.523414 128.269227 
L 59.879216 128.269227 
L 60.235019 128.269227 
L 60.590821 128.269227 
L 60.946624 128.269227 
L 61.302426 128.269227 
L 61.658229 128.269227 
L 62.014031 128.269227 
L 62.369834 128.269227 
L 62.725636 128.269227 
L 63.081439 128.269227 
L 63.437241 128.269227 
L 63.793044 128.269227 
L 64.148846 128.269227 
L 64.504649 128.269227 
L 64.860451 128.269227 
L 65.216254 128.269227 
L 65.572056 128.269227 
L 65.927859 128.269227 
L 66.283661 128.269227 
L 66.639464 128.269227 
L 66.995266 128.269227 
L 67.351069 128.269227 
L 67.706871 128.269227 
L 68.062674 128.269227 
L 68.418476 128.269227 
L 68.774279 128.269227 
L 69.130081 128.269227 
L 69.485884 128.269227 
L 69.841686 128.269227 
L 70.197489 128.269227 
L 70.553292 128.269227 
L 70.909094 128.269227 
L 71.264897 128.269227 
L 71.620699 128.269227 
L 71.976502 128.269227 
L 72.332304 128.269227 
L 72.688107 128.269227 
L 73.043909 128.269227 
L 73.399712 128.269227 
L 73.755514 128.269227 
L 74.111317 128.269227 
L 74.467119 128.269227 
L 74.822922 128.269227 
L 75.178724 128.269227 
L 75.534527 128.269227 
L 75.890329 128.269227 
L 76.246132 128.269227 
L 76.601934 128.269227 
L 76.957737 128.269227 
L 77.313539 128.269227 
L 77.669342 128.269227 
L 78.025144 128.269227 
L 78.380947 128.269227 
L 78.736749 128.269227 
L 79.092552 128.269227 
L 79.448354 128.269227 
L 79.804157 128.269227 
L 80.159959 128.269227 
L 80.515762 128.269227 
L 80.871564 128.269227 
L 81.227367 128.269227 
L 81.583169 128.269227 
L 81.938972 128.269227 
L 82.294774 128.269227 
L 82.650577 128.269227 
L 83.00638 128.269227 
L 83.362182 128.269227 
L 83.717985 128.269227 
L 84.073787 128.269227 
L 84.42959 128.269227 
L 84.785392 128.269227 
L 85.141195 128.269227 
L 85.496997 128.269227 
L 85.8528 128.269227 
L 86.208602 128.269227 
L 86.564405 128.269227 
L 86.920207 128.269227 
L 87.27601 128.269227 
L 87.631812 128.269227 
L 87.987615 128.269227 
L 88.343417 128.269227 
L 88.69922 128.269227 
L 89.055022 128.269227 
L 89.410825 128.269227 
L 89.766627 128.269227 
L 90.12243 128.269227 
L 90.478232 128.269227 
L 90.834035 128.269227 
L 91.189837 128.269227 
L 91.54564 128.269227 
L 91.901442 128.269227 
L 92.257245 128.269227 
L 92.613047 128.269227 
L 92.96885 128.269227 
L 93.324652 128.269227 
L 93.680455 128.269227 
L 94.036257 128.269227 
L 94.39206 128.269227 
L 94.747862 128.269227 
L 95.103665 128.269227 
L 95.459468 128.269227 
L 95.81527 128.269227 
L 96.171073 128.269227 
L 96.526875 128.269227 
L 96.882678 128.269227 
L 97.23848 128.269227 
L 97.594283 128.269227 
L 97.950085 128.269227 
L 98.305888 128.269227 
L 98.66169 128.269227 
L 99.017493 128.269227 
L 99.373295 128.269227 
L 99.729098 128.269227 
L 100.0849 128.269227 
L 100.440703 128.269227 
L 100.796505 128.269227 
L 101.152308 128.269227 
L 101.50811 128.269227 
L 101.863913 128.269227 
L 102.219715 128.269227 
L 102.575518 128.269227 
L 102.93132 128.269227 
L 103.287123 128.269227 
L 103.642925 128.269227 
L 103.998728 128.269227 
L 104.35453 128.269227 
L 104.710333 128.269227 
L 105.066135 128.269227 
L 105.421938 128.269227 
L 105.77774 128.269227 
L 106.133543 128.269227 
L 106.489345 128.269227 
L 106.845148 128.269227 
L 107.20095 128.269227 
L 107.556753 128.269227 
L 107.912556 128.269227 
L 108.268358 128.269227 
L 108.624161 128.269227 
L 108.979963 128.269227 
L 109.335766 128.269227 
L 109.691568 128.269227 
L 110.047371 128.269227 
L 110.403173 128.269227 
L 110.758976 128.269227 
L 111.114778 128.269227 
L 111.470581 128.269227 
L 111.826383 128.269227 
L 112.182186 128.269227 
L 112.537988 128.269227 
L 112.893791 128.269227 
L 113.249593 128.269227 
L 113.605396 128.269227 
L 113.961198 128.269227 
L 114.317001 128.269227 
L 114.672803 128.269227 
L 115.028606 128.269227 
L 115.384408 128.269227 
L 115.740211 128.269227 
L 116.096013 128.269227 
L 116.451816 128.269227 
L 116.807618 128.269227 
L 117.163421 128.269227 
L 117.519223 128.269227 
L 117.875026 128.269227 
L 118.230828 128.269227 
L 118.586631 128.269227 
L 118.942433 128.269227 
L 119.298236 128.269227 
L 119.654038 128.269227 
L 120.009841 128.269227 
L 120.365644 128.269227 
L 120.721446 128.269227 
L 121.077249 128.269227 
L 121.433051 128.269227 
L 121.788854 128.269227 
L 122.144656 128.269227 
L 122.500459 128.269227 
L 122.856261 128.269227 
L 123.212064 128.269227 
L 123.567866 128.269227 
L 123.923669 128.269227 
L 124.279471 128.269227 
L 124.635274 128.269227 
L 124.991076 128.269227 
L 125.346879 128.269227 
L 125.702681 128.269227 
L 126.058484 128.269227 
L 126.414286 128.269227 
L 126.770089 128.269227 
L 127.125891 128.269227 
L 127.481694 128.269227 
L 127.837496 128.269227 
L 128.193299 128.269227 
L 128.549101 128.269227 
L 128.904904 128.269227 
L 129.260706 128.269227 
L 129.616509 128.269227 
L 129.972311 128.269227 
L 130.328114 128.269227 
L 130.683916 128.269227 
L 131.039719 128.269227 
L 131.395521 128.269227 
L 131.751324 128.269227 
L 132.107126 128.269227 
L 132.462929 128.269227 
L 132.818731 128.269227 
L 133.174534 128.269227 
L 133.530337 128.269227 
L 133.886139 128.269227 
L 134.241942 128.269227 
L 134.597744 128.269227 
L 134.953547 128.269227 
L 135.309349 128.269227 
L 135.665152 128.269227 
L 136.020954 128.269227 
L 136.376757 128.269227 
L 136.732559 128.269227 
L 137.088362 128.269227 
L 137.444164 128.269227 
L 137.799967 128.269227 
L 138.155769 128.269227 
L 138.511572 128.269227 
L 138.867374 128.269227 
L 139.223177 128.269227 
L 139.578979 128.269227 
L 139.934782 128.269227 
L 140.290584 128.269227 
L 140.646387 128.269227 
L 141.002189 128.269227 
L 141.357992 128.269227 
L 141.713794 128.269227 
L 142.069597 128.269227 
L 142.425399 128.269227 
L 142.781202 128.269227 
L 143.137004 128.269227 
L 143.492807 128.269227 
L 143.848609 128.269227 
L 144.204412 128.269227 
L 144.560214 128.269227 
L 144.916017 128.269227 
L 145.271819 128.269227 
L 145.627622 128.269227 
L 145.983425 128.269227 
L 146.339227 128.269227 
L 146.69503 128.269227 
L 147.050832 128.269227 
L 147.406635 128.269227 
L 147.762437 128.269227 
L 148.11824 128.269227 
L 148.474042 128.269227 
L 148.829845 128.269227 
L 149.185647 128.269227 
L 149.54145 128.269227 
L 149.897252 128.269227 
L 150.253055 128.269227 
L 150.608857 128.269227 
L 150.96466 128.269227 
L 151.320462 128.269227 
L 151.676265 128.269227 
L 152.032067 128.269227 
L 152.38787 128.269227 
L 152.743672 128.269227 
L 153.099475 128.269227 
L 153.455277 128.269227 
L 153.81108 128.269227 
L 154.166882 128.269227 
L 154.522685 128.269227 
L 154.878487 128.269227 
L 155.23429 128.269227 
L 155.590092 128.269227 
L 155.945895 128.269227 
L 156.301697 128.269227 
L 156.6575 128.269227 
L 157.013302 128.269227 
L 157.369105 128.269227 
L 157.724907 128.269227 
L 158.08071 128.269227 
L 158.436513 128.269227 
L 158.792315 128.269227 
L 159.148118 128.269227 
L 159.50392 128.269227 
L 159.859723 128.269227 
L 160.215525 128.269227 
L 160.571328 128.269227 
L 160.92713 128.269227 
L 161.282933 128.269227 
L 161.638735 128.269227 
L 161.994538 128.269227 
L 162.35034 128.269227 
L 162.706143 128.269227 
L 163.061945 128.269227 
L 163.417748 128.269227 
L 163.77355 128.269227 
L 164.129353 128.269227 
L 164.485155 128.269227 
L 164.840958 128.269227 
L 165.19676 128.269227 
L 165.552563 128.269227 
L 165.908365 128.269227 
L 166.264168 128.269227 
L 166.61997 128.269227 
L 166.975773 128.269227 
L 167.331575 128.269227 
L 167.687378 128.269227 
L 168.04318 128.269227 
L 168.398983 128.269227 
L 168.754785 128.269227 
L 169.110588 128.269227 
L 169.46639 128.269227 
L 169.822193 128.269227 
L 170.177995 128.269227 
L 170.533798 128.269227 
L 170.889601 128.269227 
L 171.245403 128.269227 
L 171.601206 128.269227 
L 171.957008 128.269227 
L 172.312811 128.269227 
L 172.668613 128.269227 
L 173.024416 128.269227 
L 173.380218 128.269227 
L 173.736021 128.269227 
L 174.091823 128.269227 
L 174.447626 128.269227 
L 174.803428 128.269227 
L 175.159231 128.269227 
L 175.515033 128.269227 
L 175.870836 128.269227 
L 176.226638 128.269227 
L 176.582441 128.269227 
L 176.938243 128.269227 
L 177.294046 128.269227 
L 177.649848 128.269227 
L 178.005651 128.269227 
L 178.361453 128.269227 
L 178.717256 128.269227 
L 179.073058 128.269227 
L 179.428861 128.269227 
L 179.784663 128.269227 
L 180.140466 128.269227 
L 180.496268 128.269227 
L 180.852071 128.269227 
L 181.207873 128.269227 
L 181.563676 128.269227 
L 181.919478 128.269227 
L 182.275281 128.269227 
L 182.631083 128.269227 
L 182.986886 128.269227 
L 183.342689 128.269227 
L 183.698491 128.269227 
L 184.054294 128.269227 
L 184.410096 128.269227 
L 184.765899 128.269227 
L 185.121701 128.269227 
L 185.477504 128.269227 
L 185.833306 128.269227 
L 186.189109 128.269227 
L 186.544911 128.269227 
L 186.900714 128.269227 
L 187.256516 128.269227 
L 187.612319 128.269227 
L 187.968121 128.269227 
L 188.323924 128.269227 
L 188.679726 128.269227 
L 189.035529 128.269227 
L 189.391331 128.269227 
L 189.747134 128.269227 
L 190.102936 128.269227 
L 190.458739 128.269227 
L 190.814541 128.269227 
L 191.170344 128.269227 
L 191.526146 128.269227 
L 191.881949 128.269227 
L 192.237751 128.269227 
L 192.593554 128.269227 
L 192.949356 128.269227 
L 193.305159 128.269227 
L 193.660961 128.269227 
L 194.016764 128.269227 
L 194.372566 128.269227 
L 194.728369 128.269227 
L 195.084171 128.269227 
L 195.439974 128.269227 
L 195.795776 128.269227 
L 196.151579 128.269227 
L 196.507382 128.269227 
L 196.863184 128.269227 
L 197.218987 128.269227 
L 197.574789 128.269227 
L 197.930592 128.269227 
L 198.286394 128.269227 
L 198.642197 128.269227 
L 198.997999 128.269227 
L 199.353802 128.269227 
L 199.709604 128.269227 
L 200.065407 128.269227 
L 200.421209 128.269227 
L 200.777012 128.269227 
L 201.132814 128.269227 
L 201.488617 128.269227 
L 201.844419 128.269227 
L 202.200222 128.269227 
L 202.556024 128.269227 
L 202.911827 128.269227 
L 203.267629 128.269227 
L 203.623432 128.269227 
L 203.979234 128.269227 
L 204.335037 128.269227 
L 204.690839 128.269227 
L 205.046642 128.269227 
L 205.402444 128.269227 
L 205.758247 128.269227 
L 206.114049 128.269227 
L 206.469852 128.269227 
L 206.825654 128.269227 
L 207.181457 128.269227 
L 207.537259 128.269227 
L 207.893062 128.269227 
L 208.248864 128.269227 
L 208.604667 128.269227 
L 208.96047 128.269227 
L 209.316272 128.269227 
L 209.672075 128.269227 
L 210.027877 128.269227 
L 210.38368 128.269227 
L 210.739482 128.269227 
L 211.095285 128.269227 
L 211.451087 128.269227 
L 211.80689 128.269227 
L 212.162692 128.269227 
L 212.518495 128.269227 
L 212.874297 128.269227 
L 213.2301 128.269227 
L 213.585902 128.269227 
L 213.941705 128.269227 
L 214.297507 128.269227 
L 214.65331 128.269227 
L 215.009112 128.269227 
L 215.364915 128.269227 
L 215.364915 18.306407 
L 215.364915 18.306407 
L 215.009112 18.306407 
L 214.65331 18.306407 
L 214.297507 18.306407 
L 213.941705 18.306407 
L 213.585902 18.306407 
L 213.2301 18.306407 
L 212.874297 18.306407 
L 212.518495 18.306407 
L 212.162692 18.306407 
L 211.80689 18.306407 
L 211.451087 18.306407 
L 211.095285 18.306407 
L 210.739482 18.306407 
L 210.38368 18.306407 
L 210.027877 18.306407 
L 209.672075 18.306407 
L 209.316272 18.306407 
L 208.96047 18.306407 
L 208.604667 18.306407 
L 208.248864 18.306407 
L 207.893062 18.306407 
L 207.537259 18.306407 
L 207.181457 18.306407 
L 206.825654 18.306407 
L 206.469852 18.306407 
L 206.114049 18.306407 
L 205.758247 18.306407 
L 205.402444 18.306407 
L 205.046642 18.306407 
L 204.690839 18.306407 
L 204.335037 18.306407 
L 203.979234 18.306407 
L 203.623432 18.306407 
L 203.267629 18.306407 
L 202.911827 18.306407 
L 202.556024 18.306407 
L 202.200222 18.306407 
L 201.844419 18.306407 
L 201.488617 18.306407 
L 201.132814 18.306407 
L 200.777012 18.306407 
L 200.421209 18.306407 
L 200.065407 18.306407 
L 199.709604 18.306407 
L 199.353802 18.306407 
L 198.997999 18.306407 
L 198.642197 18.306407 
L 198.286394 18.306407 
L 197.930592 18.306407 
L 197.574789 18.306407 
L 197.218987 18.306407 
L 196.863184 18.306407 
L 196.507382 18.306407 
L 196.151579 18.306407 
L 195.795776 18.306407 
L 195.439974 18.306407 
L 195.084171 18.306407 
L 194.728369 18.306407 
L 194.372566 18.306407 
L 194.016764 18.306407 
L 193.660961 18.306407 
L 193.305159 18.306407 
L 192.949356 18.306407 
L 192.593554 18.306407 
L 192.237751 18.306407 
L 191.881949 18.306407 
L 191.526146 18.306407 
L 191.170344 18.306407 
L 190.814541 18.306407 
L 190.458739 18.306407 
L 190.102936 18.306407 
L 189.747134 18.306407 
L 189.391331 18.306407 
L 189.035529 18.306407 
L 188.679726 18.306407 
L 188.323924 18.306407 
L 187.968121 18.306407 
L 187.612319 18.306407 
L 187.256516 18.306407 
L 186.900714 18.306407 
L 186.544911 18.306407 
L 186.189109 18.306407 
L 185.833306 18.306407 
L 185.477504 18.306407 
L 185.121701 18.306407 
L 184.765899 18.306407 
L 184.410096 18.306407 
L 184.054294 18.306407 
L 183.698491 18.306407 
L 183.342689 18.306407 
L 182.986886 18.306407 
L 182.631083 18.306407 
L 182.275281 18.306407 
L 181.919478 18.306407 
L 181.563676 18.306407 
L 181.207873 18.306407 
L 180.852071 18.306407 
L 180.496268 18.306407 
L 180.140466 18.306407 
L 179.784663 18.306407 
L 179.428861 18.306407 
L 179.073058 18.306407 
L 178.717256 18.306407 
L 178.361453 18.306407 
L 178.005651 18.306407 
L 177.649848 18.306407 
L 177.294046 18.306407 
L 176.938243 18.306407 
L 176.582441 18.306407 
L 176.226638 18.306407 
L 175.870836 18.306407 
L 175.515033 18.306407 
L 175.159231 18.306407 
L 174.803428 18.306407 
L 174.447626 18.306407 
L 174.091823 18.306407 
L 173.736021 18.306407 
L 173.380218 18.306407 
L 173.024416 18.306407 
L 172.668613 18.306407 
L 172.312811 18.306407 
L 171.957008 18.306407 
L 171.601206 18.306407 
L 171.245403 18.306407 
L 170.889601 18.306407 
L 170.533798 18.306407 
L 170.177995 18.306407 
L 169.822193 18.306407 
L 169.46639 18.306407 
L 169.110588 18.306407 
L 168.754785 18.306407 
L 168.398983 18.306407 
L 168.04318 18.306407 
L 167.687378 18.306407 
L 167.331575 18.306407 
L 166.975773 18.306407 
L 166.61997 18.306407 
L 166.264168 18.306407 
L 165.908365 18.306407 
L 165.552563 18.306407 
L 165.19676 18.306407 
L 164.840958 18.306407 
L 164.485155 18.306407 
L 164.129353 18.306407 
L 163.77355 18.306407 
L 163.417748 18.306407 
L 163.061945 18.306407 
L 162.706143 18.306407 
L 162.35034 18.306407 
L 161.994538 18.306407 
L 161.638735 18.306407 
L 161.282933 18.306407 
L 160.92713 18.306407 
L 160.571328 18.306407 
L 160.215525 18.306407 
L 159.859723 18.306407 
L 159.50392 18.306407 
L 159.148118 18.306407 
L 158.792315 18.306407 
L 158.436513 18.306407 
L 158.08071 18.306407 
L 157.724907 18.306407 
L 157.369105 18.306407 
L 157.013302 18.306407 
L 156.6575 18.306407 
L 156.301697 18.306407 
L 155.945895 18.306407 
L 155.590092 18.306407 
L 155.23429 18.306407 
L 154.878487 18.306407 
L 154.522685 18.306407 
L 154.166882 18.306407 
L 153.81108 18.306407 
L 153.455277 18.306407 
L 153.099475 18.306407 
L 152.743672 18.306407 
L 152.38787 18.306407 
L 152.032067 18.306407 
L 151.676265 18.306407 
L 151.320462 18.306407 
L 150.96466 18.306407 
L 150.608857 18.306407 
L 150.253055 18.306407 
L 149.897252 18.306407 
L 149.54145 18.306407 
L 149.185647 18.306407 
L 148.829845 18.306407 
L 148.474042 18.306407 
L 148.11824 18.306407 
L 147.762437 18.306407 
L 147.406635 18.306407 
L 147.050832 18.306407 
L 146.69503 18.306407 
L 146.339227 18.306407 
L 145.983425 18.306407 
L 145.627622 18.306407 
L 145.271819 18.306407 
L 144.916017 18.306407 
L 144.560214 18.306407 
L 144.204412 18.306407 
L 143.848609 18.306407 
L 143.492807 18.306407 
L 143.137004 18.306407 
L 142.781202 18.306407 
L 142.425399 18.306407 
L 142.069597 18.306407 
L 141.713794 18.306407 
L 141.357992 18.306407 
L 141.002189 18.306407 
L 140.646387 18.306407 
L 140.290584 18.306407 
L 139.934782 18.306407 
L 139.578979 18.306407 
L 139.223177 18.306407 
L 138.867374 18.306407 
L 138.511572 18.306407 
L 138.155769 18.306407 
L 137.799967 18.306407 
L 137.444164 18.306407 
L 137.088362 18.306407 
L 136.732559 18.306407 
L 136.376757 18.306407 
L 136.020954 18.306407 
L 135.665152 18.306407 
L 135.309349 18.306407 
L 134.953547 18.306407 
L 134.597744 18.306407 
L 134.241942 18.306407 
L 133.886139 18.306407 
L 133.530337 18.306407 
L 133.174534 18.306407 
L 132.818731 18.306407 
L 132.462929 18.306407 
L 132.107126 18.306407 
L 131.751324 18.306407 
L 131.395521 18.306407 
L 131.039719 18.306407 
L 130.683916 18.306407 
L 130.328114 18.306407 
L 129.972311 18.306407 
L 129.616509 18.306407 
L 129.260706 18.306407 
L 128.904904 18.306407 
L 128.549101 18.306407 
L 128.193299 18.306407 
L 127.837496 18.306407 
L 127.481694 18.306407 
L 127.125891 18.306407 
L 126.770089 18.306407 
L 126.414286 18.306407 
L 126.058484 18.306407 
L 125.702681 18.306407 
L 125.346879 18.306407 
L 124.991076 18.306407 
L 124.635274 18.306407 
L 124.279471 18.306407 
L 123.923669 18.306407 
L 123.567866 18.306407 
L 123.212064 18.306407 
L 122.856261 18.306407 
L 122.500459 18.306407 
L 122.144656 18.306407 
L 121.788854 18.306407 
L 121.433051 18.306407 
L 121.077249 18.306407 
L 120.721446 18.306407 
L 120.365644 18.306407 
L 120.009841 18.306407 
L 119.654038 18.306407 
L 119.298236 18.306407 
L 118.942433 18.306407 
L 118.586631 18.306407 
L 118.230828 18.306407 
L 117.875026 18.306407 
L 117.519223 18.306407 
L 117.163421 18.306407 
L 116.807618 18.306407 
L 116.451816 18.306407 
L 116.096013 18.306407 
L 115.740211 18.306407 
L 115.384408 18.306407 
L 115.028606 18.306407 
L 114.672803 18.306407 
L 114.317001 18.306407 
L 113.961198 18.306407 
L 113.605396 18.306407 
L 113.249593 18.306407 
L 112.893791 18.306407 
L 112.537988 18.306407 
L 112.182186 18.306407 
L 111.826383 18.306407 
L 111.470581 18.306407 
L 111.114778 18.306407 
L 110.758976 18.306407 
L 110.403173 18.306407 
L 110.047371 18.306407 
L 109.691568 18.306407 
L 109.335766 18.306407 
L 108.979963 18.306407 
L 108.624161 18.306407 
L 108.268358 18.306407 
L 107.912556 18.306407 
L 107.556753 18.306407 
L 107.20095 18.306407 
L 106.845148 18.306407 
L 106.489345 18.306407 
L 106.133543 18.306407 
L 105.77774 18.306407 
L 105.421938 18.306407 
L 105.066135 18.306407 
L 104.710333 18.306407 
L 104.35453 18.306407 
L 103.998728 18.306407 
L 103.642925 18.306407 
L 103.287123 18.306407 
L 102.93132 18.306407 
L 102.575518 18.306407 
L 102.219715 18.306407 
L 101.863913 18.306407 
L 101.50811 18.306407 
L 101.152308 18.306407 
L 100.796505 18.306407 
L 100.440703 18.306407 
L 100.0849 18.306407 
L 99.729098 18.306407 
L 99.373295 18.306407 
L 99.017493 18.306407 
L 98.66169 18.306407 
L 98.305888 18.306407 
L 97.950085 18.306407 
L 97.594283 18.306407 
L 97.23848 18.306407 
L 96.882678 18.306407 
L 96.526875 18.306407 
L 96.171073 18.306407 
L 95.81527 18.306407 
L 95.459468 18.306407 
L 95.103665 18.306407 
L 94.747862 18.306407 
L 94.39206 18.306407 
L 94.036257 18.306407 
L 93.680455 18.306407 
L 93.324652 18.306407 
L 92.96885 18.306407 
L 92.613047 18.306407 
L 92.257245 18.306407 
L 91.901442 18.306407 
L 91.54564 18.306407 
L 91.189837 18.306407 
L 90.834035 18.306407 
L 90.478232 18.306407 
L 90.12243 18.306407 
L 89.766627 18.306407 
L 89.410825 18.306407 
L 89.055022 18.306407 
L 88.69922 18.306407 
L 88.343417 18.306407 
L 87.987615 18.306407 
L 87.631812 18.306407 
L 87.27601 18.306407 
L 86.920207 18.306407 
L 86.564405 18.306407 
L 86.208602 18.306407 
L 85.8528 18.306407 
L 85.496997 18.306407 
L 85.141195 18.306407 
L 84.785392 18.306407 
L 84.42959 18.306407 
L 84.073787 18.306407 
L 83.717985 18.306407 
L 83.362182 18.306407 
L 83.00638 18.306407 
L 82.650577 18.306407 
L 82.294774 18.306407 
L 81.938972 18.306407 
L 81.583169 18.306407 
L 81.227367 18.306407 
L 80.871564 18.306407 
L 80.515762 18.306407 
L 80.159959 18.306407 
L 79.804157 18.306407 
L 79.448354 18.306407 
L 79.092552 18.306407 
L 78.736749 18.306407 
L 78.380947 18.306407 
L 78.025144 18.306407 
L 77.669342 18.306407 
L 77.313539 18.306407 
L 76.957737 18.306407 
L 76.601934 18.306407 
L 76.246132 18.306407 
L 75.890329 18.306407 
L 75.534527 18.306407 
L 75.178724 18.306407 
L 74.822922 18.306407 
L 74.467119 18.306407 
L 74.111317 18.306407 
L 73.755514 18.306407 
L 73.399712 18.306407 
L 73.043909 18.306407 
L 72.688107 18.306407 
L 72.332304 18.306407 
L 71.976502 18.306407 
L 71.620699 18.306407 
L 71.264897 18.306407 
L 70.909094 18.306407 
L 70.553292 18.306407 
L 70.197489 18.306407 
L 69.841686 18.306407 
L 69.485884 18.306407 
L 69.130081 18.306407 
L 68.774279 18.306407 
L 68.418476 18.306407 
L 68.062674 18.306407 
L 67.706871 18.306407 
L 67.351069 18.306407 
L 66.995266 18.306407 
L 66.639464 18.306407 
L 66.283661 18.306407 
L 65.927859 18.306407 
L 65.572056 18.306407 
L 65.216254 18.306407 
L 64.860451 18.306407 
L 64.504649 18.306407 
L 64.148846 18.306407 
L 63.793044 18.306407 
L 63.437241 18.306407 
L 63.081439 18.306407 
L 62.725636 18.306407 
L 62.369834 18.306407 
L 62.014031 18.306407 
L 61.658229 18.306407 
L 61.302426 18.306407 
L 60.946624 18.306407 
L 60.590821 18.306407 
L 60.235019 18.306407 
L 59.879216 18.306407 
L 59.523414 18.306407 
L 59.167611 18.306407 
L 58.811809 18.306407 
L 58.456006 18.306407 
L 58.100204 18.306407 
L 57.744401 18.306407 
L 57.388599 18.306407 
L 57.032796 18.306407 
L 56.676993 18.306407 
L 56.321191 18.306407 
L 55.965388 18.306407 
L 55.609586 18.306407 
L 55.253783 18.306407 
L 54.897981 18.306407 
L 54.542178 18.306407 
L 54.186376 18.306407 
L 53.830573 18.306407 
L 53.474771 18.306407 
L 53.118968 18.306407 
L 52.763166 18.306407 
L 52.407363 18.306407 
L 52.051561 18.306407 
L 51.695758 18.306407 
L 51.339956 18.306407 
L 50.984153 18.306407 
L 50.628351 18.306407 
L 50.272548 18.306407 
L 49.916746 18.306407 
L 49.560943 18.306407 
L 49.205141 18.306407 
L 48.849338 18.306407 
L 48.493536 18.306407 
L 48.137733 18.306407 
L 47.781931 18.306407 
L 47.426128 18.306407 
L 47.070326 18.306407 
L 46.714523 18.306407 
L 46.358721 18.306407 
L 46.002918 18.306407 
L 45.647116 18.306407 
L 45.291313 18.306407 
L 44.935511 18.306407 
L 44.579708 18.306407 
L 44.223905 18.306407 
L 43.868103 18.306407 
L 43.5123 18.306407 
L 43.156498 18.306407 
L 42.800695 18.306407 
L 42.444893 18.306407 
L 42.08909 18.306407 
L 41.733288 18.306407 
L 41.377485 18.306407 
L 41.021683 18.306407 
L 40.66588 18.306407 
L 40.310078 18.306407 
L 39.954275 18.306407 
L 39.598473 18.306407 
L 39.24267 18.306407 
L 38.886868 18.306407 
L 38.531065 18.306407 
L 38.175263 18.306407 
L 37.81946 18.306407 
z
" clip-path="url(#p585b971216)" style="fill: #1f77b4; fill-opacity: 0.25"/>
   </g>
   <g id="matplotlib.axis_1">
    <g id="xtick_1">
     <g id="line2d_1">
      <defs>
       <path id="mb9c0398e5a" d="M 0 0 
L 0 3.5 
" style="stroke: #000000; stroke-width: 0.8"/>
      </defs>
      <g>
       <use xlink:href="#mb9c0398e5a" x="37.81946" y="145.8" style="stroke: #000000; stroke-width: 0.8"/>
      </g>
     </g>
     <g id="text_1">
      <!-- 0 -->
      <g transform="translate(34.63821 160.398438) scale(0.1 -0.1)">
       <defs>
        <path id="DejaVuSans-30" d="M 2034 4250 
Q 1547 4250 1301 3770 
Q 1056 3291 1056 2328 
Q 1056 1369 1301 889 
Q 1547 409 2034 409 
Q 2525 409 2770 889 
Q 3016 1369 3016 2328 
Q 3016 3291 2770 3770 
Q 2525 4250 2034 4250 
z
M 2034 4750 
Q 2819 4750 3233 4129 
Q 3647 3509 3647 2328 
Q 3647 1150 3233 529 
Q 2819 -91 2034 -91 
Q 1250 -91 836 529 
Q 422 1150 422 2328 
Q 422 3509 836 4129 
Q 1250 4750 2034 4750 
z
" transform="scale(0.015625)"/>
       </defs>
       <use xlink:href="#DejaVuSans-30"/>
      </g>
     </g>
    </g>
    <g id="xtick_2">
     <g id="line2d_2">
      <g>
       <use xlink:href="#mb9c0398e5a" x="73.328551" y="145.8" style="stroke: #000000; stroke-width: 0.8"/>
      </g>
     </g>
     <g id="text_2">
      <!-- 1 -->
      <g transform="translate(70.147301 160.398438) scale(0.1 -0.1)">
       <defs>
        <path id="DejaVuSans-31" d="M 794 531 
L 1825 531 
L 1825 4091 
L 703 3866 
L 703 4441 
L 1819 4666 
L 2450 4666 
L 2450 531 
L 3481 531 
L 3481 0 
L 794 0 
L 794 531 
z
" transform="scale(0.015625)"/>
       </defs>
       <use xlink:href="#DejaVuSans-31"/>
      </g>
     </g>
    </g>
    <g id="xtick_3">
     <g id="line2d_3">
      <g>
       <use xlink:href="#mb9c0398e5a" x="108.837642" y="145.8" style="stroke: #000000; stroke-width: 0.8"/>
      </g>
     </g>
     <g id="text_3">
      <!-- 2 -->
      <g transform="translate(105.656392 160.398438) scale(0.1 -0.1)">
       <defs>
        <path id="DejaVuSans-32" d="M 1228 531 
L 3431 531 
L 3431 0 
L 469 0 
L 469 531 
Q 828 903 1448 1529 
Q 2069 2156 2228 2338 
Q 2531 2678 2651 2914 
Q 2772 3150 2772 3378 
Q 2772 3750 2511 3984 
Q 2250 4219 1831 4219 
Q 1534 4219 1204 4116 
Q 875 4013 500 3803 
L 500 4441 
Q 881 4594 1212 4672 
Q 1544 4750 1819 4750 
Q 2544 4750 2975 4387 
Q 3406 4025 3406 3419 
Q 3406 3131 3298 2873 
Q 3191 2616 2906 2266 
Q 2828 2175 2409 1742 
Q 1991 1309 1228 531 
z
" transform="scale(0.015625)"/>
       </defs>
       <use xlink:href="#DejaVuSans-32"/>
      </g>
     </g>
    </g>
    <g id="xtick_4">
     <g id="line2d_4">
      <g>
       <use xlink:href="#mb9c0398e5a" x="144.346733" y="145.8" style="stroke: #000000; stroke-width: 0.8"/>
      </g>
     </g>
     <g id="text_4">
      <!-- 3 -->
      <g transform="translate(141.165483 160.398438) scale(0.1 -0.1)">
       <defs>
        <path id="DejaVuSans-33" d="M 2597 2516 
Q 3050 2419 3304 2112 
Q 3559 1806 3559 1356 
Q 3559 666 3084 287 
Q 2609 -91 1734 -91 
Q 1441 -91 1130 -33 
Q 819 25 488 141 
L 488 750 
Q 750 597 1062 519 
Q 1375 441 1716 441 
Q 2309 441 2620 675 
Q 2931 909 2931 1356 
Q 2931 1769 2642 2001 
Q 2353 2234 1838 2234 
L 1294 2234 
L 1294 2753 
L 1863 2753 
Q 2328 2753 2575 2939 
Q 2822 3125 2822 3475 
Q 2822 3834 2567 4026 
Q 2313 4219 1838 4219 
Q 1578 4219 1281 4162 
Q 984 4106 628 3988 
L 628 4550 
Q 988 4650 1302 4700 
Q 1616 4750 1894 4750 
Q 2613 4750 3031 4423 
Q 3450 4097 3450 3541 
Q 3450 3153 3228 2886 
Q 3006 2619 2597 2516 
z
" transform="scale(0.015625)"/>
       </defs>
       <use xlink:href="#DejaVuSans-33"/>
      </g>
     </g>
    </g>
    <g id="xtick_5">
     <g id="line2d_5">
      <g>
       <use xlink:href="#mb9c0398e5a" x="179.855824" y="145.8" style="stroke: #000000; stroke-width: 0.8"/>
      </g>
     </g>
     <g id="text_5">
      <!-- 4 -->
      <g transform="translate(176.674574 160.398438) scale(0.1 -0.1)">
       <defs>
        <path id="DejaVuSans-34" d="M 2419 4116 
L 825 1625 
L 2419 1625 
L 2419 4116 
z
M 2253 4666 
L 3047 4666 
L 3047 1625 
L 3713 1625 
L 3713 1100 
L 3047 1100 
L 3047 0 
L 2419 0 
L 2419 1100 
L 313 1100 
L 313 1709 
L 2253 4666 
z
" transform="scale(0.015625)"/>
       </defs>
       <use xlink:href="#DejaVuSans-34"/>
      </g>
     </g>
    </g>
    <g id="xtick_6">
     <g id="line2d_6">
      <g>
       <use xlink:href="#mb9c0398e5a" x="215.364915" y="145.8" style="stroke: #000000; stroke-width: 0.8"/>
      </g>
     </g>
     <g id="text_6">
      <!-- 5 -->
      <g transform="translate(212.183665 160.398438) scale(0.1 -0.1)">
       <defs>
        <path id="DejaVuSans-35" d="M 691 4666 
L 3169 4666 
L 3169 4134 
L 1269 4134 
L 1269 2991 
Q 1406 3038 1543 3061 
Q 1681 3084 1819 3084 
Q 2600 3084 3056 2656 
Q 3513 2228 3513 1497 
Q 3513 744 3044 326 
Q 2575 -91 1722 -91 
Q 1428 -91 1123 -41 
Q 819 9 494 109 
L 494 744 
Q 775 591 1075 516 
Q 1375 441 1709 441 
Q 2250 441 2565 725 
Q 2881 1009 2881 1497 
Q 2881 1984 2565 2268 
Q 2250 2553 1709 2553 
Q 1456 2553 1204 2497 
Q 953 2441 691 2322 
L 691 4666 
z
" transform="scale(0.015625)"/>
       </defs>
       <use xlink:href="#DejaVuSans-35"/>
      </g>
     </g>
    </g>
   </g>
   <g id="matplotlib.axis_2">
    <g id="ytick_1">
     <g id="line2d_7">
      <defs>
       <path id="m6e39f15939" d="M 0 0 
L -3.5 0 
" style="stroke: #000000; stroke-width: 0.8"/>
      </defs>
      <g>
       <use xlink:href="#m6e39f15939" x="28.942188" y="128.269227" style="stroke: #000000; stroke-width: 0.8"/>
      </g>
     </g>
     <g id="text_7">
      <!-- −2 -->
      <g transform="translate(7.2 132.068445) scale(0.1 -0.1)">
       <defs>
        <path id="DejaVuSans-2212" d="M 678 2272 
L 4684 2272 
L 4684 1741 
L 678 1741 
L 678 2272 
z
" transform="scale(0.015625)"/>
       </defs>
       <use xlink:href="#DejaVuSans-2212"/>
       <use xlink:href="#DejaVuSans-32" x="83.789062"/>
      </g>
     </g>
    </g>
    <g id="ytick_2">
     <g id="line2d_8">
      <g>
       <use xlink:href="#m6e39f15939" x="28.942188" y="100.778522" style="stroke: #000000; stroke-width: 0.8"/>
      </g>
     </g>
     <g id="text_8">
      <!-- −1 -->
      <g transform="translate(7.2 104.577741) scale(0.1 -0.1)">
       <use xlink:href="#DejaVuSans-2212"/>
       <use xlink:href="#DejaVuSans-31" x="83.789062"/>
      </g>
     </g>
    </g>
    <g id="ytick_3">
     <g id="line2d_9">
      <g>
       <use xlink:href="#m6e39f15939" x="28.942188" y="73.287817" style="stroke: #000000; stroke-width: 0.8"/>
      </g>
     </g>
     <g id="text_9">
      <!-- 0 -->
      <g transform="translate(15.579688 77.087036) scale(0.1 -0.1)">
       <use xlink:href="#DejaVuSans-30"/>
      </g>
     </g>
    </g>
    <g id="ytick_4">
     <g id="line2d_10">
      <g>
       <use xlink:href="#m6e39f15939" x="28.942188" y="45.797112" style="stroke: #000000; stroke-width: 0.8"/>
      </g>
     </g>
     <g id="text_10">
      <!-- 1 -->
      <g transform="translate(15.579688 49.596331) scale(0.1 -0.1)">
       <use xlink:href="#DejaVuSans-31"/>
      </g>
     </g>
    </g>
    <g id="ytick_5">
     <g id="line2d_11">
      <g>
       <use xlink:href="#m6e39f15939" x="28.942188" y="18.306407" style="stroke: #000000; stroke-width: 0.8"/>
      </g>
     </g>
     <g id="text_11">
      <!-- 2 -->
      <g transform="translate(15.579688 22.105626) scale(0.1 -0.1)">
       <use xlink:href="#DejaVuSans-32"/>
      </g>
     </g>
    </g>
   </g>
   <g id="line2d_12">
    <path d="M 37.81946 84.761947 
L 39.598473 84.473968 
L 41.021683 84.038798 
L 42.444893 83.367684 
L 43.868103 82.427022 
L 45.291313 81.201117 
L 46.714523 79.693197 
L 48.493536 77.446523 
L 50.628351 74.329516 
L 57.744401 63.443755 
L 59.167611 61.765341 
L 60.590821 60.432186 
L 61.658229 59.696998 
L 62.725636 59.213222 
L 63.793044 58.997719 
L 64.860451 59.061717 
L 65.927859 59.41019 
L 66.995266 60.04131 
L 68.062674 60.946074 
L 69.130081 62.108138 
L 70.553292 64.015783 
L 72.332304 66.866117 
L 74.822922 71.373142 
L 78.025144 77.097695 
L 79.448354 79.265444 
L 80.871564 81.025291 
L 81.938972 82.011552 
L 83.00638 82.667929 
L 83.717985 82.906182 
L 84.42959 82.97599 
L 85.141195 82.871539 
L 85.8528 82.588772 
L 86.564405 82.12544 
L 87.631812 81.091494 
L 88.69922 79.657141 
L 89.766627 77.83784 
L 91.189837 74.856228 
L 92.613047 71.313127 
L 94.39206 66.249116 
L 96.882678 58.395337 
L 101.50811 43.670477 
L 103.287123 38.698797 
L 104.710333 35.220757 
L 106.133543 32.276967 
L 107.20095 30.45939 
L 108.268358 28.99974 
L 109.335766 27.912775 
L 110.403173 27.207395 
L 111.114778 26.950925 
L 111.826383 26.865099 
L 112.537988 26.948334 
L 113.249593 27.197981 
L 114.317001 27.876088 
L 115.384408 28.903292 
L 116.451816 30.258007 
L 117.875026 32.528232 
L 119.298236 35.261882 
L 121.077249 39.205562 
L 123.567866 45.399171 
L 130.683916 63.652359 
L 133.174534 69.198858 
L 135.309349 73.393504 
L 137.444164 77.051695 
L 139.223177 79.69771 
L 141.002189 81.988982 
L 142.781202 83.931689 
L 144.560214 85.521761 
L 145.983425 86.528245 
L 147.406635 87.281104 
L 148.829845 87.757276 
L 149.897252 87.915664 
L 150.96466 87.888421 
L 152.032067 87.660739 
L 153.099475 87.217447 
L 154.166882 86.54373 
L 155.23429 85.62595 
L 156.301697 84.452514 
L 157.724907 82.475968 
L 159.148118 80.021238 
L 160.571328 77.095828 
L 162.35034 72.820576 
L 164.129353 67.955106 
L 166.61997 60.458193 
L 171.245403 46.373433 
L 173.024416 41.67278 
L 174.447626 38.458655 
L 175.870836 35.839968 
L 176.938243 34.313362 
L 178.005651 33.186841 
L 179.073058 32.473251 
L 179.784663 32.229167 
L 180.496268 32.169501 
L 181.207873 32.291637 
L 181.919478 32.591542 
L 182.986886 33.362675 
L 184.054294 34.498689 
L 185.121701 35.972359 
L 186.544911 38.409649 
L 187.968121 41.316086 
L 189.747134 45.489057 
L 191.881949 51.089724 
L 195.439974 61.214879 
L 199.353802 72.286559 
L 201.488617 77.722536 
L 203.267629 81.661916 
L 204.690839 84.31632 
L 206.114049 86.458963 
L 207.181457 87.702809 
L 208.248864 88.624475 
L 209.316272 89.224332 
L 210.38368 89.513102 
L 211.451087 89.512276 
L 212.518495 89.254027 
L 213.585902 88.780539 
L 215.009112 87.903674 
L 215.364915 87.654983 
L 215.364915 87.654983 
" clip-path="url(#p585b971216)" style="fill: none; stroke: #000000; stroke-opacity: 0.5; stroke-width: 1.5; stroke-linecap: square"/>
   </g>
   <g id="line2d_13">
    <path d="M 37.81946 68.361654 
L 39.954275 72.781563 
L 41.733288 75.98012 
L 43.156498 78.167462 
L 44.579708 79.994758 
L 46.002918 81.445354 
L 47.426128 82.513946 
L 48.493536 83.068511 
L 49.560943 83.419873 
L 50.628351 83.58029 
L 52.051561 83.52638 
L 53.474771 83.213281 
L 55.253783 82.551368 
L 58.456006 81.015951 
L 60.946624 79.937171 
L 62.725636 79.409045 
L 64.504649 79.150383 
L 66.283661 79.17042 
L 68.062674 79.433798 
L 70.553292 80.07044 
L 74.467119 81.112231 
L 76.246132 81.374273 
L 78.025144 81.408527 
L 79.804157 81.177529 
L 81.583169 80.664755 
L 83.362182 79.868063 
L 85.141195 78.792491 
L 86.920207 77.445175 
L 88.69922 75.83426 
L 90.834035 73.571825 
L 93.324652 70.541 
L 100.796505 61.050393 
L 102.219715 59.732958 
L 103.642925 58.75658 
L 104.710333 58.284596 
L 105.77774 58.055816 
L 106.845148 58.079613 
L 107.912556 58.356187 
L 108.979963 58.875954 
L 110.047371 59.61943 
L 111.470581 60.907311 
L 113.249593 62.860105 
L 117.519223 67.755314 
L 118.942433 69.00174 
L 120.009841 69.687525 
L 121.077249 70.116056 
L 122.144656 70.25663 
L 123.212064 70.087449 
L 124.279471 69.596059 
L 125.346879 68.779321 
L 126.414286 67.643052 
L 127.481694 66.201291 
L 128.904904 63.841424 
L 130.328114 61.043636 
L 132.107126 57.053483 
L 134.597744 50.857419 
L 141.002189 34.572689 
L 143.492807 29.01579 
L 145.627622 24.832583 
L 147.406635 21.800285 
L 149.185647 19.202848 
L 150.608857 17.449813 
L 152.032067 15.996777 
L 153.455277 14.85728 
L 154.878487 14.048991 
L 155.945895 13.67324 
L 157.013302 13.506901 
L 158.08071 13.561717 
L 159.148118 13.84991 
L 160.215525 14.383633 
L 161.282933 15.174265 
L 162.35034 16.231653 
L 163.417748 17.563259 
L 164.840958 19.772186 
L 166.264168 22.474648 
L 167.687378 25.654026 
L 169.46639 30.244892 
L 171.601206 36.509009 
L 174.447626 45.67531 
L 178.361453 58.279642 
L 180.140466 63.376275 
L 181.563676 66.931943 
L 182.986886 69.900539 
L 184.054294 71.682164 
L 185.121701 73.043937 
L 186.189109 73.958727 
L 186.900714 74.310357 
L 187.612319 74.45085 
L 188.323924 74.378172 
L 189.035529 74.092041 
L 189.747134 73.59389 
L 190.458739 72.886895 
L 191.526146 71.445992 
L 192.593554 69.570151 
L 193.660961 67.290963 
L 195.084171 63.693164 
L 196.863184 58.456808 
L 199.353802 50.209041 
L 203.979234 34.562772 
L 205.758247 29.310357 
L 207.181457 25.700799 
L 208.604667 22.746852 
L 209.672075 21.023579 
L 210.739482 19.762992 
L 211.451087 19.194705 
L 212.162692 18.852767 
L 212.874297 18.743059 
L 213.585902 18.870072 
L 214.297507 19.236878 
L 215.009112 19.845044 
L 215.364915 20.239714 
L 215.364915 20.239714 
" clip-path="url(#p585b971216)" style="fill: none; stroke: #000000; stroke-opacity: 0.5; stroke-width: 1.5; stroke-linecap: square"/>
   </g>
   <g id="line2d_14">
    <path d="M 37.81946 125.177939 
L 38.886868 124.971315 
L 39.954275 124.515957 
L 41.021683 123.812164 
L 42.08909 122.864192 
L 43.5123 121.23579 
L 44.935511 119.221501 
L 46.714523 116.2321 
L 48.849338 112.107663 
L 52.051561 105.317028 
L 55.965388 97.108277 
L 58.100204 93.099849 
L 59.879216 90.144395 
L 61.658229 87.577273 
L 63.437241 85.394445 
L 65.216254 83.553722 
L 67.351069 81.685947 
L 73.755514 76.406197 
L 75.534527 74.508303 
L 77.313539 72.272076 
L 79.092552 69.682348 
L 81.227367 66.159961 
L 84.785392 59.718456 
L 87.631812 54.722557 
L 89.410825 52.004408 
L 90.834035 50.184805 
L 92.257245 48.757188 
L 93.324652 47.978634 
L 94.39206 47.471754 
L 95.459468 47.250458 
L 96.526875 47.323771 
L 97.594283 47.696057 
L 98.66169 48.367203 
L 99.729098 49.333027 
L 100.796505 50.585674 
L 102.219715 52.682375 
L 103.642925 55.234802 
L 105.421938 59.00239 
L 107.20095 63.322823 
L 109.335766 69.088636 
L 112.182186 77.439332 
L 119.298236 98.681759 
L 121.788854 105.296782 
L 123.923669 110.309838 
L 125.702681 113.912924 
L 127.125891 116.35893 
L 128.549101 118.37012 
L 129.616509 119.567581 
L 130.683916 120.479588 
L 131.751324 121.090787 
L 132.818731 121.388279 
L 133.886139 121.36256 
L 134.953547 121.008487 
L 136.020954 120.326176 
L 137.088362 119.321738 
L 138.155769 118.007832 
L 139.578979 115.80909 
L 141.002189 113.159829 
L 142.781202 109.343196 
L 145.271819 103.413339 
L 149.185647 94.027245 
L 151.320462 89.533883 
L 152.743672 86.967447 
L 154.166882 84.814333 
L 155.590092 83.116693 
L 156.6575 82.159348 
L 157.724907 81.480473 
L 158.792315 81.082824 
L 159.859723 80.965665 
L 160.92713 81.124979 
L 161.994538 81.553592 
L 163.061945 82.241236 
L 164.129353 83.174465 
L 165.552563 84.771467 
L 166.975773 86.726179 
L 168.754785 89.581141 
L 171.245403 94.093868 
L 175.870836 102.658521 
L 177.649848 105.519595 
L 179.073058 107.481501 
L 180.496268 109.091289 
L 181.919478 110.306599 
L 182.986886 110.941384 
L 184.054294 111.330152 
L 185.121701 111.468484 
L 186.189109 111.354453 
L 187.256516 110.987798 
L 188.323924 110.369119 
L 189.391331 109.499138 
L 190.458739 108.378105 
L 191.881949 106.49168 
L 193.305159 104.153702 
L 194.728369 101.358085 
L 196.151579 98.099287 
L 197.930592 93.373474 
L 199.709604 87.942382 
L 201.844419 80.579007 
L 204.335037 71.086214 
L 210.38368 47.582766 
L 212.162692 41.783989 
L 213.585902 37.885971 
L 214.65331 35.4806 
L 215.364915 34.149095 
L 215.364915 34.149095 
" clip-path="url(#p585b971216)" style="fill: none; stroke: #000000; stroke-opacity: 0.5; stroke-width: 1.5; stroke-linecap: square"/>
   </g>
   <g id="line2d_15">
    <path d="M 37.81946 37.746641 
L 38.886868 37.876177 
L 39.954275 38.245355 
L 41.021683 38.872149 
L 42.08909 39.771677 
L 43.156498 40.955338 
L 44.223905 42.430013 
L 45.647116 44.850958 
L 47.070326 47.778913 
L 48.493536 51.180679 
L 50.272548 56.013455 
L 52.763166 63.572863 
L 58.100204 80.202183 
L 59.879216 84.940074 
L 61.302426 88.152953 
L 62.725636 90.74292 
L 63.793044 92.231218 
L 64.860451 93.307512 
L 65.572056 93.791356 
L 66.283661 94.088133 
L 66.995266 94.200278 
L 67.706871 94.132452 
L 68.418476 93.891464 
L 69.485884 93.225209 
L 70.553292 92.227463 
L 71.620699 90.944113 
L 73.043909 88.879596 
L 75.178724 85.301103 
L 79.092552 78.593925 
L 80.871564 75.977006 
L 82.294774 74.202759 
L 83.717985 72.734695 
L 85.141195 71.561432 
L 86.564405 70.645493 
L 88.343417 69.773487 
L 91.54564 68.544162 
L 94.036257 67.466377 
L 95.81527 66.465856 
L 97.594283 65.226896 
L 99.729098 63.447252 
L 102.93132 60.418056 
L 106.133543 57.476084 
L 107.912556 56.102765 
L 109.691568 55.020954 
L 111.114778 54.401082 
L 112.537988 54.014754 
L 113.961198 53.864742 
L 115.384408 53.945512 
L 116.807618 54.2462 
L 118.230828 54.753979 
L 120.009841 55.662844 
L 121.788854 56.864716 
L 123.567866 58.360965 
L 125.346879 60.166626 
L 127.125891 62.304113 
L 128.904904 64.791937 
L 130.683916 67.630326 
L 132.818731 71.450599 
L 136.376757 78.405208 
L 139.223177 83.766055 
L 141.002189 86.620151 
L 142.425399 88.458542 
L 143.492807 89.51684 
L 144.560214 90.265931 
L 145.627622 90.68406 
L 146.339227 90.772712 
L 147.050832 90.708008 
L 148.11824 90.327152 
L 149.185647 89.619295 
L 150.253055 88.60991 
L 151.676265 86.858618 
L 153.455277 84.178178 
L 159.148118 75.082266 
L 160.571328 73.467141 
L 161.638735 72.594924 
L 162.706143 72.058621 
L 163.417748 71.903192 
L 164.129353 71.917386 
L 164.840958 72.105683 
L 165.552563 72.470501 
L 166.61997 73.348929 
L 167.687378 74.617696 
L 168.754785 76.260171 
L 170.177995 78.98694 
L 171.601206 82.253366 
L 173.380218 86.947144 
L 175.870836 94.27549 
L 181.563676 111.373463 
L 183.698491 116.918775 
L 185.477504 120.853756 
L 186.900714 123.452338 
L 187.968121 125.038397 
L 189.035529 126.286028 
L 190.102936 127.173453 
L 191.170344 127.682183 
L 191.881949 127.80367 
L 192.593554 127.747307 
L 193.305159 127.511182 
L 194.016764 127.094613 
L 195.084171 126.133308 
L 196.151579 124.776473 
L 197.218987 123.040712 
L 198.642197 120.181239 
L 200.065407 116.775451 
L 201.844419 111.913884 
L 204.690839 103.34558 
L 207.893062 93.815877 
L 209.672075 89.124595 
L 211.095285 85.869612 
L 212.518495 83.140028 
L 213.585902 81.465417 
L 214.65331 80.118998 
L 215.364915 79.402807 
L 215.364915 79.402807 
" clip-path="url(#p585b971216)" style="fill: none; stroke: #000000; stroke-opacity: 0.5; stroke-width: 1.5; stroke-linecap: square"/>
   </g>
   <g id="line2d_16">
    <path d="M 37.81946 72.656964 
L 39.598473 74.227524 
L 41.377485 76.078894 
L 43.156498 78.245873 
L 45.291313 81.243575 
L 47.781931 85.158009 
L 54.186376 95.489497 
L 56.321191 98.448021 
L 58.100204 100.578607 
L 59.879216 102.363484 
L 61.302426 103.527763 
L 62.725636 104.452816 
L 64.148846 105.139551 
L 65.572056 105.593312 
L 66.995266 105.823074 
L 68.418476 105.840582 
L 69.841686 105.659074 
L 71.620699 105.172264 
L 73.399712 104.416106 
L 75.178724 103.401812 
L 76.957737 102.126767 
L 78.736749 100.573884 
L 80.515762 98.715191 
L 82.294774 96.520089 
L 84.073787 93.966996 
L 85.8528 91.056403 
L 87.987615 87.142512 
L 91.189837 80.722412 
L 94.747862 73.69874 
L 96.526875 70.623716 
L 97.950085 68.509705 
L 99.373295 66.762569 
L 100.796505 65.41311 
L 101.863913 64.666032 
L 102.93132 64.138409 
L 103.998728 63.814644 
L 105.421938 63.659946 
L 106.845148 63.757306 
L 108.624161 64.109729 
L 113.249593 65.153662 
L 115.028606 65.285491 
L 116.807618 65.199634 
L 118.942433 64.865877 
L 123.212064 64.11701 
L 124.635274 64.083264 
L 126.058484 64.257238 
L 127.481694 64.678523 
L 128.904904 65.366365 
L 130.328114 66.317457 
L 132.107126 67.834861 
L 134.241942 70.00523 
L 138.867374 74.861137 
L 140.290584 76.058059 
L 141.713794 76.98054 
L 142.781202 77.456008 
L 143.848609 77.724411 
L 144.916017 77.772701 
L 145.983425 77.59429 
L 147.050832 77.189376 
L 148.11824 76.565116 
L 149.54145 75.417075 
L 150.96466 73.95752 
L 152.743672 71.80722 
L 158.08071 65.048722 
L 159.50392 63.698285 
L 160.571328 62.939374 
L 161.638735 62.439378 
L 162.706143 62.228402 
L 163.77355 62.328842 
L 164.840958 62.754704 
L 165.908365 63.51117 
L 166.975773 64.594633 
L 168.04318 65.993052 
L 169.46639 68.312466 
L 170.889601 71.091487 
L 172.668613 75.089018 
L 175.159231 81.348941 
L 182.631083 100.658596 
L 185.121701 106.279559 
L 187.256516 110.588274 
L 189.391331 114.404008 
L 191.526146 117.731007 
L 193.660961 120.596008 
L 195.795776 123.051282 
L 197.930592 125.177679 
L 200.777012 127.687764 
L 207.537259 133.52847 
L 211.80689 137.302053 
L 213.585902 138.58954 
L 215.009112 139.355557 
L 215.364915 139.5 
L 215.364915 139.5 
" clip-path="url(#p585b971216)" style="fill: none; stroke: #000000; stroke-opacity: 0.5; stroke-width: 1.5; stroke-linecap: square"/>
   </g>
   <g id="line2d_17">
    <path d="M 37.81946 73.287817 
L 215.364915 73.287817 
L 215.364915 73.287817 
" clip-path="url(#p585b971216)" style="fill: none; stroke: #1f77b4; stroke-width: 2; stroke-linecap: square"/>
   </g>
   <g id="patch_3">
    <path d="M 28.942188 145.8 
L 28.942188 7.2 
" style="fill: none; stroke: #000000; stroke-width: 0.8; stroke-linejoin: miter; stroke-linecap: square"/>
   </g>
   <g id="patch_4">
    <path d="M 224.242188 145.8 
L 224.242188 7.2 
" style="fill: none; stroke: #000000; stroke-width: 0.8; stroke-linejoin: miter; stroke-linecap: square"/>
   </g>
   <g id="patch_5">
    <path d="M 28.942187 145.8 
L 224.242188 145.8 
" style="fill: none; stroke: #000000; stroke-width: 0.8; stroke-linejoin: miter; stroke-linecap: square"/>
   </g>
   <g id="patch_6">
    <path d="M 28.942187 7.2 
L 224.242188 7.2 
" style="fill: none; stroke: #000000; stroke-width: 0.8; stroke-linejoin: miter; stroke-linecap: square"/>
   </g>
  </g>
 </g>
 <defs>
  <clipPath id="p585b971216">
   <rect x="28.942188" y="7.2" width="195.3" height="138.6"/>
  </clipPath>
 </defs>
</svg>
