<?xml version="1.0" encoding="utf-8" standalone="no"?>
<!DOCTYPE svg PUBLIC "-//W3C//DTD SVG 1.1//EN"
  "http://www.w3.org/Graphics/SVG/1.1/DTD/svg11.dtd">
<svg xmlns:xlink="http://www.w3.org/1999/xlink" width="254.798438pt" height="193.034375pt" viewBox="0 0 254.798438 193.034375" xmlns="http://www.w3.org/2000/svg" version="1.1">
 <metadata>
  <rdf:RDF xmlns:dc="http://purl.org/dc/elements/1.1/" xmlns:cc="http://creativecommons.org/ns#" xmlns:rdf="http://www.w3.org/1999/02/22-rdf-syntax-ns#">
   <cc:Work>
    <dc:type rdf:resource="http://purl.org/dc/dcmitype/StillImage"/>
    <dc:date>2025-07-11T19:44:33.125999</dc:date>
    <dc:format>image/svg+xml</dc:format>
    <dc:creator>
     <cc:Agent>
      <dc:title>Matplotlib v3.6.1, https://matplotlib.org/</dc:title>
     </cc:Agent>
    </dc:creator>
   </cc:Work>
  </rdf:RDF>
 </metadata>
 <defs>
  <style type="text/css">*{stroke-linejoin: round; stroke-linecap: butt}</style>
 </defs>
 <g id="figure_1">
  <g id="patch_1">
   <path d="M 0 193.034375 
L 254.798437 193.034375 
L 254.798437 0 
L 0 0 
z
" style="fill: #ffffff"/>
  </g>
  <g id="axes_1">
   <g id="patch_2">
    <path d="M 52.298438 145.8 
L 247.598437 145.8 
L 247.598437 7.2 
L 52.298438 7.2 
z
" style="fill: #ffffff"/>
   </g>
   <g id="PathCollection_1">
    <defs>
     <path id="mdf18d59a6d" d="M 0 3 
C 0.795609 3 1.55874 2.683901 2.12132 2.12132 
C 2.683901 1.55874 3 0.795609 3 0 
C 3 -0.795609 2.683901 -1.55874 2.12132 -2.12132 
C 1.55874 -2.683901 0.795609 -3 0 -3 
C -0.795609 -3 -1.55874 -2.683901 -2.12132 -2.12132 
C -2.683901 -1.55874 -3 -0.795609 -3 0 
C -3 0.795609 -2.683901 1.55874 -2.12132 2.12132 
C -1.55874 2.683901 -0.795609 3 0 3 
z
" style="stroke: #1f77b4"/>
    </defs>
    <g clip-path="url(#pf03dc1ca4b)">
     <use xlink:href="#mdf18d59a6d" x="61.17571" y="71.572948" style="fill: #1f77b4; stroke: #1f77b4"/>
     <use xlink:href="#mdf18d59a6d" x="64.799087" y="79.298247" style="fill: #1f77b4; stroke: #1f77b4"/>
     <use xlink:href="#mdf18d59a6d" x="68.422463" y="49.821083" style="fill: #1f77b4; stroke: #1f77b4"/>
     <use xlink:href="#mdf18d59a6d" x="72.04584" y="38.146765" style="fill: #1f77b4; stroke: #1f77b4"/>
     <use xlink:href="#mdf18d59a6d" x="75.669217" y="45.621679" style="fill: #1f77b4; stroke: #1f77b4"/>
     <use xlink:href="#mdf18d59a6d" x="79.292593" y="50.997484" style="fill: #1f77b4; stroke: #1f77b4"/>
     <use xlink:href="#mdf18d59a6d" x="82.91597" y="46.800414" style="fill: #1f77b4; stroke: #1f77b4"/>
     <use xlink:href="#mdf18d59a6d" x="86.539347" y="52.002477" style="fill: #1f77b4; stroke: #1f77b4"/>
     <use xlink:href="#mdf18d59a6d" x="90.162723" y="57.095207" style="fill: #1f77b4; stroke: #1f77b4"/>
     <use xlink:href="#mdf18d59a6d" x="93.7861" y="56.719662" style="fill: #1f77b4; stroke: #1f77b4"/>
     <use xlink:href="#mdf18d59a6d" x="97.409476" y="64.720452" style="fill: #1f77b4; stroke: #1f77b4"/>
     <use xlink:href="#mdf18d59a6d" x="101.032853" y="64.700054" style="fill: #1f77b4; stroke: #1f77b4"/>
     <use xlink:href="#mdf18d59a6d" x="104.65623" y="61.277042" style="fill: #1f77b4; stroke: #1f77b4"/>
     <use xlink:href="#mdf18d59a6d" x="108.279606" y="86.863268" style="fill: #1f77b4; stroke: #1f77b4"/>
     <use xlink:href="#mdf18d59a6d" x="111.902983" y="41.058673" style="fill: #1f77b4; stroke: #1f77b4"/>
     <use xlink:href="#mdf18d59a6d" x="115.52636" y="29.284146" style="fill: #1f77b4; stroke: #1f77b4"/>
     <use xlink:href="#mdf18d59a6d" x="119.149736" y="19.34441" style="fill: #1f77b4; stroke: #1f77b4"/>
     <use xlink:href="#mdf18d59a6d" x="122.773113" y="33.447834" style="fill: #1f77b4; stroke: #1f77b4"/>
     <use xlink:href="#mdf18d59a6d" x="126.396489" y="43.97497" style="fill: #1f77b4; stroke: #1f77b4"/>
     <use xlink:href="#mdf18d59a6d" x="130.019866" y="13.5" style="fill: #1f77b4; stroke: #1f77b4"/>
     <use xlink:href="#mdf18d59a6d" x="133.643243" y="22.963915" style="fill: #1f77b4; stroke: #1f77b4"/>
     <use xlink:href="#mdf18d59a6d" x="137.266619" y="39.076516" style="fill: #1f77b4; stroke: #1f77b4"/>
     <use xlink:href="#mdf18d59a6d" x="140.889996" y="56.308554" style="fill: #1f77b4; stroke: #1f77b4"/>
     <use xlink:href="#mdf18d59a6d" x="144.513373" y="42.045924" style="fill: #1f77b4; stroke: #1f77b4"/>
     <use xlink:href="#mdf18d59a6d" x="148.136749" y="53.738905" style="fill: #1f77b4; stroke: #1f77b4"/>
     <use xlink:href="#mdf18d59a6d" x="151.760126" y="67.267396" style="fill: #1f77b4; stroke: #1f77b4"/>
     <use xlink:href="#mdf18d59a6d" x="155.383502" y="73.579323" style="fill: #1f77b4; stroke: #1f77b4"/>
     <use xlink:href="#mdf18d59a6d" x="159.006879" y="87.482289" style="fill: #1f77b4; stroke: #1f77b4"/>
     <use xlink:href="#mdf18d59a6d" x="162.630256" y="80.605807" style="fill: #1f77b4; stroke: #1f77b4"/>
     <use xlink:href="#mdf18d59a6d" x="166.253632" y="96.564089" style="fill: #1f77b4; stroke: #1f77b4"/>
     <use xlink:href="#mdf18d59a6d" x="169.877009" y="86.254725" style="fill: #1f77b4; stroke: #1f77b4"/>
     <use xlink:href="#mdf18d59a6d" x="173.500386" y="75.538409" style="fill: #1f77b4; stroke: #1f77b4"/>
     <use xlink:href="#mdf18d59a6d" x="177.123762" y="82.679025" style="fill: #1f77b4; stroke: #1f77b4"/>
     <use xlink:href="#mdf18d59a6d" x="180.747139" y="66.792131" style="fill: #1f77b4; stroke: #1f77b4"/>
     <use xlink:href="#mdf18d59a6d" x="184.370515" y="78.602017" style="fill: #1f77b4; stroke: #1f77b4"/>
     <use xlink:href="#mdf18d59a6d" x="187.993892" y="78.531488" style="fill: #1f77b4; stroke: #1f77b4"/>
     <use xlink:href="#mdf18d59a6d" x="191.617269" y="90.971399" style="fill: #1f77b4; stroke: #1f77b4"/>
     <use xlink:href="#mdf18d59a6d" x="195.240645" y="95.980627" style="fill: #1f77b4; stroke: #1f77b4"/>
     <use xlink:href="#mdf18d59a6d" x="198.864022" y="114.544664" style="fill: #1f77b4; stroke: #1f77b4"/>
     <use xlink:href="#mdf18d59a6d" x="202.487399" y="103.724745" style="fill: #1f77b4; stroke: #1f77b4"/>
     <use xlink:href="#mdf18d59a6d" x="206.110775" y="124.670119" style="fill: #1f77b4; stroke: #1f77b4"/>
     <use xlink:href="#mdf18d59a6d" x="209.734152" y="130.719344" style="fill: #1f77b4; stroke: #1f77b4"/>
     <use xlink:href="#mdf18d59a6d" x="213.357528" y="135.063444" style="fill: #1f77b4; stroke: #1f77b4"/>
     <use xlink:href="#mdf18d59a6d" x="216.980905" y="124.119346" style="fill: #1f77b4; stroke: #1f77b4"/>
     <use xlink:href="#mdf18d59a6d" x="220.604282" y="139.5" style="fill: #1f77b4; stroke: #1f77b4"/>
     <use xlink:href="#mdf18d59a6d" x="224.227658" y="125.944988" style="fill: #1f77b4; stroke: #1f77b4"/>
     <use xlink:href="#mdf18d59a6d" x="227.851035" y="110.792824" style="fill: #1f77b4; stroke: #1f77b4"/>
     <use xlink:href="#mdf18d59a6d" x="231.474412" y="99.060018" style="fill: #1f77b4; stroke: #1f77b4"/>
     <use xlink:href="#mdf18d59a6d" x="235.097788" y="106.414159" style="fill: #1f77b4; stroke: #1f77b4"/>
     <use xlink:href="#mdf18d59a6d" x="238.721165" y="97.596901" style="fill: #1f77b4; stroke: #1f77b4"/>
    </g>
   </g>
   <g id="matplotlib.axis_1">
    <g id="xtick_1">
     <g id="line2d_1">
      <defs>
       <path id="m5119ee1946" d="M 0 0 
L 0 3.5 
" style="stroke: #000000; stroke-width: 0.8"/>
      </defs>
      <g>
       <use xlink:href="#m5119ee1946" x="61.17571" y="145.8" style="stroke: #000000; stroke-width: 0.8"/>
      </g>
     </g>
     <g id="text_1">
      <!-- 0 -->
      <g transform="translate(57.99446 160.398438) scale(0.1 -0.1)">
       <defs>
        <path id="DejaVuSans-30" d="M 2034 4250 
Q 1547 4250 1301 3770 
Q 1056 3291 1056 2328 
Q 1056 1369 1301 889 
Q 1547 409 2034 409 
Q 2525 409 2770 889 
Q 3016 1369 3016 2328 
Q 3016 3291 2770 3770 
Q 2525 4250 2034 4250 
z
M 2034 4750 
Q 2819 4750 3233 4129 
Q 3647 3509 3647 2328 
Q 3647 1150 3233 529 
Q 2819 -91 2034 -91 
Q 1250 -91 836 529 
Q 422 1150 422 2328 
Q 422 3509 836 4129 
Q 1250 4750 2034 4750 
z
" transform="scale(0.015625)"/>
       </defs>
       <use xlink:href="#DejaVuSans-30"/>
      </g>
     </g>
    </g>
    <g id="xtick_2">
     <g id="line2d_2">
      <g>
       <use xlink:href="#m5119ee1946" x="96.684801" y="145.8" style="stroke: #000000; stroke-width: 0.8"/>
      </g>
     </g>
     <g id="text_2">
      <!-- 1 -->
      <g transform="translate(93.503551 160.398438) scale(0.1 -0.1)">
       <defs>
        <path id="DejaVuSans-31" d="M 794 531 
L 1825 531 
L 1825 4091 
L 703 3866 
L 703 4441 
L 1819 4666 
L 2450 4666 
L 2450 531 
L 3481 531 
L 3481 0 
L 794 0 
L 794 531 
z
" transform="scale(0.015625)"/>
       </defs>
       <use xlink:href="#DejaVuSans-31"/>
      </g>
     </g>
    </g>
    <g id="xtick_3">
     <g id="line2d_3">
      <g>
       <use xlink:href="#m5119ee1946" x="132.193892" y="145.8" style="stroke: #000000; stroke-width: 0.8"/>
      </g>
     </g>
     <g id="text_3">
      <!-- 2 -->
      <g transform="translate(129.012642 160.398438) scale(0.1 -0.1)">
       <defs>
        <path id="DejaVuSans-32" d="M 1228 531 
L 3431 531 
L 3431 0 
L 469 0 
L 469 531 
Q 828 903 1448 1529 
Q 2069 2156 2228 2338 
Q 2531 2678 2651 2914 
Q 2772 3150 2772 3378 
Q 2772 3750 2511 3984 
Q 2250 4219 1831 4219 
Q 1534 4219 1204 4116 
Q 875 4013 500 3803 
L 500 4441 
Q 881 4594 1212 4672 
Q 1544 4750 1819 4750 
Q 2544 4750 2975 4387 
Q 3406 4025 3406 3419 
Q 3406 3131 3298 2873 
Q 3191 2616 2906 2266 
Q 2828 2175 2409 1742 
Q 1991 1309 1228 531 
z
" transform="scale(0.015625)"/>
       </defs>
       <use xlink:href="#DejaVuSans-32"/>
      </g>
     </g>
    </g>
    <g id="xtick_4">
     <g id="line2d_4">
      <g>
       <use xlink:href="#m5119ee1946" x="167.702983" y="145.8" style="stroke: #000000; stroke-width: 0.8"/>
      </g>
     </g>
     <g id="text_4">
      <!-- 3 -->
      <g transform="translate(164.521733 160.398438) scale(0.1 -0.1)">
       <defs>
        <path id="DejaVuSans-33" d="M 2597 2516 
Q 3050 2419 3304 2112 
Q 3559 1806 3559 1356 
Q 3559 666 3084 287 
Q 2609 -91 1734 -91 
Q 1441 -91 1130 -33 
Q 819 25 488 141 
L 488 750 
Q 750 597 1062 519 
Q 1375 441 1716 441 
Q 2309 441 2620 675 
Q 2931 909 2931 1356 
Q 2931 1769 2642 2001 
Q 2353 2234 1838 2234 
L 1294 2234 
L 1294 2753 
L 1863 2753 
Q 2328 2753 2575 2939 
Q 2822 3125 2822 3475 
Q 2822 3834 2567 4026 
Q 2313 4219 1838 4219 
Q 1578 4219 1281 4162 
Q 984 4106 628 3988 
L 628 4550 
Q 988 4650 1302 4700 
Q 1616 4750 1894 4750 
Q 2613 4750 3031 4423 
Q 3450 4097 3450 3541 
Q 3450 3153 3228 2886 
Q 3006 2619 2597 2516 
z
" transform="scale(0.015625)"/>
       </defs>
       <use xlink:href="#DejaVuSans-33"/>
      </g>
     </g>
    </g>
    <g id="xtick_5">
     <g id="line2d_5">
      <g>
       <use xlink:href="#m5119ee1946" x="203.212074" y="145.8" style="stroke: #000000; stroke-width: 0.8"/>
      </g>
     </g>
     <g id="text_5">
      <!-- 4 -->
      <g transform="translate(200.030824 160.398438) scale(0.1 -0.1)">
       <defs>
        <path id="DejaVuSans-34" d="M 2419 4116 
L 825 1625 
L 2419 1625 
L 2419 4116 
z
M 2253 4666 
L 3047 4666 
L 3047 1625 
L 3713 1625 
L 3713 1100 
L 3047 1100 
L 3047 0 
L 2419 0 
L 2419 1100 
L 313 1100 
L 313 1709 
L 2253 4666 
z
" transform="scale(0.015625)"/>
       </defs>
       <use xlink:href="#DejaVuSans-34"/>
      </g>
     </g>
    </g>
    <g id="xtick_6">
     <g id="line2d_6">
      <g>
       <use xlink:href="#m5119ee1946" x="238.721165" y="145.8" style="stroke: #000000; stroke-width: 0.8"/>
      </g>
     </g>
     <g id="text_6">
      <!-- 5 -->
      <g transform="translate(235.539915 160.398438) scale(0.1 -0.1)">
       <defs>
        <path id="DejaVuSans-35" d="M 691 4666 
L 3169 4666 
L 3169 4134 
L 1269 4134 
L 1269 2991 
Q 1406 3038 1543 3061 
Q 1681 3084 1819 3084 
Q 2600 3084 3056 2656 
Q 3513 2228 3513 1497 
Q 3513 744 3044 326 
Q 2575 -91 1722 -91 
Q 1428 -91 1123 -41 
Q 819 9 494 109 
L 494 744 
Q 775 591 1075 516 
Q 1375 441 1709 441 
Q 2250 441 2565 725 
Q 2881 1009 2881 1497 
Q 2881 1984 2565 2268 
Q 2250 2553 1709 2553 
Q 1456 2553 1204 2497 
Q 953 2441 691 2322 
L 691 4666 
z
" transform="scale(0.015625)"/>
       </defs>
       <use xlink:href="#DejaVuSans-35"/>
      </g>
     </g>
    </g>
    <g id="text_7">
     <!-- x -->
     <g transform="translate(144.029688 181.675) scale(0.2 -0.2)">
      <defs>
       <path id="DejaVuSans-78" d="M 3513 3500 
L 2247 1797 
L 3578 0 
L 2900 0 
L 1881 1375 
L 863 0 
L 184 0 
L 1544 1831 
L 300 3500 
L 978 3500 
L 1906 2253 
L 2834 3500 
L 3513 3500 
z
" transform="scale(0.015625)"/>
      </defs>
      <use xlink:href="#DejaVuSans-78"/>
     </g>
    </g>
   </g>
   <g id="matplotlib.axis_2">
    <g id="ytick_1">
     <g id="line2d_7">
      <defs>
       <path id="m8bd27ea3dc" d="M 0 0 
L -3.5 0 
" style="stroke: #000000; stroke-width: 0.8"/>
      </defs>
      <g>
       <use xlink:href="#m8bd27ea3dc" x="52.298438" y="116.192906" style="stroke: #000000; stroke-width: 0.8"/>
      </g>
     </g>
     <g id="text_8">
      <!-- −1 -->
      <g transform="translate(30.55625 119.992125) scale(0.1 -0.1)">
       <defs>
        <path id="DejaVuSans-2212" d="M 678 2272 
L 4684 2272 
L 4684 1741 
L 678 1741 
L 678 2272 
z
" transform="scale(0.015625)"/>
       </defs>
       <use xlink:href="#DejaVuSans-2212"/>
       <use xlink:href="#DejaVuSans-31" x="83.789062"/>
      </g>
     </g>
    </g>
    <g id="ytick_2">
     <g id="line2d_8">
      <g>
       <use xlink:href="#m8bd27ea3dc" x="52.298438" y="78.609324" style="stroke: #000000; stroke-width: 0.8"/>
      </g>
     </g>
     <g id="text_9">
      <!-- 0 -->
      <g transform="translate(38.935938 82.408543) scale(0.1 -0.1)">
       <use xlink:href="#DejaVuSans-30"/>
      </g>
     </g>
    </g>
    <g id="ytick_3">
     <g id="line2d_9">
      <g>
       <use xlink:href="#m8bd27ea3dc" x="52.298438" y="41.025743" style="stroke: #000000; stroke-width: 0.8"/>
      </g>
     </g>
     <g id="text_10">
      <!-- 1 -->
      <g transform="translate(38.935938 44.824962) scale(0.1 -0.1)">
       <use xlink:href="#DejaVuSans-31"/>
      </g>
     </g>
    </g>
    <g id="text_11">
     <!-- Observations y -->
     <g transform="translate(22.396875 151.701563) rotate(-90) scale(0.2 -0.2)">
      <defs>
       <path id="DejaVuSans-4f" d="M 2522 4238 
Q 1834 4238 1429 3725 
Q 1025 3213 1025 2328 
Q 1025 1447 1429 934 
Q 1834 422 2522 422 
Q 3209 422 3611 934 
Q 4013 1447 4013 2328 
Q 4013 3213 3611 3725 
Q 3209 4238 2522 4238 
z
M 2522 4750 
Q 3503 4750 4090 4092 
Q 4678 3434 4678 2328 
Q 4678 1225 4090 567 
Q 3503 -91 2522 -91 
Q 1538 -91 948 565 
Q 359 1222 359 2328 
Q 359 3434 948 4092 
Q 1538 4750 2522 4750 
z
" transform="scale(0.015625)"/>
       <path id="DejaVuSans-62" d="M 3116 1747 
Q 3116 2381 2855 2742 
Q 2594 3103 2138 3103 
Q 1681 3103 1420 2742 
Q 1159 2381 1159 1747 
Q 1159 1113 1420 752 
Q 1681 391 2138 391 
Q 2594 391 2855 752 
Q 3116 1113 3116 1747 
z
M 1159 2969 
Q 1341 3281 1617 3432 
Q 1894 3584 2278 3584 
Q 2916 3584 3314 3078 
Q 3713 2572 3713 1747 
Q 3713 922 3314 415 
Q 2916 -91 2278 -91 
Q 1894 -91 1617 61 
Q 1341 213 1159 525 
L 1159 0 
L 581 0 
L 581 4863 
L 1159 4863 
L 1159 2969 
z
" transform="scale(0.015625)"/>
       <path id="DejaVuSans-73" d="M 2834 3397 
L 2834 2853 
Q 2591 2978 2328 3040 
Q 2066 3103 1784 3103 
Q 1356 3103 1142 2972 
Q 928 2841 928 2578 
Q 928 2378 1081 2264 
Q 1234 2150 1697 2047 
L 1894 2003 
Q 2506 1872 2764 1633 
Q 3022 1394 3022 966 
Q 3022 478 2636 193 
Q 2250 -91 1575 -91 
Q 1294 -91 989 -36 
Q 684 19 347 128 
L 347 722 
Q 666 556 975 473 
Q 1284 391 1588 391 
Q 1994 391 2212 530 
Q 2431 669 2431 922 
Q 2431 1156 2273 1281 
Q 2116 1406 1581 1522 
L 1381 1569 
Q 847 1681 609 1914 
Q 372 2147 372 2553 
Q 372 3047 722 3315 
Q 1072 3584 1716 3584 
Q 2034 3584 2315 3537 
Q 2597 3491 2834 3397 
z
" transform="scale(0.015625)"/>
       <path id="DejaVuSans-65" d="M 3597 1894 
L 3597 1613 
L 953 1613 
Q 991 1019 1311 708 
Q 1631 397 2203 397 
Q 2534 397 2845 478 
Q 3156 559 3463 722 
L 3463 178 
Q 3153 47 2828 -22 
Q 2503 -91 2169 -91 
Q 1331 -91 842 396 
Q 353 884 353 1716 
Q 353 2575 817 3079 
Q 1281 3584 2069 3584 
Q 2775 3584 3186 3129 
Q 3597 2675 3597 1894 
z
M 3022 2063 
Q 3016 2534 2758 2815 
Q 2500 3097 2075 3097 
Q 1594 3097 1305 2825 
Q 1016 2553 972 2059 
L 3022 2063 
z
" transform="scale(0.015625)"/>
       <path id="DejaVuSans-72" d="M 2631 2963 
Q 2534 3019 2420 3045 
Q 2306 3072 2169 3072 
Q 1681 3072 1420 2755 
Q 1159 2438 1159 1844 
L 1159 0 
L 581 0 
L 581 3500 
L 1159 3500 
L 1159 2956 
Q 1341 3275 1631 3429 
Q 1922 3584 2338 3584 
Q 2397 3584 2469 3576 
Q 2541 3569 2628 3553 
L 2631 2963 
z
" transform="scale(0.015625)"/>
       <path id="DejaVuSans-76" d="M 191 3500 
L 800 3500 
L 1894 563 
L 2988 3500 
L 3597 3500 
L 2284 0 
L 1503 0 
L 191 3500 
z
" transform="scale(0.015625)"/>
       <path id="DejaVuSans-61" d="M 2194 1759 
Q 1497 1759 1228 1600 
Q 959 1441 959 1056 
Q 959 750 1161 570 
Q 1363 391 1709 391 
Q 2188 391 2477 730 
Q 2766 1069 2766 1631 
L 2766 1759 
L 2194 1759 
z
M 3341 1997 
L 3341 0 
L 2766 0 
L 2766 531 
Q 2569 213 2275 61 
Q 1981 -91 1556 -91 
Q 1019 -91 701 211 
Q 384 513 384 1019 
Q 384 1609 779 1909 
Q 1175 2209 1959 2209 
L 2766 2209 
L 2766 2266 
Q 2766 2663 2505 2880 
Q 2244 3097 1772 3097 
Q 1472 3097 1187 3025 
Q 903 2953 641 2809 
L 641 3341 
Q 956 3463 1253 3523 
Q 1550 3584 1831 3584 
Q 2591 3584 2966 3190 
Q 3341 2797 3341 1997 
z
" transform="scale(0.015625)"/>
       <path id="DejaVuSans-74" d="M 1172 4494 
L 1172 3500 
L 2356 3500 
L 2356 3053 
L 1172 3053 
L 1172 1153 
Q 1172 725 1289 603 
Q 1406 481 1766 481 
L 2356 481 
L 2356 0 
L 1766 0 
Q 1100 0 847 248 
Q 594 497 594 1153 
L 594 3053 
L 172 3053 
L 172 3500 
L 594 3500 
L 594 4494 
L 1172 4494 
z
" transform="scale(0.015625)"/>
       <path id="DejaVuSans-69" d="M 603 3500 
L 1178 3500 
L 1178 0 
L 603 0 
L 603 3500 
z
M 603 4863 
L 1178 4863 
L 1178 4134 
L 603 4134 
L 603 4863 
z
" transform="scale(0.015625)"/>
       <path id="DejaVuSans-6f" d="M 1959 3097 
Q 1497 3097 1228 2736 
Q 959 2375 959 1747 
Q 959 1119 1226 758 
Q 1494 397 1959 397 
Q 2419 397 2687 759 
Q 2956 1122 2956 1747 
Q 2956 2369 2687 2733 
Q 2419 3097 1959 3097 
z
M 1959 3584 
Q 2709 3584 3137 3096 
Q 3566 2609 3566 1747 
Q 3566 888 3137 398 
Q 2709 -91 1959 -91 
Q 1206 -91 779 398 
Q 353 888 353 1747 
Q 353 2609 779 3096 
Q 1206 3584 1959 3584 
z
" transform="scale(0.015625)"/>
       <path id="DejaVuSans-6e" d="M 3513 2113 
L 3513 0 
L 2938 0 
L 2938 2094 
Q 2938 2591 2744 2837 
Q 2550 3084 2163 3084 
Q 1697 3084 1428 2787 
Q 1159 2491 1159 1978 
L 1159 0 
L 581 0 
L 581 3500 
L 1159 3500 
L 1159 2956 
Q 1366 3272 1645 3428 
Q 1925 3584 2291 3584 
Q 2894 3584 3203 3211 
Q 3513 2838 3513 2113 
z
" transform="scale(0.015625)"/>
       <path id="DejaVuSans-20" transform="scale(0.015625)"/>
       <path id="DejaVuSans-79" d="M 2059 -325 
Q 1816 -950 1584 -1140 
Q 1353 -1331 966 -1331 
L 506 -1331 
L 506 -850 
L 844 -850 
Q 1081 -850 1212 -737 
Q 1344 -625 1503 -206 
L 1606 56 
L 191 3500 
L 800 3500 
L 1894 763 
L 2988 3500 
L 3597 3500 
L 2059 -325 
z
" transform="scale(0.015625)"/>
      </defs>
      <use xlink:href="#DejaVuSans-4f"/>
      <use xlink:href="#DejaVuSans-62" x="78.710938"/>
      <use xlink:href="#DejaVuSans-73" x="142.1875"/>
      <use xlink:href="#DejaVuSans-65" x="194.287109"/>
      <use xlink:href="#DejaVuSans-72" x="255.810547"/>
      <use xlink:href="#DejaVuSans-76" x="296.923828"/>
      <use xlink:href="#DejaVuSans-61" x="356.103516"/>
      <use xlink:href="#DejaVuSans-74" x="417.382812"/>
      <use xlink:href="#DejaVuSans-69" x="456.591797"/>
      <use xlink:href="#DejaVuSans-6f" x="484.375"/>
      <use xlink:href="#DejaVuSans-6e" x="545.556641"/>
      <use xlink:href="#DejaVuSans-73" x="608.935547"/>
      <use xlink:href="#DejaVuSans-20" x="661.035156"/>
      <use xlink:href="#DejaVuSans-79" x="692.822266"/>
     </g>
    </g>
   </g>
   <g id="line2d_10">
    <path d="M 61.17571 78.609324 
L 65.44534 65.407451 
L 67.580155 59.456024 
L 69.359168 55.052504 
L 71.138181 51.269791 
L 72.561391 48.747316 
L 73.984601 46.705951 
L 75.052008 45.50208 
L 76.119416 44.582497 
L 77.186823 43.946429 
L 78.254231 43.589199 
L 79.321638 43.502302 
L 80.389046 43.673544 
L 81.456454 44.087226 
L 82.523861 44.724386 
L 83.947071 45.883255 
L 85.370281 47.340938 
L 87.149294 49.482249 
L 89.995714 53.313642 
L 93.197936 57.564115 
L 94.976949 59.607453 
L 96.400159 60.968207 
L 97.823369 62.025028 
L 98.890777 62.589959 
L 99.958184 62.941868 
L 101.025592 63.068425 
L 102.092999 62.960964 
L 103.160407 62.614615 
L 104.227814 62.028373 
L 105.295222 61.205126 
L 106.718432 59.750981 
L 108.141642 57.914218 
L 109.564852 55.73235 
L 111.343865 52.593366 
L 113.47868 48.374303 
L 120.950533 33.085077 
L 122.729545 30.139168 
L 124.152755 28.171948 
L 125.575965 26.613274 
L 126.643373 25.741614 
L 127.71078 25.143448 
L 128.778188 24.831756 
L 129.845595 24.815819 
L 130.913003 25.101083 
L 131.980411 25.689075 
L 133.047818 26.577375 
L 134.115226 27.759643 
L 135.182633 29.225709 
L 136.605843 31.597465 
L 138.029053 34.40629 
L 139.808066 38.451288 
L 141.942881 43.926339 
L 145.145104 52.902931 
L 149.770536 65.871144 
L 151.905351 71.232763 
L 153.684364 75.175658 
L 155.463376 78.535432 
L 156.886587 80.753507 
L 158.309797 82.526662 
L 159.377204 83.556566 
L 160.444612 84.328181 
L 161.512019 84.844673 
L 162.579427 85.113046 
L 163.646834 85.144031 
L 164.714242 84.951915 
L 165.781649 84.554324 
L 167.204859 83.74075 
L 168.628069 82.65552 
L 170.407082 81.014581 
L 173.965107 77.311065 
L 176.455725 74.88892 
L 178.234737 73.492778 
L 179.657947 72.674549 
L 180.725355 72.272927 
L 181.792763 72.076383 
L 182.86017 72.102608 
L 183.927578 72.365963 
L 184.994985 72.877252 
L 186.062393 73.643559 
L 187.1298 74.668127 
L 188.197208 75.950305 
L 189.620418 78.052171 
L 191.043628 80.582078 
L 192.82264 84.295024 
L 194.601653 88.536315 
L 197.092271 95.146521 
L 205.631531 118.714016 
L 207.410544 122.765728 
L 208.833754 125.580928 
L 210.256964 127.959797 
L 211.680174 129.859754 
L 212.747581 130.951012 
L 213.814989 131.745903 
L 214.882396 132.239306 
L 215.949804 132.430035 
L 217.017211 132.320847 
L 218.084619 131.918398 
L 219.152026 131.233147 
L 220.219434 130.279191 
L 221.642644 128.620038 
L 223.065854 126.564954 
L 224.844867 123.529842 
L 226.979682 119.378084 
L 231.249312 110.370579 
L 234.095732 104.666593 
L 235.874745 101.522532 
L 237.653757 98.841123 
L 238.721165 97.493257 
L 238.721165 97.493257 
" clip-path="url(#pf03dc1ca4b)" style="fill: none; stroke: #1f77b4; stroke-width: 1.5; stroke-linecap: square"/>
   </g>
   <g id="patch_3">
    <path d="M 52.298438 145.8 
L 52.298438 7.2 
" style="fill: none; stroke: #000000; stroke-width: 0.8; stroke-linejoin: miter; stroke-linecap: square"/>
   </g>
   <g id="patch_4">
    <path d="M 247.598437 145.8 
L 247.598437 7.2 
" style="fill: none; stroke: #000000; stroke-width: 0.8; stroke-linejoin: miter; stroke-linecap: square"/>
   </g>
   <g id="patch_5">
    <path d="M 52.298438 145.8 
L 247.598437 145.8 
" style="fill: none; stroke: #000000; stroke-width: 0.8; stroke-linejoin: miter; stroke-linecap: square"/>
   </g>
   <g id="patch_6">
    <path d="M 52.298438 7.2 
L 247.598437 7.2 
" style="fill: none; stroke: #000000; stroke-width: 0.8; stroke-linejoin: miter; stroke-linecap: square"/>
   </g>
  </g>
 </g>
 <defs>
  <clipPath id="pf03dc1ca4b">
   <rect x="52.298438" y="7.2" width="195.3" height="138.6"/>
  </clipPath>
 </defs>
</svg>
