<?xml version="1.0" encoding="utf-8" standalone="no"?>
<!DOCTYPE svg PUBLIC "-//W3C//DTD SVG 1.1//EN"
  "http://www.w3.org/Graphics/SVG/1.1/DTD/svg11.dtd">
<svg xmlns:xlink="http://www.w3.org/1999/xlink" width="745.001562pt" height="331.634375pt" viewBox="0 0 745.001562 331.634375" xmlns="http://www.w3.org/2000/svg" version="1.1">
 <metadata>
  <rdf:RDF xmlns:dc="http://purl.org/dc/elements/1.1/" xmlns:cc="http://creativecommons.org/ns#" xmlns:rdf="http://www.w3.org/1999/02/22-rdf-syntax-ns#">
   <cc:Work>
    <dc:type rdf:resource="http://purl.org/dc/dcmitype/StillImage"/>
    <dc:date>2025-05-11T11:31:56.822715</dc:date>
    <dc:format>image/svg+xml</dc:format>
    <dc:creator>
     <cc:Agent>
      <dc:title>Matplotlib v3.7.2, https://matplotlib.org/</dc:title>
     </cc:Agent>
    </dc:creator>
   </cc:Work>
  </rdf:RDF>
 </metadata>
 <defs>
  <style type="text/css">*{stroke-linejoin: round; stroke-linecap: butt}</style>
 </defs>
 <g id="figure_1">
  <g id="patch_1">
   <path d="M 0 331.634375 
L 745.001562 331.634375 
L 745.001562 0 
L 0 0 
z
" style="fill: #ffffff"/>
  </g>
  <g id="axes_1">
   <g id="patch_2">
    <path d="M 68.201563 284.4 
L 737.801563 284.4 
L 737.801563 7.2 
L 68.201563 7.2 
z
" style="fill: #ffffff"/>
   </g>
   <g id="PolyCollection_1">
    <path d="M 98.637926 19.8 
L 98.637926 271.8 
L 111.060932 266.858985 
L 123.483937 261.926737 
L 135.906943 257.004424 
L 148.329948 252.093424 
L 160.752954 247.195382 
L 173.17596 242.312271 
L 185.598965 237.446478 
L 198.021971 232.600914 
L 210.444976 227.779168 
L 222.867982 222.985702 
L 235.290987 218.226133 
L 247.713993 213.507609 
L 260.136998 208.839346 
L 272.560004 204.233394 
L 284.98301 199.705726 
L 297.406015 195.277839 
L 309.829021 190.979079 
L 322.252026 186.850033 
L 334.675032 182.947337 
L 347.098037 179.350075 
L 359.521043 176.166986 
L 371.944049 173.541009 
L 384.367054 171.642537 
L 396.79006 170.638947 
L 409.213065 170.638947 
L 421.636071 171.642537 
L 434.059076 173.541009 
L 446.482082 176.166986 
L 458.905088 179.350075 
L 471.328093 182.947337 
L 483.751099 186.850033 
L 496.174104 190.979079 
L 508.59711 195.277839 
L 521.020115 199.705726 
L 533.443121 204.233394 
L 545.866127 208.839346 
L 558.289132 213.507609 
L 570.712138 218.226133 
L 583.135143 222.985702 
L 595.558149 227.779168 
L 607.981154 232.600914 
L 620.40416 237.446478 
L 632.827165 242.312271 
L 645.250171 247.195382 
L 657.673177 252.093424 
L 670.096182 257.004424 
L 682.519188 261.926737 
L 694.942193 266.858985 
L 707.365199 271.8 
L 707.365199 19.8 
L 707.365199 19.8 
L 694.942193 24.741015 
L 682.519188 29.673263 
L 670.096182 34.595576 
L 657.673177 39.506576 
L 645.250171 44.404618 
L 632.827165 49.287729 
L 620.40416 54.153522 
L 607.981154 58.999086 
L 595.558149 63.820832 
L 583.135143 68.614298 
L 570.712138 73.373867 
L 558.289132 78.092391 
L 545.866127 82.760654 
L 533.443121 87.366606 
L 521.020115 91.894274 
L 508.59711 96.322161 
L 496.174104 100.620921 
L 483.751099 104.749967 
L 471.328093 108.652663 
L 458.905088 112.249925 
L 446.482082 115.433014 
L 434.059076 118.058991 
L 421.636071 119.957463 
L 409.213065 120.961053 
L 396.79006 120.961053 
L 384.367054 119.957463 
L 371.944049 118.058991 
L 359.521043 115.433014 
L 347.098037 112.249925 
L 334.675032 108.652663 
L 322.252026 104.749967 
L 309.829021 100.620921 
L 297.406015 96.322161 
L 284.98301 91.894274 
L 272.560004 87.366606 
L 260.136998 82.760654 
L 247.713993 78.092391 
L 235.290987 73.373867 
L 222.867982 68.614298 
L 210.444976 63.820832 
L 198.021971 58.999086 
L 185.598965 54.153522 
L 173.17596 49.287729 
L 160.752954 44.404618 
L 148.329948 39.506576 
L 135.906943 34.595576 
L 123.483937 29.673263 
L 111.060932 24.741015 
L 98.637926 19.8 
z
" clip-path="url(#p9e3cfed2d1)" style="fill: #1f77b4; fill-opacity: 0.25"/>
   </g>
   <g id="matplotlib.axis_1">
    <g id="xtick_1">
     <g id="line2d_1">
      <defs>
       <path id="mcf275ff64c" d="M 0 0 
L 0 3.5 
" style="stroke: #000000; stroke-width: 0.8"/>
      </defs>
      <g>
       <use xlink:href="#mcf275ff64c" x="159.510653" y="284.4" style="stroke: #000000; stroke-width: 0.8"/>
      </g>
     </g>
     <g id="text_1">
      <!-- −4 -->
      <g transform="translate(152.13956 298.998437) scale(0.1 -0.1)">
       <defs>
        <path id="DejaVuSans-2212" d="M 678 2272 
L 4684 2272 
L 4684 1741 
L 678 1741 
L 678 2272 
z
" transform="scale(0.015625)"/>
        <path id="DejaVuSans-34" d="M 2419 4116 
L 825 1625 
L 2419 1625 
L 2419 4116 
z
M 2253 4666 
L 3047 4666 
L 3047 1625 
L 3713 1625 
L 3713 1100 
L 3047 1100 
L 3047 0 
L 2419 0 
L 2419 1100 
L 313 1100 
L 313 1709 
L 2253 4666 
z
" transform="scale(0.015625)"/>
       </defs>
       <use xlink:href="#DejaVuSans-2212"/>
       <use xlink:href="#DejaVuSans-34" x="83.789062"/>
      </g>
     </g>
    </g>
    <g id="xtick_2">
     <g id="line2d_2">
      <g>
       <use xlink:href="#mcf275ff64c" x="281.256108" y="284.4" style="stroke: #000000; stroke-width: 0.8"/>
      </g>
     </g>
     <g id="text_2">
      <!-- −2 -->
      <g transform="translate(273.885014 298.998437) scale(0.1 -0.1)">
       <defs>
        <path id="DejaVuSans-32" d="M 1228 531 
L 3431 531 
L 3431 0 
L 469 0 
L 469 531 
Q 828 903 1448 1529 
Q 2069 2156 2228 2338 
Q 2531 2678 2651 2914 
Q 2772 3150 2772 3378 
Q 2772 3750 2511 3984 
Q 2250 4219 1831 4219 
Q 1534 4219 1204 4116 
Q 875 4013 500 3803 
L 500 4441 
Q 881 4594 1212 4672 
Q 1544 4750 1819 4750 
Q 2544 4750 2975 4387 
Q 3406 4025 3406 3419 
Q 3406 3131 3298 2873 
Q 3191 2616 2906 2266 
Q 2828 2175 2409 1742 
Q 1991 1309 1228 531 
z
" transform="scale(0.015625)"/>
       </defs>
       <use xlink:href="#DejaVuSans-2212"/>
       <use xlink:href="#DejaVuSans-32" x="83.789062"/>
      </g>
     </g>
    </g>
    <g id="xtick_3">
     <g id="line2d_3">
      <g>
       <use xlink:href="#mcf275ff64c" x="403.001563" y="284.4" style="stroke: #000000; stroke-width: 0.8"/>
      </g>
     </g>
     <g id="text_3">
      <!-- 0 -->
      <g transform="translate(399.820313 298.998437) scale(0.1 -0.1)">
       <defs>
        <path id="DejaVuSans-30" d="M 2034 4250 
Q 1547 4250 1301 3770 
Q 1056 3291 1056 2328 
Q 1056 1369 1301 889 
Q 1547 409 2034 409 
Q 2525 409 2770 889 
Q 3016 1369 3016 2328 
Q 3016 3291 2770 3770 
Q 2525 4250 2034 4250 
z
M 2034 4750 
Q 2819 4750 3233 4129 
Q 3647 3509 3647 2328 
Q 3647 1150 3233 529 
Q 2819 -91 2034 -91 
Q 1250 -91 836 529 
Q 422 1150 422 2328 
Q 422 3509 836 4129 
Q 1250 4750 2034 4750 
z
" transform="scale(0.015625)"/>
       </defs>
       <use xlink:href="#DejaVuSans-30"/>
      </g>
     </g>
    </g>
    <g id="xtick_4">
     <g id="line2d_4">
      <g>
       <use xlink:href="#mcf275ff64c" x="524.747017" y="284.4" style="stroke: #000000; stroke-width: 0.8"/>
      </g>
     </g>
     <g id="text_4">
      <!-- 2 -->
      <g transform="translate(521.565767 298.998437) scale(0.1 -0.1)">
       <use xlink:href="#DejaVuSans-32"/>
      </g>
     </g>
    </g>
    <g id="xtick_5">
     <g id="line2d_5">
      <g>
       <use xlink:href="#mcf275ff64c" x="646.492472" y="284.4" style="stroke: #000000; stroke-width: 0.8"/>
      </g>
     </g>
     <g id="text_5">
      <!-- 4 -->
      <g transform="translate(643.311222 298.998437) scale(0.1 -0.1)">
       <use xlink:href="#DejaVuSans-34"/>
      </g>
     </g>
    </g>
    <g id="text_6">
     <!-- x -->
     <g transform="translate(397.082813 320.275) scale(0.2 -0.2)">
      <defs>
       <path id="DejaVuSans-78" d="M 3513 3500 
L 2247 1797 
L 3578 0 
L 2900 0 
L 1881 1375 
L 863 0 
L 184 0 
L 1544 1831 
L 300 3500 
L 978 3500 
L 1906 2253 
L 2834 3500 
L 3513 3500 
z
" transform="scale(0.015625)"/>
      </defs>
      <use xlink:href="#DejaVuSans-78"/>
     </g>
    </g>
   </g>
   <g id="matplotlib.axis_2">
    <g id="ytick_1">
     <g id="line2d_6">
      <defs>
       <path id="me058c5021a" d="M 0 0 
L -3.5 0 
" style="stroke: #000000; stroke-width: 0.8"/>
      </defs>
      <g>
       <use xlink:href="#me058c5021a" x="68.201563" y="269.353165" style="stroke: #000000; stroke-width: 0.8"/>
      </g>
     </g>
     <g id="text_7">
      <!-- −10.0 -->
      <g transform="translate(30.55625 273.152384) scale(0.1 -0.1)">
       <defs>
        <path id="DejaVuSans-31" d="M 794 531 
L 1825 531 
L 1825 4091 
L 703 3866 
L 703 4441 
L 1819 4666 
L 2450 4666 
L 2450 531 
L 3481 531 
L 3481 0 
L 794 0 
L 794 531 
z
" transform="scale(0.015625)"/>
        <path id="DejaVuSans-2e" d="M 684 794 
L 1344 794 
L 1344 0 
L 684 0 
L 684 794 
z
" transform="scale(0.015625)"/>
       </defs>
       <use xlink:href="#DejaVuSans-2212"/>
       <use xlink:href="#DejaVuSans-31" x="83.789062"/>
       <use xlink:href="#DejaVuSans-30" x="147.412109"/>
       <use xlink:href="#DejaVuSans-2e" x="211.035156"/>
       <use xlink:href="#DejaVuSans-30" x="242.822266"/>
      </g>
     </g>
    </g>
    <g id="ytick_2">
     <g id="line2d_7">
      <g>
       <use xlink:href="#me058c5021a" x="68.201563" y="238.464874" style="stroke: #000000; stroke-width: 0.8"/>
      </g>
     </g>
     <g id="text_8">
      <!-- −7.5 -->
      <g transform="translate(36.91875 242.264093) scale(0.1 -0.1)">
       <defs>
        <path id="DejaVuSans-37" d="M 525 4666 
L 3525 4666 
L 3525 4397 
L 1831 0 
L 1172 0 
L 2766 4134 
L 525 4134 
L 525 4666 
z
" transform="scale(0.015625)"/>
        <path id="DejaVuSans-35" d="M 691 4666 
L 3169 4666 
L 3169 4134 
L 1269 4134 
L 1269 2991 
Q 1406 3038 1543 3061 
Q 1681 3084 1819 3084 
Q 2600 3084 3056 2656 
Q 3513 2228 3513 1497 
Q 3513 744 3044 326 
Q 2575 -91 1722 -91 
Q 1428 -91 1123 -41 
Q 819 9 494 109 
L 494 744 
Q 775 591 1075 516 
Q 1375 441 1709 441 
Q 2250 441 2565 725 
Q 2881 1009 2881 1497 
Q 2881 1984 2565 2268 
Q 2250 2553 1709 2553 
Q 1456 2553 1204 2497 
Q 953 2441 691 2322 
L 691 4666 
z
" transform="scale(0.015625)"/>
       </defs>
       <use xlink:href="#DejaVuSans-2212"/>
       <use xlink:href="#DejaVuSans-37" x="83.789062"/>
       <use xlink:href="#DejaVuSans-2e" x="147.412109"/>
       <use xlink:href="#DejaVuSans-35" x="179.199219"/>
      </g>
     </g>
    </g>
    <g id="ytick_3">
     <g id="line2d_8">
      <g>
       <use xlink:href="#me058c5021a" x="68.201563" y="207.576583" style="stroke: #000000; stroke-width: 0.8"/>
      </g>
     </g>
     <g id="text_9">
      <!-- −5.0 -->
      <g transform="translate(36.91875 211.375801) scale(0.1 -0.1)">
       <use xlink:href="#DejaVuSans-2212"/>
       <use xlink:href="#DejaVuSans-35" x="83.789062"/>
       <use xlink:href="#DejaVuSans-2e" x="147.412109"/>
       <use xlink:href="#DejaVuSans-30" x="179.199219"/>
      </g>
     </g>
    </g>
    <g id="ytick_4">
     <g id="line2d_9">
      <g>
       <use xlink:href="#me058c5021a" x="68.201563" y="176.688291" style="stroke: #000000; stroke-width: 0.8"/>
      </g>
     </g>
     <g id="text_10">
      <!-- −2.5 -->
      <g transform="translate(36.91875 180.48751) scale(0.1 -0.1)">
       <use xlink:href="#DejaVuSans-2212"/>
       <use xlink:href="#DejaVuSans-32" x="83.789062"/>
       <use xlink:href="#DejaVuSans-2e" x="147.412109"/>
       <use xlink:href="#DejaVuSans-35" x="179.199219"/>
      </g>
     </g>
    </g>
    <g id="ytick_5">
     <g id="line2d_10">
      <g>
       <use xlink:href="#me058c5021a" x="68.201563" y="145.8" style="stroke: #000000; stroke-width: 0.8"/>
      </g>
     </g>
     <g id="text_11">
      <!-- 0.0 -->
      <g transform="translate(45.298438 149.599219) scale(0.1 -0.1)">
       <use xlink:href="#DejaVuSans-30"/>
       <use xlink:href="#DejaVuSans-2e" x="63.623047"/>
       <use xlink:href="#DejaVuSans-30" x="95.410156"/>
      </g>
     </g>
    </g>
    <g id="ytick_6">
     <g id="line2d_11">
      <g>
       <use xlink:href="#me058c5021a" x="68.201563" y="114.911709" style="stroke: #000000; stroke-width: 0.8"/>
      </g>
     </g>
     <g id="text_12">
      <!-- 2.5 -->
      <g transform="translate(45.298438 118.710927) scale(0.1 -0.1)">
       <use xlink:href="#DejaVuSans-32"/>
       <use xlink:href="#DejaVuSans-2e" x="63.623047"/>
       <use xlink:href="#DejaVuSans-35" x="95.410156"/>
      </g>
     </g>
    </g>
    <g id="ytick_7">
     <g id="line2d_12">
      <g>
       <use xlink:href="#me058c5021a" x="68.201563" y="84.023417" style="stroke: #000000; stroke-width: 0.8"/>
      </g>
     </g>
     <g id="text_13">
      <!-- 5.0 -->
      <g transform="translate(45.298438 87.822636) scale(0.1 -0.1)">
       <use xlink:href="#DejaVuSans-35"/>
       <use xlink:href="#DejaVuSans-2e" x="63.623047"/>
       <use xlink:href="#DejaVuSans-30" x="95.410156"/>
      </g>
     </g>
    </g>
    <g id="ytick_8">
     <g id="line2d_13">
      <g>
       <use xlink:href="#me058c5021a" x="68.201563" y="53.135126" style="stroke: #000000; stroke-width: 0.8"/>
      </g>
     </g>
     <g id="text_14">
      <!-- 7.5 -->
      <g transform="translate(45.298438 56.934345) scale(0.1 -0.1)">
       <use xlink:href="#DejaVuSans-37"/>
       <use xlink:href="#DejaVuSans-2e" x="63.623047"/>
       <use xlink:href="#DejaVuSans-35" x="95.410156"/>
      </g>
     </g>
    </g>
    <g id="ytick_9">
     <g id="line2d_14">
      <g>
       <use xlink:href="#me058c5021a" x="68.201563" y="22.246835" style="stroke: #000000; stroke-width: 0.8"/>
      </g>
     </g>
     <g id="text_15">
      <!-- 10.0 -->
      <g transform="translate(38.935938 26.046054) scale(0.1 -0.1)">
       <use xlink:href="#DejaVuSans-31"/>
       <use xlink:href="#DejaVuSans-30" x="63.623047"/>
       <use xlink:href="#DejaVuSans-2e" x="127.246094"/>
       <use xlink:href="#DejaVuSans-30" x="159.033203"/>
      </g>
     </g>
    </g>
    <g id="text_16">
     <!-- f(x) -->
     <g transform="translate(22.396875 163.042187) rotate(-90) scale(0.2 -0.2)">
      <defs>
       <path id="DejaVuSans-66" d="M 2375 4863 
L 2375 4384 
L 1825 4384 
Q 1516 4384 1395 4259 
Q 1275 4134 1275 3809 
L 1275 3500 
L 2222 3500 
L 2222 3053 
L 1275 3053 
L 1275 0 
L 697 0 
L 697 3053 
L 147 3053 
L 147 3500 
L 697 3500 
L 697 3744 
Q 697 4328 969 4595 
Q 1241 4863 1831 4863 
L 2375 4863 
z
" transform="scale(0.015625)"/>
       <path id="DejaVuSans-28" d="M 1984 4856 
Q 1566 4138 1362 3434 
Q 1159 2731 1159 2009 
Q 1159 1288 1364 580 
Q 1569 -128 1984 -844 
L 1484 -844 
Q 1016 -109 783 600 
Q 550 1309 550 2009 
Q 550 2706 781 3412 
Q 1013 4119 1484 4856 
L 1984 4856 
z
" transform="scale(0.015625)"/>
       <path id="DejaVuSans-29" d="M 513 4856 
L 1013 4856 
Q 1481 4119 1714 3412 
Q 1947 2706 1947 2009 
Q 1947 1309 1714 600 
Q 1481 -109 1013 -844 
L 513 -844 
Q 928 -128 1133 580 
Q 1338 1288 1338 2009 
Q 1338 2731 1133 3434 
Q 928 4138 513 4856 
z
" transform="scale(0.015625)"/>
      </defs>
      <use xlink:href="#DejaVuSans-66"/>
      <use xlink:href="#DejaVuSans-28" x="35.205078"/>
      <use xlink:href="#DejaVuSans-78" x="74.21875"/>
      <use xlink:href="#DejaVuSans-29" x="133.398438"/>
     </g>
    </g>
   </g>
   <g id="line2d_15">
    <path d="M 98.637926 145.8 
L 111.060932 145.8 
L 123.483937 145.8 
L 135.906943 145.8 
L 148.329948 145.8 
L 160.752954 145.8 
L 173.17596 145.8 
L 185.598965 145.8 
L 198.021971 145.8 
L 210.444976 145.8 
L 222.867982 145.8 
L 235.290987 145.8 
L 247.713993 145.8 
L 260.136998 145.8 
L 272.560004 145.8 
L 284.98301 145.8 
L 297.406015 145.8 
L 309.829021 145.8 
L 322.252026 145.8 
L 334.675032 145.8 
L 347.098037 145.8 
L 359.521043 145.8 
L 371.944049 145.8 
L 384.367054 145.8 
L 396.79006 145.8 
L 409.213065 145.8 
L 421.636071 145.8 
L 434.059076 145.8 
L 446.482082 145.8 
L 458.905088 145.8 
L 471.328093 145.8 
L 483.751099 145.8 
L 496.174104 145.8 
L 508.59711 145.8 
L 521.020115 145.8 
L 533.443121 145.8 
L 545.866127 145.8 
L 558.289132 145.8 
L 570.712138 145.8 
L 583.135143 145.8 
L 595.558149 145.8 
L 607.981154 145.8 
L 620.40416 145.8 
L 632.827165 145.8 
L 645.250171 145.8 
L 657.673177 145.8 
L 670.096182 145.8 
L 682.519188 145.8 
L 694.942193 145.8 
L 707.365199 145.8 
" clip-path="url(#p9e3cfed2d1)" style="fill: none; stroke: #000000; stroke-width: 4; stroke-linecap: square"/>
   </g>
   <g id="line2d_16">
    <path d="M 98.637926 128.388932 
L 111.060932 129.693744 
L 123.483937 130.998555 
L 135.906943 132.303367 
L 148.329948 133.608178 
L 160.752954 134.91299 
L 173.17596 136.217802 
L 185.598965 137.522613 
L 198.021971 138.827425 
L 210.444976 140.132236 
L 222.867982 141.437048 
L 235.290987 142.741859 
L 247.713993 144.046671 
L 260.136998 145.351482 
L 272.560004 146.656294 
L 284.98301 147.961105 
L 297.406015 149.265917 
L 309.829021 150.570729 
L 322.252026 151.87554 
L 334.675032 153.180352 
L 347.098037 154.485163 
L 359.521043 155.789975 
L 371.944049 157.094786 
L 384.367054 158.399598 
L 396.79006 159.704409 
L 409.213065 161.009221 
L 421.636071 162.314032 
L 434.059076 163.618844 
L 446.482082 164.923655 
L 458.905088 166.228467 
L 471.328093 167.533279 
L 483.751099 168.83809 
L 496.174104 170.142902 
L 508.59711 171.447713 
L 521.020115 172.752525 
L 533.443121 174.057336 
L 545.866127 175.362148 
L 558.289132 176.666959 
L 570.712138 177.971771 
L 583.135143 179.276582 
L 595.558149 180.581394 
L 607.981154 181.886206 
L 620.40416 183.191017 
L 632.827165 184.495829 
L 645.250171 185.80064 
L 657.673177 187.105452 
L 670.096182 188.410263 
L 682.519188 189.715075 
L 694.942193 191.019886 
L 707.365199 192.324698 
" clip-path="url(#p9e3cfed2d1)" style="fill: none; stroke: #1f77b4; stroke-width: 1.5; stroke-linecap: square"/>
   </g>
   <g id="line2d_17">
    <path d="M 98.637926 60.793833 
L 111.060932 63.346523 
L 123.483937 65.899213 
L 135.906943 68.451903 
L 148.329948 71.004594 
L 160.752954 73.557284 
L 173.17596 76.109974 
L 185.598965 78.662664 
L 198.021971 81.215354 
L 210.444976 83.768045 
L 222.867982 86.320735 
L 235.290987 88.873425 
L 247.713993 91.426115 
L 260.136998 93.978806 
L 272.560004 96.531496 
L 284.98301 99.084186 
L 297.406015 101.636876 
L 309.829021 104.189566 
L 322.252026 106.742257 
L 334.675032 109.294947 
L 347.098037 111.847637 
L 359.521043 114.400327 
L 371.944049 116.953018 
L 384.367054 119.505708 
L 396.79006 122.058398 
L 409.213065 124.611088 
L 421.636071 127.163778 
L 434.059076 129.716469 
L 446.482082 132.269159 
L 458.905088 134.821849 
L 471.328093 137.374539 
L 483.751099 139.92723 
L 496.174104 142.47992 
L 508.59711 145.03261 
L 521.020115 147.5853 
L 533.443121 150.13799 
L 545.866127 152.690681 
L 558.289132 155.243371 
L 570.712138 157.796061 
L 583.135143 160.348751 
L 595.558149 162.901442 
L 607.981154 165.454132 
L 620.40416 168.006822 
L 632.827165 170.559512 
L 645.250171 173.112202 
L 657.673177 175.664893 
L 670.096182 178.217583 
L 682.519188 180.770273 
L 694.942193 183.322963 
L 707.365199 185.875654 
" clip-path="url(#p9e3cfed2d1)" style="fill: none; stroke: #ff7f0e; stroke-width: 1.5; stroke-linecap: square"/>
   </g>
   <g id="line2d_18">
    <path d="M 98.637926 179.042262 
L 111.060932 177.340167 
L 123.483937 175.638072 
L 135.906943 173.935976 
L 148.329948 172.233881 
L 160.752954 170.531786 
L 173.17596 168.829691 
L 185.598965 167.127596 
L 198.021971 165.425501 
L 210.444976 163.723405 
L 222.867982 162.02131 
L 235.290987 160.319215 
L 247.713993 158.61712 
L 260.136998 156.915025 
L 272.560004 155.212929 
L 284.98301 153.510834 
L 297.406015 151.808739 
L 309.829021 150.106644 
L 322.252026 148.404549 
L 334.675032 146.702453 
L 347.098037 145.000358 
L 359.521043 143.298263 
L 371.944049 141.596168 
L 384.367054 139.894073 
L 396.79006 138.191978 
L 409.213065 136.489882 
L 421.636071 134.787787 
L 434.059076 133.085692 
L 446.482082 131.383597 
L 458.905088 129.681502 
L 471.328093 127.979406 
L 483.751099 126.277311 
L 496.174104 124.575216 
L 508.59711 122.873121 
L 521.020115 121.171026 
L 533.443121 119.46893 
L 545.866127 117.766835 
L 558.289132 116.06474 
L 570.712138 114.362645 
L 583.135143 112.66055 
L 595.558149 110.958455 
L 607.981154 109.256359 
L 620.40416 107.554264 
L 632.827165 105.852169 
L 645.250171 104.150074 
L 657.673177 102.447979 
L 670.096182 100.745883 
L 682.519188 99.043788 
L 694.942193 97.341693 
L 707.365199 95.639598 
" clip-path="url(#p9e3cfed2d1)" style="fill: none; stroke: #2ca02c; stroke-width: 1.5; stroke-linecap: square"/>
   </g>
   <g id="line2d_19">
    <path d="M 98.637926 115.780805 
L 111.060932 117.340701 
L 123.483937 118.900597 
L 135.906943 120.460493 
L 148.329948 122.020388 
L 160.752954 123.580284 
L 173.17596 125.14018 
L 185.598965 126.700076 
L 198.021971 128.259972 
L 210.444976 129.819868 
L 222.867982 131.379764 
L 235.290987 132.93966 
L 247.713993 134.499556 
L 260.136998 136.059452 
L 272.560004 137.619348 
L 284.98301 139.179244 
L 297.406015 140.73914 
L 309.829021 142.299036 
L 322.252026 143.858932 
L 334.675032 145.418828 
L 347.098037 146.978724 
L 359.521043 148.53862 
L 371.944049 150.098516 
L 384.367054 151.658411 
L 396.79006 153.218307 
L 409.213065 154.778203 
L 421.636071 156.338099 
L 434.059076 157.897995 
L 446.482082 159.457891 
L 458.905088 161.017787 
L 471.328093 162.577683 
L 483.751099 164.137579 
L 496.174104 165.697475 
L 508.59711 167.257371 
L 521.020115 168.817267 
L 533.443121 170.377163 
L 545.866127 171.937059 
L 558.289132 173.496955 
L 570.712138 175.056851 
L 583.135143 176.616747 
L 595.558149 178.176643 
L 607.981154 179.736539 
L 620.40416 181.296434 
L 632.827165 182.85633 
L 645.250171 184.416226 
L 657.673177 185.976122 
L 670.096182 187.536018 
L 682.519188 189.095914 
L 694.942193 190.65581 
L 707.365199 192.215706 
" clip-path="url(#p9e3cfed2d1)" style="fill: none; stroke: #d62728; stroke-width: 1.5; stroke-linecap: square"/>
   </g>
   <g id="line2d_20">
    <path d="M 98.637926 195.179177 
L 111.060932 193.518711 
L 123.483937 191.858245 
L 135.906943 190.197779 
L 148.329948 188.537313 
L 160.752954 186.876847 
L 173.17596 185.216381 
L 185.598965 183.555915 
L 198.021971 181.895449 
L 210.444976 180.234982 
L 222.867982 178.574516 
L 235.290987 176.91405 
L 247.713993 175.253584 
L 260.136998 173.593118 
L 272.560004 171.932652 
L 284.98301 170.272186 
L 297.406015 168.61172 
L 309.829021 166.951254 
L 322.252026 165.290788 
L 334.675032 163.630322 
L 347.098037 161.969856 
L 359.521043 160.30939 
L 371.944049 158.648924 
L 384.367054 156.988458 
L 396.79006 155.327991 
L 409.213065 153.667525 
L 421.636071 152.007059 
L 434.059076 150.346593 
L 446.482082 148.686127 
L 458.905088 147.025661 
L 471.328093 145.365195 
L 483.751099 143.704729 
L 496.174104 142.044263 
L 508.59711 140.383797 
L 521.020115 138.723331 
L 533.443121 137.062865 
L 545.866127 135.402399 
L 558.289132 133.741933 
L 570.712138 132.081467 
L 583.135143 130.421 
L 595.558149 128.760534 
L 607.981154 127.100068 
L 620.40416 125.439602 
L 632.827165 123.779136 
L 645.250171 122.11867 
L 657.673177 120.458204 
L 670.096182 118.797738 
L 682.519188 117.137272 
L 694.942193 115.476806 
L 707.365199 113.81634 
" clip-path="url(#p9e3cfed2d1)" style="fill: none; stroke: #9467bd; stroke-width: 1.5; stroke-linecap: square"/>
   </g>
   <g id="line2d_21">
    <path d="M 98.637926 100.645398 
L 111.060932 102.680137 
L 123.483937 104.714876 
L 135.906943 106.749614 
L 148.329948 108.784353 
L 160.752954 110.819092 
L 173.17596 112.853831 
L 185.598965 114.88857 
L 198.021971 116.923309 
L 210.444976 118.958048 
L 222.867982 120.992787 
L 235.290987 123.027526 
L 247.713993 125.062265 
L 260.136998 127.097004 
L 272.560004 129.131743 
L 284.98301 131.166482 
L 297.406015 133.201221 
L 309.829021 135.23596 
L 322.252026 137.270699 
L 334.675032 139.305438 
L 347.098037 141.340177 
L 359.521043 143.374915 
L 371.944049 145.409654 
L 384.367054 147.444393 
L 396.79006 149.479132 
L 409.213065 151.513871 
L 421.636071 153.54861 
L 434.059076 155.583349 
L 446.482082 157.618088 
L 458.905088 159.652827 
L 471.328093 161.687566 
L 483.751099 163.722305 
L 496.174104 165.757044 
L 508.59711 167.791783 
L 521.020115 169.826522 
L 533.443121 171.861261 
L 545.866127 173.896 
L 558.289132 175.930739 
L 570.712138 177.965478 
L 583.135143 180.000216 
L 595.558149 182.034955 
L 607.981154 184.069694 
L 620.40416 186.104433 
L 632.827165 188.139172 
L 645.250171 190.173911 
L 657.673177 192.20865 
L 670.096182 194.243389 
L 682.519188 196.278128 
L 694.942193 198.312867 
L 707.365199 200.347606 
" clip-path="url(#p9e3cfed2d1)" style="fill: none; stroke: #8c564b; stroke-width: 1.5; stroke-linecap: square"/>
   </g>
   <g id="line2d_22">
    <path d="M 98.637926 180.095491 
L 111.060932 178.684676 
L 123.483937 177.273861 
L 135.906943 175.863046 
L 148.329948 174.452231 
L 160.752954 173.041416 
L 173.17596 171.630601 
L 185.598965 170.219786 
L 198.021971 168.808972 
L 210.444976 167.398157 
L 222.867982 165.987342 
L 235.290987 164.576527 
L 247.713993 163.165712 
L 260.136998 161.754897 
L 272.560004 160.344082 
L 284.98301 158.933267 
L 297.406015 157.522452 
L 309.829021 156.111637 
L 322.252026 154.700822 
L 334.675032 153.290007 
L 347.098037 151.879192 
L 359.521043 150.468377 
L 371.944049 149.057562 
L 384.367054 147.646747 
L 396.79006 146.235932 
L 409.213065 144.825117 
L 421.636071 143.414302 
L 434.059076 142.003487 
L 446.482082 140.592672 
L 458.905088 139.181857 
L 471.328093 137.771042 
L 483.751099 136.360227 
L 496.174104 134.949412 
L 508.59711 133.538597 
L 521.020115 132.127782 
L 533.443121 130.716967 
L 545.866127 129.306152 
L 558.289132 127.895337 
L 570.712138 126.484522 
L 583.135143 125.073707 
L 595.558149 123.662892 
L 607.981154 122.252077 
L 620.40416 120.841262 
L 632.827165 119.430447 
L 645.250171 118.019632 
L 657.673177 116.608817 
L 670.096182 115.198002 
L 682.519188 113.787187 
L 694.942193 112.376372 
L 707.365199 110.965557 
" clip-path="url(#p9e3cfed2d1)" style="fill: none; stroke: #e377c2; stroke-width: 1.5; stroke-linecap: square"/>
   </g>
   <g id="line2d_23">
    <path d="M 98.637926 64.728731 
L 111.060932 67.699868 
L 123.483937 70.671005 
L 135.906943 73.642142 
L 148.329948 76.613279 
L 160.752954 79.584415 
L 173.17596 82.555552 
L 185.598965 85.526689 
L 198.021971 88.497826 
L 210.444976 91.468963 
L 222.867982 94.440099 
L 235.290987 97.411236 
L 247.713993 100.382373 
L 260.136998 103.35351 
L 272.560004 106.324647 
L 284.98301 109.295783 
L 297.406015 112.26692 
L 309.829021 115.238057 
L 322.252026 118.209194 
L 334.675032 121.180331 
L 347.098037 124.151468 
L 359.521043 127.122604 
L 371.944049 130.093741 
L 384.367054 133.064878 
L 396.79006 136.036015 
L 409.213065 139.007152 
L 421.636071 141.978288 
L 434.059076 144.949425 
L 446.482082 147.920562 
L 458.905088 150.891699 
L 471.328093 153.862836 
L 483.751099 156.833973 
L 496.174104 159.805109 
L 508.59711 162.776246 
L 521.020115 165.747383 
L 533.443121 168.71852 
L 545.866127 171.689657 
L 558.289132 174.660793 
L 570.712138 177.63193 
L 583.135143 180.603067 
L 595.558149 183.574204 
L 607.981154 186.545341 
L 620.40416 189.516478 
L 632.827165 192.487614 
L 645.250171 195.458751 
L 657.673177 198.429888 
L 670.096182 201.401025 
L 682.519188 204.372162 
L 694.942193 207.343298 
L 707.365199 210.314435 
" clip-path="url(#p9e3cfed2d1)" style="fill: none; stroke: #7f7f7f; stroke-width: 1.5; stroke-linecap: square"/>
   </g>
   <g id="line2d_24">
    <path d="M 98.637926 177.299395 
L 111.060932 176.366052 
L 123.483937 175.432709 
L 135.906943 174.499366 
L 148.329948 173.566023 
L 160.752954 172.63268 
L 173.17596 171.699337 
L 185.598965 170.765994 
L 198.021971 169.832651 
L 210.444976 168.899308 
L 222.867982 167.965965 
L 235.290987 167.032622 
L 247.713993 166.099279 
L 260.136998 165.165936 
L 272.560004 164.232593 
L 284.98301 163.29925 
L 297.406015 162.365907 
L 309.829021 161.432563 
L 322.252026 160.49922 
L 334.675032 159.565877 
L 347.098037 158.632534 
L 359.521043 157.699191 
L 371.944049 156.765848 
L 384.367054 155.832505 
L 396.79006 154.899162 
L 409.213065 153.965819 
L 421.636071 153.032476 
L 434.059076 152.099133 
L 446.482082 151.16579 
L 458.905088 150.232447 
L 471.328093 149.299104 
L 483.751099 148.365761 
L 496.174104 147.432418 
L 508.59711 146.499075 
L 521.020115 145.565732 
L 533.443121 144.632389 
L 545.866127 143.699046 
L 558.289132 142.765703 
L 570.712138 141.83236 
L 583.135143 140.899017 
L 595.558149 139.965674 
L 607.981154 139.032331 
L 620.40416 138.098988 
L 632.827165 137.165645 
L 645.250171 136.232302 
L 657.673177 135.298959 
L 670.096182 134.365616 
L 682.519188 133.432273 
L 694.942193 132.49893 
L 707.365199 131.565587 
" clip-path="url(#p9e3cfed2d1)" style="fill: none; stroke: #bcbd22; stroke-width: 1.5; stroke-linecap: square"/>
   </g>
   <g id="line2d_25">
    <path d="M 98.637926 93.517995 
L 111.060932 95.234421 
L 123.483937 96.950848 
L 135.906943 98.667275 
L 148.329948 100.383702 
L 160.752954 102.100129 
L 173.17596 103.816555 
L 185.598965 105.532982 
L 198.021971 107.249409 
L 210.444976 108.965836 
L 222.867982 110.682262 
L 235.290987 112.398689 
L 247.713993 114.115116 
L 260.136998 115.831543 
L 272.560004 117.54797 
L 284.98301 119.264396 
L 297.406015 120.980823 
L 309.829021 122.69725 
L 322.252026 124.413677 
L 334.675032 126.130103 
L 347.098037 127.84653 
L 359.521043 129.562957 
L 371.944049 131.279384 
L 384.367054 132.995811 
L 396.79006 134.712237 
L 409.213065 136.428664 
L 421.636071 138.145091 
L 434.059076 139.861518 
L 446.482082 141.577944 
L 458.905088 143.294371 
L 471.328093 145.010798 
L 483.751099 146.727225 
L 496.174104 148.443651 
L 508.59711 150.160078 
L 521.020115 151.876505 
L 533.443121 153.592932 
L 545.866127 155.309359 
L 558.289132 157.025785 
L 570.712138 158.742212 
L 583.135143 160.458639 
L 595.558149 162.175066 
L 607.981154 163.891492 
L 620.40416 165.607919 
L 632.827165 167.324346 
L 645.250171 169.040773 
L 657.673177 170.7572 
L 670.096182 172.473626 
L 682.519188 174.190053 
L 694.942193 175.90648 
L 707.365199 177.622907 
" clip-path="url(#p9e3cfed2d1)" style="fill: none; stroke: #17becf; stroke-width: 1.5; stroke-linecap: square"/>
   </g>
   <g id="patch_3">
    <path d="M 68.201563 284.4 
L 68.201563 7.2 
" style="fill: none; stroke: #000000; stroke-width: 0.8; stroke-linejoin: miter; stroke-linecap: square"/>
   </g>
   <g id="patch_4">
    <path d="M 737.801563 284.4 
L 737.801563 7.2 
" style="fill: none; stroke: #000000; stroke-width: 0.8; stroke-linejoin: miter; stroke-linecap: square"/>
   </g>
   <g id="patch_5">
    <path d="M 68.201563 284.4 
L 737.801563 284.4 
" style="fill: none; stroke: #000000; stroke-width: 0.8; stroke-linejoin: miter; stroke-linecap: square"/>
   </g>
   <g id="patch_6">
    <path d="M 68.201563 7.2 
L 737.801563 7.2 
" style="fill: none; stroke: #000000; stroke-width: 0.8; stroke-linejoin: miter; stroke-linecap: square"/>
   </g>
  </g>
 </g>
 <defs>
  <clipPath id="p9e3cfed2d1">
   <rect x="68.201563" y="7.2" width="669.6" height="277.2"/>
  </clipPath>
 </defs>
</svg>
