<?xml version="1.0" encoding="utf-8" standalone="no"?>
<!DOCTYPE svg PUBLIC "-//W3C//DTD SVG 1.1//EN"
  "http://www.w3.org/Graphics/SVG/1.1/DTD/svg11.dtd">
<svg xmlns:xlink="http://www.w3.org/1999/xlink" width="735.460937pt" height="331.634375pt" viewBox="0 0 735.460937 331.634375" xmlns="http://www.w3.org/2000/svg" version="1.1">
 <metadata>
  <rdf:RDF xmlns:dc="http://purl.org/dc/elements/1.1/" xmlns:cc="http://creativecommons.org/ns#" xmlns:rdf="http://www.w3.org/1999/02/22-rdf-syntax-ns#">
   <cc:Work>
    <dc:type rdf:resource="http://purl.org/dc/dcmitype/StillImage"/>
    <dc:date>2025-05-11T12:00:00.536845</dc:date>
    <dc:format>image/svg+xml</dc:format>
    <dc:creator>
     <cc:Agent>
      <dc:title>Matplotlib v3.7.2, https://matplotlib.org/</dc:title>
     </cc:Agent>
    </dc:creator>
   </cc:Work>
  </rdf:RDF>
 </metadata>
 <defs>
  <style type="text/css">*{stroke-linejoin: round; stroke-linecap: butt}</style>
 </defs>
 <g id="figure_1">
  <g id="patch_1">
   <path d="M 0 331.634375 
L 735.460937 331.634375 
L 735.460937 0 
L 0 0 
z
" style="fill: #ffffff"/>
  </g>
  <g id="axes_1">
   <g id="patch_2">
    <path d="M 58.660938 284.4 
L 728.260938 284.4 
L 728.260938 7.2 
L 58.660938 7.2 
z
" style="fill: #ffffff"/>
   </g>
   <g id="PolyCollection_1">
    <path d="M 89.097301 34.458533 
L 89.097301 252.350162 
L 101.520307 248.077917 
L 113.943312 243.813252 
L 126.366318 239.557177 
L 138.789323 235.310884 
L 151.212329 231.075796 
L 163.635335 226.853617 
L 176.05834 222.646412 
L 188.481346 218.456699 
L 200.904351 214.287579 
L 213.327357 210.142912 
L 225.750362 206.027554 
L 238.173368 201.947685 
L 250.596373 197.911275 
L 263.019379 193.928742 
L 275.442385 190.013897 
L 287.86539 186.185327 
L 300.288396 182.468407 
L 312.711401 178.89823 
L 325.134407 175.523767 
L 337.557412 172.413397 
L 349.980418 169.661141 
L 362.403424 167.390592 
L 374.826429 165.74908 
L 387.249435 164.881326 
L 399.67244 164.881326 
L 412.095446 165.74908 
L 424.518451 167.390592 
L 436.941457 169.661141 
L 449.364463 172.413397 
L 461.787468 175.523767 
L 474.210474 178.89823 
L 486.633479 182.468407 
L 499.056485 186.185327 
L 511.47949 190.013897 
L 523.902496 193.928742 
L 536.325502 197.911275 
L 548.748507 201.947685 
L 561.171513 206.027554 
L 573.594518 210.142912 
L 586.017524 214.287579 
L 598.440529 218.456699 
L 610.863535 222.646412 
L 623.28654 226.853617 
L 635.709546 231.075796 
L 648.132552 235.310884 
L 660.555557 239.557177 
L 672.978563 243.813252 
L 685.401568 248.077917 
L 697.824574 252.350162 
L 697.824574 34.458533 
L 697.824574 34.458533 
L 685.401568 38.730778 
L 672.978563 42.995442 
L 660.555557 47.251517 
L 648.132552 51.49781 
L 635.709546 55.732899 
L 623.28654 59.955077 
L 610.863535 64.162282 
L 598.440529 68.351995 
L 586.017524 72.521115 
L 573.594518 76.665782 
L 561.171513 80.78114 
L 548.748507 84.861009 
L 536.325502 88.897419 
L 523.902496 92.879953 
L 511.47949 96.794798 
L 499.056485 100.623368 
L 486.633479 104.340288 
L 474.210474 107.910464 
L 461.787468 111.284927 
L 449.364463 114.395297 
L 436.941457 117.147553 
L 424.518451 119.418103 
L 412.095446 121.059615 
L 399.67244 121.927368 
L 387.249435 121.927368 
L 374.826429 121.059615 
L 362.403424 119.418103 
L 349.980418 117.147553 
L 337.557412 114.395297 
L 325.134407 111.284927 
L 312.711401 107.910464 
L 300.288396 104.340288 
L 287.86539 100.623368 
L 275.442385 96.794798 
L 263.019379 92.879953 
L 250.596373 88.897419 
L 238.173368 84.861009 
L 225.750362 80.78114 
L 213.327357 76.665782 
L 200.904351 72.521115 
L 188.481346 68.351995 
L 176.05834 64.162282 
L 163.635335 59.955077 
L 151.212329 55.732899 
L 138.789323 51.49781 
L 126.366318 47.251517 
L 113.943312 42.995442 
L 101.520307 38.730778 
L 89.097301 34.458533 
z
" clip-path="url(#p2c6dbf702c)" style="fill: #1f77b4; fill-opacity: 0.25"/>
   </g>
   <g id="matplotlib.axis_1">
    <g id="xtick_1">
     <g id="line2d_1">
      <defs>
       <path id="m87b56125c9" d="M 0 0 
L 0 3.5 
" style="stroke: #000000; stroke-width: 0.8"/>
      </defs>
      <g>
       <use xlink:href="#m87b56125c9" x="149.970028" y="284.4" style="stroke: #000000; stroke-width: 0.8"/>
      </g>
     </g>
     <g id="text_1">
      <!-- −4 -->
      <g transform="translate(142.598935 298.998437) scale(0.1 -0.1)">
       <defs>
        <path id="DejaVuSans-2212" d="M 678 2272 
L 4684 2272 
L 4684 1741 
L 678 1741 
L 678 2272 
z
" transform="scale(0.015625)"/>
        <path id="DejaVuSans-34" d="M 2419 4116 
L 825 1625 
L 2419 1625 
L 2419 4116 
z
M 2253 4666 
L 3047 4666 
L 3047 1625 
L 3713 1625 
L 3713 1100 
L 3047 1100 
L 3047 0 
L 2419 0 
L 2419 1100 
L 313 1100 
L 313 1709 
L 2253 4666 
z
" transform="scale(0.015625)"/>
       </defs>
       <use xlink:href="#DejaVuSans-2212"/>
       <use xlink:href="#DejaVuSans-34" x="83.789062"/>
      </g>
     </g>
    </g>
    <g id="xtick_2">
     <g id="line2d_2">
      <g>
       <use xlink:href="#m87b56125c9" x="271.715483" y="284.4" style="stroke: #000000; stroke-width: 0.8"/>
      </g>
     </g>
     <g id="text_2">
      <!-- −2 -->
      <g transform="translate(264.344389 298.998437) scale(0.1 -0.1)">
       <defs>
        <path id="DejaVuSans-32" d="M 1228 531 
L 3431 531 
L 3431 0 
L 469 0 
L 469 531 
Q 828 903 1448 1529 
Q 2069 2156 2228 2338 
Q 2531 2678 2651 2914 
Q 2772 3150 2772 3378 
Q 2772 3750 2511 3984 
Q 2250 4219 1831 4219 
Q 1534 4219 1204 4116 
Q 875 4013 500 3803 
L 500 4441 
Q 881 4594 1212 4672 
Q 1544 4750 1819 4750 
Q 2544 4750 2975 4387 
Q 3406 4025 3406 3419 
Q 3406 3131 3298 2873 
Q 3191 2616 2906 2266 
Q 2828 2175 2409 1742 
Q 1991 1309 1228 531 
z
" transform="scale(0.015625)"/>
       </defs>
       <use xlink:href="#DejaVuSans-2212"/>
       <use xlink:href="#DejaVuSans-32" x="83.789062"/>
      </g>
     </g>
    </g>
    <g id="xtick_3">
     <g id="line2d_3">
      <g>
       <use xlink:href="#m87b56125c9" x="393.460938" y="284.4" style="stroke: #000000; stroke-width: 0.8"/>
      </g>
     </g>
     <g id="text_3">
      <!-- 0 -->
      <g transform="translate(390.279688 298.998437) scale(0.1 -0.1)">
       <defs>
        <path id="DejaVuSans-30" d="M 2034 4250 
Q 1547 4250 1301 3770 
Q 1056 3291 1056 2328 
Q 1056 1369 1301 889 
Q 1547 409 2034 409 
Q 2525 409 2770 889 
Q 3016 1369 3016 2328 
Q 3016 3291 2770 3770 
Q 2525 4250 2034 4250 
z
M 2034 4750 
Q 2819 4750 3233 4129 
Q 3647 3509 3647 2328 
Q 3647 1150 3233 529 
Q 2819 -91 2034 -91 
Q 1250 -91 836 529 
Q 422 1150 422 2328 
Q 422 3509 836 4129 
Q 1250 4750 2034 4750 
z
" transform="scale(0.015625)"/>
       </defs>
       <use xlink:href="#DejaVuSans-30"/>
      </g>
     </g>
    </g>
    <g id="xtick_4">
     <g id="line2d_4">
      <g>
       <use xlink:href="#m87b56125c9" x="515.206392" y="284.4" style="stroke: #000000; stroke-width: 0.8"/>
      </g>
     </g>
     <g id="text_4">
      <!-- 2 -->
      <g transform="translate(512.025142 298.998437) scale(0.1 -0.1)">
       <use xlink:href="#DejaVuSans-32"/>
      </g>
     </g>
    </g>
    <g id="xtick_5">
     <g id="line2d_5">
      <g>
       <use xlink:href="#m87b56125c9" x="636.951847" y="284.4" style="stroke: #000000; stroke-width: 0.8"/>
      </g>
     </g>
     <g id="text_5">
      <!-- 4 -->
      <g transform="translate(633.770597 298.998437) scale(0.1 -0.1)">
       <use xlink:href="#DejaVuSans-34"/>
      </g>
     </g>
    </g>
    <g id="text_6">
     <!-- x -->
     <g transform="translate(387.542188 320.275) scale(0.2 -0.2)">
      <defs>
       <path id="DejaVuSans-78" d="M 3513 3500 
L 2247 1797 
L 3578 0 
L 2900 0 
L 1881 1375 
L 863 0 
L 184 0 
L 1544 1831 
L 300 3500 
L 978 3500 
L 1906 2253 
L 2834 3500 
L 3513 3500 
z
" transform="scale(0.015625)"/>
      </defs>
      <use xlink:href="#DejaVuSans-78"/>
     </g>
    </g>
   </g>
   <g id="matplotlib.axis_2">
    <g id="ytick_1">
     <g id="line2d_6">
      <defs>
       <path id="m46a0910a2d" d="M 0 0 
L -3.5 0 
" style="stroke: #000000; stroke-width: 0.8"/>
      </defs>
      <g>
       <use xlink:href="#m46a0910a2d" x="58.660938" y="250.234508" style="stroke: #000000; stroke-width: 0.8"/>
      </g>
     </g>
     <g id="text_7">
      <!-- −10 -->
      <g transform="translate(30.55625 254.033726) scale(0.1 -0.1)">
       <defs>
        <path id="DejaVuSans-31" d="M 794 531 
L 1825 531 
L 1825 4091 
L 703 3866 
L 703 4441 
L 1819 4666 
L 2450 4666 
L 2450 531 
L 3481 531 
L 3481 0 
L 794 0 
L 794 531 
z
" transform="scale(0.015625)"/>
       </defs>
       <use xlink:href="#DejaVuSans-2212"/>
       <use xlink:href="#DejaVuSans-31" x="83.789062"/>
       <use xlink:href="#DejaVuSans-30" x="147.412109"/>
      </g>
     </g>
    </g>
    <g id="ytick_2">
     <g id="line2d_7">
      <g>
       <use xlink:href="#m46a0910a2d" x="58.660938" y="196.819427" style="stroke: #000000; stroke-width: 0.8"/>
      </g>
     </g>
     <g id="text_8">
      <!-- −5 -->
      <g transform="translate(36.91875 200.618646) scale(0.1 -0.1)">
       <defs>
        <path id="DejaVuSans-35" d="M 691 4666 
L 3169 4666 
L 3169 4134 
L 1269 4134 
L 1269 2991 
Q 1406 3038 1543 3061 
Q 1681 3084 1819 3084 
Q 2600 3084 3056 2656 
Q 3513 2228 3513 1497 
Q 3513 744 3044 326 
Q 2575 -91 1722 -91 
Q 1428 -91 1123 -41 
Q 819 9 494 109 
L 494 744 
Q 775 591 1075 516 
Q 1375 441 1709 441 
Q 2250 441 2565 725 
Q 2881 1009 2881 1497 
Q 2881 1984 2565 2268 
Q 2250 2553 1709 2553 
Q 1456 2553 1204 2497 
Q 953 2441 691 2322 
L 691 4666 
z
" transform="scale(0.015625)"/>
       </defs>
       <use xlink:href="#DejaVuSans-2212"/>
       <use xlink:href="#DejaVuSans-35" x="83.789062"/>
      </g>
     </g>
    </g>
    <g id="ytick_3">
     <g id="line2d_8">
      <g>
       <use xlink:href="#m46a0910a2d" x="58.660938" y="143.404347" style="stroke: #000000; stroke-width: 0.8"/>
      </g>
     </g>
     <g id="text_9">
      <!-- 0 -->
      <g transform="translate(45.298438 147.203566) scale(0.1 -0.1)">
       <use xlink:href="#DejaVuSans-30"/>
      </g>
     </g>
    </g>
    <g id="ytick_4">
     <g id="line2d_9">
      <g>
       <use xlink:href="#m46a0910a2d" x="58.660938" y="89.989267" style="stroke: #000000; stroke-width: 0.8"/>
      </g>
     </g>
     <g id="text_10">
      <!-- 5 -->
      <g transform="translate(45.298438 93.788486) scale(0.1 -0.1)">
       <use xlink:href="#DejaVuSans-35"/>
      </g>
     </g>
    </g>
    <g id="ytick_5">
     <g id="line2d_10">
      <g>
       <use xlink:href="#m46a0910a2d" x="58.660938" y="36.574187" style="stroke: #000000; stroke-width: 0.8"/>
      </g>
     </g>
     <g id="text_11">
      <!-- 10 -->
      <g transform="translate(38.935938 40.373405) scale(0.1 -0.1)">
       <use xlink:href="#DejaVuSans-31"/>
       <use xlink:href="#DejaVuSans-30" x="63.623047"/>
      </g>
     </g>
    </g>
    <g id="text_12">
     <!-- f(x) -->
     <g transform="translate(22.396875 163.042187) rotate(-90) scale(0.2 -0.2)">
      <defs>
       <path id="DejaVuSans-66" d="M 2375 4863 
L 2375 4384 
L 1825 4384 
Q 1516 4384 1395 4259 
Q 1275 4134 1275 3809 
L 1275 3500 
L 2222 3500 
L 2222 3053 
L 1275 3053 
L 1275 0 
L 697 0 
L 697 3053 
L 147 3053 
L 147 3500 
L 697 3500 
L 697 3744 
Q 697 4328 969 4595 
Q 1241 4863 1831 4863 
L 2375 4863 
z
" transform="scale(0.015625)"/>
       <path id="DejaVuSans-28" d="M 1984 4856 
Q 1566 4138 1362 3434 
Q 1159 2731 1159 2009 
Q 1159 1288 1364 580 
Q 1569 -128 1984 -844 
L 1484 -844 
Q 1016 -109 783 600 
Q 550 1309 550 2009 
Q 550 2706 781 3412 
Q 1013 4119 1484 4856 
L 1984 4856 
z
" transform="scale(0.015625)"/>
       <path id="DejaVuSans-29" d="M 513 4856 
L 1013 4856 
Q 1481 4119 1714 3412 
Q 1947 2706 1947 2009 
Q 1947 1309 1714 600 
Q 1481 -109 1013 -844 
L 513 -844 
Q 928 -128 1133 580 
Q 1338 1288 1338 2009 
Q 1338 2731 1133 3434 
Q 928 4138 513 4856 
z
" transform="scale(0.015625)"/>
      </defs>
      <use xlink:href="#DejaVuSans-66"/>
      <use xlink:href="#DejaVuSans-28" x="35.205078"/>
      <use xlink:href="#DejaVuSans-78" x="74.21875"/>
      <use xlink:href="#DejaVuSans-29" x="133.398438"/>
     </g>
    </g>
   </g>
   <g id="line2d_11">
    <path d="M 89.097301 143.404347 
L 101.520307 143.404347 
L 113.943312 143.404347 
L 126.366318 143.404347 
L 138.789323 143.404347 
L 151.212329 143.404347 
L 163.635335 143.404347 
L 176.05834 143.404347 
L 188.481346 143.404347 
L 200.904351 143.404347 
L 213.327357 143.404347 
L 225.750362 143.404347 
L 238.173368 143.404347 
L 250.596373 143.404347 
L 263.019379 143.404347 
L 275.442385 143.404347 
L 287.86539 143.404347 
L 300.288396 143.404347 
L 312.711401 143.404347 
L 325.134407 143.404347 
L 337.557412 143.404347 
L 349.980418 143.404347 
L 362.403424 143.404347 
L 374.826429 143.404347 
L 387.249435 143.404347 
L 399.67244 143.404347 
L 412.095446 143.404347 
L 424.518451 143.404347 
L 436.941457 143.404347 
L 449.364463 143.404347 
L 461.787468 143.404347 
L 474.210474 143.404347 
L 486.633479 143.404347 
L 499.056485 143.404347 
L 511.47949 143.404347 
L 523.902496 143.404347 
L 536.325502 143.404347 
L 548.748507 143.404347 
L 561.171513 143.404347 
L 573.594518 143.404347 
L 586.017524 143.404347 
L 598.440529 143.404347 
L 610.863535 143.404347 
L 623.28654 143.404347 
L 635.709546 143.404347 
L 648.132552 143.404347 
L 660.555557 143.404347 
L 672.978563 143.404347 
L 685.401568 143.404347 
L 697.824574 143.404347 
" clip-path="url(#p2c6dbf702c)" style="fill: none; stroke: #000000; stroke-width: 4; stroke-linecap: square"/>
   </g>
   <g id="line2d_12">
    <path d="M 89.097301 19.8 
L 101.520307 24.942857 
L 113.943312 30.085714 
L 126.366318 35.228571 
L 138.789323 40.371429 
L 151.212329 45.514286 
L 163.635335 50.657143 
L 176.05834 55.8 
L 188.481346 60.942857 
L 200.904351 66.085714 
L 213.327357 71.228571 
L 225.750362 76.371429 
L 238.173368 81.514286 
L 250.596373 86.657143 
L 263.019379 91.8 
L 275.442385 96.942857 
L 287.86539 102.085714 
L 300.288396 107.228571 
L 312.711401 112.371429 
L 325.134407 117.514286 
L 337.557412 122.657143 
L 349.980418 127.8 
L 362.403424 132.942857 
L 374.826429 138.085714 
L 387.249435 143.228571 
L 399.67244 148.371429 
L 412.095446 153.514286 
L 424.518451 158.657143 
L 436.941457 163.8 
L 449.364463 168.942857 
L 461.787468 174.085714 
L 474.210474 179.228571 
L 486.633479 184.371429 
L 499.056485 189.514286 
L 511.47949 194.657143 
L 523.902496 199.8 
L 536.325502 204.942857 
L 548.748507 210.085714 
L 561.171513 215.228571 
L 573.594518 220.371429 
L 586.017524 225.514286 
L 598.440529 230.657143 
L 610.863535 235.8 
L 623.28654 240.942857 
L 635.709546 246.085714 
L 648.132552 251.228571 
L 660.555557 256.371429 
L 672.978563 261.514286 
L 685.401568 266.657143 
L 697.824574 271.8 
" clip-path="url(#p2c6dbf702c)" style="fill: none; stroke: #1f77b4; stroke-width: 1.5; stroke-linecap: square"/>
   </g>
   <g id="line2d_13">
    <path d="M 89.097301 115.153078 
L 101.520307 115.645166 
L 113.943312 116.137254 
L 126.366318 116.629342 
L 138.789323 117.12143 
L 151.212329 117.613518 
L 163.635335 118.105606 
L 176.05834 118.597694 
L 188.481346 119.089782 
L 200.904351 119.58187 
L 213.327357 120.073958 
L 225.750362 120.566046 
L 238.173368 121.058134 
L 250.596373 121.550222 
L 263.019379 122.04231 
L 275.442385 122.534398 
L 287.86539 123.026486 
L 300.288396 123.518574 
L 312.711401 124.010662 
L 325.134407 124.50275 
L 337.557412 124.994838 
L 349.980418 125.486926 
L 362.403424 125.979014 
L 374.826429 126.471102 
L 387.249435 126.96319 
L 399.67244 127.455278 
L 412.095446 127.947366 
L 424.518451 128.439454 
L 436.941457 128.931542 
L 449.364463 129.42363 
L 461.787468 129.915718 
L 474.210474 130.407806 
L 486.633479 130.899894 
L 499.056485 131.391982 
L 511.47949 131.88407 
L 523.902496 132.376158 
L 536.325502 132.868246 
L 548.748507 133.360334 
L 561.171513 133.852422 
L 573.594518 134.34451 
L 586.017524 134.836598 
L 598.440529 135.328686 
L 610.863535 135.820774 
L 623.28654 136.312861 
L 635.709546 136.804949 
L 648.132552 137.297037 
L 660.555557 137.789125 
L 672.978563 138.281213 
L 685.401568 138.773301 
L 697.824574 139.265389 
" clip-path="url(#p2c6dbf702c)" style="fill: none; stroke: #ff7f0e; stroke-width: 1.5; stroke-linecap: square"/>
   </g>
   <g id="line2d_14">
    <path d="M 89.097301 29.4713 
L 101.520307 33.130364 
L 113.943312 36.789427 
L 126.366318 40.448491 
L 138.789323 44.107554 
L 151.212329 47.766618 
L 163.635335 51.425682 
L 176.05834 55.084745 
L 188.481346 58.743809 
L 200.904351 62.402872 
L 213.327357 66.061936 
L 225.750362 69.721 
L 238.173368 73.380063 
L 250.596373 77.039127 
L 263.019379 80.69819 
L 275.442385 84.357254 
L 287.86539 88.016318 
L 300.288396 91.675381 
L 312.711401 95.334445 
L 325.134407 98.993508 
L 337.557412 102.652572 
L 349.980418 106.311635 
L 362.403424 109.970699 
L 374.826429 113.629763 
L 387.249435 117.288826 
L 399.67244 120.94789 
L 412.095446 124.606953 
L 424.518451 128.266017 
L 436.941457 131.925081 
L 449.364463 135.584144 
L 461.787468 139.243208 
L 474.210474 142.902271 
L 486.633479 146.561335 
L 499.056485 150.220399 
L 511.47949 153.879462 
L 523.902496 157.538526 
L 536.325502 161.197589 
L 548.748507 164.856653 
L 561.171513 168.515717 
L 573.594518 172.17478 
L 586.017524 175.833844 
L 598.440529 179.492907 
L 610.863535 183.151971 
L 623.28654 186.811034 
L 635.709546 190.470098 
L 648.132552 194.129162 
L 660.555557 197.788225 
L 672.978563 201.447289 
L 685.401568 205.106352 
L 697.824574 208.765416 
" clip-path="url(#p2c6dbf702c)" style="fill: none; stroke: #2ca02c; stroke-width: 1.5; stroke-linecap: square"/>
   </g>
   <g id="line2d_15">
    <path d="M 89.097301 122.952667 
L 101.520307 122.868811 
L 113.943312 122.784955 
L 126.366318 122.7011 
L 138.789323 122.617244 
L 151.212329 122.533388 
L 163.635335 122.449532 
L 176.05834 122.365677 
L 188.481346 122.281821 
L 200.904351 122.197965 
L 213.327357 122.114109 
L 225.750362 122.030254 
L 238.173368 121.946398 
L 250.596373 121.862542 
L 263.019379 121.778686 
L 275.442385 121.694831 
L 287.86539 121.610975 
L 300.288396 121.527119 
L 312.711401 121.443263 
L 325.134407 121.359408 
L 337.557412 121.275552 
L 349.980418 121.191696 
L 362.403424 121.10784 
L 374.826429 121.023984 
L 387.249435 120.940129 
L 399.67244 120.856273 
L 412.095446 120.772417 
L 424.518451 120.688561 
L 436.941457 120.604706 
L 449.364463 120.52085 
L 461.787468 120.436994 
L 474.210474 120.353138 
L 486.633479 120.269283 
L 499.056485 120.185427 
L 511.47949 120.101571 
L 523.902496 120.017715 
L 536.325502 119.93386 
L 548.748507 119.850004 
L 561.171513 119.766148 
L 573.594518 119.682292 
L 586.017524 119.598437 
L 598.440529 119.514581 
L 610.863535 119.430725 
L 623.28654 119.346869 
L 635.709546 119.263013 
L 648.132552 119.179158 
L 660.555557 119.095302 
L 672.978563 119.011446 
L 685.401568 118.92759 
L 697.824574 118.843735 
" clip-path="url(#p2c6dbf702c)" style="fill: none; stroke: #d62728; stroke-width: 1.5; stroke-linecap: square"/>
   </g>
   <g id="line2d_16">
    <path d="M 89.097301 118.443256 
L 101.520307 119.796994 
L 113.943312 121.150732 
L 126.366318 122.50447 
L 138.789323 123.858208 
L 151.212329 125.211946 
L 163.635335 126.565684 
L 176.05834 127.919422 
L 188.481346 129.27316 
L 200.904351 130.626898 
L 213.327357 131.980636 
L 225.750362 133.334374 
L 238.173368 134.688112 
L 250.596373 136.04185 
L 263.019379 137.395588 
L 275.442385 138.749326 
L 287.86539 140.103064 
L 300.288396 141.456802 
L 312.711401 142.81054 
L 325.134407 144.164278 
L 337.557412 145.518016 
L 349.980418 146.871754 
L 362.403424 148.225491 
L 374.826429 149.579229 
L 387.249435 150.932967 
L 399.67244 152.286705 
L 412.095446 153.640443 
L 424.518451 154.994181 
L 436.941457 156.347919 
L 449.364463 157.701657 
L 461.787468 159.055395 
L 474.210474 160.409133 
L 486.633479 161.762871 
L 499.056485 163.116609 
L 511.47949 164.470347 
L 523.902496 165.824085 
L 536.325502 167.177823 
L 548.748507 168.531561 
L 561.171513 169.885299 
L 573.594518 171.239037 
L 586.017524 172.592775 
L 598.440529 173.946513 
L 610.863535 175.300251 
L 623.28654 176.653989 
L 635.709546 178.007727 
L 648.132552 179.361465 
L 660.555557 180.715203 
L 672.978563 182.068941 
L 685.401568 183.422679 
L 697.824574 184.776417 
" clip-path="url(#p2c6dbf702c)" style="fill: none; stroke: #9467bd; stroke-width: 1.5; stroke-linecap: square"/>
   </g>
   <g id="line2d_17">
    <path d="M 89.097301 130.139652 
L 101.520307 130.641761 
L 113.943312 131.143869 
L 126.366318 131.645977 
L 138.789323 132.148085 
L 151.212329 132.650194 
L 163.635335 133.152302 
L 176.05834 133.65441 
L 188.481346 134.156519 
L 200.904351 134.658627 
L 213.327357 135.160735 
L 225.750362 135.662843 
L 238.173368 136.164952 
L 250.596373 136.66706 
L 263.019379 137.169168 
L 275.442385 137.671276 
L 287.86539 138.173385 
L 300.288396 138.675493 
L 312.711401 139.177601 
L 325.134407 139.67971 
L 337.557412 140.181818 
L 349.980418 140.683926 
L 362.403424 141.186034 
L 374.826429 141.688143 
L 387.249435 142.190251 
L 399.67244 142.692359 
L 412.095446 143.194468 
L 424.518451 143.696576 
L 436.941457 144.198684 
L 449.364463 144.700792 
L 461.787468 145.202901 
L 474.210474 145.705009 
L 486.633479 146.207117 
L 499.056485 146.709225 
L 511.47949 147.211334 
L 523.902496 147.713442 
L 536.325502 148.21555 
L 548.748507 148.717659 
L 561.171513 149.219767 
L 573.594518 149.721875 
L 586.017524 150.223983 
L 598.440529 150.726092 
L 610.863535 151.2282 
L 623.28654 151.730308 
L 635.709546 152.232416 
L 648.132552 152.734525 
L 660.555557 153.236633 
L 672.978563 153.738741 
L 685.401568 154.24085 
L 697.824574 154.742958 
" clip-path="url(#p2c6dbf702c)" style="fill: none; stroke: #8c564b; stroke-width: 1.5; stroke-linecap: square"/>
   </g>
   <g id="line2d_18">
    <path d="M 89.097301 148.915607 
L 101.520307 148.979677 
L 113.943312 149.043748 
L 126.366318 149.107819 
L 138.789323 149.17189 
L 151.212329 149.235961 
L 163.635335 149.300031 
L 176.05834 149.364102 
L 188.481346 149.428173 
L 200.904351 149.492244 
L 213.327357 149.556314 
L 225.750362 149.620385 
L 238.173368 149.684456 
L 250.596373 149.748527 
L 263.019379 149.812598 
L 275.442385 149.876668 
L 287.86539 149.940739 
L 300.288396 150.00481 
L 312.711401 150.068881 
L 325.134407 150.132951 
L 337.557412 150.197022 
L 349.980418 150.261093 
L 362.403424 150.325164 
L 374.826429 150.389235 
L 387.249435 150.453305 
L 399.67244 150.517376 
L 412.095446 150.581447 
L 424.518451 150.645518 
L 436.941457 150.709588 
L 449.364463 150.773659 
L 461.787468 150.83773 
L 474.210474 150.901801 
L 486.633479 150.965872 
L 499.056485 151.029942 
L 511.47949 151.094013 
L 523.902496 151.158084 
L 536.325502 151.222155 
L 548.748507 151.286225 
L 561.171513 151.350296 
L 573.594518 151.414367 
L 586.017524 151.478438 
L 598.440529 151.542509 
L 610.863535 151.606579 
L 623.28654 151.67065 
L 635.709546 151.734721 
L 648.132552 151.798792 
L 660.555557 151.862863 
L 672.978563 151.926933 
L 685.401568 151.991004 
L 697.824574 152.055075 
" clip-path="url(#p2c6dbf702c)" style="fill: none; stroke: #e377c2; stroke-width: 1.5; stroke-linecap: square"/>
   </g>
   <g id="line2d_19">
    <path d="M 89.097301 191.850244 
L 101.520307 190.109866 
L 113.943312 188.369487 
L 126.366318 186.629109 
L 138.789323 184.888731 
L 151.212329 183.148353 
L 163.635335 181.407975 
L 176.05834 179.667596 
L 188.481346 177.927218 
L 200.904351 176.18684 
L 213.327357 174.446462 
L 225.750362 172.706084 
L 238.173368 170.965705 
L 250.596373 169.225327 
L 263.019379 167.484949 
L 275.442385 165.744571 
L 287.86539 164.004192 
L 300.288396 162.263814 
L 312.711401 160.523436 
L 325.134407 158.783058 
L 337.557412 157.04268 
L 349.980418 155.302301 
L 362.403424 153.561923 
L 374.826429 151.821545 
L 387.249435 150.081167 
L 399.67244 148.340789 
L 412.095446 146.60041 
L 424.518451 144.860032 
L 436.941457 143.119654 
L 449.364463 141.379276 
L 461.787468 139.638898 
L 474.210474 137.898519 
L 486.633479 136.158141 
L 499.056485 134.417763 
L 511.47949 132.677385 
L 523.902496 130.937006 
L 536.325502 129.196628 
L 548.748507 127.45625 
L 561.171513 125.715872 
L 573.594518 123.975494 
L 586.017524 122.235115 
L 598.440529 120.494737 
L 610.863535 118.754359 
L 623.28654 117.013981 
L 635.709546 115.273603 
L 648.132552 113.533224 
L 660.555557 111.792846 
L 672.978563 110.052468 
L 685.401568 108.31209 
L 697.824574 106.571711 
" clip-path="url(#p2c6dbf702c)" style="fill: none; stroke: #7f7f7f; stroke-width: 1.5; stroke-linecap: square"/>
   </g>
   <g id="line2d_20">
    <path d="M 89.097301 73.454496 
L 101.520307 76.386266 
L 113.943312 79.318035 
L 126.366318 82.249805 
L 138.789323 85.181575 
L 151.212329 88.113344 
L 163.635335 91.045114 
L 176.05834 93.976883 
L 188.481346 96.908653 
L 200.904351 99.840422 
L 213.327357 102.772192 
L 225.750362 105.703962 
L 238.173368 108.635731 
L 250.596373 111.567501 
L 263.019379 114.49927 
L 275.442385 117.43104 
L 287.86539 120.362809 
L 300.288396 123.294579 
L 312.711401 126.226349 
L 325.134407 129.158118 
L 337.557412 132.089888 
L 349.980418 135.021657 
L 362.403424 137.953427 
L 374.826429 140.885196 
L 387.249435 143.816966 
L 399.67244 146.748736 
L 412.095446 149.680505 
L 424.518451 152.612275 
L 436.941457 155.544044 
L 449.364463 158.475814 
L 461.787468 161.407583 
L 474.210474 164.339353 
L 486.633479 167.271123 
L 499.056485 170.202892 
L 511.47949 173.134662 
L 523.902496 176.066431 
L 536.325502 178.998201 
L 548.748507 181.92997 
L 561.171513 184.86174 
L 573.594518 187.79351 
L 586.017524 190.725279 
L 598.440529 193.657049 
L 610.863535 196.588818 
L 623.28654 199.520588 
L 635.709546 202.452357 
L 648.132552 205.384127 
L 660.555557 208.315897 
L 672.978563 211.247666 
L 685.401568 214.179436 
L 697.824574 217.111205 
" clip-path="url(#p2c6dbf702c)" style="fill: none; stroke: #bcbd22; stroke-width: 1.5; stroke-linecap: square"/>
   </g>
   <g id="line2d_21">
    <path d="M 89.097301 24.904014 
L 101.520307 29.594248 
L 113.943312 34.284483 
L 126.366318 38.974717 
L 138.789323 43.664952 
L 151.212329 48.355186 
L 163.635335 53.045421 
L 176.05834 57.735655 
L 188.481346 62.42589 
L 200.904351 67.116124 
L 213.327357 71.806359 
L 225.750362 76.496593 
L 238.173368 81.186828 
L 250.596373 85.877062 
L 263.019379 90.567296 
L 275.442385 95.257531 
L 287.86539 99.947765 
L 300.288396 104.638 
L 312.711401 109.328234 
L 325.134407 114.018469 
L 337.557412 118.708703 
L 349.980418 123.398938 
L 362.403424 128.089172 
L 374.826429 132.779407 
L 387.249435 137.469641 
L 399.67244 142.159875 
L 412.095446 146.85011 
L 424.518451 151.540344 
L 436.941457 156.230579 
L 449.364463 160.920813 
L 461.787468 165.611048 
L 474.210474 170.301282 
L 486.633479 174.991517 
L 499.056485 179.681751 
L 511.47949 184.371986 
L 523.902496 189.06222 
L 536.325502 193.752455 
L 548.748507 198.442689 
L 561.171513 203.132923 
L 573.594518 207.823158 
L 586.017524 212.513392 
L 598.440529 217.203627 
L 610.863535 221.893861 
L 623.28654 226.584096 
L 635.709546 231.27433 
L 648.132552 235.964565 
L 660.555557 240.654799 
L 672.978563 245.345034 
L 685.401568 250.035268 
L 697.824574 254.725503 
" clip-path="url(#p2c6dbf702c)" style="fill: none; stroke: #17becf; stroke-width: 1.5; stroke-linecap: square"/>
   </g>
   <g id="patch_3">
    <path d="M 58.660938 284.4 
L 58.660938 7.2 
" style="fill: none; stroke: #000000; stroke-width: 0.8; stroke-linejoin: miter; stroke-linecap: square"/>
   </g>
   <g id="patch_4">
    <path d="M 728.260938 284.4 
L 728.260938 7.2 
" style="fill: none; stroke: #000000; stroke-width: 0.8; stroke-linejoin: miter; stroke-linecap: square"/>
   </g>
   <g id="patch_5">
    <path d="M 58.660937 284.4 
L 728.260937 284.4 
" style="fill: none; stroke: #000000; stroke-width: 0.8; stroke-linejoin: miter; stroke-linecap: square"/>
   </g>
   <g id="patch_6">
    <path d="M 58.660937 7.2 
L 728.260937 7.2 
" style="fill: none; stroke: #000000; stroke-width: 0.8; stroke-linejoin: miter; stroke-linecap: square"/>
   </g>
  </g>
 </g>
 <defs>
  <clipPath id="p2c6dbf702c">
   <rect x="58.660938" y="7.2" width="669.6" height="277.2"/>
  </clipPath>
 </defs>
</svg>
