<?xml version="1.0" encoding="utf-8" standalone="no"?>
<!DOCTYPE svg PUBLIC "-//W3C//DTD SVG 1.1//EN"
  "http://www.w3.org/Graphics/SVG/1.1/DTD/svg11.dtd">
<svg xmlns:xlink="http://www.w3.org/1999/xlink" width="705.742188pt" height="308.278125pt" viewBox="0 0 705.742188 308.278125" xmlns="http://www.w3.org/2000/svg" version="1.1">
 <metadata>
  <rdf:RDF xmlns:dc="http://purl.org/dc/elements/1.1/" xmlns:cc="http://creativecommons.org/ns#" xmlns:rdf="http://www.w3.org/1999/02/22-rdf-syntax-ns#">
   <cc:Work>
    <dc:type rdf:resource="http://purl.org/dc/dcmitype/StillImage"/>
    <dc:date>2025-05-11T12:00:00.706397</dc:date>
    <dc:format>image/svg+xml</dc:format>
    <dc:creator>
     <cc:Agent>
      <dc:title>Matplotlib v3.7.2, https://matplotlib.org/</dc:title>
     </cc:Agent>
    </dc:creator>
   </cc:Work>
  </rdf:RDF>
 </metadata>
 <defs>
  <style type="text/css">*{stroke-linejoin: round; stroke-linecap: butt}</style>
 </defs>
 <g id="figure_1">
  <g id="patch_1">
   <path d="M 0 308.278125 
L 705.742188 308.278125 
L 705.742188 0 
L 0 0 
z
" style="fill: #ffffff"/>
  </g>
  <g id="axes_1">
   <g id="patch_2">
    <path d="M 28.942188 284.4 
L 698.542188 284.4 
L 698.542188 7.2 
L 28.942188 7.2 
z
" style="fill: #ffffff"/>
   </g>
   <g id="matplotlib.axis_1">
    <g id="xtick_1">
     <g id="line2d_1">
      <defs>
       <path id="m6c9229165f" d="M 0 0 
L 0 3.5 
" style="stroke: #000000; stroke-width: 0.8"/>
      </defs>
      <g>
       <use xlink:href="#m6c9229165f" x="59.378551" y="284.4" style="stroke: #000000; stroke-width: 0.8"/>
      </g>
     </g>
     <g id="text_1">
      <!-- 0 -->
      <g transform="translate(56.197301 298.998438) scale(0.1 -0.1)">
       <defs>
        <path id="DejaVuSans-30" d="M 2034 4250 
Q 1547 4250 1301 3770 
Q 1056 3291 1056 2328 
Q 1056 1369 1301 889 
Q 1547 409 2034 409 
Q 2525 409 2770 889 
Q 3016 1369 3016 2328 
Q 3016 3291 2770 3770 
Q 2525 4250 2034 4250 
z
M 2034 4750 
Q 2819 4750 3233 4129 
Q 3647 3509 3647 2328 
Q 3647 1150 3233 529 
Q 2819 -91 2034 -91 
Q 1250 -91 836 529 
Q 422 1150 422 2328 
Q 422 3509 836 4129 
Q 1250 4750 2034 4750 
z
" transform="scale(0.015625)"/>
       </defs>
       <use xlink:href="#DejaVuSans-30"/>
      </g>
     </g>
    </g>
    <g id="xtick_2">
     <g id="line2d_2">
      <g>
       <use xlink:href="#m6c9229165f" x="181.124006" y="284.4" style="stroke: #000000; stroke-width: 0.8"/>
      </g>
     </g>
     <g id="text_2">
      <!-- 1 -->
      <g transform="translate(177.942756 298.998438) scale(0.1 -0.1)">
       <defs>
        <path id="DejaVuSans-31" d="M 794 531 
L 1825 531 
L 1825 4091 
L 703 3866 
L 703 4441 
L 1819 4666 
L 2450 4666 
L 2450 531 
L 3481 531 
L 3481 0 
L 794 0 
L 794 531 
z
" transform="scale(0.015625)"/>
       </defs>
       <use xlink:href="#DejaVuSans-31"/>
      </g>
     </g>
    </g>
    <g id="xtick_3">
     <g id="line2d_3">
      <g>
       <use xlink:href="#m6c9229165f" x="302.86946" y="284.4" style="stroke: #000000; stroke-width: 0.8"/>
      </g>
     </g>
     <g id="text_3">
      <!-- 2 -->
      <g transform="translate(299.68821 298.998438) scale(0.1 -0.1)">
       <defs>
        <path id="DejaVuSans-32" d="M 1228 531 
L 3431 531 
L 3431 0 
L 469 0 
L 469 531 
Q 828 903 1448 1529 
Q 2069 2156 2228 2338 
Q 2531 2678 2651 2914 
Q 2772 3150 2772 3378 
Q 2772 3750 2511 3984 
Q 2250 4219 1831 4219 
Q 1534 4219 1204 4116 
Q 875 4013 500 3803 
L 500 4441 
Q 881 4594 1212 4672 
Q 1544 4750 1819 4750 
Q 2544 4750 2975 4387 
Q 3406 4025 3406 3419 
Q 3406 3131 3298 2873 
Q 3191 2616 2906 2266 
Q 2828 2175 2409 1742 
Q 1991 1309 1228 531 
z
" transform="scale(0.015625)"/>
       </defs>
       <use xlink:href="#DejaVuSans-32"/>
      </g>
     </g>
    </g>
    <g id="xtick_4">
     <g id="line2d_4">
      <g>
       <use xlink:href="#m6c9229165f" x="424.614915" y="284.4" style="stroke: #000000; stroke-width: 0.8"/>
      </g>
     </g>
     <g id="text_4">
      <!-- 3 -->
      <g transform="translate(421.433665 298.998438) scale(0.1 -0.1)">
       <defs>
        <path id="DejaVuSans-33" d="M 2597 2516 
Q 3050 2419 3304 2112 
Q 3559 1806 3559 1356 
Q 3559 666 3084 287 
Q 2609 -91 1734 -91 
Q 1441 -91 1130 -33 
Q 819 25 488 141 
L 488 750 
Q 750 597 1062 519 
Q 1375 441 1716 441 
Q 2309 441 2620 675 
Q 2931 909 2931 1356 
Q 2931 1769 2642 2001 
Q 2353 2234 1838 2234 
L 1294 2234 
L 1294 2753 
L 1863 2753 
Q 2328 2753 2575 2939 
Q 2822 3125 2822 3475 
Q 2822 3834 2567 4026 
Q 2313 4219 1838 4219 
Q 1578 4219 1281 4162 
Q 984 4106 628 3988 
L 628 4550 
Q 988 4650 1302 4700 
Q 1616 4750 1894 4750 
Q 2613 4750 3031 4423 
Q 3450 4097 3450 3541 
Q 3450 3153 3228 2886 
Q 3006 2619 2597 2516 
z
" transform="scale(0.015625)"/>
       </defs>
       <use xlink:href="#DejaVuSans-33"/>
      </g>
     </g>
    </g>
    <g id="xtick_5">
     <g id="line2d_5">
      <g>
       <use xlink:href="#m6c9229165f" x="546.360369" y="284.4" style="stroke: #000000; stroke-width: 0.8"/>
      </g>
     </g>
     <g id="text_5">
      <!-- 4 -->
      <g transform="translate(543.179119 298.998438) scale(0.1 -0.1)">
       <defs>
        <path id="DejaVuSans-34" d="M 2419 4116 
L 825 1625 
L 2419 1625 
L 2419 4116 
z
M 2253 4666 
L 3047 4666 
L 3047 1625 
L 3713 1625 
L 3713 1100 
L 3047 1100 
L 3047 0 
L 2419 0 
L 2419 1100 
L 313 1100 
L 313 1709 
L 2253 4666 
z
" transform="scale(0.015625)"/>
       </defs>
       <use xlink:href="#DejaVuSans-34"/>
      </g>
     </g>
    </g>
    <g id="xtick_6">
     <g id="line2d_6">
      <g>
       <use xlink:href="#m6c9229165f" x="668.105824" y="284.4" style="stroke: #000000; stroke-width: 0.8"/>
      </g>
     </g>
     <g id="text_6">
      <!-- 5 -->
      <g transform="translate(664.924574 298.998438) scale(0.1 -0.1)">
       <defs>
        <path id="DejaVuSans-35" d="M 691 4666 
L 3169 4666 
L 3169 4134 
L 1269 4134 
L 1269 2991 
Q 1406 3038 1543 3061 
Q 1681 3084 1819 3084 
Q 2600 3084 3056 2656 
Q 3513 2228 3513 1497 
Q 3513 744 3044 326 
Q 2575 -91 1722 -91 
Q 1428 -91 1123 -41 
Q 819 9 494 109 
L 494 744 
Q 775 591 1075 516 
Q 1375 441 1709 441 
Q 2250 441 2565 725 
Q 2881 1009 2881 1497 
Q 2881 1984 2565 2268 
Q 2250 2553 1709 2553 
Q 1456 2553 1204 2497 
Q 953 2441 691 2322 
L 691 4666 
z
" transform="scale(0.015625)"/>
       </defs>
       <use xlink:href="#DejaVuSans-35"/>
      </g>
     </g>
    </g>
   </g>
   <g id="matplotlib.axis_2">
    <g id="ytick_1">
     <g id="line2d_7">
      <defs>
       <path id="mb79e9ba3ef" d="M 0 0 
L -3.5 0 
" style="stroke: #000000; stroke-width: 0.8"/>
      </defs>
      <g>
       <use xlink:href="#mb79e9ba3ef" x="28.942188" y="269.319276" style="stroke: #000000; stroke-width: 0.8"/>
      </g>
     </g>
     <g id="text_7">
      <!-- −2 -->
      <g transform="translate(7.2 273.118495) scale(0.1 -0.1)">
       <defs>
        <path id="DejaVuSans-2212" d="M 678 2272 
L 4684 2272 
L 4684 1741 
L 678 1741 
L 678 2272 
z
" transform="scale(0.015625)"/>
       </defs>
       <use xlink:href="#DejaVuSans-2212"/>
       <use xlink:href="#DejaVuSans-32" x="83.789062"/>
      </g>
     </g>
    </g>
    <g id="ytick_2">
     <g id="line2d_8">
      <g>
       <use xlink:href="#mb79e9ba3ef" x="28.942188" y="211.634625" style="stroke: #000000; stroke-width: 0.8"/>
      </g>
     </g>
     <g id="text_8">
      <!-- −1 -->
      <g transform="translate(7.2 215.433843) scale(0.1 -0.1)">
       <use xlink:href="#DejaVuSans-2212"/>
       <use xlink:href="#DejaVuSans-31" x="83.789062"/>
      </g>
     </g>
    </g>
    <g id="ytick_3">
     <g id="line2d_9">
      <g>
       <use xlink:href="#mb79e9ba3ef" x="28.942188" y="153.949973" style="stroke: #000000; stroke-width: 0.8"/>
      </g>
     </g>
     <g id="text_9">
      <!-- 0 -->
      <g transform="translate(15.579688 157.749192) scale(0.1 -0.1)">
       <use xlink:href="#DejaVuSans-30"/>
      </g>
     </g>
    </g>
    <g id="ytick_4">
     <g id="line2d_10">
      <g>
       <use xlink:href="#mb79e9ba3ef" x="28.942188" y="96.265322" style="stroke: #000000; stroke-width: 0.8"/>
      </g>
     </g>
     <g id="text_10">
      <!-- 1 -->
      <g transform="translate(15.579688 100.06454) scale(0.1 -0.1)">
       <use xlink:href="#DejaVuSans-31"/>
      </g>
     </g>
    </g>
    <g id="ytick_5">
     <g id="line2d_11">
      <g>
       <use xlink:href="#mb79e9ba3ef" x="28.942188" y="38.58067" style="stroke: #000000; stroke-width: 0.8"/>
      </g>
     </g>
     <g id="text_11">
      <!-- 2 -->
      <g transform="translate(15.579688 42.379889) scale(0.1 -0.1)">
       <use xlink:href="#DejaVuSans-32"/>
      </g>
     </g>
    </g>
   </g>
   <g id="line2d_12">
    <path d="M 59.378551 163.301274 
L 71.801557 167.917637 
L 84.224562 172.581819 
L 96.647568 177.187797 
L 109.070573 181.59139 
L 121.493579 185.602973 
L 133.916585 188.987222 
L 146.33959 191.471851 
L 158.762596 192.765693 
L 171.185601 192.585041 
L 183.608607 190.684945 
L 196.031612 186.891318 
L 208.454618 181.128977 
L 220.877623 173.440849 
L 233.300629 163.995171 
L 245.723635 153.078776 
L 258.14664 141.077181 
L 270.569646 128.443776 
L 282.992651 115.662414 
L 295.415657 103.208236 
L 307.838662 91.511786 
L 320.261668 80.930603 
L 332.684674 71.73094 
L 345.107679 64.08072 
L 357.530685 58.052884 
L 369.95369 53.637037 
L 382.376696 50.756374 
L 394.799701 49.28668 
L 407.222707 49.074601 
L 419.645713 49.953127 
L 432.068718 51.753318 
L 444.491724 54.312155 
L 456.914729 57.477222 
L 469.337735 61.109366 
L 481.76074 65.084287 
L 494.183746 69.294066 
L 506.606752 73.648827 
L 519.029757 78.078526 
L 531.452763 82.534354 
L 543.875768 86.98896 
L 556.298774 91.434924 
L 568.721779 95.881116 
L 581.144785 100.346885 
L 593.56779 104.854705 
L 605.990796 109.422266 
L 618.413802 114.055159 
L 630.836807 118.74159 
L 643.259813 123.450127 
L 655.682818 128.131123 
L 668.105824 132.721837 
" clip-path="url(#p0c26afd808)" style="fill: none; stroke: #1f77b4; stroke-opacity: 0.5; stroke-width: 1.5; stroke-linecap: square"/>
   </g>
   <g id="line2d_13">
    <path d="M 59.378551 96.356448 
L 71.801557 96.12607 
L 84.224562 95.540255 
L 96.647568 94.849967 
L 109.070573 94.339286 
L 121.493579 94.294608 
L 133.916585 94.975774 
L 146.33959 96.592225 
L 158.762596 99.286443 
L 171.185601 103.126072 
L 183.608607 108.104651 
L 196.031612 114.150064 
L 208.454618 121.138368 
L 220.877623 128.910503 
L 233.300629 137.288895 
L 245.723635 146.091428 
L 258.14664 155.141158 
L 270.569646 164.271188 
L 282.992651 173.325218 
L 295.415657 182.155459 
L 307.838662 190.620062 
L 320.261668 198.582278 
L 332.684674 205.913255 
L 345.107679 212.499192 
L 357.530685 218.252529 
L 369.95369 223.12546 
L 382.376696 227.122986 
L 394.799701 230.312302 
L 407.222707 232.825457 
L 419.645713 234.852852 
L 432.068718 236.626945 
L 444.491724 238.397056 
L 456.914729 240.398097 
L 469.337735 242.817654 
L 481.76074 245.766482 
L 494.183746 249.257414 
L 506.606752 253.196842 
L 519.029757 257.390767 
L 531.452763 261.56546 
L 543.875768 265.400102 
L 556.298774 268.56699 
L 568.721779 270.773542 
L 581.144785 271.8 
L 593.56779 271.527589 
L 605.990796 269.953348 
L 618.413802 267.189903 
L 630.836807 263.450989 
L 643.259813 259.0252 
L 655.682818 254.24219 
L 668.105824 249.436161 
" clip-path="url(#p0c26afd808)" style="fill: none; stroke: #ff7f0e; stroke-opacity: 0.5; stroke-width: 1.5; stroke-linecap: square"/>
   </g>
   <g id="line2d_14">
    <path d="M 59.378551 19.8 
L 71.801557 21.678719 
L 84.224562 24.499565 
L 96.647568 28.234435 
L 109.070573 32.833472 
L 121.493579 38.225326 
L 133.916585 44.319944 
L 146.33959 51.014276 
L 158.762596 58.200221 
L 171.185601 65.773727 
L 183.608607 73.643717 
L 196.031612 81.739127 
L 208.454618 90.012801 
L 220.877623 98.441098 
L 233.300629 107.019294 
L 245.723635 115.752875 
L 258.14664 124.646428 
L 270.569646 133.691456 
L 282.992651 142.855352 
L 295.415657 152.073143 
L 307.838662 161.243442 
L 320.261668 170.229173 
L 332.684674 178.862925 
L 345.107679 186.956138 
L 357.530685 194.310708 
L 369.95369 200.731499 
L 382.376696 206.038265 
L 394.799701 210.075929 
L 407.222707 212.72267 
L 419.645713 213.895625 
L 432.068718 213.554723 
L 444.491724 211.70506 
L 456.914729 208.398265 
L 469.337735 203.733062 
L 481.76074 197.854846 
L 494.183746 190.953573 
L 506.606752 183.259353 
L 519.029757 175.034814 
L 531.452763 166.56402 
L 543.875768 158.13797 
L 556.298774 150.037537 
L 568.721779 142.515538 
L 581.144785 135.779858 
L 593.56779 129.979903 
L 605.990796 125.198343 
L 618.413802 121.449531 
L 630.836807 118.684948 
L 643.259813 116.805085 
L 655.682818 115.6761 
L 668.105824 115.148897 
" clip-path="url(#p0c26afd808)" style="fill: none; stroke: #2ca02c; stroke-opacity: 0.5; stroke-width: 1.5; stroke-linecap: square"/>
   </g>
   <g id="line2d_15">
    <path d="M 59.378551 219.843919 
L 71.801557 227.173243 
L 84.224562 234.167309 
L 96.647568 240.539668 
L 109.070573 246.010091 
L 121.493579 250.321724 
L 133.916585 253.257703 
L 146.33959 254.656286 
L 158.762596 254.423458 
L 171.185601 252.542154 
L 183.608607 249.077205 
L 196.031612 244.175372 
L 208.454618 238.060052 
L 220.877623 231.020637 
L 233.300629 223.396984 
L 245.723635 215.55993 
L 258.14664 207.889299 
L 270.569646 200.751055 
L 282.992651 194.475514 
L 295.415657 189.338128 
L 307.838662 185.544252 
L 320.261668 183.218638 
L 332.684674 182.399885 
L 345.107679 183.039748 
L 357.530685 185.00683 
L 369.95369 188.094186 
L 382.376696 192.030542 
L 394.799701 196.494792 
L 407.222707 201.133742 
L 419.645713 205.582825 
L 432.068718 209.489232 
L 444.491724 212.536414 
L 456.914729 214.468225 
L 469.337735 215.110599 
L 481.76074 214.388164 
L 494.183746 212.333681 
L 506.606752 209.088401 
L 519.029757 204.892803 
L 531.452763 200.068083 
L 543.875768 194.990184 
L 556.298774 190.059141 
L 568.721779 185.667034 
L 581.144785 182.16789 
L 593.56779 179.852565 
L 605.990796 178.93044 
L 618.413802 179.518964 
L 630.836807 181.640881 
L 643.259813 185.227913 
L 655.682818 190.129565 
L 668.105824 196.125282 
" clip-path="url(#p0c26afd808)" style="fill: none; stroke: #d62728; stroke-opacity: 0.5; stroke-width: 1.5; stroke-linecap: square"/>
   </g>
   <g id="line2d_16">
    <path d="M 59.378551 117.859348 
L 71.801557 106.050374 
L 84.224562 96.100705 
L 96.647568 88.340443 
L 109.070573 82.995229 
L 121.493579 80.166852 
L 133.916585 79.822188 
L 146.33959 81.791759 
L 158.762596 85.778839 
L 171.185601 91.378915 
L 183.608607 98.108298 
L 196.031612 105.439429 
L 208.454618 112.839635 
L 220.877623 119.80942 
L 233.300629 125.91616 
L 245.723635 130.81996 
L 258.14664 134.288984 
L 270.569646 136.203478 
L 282.992651 136.549186 
L 295.415657 135.402315 
L 307.838662 132.909389 
L 320.261668 129.265614 
L 332.684674 124.69525 
L 345.107679 119.436409 
L 357.530685 113.731432 
L 369.95369 107.822401 
L 382.376696 101.950216 
L 394.799701 96.354584 
L 407.222707 91.272415 
L 419.645713 86.932394 
L 432.068718 83.544706 
L 444.491724 81.286164 
L 456.914729 80.282472 
L 469.337735 80.590304 
L 481.76074 82.182623 
L 494.183746 84.940279 
L 506.606752 88.652565 
L 519.029757 93.027899 
L 531.452763 97.71449 
L 543.875768 102.329336 
L 556.298774 106.492576 
L 568.721779 109.86337 
L 581.144785 112.173237 
L 593.56779 113.252871 
L 605.990796 113.049094 
L 618.413802 111.630056 
L 630.836807 109.177659 
L 643.259813 105.968014 
L 655.682818 102.342045 
L 668.105824 98.669347 
" clip-path="url(#p0c26afd808)" style="fill: none; stroke: #9467bd; stroke-opacity: 0.5; stroke-width: 1.5; stroke-linecap: square"/>
   </g>
   <g id="patch_3">
    <path d="M 28.942188 284.4 
L 28.942188 7.2 
" style="fill: none; stroke: #000000; stroke-width: 0.8; stroke-linejoin: miter; stroke-linecap: square"/>
   </g>
   <g id="patch_4">
    <path d="M 698.542188 284.4 
L 698.542188 7.2 
" style="fill: none; stroke: #000000; stroke-width: 0.8; stroke-linejoin: miter; stroke-linecap: square"/>
   </g>
   <g id="patch_5">
    <path d="M 28.942188 284.4 
L 698.542188 284.4 
" style="fill: none; stroke: #000000; stroke-width: 0.8; stroke-linejoin: miter; stroke-linecap: square"/>
   </g>
   <g id="patch_6">
    <path d="M 28.942188 7.2 
L 698.542188 7.2 
" style="fill: none; stroke: #000000; stroke-width: 0.8; stroke-linejoin: miter; stroke-linecap: square"/>
   </g>
  </g>
 </g>
 <defs>
  <clipPath id="p0c26afd808">
   <rect x="28.942188" y="7.2" width="669.6" height="277.2"/>
  </clipPath>
 </defs>
</svg>
