<?xml version="1.0" encoding="utf-8" standalone="no"?>
<!DOCTYPE svg PUBLIC "-//W3C//DTD SVG 1.1//EN"
  "http://www.w3.org/Graphics/SVG/1.1/DTD/svg11.dtd">
<svg xmlns:xlink="http://www.w3.org/1999/xlink" width="715.282813pt" height="308.278125pt" viewBox="0 0 715.282813 308.278125" xmlns="http://www.w3.org/2000/svg" version="1.1">
 <metadata>
  <rdf:RDF xmlns:dc="http://purl.org/dc/elements/1.1/" xmlns:cc="http://creativecommons.org/ns#" xmlns:rdf="http://www.w3.org/1999/02/22-rdf-syntax-ns#">
   <cc:Work>
    <dc:type rdf:resource="http://purl.org/dc/dcmitype/StillImage"/>
    <dc:date>2025-05-11T11:31:57.003871</dc:date>
    <dc:format>image/svg+xml</dc:format>
    <dc:creator>
     <cc:Agent>
      <dc:title>Matplotlib v3.7.2, https://matplotlib.org/</dc:title>
     </cc:Agent>
    </dc:creator>
   </cc:Work>
  </rdf:RDF>
 </metadata>
 <defs>
  <style type="text/css">*{stroke-linejoin: round; stroke-linecap: butt}</style>
 </defs>
 <g id="figure_1">
  <g id="patch_1">
   <path d="M 0 308.278125 
L 715.282813 308.278125 
L 715.282813 0 
L 0 0 
z
" style="fill: #ffffff"/>
  </g>
  <g id="axes_1">
   <g id="patch_2">
    <path d="M 38.482813 284.4 
L 708.082813 284.4 
L 708.082813 7.2 
L 38.482813 7.2 
z
" style="fill: #ffffff"/>
   </g>
   <g id="matplotlib.axis_1">
    <g id="xtick_1">
     <g id="line2d_1">
      <defs>
       <path id="m87048edda3" d="M 0 0 
L 0 3.5 
" style="stroke: #000000; stroke-width: 0.8"/>
      </defs>
      <g>
       <use xlink:href="#m87048edda3" x="68.919176" y="284.4" style="stroke: #000000; stroke-width: 0.8"/>
      </g>
     </g>
     <g id="text_1">
      <!-- 0 -->
      <g transform="translate(65.737926 298.998438) scale(0.1 -0.1)">
       <defs>
        <path id="DejaVuSans-30" d="M 2034 4250 
Q 1547 4250 1301 3770 
Q 1056 3291 1056 2328 
Q 1056 1369 1301 889 
Q 1547 409 2034 409 
Q 2525 409 2770 889 
Q 3016 1369 3016 2328 
Q 3016 3291 2770 3770 
Q 2525 4250 2034 4250 
z
M 2034 4750 
Q 2819 4750 3233 4129 
Q 3647 3509 3647 2328 
Q 3647 1150 3233 529 
Q 2819 -91 2034 -91 
Q 1250 -91 836 529 
Q 422 1150 422 2328 
Q 422 3509 836 4129 
Q 1250 4750 2034 4750 
z
" transform="scale(0.015625)"/>
       </defs>
       <use xlink:href="#DejaVuSans-30"/>
      </g>
     </g>
    </g>
    <g id="xtick_2">
     <g id="line2d_2">
      <g>
       <use xlink:href="#m87048edda3" x="190.664631" y="284.4" style="stroke: #000000; stroke-width: 0.8"/>
      </g>
     </g>
     <g id="text_2">
      <!-- 1 -->
      <g transform="translate(187.483381 298.998438) scale(0.1 -0.1)">
       <defs>
        <path id="DejaVuSans-31" d="M 794 531 
L 1825 531 
L 1825 4091 
L 703 3866 
L 703 4441 
L 1819 4666 
L 2450 4666 
L 2450 531 
L 3481 531 
L 3481 0 
L 794 0 
L 794 531 
z
" transform="scale(0.015625)"/>
       </defs>
       <use xlink:href="#DejaVuSans-31"/>
      </g>
     </g>
    </g>
    <g id="xtick_3">
     <g id="line2d_3">
      <g>
       <use xlink:href="#m87048edda3" x="312.410085" y="284.4" style="stroke: #000000; stroke-width: 0.8"/>
      </g>
     </g>
     <g id="text_3">
      <!-- 2 -->
      <g transform="translate(309.228835 298.998438) scale(0.1 -0.1)">
       <defs>
        <path id="DejaVuSans-32" d="M 1228 531 
L 3431 531 
L 3431 0 
L 469 0 
L 469 531 
Q 828 903 1448 1529 
Q 2069 2156 2228 2338 
Q 2531 2678 2651 2914 
Q 2772 3150 2772 3378 
Q 2772 3750 2511 3984 
Q 2250 4219 1831 4219 
Q 1534 4219 1204 4116 
Q 875 4013 500 3803 
L 500 4441 
Q 881 4594 1212 4672 
Q 1544 4750 1819 4750 
Q 2544 4750 2975 4387 
Q 3406 4025 3406 3419 
Q 3406 3131 3298 2873 
Q 3191 2616 2906 2266 
Q 2828 2175 2409 1742 
Q 1991 1309 1228 531 
z
" transform="scale(0.015625)"/>
       </defs>
       <use xlink:href="#DejaVuSans-32"/>
      </g>
     </g>
    </g>
    <g id="xtick_4">
     <g id="line2d_4">
      <g>
       <use xlink:href="#m87048edda3" x="434.15554" y="284.4" style="stroke: #000000; stroke-width: 0.8"/>
      </g>
     </g>
     <g id="text_4">
      <!-- 3 -->
      <g transform="translate(430.97429 298.998438) scale(0.1 -0.1)">
       <defs>
        <path id="DejaVuSans-33" d="M 2597 2516 
Q 3050 2419 3304 2112 
Q 3559 1806 3559 1356 
Q 3559 666 3084 287 
Q 2609 -91 1734 -91 
Q 1441 -91 1130 -33 
Q 819 25 488 141 
L 488 750 
Q 750 597 1062 519 
Q 1375 441 1716 441 
Q 2309 441 2620 675 
Q 2931 909 2931 1356 
Q 2931 1769 2642 2001 
Q 2353 2234 1838 2234 
L 1294 2234 
L 1294 2753 
L 1863 2753 
Q 2328 2753 2575 2939 
Q 2822 3125 2822 3475 
Q 2822 3834 2567 4026 
Q 2313 4219 1838 4219 
Q 1578 4219 1281 4162 
Q 984 4106 628 3988 
L 628 4550 
Q 988 4650 1302 4700 
Q 1616 4750 1894 4750 
Q 2613 4750 3031 4423 
Q 3450 4097 3450 3541 
Q 3450 3153 3228 2886 
Q 3006 2619 2597 2516 
z
" transform="scale(0.015625)"/>
       </defs>
       <use xlink:href="#DejaVuSans-33"/>
      </g>
     </g>
    </g>
    <g id="xtick_5">
     <g id="line2d_5">
      <g>
       <use xlink:href="#m87048edda3" x="555.900994" y="284.4" style="stroke: #000000; stroke-width: 0.8"/>
      </g>
     </g>
     <g id="text_5">
      <!-- 4 -->
      <g transform="translate(552.719744 298.998438) scale(0.1 -0.1)">
       <defs>
        <path id="DejaVuSans-34" d="M 2419 4116 
L 825 1625 
L 2419 1625 
L 2419 4116 
z
M 2253 4666 
L 3047 4666 
L 3047 1625 
L 3713 1625 
L 3713 1100 
L 3047 1100 
L 3047 0 
L 2419 0 
L 2419 1100 
L 313 1100 
L 313 1709 
L 2253 4666 
z
" transform="scale(0.015625)"/>
       </defs>
       <use xlink:href="#DejaVuSans-34"/>
      </g>
     </g>
    </g>
    <g id="xtick_6">
     <g id="line2d_6">
      <g>
       <use xlink:href="#m87048edda3" x="677.646449" y="284.4" style="stroke: #000000; stroke-width: 0.8"/>
      </g>
     </g>
     <g id="text_6">
      <!-- 5 -->
      <g transform="translate(674.465199 298.998438) scale(0.1 -0.1)">
       <defs>
        <path id="DejaVuSans-35" d="M 691 4666 
L 3169 4666 
L 3169 4134 
L 1269 4134 
L 1269 2991 
Q 1406 3038 1543 3061 
Q 1681 3084 1819 3084 
Q 2600 3084 3056 2656 
Q 3513 2228 3513 1497 
Q 3513 744 3044 326 
Q 2575 -91 1722 -91 
Q 1428 -91 1123 -41 
Q 819 9 494 109 
L 494 744 
Q 775 591 1075 516 
Q 1375 441 1709 441 
Q 2250 441 2565 725 
Q 2881 1009 2881 1497 
Q 2881 1984 2565 2268 
Q 2250 2553 1709 2553 
Q 1456 2553 1204 2497 
Q 953 2441 691 2322 
L 691 4666 
z
" transform="scale(0.015625)"/>
       </defs>
       <use xlink:href="#DejaVuSans-35"/>
      </g>
     </g>
    </g>
   </g>
   <g id="matplotlib.axis_2">
    <g id="ytick_1">
     <g id="line2d_7">
      <defs>
       <path id="m153c5d60dd" d="M 0 0 
L -3.5 0 
" style="stroke: #000000; stroke-width: 0.8"/>
      </defs>
      <g>
       <use xlink:href="#m153c5d60dd" x="38.482813" y="268.535485" style="stroke: #000000; stroke-width: 0.8"/>
      </g>
     </g>
     <g id="text_7">
      <!-- −1.5 -->
      <g transform="translate(7.2 272.334703) scale(0.1 -0.1)">
       <defs>
        <path id="DejaVuSans-2212" d="M 678 2272 
L 4684 2272 
L 4684 1741 
L 678 1741 
L 678 2272 
z
" transform="scale(0.015625)"/>
        <path id="DejaVuSans-2e" d="M 684 794 
L 1344 794 
L 1344 0 
L 684 0 
L 684 794 
z
" transform="scale(0.015625)"/>
       </defs>
       <use xlink:href="#DejaVuSans-2212"/>
       <use xlink:href="#DejaVuSans-31" x="83.789062"/>
       <use xlink:href="#DejaVuSans-2e" x="147.412109"/>
       <use xlink:href="#DejaVuSans-35" x="179.199219"/>
      </g>
     </g>
    </g>
    <g id="ytick_2">
     <g id="line2d_8">
      <g>
       <use xlink:href="#m153c5d60dd" x="38.482813" y="234.643315" style="stroke: #000000; stroke-width: 0.8"/>
      </g>
     </g>
     <g id="text_8">
      <!-- −1.0 -->
      <g transform="translate(7.2 238.442534) scale(0.1 -0.1)">
       <use xlink:href="#DejaVuSans-2212"/>
       <use xlink:href="#DejaVuSans-31" x="83.789062"/>
       <use xlink:href="#DejaVuSans-2e" x="147.412109"/>
       <use xlink:href="#DejaVuSans-30" x="179.199219"/>
      </g>
     </g>
    </g>
    <g id="ytick_3">
     <g id="line2d_9">
      <g>
       <use xlink:href="#m153c5d60dd" x="38.482813" y="200.751145" style="stroke: #000000; stroke-width: 0.8"/>
      </g>
     </g>
     <g id="text_9">
      <!-- −0.5 -->
      <g transform="translate(7.2 204.550364) scale(0.1 -0.1)">
       <use xlink:href="#DejaVuSans-2212"/>
       <use xlink:href="#DejaVuSans-30" x="83.789062"/>
       <use xlink:href="#DejaVuSans-2e" x="147.412109"/>
       <use xlink:href="#DejaVuSans-35" x="179.199219"/>
      </g>
     </g>
    </g>
    <g id="ytick_4">
     <g id="line2d_10">
      <g>
       <use xlink:href="#m153c5d60dd" x="38.482813" y="166.858976" style="stroke: #000000; stroke-width: 0.8"/>
      </g>
     </g>
     <g id="text_10">
      <!-- 0.0 -->
      <g transform="translate(15.579688 170.658194) scale(0.1 -0.1)">
       <use xlink:href="#DejaVuSans-30"/>
       <use xlink:href="#DejaVuSans-2e" x="63.623047"/>
       <use xlink:href="#DejaVuSans-30" x="95.410156"/>
      </g>
     </g>
    </g>
    <g id="ytick_5">
     <g id="line2d_11">
      <g>
       <use xlink:href="#m153c5d60dd" x="38.482813" y="132.966806" style="stroke: #000000; stroke-width: 0.8"/>
      </g>
     </g>
     <g id="text_11">
      <!-- 0.5 -->
      <g transform="translate(15.579688 136.766025) scale(0.1 -0.1)">
       <use xlink:href="#DejaVuSans-30"/>
       <use xlink:href="#DejaVuSans-2e" x="63.623047"/>
       <use xlink:href="#DejaVuSans-35" x="95.410156"/>
      </g>
     </g>
    </g>
    <g id="ytick_6">
     <g id="line2d_12">
      <g>
       <use xlink:href="#m153c5d60dd" x="38.482813" y="99.074636" style="stroke: #000000; stroke-width: 0.8"/>
      </g>
     </g>
     <g id="text_12">
      <!-- 1.0 -->
      <g transform="translate(15.579688 102.873855) scale(0.1 -0.1)">
       <use xlink:href="#DejaVuSans-31"/>
       <use xlink:href="#DejaVuSans-2e" x="63.623047"/>
       <use xlink:href="#DejaVuSans-30" x="95.410156"/>
      </g>
     </g>
    </g>
    <g id="ytick_7">
     <g id="line2d_13">
      <g>
       <use xlink:href="#m153c5d60dd" x="38.482813" y="65.182467" style="stroke: #000000; stroke-width: 0.8"/>
      </g>
     </g>
     <g id="text_13">
      <!-- 1.5 -->
      <g transform="translate(15.579688 68.981685) scale(0.1 -0.1)">
       <use xlink:href="#DejaVuSans-31"/>
       <use xlink:href="#DejaVuSans-2e" x="63.623047"/>
       <use xlink:href="#DejaVuSans-35" x="95.410156"/>
      </g>
     </g>
    </g>
    <g id="ytick_8">
     <g id="line2d_14">
      <g>
       <use xlink:href="#m153c5d60dd" x="38.482813" y="31.290297" style="stroke: #000000; stroke-width: 0.8"/>
      </g>
     </g>
     <g id="text_14">
      <!-- 2.0 -->
      <g transform="translate(15.579688 35.089516) scale(0.1 -0.1)">
       <use xlink:href="#DejaVuSans-32"/>
       <use xlink:href="#DejaVuSans-2e" x="63.623047"/>
       <use xlink:href="#DejaVuSans-30" x="95.410156"/>
      </g>
     </g>
    </g>
   </g>
   <g id="line2d_15">
    <path d="M 68.919176 162.904039 
L 81.342182 164.105737 
L 93.765187 164.626463 
L 106.188193 164.52661 
L 118.611198 163.890756 
L 131.034204 162.820375 
L 143.45721 161.428949 
L 155.880215 159.839555 
L 168.303221 158.183982 
L 180.726226 156.601706 
L 193.149232 155.237132 
L 205.572237 154.233611 
L 217.995243 153.723483 
L 230.418248 153.814547 
L 242.841254 154.574219 
L 255.26426 156.013626 
L 267.687265 158.074448 
L 280.110271 160.621428 
L 292.533276 163.443058 
L 304.956282 166.262127 
L 317.379287 168.756482 
L 329.802293 170.588815 
L 342.225299 171.442999 
L 354.648304 171.062574 
L 367.07131 169.286833 
L 379.494315 166.078885 
L 391.917321 161.541278 
L 404.340326 155.915614 
L 416.763332 149.564858 
L 429.186338 142.939373 
L 441.609343 136.530239 
L 454.032349 130.815368 
L 466.455354 126.205264 
L 478.87836 122.995566 
L 491.301365 121.332393 
L 503.724371 121.195002 
L 516.147377 122.397529 
L 528.570382 124.609055 
L 540.993388 127.389035 
L 553.416393 130.233205 
L 565.839399 132.624252 
L 578.262404 134.081751 
L 590.68541 134.206255 
L 603.108415 132.71404 
L 615.531421 129.460004 
L 627.954427 124.447965 
L 640.377432 117.828526 
L 652.800438 109.88549 
L 665.223443 101.01263 
L 677.646449 91.682611 
" clip-path="url(#pf194d489c8)" style="fill: none; stroke: #1f77b4; stroke-opacity: 0.5; stroke-width: 1.5; stroke-linecap: square"/>
   </g>
   <g id="line2d_16">
    <path d="M 68.919176 106.979796 
L 81.342182 106.67873 
L 93.765187 106.539138 
L 106.188193 106.539389 
L 118.611198 106.675796 
L 131.034204 106.952633 
L 143.45721 107.370966 
L 155.880215 107.918716 
L 168.303221 108.564289 
L 180.726226 109.255848 
L 193.149232 109.92745 
L 205.572237 110.511979 
L 217.995243 110.959185 
L 230.418248 111.256233 
L 242.841254 111.446556 
L 255.26426 111.643317 
L 267.687265 112.033686 
L 280.110271 112.871823 
L 292.533276 114.459861 
L 304.956282 117.118564 
L 317.379287 121.150874 
L 329.802293 126.803002 
L 342.225299 134.22848 
L 354.648304 143.460057 
L 367.07131 154.393661 
L 379.494315 166.786689 
L 391.917321 180.271163 
L 404.340326 194.380074 
L 416.763332 208.583757 
L 429.186338 222.331747 
L 441.609343 235.095209 
L 454.032349 246.405121 
L 466.455354 255.882407 
L 478.87836 263.257303 
L 491.301365 268.377181 
L 503.724371 271.203508 
L 516.147377 271.8 
L 528.570382 270.31524 
L 540.993388 266.963068 
L 553.416393 262.004047 
L 565.839399 255.730216 
L 578.262404 248.454206 
L 590.68541 240.502399 
L 603.108415 232.210585 
L 615.531421 223.919916 
L 627.954427 215.970835 
L 640.377432 208.693467 
L 652.800438 202.393715 
L 665.223443 197.3361 
L 677.646449 193.725346 
" clip-path="url(#pf194d489c8)" style="fill: none; stroke: #ff7f0e; stroke-opacity: 0.5; stroke-width: 1.5; stroke-linecap: square"/>
   </g>
   <g id="line2d_17">
    <path d="M 68.919176 121.304039 
L 81.342182 124.189835 
L 93.765187 128.303044 
L 106.188193 133.555876 
L 118.611198 139.765731 
L 131.034204 146.657226 
L 143.45721 153.872525 
L 155.880215 160.989353 
L 168.303221 167.54576 
L 180.726226 173.070032 
L 193.149232 177.113836 
L 205.572237 179.285951 
L 217.995243 179.284048 
L 230.418248 176.921293 
L 242.841254 172.144887 
L 255.26426 165.044026 
L 267.687265 155.845438 
L 280.110271 144.896229 
L 292.533276 132.635118 
L 304.956282 119.554839 
L 317.379287 106.160064 
L 329.802293 92.925987 
L 342.225299 80.263061 
L 354.648304 68.492616 
L 367.07131 57.836673 
L 379.494315 48.423179 
L 391.917321 40.305465 
L 404.340326 33.492341 
L 416.763332 27.983414 
L 429.186338 23.80333 
L 441.609343 21.028347 
L 454.032349 19.8 
L 466.455354 20.322509 
L 478.87836 22.843167 
L 491.301365 27.618019 
L 503.724371 34.867569 
L 516.147377 44.729206 
L 528.570382 57.214125 
L 540.993388 72.17589 
L 553.416393 89.296438 
L 565.839399 108.092887 
L 578.262404 127.945303 
L 590.68541 148.142699 
L 603.108415 167.941649 
L 615.531421 186.630229 
L 627.954427 203.589374 
L 640.377432 218.344004 
L 652.800438 230.598044 
L 665.223443 240.249935 
L 677.646449 247.387625 
" clip-path="url(#pf194d489c8)" style="fill: none; stroke: #2ca02c; stroke-opacity: 0.5; stroke-width: 1.5; stroke-linecap: square"/>
   </g>
   <g id="line2d_18">
    <path d="M 68.919176 84.079963 
L 81.342182 91.234493 
L 93.765187 98.646204 
L 106.188193 105.89741 
L 118.611198 112.573504 
L 131.034204 118.286525 
L 143.45721 122.697959 
L 155.880215 125.539288 
L 168.303221 126.628787 
L 180.726226 125.883184 
L 193.149232 123.323278 
L 205.572237 119.072795 
L 217.995243 113.350432 
L 230.418248 106.455614 
L 242.841254 98.748655 
L 255.26426 90.62707 
L 267.687265 82.499468 
L 280.110271 74.759074 
L 292.533276 67.758837 
L 304.956282 61.789864 
L 317.379287 57.064809 
L 329.802293 53.707284 
L 342.225299 51.748144 
L 354.648304 51.128478 
L 367.07131 51.709337 
L 379.494315 53.28707 
L 391.917321 55.613204 
L 404.340326 58.41722 
L 416.763332 61.430437 
L 429.186338 64.408955 
L 441.609343 67.153678 
L 454.032349 69.525482 
L 466.455354 71.453962 
L 478.87836 72.938801 
L 491.301365 74.043444 
L 503.724371 74.881895 
L 516.147377 75.600005 
L 528.570382 76.353839 
L 540.993388 77.287818 
L 553.416393 78.515721 
L 565.839399 80.107035 
L 578.262404 82.08048 
L 590.68541 84.405473 
L 603.108415 87.010842 
L 615.531421 89.799199 
L 627.954427 92.6644 
L 640.377432 95.509046 
L 652.800438 98.259266 
L 665.223443 100.874575 
L 677.646449 103.351384 
" clip-path="url(#pf194d489c8)" style="fill: none; stroke: #d62728; stroke-opacity: 0.5; stroke-width: 1.5; stroke-linecap: square"/>
   </g>
   <g id="line2d_19">
    <path d="M 68.919176 120.04692 
L 81.342182 127.930143 
L 93.765187 134.209384 
L 106.188193 138.589085 
L 118.611198 140.890731 
L 131.034204 141.071182 
L 143.45721 139.232167 
L 155.880215 135.619473 
L 168.303221 130.610907 
L 180.726226 124.693161 
L 193.149232 118.42893 
L 205.572237 112.41631 
L 217.995243 107.243433 
L 230.418248 103.442209 
L 242.841254 101.444766 
L 255.26426 101.546493 
L 267.687265 103.878788 
L 280.110271 108.394008 
L 292.533276 114.863861 
L 304.956282 122.891456 
L 317.379287 131.936261 
L 329.802293 141.349988 
L 342.225299 150.421273 
L 354.648304 158.426014 
L 367.07131 164.680469 
L 379.494315 168.593657 
L 391.917321 169.715755 
L 404.340326 167.778881 
L 416.763332 162.726834 
L 429.186338 154.730351 
L 441.609343 144.185376 
L 454.032349 131.692728 
L 466.455354 118.019307 
L 478.87836 104.043152 
L 491.301365 90.686628 
L 503.724371 78.844111 
L 516.147377 69.311545 
L 528.570382 62.725743 
L 540.993388 59.519799 
L 553.416393 59.899384 
L 565.839399 63.841449 
L 578.262404 71.114086 
L 590.68541 81.313127 
L 603.108415 93.909503 
L 615.531421 108.300302 
L 627.954427 123.857046 
L 640.377432 139.966056 
L 652.800438 156.058186 
L 665.223443 171.627152 
L 677.646449 186.238003 
" clip-path="url(#pf194d489c8)" style="fill: none; stroke: #9467bd; stroke-opacity: 0.5; stroke-width: 1.5; stroke-linecap: square"/>
   </g>
   <g id="patch_3">
    <path d="M 38.482813 284.4 
L 38.482813 7.2 
" style="fill: none; stroke: #000000; stroke-width: 0.8; stroke-linejoin: miter; stroke-linecap: square"/>
   </g>
   <g id="patch_4">
    <path d="M 708.082813 284.4 
L 708.082813 7.2 
" style="fill: none; stroke: #000000; stroke-width: 0.8; stroke-linejoin: miter; stroke-linecap: square"/>
   </g>
   <g id="patch_5">
    <path d="M 38.482813 284.4 
L 708.082813 284.4 
" style="fill: none; stroke: #000000; stroke-width: 0.8; stroke-linejoin: miter; stroke-linecap: square"/>
   </g>
   <g id="patch_6">
    <path d="M 38.482813 7.2 
L 708.082813 7.2 
" style="fill: none; stroke: #000000; stroke-width: 0.8; stroke-linejoin: miter; stroke-linecap: square"/>
   </g>
  </g>
 </g>
 <defs>
  <clipPath id="pf194d489c8">
   <rect x="38.482813" y="7.2" width="669.6" height="277.2"/>
  </clipPath>
 </defs>
</svg>
