<?xml version="1.0" encoding="utf-8" standalone="no"?>
<!DOCTYPE svg PUBLIC "-//W3C//DTD SVG 1.1//EN"
  "http://www.w3.org/Graphics/SVG/1.1/DTD/svg11.dtd">
<svg xmlns:xlink="http://www.w3.org/1999/xlink" width="245.120313pt" height="183.35625pt" viewBox="0 0 245.120313 183.35625" xmlns="http://www.w3.org/2000/svg" version="1.1">
 <metadata>
  <rdf:RDF xmlns:dc="http://purl.org/dc/elements/1.1/" xmlns:cc="http://creativecommons.org/ns#" xmlns:rdf="http://www.w3.org/1999/02/22-rdf-syntax-ns#">
   <cc:Work>
    <dc:type rdf:resource="http://purl.org/dc/dcmitype/StillImage"/>
    <dc:date>2025-07-01T15:51:17.057614</dc:date>
    <dc:format>image/svg+xml</dc:format>
    <dc:creator>
     <cc:Agent>
      <dc:title>Matplotlib v3.7.2, https://matplotlib.org/</dc:title>
     </cc:Agent>
    </dc:creator>
   </cc:Work>
  </rdf:RDF>
 </metadata>
 <defs>
  <style type="text/css">*{stroke-linejoin: round; stroke-linecap: butt}</style>
 </defs>
 <g id="figure_1">
  <g id="patch_1">
   <path d="M 0 183.35625 
L 245.120313 183.35625 
L 245.120313 0 
L 0 0 
z
" style="fill: #ffffff"/>
  </g>
  <g id="axes_1">
   <g id="patch_2">
    <path d="M 42.620312 145.8 
L 237.920313 145.8 
L 237.920313 7.2 
L 42.620312 7.2 
z
" style="fill: #ffffff"/>
   </g>
   <g id="matplotlib.axis_1">
    <g id="xtick_1">
     <g id="line2d_1">
      <defs>
       <path id="md56f2b5140" d="M 0 0 
L 0 3.5 
" style="stroke: #000000; stroke-width: 0.8"/>
      </defs>
      <g>
       <use xlink:href="#md56f2b5140" x="88.39375" y="145.8" style="stroke: #000000; stroke-width: 0.8"/>
      </g>
     </g>
     <g id="text_1">
      <!-- −4 -->
      <g transform="translate(81.022656 160.398438) scale(0.1 -0.1)">
       <defs>
        <path id="DejaVuSans-2212" d="M 678 2272 
L 4684 2272 
L 4684 1741 
L 678 1741 
L 678 2272 
z
" transform="scale(0.015625)"/>
        <path id="DejaVuSans-34" d="M 2419 4116 
L 825 1625 
L 2419 1625 
L 2419 4116 
z
M 2253 4666 
L 3047 4666 
L 3047 1625 
L 3713 1625 
L 3713 1100 
L 3047 1100 
L 3047 0 
L 2419 0 
L 2419 1100 
L 313 1100 
L 313 1709 
L 2253 4666 
z
" transform="scale(0.015625)"/>
       </defs>
       <use xlink:href="#DejaVuSans-2212"/>
       <use xlink:href="#DejaVuSans-34" x="83.789062"/>
      </g>
     </g>
    </g>
    <g id="xtick_2">
     <g id="line2d_2">
      <g>
       <use xlink:href="#md56f2b5140" x="149.425" y="145.8" style="stroke: #000000; stroke-width: 0.8"/>
      </g>
     </g>
     <g id="text_2">
      <!-- −2 -->
      <g transform="translate(142.053907 160.398438) scale(0.1 -0.1)">
       <defs>
        <path id="DejaVuSans-32" d="M 1228 531 
L 3431 531 
L 3431 0 
L 469 0 
L 469 531 
Q 828 903 1448 1529 
Q 2069 2156 2228 2338 
Q 2531 2678 2651 2914 
Q 2772 3150 2772 3378 
Q 2772 3750 2511 3984 
Q 2250 4219 1831 4219 
Q 1534 4219 1204 4116 
Q 875 4013 500 3803 
L 500 4441 
Q 881 4594 1212 4672 
Q 1544 4750 1819 4750 
Q 2544 4750 2975 4387 
Q 3406 4025 3406 3419 
Q 3406 3131 3298 2873 
Q 3191 2616 2906 2266 
Q 2828 2175 2409 1742 
Q 1991 1309 1228 531 
z
" transform="scale(0.015625)"/>
       </defs>
       <use xlink:href="#DejaVuSans-2212"/>
       <use xlink:href="#DejaVuSans-32" x="83.789062"/>
      </g>
     </g>
    </g>
    <g id="xtick_3">
     <g id="line2d_3">
      <g>
       <use xlink:href="#md56f2b5140" x="210.456251" y="145.8" style="stroke: #000000; stroke-width: 0.8"/>
      </g>
     </g>
     <g id="text_3">
      <!-- 0 -->
      <g transform="translate(207.275001 160.398438) scale(0.1 -0.1)">
       <defs>
        <path id="DejaVuSans-30" d="M 2034 4250 
Q 1547 4250 1301 3770 
Q 1056 3291 1056 2328 
Q 1056 1369 1301 889 
Q 1547 409 2034 409 
Q 2525 409 2770 889 
Q 3016 1369 3016 2328 
Q 3016 3291 2770 3770 
Q 2525 4250 2034 4250 
z
M 2034 4750 
Q 2819 4750 3233 4129 
Q 3647 3509 3647 2328 
Q 3647 1150 3233 529 
Q 2819 -91 2034 -91 
Q 1250 -91 836 529 
Q 422 1150 422 2328 
Q 422 3509 836 4129 
Q 1250 4750 2034 4750 
z
" transform="scale(0.015625)"/>
       </defs>
       <use xlink:href="#DejaVuSans-30"/>
      </g>
     </g>
    </g>
    <g id="text_4">
     <!-- x1 -->
     <g transform="translate(134.129687 174.076563) scale(0.1 -0.1)">
      <defs>
       <path id="DejaVuSans-78" d="M 3513 3500 
L 2247 1797 
L 3578 0 
L 2900 0 
L 1881 1375 
L 863 0 
L 184 0 
L 1544 1831 
L 300 3500 
L 978 3500 
L 1906 2253 
L 2834 3500 
L 3513 3500 
z
" transform="scale(0.015625)"/>
       <path id="DejaVuSans-31" d="M 794 531 
L 1825 531 
L 1825 4091 
L 703 3866 
L 703 4441 
L 1819 4666 
L 2450 4666 
L 2450 531 
L 3481 531 
L 3481 0 
L 794 0 
L 794 531 
z
" transform="scale(0.015625)"/>
      </defs>
      <use xlink:href="#DejaVuSans-78"/>
      <use xlink:href="#DejaVuSans-31" x="59.179688"/>
     </g>
    </g>
   </g>
   <g id="matplotlib.axis_2">
    <g id="ytick_1">
     <g id="line2d_4">
      <defs>
       <path id="m910b55ec11" d="M 0 0 
L -3.5 0 
" style="stroke: #000000; stroke-width: 0.8"/>
      </defs>
      <g>
       <use xlink:href="#m910b55ec11" x="42.620312" y="145.8" style="stroke: #000000; stroke-width: 0.8"/>
      </g>
     </g>
     <g id="text_5">
      <!-- −3 -->
      <g transform="translate(20.878125 149.599219) scale(0.1 -0.1)">
       <defs>
        <path id="DejaVuSans-33" d="M 2597 2516 
Q 3050 2419 3304 2112 
Q 3559 1806 3559 1356 
Q 3559 666 3084 287 
Q 2609 -91 1734 -91 
Q 1441 -91 1130 -33 
Q 819 25 488 141 
L 488 750 
Q 750 597 1062 519 
Q 1375 441 1716 441 
Q 2309 441 2620 675 
Q 2931 909 2931 1356 
Q 2931 1769 2642 2001 
Q 2353 2234 1838 2234 
L 1294 2234 
L 1294 2753 
L 1863 2753 
Q 2328 2753 2575 2939 
Q 2822 3125 2822 3475 
Q 2822 3834 2567 4026 
Q 2313 4219 1838 4219 
Q 1578 4219 1281 4162 
Q 984 4106 628 3988 
L 628 4550 
Q 988 4650 1302 4700 
Q 1616 4750 1894 4750 
Q 2613 4750 3031 4423 
Q 3450 4097 3450 3541 
Q 3450 3153 3228 2886 
Q 3006 2619 2597 2516 
z
" transform="scale(0.015625)"/>
       </defs>
       <use xlink:href="#DejaVuSans-2212"/>
       <use xlink:href="#DejaVuSans-33" x="83.789062"/>
      </g>
     </g>
    </g>
    <g id="ytick_2">
     <g id="line2d_5">
      <g>
       <use xlink:href="#m910b55ec11" x="42.620312" y="110.261538" style="stroke: #000000; stroke-width: 0.8"/>
      </g>
     </g>
     <g id="text_6">
      <!-- −2 -->
      <g transform="translate(20.878125 114.060757) scale(0.1 -0.1)">
       <use xlink:href="#DejaVuSans-2212"/>
       <use xlink:href="#DejaVuSans-32" x="83.789062"/>
      </g>
     </g>
    </g>
    <g id="ytick_3">
     <g id="line2d_6">
      <g>
       <use xlink:href="#m910b55ec11" x="42.620312" y="74.723076" style="stroke: #000000; stroke-width: 0.8"/>
      </g>
     </g>
     <g id="text_7">
      <!-- −1 -->
      <g transform="translate(20.878125 78.522295) scale(0.1 -0.1)">
       <use xlink:href="#DejaVuSans-2212"/>
       <use xlink:href="#DejaVuSans-31" x="83.789062"/>
      </g>
     </g>
    </g>
    <g id="ytick_4">
     <g id="line2d_7">
      <g>
       <use xlink:href="#m910b55ec11" x="42.620312" y="39.184615" style="stroke: #000000; stroke-width: 0.8"/>
      </g>
     </g>
     <g id="text_8">
      <!-- 0 -->
      <g transform="translate(29.257812 42.983833) scale(0.1 -0.1)">
       <use xlink:href="#DejaVuSans-30"/>
      </g>
     </g>
    </g>
    <g id="text_9">
     <!-- x2 -->
     <g transform="translate(14.798437 82.640625) rotate(-90) scale(0.1 -0.1)">
      <use xlink:href="#DejaVuSans-78"/>
      <use xlink:href="#DejaVuSans-32" x="59.179688"/>
     </g>
    </g>
   </g>
   <g id="line2d_8">
    <path d="M 57.878125 110.261538 
L 88.473695 82.168078 
L 113.690326 68.472871 
L 130.242475 58.710344 
L 147.333529 54.568253 
L 158.328862 49.588375 
L 170.831401 37.132487 
L 183.75201 40.947866 
L 191.072883 34.832657 
L 199.752187 37.150489 
L 204.02308 41.020035 
L 210.358038 33.918543 
L 208.738642 30.227092 
L 210.94102 39.258303 
L 209.227131 43.766237 
L 206.798536 43.227037 
L 205.896156 40.614804 
L 205.552601 40.641605 
L 209.35427 37.108144 
L 200.978441 34.790362 
L 206.397395 41.088961 
L 203.136177 43.99789 
L 206.47418 40.512266 
L 210.526289 37.203874 
L 208.45665 50.43081 
L 208.177268 44.16932 
L 211.498778 39.501446 
L 210.097075 39.268755 
L 209.985235 38.54265 
L 207.586625 35.751228 
L 209.306755 31.84003 
L 206.2982 34.899514 
L 201.946748 33.529521 
L 203.202594 32.937984 
L 199.822668 38.148696 
L 203.166246 39.072248 
L 202.851125 43.597343 
L 202.826325 45.218123 
L 205.348185 40.726369 
L 207.850119 34.288591 
L 204.468938 36.182858 
L 201.040324 41.508201 
L 209.373054 44.168145 
L 207.119121 44.200924 
L 209.181326 43.816643 
L 207.8412 41.279926 
L 209.817747 38.13029 
L 204.193713 35.910277 
L 203.856356 41.739186 
L 205.112722 38.298745 
L 210.449746 35.595992 
" clip-path="url(#p9f219e6258)" style="fill: none; stroke: #ff7f0e; stroke-width: 1.5; stroke-linecap: square"/>
    <defs>
     <path id="m4b79cc8783" d="M 0 3 
C 0.795609 3 1.55874 2.683901 2.12132 2.12132 
C 2.683901 1.55874 3 0.795609 3 0 
C 3 -0.795609 2.683901 -1.55874 2.12132 -2.12132 
C 1.55874 -2.683901 0.795609 -3 0 -3 
C -0.795609 -3 -1.55874 -2.683901 -2.12132 -2.12132 
C -2.683901 -1.55874 -3 -0.795609 -3 0 
C -3 0.795609 -2.683901 1.55874 -2.12132 2.12132 
C -1.55874 2.683901 -0.795609 3 0 3 
z
" style="stroke: #ff7f0e"/>
    </defs>
    <g clip-path="url(#p9f219e6258)">
     <use xlink:href="#m4b79cc8783" x="57.878125" y="110.261538" style="fill: #ff7f0e; stroke: #ff7f0e"/>
     <use xlink:href="#m4b79cc8783" x="88.473695" y="82.168078" style="fill: #ff7f0e; stroke: #ff7f0e"/>
     <use xlink:href="#m4b79cc8783" x="113.690326" y="68.472871" style="fill: #ff7f0e; stroke: #ff7f0e"/>
     <use xlink:href="#m4b79cc8783" x="130.242475" y="58.710344" style="fill: #ff7f0e; stroke: #ff7f0e"/>
     <use xlink:href="#m4b79cc8783" x="147.333529" y="54.568253" style="fill: #ff7f0e; stroke: #ff7f0e"/>
     <use xlink:href="#m4b79cc8783" x="158.328862" y="49.588375" style="fill: #ff7f0e; stroke: #ff7f0e"/>
     <use xlink:href="#m4b79cc8783" x="170.831401" y="37.132487" style="fill: #ff7f0e; stroke: #ff7f0e"/>
     <use xlink:href="#m4b79cc8783" x="183.75201" y="40.947866" style="fill: #ff7f0e; stroke: #ff7f0e"/>
     <use xlink:href="#m4b79cc8783" x="191.072883" y="34.832657" style="fill: #ff7f0e; stroke: #ff7f0e"/>
     <use xlink:href="#m4b79cc8783" x="199.752187" y="37.150489" style="fill: #ff7f0e; stroke: #ff7f0e"/>
     <use xlink:href="#m4b79cc8783" x="204.02308" y="41.020035" style="fill: #ff7f0e; stroke: #ff7f0e"/>
     <use xlink:href="#m4b79cc8783" x="210.358038" y="33.918543" style="fill: #ff7f0e; stroke: #ff7f0e"/>
     <use xlink:href="#m4b79cc8783" x="208.738642" y="30.227092" style="fill: #ff7f0e; stroke: #ff7f0e"/>
     <use xlink:href="#m4b79cc8783" x="210.94102" y="39.258303" style="fill: #ff7f0e; stroke: #ff7f0e"/>
     <use xlink:href="#m4b79cc8783" x="209.227131" y="43.766237" style="fill: #ff7f0e; stroke: #ff7f0e"/>
     <use xlink:href="#m4b79cc8783" x="206.798536" y="43.227037" style="fill: #ff7f0e; stroke: #ff7f0e"/>
     <use xlink:href="#m4b79cc8783" x="205.896156" y="40.614804" style="fill: #ff7f0e; stroke: #ff7f0e"/>
     <use xlink:href="#m4b79cc8783" x="205.552601" y="40.641605" style="fill: #ff7f0e; stroke: #ff7f0e"/>
     <use xlink:href="#m4b79cc8783" x="209.35427" y="37.108144" style="fill: #ff7f0e; stroke: #ff7f0e"/>
     <use xlink:href="#m4b79cc8783" x="200.978441" y="34.790362" style="fill: #ff7f0e; stroke: #ff7f0e"/>
     <use xlink:href="#m4b79cc8783" x="206.397395" y="41.088961" style="fill: #ff7f0e; stroke: #ff7f0e"/>
     <use xlink:href="#m4b79cc8783" x="203.136177" y="43.99789" style="fill: #ff7f0e; stroke: #ff7f0e"/>
     <use xlink:href="#m4b79cc8783" x="206.47418" y="40.512266" style="fill: #ff7f0e; stroke: #ff7f0e"/>
     <use xlink:href="#m4b79cc8783" x="210.526289" y="37.203874" style="fill: #ff7f0e; stroke: #ff7f0e"/>
     <use xlink:href="#m4b79cc8783" x="208.45665" y="50.43081" style="fill: #ff7f0e; stroke: #ff7f0e"/>
     <use xlink:href="#m4b79cc8783" x="208.177268" y="44.16932" style="fill: #ff7f0e; stroke: #ff7f0e"/>
     <use xlink:href="#m4b79cc8783" x="211.498778" y="39.501446" style="fill: #ff7f0e; stroke: #ff7f0e"/>
     <use xlink:href="#m4b79cc8783" x="210.097075" y="39.268755" style="fill: #ff7f0e; stroke: #ff7f0e"/>
     <use xlink:href="#m4b79cc8783" x="209.985235" y="38.54265" style="fill: #ff7f0e; stroke: #ff7f0e"/>
     <use xlink:href="#m4b79cc8783" x="207.586625" y="35.751228" style="fill: #ff7f0e; stroke: #ff7f0e"/>
     <use xlink:href="#m4b79cc8783" x="209.306755" y="31.84003" style="fill: #ff7f0e; stroke: #ff7f0e"/>
     <use xlink:href="#m4b79cc8783" x="206.2982" y="34.899514" style="fill: #ff7f0e; stroke: #ff7f0e"/>
     <use xlink:href="#m4b79cc8783" x="201.946748" y="33.529521" style="fill: #ff7f0e; stroke: #ff7f0e"/>
     <use xlink:href="#m4b79cc8783" x="203.202594" y="32.937984" style="fill: #ff7f0e; stroke: #ff7f0e"/>
     <use xlink:href="#m4b79cc8783" x="199.822668" y="38.148696" style="fill: #ff7f0e; stroke: #ff7f0e"/>
     <use xlink:href="#m4b79cc8783" x="203.166246" y="39.072248" style="fill: #ff7f0e; stroke: #ff7f0e"/>
     <use xlink:href="#m4b79cc8783" x="202.851125" y="43.597343" style="fill: #ff7f0e; stroke: #ff7f0e"/>
     <use xlink:href="#m4b79cc8783" x="202.826325" y="45.218123" style="fill: #ff7f0e; stroke: #ff7f0e"/>
     <use xlink:href="#m4b79cc8783" x="205.348185" y="40.726369" style="fill: #ff7f0e; stroke: #ff7f0e"/>
     <use xlink:href="#m4b79cc8783" x="207.850119" y="34.288591" style="fill: #ff7f0e; stroke: #ff7f0e"/>
     <use xlink:href="#m4b79cc8783" x="204.468938" y="36.182858" style="fill: #ff7f0e; stroke: #ff7f0e"/>
     <use xlink:href="#m4b79cc8783" x="201.040324" y="41.508201" style="fill: #ff7f0e; stroke: #ff7f0e"/>
     <use xlink:href="#m4b79cc8783" x="209.373054" y="44.168145" style="fill: #ff7f0e; stroke: #ff7f0e"/>
     <use xlink:href="#m4b79cc8783" x="207.119121" y="44.200924" style="fill: #ff7f0e; stroke: #ff7f0e"/>
     <use xlink:href="#m4b79cc8783" x="209.181326" y="43.816643" style="fill: #ff7f0e; stroke: #ff7f0e"/>
     <use xlink:href="#m4b79cc8783" x="207.8412" y="41.279926" style="fill: #ff7f0e; stroke: #ff7f0e"/>
     <use xlink:href="#m4b79cc8783" x="209.817747" y="38.13029" style="fill: #ff7f0e; stroke: #ff7f0e"/>
     <use xlink:href="#m4b79cc8783" x="204.193713" y="35.910277" style="fill: #ff7f0e; stroke: #ff7f0e"/>
     <use xlink:href="#m4b79cc8783" x="203.856356" y="41.739186" style="fill: #ff7f0e; stroke: #ff7f0e"/>
     <use xlink:href="#m4b79cc8783" x="205.112722" y="38.298745" style="fill: #ff7f0e; stroke: #ff7f0e"/>
     <use xlink:href="#m4b79cc8783" x="210.449746" y="35.595992" style="fill: #ff7f0e; stroke: #ff7f0e"/>
    </g>
   </g>
   <g id="PathCollection_1"/>
   <g id="PathCollection_2">
    <path d="M 133.389338 7.2 
L 131.354961 10.753845 
L 131.115628 11.22768 
L 129.618631 14.307692 
L 128.121641 17.861537 
L 128.064069 18.023063 
L 126.898922 21.415384 
L 125.900228 24.96923 
L 125.123465 28.523076 
L 125.012502 29.233828 
L 124.58421 32.076922 
L 124.262994 35.630769 
L 124.155921 39.184616 
L 124.262994 42.738462 
L 124.58421 46.292308 
L 125.012502 49.135401 
L 125.123465 49.846154 
L 125.900228 53.400001 
L 126.898922 56.953846 
L 128.064069 60.346166 
L 128.121641 60.507693 
L 129.618631 64.061538 
L 131.115628 67.141548 
L 131.354961 67.615382 
L 133.389338 71.169229 
L 134.167188 72.38502 
L 135.724107 74.723076 
L 137.218755 76.753852 
L 138.387435 78.276924 
L 140.270314 80.517389 
L 141.423126 81.830766 
L 143.321874 83.820924 
L 144.883135 85.384613 
L 146.373441 86.766672 
L 148.829573 88.93846 
L 149.425 89.428646 
L 152.476564 91.818304 
L 153.383783 92.492307 
L 155.528127 93.98263 
L 158.57969 95.988833 
L 158.672164 96.046154 
L 161.631253 97.76923 
L 164.682813 99.438459 
L 164.998499 99.600001 
L 167.734376 100.92 
L 170.785939 102.290771 
L 172.861005 103.153848 
L 173.837499 103.538045 
L 176.889062 104.64262 
L 179.940626 105.651142 
L 182.992189 106.563617 
L 183.530712 106.707695 
L 186.04375 107.345562 
L 189.095313 108.028995 
L 192.146877 108.621302 
L 195.198438 109.122485 
L 198.250001 109.532545 
L 201.301564 109.851478 
L 204.353126 110.07929 
L 207.404689 110.215975 
L 210.456251 110.261538 
L 210.456251 110.261538 
L 210.456251 110.261538 
L 213.507813 110.215975 
L 216.559376 110.07929 
L 219.610939 109.851478 
L 222.662501 109.532545 
L 225.714063 109.122485 
L 228.765626 108.621302 
L 231.817188 108.028995 
L 234.868751 107.345562 
L 237.38179 106.707695 
L 237.920313 106.563617 
" clip-path="url(#p9f219e6258)" style="fill: none; stroke: #1f77b4; stroke-width: 1.5"/>
   </g>
   <g id="PathCollection_3">
    <path d="M 94.741 7.2 
L 94.496869 7.827163 
L 93.387217 10.753845 
L 92.198295 14.307692 
L 91.44531 16.904747 
L 91.174923 17.861537 
L 90.325119 21.415384 
L 89.629825 24.96923 
L 89.089044 28.523076 
L 88.702769 32.076922 
L 88.471007 35.630769 
L 88.393757 39.184277 
L 88.39375 39.184616 
L 88.393757 39.184954 
L 88.471007 42.738462 
L 88.702769 46.292308 
L 89.089044 49.846154 
L 89.629825 53.400001 
L 90.325119 56.953846 
L 91.174923 60.507693 
L 91.44531 61.464482 
L 92.198295 64.061538 
L 93.387217 67.615382 
L 94.496869 70.542066 
L 94.741 71.169229 
L 96.287127 74.723076 
L 97.548436 77.346149 
L 98.008263 78.276924 
L 99.931161 81.830766 
L 100.599996 82.967996 
L 102.061308 85.384613 
L 103.651563 87.819658 
L 104.403397 88.93846 
L 106.703122 92.12466 
L 106.976403 92.492307 
L 109.754682 95.988822 
L 109.801639 96.046154 
L 112.806249 99.492307 
L 112.903126 99.600001 
L 115.857816 102.696925 
L 116.308047 103.153848 
L 118.909375 105.651142 
L 120.04725 106.707695 
L 121.960942 108.393495 
L 124.155924 110.261538 
L 125.012502 110.954971 
L 128.064069 113.338652 
L 128.697415 113.81539 
L 131.115628 115.550988 
L 133.748347 117.369232 
L 134.167188 117.645641 
L 137.218755 119.580512 
L 139.426266 120.923075 
L 140.270314 121.414565 
L 143.321874 123.115875 
L 145.876677 124.476926 
L 146.373441 124.730771 
L 149.425 126.217583 
L 152.476564 127.631866 
L 153.383788 128.030769 
L 155.528127 128.936653 
L 158.57969 130.156112 
L 161.631253 131.305886 
L 162.418734 131.584612 
L 164.682813 132.355733 
L 167.734376 133.328012 
L 170.785939 134.233237 
L 173.837499 135.071408 
L 174.102859 135.138463 
L 176.889062 135.816922 
L 179.940626 136.495383 
L 182.992189 137.109229 
L 186.04375 137.65846 
L 189.095313 138.143075 
L 192.146877 138.563078 
L 193.256511 138.692306 
L 195.198438 138.910526 
L 198.250001 139.191094 
L 201.301564 139.409311 
L 204.353126 139.565181 
L 207.404689 139.658704 
L 210.456251 139.689878 
L 213.507813 139.658704 
L 216.559376 139.565181 
L 219.610939 139.409311 
L 222.662501 139.191094 
L 225.714063 138.910526 
L 227.655991 138.692306 
L 228.765626 138.563078 
L 231.817188 138.143075 
L 234.868751 137.65846 
L 237.920313 137.109229 
" clip-path="url(#p9f219e6258)" style="fill: none; stroke: #1f77b4; stroke-width: 1.5"/>
   </g>
   <g id="PathCollection_4">
    <path d="M 66.101283 7.2 
L 65.009145 10.753845 
L 64.045489 14.307692 
L 63.981244 14.581071 
L 63.226219 17.861537 
L 62.534115 21.415384 
L 61.967845 24.96923 
L 61.527415 28.523076 
L 61.21282 32.076922 
L 61.024065 35.630769 
L 60.961145 39.184616 
L 61.024065 42.738462 
L 61.21282 46.292308 
L 61.527415 49.846154 
L 61.967845 53.400001 
L 62.534115 56.953846 
L 63.226219 60.507693 
L 63.981244 63.788159 
L 64.045489 64.061538 
L 65.009145 67.615382 
L 66.101283 71.169229 
L 67.032818 73.88139 
L 67.328125 74.723076 
L 68.706252 78.276924 
L 70.084378 81.521744 
L 70.218509 81.830766 
L 71.895191 85.384613 
L 73.135938 87.819658 
L 73.718821 88.93846 
L 75.70748 92.492307 
L 76.187512 93.294806 
L 77.871125 96.046154 
L 79.239071 98.146162 
L 80.208385 99.600001 
L 82.290631 102.544624 
L 82.731817 103.153848 
L 85.342191 106.563617 
L 85.455214 106.707695 
L 88.39375 110.261538 
L 88.393757 110.261547 
L 91.44531 113.68536 
L 91.564212 113.81539 
L 94.496869 116.873336 
L 94.98513 117.369232 
L 97.548436 119.85692 
L 98.677098 120.923075 
L 100.599996 122.662189 
L 102.66303 124.476926 
L 103.651563 125.31099 
L 106.703122 127.813182 
L 106.976403 128.030769 
L 109.754682 130.156105 
L 111.679511 131.584612 
L 112.806249 132.389261 
L 115.857816 134.501452 
L 116.808306 135.138463 
L 118.909375 136.495381 
L 121.960942 138.401542 
L 122.442758 138.692306 
L 125.012502 140.188665 
L 128.064069 141.903241 
L 128.697416 142.246157 
L 131.115628 143.511083 
L 134.167188 145.047066 
L 135.724104 145.8 
" clip-path="url(#p9f219e6258)" style="fill: none; stroke: #1f77b4; stroke-width: 1.5"/>
   </g>
   <g id="PathCollection_5">
    <path d="M 42.620312 72.385026 
L 43.320213 74.723076 
L 44.496043 78.276924 
L 45.671872 81.521729 
L 45.785952 81.830766 
L 47.211915 85.384613 
L 48.723432 88.872634 
L 48.7525 88.93846 
L 50.438126 92.492307 
L 51.775006 95.129054 
L 52.249024 96.046154 
L 54.204398 99.600001 
L 54.826565 100.666162 
L 56.307021 103.153848 
L 57.878125 105.651143 
L 58.556253 106.707695 
L 60.929685 110.215966 
L 60.961151 110.261538 
L 63.540821 113.81539 
L 63.981244 114.393913 
L 66.294014 117.369232 
L 67.032818 118.277443 
L 69.231252 120.923075 
L 70.084378 121.906056 
L 72.364666 124.476926 
L 73.135938 125.31099 
L 75.70748 128.030769 
L 76.187512 128.518562 
L 79.239071 131.549789 
L 79.274952 131.584612 
L 82.290631 134.400881 
L 83.09947 135.138463 
L 85.342191 137.109235 
L 87.188189 138.692306 
L 88.393757 139.689886 
L 91.44531 142.152627 
L 91.564212 142.246157 
L 94.496869 144.474831 
L 96.287127 145.8 
" clip-path="url(#p9f219e6258)" style="fill: none; stroke: #1f77b4; stroke-width: 1.5"/>
   </g>
   <g id="PathCollection_6">
    <path d="M 42.620312 117.645641 
L 44.943982 120.923075 
L 45.671872 121.90605 
L 47.611182 124.476926 
L 48.723432 125.891204 
L 50.438126 128.030769 
L 51.775006 129.633492 
L 53.434101 131.584612 
L 54.826565 133.160378 
L 56.609163 135.138463 
L 57.878125 136.495381 
L 59.974143 138.692306 
L 60.929685 139.658706 
L 63.540815 142.246157 
L 63.981244 142.667798 
L 67.032818 145.528954 
L 67.32812 145.8 
" clip-path="url(#p9f219e6258)" style="fill: none; stroke: #1f77b4; stroke-width: 1.5"/>
   </g>
   <g id="PathCollection_7">
    <path d="M 42.620312 145.047067 
L 43.320214 145.8 
" clip-path="url(#p9f219e6258)" style="fill: none; stroke: #1f77b4; stroke-width: 1.5"/>
   </g>
   <g id="PathCollection_8"/>
   <g id="patch_3">
    <path d="M 42.620312 145.8 
L 42.620312 7.2 
" style="fill: none; stroke: #000000; stroke-width: 0.8; stroke-linejoin: miter; stroke-linecap: square"/>
   </g>
   <g id="patch_4">
    <path d="M 237.920313 145.8 
L 237.920313 7.2 
" style="fill: none; stroke: #000000; stroke-width: 0.8; stroke-linejoin: miter; stroke-linecap: square"/>
   </g>
   <g id="patch_5">
    <path d="M 42.620312 145.8 
L 237.920313 145.8 
" style="fill: none; stroke: #000000; stroke-width: 0.8; stroke-linejoin: miter; stroke-linecap: square"/>
   </g>
   <g id="patch_6">
    <path d="M 42.620312 7.2 
L 237.920313 7.2 
" style="fill: none; stroke: #000000; stroke-width: 0.8; stroke-linejoin: miter; stroke-linecap: square"/>
   </g>
  </g>
 </g>
 <defs>
  <clipPath id="p9f219e6258">
   <rect x="42.620312" y="7.2" width="195.3" height="138.6"/>
  </clipPath>
 </defs>
</svg>
