<?xml version="1.0" encoding="utf-8" standalone="no"?>
<!DOCTYPE svg PUBLIC "-//W3C//DTD SVG 1.1//EN"
  "http://www.w3.org/Graphics/SVG/1.1/DTD/svg11.dtd">
<svg xmlns:xlink="http://www.w3.org/1999/xlink" width="231.442188pt" height="169.678125pt" viewBox="0 0 231.442188 169.678125" xmlns="http://www.w3.org/2000/svg" version="1.1">
 <metadata>
  <rdf:RDF xmlns:dc="http://purl.org/dc/elements/1.1/" xmlns:cc="http://creativecommons.org/ns#" xmlns:rdf="http://www.w3.org/1999/02/22-rdf-syntax-ns#">
   <cc:Work>
    <dc:type rdf:resource="http://purl.org/dc/dcmitype/StillImage"/>
    <dc:date>2025-07-08T14:29:50.472265</dc:date>
    <dc:format>image/svg+xml</dc:format>
    <dc:creator>
     <cc:Agent>
      <dc:title>Matplotlib v3.7.2, https://matplotlib.org/</dc:title>
     </cc:Agent>
    </dc:creator>
   </cc:Work>
  </rdf:RDF>
 </metadata>
 <defs>
  <style type="text/css">*{stroke-linejoin: round; stroke-linecap: butt}</style>
 </defs>
 <g id="figure_1">
  <g id="patch_1">
   <path d="M 0 169.678125 
L 231.442188 169.678125 
L 231.442188 0 
L 0 0 
z
" style="fill: #ffffff"/>
  </g>
  <g id="axes_1">
   <g id="patch_2">
    <path d="M 28.942188 145.8 
L 224.242188 145.8 
L 224.242188 7.2 
L 28.942188 7.2 
z
" style="fill: #ffffff"/>
   </g>
   <g id="PolyCollection_1">
    <path d="M 37.81946 20.459356 
L 37.81946 130.430665 
L 38.175263 130.430665 
L 38.531065 130.430665 
L 38.886868 130.430665 
L 39.24267 130.430665 
L 39.598473 130.430665 
L 39.954275 130.430665 
L 40.310078 130.430665 
L 40.66588 130.430665 
L 41.021683 130.430665 
L 41.377485 130.430665 
L 41.733288 130.430665 
L 42.08909 130.430665 
L 42.444893 130.430665 
L 42.800695 130.430665 
L 43.156498 130.430665 
L 43.5123 130.430665 
L 43.868103 130.430665 
L 44.223905 130.430665 
L 44.579708 130.430665 
L 44.935511 130.430665 
L 45.291313 130.430665 
L 45.647116 130.430665 
L 46.002918 130.430665 
L 46.358721 130.430665 
L 46.714523 130.430665 
L 47.070326 130.430665 
L 47.426128 130.430665 
L 47.781931 130.430665 
L 48.137733 130.430665 
L 48.493536 130.430665 
L 48.849338 130.430665 
L 49.205141 130.430665 
L 49.560943 130.430665 
L 49.916746 130.430665 
L 50.272548 130.430665 
L 50.628351 130.430665 
L 50.984153 130.430665 
L 51.339956 130.430665 
L 51.695758 130.430665 
L 52.051561 130.430665 
L 52.407363 130.430665 
L 52.763166 130.430665 
L 53.118968 130.430665 
L 53.474771 130.430665 
L 53.830573 130.430665 
L 54.186376 130.430665 
L 54.542178 130.430665 
L 54.897981 130.430665 
L 55.253783 130.430665 
L 55.609586 130.430665 
L 55.965388 130.430665 
L 56.321191 130.430665 
L 56.676993 130.430665 
L 57.032796 130.430665 
L 57.388599 130.430665 
L 57.744401 130.430665 
L 58.100204 130.430665 
L 58.456006 130.430665 
L 58.811809 130.430665 
L 59.167611 130.430665 
L 59.523414 130.430665 
L 59.879216 130.430665 
L 60.235019 130.430665 
L 60.590821 130.430665 
L 60.946624 130.430665 
L 61.302426 130.430665 
L 61.658229 130.430665 
L 62.014031 130.430665 
L 62.369834 130.430665 
L 62.725636 130.430665 
L 63.081439 130.430665 
L 63.437241 130.430665 
L 63.793044 130.430665 
L 64.148846 130.430665 
L 64.504649 130.430665 
L 64.860451 130.430665 
L 65.216254 130.430665 
L 65.572056 130.430665 
L 65.927859 130.430665 
L 66.283661 130.430665 
L 66.639464 130.430665 
L 66.995266 130.430665 
L 67.351069 130.430665 
L 67.706871 130.430665 
L 68.062674 130.430665 
L 68.418476 130.430665 
L 68.774279 130.430665 
L 69.130081 130.430665 
L 69.485884 130.430665 
L 69.841686 130.430665 
L 70.197489 130.430665 
L 70.553292 130.430665 
L 70.909094 130.430665 
L 71.264897 130.430665 
L 71.620699 130.430665 
L 71.976502 130.430665 
L 72.332304 130.430665 
L 72.688107 130.430665 
L 73.043909 130.430665 
L 73.399712 130.430665 
L 73.755514 130.430665 
L 74.111317 130.430665 
L 74.467119 130.430665 
L 74.822922 130.430665 
L 75.178724 130.430665 
L 75.534527 130.430665 
L 75.890329 130.430665 
L 76.246132 130.430665 
L 76.601934 130.430665 
L 76.957737 130.430665 
L 77.313539 130.430665 
L 77.669342 130.430665 
L 78.025144 130.430665 
L 78.380947 130.430665 
L 78.736749 130.430665 
L 79.092552 130.430665 
L 79.448354 130.430665 
L 79.804157 130.430665 
L 80.159959 130.430665 
L 80.515762 130.430665 
L 80.871564 130.430665 
L 81.227367 130.430665 
L 81.583169 130.430665 
L 81.938972 130.430665 
L 82.294774 130.430665 
L 82.650577 130.430665 
L 83.00638 130.430665 
L 83.362182 130.430665 
L 83.717985 130.430665 
L 84.073787 130.430665 
L 84.42959 130.430665 
L 84.785392 130.430665 
L 85.141195 130.430665 
L 85.496997 130.430665 
L 85.8528 130.430665 
L 86.208602 130.430665 
L 86.564405 130.430665 
L 86.920207 130.430665 
L 87.27601 130.430665 
L 87.631812 130.430665 
L 87.987615 130.430665 
L 88.343417 130.430665 
L 88.69922 130.430665 
L 89.055022 130.430665 
L 89.410825 130.430665 
L 89.766627 130.430665 
L 90.12243 130.430665 
L 90.478232 130.430665 
L 90.834035 130.430665 
L 91.189837 130.430665 
L 91.54564 130.430665 
L 91.901442 130.430665 
L 92.257245 130.430665 
L 92.613047 130.430665 
L 92.96885 130.430665 
L 93.324652 130.430665 
L 93.680455 130.430665 
L 94.036257 130.430665 
L 94.39206 130.430665 
L 94.747862 130.430665 
L 95.103665 130.430665 
L 95.459468 130.430665 
L 95.81527 130.430665 
L 96.171073 130.430665 
L 96.526875 130.430665 
L 96.882678 130.430665 
L 97.23848 130.430665 
L 97.594283 130.430665 
L 97.950085 130.430665 
L 98.305888 130.430665 
L 98.66169 130.430665 
L 99.017493 130.430665 
L 99.373295 130.430665 
L 99.729098 130.430665 
L 100.0849 130.430665 
L 100.440703 130.430665 
L 100.796505 130.430665 
L 101.152308 130.430665 
L 101.50811 130.430665 
L 101.863913 130.430665 
L 102.219715 130.430665 
L 102.575518 130.430665 
L 102.93132 130.430665 
L 103.287123 130.430665 
L 103.642925 130.430665 
L 103.998728 130.430665 
L 104.35453 130.430665 
L 104.710333 130.430665 
L 105.066135 130.430665 
L 105.421938 130.430665 
L 105.77774 130.430665 
L 106.133543 130.430665 
L 106.489345 130.430665 
L 106.845148 130.430665 
L 107.20095 130.430665 
L 107.556753 130.430665 
L 107.912556 130.430665 
L 108.268358 130.430665 
L 108.624161 130.430665 
L 108.979963 130.430665 
L 109.335766 130.430665 
L 109.691568 130.430665 
L 110.047371 130.430665 
L 110.403173 130.430665 
L 110.758976 130.430665 
L 111.114778 130.430665 
L 111.470581 130.430665 
L 111.826383 130.430665 
L 112.182186 130.430665 
L 112.537988 130.430665 
L 112.893791 130.430665 
L 113.249593 130.430665 
L 113.605396 130.430665 
L 113.961198 130.430665 
L 114.317001 130.430665 
L 114.672803 130.430665 
L 115.028606 130.430665 
L 115.384408 130.430665 
L 115.740211 130.430665 
L 116.096013 130.430665 
L 116.451816 130.430665 
L 116.807618 130.430665 
L 117.163421 130.430665 
L 117.519223 130.430665 
L 117.875026 130.430665 
L 118.230828 130.430665 
L 118.586631 130.430665 
L 118.942433 130.430665 
L 119.298236 130.430665 
L 119.654038 130.430665 
L 120.009841 130.430665 
L 120.365644 130.430665 
L 120.721446 130.430665 
L 121.077249 130.430665 
L 121.433051 130.430665 
L 121.788854 130.430665 
L 122.144656 130.430665 
L 122.500459 130.430665 
L 122.856261 130.430665 
L 123.212064 130.430665 
L 123.567866 130.430665 
L 123.923669 130.430665 
L 124.279471 130.430665 
L 124.635274 130.430665 
L 124.991076 130.430665 
L 125.346879 130.430665 
L 125.702681 130.430665 
L 126.058484 130.430665 
L 126.414286 130.430665 
L 126.770089 130.430665 
L 127.125891 130.430665 
L 127.481694 130.430665 
L 127.837496 130.430665 
L 128.193299 130.430665 
L 128.549101 130.430665 
L 128.904904 130.430665 
L 129.260706 130.430665 
L 129.616509 130.430665 
L 129.972311 130.430665 
L 130.328114 130.430665 
L 130.683916 130.430665 
L 131.039719 130.430665 
L 131.395521 130.430665 
L 131.751324 130.430665 
L 132.107126 130.430665 
L 132.462929 130.430665 
L 132.818731 130.430665 
L 133.174534 130.430665 
L 133.530337 130.430665 
L 133.886139 130.430665 
L 134.241942 130.430665 
L 134.597744 130.430665 
L 134.953547 130.430665 
L 135.309349 130.430665 
L 135.665152 130.430665 
L 136.020954 130.430665 
L 136.376757 130.430665 
L 136.732559 130.430665 
L 137.088362 130.430665 
L 137.444164 130.430665 
L 137.799967 130.430665 
L 138.155769 130.430665 
L 138.511572 130.430665 
L 138.867374 130.430665 
L 139.223177 130.430665 
L 139.578979 130.430665 
L 139.934782 130.430665 
L 140.290584 130.430665 
L 140.646387 130.430665 
L 141.002189 130.430665 
L 141.357992 130.430665 
L 141.713794 130.430665 
L 142.069597 130.430665 
L 142.425399 130.430665 
L 142.781202 130.430665 
L 143.137004 130.430665 
L 143.492807 130.430665 
L 143.848609 130.430665 
L 144.204412 130.430665 
L 144.560214 130.430665 
L 144.916017 130.430665 
L 145.271819 130.430665 
L 145.627622 130.430665 
L 145.983425 130.430665 
L 146.339227 130.430665 
L 146.69503 130.430665 
L 147.050832 130.430665 
L 147.406635 130.430665 
L 147.762437 130.430665 
L 148.11824 130.430665 
L 148.474042 130.430665 
L 148.829845 130.430665 
L 149.185647 130.430665 
L 149.54145 130.430665 
L 149.897252 130.430665 
L 150.253055 130.430665 
L 150.608857 130.430665 
L 150.96466 130.430665 
L 151.320462 130.430665 
L 151.676265 130.430665 
L 152.032067 130.430665 
L 152.38787 130.430665 
L 152.743672 130.430665 
L 153.099475 130.430665 
L 153.455277 130.430665 
L 153.81108 130.430665 
L 154.166882 130.430665 
L 154.522685 130.430665 
L 154.878487 130.430665 
L 155.23429 130.430665 
L 155.590092 130.430665 
L 155.945895 130.430665 
L 156.301697 130.430665 
L 156.6575 130.430665 
L 157.013302 130.430665 
L 157.369105 130.430665 
L 157.724907 130.430665 
L 158.08071 130.430665 
L 158.436513 130.430665 
L 158.792315 130.430665 
L 159.148118 130.430665 
L 159.50392 130.430665 
L 159.859723 130.430665 
L 160.215525 130.430665 
L 160.571328 130.430665 
L 160.92713 130.430665 
L 161.282933 130.430665 
L 161.638735 130.430665 
L 161.994538 130.430665 
L 162.35034 130.430665 
L 162.706143 130.430665 
L 163.061945 130.430665 
L 163.417748 130.430665 
L 163.77355 130.430665 
L 164.129353 130.430665 
L 164.485155 130.430665 
L 164.840958 130.430665 
L 165.19676 130.430665 
L 165.552563 130.430665 
L 165.908365 130.430665 
L 166.264168 130.430665 
L 166.61997 130.430665 
L 166.975773 130.430665 
L 167.331575 130.430665 
L 167.687378 130.430665 
L 168.04318 130.430665 
L 168.398983 130.430665 
L 168.754785 130.430665 
L 169.110588 130.430665 
L 169.46639 130.430665 
L 169.822193 130.430665 
L 170.177995 130.430665 
L 170.533798 130.430665 
L 170.889601 130.430665 
L 171.245403 130.430665 
L 171.601206 130.430665 
L 171.957008 130.430665 
L 172.312811 130.430665 
L 172.668613 130.430665 
L 173.024416 130.430665 
L 173.380218 130.430665 
L 173.736021 130.430665 
L 174.091823 130.430665 
L 174.447626 130.430665 
L 174.803428 130.430665 
L 175.159231 130.430665 
L 175.515033 130.430665 
L 175.870836 130.430665 
L 176.226638 130.430665 
L 176.582441 130.430665 
L 176.938243 130.430665 
L 177.294046 130.430665 
L 177.649848 130.430665 
L 178.005651 130.430665 
L 178.361453 130.430665 
L 178.717256 130.430665 
L 179.073058 130.430665 
L 179.428861 130.430665 
L 179.784663 130.430665 
L 180.140466 130.430665 
L 180.496268 130.430665 
L 180.852071 130.430665 
L 181.207873 130.430665 
L 181.563676 130.430665 
L 181.919478 130.430665 
L 182.275281 130.430665 
L 182.631083 130.430665 
L 182.986886 130.430665 
L 183.342689 130.430665 
L 183.698491 130.430665 
L 184.054294 130.430665 
L 184.410096 130.430665 
L 184.765899 130.430665 
L 185.121701 130.430665 
L 185.477504 130.430665 
L 185.833306 130.430665 
L 186.189109 130.430665 
L 186.544911 130.430665 
L 186.900714 130.430665 
L 187.256516 130.430665 
L 187.612319 130.430665 
L 187.968121 130.430665 
L 188.323924 130.430665 
L 188.679726 130.430665 
L 189.035529 130.430665 
L 189.391331 130.430665 
L 189.747134 130.430665 
L 190.102936 130.430665 
L 190.458739 130.430665 
L 190.814541 130.430665 
L 191.170344 130.430665 
L 191.526146 130.430665 
L 191.881949 130.430665 
L 192.237751 130.430665 
L 192.593554 130.430665 
L 192.949356 130.430665 
L 193.305159 130.430665 
L 193.660961 130.430665 
L 194.016764 130.430665 
L 194.372566 130.430665 
L 194.728369 130.430665 
L 195.084171 130.430665 
L 195.439974 130.430665 
L 195.795776 130.430665 
L 196.151579 130.430665 
L 196.507382 130.430665 
L 196.863184 130.430665 
L 197.218987 130.430665 
L 197.574789 130.430665 
L 197.930592 130.430665 
L 198.286394 130.430665 
L 198.642197 130.430665 
L 198.997999 130.430665 
L 199.353802 130.430665 
L 199.709604 130.430665 
L 200.065407 130.430665 
L 200.421209 130.430665 
L 200.777012 130.430665 
L 201.132814 130.430665 
L 201.488617 130.430665 
L 201.844419 130.430665 
L 202.200222 130.430665 
L 202.556024 130.430665 
L 202.911827 130.430665 
L 203.267629 130.430665 
L 203.623432 130.430665 
L 203.979234 130.430665 
L 204.335037 130.430665 
L 204.690839 130.430665 
L 205.046642 130.430665 
L 205.402444 130.430665 
L 205.758247 130.430665 
L 206.114049 130.430665 
L 206.469852 130.430665 
L 206.825654 130.430665 
L 207.181457 130.430665 
L 207.537259 130.430665 
L 207.893062 130.430665 
L 208.248864 130.430665 
L 208.604667 130.430665 
L 208.96047 130.430665 
L 209.316272 130.430665 
L 209.672075 130.430665 
L 210.027877 130.430665 
L 210.38368 130.430665 
L 210.739482 130.430665 
L 211.095285 130.430665 
L 211.451087 130.430665 
L 211.80689 130.430665 
L 212.162692 130.430665 
L 212.518495 130.430665 
L 212.874297 130.430665 
L 213.2301 130.430665 
L 213.585902 130.430665 
L 213.941705 130.430665 
L 214.297507 130.430665 
L 214.65331 130.430665 
L 215.009112 130.430665 
L 215.364915 130.430665 
L 215.364915 20.459356 
L 215.364915 20.459356 
L 215.009112 20.459356 
L 214.65331 20.459356 
L 214.297507 20.459356 
L 213.941705 20.459356 
L 213.585902 20.459356 
L 213.2301 20.459356 
L 212.874297 20.459356 
L 212.518495 20.459356 
L 212.162692 20.459356 
L 211.80689 20.459356 
L 211.451087 20.459356 
L 211.095285 20.459356 
L 210.739482 20.459356 
L 210.38368 20.459356 
L 210.027877 20.459356 
L 209.672075 20.459356 
L 209.316272 20.459356 
L 208.96047 20.459356 
L 208.604667 20.459356 
L 208.248864 20.459356 
L 207.893062 20.459356 
L 207.537259 20.459356 
L 207.181457 20.459356 
L 206.825654 20.459356 
L 206.469852 20.459356 
L 206.114049 20.459356 
L 205.758247 20.459356 
L 205.402444 20.459356 
L 205.046642 20.459356 
L 204.690839 20.459356 
L 204.335037 20.459356 
L 203.979234 20.459356 
L 203.623432 20.459356 
L 203.267629 20.459356 
L 202.911827 20.459356 
L 202.556024 20.459356 
L 202.200222 20.459356 
L 201.844419 20.459356 
L 201.488617 20.459356 
L 201.132814 20.459356 
L 200.777012 20.459356 
L 200.421209 20.459356 
L 200.065407 20.459356 
L 199.709604 20.459356 
L 199.353802 20.459356 
L 198.997999 20.459356 
L 198.642197 20.459356 
L 198.286394 20.459356 
L 197.930592 20.459356 
L 197.574789 20.459356 
L 197.218987 20.459356 
L 196.863184 20.459356 
L 196.507382 20.459356 
L 196.151579 20.459356 
L 195.795776 20.459356 
L 195.439974 20.459356 
L 195.084171 20.459356 
L 194.728369 20.459356 
L 194.372566 20.459356 
L 194.016764 20.459356 
L 193.660961 20.459356 
L 193.305159 20.459356 
L 192.949356 20.459356 
L 192.593554 20.459356 
L 192.237751 20.459356 
L 191.881949 20.459356 
L 191.526146 20.459356 
L 191.170344 20.459356 
L 190.814541 20.459356 
L 190.458739 20.459356 
L 190.102936 20.459356 
L 189.747134 20.459356 
L 189.391331 20.459356 
L 189.035529 20.459356 
L 188.679726 20.459356 
L 188.323924 20.459356 
L 187.968121 20.459356 
L 187.612319 20.459356 
L 187.256516 20.459356 
L 186.900714 20.459356 
L 186.544911 20.459356 
L 186.189109 20.459356 
L 185.833306 20.459356 
L 185.477504 20.459356 
L 185.121701 20.459356 
L 184.765899 20.459356 
L 184.410096 20.459356 
L 184.054294 20.459356 
L 183.698491 20.459356 
L 183.342689 20.459356 
L 182.986886 20.459356 
L 182.631083 20.459356 
L 182.275281 20.459356 
L 181.919478 20.459356 
L 181.563676 20.459356 
L 181.207873 20.459356 
L 180.852071 20.459356 
L 180.496268 20.459356 
L 180.140466 20.459356 
L 179.784663 20.459356 
L 179.428861 20.459356 
L 179.073058 20.459356 
L 178.717256 20.459356 
L 178.361453 20.459356 
L 178.005651 20.459356 
L 177.649848 20.459356 
L 177.294046 20.459356 
L 176.938243 20.459356 
L 176.582441 20.459356 
L 176.226638 20.459356 
L 175.870836 20.459356 
L 175.515033 20.459356 
L 175.159231 20.459356 
L 174.803428 20.459356 
L 174.447626 20.459356 
L 174.091823 20.459356 
L 173.736021 20.459356 
L 173.380218 20.459356 
L 173.024416 20.459356 
L 172.668613 20.459356 
L 172.312811 20.459356 
L 171.957008 20.459356 
L 171.601206 20.459356 
L 171.245403 20.459356 
L 170.889601 20.459356 
L 170.533798 20.459356 
L 170.177995 20.459356 
L 169.822193 20.459356 
L 169.46639 20.459356 
L 169.110588 20.459356 
L 168.754785 20.459356 
L 168.398983 20.459356 
L 168.04318 20.459356 
L 167.687378 20.459356 
L 167.331575 20.459356 
L 166.975773 20.459356 
L 166.61997 20.459356 
L 166.264168 20.459356 
L 165.908365 20.459356 
L 165.552563 20.459356 
L 165.19676 20.459356 
L 164.840958 20.459356 
L 164.485155 20.459356 
L 164.129353 20.459356 
L 163.77355 20.459356 
L 163.417748 20.459356 
L 163.061945 20.459356 
L 162.706143 20.459356 
L 162.35034 20.459356 
L 161.994538 20.459356 
L 161.638735 20.459356 
L 161.282933 20.459356 
L 160.92713 20.459356 
L 160.571328 20.459356 
L 160.215525 20.459356 
L 159.859723 20.459356 
L 159.50392 20.459356 
L 159.148118 20.459356 
L 158.792315 20.459356 
L 158.436513 20.459356 
L 158.08071 20.459356 
L 157.724907 20.459356 
L 157.369105 20.459356 
L 157.013302 20.459356 
L 156.6575 20.459356 
L 156.301697 20.459356 
L 155.945895 20.459356 
L 155.590092 20.459356 
L 155.23429 20.459356 
L 154.878487 20.459356 
L 154.522685 20.459356 
L 154.166882 20.459356 
L 153.81108 20.459356 
L 153.455277 20.459356 
L 153.099475 20.459356 
L 152.743672 20.459356 
L 152.38787 20.459356 
L 152.032067 20.459356 
L 151.676265 20.459356 
L 151.320462 20.459356 
L 150.96466 20.459356 
L 150.608857 20.459356 
L 150.253055 20.459356 
L 149.897252 20.459356 
L 149.54145 20.459356 
L 149.185647 20.459356 
L 148.829845 20.459356 
L 148.474042 20.459356 
L 148.11824 20.459356 
L 147.762437 20.459356 
L 147.406635 20.459356 
L 147.050832 20.459356 
L 146.69503 20.459356 
L 146.339227 20.459356 
L 145.983425 20.459356 
L 145.627622 20.459356 
L 145.271819 20.459356 
L 144.916017 20.459356 
L 144.560214 20.459356 
L 144.204412 20.459356 
L 143.848609 20.459356 
L 143.492807 20.459356 
L 143.137004 20.459356 
L 142.781202 20.459356 
L 142.425399 20.459356 
L 142.069597 20.459356 
L 141.713794 20.459356 
L 141.357992 20.459356 
L 141.002189 20.459356 
L 140.646387 20.459356 
L 140.290584 20.459356 
L 139.934782 20.459356 
L 139.578979 20.459356 
L 139.223177 20.459356 
L 138.867374 20.459356 
L 138.511572 20.459356 
L 138.155769 20.459356 
L 137.799967 20.459356 
L 137.444164 20.459356 
L 137.088362 20.459356 
L 136.732559 20.459356 
L 136.376757 20.459356 
L 136.020954 20.459356 
L 135.665152 20.459356 
L 135.309349 20.459356 
L 134.953547 20.459356 
L 134.597744 20.459356 
L 134.241942 20.459356 
L 133.886139 20.459356 
L 133.530337 20.459356 
L 133.174534 20.459356 
L 132.818731 20.459356 
L 132.462929 20.459356 
L 132.107126 20.459356 
L 131.751324 20.459356 
L 131.395521 20.459356 
L 131.039719 20.459356 
L 130.683916 20.459356 
L 130.328114 20.459356 
L 129.972311 20.459356 
L 129.616509 20.459356 
L 129.260706 20.459356 
L 128.904904 20.459356 
L 128.549101 20.459356 
L 128.193299 20.459356 
L 127.837496 20.459356 
L 127.481694 20.459356 
L 127.125891 20.459356 
L 126.770089 20.459356 
L 126.414286 20.459356 
L 126.058484 20.459356 
L 125.702681 20.459356 
L 125.346879 20.459356 
L 124.991076 20.459356 
L 124.635274 20.459356 
L 124.279471 20.459356 
L 123.923669 20.459356 
L 123.567866 20.459356 
L 123.212064 20.459356 
L 122.856261 20.459356 
L 122.500459 20.459356 
L 122.144656 20.459356 
L 121.788854 20.459356 
L 121.433051 20.459356 
L 121.077249 20.459356 
L 120.721446 20.459356 
L 120.365644 20.459356 
L 120.009841 20.459356 
L 119.654038 20.459356 
L 119.298236 20.459356 
L 118.942433 20.459356 
L 118.586631 20.459356 
L 118.230828 20.459356 
L 117.875026 20.459356 
L 117.519223 20.459356 
L 117.163421 20.459356 
L 116.807618 20.459356 
L 116.451816 20.459356 
L 116.096013 20.459356 
L 115.740211 20.459356 
L 115.384408 20.459356 
L 115.028606 20.459356 
L 114.672803 20.459356 
L 114.317001 20.459356 
L 113.961198 20.459356 
L 113.605396 20.459356 
L 113.249593 20.459356 
L 112.893791 20.459356 
L 112.537988 20.459356 
L 112.182186 20.459356 
L 111.826383 20.459356 
L 111.470581 20.459356 
L 111.114778 20.459356 
L 110.758976 20.459356 
L 110.403173 20.459356 
L 110.047371 20.459356 
L 109.691568 20.459356 
L 109.335766 20.459356 
L 108.979963 20.459356 
L 108.624161 20.459356 
L 108.268358 20.459356 
L 107.912556 20.459356 
L 107.556753 20.459356 
L 107.20095 20.459356 
L 106.845148 20.459356 
L 106.489345 20.459356 
L 106.133543 20.459356 
L 105.77774 20.459356 
L 105.421938 20.459356 
L 105.066135 20.459356 
L 104.710333 20.459356 
L 104.35453 20.459356 
L 103.998728 20.459356 
L 103.642925 20.459356 
L 103.287123 20.459356 
L 102.93132 20.459356 
L 102.575518 20.459356 
L 102.219715 20.459356 
L 101.863913 20.459356 
L 101.50811 20.459356 
L 101.152308 20.459356 
L 100.796505 20.459356 
L 100.440703 20.459356 
L 100.0849 20.459356 
L 99.729098 20.459356 
L 99.373295 20.459356 
L 99.017493 20.459356 
L 98.66169 20.459356 
L 98.305888 20.459356 
L 97.950085 20.459356 
L 97.594283 20.459356 
L 97.23848 20.459356 
L 96.882678 20.459356 
L 96.526875 20.459356 
L 96.171073 20.459356 
L 95.81527 20.459356 
L 95.459468 20.459356 
L 95.103665 20.459356 
L 94.747862 20.459356 
L 94.39206 20.459356 
L 94.036257 20.459356 
L 93.680455 20.459356 
L 93.324652 20.459356 
L 92.96885 20.459356 
L 92.613047 20.459356 
L 92.257245 20.459356 
L 91.901442 20.459356 
L 91.54564 20.459356 
L 91.189837 20.459356 
L 90.834035 20.459356 
L 90.478232 20.459356 
L 90.12243 20.459356 
L 89.766627 20.459356 
L 89.410825 20.459356 
L 89.055022 20.459356 
L 88.69922 20.459356 
L 88.343417 20.459356 
L 87.987615 20.459356 
L 87.631812 20.459356 
L 87.27601 20.459356 
L 86.920207 20.459356 
L 86.564405 20.459356 
L 86.208602 20.459356 
L 85.8528 20.459356 
L 85.496997 20.459356 
L 85.141195 20.459356 
L 84.785392 20.459356 
L 84.42959 20.459356 
L 84.073787 20.459356 
L 83.717985 20.459356 
L 83.362182 20.459356 
L 83.00638 20.459356 
L 82.650577 20.459356 
L 82.294774 20.459356 
L 81.938972 20.459356 
L 81.583169 20.459356 
L 81.227367 20.459356 
L 80.871564 20.459356 
L 80.515762 20.459356 
L 80.159959 20.459356 
L 79.804157 20.459356 
L 79.448354 20.459356 
L 79.092552 20.459356 
L 78.736749 20.459356 
L 78.380947 20.459356 
L 78.025144 20.459356 
L 77.669342 20.459356 
L 77.313539 20.459356 
L 76.957737 20.459356 
L 76.601934 20.459356 
L 76.246132 20.459356 
L 75.890329 20.459356 
L 75.534527 20.459356 
L 75.178724 20.459356 
L 74.822922 20.459356 
L 74.467119 20.459356 
L 74.111317 20.459356 
L 73.755514 20.459356 
L 73.399712 20.459356 
L 73.043909 20.459356 
L 72.688107 20.459356 
L 72.332304 20.459356 
L 71.976502 20.459356 
L 71.620699 20.459356 
L 71.264897 20.459356 
L 70.909094 20.459356 
L 70.553292 20.459356 
L 70.197489 20.459356 
L 69.841686 20.459356 
L 69.485884 20.459356 
L 69.130081 20.459356 
L 68.774279 20.459356 
L 68.418476 20.459356 
L 68.062674 20.459356 
L 67.706871 20.459356 
L 67.351069 20.459356 
L 66.995266 20.459356 
L 66.639464 20.459356 
L 66.283661 20.459356 
L 65.927859 20.459356 
L 65.572056 20.459356 
L 65.216254 20.459356 
L 64.860451 20.459356 
L 64.504649 20.459356 
L 64.148846 20.459356 
L 63.793044 20.459356 
L 63.437241 20.459356 
L 63.081439 20.459356 
L 62.725636 20.459356 
L 62.369834 20.459356 
L 62.014031 20.459356 
L 61.658229 20.459356 
L 61.302426 20.459356 
L 60.946624 20.459356 
L 60.590821 20.459356 
L 60.235019 20.459356 
L 59.879216 20.459356 
L 59.523414 20.459356 
L 59.167611 20.459356 
L 58.811809 20.459356 
L 58.456006 20.459356 
L 58.100204 20.459356 
L 57.744401 20.459356 
L 57.388599 20.459356 
L 57.032796 20.459356 
L 56.676993 20.459356 
L 56.321191 20.459356 
L 55.965388 20.459356 
L 55.609586 20.459356 
L 55.253783 20.459356 
L 54.897981 20.459356 
L 54.542178 20.459356 
L 54.186376 20.459356 
L 53.830573 20.459356 
L 53.474771 20.459356 
L 53.118968 20.459356 
L 52.763166 20.459356 
L 52.407363 20.459356 
L 52.051561 20.459356 
L 51.695758 20.459356 
L 51.339956 20.459356 
L 50.984153 20.459356 
L 50.628351 20.459356 
L 50.272548 20.459356 
L 49.916746 20.459356 
L 49.560943 20.459356 
L 49.205141 20.459356 
L 48.849338 20.459356 
L 48.493536 20.459356 
L 48.137733 20.459356 
L 47.781931 20.459356 
L 47.426128 20.459356 
L 47.070326 20.459356 
L 46.714523 20.459356 
L 46.358721 20.459356 
L 46.002918 20.459356 
L 45.647116 20.459356 
L 45.291313 20.459356 
L 44.935511 20.459356 
L 44.579708 20.459356 
L 44.223905 20.459356 
L 43.868103 20.459356 
L 43.5123 20.459356 
L 43.156498 20.459356 
L 42.800695 20.459356 
L 42.444893 20.459356 
L 42.08909 20.459356 
L 41.733288 20.459356 
L 41.377485 20.459356 
L 41.021683 20.459356 
L 40.66588 20.459356 
L 40.310078 20.459356 
L 39.954275 20.459356 
L 39.598473 20.459356 
L 39.24267 20.459356 
L 38.886868 20.459356 
L 38.531065 20.459356 
L 38.175263 20.459356 
L 37.81946 20.459356 
z
" clip-path="url(#p656746d071)" style="fill: #1f77b4; fill-opacity: 0.25"/>
   </g>
   <g id="matplotlib.axis_1">
    <g id="xtick_1">
     <g id="line2d_1">
      <defs>
       <path id="m4b355e6154" d="M 0 0 
L 0 3.5 
" style="stroke: #000000; stroke-width: 0.8"/>
      </defs>
      <g>
       <use xlink:href="#m4b355e6154" x="37.81946" y="145.8" style="stroke: #000000; stroke-width: 0.8"/>
      </g>
     </g>
     <g id="text_1">
      <!-- 0 -->
      <g transform="translate(34.63821 160.398438) scale(0.1 -0.1)">
       <defs>
        <path id="DejaVuSans-30" d="M 2034 4250 
Q 1547 4250 1301 3770 
Q 1056 3291 1056 2328 
Q 1056 1369 1301 889 
Q 1547 409 2034 409 
Q 2525 409 2770 889 
Q 3016 1369 3016 2328 
Q 3016 3291 2770 3770 
Q 2525 4250 2034 4250 
z
M 2034 4750 
Q 2819 4750 3233 4129 
Q 3647 3509 3647 2328 
Q 3647 1150 3233 529 
Q 2819 -91 2034 -91 
Q 1250 -91 836 529 
Q 422 1150 422 2328 
Q 422 3509 836 4129 
Q 1250 4750 2034 4750 
z
" transform="scale(0.015625)"/>
       </defs>
       <use xlink:href="#DejaVuSans-30"/>
      </g>
     </g>
    </g>
    <g id="xtick_2">
     <g id="line2d_2">
      <g>
       <use xlink:href="#m4b355e6154" x="73.328551" y="145.8" style="stroke: #000000; stroke-width: 0.8"/>
      </g>
     </g>
     <g id="text_2">
      <!-- 1 -->
      <g transform="translate(70.147301 160.398438) scale(0.1 -0.1)">
       <defs>
        <path id="DejaVuSans-31" d="M 794 531 
L 1825 531 
L 1825 4091 
L 703 3866 
L 703 4441 
L 1819 4666 
L 2450 4666 
L 2450 531 
L 3481 531 
L 3481 0 
L 794 0 
L 794 531 
z
" transform="scale(0.015625)"/>
       </defs>
       <use xlink:href="#DejaVuSans-31"/>
      </g>
     </g>
    </g>
    <g id="xtick_3">
     <g id="line2d_3">
      <g>
       <use xlink:href="#m4b355e6154" x="108.837642" y="145.8" style="stroke: #000000; stroke-width: 0.8"/>
      </g>
     </g>
     <g id="text_3">
      <!-- 2 -->
      <g transform="translate(105.656392 160.398438) scale(0.1 -0.1)">
       <defs>
        <path id="DejaVuSans-32" d="M 1228 531 
L 3431 531 
L 3431 0 
L 469 0 
L 469 531 
Q 828 903 1448 1529 
Q 2069 2156 2228 2338 
Q 2531 2678 2651 2914 
Q 2772 3150 2772 3378 
Q 2772 3750 2511 3984 
Q 2250 4219 1831 4219 
Q 1534 4219 1204 4116 
Q 875 4013 500 3803 
L 500 4441 
Q 881 4594 1212 4672 
Q 1544 4750 1819 4750 
Q 2544 4750 2975 4387 
Q 3406 4025 3406 3419 
Q 3406 3131 3298 2873 
Q 3191 2616 2906 2266 
Q 2828 2175 2409 1742 
Q 1991 1309 1228 531 
z
" transform="scale(0.015625)"/>
       </defs>
       <use xlink:href="#DejaVuSans-32"/>
      </g>
     </g>
    </g>
    <g id="xtick_4">
     <g id="line2d_4">
      <g>
       <use xlink:href="#m4b355e6154" x="144.346733" y="145.8" style="stroke: #000000; stroke-width: 0.8"/>
      </g>
     </g>
     <g id="text_4">
      <!-- 3 -->
      <g transform="translate(141.165483 160.398438) scale(0.1 -0.1)">
       <defs>
        <path id="DejaVuSans-33" d="M 2597 2516 
Q 3050 2419 3304 2112 
Q 3559 1806 3559 1356 
Q 3559 666 3084 287 
Q 2609 -91 1734 -91 
Q 1441 -91 1130 -33 
Q 819 25 488 141 
L 488 750 
Q 750 597 1062 519 
Q 1375 441 1716 441 
Q 2309 441 2620 675 
Q 2931 909 2931 1356 
Q 2931 1769 2642 2001 
Q 2353 2234 1838 2234 
L 1294 2234 
L 1294 2753 
L 1863 2753 
Q 2328 2753 2575 2939 
Q 2822 3125 2822 3475 
Q 2822 3834 2567 4026 
Q 2313 4219 1838 4219 
Q 1578 4219 1281 4162 
Q 984 4106 628 3988 
L 628 4550 
Q 988 4650 1302 4700 
Q 1616 4750 1894 4750 
Q 2613 4750 3031 4423 
Q 3450 4097 3450 3541 
Q 3450 3153 3228 2886 
Q 3006 2619 2597 2516 
z
" transform="scale(0.015625)"/>
       </defs>
       <use xlink:href="#DejaVuSans-33"/>
      </g>
     </g>
    </g>
    <g id="xtick_5">
     <g id="line2d_5">
      <g>
       <use xlink:href="#m4b355e6154" x="179.855824" y="145.8" style="stroke: #000000; stroke-width: 0.8"/>
      </g>
     </g>
     <g id="text_5">
      <!-- 4 -->
      <g transform="translate(176.674574 160.398438) scale(0.1 -0.1)">
       <defs>
        <path id="DejaVuSans-34" d="M 2419 4116 
L 825 1625 
L 2419 1625 
L 2419 4116 
z
M 2253 4666 
L 3047 4666 
L 3047 1625 
L 3713 1625 
L 3713 1100 
L 3047 1100 
L 3047 0 
L 2419 0 
L 2419 1100 
L 313 1100 
L 313 1709 
L 2253 4666 
z
" transform="scale(0.015625)"/>
       </defs>
       <use xlink:href="#DejaVuSans-34"/>
      </g>
     </g>
    </g>
    <g id="xtick_6">
     <g id="line2d_6">
      <g>
       <use xlink:href="#m4b355e6154" x="215.364915" y="145.8" style="stroke: #000000; stroke-width: 0.8"/>
      </g>
     </g>
     <g id="text_6">
      <!-- 5 -->
      <g transform="translate(212.183665 160.398438) scale(0.1 -0.1)">
       <defs>
        <path id="DejaVuSans-35" d="M 691 4666 
L 3169 4666 
L 3169 4134 
L 1269 4134 
L 1269 2991 
Q 1406 3038 1543 3061 
Q 1681 3084 1819 3084 
Q 2600 3084 3056 2656 
Q 3513 2228 3513 1497 
Q 3513 744 3044 326 
Q 2575 -91 1722 -91 
Q 1428 -91 1123 -41 
Q 819 9 494 109 
L 494 744 
Q 775 591 1075 516 
Q 1375 441 1709 441 
Q 2250 441 2565 725 
Q 2881 1009 2881 1497 
Q 2881 1984 2565 2268 
Q 2250 2553 1709 2553 
Q 1456 2553 1204 2497 
Q 953 2441 691 2322 
L 691 4666 
z
" transform="scale(0.015625)"/>
       </defs>
       <use xlink:href="#DejaVuSans-35"/>
      </g>
     </g>
    </g>
   </g>
   <g id="matplotlib.axis_2">
    <g id="ytick_1">
     <g id="line2d_7">
      <defs>
       <path id="m38b023e780" d="M 0 0 
L -3.5 0 
" style="stroke: #000000; stroke-width: 0.8"/>
      </defs>
      <g>
       <use xlink:href="#m38b023e780" x="28.942188" y="130.430665" style="stroke: #000000; stroke-width: 0.8"/>
      </g>
     </g>
     <g id="text_7">
      <!-- −2 -->
      <g transform="translate(7.2 134.229883) scale(0.1 -0.1)">
       <defs>
        <path id="DejaVuSans-2212" d="M 678 2272 
L 4684 2272 
L 4684 1741 
L 678 1741 
L 678 2272 
z
" transform="scale(0.015625)"/>
       </defs>
       <use xlink:href="#DejaVuSans-2212"/>
       <use xlink:href="#DejaVuSans-32" x="83.789062"/>
      </g>
     </g>
    </g>
    <g id="ytick_2">
     <g id="line2d_8">
      <g>
       <use xlink:href="#m38b023e780" x="28.942188" y="102.937837" style="stroke: #000000; stroke-width: 0.8"/>
      </g>
     </g>
     <g id="text_8">
      <!-- −1 -->
      <g transform="translate(7.2 106.737056) scale(0.1 -0.1)">
       <use xlink:href="#DejaVuSans-2212"/>
       <use xlink:href="#DejaVuSans-31" x="83.789062"/>
      </g>
     </g>
    </g>
    <g id="ytick_3">
     <g id="line2d_9">
      <g>
       <use xlink:href="#m38b023e780" x="28.942188" y="75.44501" style="stroke: #000000; stroke-width: 0.8"/>
      </g>
     </g>
     <g id="text_9">
      <!-- 0 -->
      <g transform="translate(15.579688 79.244229) scale(0.1 -0.1)">
       <use xlink:href="#DejaVuSans-30"/>
      </g>
     </g>
    </g>
    <g id="ytick_4">
     <g id="line2d_10">
      <g>
       <use xlink:href="#m38b023e780" x="28.942188" y="47.952183" style="stroke: #000000; stroke-width: 0.8"/>
      </g>
     </g>
     <g id="text_10">
      <!-- 1 -->
      <g transform="translate(15.579688 51.751402) scale(0.1 -0.1)">
       <use xlink:href="#DejaVuSans-31"/>
      </g>
     </g>
    </g>
    <g id="ytick_5">
     <g id="line2d_11">
      <g>
       <use xlink:href="#m38b023e780" x="28.942188" y="20.459356" style="stroke: #000000; stroke-width: 0.8"/>
      </g>
     </g>
     <g id="text_11">
      <!-- 2 -->
      <g transform="translate(15.579688 24.258575) scale(0.1 -0.1)">
       <use xlink:href="#DejaVuSans-32"/>
      </g>
     </g>
    </g>
   </g>
   <g id="line2d_12">
    <path d="M 37.81946 136.192175 
L 39.24267 136.602645 
L 40.66588 136.800562 
L 42.08909 136.732064 
L 43.156498 136.467019 
L 44.223905 135.986077 
L 45.291313 135.25977 
L 46.358721 134.2605 
L 47.426128 132.964304 
L 48.493536 131.35253 
L 49.560943 129.413317 
L 50.984153 126.313028 
L 52.407363 122.640855 
L 54.186376 117.319768 
L 56.321191 110.077746 
L 63.793044 83.626223 
L 65.216254 79.621212 
L 66.639464 76.282442 
L 67.706871 74.27629 
L 68.774279 72.732896 
L 69.841686 71.674481 
L 70.553292 71.244899 
L 71.264897 71.038008 
L 71.976502 71.053307 
L 72.688107 71.288548 
L 73.399712 71.739775 
L 74.111317 72.401454 
L 75.178724 73.772911 
L 76.246132 75.572809 
L 77.313539 77.766483 
L 78.736749 81.235753 
L 80.515762 86.302813 
L 82.650577 93.174261 
L 86.208602 105.580637 
L 89.766627 117.756722 
L 91.901442 124.324954 
L 93.680455 129.116079 
L 95.103665 132.394857 
L 96.526875 135.109141 
L 97.594283 136.740909 
L 98.66169 138.00569 
L 99.729098 138.890075 
L 100.440703 139.264192 
L 101.152308 139.464739 
L 101.863913 139.492121 
L 102.575518 139.348062 
L 103.287123 139.035624 
L 104.35453 138.261332 
L 105.421938 137.139225 
L 106.489345 135.696741 
L 107.912556 133.33407 
L 109.691568 129.810211 
L 111.826383 125.026551 
L 117.163421 112.780318 
L 119.298236 108.536038 
L 121.077249 105.433856 
L 123.212064 102.175461 
L 129.972311 92.453307 
L 131.751324 89.178466 
L 133.530337 85.351001 
L 135.309349 80.964811 
L 137.444164 75.103854 
L 142.425399 61.105212 
L 143.848609 57.76914 
L 145.271819 55.050009 
L 146.339227 53.507523 
L 147.406635 52.449729 
L 148.11824 52.033883 
L 148.829845 51.859586 
L 149.54145 51.93221 
L 150.253055 52.254145 
L 150.96466 52.824804 
L 151.676265 53.640644 
L 152.743672 55.309453 
L 153.81108 57.482348 
L 154.878487 60.11472 
L 156.301697 64.243629 
L 158.08071 70.185134 
L 160.92713 80.72494 
L 164.485155 93.90895 
L 166.61997 100.965396 
L 168.398983 106.027554 
L 169.822193 109.434369 
L 171.245403 112.214192 
L 172.312811 113.869063 
L 173.380218 115.149021 
L 174.447626 116.054901 
L 175.515033 116.593407 
L 176.226638 116.754192 
L 176.938243 116.762129 
L 178.005651 116.501024 
L 179.073058 115.934661 
L 180.140466 115.092516 
L 181.563676 113.599387 
L 182.986886 111.765561 
L 185.121701 108.589436 
L 190.458739 100.404024 
L 192.237751 98.137247 
L 194.016764 96.248556 
L 195.795776 94.73859 
L 197.574789 93.546098 
L 200.421209 91.994573 
L 202.911827 90.542297 
L 204.335037 89.483647 
L 205.758247 88.166362 
L 207.181457 86.539887 
L 208.604667 84.580118 
L 210.38368 81.673918 
L 212.518495 77.632202 
L 215.364915 71.766333 
L 215.364915 71.766333 
" clip-path="url(#p656746d071)" style="fill: none; stroke: #000000; stroke-opacity: 0.5; stroke-width: 1.5; stroke-linecap: square"/>
   </g>
   <g id="line2d_13">
    <path d="M 37.81946 107.774317 
L 39.954275 108.631594 
L 42.444893 109.87693 
L 47.070326 112.271984 
L 48.849338 112.940929 
L 50.628351 113.344367 
L 52.051561 113.447996 
L 53.474771 113.354407 
L 55.253783 112.984766 
L 57.388599 112.249864 
L 60.235019 110.978881 
L 64.504649 108.801439 
L 66.639464 107.506497 
L 68.418476 106.171602 
L 69.841686 104.847663 
L 71.264897 103.230316 
L 72.688107 101.271782 
L 74.111317 98.94486 
L 75.890329 95.519902 
L 77.669342 91.583871 
L 80.159959 85.478294 
L 84.42959 74.878117 
L 86.208602 71.000352 
L 87.631812 68.306617 
L 89.055022 66.037134 
L 90.478232 64.218538 
L 91.54564 63.15051 
L 92.613047 62.325259 
L 93.680455 61.72505 
L 94.747862 61.326163 
L 96.171073 61.058088 
L 97.594283 61.022517 
L 99.729098 61.235038 
L 103.998728 61.755538 
L 105.77774 61.741089 
L 107.556753 61.497721 
L 109.335766 60.995737 
L 111.114778 60.221783 
L 112.893791 59.170899 
L 114.672803 57.839676 
L 116.451816 56.22169 
L 118.230828 54.305976 
L 120.009841 52.078798 
L 121.788854 49.527975 
L 123.923669 46.034724 
L 126.058484 42.092086 
L 128.549101 37.018811 
L 136.020954 21.311205 
L 137.799967 18.285627 
L 139.223177 16.30376 
L 140.290584 15.12716 
L 141.357992 14.250682 
L 142.425399 13.701059 
L 143.137004 13.527178 
L 143.848609 13.51335 
L 144.560214 13.663335 
L 145.271819 13.979577 
L 146.339227 14.767573 
L 147.406635 15.929125 
L 148.474042 17.454248 
L 149.54145 19.32562 
L 150.96466 22.316174 
L 152.38787 25.802202 
L 154.166882 30.712563 
L 157.013302 39.337384 
L 160.92713 51.193223 
L 163.061945 56.921714 
L 164.840958 61.016311 
L 166.264168 63.760885 
L 167.687378 65.9919 
L 168.754785 67.317163 
L 169.822193 68.3436 
L 170.889601 69.077076 
L 171.957008 69.528852 
L 173.024416 69.715087 
L 174.091823 69.656278 
L 175.159231 69.376706 
L 176.582441 68.708328 
L 178.005651 67.768546 
L 180.140466 66.021944 
L 184.765899 62.087537 
L 186.189109 61.177766 
L 187.612319 60.548078 
L 188.679726 60.301146 
L 189.747134 60.275118 
L 190.814541 60.489966 
L 191.881949 60.960035 
L 192.949356 61.693025 
L 194.016764 62.689161 
L 195.084171 63.940483 
L 196.507382 65.975824 
L 198.286394 69.015188 
L 200.777012 73.85262 
L 203.979234 80.067435 
L 205.758247 82.982424 
L 207.181457 84.818586 
L 208.248864 85.838321 
L 209.316272 86.516314 
L 210.027877 86.768302 
L 210.739482 86.856703 
L 211.451087 86.781298 
L 212.162692 86.54439 
L 213.2301 85.897422 
L 214.297507 84.924837 
L 215.364915 83.664102 
L 215.364915 83.664102 
" clip-path="url(#p656746d071)" style="fill: none; stroke: #000000; stroke-opacity: 0.5; stroke-width: 1.5; stroke-linecap: square"/>
   </g>
   <g id="line2d_14">
    <path d="M 37.81946 113.205978 
L 39.598473 113.033062 
L 41.733288 112.537348 
L 44.935511 111.49393 
L 52.407363 108.840622 
L 53.830573 108.067838 
L 55.253783 107.024838 
L 56.321191 106.003488 
L 57.388599 104.729921 
L 58.456006 103.165567 
L 59.523414 101.278435 
L 60.946624 98.222194 
L 62.369834 94.530484 
L 63.793044 90.223304 
L 65.572056 84.077708 
L 68.062674 74.480028 
L 72.332304 57.844819 
L 74.111317 51.88983 
L 75.534527 47.884327 
L 76.601934 45.405429 
L 77.669342 43.41555 
L 78.736749 41.932118 
L 79.448354 41.225622 
L 80.159959 40.741147 
L 80.871564 40.471865 
L 81.583169 40.408098 
L 82.294774 40.537574 
L 83.00638 40.84576 
L 84.073787 41.606739 
L 85.141195 42.671031 
L 86.564405 44.447795 
L 88.69922 47.560586 
L 92.257245 52.817459 
L 94.036257 55.101575 
L 95.81527 57.059561 
L 97.594283 58.715618 
L 100.0849 60.684939 
L 105.066135 64.500765 
L 107.556753 66.783213 
L 110.047371 69.394382 
L 113.249593 73.12864 
L 116.807618 77.634216 
L 119.654038 81.573659 
L 122.144656 85.435928 
L 124.279471 89.180154 
L 126.414286 93.385784 
L 128.904904 98.84381 
L 132.818731 108.117872 
L 136.020954 115.457437 
L 137.799967 119.071534 
L 139.578979 122.177711 
L 141.002189 124.227695 
L 142.425399 125.854903 
L 143.492807 126.789157 
L 144.560214 127.479132 
L 145.627622 127.932035 
L 146.69503 128.160427 
L 147.762437 128.181743 
L 148.829845 128.017625 
L 150.253055 127.5542 
L 152.032067 126.676796 
L 154.878487 124.917129 
L 157.724907 123.213631 
L 159.50392 122.392531 
L 160.92713 121.940772 
L 162.35034 121.699813 
L 163.77355 121.680282 
L 165.19676 121.87821 
L 166.61997 122.276055 
L 168.398983 123.009034 
L 170.889601 124.333155 
L 175.515033 126.903576 
L 177.294046 127.651331 
L 179.073058 128.140336 
L 180.496268 128.301187 
L 181.919478 128.227492 
L 183.342689 127.897597 
L 184.765899 127.295511 
L 186.189109 126.411065 
L 187.612319 125.240289 
L 189.035529 123.785774 
L 190.814541 121.584062 
L 192.593554 118.989803 
L 194.728369 115.435201 
L 197.574789 110.160618 
L 203.623432 98.679989 
L 205.758247 95.19358 
L 207.537259 92.752527 
L 208.96047 91.180095 
L 210.027877 90.254406 
L 211.095285 89.56567 
L 212.162692 89.128524 
L 213.2301 88.954491 
L 214.297507 89.051658 
L 215.364915 89.424378 
L 215.364915 89.424378 
" clip-path="url(#p656746d071)" style="fill: none; stroke: #000000; stroke-opacity: 0.5; stroke-width: 1.5; stroke-linecap: square"/>
   </g>
   <g id="line2d_15">
    <path d="M 37.81946 64.632515 
L 38.886868 64.589165 
L 39.954275 64.803459 
L 41.021683 65.24559 
L 42.444893 66.127516 
L 44.223905 67.564342 
L 49.560943 72.219781 
L 50.984153 73.128412 
L 52.407363 73.774714 
L 53.830573 74.125123 
L 54.897981 74.183718 
L 55.965388 74.066217 
L 57.388599 73.64302 
L 58.811809 72.933796 
L 60.235019 71.967139 
L 62.014031 70.450327 
L 64.148846 68.279662 
L 66.995266 65.025255 
L 71.620699 59.710029 
L 73.755514 57.611818 
L 75.534527 56.190824 
L 76.957737 55.327903 
L 78.380947 54.748908 
L 79.448354 54.519757 
L 80.515762 54.477784 
L 81.583169 54.630017 
L 82.650577 54.980101 
L 83.717985 55.528007 
L 85.141195 56.558881 
L 86.564405 57.91343 
L 87.987615 59.558415 
L 89.766627 61.953027 
L 92.257245 65.73164 
L 96.882678 72.884828 
L 98.66169 75.261977 
L 100.0849 76.882031 
L 101.50811 78.198212 
L 102.93132 79.17417 
L 103.998728 79.668701 
L 105.066135 79.954637 
L 106.133543 80.032507 
L 107.20095 79.907549 
L 108.268358 79.58969 
L 109.691568 78.891405 
L 111.114778 77.922324 
L 112.893791 76.419659 
L 116.096013 73.320117 
L 118.586631 71.036982 
L 120.365644 69.72023 
L 121.788854 68.94543 
L 123.212064 68.460582 
L 124.279471 68.297478 
L 125.702681 68.342049 
L 127.125891 68.656864 
L 128.904904 69.34111 
L 133.530337 71.360135 
L 134.597744 71.568647 
L 135.665152 71.572486 
L 136.732559 71.325791 
L 137.799967 70.789395 
L 138.867374 69.932868 
L 139.934782 68.736355 
L 141.002189 67.192065 
L 142.069597 65.305337 
L 143.492807 62.291771 
L 145.271819 57.847896 
L 147.762437 50.828602 
L 150.96466 41.816438 
L 152.38787 38.335962 
L 153.81108 35.433505 
L 154.878487 33.725061 
L 155.945895 32.471854 
L 156.6575 31.906195 
L 157.369105 31.56379 
L 158.08071 31.447467 
L 158.792315 31.556902 
L 159.50392 31.888687 
L 160.215525 32.436454 
L 161.282933 33.642365 
L 162.35034 35.271815 
L 163.417748 37.272997 
L 164.840958 40.415552 
L 166.975773 45.830367 
L 173.024416 61.783636 
L 175.159231 66.571785 
L 176.938243 70.047199 
L 178.717256 73.063745 
L 180.496268 75.666935 
L 182.275281 77.918964 
L 184.410096 80.246188 
L 186.544911 82.244956 
L 188.679726 83.960971 
L 190.814541 85.389384 
L 192.593554 86.319233 
L 194.016764 86.849498 
L 195.439974 87.143885 
L 196.507382 87.179098 
L 197.574789 87.028391 
L 198.642197 86.665978 
L 199.709604 86.065388 
L 200.777012 85.200435 
L 201.844419 84.046273 
L 202.911827 82.580562 
L 203.979234 80.784694 
L 205.402444 77.853802 
L 206.825654 74.297068 
L 208.248864 70.122469 
L 210.027877 64.090302 
L 212.162692 55.837125 
L 215.009112 43.715965 
L 215.364915 42.160354 
L 215.364915 42.160354 
" clip-path="url(#p656746d071)" style="fill: none; stroke: #000000; stroke-opacity: 0.5; stroke-width: 1.5; stroke-linecap: square"/>
   </g>
   <g id="line2d_16">
    <path d="M 37.81946 79.640117 
L 39.954275 81.504693 
L 41.733288 83.357184 
L 43.5123 85.55682 
L 45.291313 88.103166 
L 47.781931 92.085756 
L 50.984153 97.217512 
L 52.763166 99.630002 
L 54.186376 101.135299 
L 55.253783 101.950138 
L 56.321191 102.45833 
L 57.388599 102.635758 
L 58.100204 102.562713 
L 58.811809 102.334108 
L 59.879216 101.700045 
L 60.946624 100.724085 
L 62.014031 99.422313 
L 63.437241 97.221189 
L 64.860451 94.554896 
L 66.639464 90.698632 
L 69.130081 84.653781 
L 74.822922 70.521369 
L 76.957737 65.919446 
L 78.736749 62.610369 
L 80.159959 60.359163 
L 81.583169 58.482225 
L 83.00638 56.985636 
L 84.42959 55.863108 
L 85.8528 55.098194 
L 86.920207 54.745219 
L 88.343417 54.54752 
L 89.766627 54.637619 
L 91.189837 54.99308 
L 92.613047 55.59884 
L 94.036257 56.449461 
L 95.459468 57.549807 
L 96.882678 58.913771 
L 98.305888 60.561144 
L 99.729098 62.512748 
L 101.152308 64.784346 
L 102.93132 68.078444 
L 104.710333 71.844863 
L 107.20095 77.726536 
L 111.826383 88.899875 
L 113.605396 92.52401 
L 115.028606 94.872871 
L 116.096013 96.237598 
L 117.163421 97.220417 
L 117.875026 97.650538 
L 118.586631 97.8953 
L 119.298236 97.953242 
L 120.009841 97.825776 
L 120.721446 97.51719 
L 121.788854 96.731102 
L 122.856261 95.589931 
L 123.923669 94.142246 
L 125.346879 91.839649 
L 127.837496 87.26251 
L 130.328114 82.832846 
L 131.751324 80.733403 
L 132.818731 79.480791 
L 133.886139 78.559079 
L 134.953547 78.003936 
L 135.665152 77.848743 
L 136.376757 77.8691 
L 137.088362 78.064787 
L 137.799967 78.432607 
L 138.867374 79.292975 
L 139.934782 80.494082 
L 141.357992 82.546107 
L 143.137004 85.638017 
L 148.11824 94.696799 
L 149.54145 96.652028 
L 150.608857 97.766881 
L 151.676265 98.533881 
L 152.38787 98.837553 
L 153.099475 98.968881 
L 153.81108 98.925565 
L 154.522685 98.707991 
L 155.23429 98.319111 
L 156.301697 97.427047 
L 157.369105 96.189746 
L 158.436513 94.644279 
L 159.859723 92.181745 
L 161.638735 88.624552 
L 164.840958 81.586236 
L 168.04318 74.688472 
L 170.533798 69.856898 
L 172.668613 66.172076 
L 174.803428 62.891071 
L 176.938243 59.978363 
L 179.073058 57.421257 
L 180.852071 55.583482 
L 182.631083 54.056736 
L 184.054294 53.098236 
L 185.477504 52.409008 
L 186.900714 52.020784 
L 187.968121 51.943778 
L 189.035529 52.060565 
L 190.102936 52.377467 
L 191.170344 52.897864 
L 192.237751 53.621991 
L 193.660961 54.898714 
L 195.084171 56.515589 
L 196.507382 58.445678 
L 198.286394 61.239902 
L 200.421209 65.017875 
L 206.469852 76.097695 
L 207.893062 78.23748 
L 209.316272 79.996217 
L 210.38368 81.014259 
L 211.451087 81.742089 
L 212.518495 82.159137 
L 213.585902 82.254157 
L 214.65331 82.026465 
L 215.364915 81.700203 
L 215.364915 81.700203 
" clip-path="url(#p656746d071)" style="fill: none; stroke: #000000; stroke-opacity: 0.5; stroke-width: 1.5; stroke-linecap: square"/>
   </g>
   <g id="line2d_17">
    <path d="M 37.81946 75.44501 
L 215.364915 75.44501 
L 215.364915 75.44501 
" clip-path="url(#p656746d071)" style="fill: none; stroke: #1f77b4; stroke-width: 2; stroke-linecap: square"/>
   </g>
   <g id="patch_3">
    <path d="M 28.942188 145.8 
L 28.942188 7.2 
" style="fill: none; stroke: #000000; stroke-width: 0.8; stroke-linejoin: miter; stroke-linecap: square"/>
   </g>
   <g id="patch_4">
    <path d="M 224.242188 145.8 
L 224.242188 7.2 
" style="fill: none; stroke: #000000; stroke-width: 0.8; stroke-linejoin: miter; stroke-linecap: square"/>
   </g>
   <g id="patch_5">
    <path d="M 28.942187 145.8 
L 224.242188 145.8 
" style="fill: none; stroke: #000000; stroke-width: 0.8; stroke-linejoin: miter; stroke-linecap: square"/>
   </g>
   <g id="patch_6">
    <path d="M 28.942187 7.2 
L 224.242188 7.2 
" style="fill: none; stroke: #000000; stroke-width: 0.8; stroke-linejoin: miter; stroke-linecap: square"/>
   </g>
  </g>
 </g>
 <defs>
  <clipPath id="p656746d071">
   <rect x="28.942188" y="7.2" width="195.3" height="138.6"/>
  </clipPath>
 </defs>
</svg>
