<?xml version="1.0" encoding="utf-8" standalone="no"?>
<!DOCTYPE svg PUBLIC "-//W3C//DTD SVG 1.1//EN"
  "http://www.w3.org/Graphics/SVG/1.1/DTD/svg11.dtd">
<svg xmlns:xlink="http://www.w3.org/1999/xlink" width="169.715408pt" height="168.910565pt" viewBox="0 0 169.715408 168.910565" xmlns="http://www.w3.org/2000/svg" version="1.1">
 <metadata>
  <rdf:RDF xmlns:dc="http://purl.org/dc/elements/1.1/" xmlns:cc="http://creativecommons.org/ns#" xmlns:rdf="http://www.w3.org/1999/02/22-rdf-syntax-ns#">
   <cc:Work>
    <dc:type rdf:resource="http://purl.org/dc/dcmitype/StillImage"/>
    <dc:date>2025-07-11T19:47:57.180764</dc:date>
    <dc:format>image/svg+xml</dc:format>
    <dc:creator>
     <cc:Agent>
      <dc:title>Matplotlib v3.6.1, https://matplotlib.org/</dc:title>
     </cc:Agent>
    </dc:creator>
   </cc:Work>
  </rdf:RDF>
 </metadata>
 <defs>
  <style type="text/css">*{stroke-linejoin: round; stroke-linecap: butt}</style>
 </defs>
 <g id="figure_1">
  <g id="patch_1">
   <path d="M 0 168.910565 
L 169.715408 168.910565 
L 169.715408 0 
L 0 0 
z
" style="fill: #ffffff"/>
  </g>
  <g id="patch_2">
   <path d="M 7.2 145.8 
L 145.8 145.8 
L 145.8 7.2 
L 7.2 7.2 
z
" style="fill: #ffffff"/>
  </g>
  <g id="pane3d_1">
   <g id="patch_3">
    <path d="M 17.665256 111.625682 
L 63.435502 73.260154 
L 62.799252 17.930204 
L 14.838663 52.929657 
" style="fill: #f2f2f2; opacity: 0.5; stroke: #f2f2f2; stroke-linejoin: miter"/>
   </g>
  </g>
  <g id="pane3d_2">
   <g id="patch_4">
    <path d="M 63.435502 73.260154 
L 136.880417 94.607691 
L 139.501407 37.371964 
L 62.799252 17.930204 
" style="fill: #e6e6e6; opacity: 0.5; stroke: #e6e6e6; stroke-linejoin: miter"/>
   </g>
  </g>
  <g id="pane3d_3">
   <g id="patch_5">
    <path d="M 17.665256 111.625682 
L 95.520453 137.053189 
L 136.880417 94.607691 
L 63.435502 73.260154 
" style="fill: #ececec; opacity: 0.5; stroke: #ececec; stroke-linejoin: miter"/>
   </g>
  </g>
  <g id="axis3d_1">
   <g id="line2d_1">
    <path d="M 17.665256 111.625682 
L 95.520453 137.053189 
" style="fill: none; stroke: #000000; stroke-width: 0.8; stroke-linecap: square"/>
   </g>
   <g id="text_1">
    <!-- x -->
    <g transform="translate(36.190346 162.307234) scale(0.1 -0.1)">
     <defs>
      <path id="DejaVuSans-78" d="M 3513 3500 
L 2247 1797 
L 3578 0 
L 2900 0 
L 1881 1375 
L 863 0 
L 184 0 
L 1544 1831 
L 300 3500 
L 978 3500 
L 1906 2253 
L 2834 3500 
L 3513 3500 
z
" transform="scale(0.015625)"/>
     </defs>
     <use xlink:href="#DejaVuSans-78"/>
    </g>
   </g>
   <g id="Line3DCollection_1">
    <path d="M 22.380575 113.165705 
L 67.902197 74.558445 
L 67.454802 19.11025 
" style="fill: none; stroke: #b0b0b0; stroke-width: 0.8"/>
    <path d="M 55.566605 124.004262 
L 99.270858 83.676077 
L 100.18343 27.406003 
" style="fill: none; stroke: #b0b0b0; stroke-width: 0.8"/>
    <path d="M 90.315667 135.353306 
L 131.990658 93.186431 
L 134.384718 36.075033 
" style="fill: none; stroke: #b0b0b0; stroke-width: 0.8"/>
   </g>
   <g id="xtick_1">
    <g id="line2d_2">
     <path d="M 22.776975 112.829515 
L 21.586075 113.839527 
" style="fill: none; stroke: #000000; stroke-width: 0.8; stroke-linecap: square"/>
    </g>
    <g id="text_2">
     <!-- −1 -->
     <g transform="translate(7.454595 136.528767) scale(0.1 -0.1)">
      <defs>
       <path id="DejaVuSans-2212" d="M 678 2272 
L 4684 2272 
L 4684 1741 
L 678 1741 
L 678 2272 
z
" transform="scale(0.015625)"/>
       <path id="DejaVuSans-31" d="M 794 531 
L 1825 531 
L 1825 4091 
L 703 3866 
L 703 4441 
L 1819 4666 
L 2450 4666 
L 2450 531 
L 3481 531 
L 3481 0 
L 794 0 
L 794 531 
z
" transform="scale(0.015625)"/>
      </defs>
      <use xlink:href="#DejaVuSans-2212"/>
      <use xlink:href="#DejaVuSans-31" x="83.789062"/>
     </g>
    </g>
   </g>
   <g id="xtick_2">
    <g id="line2d_3">
     <path d="M 55.94789 123.65243 
L 54.80236 124.709471 
" style="fill: none; stroke: #000000; stroke-width: 0.8; stroke-linecap: square"/>
    </g>
    <g id="text_3">
     <!-- 0 -->
     <g transform="translate(44.898548 147.812111) scale(0.1 -0.1)">
      <defs>
       <path id="DejaVuSans-30" d="M 2034 4250 
Q 1547 4250 1301 3770 
Q 1056 3291 1056 2328 
Q 1056 1369 1301 889 
Q 1547 409 2034 409 
Q 2525 409 2770 889 
Q 3016 1369 3016 2328 
Q 3016 3291 2770 3770 
Q 2525 4250 2034 4250 
z
M 2034 4750 
Q 2819 4750 3233 4129 
Q 3647 3509 3647 2328 
Q 3647 1150 3233 529 
Q 2819 -91 2034 -91 
Q 1250 -91 836 529 
Q 422 1150 422 2328 
Q 422 3509 836 4129 
Q 1250 4750 2034 4750 
z
" transform="scale(0.015625)"/>
      </defs>
      <use xlink:href="#DejaVuSans-30"/>
     </g>
    </g>
   </g>
   <g id="xtick_3">
    <g id="line2d_4">
     <path d="M 90.679959 134.984714 
L 89.585446 136.092146 
" style="fill: none; stroke: #000000; stroke-width: 0.8; stroke-linecap: square"/>
    </g>
    <g id="text_4">
     <!-- 1 -->
     <g transform="translate(79.730646 159.630877) scale(0.1 -0.1)">
      <use xlink:href="#DejaVuSans-31"/>
     </g>
    </g>
   </g>
  </g>
  <g id="axis3d_2">
   <g id="line2d_5">
    <path d="M 136.880417 94.607691 
L 95.520453 137.053189 
" style="fill: none; stroke: #000000; stroke-width: 0.8; stroke-linecap: square"/>
   </g>
   <g id="text_5">
    <!-- y -->
    <g transform="translate(141.167797 145.683654) scale(0.1 -0.1)">
     <defs>
      <path id="DejaVuSans-79" d="M 2059 -325 
Q 1816 -950 1584 -1140 
Q 1353 -1331 966 -1331 
L 506 -1331 
L 506 -850 
L 844 -850 
Q 1081 -850 1212 -737 
Q 1344 -625 1503 -206 
L 1606 56 
L 191 3500 
L 800 3500 
L 1894 763 
L 2988 3500 
L 3597 3500 
L 2059 -325 
z
" transform="scale(0.015625)"/>
     </defs>
     <use xlink:href="#DejaVuSans-79"/>
    </g>
   </g>
   <g id="Line3DCollection_2">
    <path d="M 18.155257 50.509358 
L 20.819213 108.981973 
L 98.382242 134.116289 
" style="fill: none; stroke: #b0b0b0; stroke-width: 0.8"/>
    <path d="M 39.885822 34.651381 
L 41.525154 91.625842 
L 117.126847 114.879713 
" style="fill: none; stroke: #b0b0b0; stroke-width: 0.8"/>
    <path d="M 59.991995 19.978812 
L 60.746858 75.513829 
L 134.460919 97.090691 
" style="fill: none; stroke: #b0b0b0; stroke-width: 0.8"/>
   </g>
   <g id="xtick_4">
    <g id="line2d_6">
     <path d="M 97.728616 133.904481 
L 99.691184 134.540452 
" style="fill: none; stroke: #000000; stroke-width: 0.8; stroke-linecap: square"/>
    </g>
    <g id="text_6">
     <!-- −1 -->
     <g transform="translate(103.898882 155.145417) scale(0.1 -0.1)">
      <use xlink:href="#DejaVuSans-2212"/>
      <use xlink:href="#DejaVuSans-31" x="83.789062"/>
     </g>
    </g>
   </g>
   <g id="xtick_5">
    <g id="line2d_7">
     <path d="M 116.491011 114.68414 
L 118.400099 115.271345 
" style="fill: none; stroke: #000000; stroke-width: 0.8; stroke-linecap: square"/>
    </g>
    <g id="text_7">
     <!-- 0 -->
     <g transform="translate(126.349632 135.361913) scale(0.1 -0.1)">
      <use xlink:href="#DejaVuSans-30"/>
     </g>
    </g>
   </g>
   <g id="xtick_6">
    <g id="line2d_8">
     <path d="M 133.842096 96.909555 
L 135.700045 97.453396 
" style="fill: none; stroke: #000000; stroke-width: 0.8; stroke-linecap: square"/>
    </g>
    <g id="text_8">
     <!-- 1 -->
     <g transform="translate(143.234942 117.068702) scale(0.1 -0.1)">
      <use xlink:href="#DejaVuSans-31"/>
     </g>
    </g>
   </g>
  </g>
  <g id="axis3d_3">
   <g id="line2d_9">
    <path d="M 136.880417 94.607691 
L 139.501407 37.371964 
" style="fill: none; stroke: #000000; stroke-width: 0.8; stroke-linecap: square"/>
   </g>
   <g id="Line3DCollection_3">
    <path d="M 136.930632 93.511118 
L 63.423287 72.197896 
L 17.611191 110.502989 
" style="fill: none; stroke: #b0b0b0; stroke-width: 0.8"/>
    <path d="M 138.162202 66.616789 
L 63.124011 46.172077 
L 16.284113 82.945357 
" style="fill: none; stroke: #b0b0b0; stroke-width: 0.8"/>
    <path d="M 139.446688 38.566888 
L 62.812508 19.082955 
L 14.897772 54.157093 
" style="fill: none; stroke: #b0b0b0; stroke-width: 0.8"/>
   </g>
   <g id="xtick_7">
    <g id="line2d_10">
     <path d="M 136.313678 93.332234 
L 138.166009 93.869311 
" style="fill: none; stroke: #000000; stroke-width: 0.8; stroke-linecap: square"/>
    </g>
    <g id="text_9">
     <!-- −1 -->
     <g transform="translate(147.773221 98.515807) scale(0.1 -0.1)">
      <use xlink:href="#DejaVuSans-2212"/>
      <use xlink:href="#DejaVuSans-31" x="83.789062"/>
     </g>
    </g>
   </g>
   <g id="xtick_8">
    <g id="line2d_11">
     <path d="M 137.531779 66.445026 
L 139.424579 66.960733 
" style="fill: none; stroke: #000000; stroke-width: 0.8; stroke-linecap: square"/>
    </g>
    <g id="text_10">
     <!-- 0 -->
     <g transform="translate(153.568228 71.725004) scale(0.1 -0.1)">
      <use xlink:href="#DejaVuSans-30"/>
     </g>
    </g>
   </g>
   <g id="xtick_9">
    <g id="line2d_12">
     <path d="M 138.802197 38.403029 
L 140.737271 38.895014 
" style="fill: none; stroke: #000000; stroke-width: 0.8; stroke-linecap: square"/>
    </g>
    <g id="text_11">
     <!-- 1 -->
     <g transform="translate(155.241948 43.789973) scale(0.1 -0.1)">
      <use xlink:href="#DejaVuSans-31"/>
     </g>
    </g>
   </g>
  </g>
  <g id="axes_1">
   <g id="line2d_13">
    <defs>
     <path id="mbfd18b8a19" d="M -3 3 
L 3 -3 
M -3 -3 
L 3 3 
" style="stroke: #ff0000"/>
    </defs>
    <g clip-path="url(#p9b37cd90f9)">
     <use xlink:href="#mbfd18b8a19" x="78.372973" y="74.627027" style="fill: #ff0000; stroke: #ff0000"/>
    </g>
   </g>
   <g id="Line3DCollection_4">
    <path d="M 24.318635 81.868935 
L 24.710556 80.407083 
L 25.103462 78.967565 
L 25.497331 77.550469 
L 25.892142 76.155867 
L 26.287877 74.783829 
L 26.684512 73.434437 
L 27.082029 72.107753 
L 27.480405 70.803848 
L 27.879622 69.522778 
L 28.279656 68.264617 
L 28.680487 67.029414 
L 29.082094 65.817238 
L 29.484454 64.628137 
L 29.887548 63.462163 
L 30.291353 62.319369 
L 30.69585 61.199798 
L 31.101016 60.103497 
L 31.506827 59.030517 
L 31.913264 57.980887 
L 32.320305 56.954651 
L 32.727928 55.951842 
L 33.136113 54.972491 
L 33.544835 54.016632 
L 33.954075 53.084291 
L 34.363809 52.175495 
L 34.774015 51.290266 
L 35.184674 50.428625 
L 35.595762 49.590584 
L 36.007257 48.776167 
L 36.419137 47.985383 
L 36.831383 47.218241 
L 37.243968 46.474752 
L 37.656874 45.75492 
L 38.070079 45.058748 
L 38.483558 44.386238 
L 38.897292 43.737386 
L 39.311259 43.112188 
L 39.725435 42.510639 
L 40.1398 41.932727 
L 40.554332 41.378444 
L 40.969011 40.847772 
L 41.383811 40.340698 
L 41.798714 39.857202 
L 42.213698 39.39726 
L 42.628739 38.960852 
L 43.043818 38.547952 
L 43.458913 38.158529 
L 43.874002 37.792556 
L 44.289063 37.449996 
L 44.704078 37.130816 
L 45.119023 36.834978 
L 45.533876 36.562443 
L 45.948618 36.313167 
L 46.363228 36.087107 
L 46.777684 35.884217 
L 47.191965 35.704448 
L 47.606052 35.547748 
L 48.019923 35.414064 
L 48.433558 35.303341 
L 48.846937 35.215521 
L 49.260038 35.150544 
L 49.672843 35.108352 
L 50.08533 35.088877 
L 50.497481 35.092054 
L 50.909274 35.117817 
L 51.32069 35.166094 
L 51.731711 35.236814 
L 52.142314 35.329904 
L 52.552482 35.445287 
L 52.962197 35.582887 
L 53.371437 35.742621 
L 53.780184 35.924412 
L 54.188421 36.128174 
L 54.596125 36.353821 
L 55.003281 36.601267 
L 55.40987 36.870424 
L 55.815873 37.161201 
L 56.221272 37.473507 
L 56.626049 37.807246 
L 57.030186 38.162323 
L 57.433665 38.538641 
L 57.836469 38.936102 
L 58.23858 39.354602 
L 58.639982 39.794045 
L 59.040658 40.254323 
L 59.440588 40.73533 
L 59.839758 41.236963 
L 60.23815 41.759111 
L 60.635749 42.301665 
L 61.032539 42.864518 
L 61.428501 43.447552 
L 61.823623 44.050657 
L 62.217886 44.673714 
L 62.611275 45.316612 
L 63.003776 45.979229 
L 63.395374 46.661452 
L 63.786051 47.363154 
L 64.175795 48.084218 
L 64.564591 48.824522 
L 64.952423 49.583939 
" clip-path="url(#p9b37cd90f9)" style="fill: none; stroke: #1f77b4; stroke-width: 1.5"/>
    <path d="M 31.326259 93.962164 
L 31.717396 92.505925 
L 32.109392 91.071739 
L 32.502226 89.659692 
L 32.895877 88.269855 
L 33.290328 86.902299 
L 33.685555 85.557103 
L 34.081538 84.234331 
L 34.478257 82.934053 
L 34.875692 81.656324 
L 35.27382 80.401219 
L 35.672622 79.168784 
L 36.072076 77.959091 
L 36.47216 76.772186 
L 36.872855 75.608121 
L 37.274138 74.46695 
L 37.675991 73.348714 
L 38.07839 72.253461 
L 38.481312 71.18124 
L 38.884739 70.132086 
L 39.288648 69.106036 
L 39.693019 68.103128 
L 40.09783 67.123389 
L 40.503058 66.166858 
L 40.908684 65.233556 
L 41.314685 64.323514 
L 41.721039 63.436753 
L 42.127726 62.573293 
L 42.534725 61.733151 
L 42.942012 60.916346 
L 43.349568 60.122891 
L 43.757371 59.352793 
L 44.165398 58.606065 
L 44.573628 57.882713 
L 44.982043 57.182735 
L 45.390616 56.506138 
L 45.799329 55.852921 
L 46.208162 55.223075 
L 46.61709 54.6166 
L 47.026094 54.033483 
L 47.435152 53.473717 
L 47.844245 52.937284 
L 48.253348 52.424173 
L 48.662442 51.934365 
L 49.071508 51.467836 
L 49.480521 51.024568 
L 49.889463 50.604535 
L 50.298313 50.207708 
L 50.707048 49.83406 
L 51.115649 49.483557 
L 51.524096 49.156164 
L 51.932368 48.851847 
L 52.340443 48.570567 
L 52.748301 48.312282 
L 53.155924 48.076948 
L 53.56329 47.864523 
L 53.970378 47.674958 
L 54.377171 47.508202 
L 54.783646 47.364204 
L 55.189785 47.242911 
L 55.595568 47.144265 
L 56.000975 47.068209 
L 56.405986 47.014685 
L 56.810582 46.983627 
L 57.214746 46.974972 
L 57.618456 46.988654 
L 58.021693 47.024607 
L 58.424441 47.082757 
L 58.826678 47.163032 
L 59.228386 47.265361 
L 59.629549 47.389666 
L 60.030146 47.535868 
L 60.430159 47.70389 
L 60.829572 47.893648 
L 61.228364 48.10506 
L 61.626519 48.33804 
L 62.02402 48.592501 
L 62.420849 48.868355 
L 62.816987 49.165512 
L 63.21242 49.483879 
L 63.607128 49.823362 
L 64.001094 50.183866 
L 64.394303 50.565295 
L 64.786739 50.967549 
L 65.178384 51.39053 
L 65.569223 51.834134 
L 65.959238 52.298258 
L 66.348414 52.782799 
L 66.736736 53.287649 
L 67.124187 53.812701 
L 67.510754 54.357851 
L 67.896419 54.922981 
L 68.28117 55.507985 
L 68.664989 56.112745 
L 69.047862 56.737151 
L 69.429775 57.381086 
L 69.810715 58.044436 
L 70.190665 58.727079 
L 70.569613 59.428898 
L 70.947545 60.149774 
L 71.324447 60.889583 
" clip-path="url(#p9b37cd90f9)" style="fill: none; stroke: #1f77b4; stroke-width: 1.5"/>
    <path d="M 38.218828 103.780253 
L 38.609854 102.326915 
L 39.001619 100.895427 
L 39.3941 99.485873 
L 39.787279 98.098326 
L 40.181136 96.732856 
L 40.575648 95.389541 
L 40.970796 94.068445 
L 41.366559 92.769638 
L 41.762918 91.493176 
L 42.159849 90.239131 
L 42.557335 89.007553 
L 42.955351 87.79851 
L 43.353879 86.61205 
L 43.752897 85.448224 
L 44.152384 84.307087 
L 44.552321 83.18868 
L 44.952685 82.093052 
L 45.353454 81.020249 
L 45.754608 79.970308 
L 46.156126 78.943266 
L 46.557987 77.939162 
L 46.960171 76.958022 
L 47.362654 75.999885 
L 47.765417 75.064773 
L 48.168438 74.152717 
L 48.571696 73.263739 
L 48.975169 72.397858 
L 49.378839 71.555092 
L 49.782681 70.735462 
L 50.186675 69.938977 
L 50.590802 69.165649 
L 50.995038 68.415489 
L 51.399364 67.688503 
L 51.803759 66.984692 
L 52.208199 66.304062 
L 52.612667 65.646611 
L 53.017141 65.012333 
L 53.421598 64.401226 
L 53.826019 63.813282 
L 54.230383 63.248489 
L 54.63467 62.706835 
L 55.038858 62.188305 
L 55.442927 61.692883 
L 55.846858 61.220547 
L 56.250628 60.771277 
L 56.654217 60.345049 
L 57.057607 59.941834 
L 57.460775 59.561607 
L 57.863702 59.204334 
L 58.266369 58.869982 
L 58.668755 58.558516 
L 59.07084 58.269898 
L 59.472603 58.00409 
L 59.874027 57.761046 
L 60.27509 57.540724 
L 60.675774 57.343078 
L 61.07606 57.168058 
L 61.475927 57.015614 
L 61.875356 56.885692 
L 62.27433 56.778237 
L 62.672828 56.693193 
L 63.070832 56.630501 
L 63.468322 56.590099 
L 63.865283 56.571923 
L 64.261693 56.57591 
L 64.657534 56.601991 
L 65.052791 56.650098 
L 65.447442 56.720159 
L 65.84147 56.812102 
L 66.23486 56.925851 
L 66.627591 57.06133 
L 67.019647 57.218461 
L 67.411011 57.397163 
L 67.801664 57.597353 
L 68.191591 57.818949 
L 68.580774 58.061863 
L 68.969198 58.32601 
L 69.356843 58.6113 
L 69.743696 58.917642 
L 70.129739 59.244942 
L 70.514955 59.593109 
L 70.89933 59.962046 
L 71.282847 60.351654 
L 71.665492 60.761839 
L 72.047248 61.192496 
L 72.428099 61.643524 
L 72.808031 62.114823 
L 73.187029 62.606284 
L 73.565078 63.117802 
L 73.942165 63.649275 
L 74.318273 64.200585 
L 74.693389 64.77163 
L 75.067499 65.362292 
L 75.440588 65.972463 
L 75.812644 66.602026 
L 76.183653 67.25087 
L 76.553601 67.918873 
L 76.922474 68.605921 
L 77.290262 69.311896 
L 77.656949 70.036674 
" clip-path="url(#p9b37cd90f9)" style="fill: none; stroke: #1f77b4; stroke-width: 1.5"/>
    <path d="M 45.032742 111.384673 
L 45.42433 109.931556 
L 45.81654 108.500161 
L 46.209348 107.090573 
L 46.602735 105.702865 
L 46.996682 104.337106 
L 47.391167 102.993375 
L 47.786169 101.671736 
L 48.181668 100.372259 
L 48.577645 99.095 
L 48.974076 97.840031 
L 49.370943 96.607402 
L 49.768224 95.397182 
L 50.165897 94.209418 
L 50.563944 93.044162 
L 50.962342 91.901468 
L 51.361071 90.781378 
L 51.760111 89.68394 
L 52.159438 88.609202 
L 52.559034 87.557201 
L 52.958876 86.527973 
L 53.358944 85.521557 
L 53.759219 84.537982 
L 54.159676 83.577284 
L 54.560298 82.639487 
L 54.961061 81.724621 
L 55.361945 80.832709 
L 55.76293 79.963772 
L 56.163995 79.117825 
L 56.565117 78.294891 
L 56.966278 77.49498 
L 57.367456 76.718103 
L 57.76863 75.964273 
L 58.169779 75.233495 
L 58.570884 74.52577 
L 58.971922 73.841106 
L 59.372873 73.1795 
L 59.773719 72.540947 
L 60.174436 71.925446 
L 60.575005 71.332988 
L 60.975405 70.763563 
L 61.375619 70.217157 
L 61.775622 69.693759 
L 62.175396 69.19335 
L 62.574922 68.715911 
L 62.974178 68.261421 
L 63.373145 67.829857 
L 63.771804 67.421192 
L 64.170134 67.035398 
L 64.568115 66.672445 
L 64.965729 66.332298 
L 65.362956 66.014925 
L 65.759775 65.720287 
L 66.156168 65.448346 
L 66.552117 65.199058 
L 66.947601 64.972382 
L 67.342601 64.76827 
L 67.737101 64.586674 
L 68.131079 64.427545 
L 68.524517 64.29083 
L 68.917399 64.176475 
L 69.309704 64.084423 
L 69.701414 64.014615 
L 70.092512 63.966992 
L 70.48298 63.941491 
L 70.872799 63.938046 
L 71.261952 63.956592 
L 71.650423 63.997061 
L 72.038192 64.059381 
L 72.425242 64.143481 
L 72.811558 64.249286 
L 73.197121 64.376721 
L 73.581915 64.525707 
L 73.965924 64.696166 
L 74.34913 64.888014 
L 74.731517 65.101171 
L 75.11307 65.335549 
L 75.493772 65.591064 
L 75.873607 65.867626 
L 76.25256 66.165146 
L 76.630614 66.48353 
L 77.007754 66.822688 
L 77.383966 67.182523 
L 77.759234 67.562939 
L 78.133544 67.96384 
L 78.506881 68.385125 
L 78.879229 68.82669 
L 79.250575 69.288437 
L 79.620904 69.77026 
L 79.990203 70.272053 
L 80.358458 70.793715 
L 80.725655 71.33513 
L 81.091781 71.896195 
L 81.45682 72.476793 
L 81.820762 73.076817 
L 82.183593 73.696152 
L 82.545302 74.334687 
L 82.905873 74.992301 
L 83.265296 75.668881 
L 83.623558 76.364308 
L 83.980647 77.078462 
" clip-path="url(#p9b37cd90f9)" style="fill: none; stroke: #1f77b4; stroke-width: 1.5"/>
    <path d="M 51.803487 116.813651 
L 52.196317 115.358076 
L 52.589652 113.92417 
L 52.983468 112.512019 
L 53.377748 111.121697 
L 53.772471 109.753272 
L 54.167614 108.406825 
L 54.563158 107.082418 
L 54.959082 105.780123 
L 55.355366 104.499996 
L 55.751989 103.242109 
L 56.14893 102.006512 
L 56.546168 100.793274 
L 56.943681 99.602444 
L 57.341451 98.434072 
L 57.739455 97.288215 
L 58.137674 96.164913 
L 58.536086 95.064215 
L 58.934669 93.986169 
L 59.333403 92.930813 
L 59.732267 91.898183 
L 60.131241 90.888318 
L 60.530305 89.901247 
L 60.929436 88.937007 
L 61.328614 87.995622 
L 61.727818 87.077123 
L 62.127027 86.181532 
L 62.526221 85.30887 
L 62.92538 84.459155 
L 63.324481 83.632407 
L 63.723505 82.828638 
L 64.122432 82.047859 
L 64.521239 81.290083 
L 64.919908 80.555315 
L 65.318418 79.843559 
L 65.716747 79.154819 
L 66.114877 78.489095 
L 66.512787 77.846382 
L 66.910455 77.226679 
L 67.307863 76.629977 
L 67.70499 76.056266 
L 68.101818 75.505533 
L 68.498324 74.977767 
L 68.894489 74.472949 
L 69.290296 73.991061 
L 69.685722 73.532082 
L 70.080748 73.095989 
L 70.475357 72.682754 
L 70.869527 72.292353 
L 71.263239 71.924752 
L 71.656476 71.579919 
L 72.049218 71.257821 
L 72.441444 70.95842 
L 72.833136 70.681678 
L 73.224278 70.427551 
L 73.614849 70.195998 
L 74.00483 69.986972 
L 74.394205 69.800425 
L 74.782953 69.636309 
L 75.171058 69.49457 
L 75.558502 69.375154 
L 75.945266 69.278005 
L 76.331333 69.203065 
L 76.716685 69.150274 
L 77.101306 69.119569 
L 77.485177 69.110887 
L 77.868281 69.12416 
L 78.250603 69.159321 
L 78.632124 69.216299 
L 79.012828 69.295023 
L 79.3927 69.395419 
L 79.771721 69.51741 
L 80.149875 69.660919 
L 80.527149 69.825868 
L 80.903524 70.012174 
L 81.278985 70.219755 
L 81.653517 70.448526 
L 82.027106 70.698401 
L 82.399734 70.969291 
L 82.771387 71.261107 
L 83.142051 71.573756 
L 83.511709 71.907148 
L 83.880349 72.261185 
L 84.247955 72.635773 
L 84.614515 73.030815 
L 84.980013 73.44621 
L 85.344434 73.881856 
L 85.707767 74.337655 
L 86.069997 74.813499 
L 86.431111 75.309283 
L 86.791097 75.824908 
L 87.14994 76.360256 
L 87.507629 76.915225 
L 87.864151 77.489699 
L 88.219492 78.083571 
L 88.573642 78.696725 
L 88.926589 79.329051 
L 89.278319 79.980429 
L 89.628822 80.650745 
L 89.978088 81.339882 
L 90.326102 82.047717 
" clip-path="url(#p9b37cd90f9)" style="fill: none; stroke: #1f77b4; stroke-width: 1.5"/>
    <path d="M 58.566253 120.082803 
L 58.961017 118.622062 
L 59.356169 117.183014 
L 59.751687 115.765745 
L 60.147552 114.370327 
L 60.543744 112.996831 
L 60.940239 111.645339 
L 61.337018 110.315912 
L 61.73406 109.008623 
L 62.131347 107.723527 
L 62.528853 106.4607 
L 62.926562 105.220189 
L 63.324449 104.002066 
L 63.722495 102.806378 
L 64.12068 101.633179 
L 64.518981 100.482522 
L 64.91738 99.35445 
L 65.315855 98.249012 
L 65.714383 97.166258 
L 66.112944 96.106222 
L 66.511519 95.068945 
L 66.910085 94.054465 
L 67.308624 93.062809 
L 67.707112 92.094017 
L 68.105531 91.148113 
L 68.503858 90.225127 
L 68.902073 89.325083 
L 69.300156 88.448001 
L 69.698087 87.593898 
L 70.095843 86.762798 
L 70.493406 85.95471 
L 70.890755 85.169647 
L 71.287868 84.407621 
L 71.684726 83.668638 
L 72.08131 82.952701 
L 72.477598 82.259817 
L 72.873569 81.589983 
L 73.269206 80.943195 
L 73.664487 80.319453 
L 74.059392 79.718747 
L 74.453901 79.141068 
L 74.847997 78.586403 
L 75.241657 78.054742 
L 75.634863 77.546064 
L 76.027596 77.060352 
L 76.419835 76.597586 
L 76.811563 76.157741 
L 77.20276 75.740791 
L 77.593406 75.34671 
L 77.983483 74.975467 
L 78.372973 74.627027 
L 78.761857 74.301358 
L 79.150114 73.998423 
L 79.537728 73.718182 
L 79.924681 73.460592 
L 80.310954 73.225613 
L 80.696528 73.013196 
L 81.081387 72.823295 
L 81.465512 72.655859 
L 81.848886 72.510836 
L 82.231492 72.388172 
L 82.613311 72.28781 
L 82.994327 72.209692 
L 83.374522 72.153758 
L 83.753881 72.119945 
L 84.132386 72.108189 
L 84.51002 72.118423 
L 84.886768 72.150579 
L 85.262611 72.204587 
L 85.637536 72.280374 
L 86.011526 72.377866 
L 86.384564 72.496987 
L 86.756635 72.63766 
L 87.127725 72.799805 
L 87.497817 72.983339 
L 87.866896 73.188181 
L 88.234947 73.414245 
L 88.601958 73.661444 
L 88.96791 73.92969 
L 89.332792 74.218894 
L 89.696588 74.528962 
L 90.059283 74.859802 
L 90.420866 75.211319 
L 90.781321 75.583415 
L 91.140636 75.975996 
L 91.498797 76.388959 
L 91.85579 76.822202 
L 92.211603 77.275625 
L 92.566222 77.749123 
L 92.919637 78.242589 
L 93.271833 78.755921 
L 93.622799 79.289005 
L 93.972524 79.841737 
L 94.320993 80.413999 
L 94.668196 81.005686 
L 95.014122 81.61668 
L 95.358761 82.246871 
L 95.702099 82.896139 
L 96.044127 83.564369 
L 96.384834 84.251444 
L 96.724209 84.957241 
" clip-path="url(#p9b37cd90f9)" style="fill: none; stroke: #1f77b4; stroke-width: 1.5"/>
    <path d="M 65.356544 121.185183 
L 65.753954 119.716513 
L 66.151635 118.269635 
L 66.549566 116.844634 
L 66.947726 115.441586 
L 67.346095 114.060561 
L 67.74465 112.701641 
L 68.143371 111.36489 
L 68.542237 110.05038 
L 68.941228 108.758169 
L 69.340322 107.488329 
L 69.739498 106.240913 
L 70.138735 105.01599 
L 70.538012 103.81361 
L 70.937307 102.633825 
L 71.336601 101.476691 
L 71.735872 100.342251 
L 72.1351 99.230554 
L 72.534262 98.14165 
L 72.933338 97.075575 
L 73.332307 96.03237 
L 73.731148 95.012071 
L 74.129842 94.014709 
L 74.528366 93.040323 
L 74.9267 92.088936 
L 75.324823 91.160581 
L 75.722715 90.255279 
L 76.120354 89.373053 
L 76.517723 88.51392 
L 76.914797 87.677902 
L 77.311557 86.865011 
L 77.707985 86.075257 
L 78.104058 85.308655 
L 78.499757 84.565211 
L 78.895062 83.844927 
L 79.289952 83.147809 
L 79.684407 82.473856 
L 80.078409 81.823064 
L 80.471937 81.195431 
L 80.86497 80.590949 
L 81.25749 80.009609 
L 81.649478 79.451397 
L 82.040913 78.916301 
L 82.431777 78.404305 
L 82.822051 77.915386 
L 83.211714 77.449528 
L 83.600749 77.006705 
L 83.989137 76.586889 
L 84.376858 76.190055 
L 84.763894 75.816172 
L 85.150228 75.465205 
L 85.53584 75.13712 
L 85.920712 74.831881 
L 86.304826 74.549447 
L 86.688165 74.289776 
L 87.070709 74.052826 
L 87.452443 73.838548 
L 87.833348 73.646895 
L 88.213407 73.477817 
L 88.592603 73.331261 
L 88.970919 73.207171 
L 89.348337 73.105492 
L 89.724841 73.026164 
L 90.100415 72.969126 
L 90.475043 72.934315 
L 90.848706 72.921667 
L 91.221391 72.931113 
L 91.593081 72.962585 
L 91.963759 73.016012 
L 92.333411 73.091321 
L 92.702022 73.188438 
L 93.069574 73.307285 
L 93.436054 73.447783 
L 93.801448 73.609854 
L 94.165739 73.793414 
L 94.528914 73.998379 
L 94.890958 74.224663 
L 95.251857 74.47218 
L 95.611597 74.740839 
L 95.970165 75.030552 
L 96.327546 75.341221 
L 96.683726 75.672757 
L 97.038693 76.025062 
L 97.392435 76.398038 
L 97.744938 76.791589 
L 98.096189 77.205611 
L 98.446175 77.640002 
L 98.794884 78.094662 
L 99.142305 78.569482 
L 99.488425 79.064356 
L 99.833234 79.579183 
L 100.176718 80.113844 
L 100.518868 80.668236 
L 100.85967 81.242241 
L 101.199116 81.83575 
L 101.537193 82.448648 
L 101.873892 83.08082 
L 102.209202 83.732148 
L 102.543113 84.402514 
L 102.875616 85.0918 
L 103.206698 85.799884 
" clip-path="url(#p9b37cd90f9)" style="fill: none; stroke: #1f77b4; stroke-width: 1.5"/>
    <path d="M 72.210813 120.090746 
L 72.61161 118.611293 
L 73.01256 117.153808 
L 73.413639 115.718379 
L 73.814828 114.305082 
L 74.216107 112.913989 
L 74.617451 111.545182 
L 75.018842 110.198727 
L 75.420256 108.874696 
L 75.821675 107.573148 
L 76.223075 106.294158 
L 76.624436 105.037777 
L 77.025736 103.804077 
L 77.426954 102.593107 
L 77.828068 101.404921 
L 78.229058 100.239576 
L 78.629904 99.097114 
L 79.030584 97.977588 
L 79.431074 96.881044 
L 79.831356 95.807523 
L 80.231408 94.757063 
L 80.631209 93.729703 
L 81.030739 92.725473 
L 81.429976 91.744413 
L 81.8289 90.786546 
L 82.227489 89.851906 
L 82.625723 88.940514 
L 83.023582 88.052393 
L 83.421046 87.18756 
L 83.818092 86.346038 
L 84.214701 85.527839 
L 84.610853 84.732974 
L 85.006527 83.961456 
L 85.401704 83.213291 
L 85.796363 82.488482 
L 86.190484 81.787036 
L 86.584047 81.108951 
L 86.977034 80.454222 
L 87.369423 79.822848 
L 87.761195 79.214821 
L 88.152332 78.63013 
L 88.542813 78.068762 
L 88.93262 77.530706 
L 89.321732 77.015942 
L 89.710133 76.524451 
L 90.097801 76.056214 
L 90.484719 75.611204 
L 90.870869 75.189394 
L 91.256231 74.790759 
L 91.640787 74.415265 
L 92.024521 74.062878 
L 92.407412 73.733564 
L 92.789443 73.427286 
L 93.170596 73.144001 
L 93.550856 72.883668 
L 93.930201 72.646242 
L 94.308617 72.431676 
L 94.686087 72.239921 
L 95.062592 72.070925 
L 95.438116 71.924635 
L 95.812644 71.800995 
L 96.186156 71.699948 
L 96.558639 71.621432 
L 96.930075 71.565388 
L 97.30045 71.531749 
L 97.669746 71.520451 
L 98.037948 71.531425 
L 98.405041 71.5646 
L 98.771009 71.619905 
L 99.135838 71.697267 
L 99.499512 71.796607 
L 99.862017 71.91785 
L 100.223338 72.060914 
L 100.583461 72.225719 
L 100.942371 72.41218 
L 101.300055 72.620212 
L 101.656499 72.849729 
L 102.01169 73.100641 
L 102.365613 73.372858 
L 102.718256 73.666288 
L 103.069605 73.980835 
L 103.419648 74.316406 
L 103.768371 74.672902 
L 104.115764 75.050223 
L 104.461814 75.448273 
L 104.806508 75.866946 
L 105.149834 76.306138 
L 105.491781 76.765747 
L 105.832338 77.245663 
L 106.171493 77.745779 
L 106.509236 78.265991 
L 106.845554 78.80618 
L 107.18044 79.36624 
L 107.513879 79.946052 
L 107.845864 80.545506 
L 108.176384 81.164483 
L 108.50543 81.80287 
L 108.832991 82.460543 
L 109.159058 83.137385 
L 109.483624 83.833276 
L 109.806676 84.548092 
" clip-path="url(#p9b37cd90f9)" style="fill: none; stroke: #1f77b4; stroke-width: 1.5"/>
    <path d="M 79.167147 116.745165 
L 79.572108 115.251949 
L 79.977101 113.78096 
L 80.3821 112.332288 
L 80.787086 110.90601 
L 81.192038 109.502199 
L 81.596932 108.120939 
L 82.001748 106.762297 
L 82.406463 105.426347 
L 82.811058 104.113147 
L 83.215508 102.822776 
L 83.619794 101.555284 
L 84.023892 100.310745 
L 84.427783 99.089208 
L 84.831443 97.890731 
L 85.234853 96.715367 
L 85.637991 95.563164 
L 86.040836 94.434171 
L 86.443364 93.328438 
L 86.845555 92.246005 
L 87.247389 91.186912 
L 87.648843 90.151198 
L 88.049899 89.138893 
L 88.450533 88.150038 
L 88.850726 87.184657 
L 89.250454 86.242783 
L 89.649699 85.324438 
L 90.04844 84.429645 
L 90.446656 83.558422 
L 90.844326 82.710792 
L 91.24143 81.886766 
L 91.637948 81.086356 
L 92.033859 80.309574 
L 92.429142 79.556428 
L 92.82378 78.82692 
L 93.21775 78.121055 
L 93.611033 77.438832 
L 94.00361 76.780247 
L 94.395461 76.145297 
L 94.786566 75.533975 
L 95.176905 74.946269 
L 95.566462 74.382165 
L 95.955215 73.841651 
L 96.343145 73.324709 
L 96.730236 72.831317 
L 97.116465 72.361454 
L 97.501817 71.915098 
L 97.886272 71.492216 
L 98.269812 71.092782 
L 98.652419 70.716765 
L 99.034076 70.364128 
L 99.414764 70.034835 
L 99.794464 69.728849 
L 100.173161 69.446127 
L 100.550837 69.186625 
L 100.927475 68.950298 
L 101.303056 68.737098 
L 101.677567 68.546974 
L 102.050988 68.379874 
L 102.423304 68.235742 
L 102.7945 68.114521 
L 103.164556 68.016153 
L 103.533459 67.940576 
L 103.901193 67.887727 
L 104.267743 67.857539 
L 104.633092 67.849946 
L 104.997226 67.864878 
L 105.36013 67.902262 
L 105.721788 67.962025 
L 106.082186 68.044092 
L 106.44131 68.148384 
L 106.799146 68.274822 
L 107.155678 68.423324 
L 107.510896 68.593807 
L 107.864782 68.786185 
L 108.217325 69.000371 
L 108.568512 69.236276 
L 108.918329 69.493809 
L 109.266764 69.772878 
L 109.613804 70.073389 
L 109.959435 70.395243 
L 110.303647 70.738347 
L 110.646427 71.102597 
L 110.987764 71.487894 
L 111.327646 71.894138 
L 111.666062 72.321221 
L 112.002999 72.769037 
L 112.338447 73.237481 
L 112.672396 73.726443 
L 113.004835 74.235812 
L 113.335755 74.765482 
L 113.665143 75.315331 
L 113.992992 75.885252 
L 114.31929 76.475123 
L 114.644028 77.084831 
L 114.967197 77.714256 
L 115.28879 78.363282 
L 115.608795 79.031783 
L 115.927205 79.719639 
L 116.244011 80.426727 
L 116.559205 81.152921 
" clip-path="url(#p9b37cd90f9)" style="fill: none; stroke: #1f77b4; stroke-width: 1.5"/>
    <path d="M 86.266001 111.06794 
L 86.675953 109.55782 
L 87.085808 108.070273 
L 87.495543 106.605391 
L 87.905136 105.163252 
L 88.314566 103.743932 
L 88.723809 102.347516 
L 89.132844 100.974072 
L 89.541649 99.623676 
L 89.950203 98.29639 
L 90.358481 96.99229 
L 90.766464 95.71143 
L 91.174128 94.453885 
L 91.581451 93.219705 
L 91.988412 92.008948 
L 92.394989 90.821672 
L 92.801162 89.65792 
L 93.206907 88.517746 
L 93.612202 87.401202 
L 94.017026 86.308325 
L 94.421359 85.239157 
L 94.825177 84.193739 
L 95.228462 83.172101 
L 95.63119 82.174284 
L 96.033342 81.200313 
L 96.434894 80.25022 
L 96.835826 79.32403 
L 97.236118 78.421764 
L 97.635751 77.543441 
L 98.0347 76.689083 
L 98.432947 75.858704 
L 98.830472 75.052312 
L 99.227253 74.269922 
L 99.623271 73.511542 
L 100.018506 72.77717 
L 100.412937 72.066814 
L 100.806544 71.380474 
L 101.199309 70.718142 
L 101.59121 70.079817 
L 101.982229 69.465487 
L 102.372347 68.875146 
L 102.761545 68.308776 
L 103.149802 67.766364 
L 103.537101 67.247892 
L 103.923424 66.753335 
L 104.308749 66.282674 
L 104.693061 65.835883 
L 105.076341 65.412932 
L 105.458569 65.013793 
L 105.839729 64.638429 
L 106.219804 64.286805 
L 106.598775 63.958886 
L 106.976623 63.654631 
L 107.353333 63.373994 
L 107.728889 63.116932 
L 108.103271 62.8834 
L 108.476464 62.673345 
L 108.848453 62.486716 
L 109.219218 62.323458 
L 109.588746 62.183516 
L 109.957021 62.066828 
L 110.324025 61.973336 
L 110.689743 61.902977 
L 111.054162 61.855683 
L 111.417265 61.831387 
L 111.779037 61.830019 
L 112.139463 61.851511 
L 112.49853 61.895785 
L 112.856222 61.962765 
L 113.212525 62.052375 
L 113.567427 62.164534 
L 113.920912 62.299159 
L 114.272967 62.456168 
L 114.62358 62.635474 
L 114.972736 62.836988 
L 115.320422 63.060622 
L 115.666628 63.306284 
L 116.01134 63.573881 
L 116.354545 63.863316 
L 116.696233 64.174494 
L 117.036389 64.507314 
L 117.375004 64.861678 
L 117.712065 65.237483 
L 118.047563 65.634623 
L 118.381486 66.052997 
L 118.713823 66.492495 
L 119.044563 66.953007 
L 119.373696 67.434426 
L 119.701212 67.936638 
L 120.027102 68.459529 
L 120.351357 69.00299 
L 120.673965 69.566897 
L 120.99492 70.15114 
L 121.31421 70.755592 
L 121.631827 71.380139 
L 121.947764 72.024657 
L 122.262012 72.689026 
L 122.574562 73.373118 
L 122.885407 74.07681 
L 123.19454 74.799976 
L 123.501952 75.542486 
" clip-path="url(#p9b37cd90f9)" style="fill: none; stroke: #1f77b4; stroke-width: 1.5"/>
    <path d="M 93.551058 102.94972 
L 93.966883 101.419348 
L 94.382478 99.911988 
L 94.797818 98.427736 
L 95.212882 96.966671 
L 95.627647 95.528871 
L 96.042089 94.114424 
L 96.456186 92.7234 
L 96.869916 91.355875 
L 97.283257 90.011914 
L 97.696184 88.691595 
L 98.108677 87.394973 
L 98.520711 86.122125 
L 98.932266 84.873103 
L 99.343318 83.647965 
L 99.753845 82.44677 
L 100.163827 81.269564 
L 100.57324 80.1164 
L 100.982061 78.987334 
L 101.390269 77.8824 
L 101.797842 76.801644 
L 102.204759 75.745106 
L 102.610999 74.712818 
L 103.016538 73.70482 
L 103.421357 72.721139 
L 103.825432 71.761807 
L 104.228744 70.826849 
L 104.63127 69.916287 
L 105.032992 69.030137 
L 105.433886 68.168425 
L 105.833933 67.331164 
L 106.233112 66.518361 
L 106.631402 65.730031 
L 107.028782 64.966181 
L 107.425235 64.226812 
L 107.820736 63.51193 
L 108.215269 62.821529 
L 108.608813 62.155608 
L 109.001348 61.514162 
L 109.392855 60.897179 
L 109.783314 60.304651 
L 110.172707 59.736559 
L 110.561014 59.192891 
L 110.948216 58.673626 
L 111.334296 58.178739 
L 111.719233 57.70821 
L 112.10301 57.26201 
L 112.485611 56.840108 
L 112.867014 56.442475 
L 113.247203 56.069073 
L 113.626162 55.719865 
L 114.003872 55.394813 
L 114.380315 55.093876 
L 114.755476 54.817006 
L 115.129337 54.564158 
L 115.501881 54.335283 
L 115.873092 54.130328 
L 116.242955 53.949239 
L 116.611452 53.79196 
L 116.978568 53.658431 
L 117.344289 53.548592 
L 117.708596 53.462378 
L 118.071477 53.399726 
L 118.432915 53.360566 
L 118.792898 53.344827 
L 119.151409 53.352439 
L 119.508434 53.383325 
L 119.86396 53.437409 
L 120.217972 53.514613 
L 120.570456 53.614857 
L 120.921401 53.738056 
L 121.27079 53.884125 
L 121.618613 54.052978 
L 121.964857 54.244527 
L 122.309508 54.458677 
L 122.652554 54.695338 
L 122.993984 54.954415 
L 123.333786 55.23581 
L 123.671947 55.539428 
L 124.008458 55.865164 
L 124.343305 56.212918 
L 124.676478 56.582587 
L 125.007967 56.974064 
L 125.337762 57.387238 
L 125.665852 57.822009 
L 125.992227 58.278259 
L 126.316876 58.755876 
L 126.639791 59.25475 
L 126.960962 59.774762 
L 127.280381 60.315795 
L 127.598039 60.877736 
L 127.913925 61.460457 
L 128.228034 62.063844 
L 128.540355 62.687766 
L 128.850882 63.332106 
L 129.159606 63.996735 
L 129.466521 64.68153 
L 129.771618 65.386359 
L 130.074891 66.111094 
L 130.376334 66.855605 
L 130.675939 67.619758 
" clip-path="url(#p9b37cd90f9)" style="fill: none; stroke: #1f77b4; stroke-width: 1.5"/>
    <path d="M 24.318635 81.868935 
L 25.025641 83.182889 
L 25.731159 84.473354 
L 26.435225 85.740419 
L 27.137878 86.984178 
L 27.839158 88.204725 
L 28.5391 89.402139 
L 29.237744 90.57651 
L 29.935126 91.727916 
L 30.631287 92.856445 
L 31.326259 93.962164 
L 32.020084 95.045156 
L 32.712795 96.105484 
L 33.40443 97.143223 
L 34.095027 98.158442 
L 34.784621 99.151201 
L 35.47325 100.121569 
L 36.160951 101.069603 
L 36.847755 101.995355 
L 37.533702 102.898888 
L 38.218828 103.780253 
L 38.903167 104.639499 
L 39.586759 105.476678 
L 40.269634 106.291834 
L 40.951832 107.08501 
L 41.633386 107.856249 
L 42.314331 108.605588 
L 42.994703 109.333066 
L 43.674541 110.038721 
L 44.353875 110.722579 
L 45.032742 111.384673 
L 45.711179 112.025033 
L 46.389219 112.643682 
L 47.066897 113.240644 
L 47.744251 113.815941 
L 48.421312 114.36959 
L 49.098118 114.901611 
L 49.774705 115.412017 
L 50.451104 115.900818 
L 51.127353 116.368028 
L 51.803487 116.813651 
L 52.479542 117.237696 
L 53.155551 117.640163 
L 53.83155 118.021055 
L 54.507577 118.380372 
L 55.183663 118.718108 
L 55.859845 119.034257 
L 56.536161 119.328813 
L 57.212643 119.601764 
L 57.889327 119.853099 
L 58.566253 120.082803 
L 59.243453 120.290857 
L 59.920961 120.477243 
L 60.598815 120.64194 
L 61.277054 120.784923 
L 61.955709 120.906165 
L 62.634819 121.005638 
L 63.314423 121.083311 
L 63.994552 121.13915 
L 64.675246 121.17312 
L 65.356544 121.185183 
L 66.038478 121.175298 
L 66.721087 121.14342 
L 67.40441 121.089506 
L 68.088485 121.013508 
L 68.773346 120.915374 
L 69.459034 120.795054 
L 70.145587 120.65249 
L 70.833041 120.487625 
L 71.521436 120.300398 
L 72.210813 120.090746 
L 72.901207 119.858606 
L 73.592658 119.603907 
L 74.285209 119.326577 
L 74.978895 119.026548 
L 75.673757 118.703739 
L 76.369837 118.358074 
L 77.067177 117.989469 
L 77.765813 117.597841 
L 78.46579 117.183102 
L 79.167147 116.745165 
L 79.869926 116.283934 
L 80.574169 115.799314 
L 81.279919 115.291211 
L 81.987221 114.759515 
L 82.696116 114.204127 
L 83.406645 113.624942 
L 84.118853 113.021844 
L 84.832785 112.394724 
L 85.548485 111.743465 
L 86.266001 111.06794 
L 86.985373 110.368036 
L 87.706652 109.64362 
L 88.429879 108.894568 
L 89.155103 108.120743 
L 89.882371 107.322012 
L 90.611733 106.498229 
L 91.343233 105.649259 
L 92.07692 104.774951 
L 92.812847 103.875155 
L 93.551058 102.94972 
" clip-path="url(#p9b37cd90f9)" style="fill: none; stroke: #1f77b4; stroke-width: 1.5"/>
    <path d="M 28.279656 68.264617 
L 28.985001 69.583979 
L 29.688929 70.879613 
L 30.391474 72.151607 
L 31.092677 73.400058 
L 31.792577 74.62506 
L 32.491208 75.82669 
L 33.188611 77.005041 
L 33.884822 78.160191 
L 34.579881 79.292228 
L 35.27382 80.401219 
L 35.966682 81.487248 
L 36.658498 82.550377 
L 37.349307 83.590684 
L 38.039147 84.608235 
L 38.728053 85.603093 
L 39.416063 86.575325 
L 40.103213 87.52499 
L 40.789535 88.45214 
L 41.475069 89.356836 
L 42.159849 90.239131 
L 42.843912 91.099074 
L 43.527296 91.936718 
L 44.210031 92.752104 
L 44.892158 93.545279 
L 45.573708 94.316282 
L 46.254719 95.065153 
L 46.935225 95.79193 
L 47.615265 96.496649 
L 48.29487 97.179339 
L 48.974076 97.840031 
L 49.652921 98.478756 
L 50.331436 99.095536 
L 51.009659 99.690394 
L 51.687627 100.263355 
L 52.36537 100.814434 
L 53.042927 101.343647 
L 53.720333 101.851011 
L 54.397621 102.336537 
L 55.074828 102.800234 
L 55.751989 103.242109 
L 56.42914 103.662169 
L 57.106315 104.060415 
L 57.783549 104.436848 
L 58.46088 104.791469 
L 59.13834 105.12427 
L 59.815967 105.435246 
L 60.493797 105.724389 
L 61.171863 105.991687 
L 61.850203 106.23713 
L 62.528853 106.4607 
L 63.207849 106.662379 
L 63.887224 106.842147 
L 64.567017 106.999983 
L 65.247265 107.135861 
L 65.928001 107.249754 
L 66.609264 107.341632 
L 67.291092 107.411464 
L 67.973519 107.459216 
L 68.656582 107.484851 
L 69.340322 107.488329 
L 70.024771 107.469611 
L 70.709969 107.428648 
L 71.395953 107.365399 
L 72.082764 107.279812 
L 72.770435 107.171838 
L 73.459007 107.04142 
L 74.14852 106.888502 
L 74.839008 106.71303 
L 75.530513 106.514935 
L 76.223075 106.294158 
L 76.91673 106.05063 
L 77.611519 105.784283 
L 78.307484 105.495043 
L 79.004662 105.182837 
L 79.703094 104.847588 
L 80.402821 104.489214 
L 81.103886 104.107633 
L 81.806327 103.702759 
L 82.510188 103.274503 
L 83.215508 102.822776 
L 83.92233 102.34748 
L 84.630698 101.848521 
L 85.340653 101.325799 
L 86.052242 100.779206 
L 86.765505 100.208641 
L 87.480485 99.613995 
L 88.197227 98.995153 
L 88.915777 98.352002 
L 89.636179 97.684423 
L 90.358481 96.99229 
L 91.082725 96.275485 
L 91.808961 95.533874 
L 92.537231 94.767333 
L 93.267586 93.97572 
L 94.000072 93.1589 
L 94.73474 92.316728 
L 95.471634 91.449063 
L 96.210806 90.555755 
L 96.952308 89.63665 
L 97.696184 88.691595 
" clip-path="url(#p9b37cd90f9)" style="fill: none; stroke: #1f77b4; stroke-width: 1.5"/>
    <path d="M 32.320305 56.954651 
L 33.022734 58.276188 
L 33.72382 59.573842 
L 34.423599 60.847702 
L 35.122109 62.097864 
L 35.819392 63.32442 
L 36.515479 64.527451 
L 37.210411 65.707048 
L 37.904225 66.86329 
L 38.59696 67.996263 
L 39.288648 69.106036 
L 39.979331 70.192693 
L 40.669041 71.256295 
L 41.357817 72.29692 
L 42.045695 73.314635 
L 42.73271 74.309502 
L 43.418902 75.281589 
L 44.104305 76.230954 
L 44.788951 77.157649 
L 45.47288 78.061736 
L 46.156126 78.943266 
L 46.838726 79.802289 
L 47.520716 80.638859 
L 48.202129 81.453014 
L 48.883004 82.244804 
L 49.563372 83.014266 
L 50.24327 83.761441 
L 50.922734 84.486366 
L 51.601802 85.189076 
L 52.280503 85.869601 
L 52.958876 86.527973 
L 53.636957 87.16422 
L 54.314778 87.778365 
L 54.992376 88.370432 
L 55.669788 88.940444 
L 56.347045 89.488416 
L 57.024184 90.014365 
L 57.701242 90.518306 
L 58.378251 91.000251 
L 59.055248 91.460207 
L 59.732267 91.898183 
L 60.409347 92.314184 
L 61.086518 92.708212 
L 61.763818 93.080267 
L 62.441285 93.430347 
L 63.118949 93.758448 
L 63.796849 94.064561 
L 64.475021 94.348681 
L 65.153499 94.610794 
L 65.832318 94.850887 
L 66.511519 95.068945 
L 67.191133 95.264949 
L 67.871197 95.438878 
L 68.551747 95.590709 
L 69.232822 95.720417 
L 69.914455 95.827975 
L 70.596685 95.913352 
L 71.279549 95.976517 
L 71.963081 96.017432 
L 72.647321 96.036063 
L 73.332307 96.03237 
L 74.018072 96.006309 
L 74.704657 95.957837 
L 75.392098 95.886905 
L 76.080437 95.793466 
L 76.769707 95.677467 
L 77.459948 95.538852 
L 78.151202 95.377565 
L 78.843502 95.193547 
L 79.53689 94.986734 
L 80.231408 94.757063 
L 80.92709 94.504465 
L 81.623979 94.22887 
L 82.322116 93.930205 
L 83.021538 93.608396 
L 83.722287 93.263363 
L 84.424405 92.895026 
L 85.127934 92.503299 
L 85.832911 92.088099 
L 86.539384 91.649333 
L 87.247389 91.186912 
L 87.956971 90.700738 
L 88.668173 90.190715 
L 89.381037 89.656741 
L 90.095611 89.09871 
L 90.811934 88.516516 
L 91.53005 87.910053 
L 92.250005 87.279202 
L 92.971844 86.62385 
L 93.695613 85.943878 
L 94.421359 85.239157 
L 95.149124 84.50957 
L 95.878959 83.754979 
L 96.610908 82.97526 
L 97.34502 82.170271 
L 98.081342 81.339876 
L 98.819927 80.483926 
L 99.560818 79.602281 
L 100.304066 78.694789 
L 101.049726 77.761295 
L 101.797842 76.801644 
" clip-path="url(#p9b37cd90f9)" style="fill: none; stroke: #1f77b4; stroke-width: 1.5"/>
    <path d="M 36.419137 47.985383 
L 37.117424 49.305851 
L 37.814448 50.602366 
L 38.510243 51.875016 
L 39.204848 53.123897 
L 39.898302 54.349103 
L 40.590638 55.550712 
L 41.281896 56.728816 
L 41.972112 57.883492 
L 42.661325 59.014828 
L 43.349568 60.122891 
L 44.03688 61.207765 
L 44.723295 62.269512 
L 45.40885 63.308208 
L 46.093581 64.323921 
L 46.777524 65.316712 
L 47.460717 66.286648 
L 48.143194 67.233788 
L 48.824988 68.158184 
L 49.506136 69.059896 
L 50.186675 69.938977 
L 50.866639 70.795475 
L 51.546067 71.629443 
L 52.224988 72.440921 
L 52.903442 73.229957 
L 53.581461 73.996588 
L 54.259081 74.740856 
L 54.936338 75.462795 
L 55.613268 76.162443 
L 56.289902 76.839827 
L 56.966278 77.49498 
L 57.642432 78.12793 
L 58.318395 78.738699 
L 58.994205 79.327311 
L 59.669897 79.893788 
L 60.345504 80.438146 
L 61.021061 80.960401 
L 61.696607 81.460569 
L 62.372172 81.938658 
L 63.047793 82.394679 
L 63.723505 82.828638 
L 64.399345 83.240542 
L 65.075344 83.630389 
L 65.751541 83.998182 
L 66.427971 84.343919 
L 67.104667 84.667593 
L 67.781666 84.969198 
L 68.459005 85.248725 
L 69.136716 85.506163 
L 69.814837 85.741496 
L 70.493406 85.95471 
L 71.172456 86.145786 
L 71.852022 86.314702 
L 72.532141 86.461436 
L 73.212853 86.585962 
L 73.894189 86.688251 
L 74.576188 86.768274 
L 75.258889 86.825998 
L 75.942325 86.861387 
L 76.626535 86.874405 
L 77.311557 86.865011 
L 77.997426 86.833162 
L 78.684181 86.778814 
L 79.37186 86.701919 
L 80.060503 86.602428 
L 80.750143 86.480287 
L 81.440822 86.335443 
L 82.13258 86.167837 
L 82.825452 85.977411 
L 83.519478 85.7641 
L 84.214701 85.527839 
L 84.911155 85.268562 
L 85.608883 84.986197 
L 86.307926 84.680671 
L 87.008321 84.351909 
L 87.710112 83.999831 
L 88.413337 83.624357 
L 89.118042 83.225401 
L 89.824263 82.802878 
L 90.532046 82.356696 
L 91.24143 81.886766 
L 91.952459 81.392989 
L 92.665175 80.875269 
L 93.379623 80.333503 
L 94.095848 79.767586 
L 94.813891 79.177411 
L 95.533795 78.56287 
L 96.255608 77.923846 
L 96.979373 77.260225 
L 97.705137 76.571888 
L 98.432947 75.858704 
L 99.162846 75.120556 
L 99.894886 74.357309 
L 100.629108 73.568835 
L 101.365563 72.754992 
L 102.1043 71.915644 
L 102.845369 71.050644 
L 103.588815 70.159849 
L 104.334691 69.243108 
L 105.083048 68.300264 
L 105.833933 67.331164 
" clip-path="url(#p9b37cd90f9)" style="fill: none; stroke: #1f77b4; stroke-width: 1.5"/>
    <path d="M 40.554332 41.378444 
L 41.247296 42.694629 
L 41.939078 43.986876 
L 42.629713 45.255273 
L 43.319238 46.499914 
L 44.007694 47.720892 
L 44.695111 48.918287 
L 45.381529 50.092187 
L 46.066984 51.242672 
L 46.751515 52.369826 
L 47.435152 53.473717 
L 48.117937 54.554428 
L 48.7999 55.612021 
L 49.48108 56.646571 
L 50.161513 57.658144 
L 50.841233 58.646803 
L 51.520277 59.612613 
L 52.19868 60.555633 
L 52.876474 61.475914 
L 53.553697 62.373515 
L 54.230383 63.248489 
L 54.906567 64.100885 
L 55.582287 64.930754 
L 56.257573 65.738135 
L 56.932464 66.523077 
L 57.606991 67.285616 
L 58.28119 68.025793 
L 58.955096 68.743643 
L 59.628746 69.439202 
L 60.30217 70.112498 
L 60.975405 70.763563 
L 61.648488 71.392424 
L 62.321449 71.999104 
L 62.994325 72.583625 
L 63.667153 73.14601 
L 64.339963 73.686275 
L 65.012791 74.204434 
L 65.685675 74.700505 
L 66.358646 75.174494 
L 67.031739 75.626412 
L 67.70499 76.056266 
L 68.378436 76.46406 
L 69.052108 76.849796 
L 69.726042 77.213472 
L 70.400277 77.555089 
L 71.074842 77.874638 
L 71.749775 78.172115 
L 72.425114 78.44751 
L 73.100889 78.70081 
L 73.777139 78.932001 
L 74.453901 79.141068 
L 75.131209 79.327992 
L 75.809096 79.492751 
L 76.487601 79.635322 
L 77.166762 79.755681 
L 77.846611 79.853797 
L 78.527186 79.929642 
L 79.208527 79.983182 
L 79.890665 80.014382 
L 80.573639 80.023204 
L 81.25749 80.009609 
L 81.942249 79.973554 
L 82.627957 79.914994 
L 83.314651 79.833882 
L 84.002371 79.730168 
L 84.691151 79.603799 
L 85.381031 79.454722 
L 86.072052 79.282877 
L 86.764248 79.088206 
L 87.457661 78.870645 
L 88.152332 78.63013 
L 88.848295 78.366593 
L 89.545594 78.079964 
L 90.244269 77.770169 
L 90.944357 77.437134 
L 91.645902 77.080778 
L 92.348943 76.701022 
L 93.053524 76.297781 
L 93.759682 75.870969 
L 94.467463 75.420494 
L 95.176905 74.946269 
L 95.888054 74.448193 
L 96.600951 73.926172 
L 97.315639 73.380103 
L 98.032166 72.80988 
L 98.750571 72.215398 
L 99.470898 71.59655 
L 100.193194 70.953217 
L 100.917503 70.285286 
L 101.643871 69.592639 
L 102.372347 68.875146 
L 103.102972 68.132691 
L 103.835797 67.365136 
L 104.570866 66.572358 
L 105.308229 65.754213 
L 106.047933 64.910565 
L 106.79003 64.041269 
L 107.534566 63.146182 
L 108.28159 62.225153 
L 109.031158 61.278027 
L 109.783314 60.304651 
" clip-path="url(#p9b37cd90f9)" style="fill: none; stroke: #1f77b4; stroke-width: 1.5"/>
    <path d="M 44.704078 37.130816 
L 45.390591 38.439577 
L 46.076007 39.724499 
L 46.760358 40.985668 
L 47.443683 42.223179 
L 48.12602 43.437122 
L 48.8074 44.627576 
L 49.487862 45.794628 
L 50.167442 46.938357 
L 50.846176 48.058847 
L 51.524096 49.156164 
L 52.201242 50.230391 
L 52.877644 51.281588 
L 53.55334 52.30983 
L 54.228365 53.315182 
L 54.902753 54.297705 
L 55.576542 55.257466 
L 56.249764 56.19452 
L 56.922452 57.10892 
L 57.594642 58.000723 
L 58.266369 58.869982 
L 58.937668 59.716743 
L 59.608574 60.541059 
L 60.279118 61.342968 
L 60.949338 62.122518 
L 61.619265 62.879744 
L 62.288935 63.614686 
L 62.958382 64.32738 
L 63.627642 65.017861 
L 64.296746 65.686157 
L 64.965729 66.332298 
L 65.634628 66.956312 
L 66.303473 67.558221 
L 66.972301 68.138048 
L 67.641146 68.695813 
L 68.310041 69.231533 
L 68.97902 69.745223 
L 69.648121 70.236898 
L 70.317373 70.706567 
L 70.986814 71.154238 
L 71.656476 71.579919 
L 72.326398 71.983615 
L 72.996609 72.365324 
L 73.667146 72.725049 
L 74.338047 73.062786 
L 75.00934 73.37853 
L 75.681065 73.672274 
L 76.353257 73.944009 
L 77.025947 74.193722 
L 77.699174 74.4214 
L 78.372973 74.627027 
L 79.047379 74.810584 
L 79.722425 74.972048 
L 80.398149 75.111399 
L 81.074588 75.22861 
L 81.751775 75.323652 
L 82.429748 75.396496 
L 83.108545 75.44711 
L 83.788198 75.475458 
L 84.468746 75.481503 
L 85.150228 75.465205 
L 85.832677 75.426522 
L 86.516131 75.365409 
L 87.200629 75.28182 
L 87.88621 75.175704 
L 88.572908 75.047011 
L 89.260763 74.895685 
L 89.949814 74.721669 
L 90.640097 74.524905 
L 91.331652 74.305329 
L 92.024521 74.062878 
L 92.718737 73.797485 
L 93.414344 73.509079 
L 94.111382 73.197588 
L 94.809889 72.862937 
L 95.509905 72.505049 
L 96.211472 72.123842 
L 96.914633 71.719234 
L 97.619424 71.291138 
L 98.325893 70.839466 
L 99.034076 70.364128 
L 99.744017 69.865027 
L 100.45576 69.342067 
L 101.169348 68.795148 
L 101.884826 68.224165 
L 102.602235 67.629013 
L 103.321617 67.009586 
L 104.04302 66.365767 
L 104.766488 65.697444 
L 105.492067 65.0045 
L 106.219804 64.286805 
L 106.949741 63.544246 
L 107.68193 62.776685 
L 108.416413 61.984001 
L 109.15324 61.166051 
L 109.89246 60.322701 
L 110.634122 59.453806 
L 111.378272 58.559227 
L 112.124961 57.638812 
L 112.874243 56.692408 
L 113.626162 55.719865 
" clip-path="url(#p9b37cd90f9)" style="fill: none; stroke: #1f77b4; stroke-width: 1.5"/>
    <path d="M 48.846937 35.215521 
L 49.525936 36.513831 
L 50.203924 37.788482 
L 50.880932 39.039558 
L 51.556997 40.267152 
L 52.232157 41.471354 
L 52.906443 42.652239 
L 53.579892 43.809896 
L 54.252539 44.9444 
L 54.924421 46.055834 
L 55.595568 47.144265 
L 56.26602 48.209773 
L 56.935806 49.252416 
L 57.604964 50.27227 
L 58.273526 51.269398 
L 58.941529 52.24386 
L 59.609007 53.195721 
L 60.275992 54.125036 
L 60.942518 55.031857 
L 61.608619 55.91624 
L 62.27433 56.778237 
L 62.939684 57.617894 
L 63.604718 58.435262 
L 64.269461 59.23038 
L 64.93395 60.003293 
L 65.598215 60.754036 
L 66.262293 61.48265 
L 66.926217 62.189169 
L 67.590021 62.873628 
L 68.253737 63.536053 
L 68.917399 64.176475 
L 69.581044 64.794921 
L 70.2447 65.391412 
L 70.908404 65.965972 
L 71.572191 66.51862 
L 72.236091 67.049372 
L 72.90014 67.558244 
L 73.564374 68.04525 
L 74.228822 68.510397 
L 74.89352 68.953697 
L 75.558502 69.375154 
L 76.223805 69.774773 
L 76.889458 70.152556 
L 77.555498 70.508501 
L 78.22196 70.842607 
L 78.888876 71.154867 
L 79.556281 71.445276 
L 80.224212 71.713824 
L 80.892699 71.960499 
L 81.561781 72.185286 
L 82.231492 72.388172 
L 82.901867 72.569135 
L 83.572938 72.728156 
L 84.244743 72.865212 
L 84.917319 72.980278 
L 85.590698 73.073326 
L 86.264916 73.144326 
L 86.940013 73.193247 
L 87.616021 73.220053 
L 88.292976 73.224707 
L 88.970919 73.207171 
L 89.649881 73.167404 
L 90.329901 73.10536 
L 91.011016 73.020993 
L 91.693265 72.914256 
L 92.376683 72.785096 
L 93.061307 72.63346 
L 93.747179 72.459292 
L 94.434332 72.262533 
L 95.122807 72.043122 
L 95.812644 71.800995 
L 96.503878 71.536087 
L 97.19655 71.248328 
L 97.890702 70.937647 
L 98.586369 70.603971 
L 99.283593 70.247222 
L 99.982415 69.867321 
L 100.682878 69.464186 
L 101.385017 69.037734 
L 102.088878 68.587874 
L 102.7945 68.114521 
L 103.501925 67.617578 
L 104.211196 67.09695 
L 104.922355 66.55254 
L 105.635449 65.984243 
L 106.350517 65.391957 
L 107.067602 64.775576 
L 107.78675 64.134987 
L 108.508005 63.470078 
L 109.231413 62.780734 
L 109.957021 62.066828 
L 110.68487 61.328248 
L 111.415012 60.564858 
L 112.147488 59.776539 
L 112.882349 58.963151 
L 113.619641 58.124563 
L 114.359415 57.260629 
L 115.101716 56.371215 
L 115.846595 55.456171 
L 116.594104 54.515346 
L 117.344289 53.548592 
" clip-path="url(#p9b37cd90f9)" style="fill: none; stroke: #1f77b4; stroke-width: 1.5"/>
    <path d="M 52.962197 35.582887 
L 53.632693 36.867868 
L 54.302263 38.129446 
L 54.970938 39.367705 
L 55.638754 40.582734 
L 56.305748 41.774621 
L 56.971951 42.943441 
L 57.637398 44.08928 
L 58.302124 45.212212 
L 58.966164 46.31232 
L 59.629549 47.389666 
L 60.292316 48.44433 
L 60.954496 49.47637 
L 61.616123 50.485859 
L 62.277231 51.47286 
L 62.937854 52.43743 
L 63.598027 53.379635 
L 64.257782 54.299527 
L 64.917149 55.197158 
L 65.576164 56.072583 
L 66.23486 56.925851 
L 66.89327 57.757009 
L 67.55143 58.566107 
L 68.209368 59.353182 
L 68.867121 60.118278 
L 69.524719 60.861432 
L 70.182196 61.582681 
L 70.839585 62.28206 
L 71.496921 62.959602 
L 72.154234 63.615334 
L 72.811558 64.249286 
L 73.468929 64.861484 
L 74.126375 65.451949 
L 74.783931 66.020704 
L 75.441632 66.567768 
L 76.099508 67.093156 
L 76.757594 67.596885 
L 77.415924 68.078967 
L 78.074529 68.539411 
L 78.733443 68.978226 
L 79.3927 69.395419 
L 80.052335 69.790993 
L 80.712378 70.164949 
L 81.372864 70.517288 
L 82.033829 70.848007 
L 82.695303 71.1571 
L 83.357321 71.444561 
L 84.01992 71.710381 
L 84.68313 71.954548 
L 85.346986 72.177048 
L 86.011526 72.377866 
L 86.676781 72.556984 
L 87.342784 72.71438 
L 88.009573 72.850034 
L 88.677183 72.96392 
L 89.345646 73.056011 
L 90.014998 73.126277 
L 90.685278 73.174688 
L 91.356517 73.20121 
L 92.028752 73.205806 
L 92.702022 73.188438 
L 93.376357 73.149065 
L 94.051798 73.087645 
L 94.728379 73.004131 
L 95.40614 72.898476 
L 96.085114 72.77063 
L 96.765339 72.620541 
L 97.446856 72.448152 
L 98.129697 72.253407 
L 98.813902 72.036247 
L 99.499512 71.796607 
L 100.186561 71.534425 
L 100.87509 71.249633 
L 101.565138 70.942159 
L 102.256743 70.611934 
L 102.949944 70.25888 
L 103.644781 69.882921 
L 104.341298 69.483975 
L 105.03953 69.061962 
L 105.739522 68.616793 
L 106.44131 68.148384 
L 107.144939 67.65664 
L 107.85045 67.14147 
L 108.557885 66.602776 
L 109.267289 66.040457 
L 109.978702 65.454413 
L 110.692165 64.84454 
L 111.407725 64.210727 
L 112.125425 63.552866 
L 112.84531 62.870843 
L 113.567427 62.164534 
L 114.291816 61.433828 
L 115.018528 60.678595 
L 115.747605 59.898717 
L 116.479095 59.094056 
L 117.213046 58.264485 
L 117.949508 57.409862 
L 118.688523 56.530053 
L 119.430144 55.624914 
L 120.174422 54.694297 
L 120.921401 53.738056 
" clip-path="url(#p9b37cd90f9)" style="fill: none; stroke: #1f77b4; stroke-width: 1.5"/>
    <path d="M 57.030186 38.162323 
L 57.691268 39.431278 
L 58.35151 40.677158 
L 59.010941 41.900045 
L 59.669597 43.100025 
L 60.327513 44.277186 
L 60.984719 45.4316 
L 61.64125 46.563351 
L 62.297139 47.672511 
L 62.952422 48.759161 
L 63.607128 49.823362 
L 64.261292 50.865192 
L 64.914945 51.884707 
L 65.568121 52.881979 
L 66.220853 53.857068 
L 66.873173 54.810032 
L 67.525116 55.740933 
L 68.176712 56.649824 
L 68.827992 57.536754 
L 69.47899 58.401777 
L 70.129739 59.244942 
L 70.78027 60.066294 
L 71.430619 60.865882 
L 72.080813 61.643742 
L 72.730889 62.399918 
L 73.380875 63.134444 
L 74.030805 63.847358 
L 74.680711 64.538693 
L 75.330629 65.208482 
L 75.980585 65.856752 
L 76.630614 66.48353 
L 77.28075 67.088844 
L 77.931023 67.672714 
L 78.581465 68.23516 
L 79.232112 68.776204 
L 79.882991 69.29586 
L 80.534138 69.794142 
L 81.185587 70.271064 
L 81.837365 70.726636 
L 82.489509 71.160864 
L 83.142051 71.573756 
L 83.795024 71.965317 
L 84.448459 72.335545 
L 85.10239 72.684442 
L 85.756852 73.012006 
L 86.411874 73.318231 
L 87.067492 73.603109 
L 87.72374 73.866635 
L 88.380648 74.108794 
L 89.038252 74.329574 
L 89.696588 74.528962 
L 90.355686 74.706937 
L 91.015579 74.863481 
L 91.676304 74.998572 
L 92.337896 75.112185 
L 93.000385 75.204296 
L 93.663809 75.274874 
L 94.328203 75.32389 
L 94.9936 75.35131 
L 95.660035 75.3571 
L 96.327546 75.341221 
L 96.996164 75.303635 
L 97.665927 75.2443 
L 98.336872 75.16317 
L 99.009035 75.0602 
L 99.682449 74.935342 
L 100.357153 74.788542 
L 101.033185 74.619749 
L 101.710578 74.428906 
L 102.389371 74.215955 
L 103.069605 73.980835 
L 103.751312 73.723484 
L 104.434532 73.443835 
L 105.119306 73.14182 
L 105.805669 72.81737 
L 106.49366 72.47041 
L 107.183319 72.100867 
L 107.874688 71.708659 
L 108.567803 71.29371 
L 109.262706 70.855932 
L 109.959435 70.395243 
L 110.658033 69.911553 
L 111.35854 69.40477 
L 112.060998 68.874802 
L 112.76545 68.321548 
L 113.471937 67.744912 
L 114.1805 67.144793 
L 114.891182 66.521082 
L 115.604029 65.873674 
L 116.319082 65.202458 
L 117.036389 64.507314 
L 117.75599 63.788135 
L 118.477934 63.044793 
L 119.202262 62.277172 
L 119.929023 61.485141 
L 120.658262 60.668573 
L 121.39003 59.827333 
L 122.124368 58.961289 
L 122.861327 58.0703 
L 123.600958 57.154224 
L 124.343305 56.212918 
" clip-path="url(#p9b37cd90f9)" style="fill: none; stroke: #1f77b4; stroke-width: 1.5"/>
    <path d="M 61.032539 42.864518 
L 61.683382 44.114955 
L 62.333469 45.342712 
L 62.982828 46.547867 
L 63.631494 47.730506 
L 64.279502 48.890712 
L 64.926879 50.028557 
L 65.573661 51.144122 
L 66.219879 52.237477 
L 66.865567 53.3087 
L 67.510754 54.357851 
L 68.155476 55.385006 
L 68.79976 56.39022 
L 69.443641 57.373561 
L 70.087149 58.33509 
L 70.730317 59.274861 
L 71.373179 60.192936 
L 72.015764 61.089365 
L 72.658101 61.964197 
L 73.300224 62.817484 
L 73.942165 63.649275 
L 74.583955 64.459611 
L 75.225627 65.248542 
L 75.867209 66.016102 
L 76.508736 66.762334 
L 77.150237 67.487272 
L 77.791743 68.190952 
L 78.433286 68.873406 
L 79.074901 69.534668 
L 79.716614 70.174762 
L 80.358458 70.793715 
L 81.000468 71.391555 
L 81.642671 71.968301 
L 82.285099 72.523971 
L 82.927788 73.058591 
L 83.570764 73.572171 
L 84.214061 74.064724 
L 84.857713 74.536267 
L 85.501747 74.986806 
L 86.146198 75.416352 
L 86.791097 75.824908 
L 87.436478 76.21248 
L 88.08237 76.579068 
L 88.728806 76.924673 
L 89.375821 77.249294 
L 90.023443 77.552924 
L 90.671707 77.835557 
L 91.320646 78.097185 
L 91.970291 78.337796 
L 92.620675 78.55738 
L 93.271833 78.755921 
L 93.923797 78.933402 
L 94.576598 79.089803 
L 95.230271 79.225104 
L 95.884851 79.339282 
L 96.540369 79.432311 
L 97.196859 79.504162 
L 97.854358 79.554808 
L 98.512896 79.584217 
L 99.172509 79.592354 
L 99.833234 79.579183 
L 100.495102 79.544666 
L 101.158148 79.48876 
L 101.822409 79.411426 
L 102.487922 79.312618 
L 103.154718 79.192288 
L 103.822834 79.050385 
L 104.49231 78.886859 
L 105.163176 78.701658 
L 105.835472 78.49472 
L 106.509236 78.265991 
L 107.184501 78.015409 
L 107.861306 77.742909 
L 108.53969 77.448426 
L 109.219688 77.131892 
L 109.90134 76.793237 
L 110.584683 76.432386 
L 111.269759 76.049264 
L 111.956602 75.643794 
L 112.645255 75.215893 
L 113.335755 74.765482 
L 114.028142 74.292471 
L 114.722458 73.796774 
L 115.418743 73.2783 
L 116.117039 72.736952 
L 116.817387 72.172637 
L 117.519825 71.585258 
L 118.224399 70.974708 
L 118.93115 70.340886 
L 119.64012 69.683686 
L 120.351357 69.00299 
L 121.064899 68.298694 
L 121.780794 67.570676 
L 122.499083 66.818824 
L 123.219813 66.043009 
L 123.943029 65.243109 
L 124.66878 64.418994 
L 125.397108 63.570536 
L 126.128062 62.697599 
L 126.861691 61.800045 
L 127.598039 60.877736 
" clip-path="url(#p9b37cd90f9)" style="fill: none; stroke: #1f77b4; stroke-width: 1.5"/>
    <path d="M 64.952423 49.583939 
L 65.59229 50.813593 
L 66.231483 52.02102 
L 66.870029 53.206298 
L 67.507962 54.369509 
L 68.145316 55.510735 
L 68.782117 56.630043 
L 69.4184 57.727512 
L 70.054194 58.803211 
L 70.689534 59.857215 
L 71.324447 60.889583 
L 71.958967 61.900387 
L 72.59312 62.889681 
L 73.226942 63.857531 
L 73.86046 64.803996 
L 74.493708 65.729129 
L 75.126716 66.632989 
L 75.759514 67.515627 
L 76.392131 68.377085 
L 77.024599 69.21742 
L 77.656949 70.036674 
L 78.28921 70.834892 
L 78.921416 71.612118 
L 79.553594 72.368387 
L 80.185776 73.103741 
L 80.817991 73.818212 
L 81.450271 74.511835 
L 82.082646 75.184642 
L 82.715148 75.836667 
L 83.347804 76.467931 
L 83.980647 77.078462 
L 84.61371 77.668285 
L 85.247018 78.237421 
L 85.880605 78.785889 
L 86.514503 79.313707 
L 87.148739 79.820891 
L 87.783346 80.307455 
L 88.418356 80.773412 
L 89.053798 81.218769 
L 89.689702 81.643536 
L 90.326102 82.047717 
L 90.963029 82.431319 
L 91.600512 82.794341 
L 92.238582 83.136783 
L 92.877275 83.458646 
L 93.516616 83.759922 
L 94.156641 84.040607 
L 94.797382 84.300692 
L 95.438868 84.540167 
L 96.081132 84.759022 
L 96.724209 84.957241 
L 97.368128 85.134807 
L 98.01292 85.291702 
L 98.65862 85.427908 
L 99.305262 85.543402 
L 99.952875 85.638157 
L 100.601494 85.712149 
L 101.251154 85.765349 
L 101.901885 85.797728 
L 102.553721 85.80925 
L 103.206698 85.799884 
L 103.860847 85.769591 
L 104.516204 85.71833 
L 105.172802 85.646063 
L 105.830677 85.552747 
L 106.489862 85.438334 
L 107.150392 85.302779 
L 107.812304 85.146031 
L 108.475631 84.968036 
L 109.140409 84.768742 
L 109.806676 84.548092 
L 110.474465 84.306027 
L 111.143813 84.042487 
L 111.81476 83.757405 
L 112.487338 83.45072 
L 113.161586 83.122362 
L 113.837542 82.77226 
L 114.515245 82.400342 
L 115.19473 82.00653 
L 115.876038 81.59075 
L 116.559205 81.152921 
L 117.244272 80.69296 
L 117.931277 80.210782 
L 118.62026 79.706301 
L 119.311264 79.179421 
L 120.004327 78.630055 
L 120.699487 78.058108 
L 121.396788 77.463478 
L 122.09627 76.846068 
L 122.797977 76.205775 
L 123.501952 75.542486 
L 124.208234 74.8561 
L 124.91687 74.146501 
L 125.6279 73.413579 
L 126.341369 72.657212 
L 127.057322 71.877282 
L 127.775806 71.073663 
L 128.496862 70.246234 
L 129.220538 69.394861 
L 129.946883 68.519414 
L 130.675939 67.619758 
" clip-path="url(#p9b37cd90f9)" style="fill: none; stroke: #1f77b4; stroke-width: 1.5"/>
   </g>
  </g>
 </g>
 <defs>
  <clipPath id="p9b37cd90f9">
   <rect x="7.2" y="7.2" width="138.6" height="138.6"/>
  </clipPath>
 </defs>
</svg>
