<?xml version="1.0" encoding="utf-8" standalone="no"?>
<!DOCTYPE svg PUBLIC "-//W3C//DTD SVG 1.1//EN"
  "http://www.w3.org/Graphics/SVG/1.1/DTD/svg11.dtd">
<svg xmlns:xlink="http://www.w3.org/1999/xlink" width="231.442187pt" height="169.678125pt" viewBox="0 0 231.442187 169.678125" xmlns="http://www.w3.org/2000/svg" version="1.1">
 <metadata>
  <rdf:RDF xmlns:dc="http://purl.org/dc/elements/1.1/" xmlns:cc="http://creativecommons.org/ns#" xmlns:rdf="http://www.w3.org/1999/02/22-rdf-syntax-ns#">
   <cc:Work>
    <dc:type rdf:resource="http://purl.org/dc/dcmitype/StillImage"/>
    <dc:date>2025-07-01T15:19:11.235062</dc:date>
    <dc:format>image/svg+xml</dc:format>
    <dc:creator>
     <cc:Agent>
      <dc:title>Matplotlib v3.7.2, https://matplotlib.org/</dc:title>
     </cc:Agent>
    </dc:creator>
   </cc:Work>
  </rdf:RDF>
 </metadata>
 <defs>
  <style type="text/css">*{stroke-linejoin: round; stroke-linecap: butt}</style>
 </defs>
 <g id="figure_1">
  <g id="patch_1">
   <path d="M 0 169.678125 
L 231.442187 169.678125 
L 231.442187 0 
L 0 0 
z
" style="fill: #ffffff"/>
  </g>
  <g id="axes_1">
   <g id="patch_2">
    <path d="M 28.942188 145.8 
L 224.242188 145.8 
L 224.242188 7.2 
L 28.942188 7.2 
z
" style="fill: #ffffff"/>
   </g>
   <g id="PathCollection_1">
    <defs>
     <path id="m43c4759f51" d="M 0 3 
C 0.795609 3 1.55874 2.683901 2.12132 2.12132 
C 2.683901 1.55874 3 0.795609 3 0 
C 3 -0.795609 2.683901 -1.55874 2.12132 -2.12132 
C 1.55874 -2.683901 0.795609 -3 0 -3 
C -0.795609 -3 -1.55874 -2.683901 -2.12132 -2.12132 
C -2.683901 -1.55874 -3 -0.795609 -3 0 
C -3 0.795609 -2.683901 1.55874 -2.12132 2.12132 
C -1.55874 2.683901 -0.795609 3 0 3 
z
" style="stroke: #1f77b4"/>
    </defs>
    <g clip-path="url(#pb27fa325eb)">
     <use xlink:href="#m43c4759f51" x="109.314313" y="93.789155" style="fill: #1f77b4; stroke: #1f77b4"/>
     <use xlink:href="#m43c4759f51" x="139.392225" y="67.101892" style="fill: #1f77b4; stroke: #1f77b4"/>
     <use xlink:href="#m43c4759f51" x="178.080581" y="45.94705" style="fill: #1f77b4; stroke: #1f77b4"/>
     <use xlink:href="#m43c4759f51" x="93.31466" y="96.654126" style="fill: #1f77b4; stroke: #1f77b4"/>
     <use xlink:href="#m43c4759f51" x="102.471821" y="98.474191" style="fill: #1f77b4; stroke: #1f77b4"/>
     <use xlink:href="#m43c4759f51" x="51.571384" y="126.53737" style="fill: #1f77b4; stroke: #1f77b4"/>
     <use xlink:href="#m43c4759f51" x="167.25015" y="43.975399" style="fill: #1f77b4; stroke: #1f77b4"/>
     <use xlink:href="#m43c4759f51" x="162.756836" y="32.518662" style="fill: #1f77b4; stroke: #1f77b4"/>
     <use xlink:href="#m43c4759f51" x="77.344711" y="128.6461" style="fill: #1f77b4; stroke: #1f77b4"/>
     <use xlink:href="#m43c4759f51" x="90.717167" y="128.655086" style="fill: #1f77b4; stroke: #1f77b4"/>
     <use xlink:href="#m43c4759f51" x="108.966787" y="89.403295" style="fill: #1f77b4; stroke: #1f77b4"/>
     <use xlink:href="#m43c4759f51" x="119.075354" y="79.762974" style="fill: #1f77b4; stroke: #1f77b4"/>
     <use xlink:href="#m43c4759f51" x="169.527778" y="47.147147" style="fill: #1f77b4; stroke: #1f77b4"/>
     <use xlink:href="#m43c4759f51" x="140.897261" y="78.006422" style="fill: #1f77b4; stroke: #1f77b4"/>
     <use xlink:href="#m43c4759f51" x="153.984434" y="59.904111" style="fill: #1f77b4; stroke: #1f77b4"/>
     <use xlink:href="#m43c4759f51" x="117.052508" y="87.796616" style="fill: #1f77b4; stroke: #1f77b4"/>
     <use xlink:href="#m43c4759f51" x="108.210252" y="110.920012" style="fill: #1f77b4; stroke: #1f77b4"/>
     <use xlink:href="#m43c4759f51" x="143.100531" y="67.492689" style="fill: #1f77b4; stroke: #1f77b4"/>
     <use xlink:href="#m43c4759f51" x="102.163615" y="100.11066" style="fill: #1f77b4; stroke: #1f77b4"/>
     <use xlink:href="#m43c4759f51" x="128.42329" y="89.250089" style="fill: #1f77b4; stroke: #1f77b4"/>
     <use xlink:href="#m43c4759f51" x="137.321685" y="63.168338" style="fill: #1f77b4; stroke: #1f77b4"/>
     <use xlink:href="#m43c4759f51" x="159.075972" y="57.233137" style="fill: #1f77b4; stroke: #1f77b4"/>
     <use xlink:href="#m43c4759f51" x="78.42991" y="109.953173" style="fill: #1f77b4; stroke: #1f77b4"/>
     <use xlink:href="#m43c4759f51" x="215.364915" y="13.5" style="fill: #1f77b4; stroke: #1f77b4"/>
     <use xlink:href="#m43c4759f51" x="187.321291" y="20.381103" style="fill: #1f77b4; stroke: #1f77b4"/>
     <use xlink:href="#m43c4759f51" x="182.888326" y="39.114816" style="fill: #1f77b4; stroke: #1f77b4"/>
     <use xlink:href="#m43c4759f51" x="113.557052" y="94.467276" style="fill: #1f77b4; stroke: #1f77b4"/>
     <use xlink:href="#m43c4759f51" x="176.024694" y="41.990392" style="fill: #1f77b4; stroke: #1f77b4"/>
     <use xlink:href="#m43c4759f51" x="121.217856" y="74.822528" style="fill: #1f77b4; stroke: #1f77b4"/>
     <use xlink:href="#m43c4759f51" x="103.931305" y="99.440528" style="fill: #1f77b4; stroke: #1f77b4"/>
     <use xlink:href="#m43c4759f51" x="120.07427" y="84.917157" style="fill: #1f77b4; stroke: #1f77b4"/>
     <use xlink:href="#m43c4759f51" x="137.737677" y="67.213695" style="fill: #1f77b4; stroke: #1f77b4"/>
     <use xlink:href="#m43c4759f51" x="126.984219" y="92.558709" style="fill: #1f77b4; stroke: #1f77b4"/>
     <use xlink:href="#m43c4759f51" x="85.73432" y="124.368725" style="fill: #1f77b4; stroke: #1f77b4"/>
     <use xlink:href="#m43c4759f51" x="191.977391" y="32.354583" style="fill: #1f77b4; stroke: #1f77b4"/>
     <use xlink:href="#m43c4759f51" x="143.388876" y="58.986687" style="fill: #1f77b4; stroke: #1f77b4"/>
     <use xlink:href="#m43c4759f51" x="167.954421" y="29.473366" style="fill: #1f77b4; stroke: #1f77b4"/>
     <use xlink:href="#m43c4759f51" x="63.88197" y="139.386598" style="fill: #1f77b4; stroke: #1f77b4"/>
     <use xlink:href="#m43c4759f51" x="118.70007" y="74.555489" style="fill: #1f77b4; stroke: #1f77b4"/>
     <use xlink:href="#m43c4759f51" x="171.201929" y="32.44505" style="fill: #1f77b4; stroke: #1f77b4"/>
     <use xlink:href="#m43c4759f51" x="77.881431" y="112.412739" style="fill: #1f77b4; stroke: #1f77b4"/>
     <use xlink:href="#m43c4759f51" x="37.81946" y="138.72883" style="fill: #1f77b4; stroke: #1f77b4"/>
     <use xlink:href="#m43c4759f51" x="158.653873" y="50.626477" style="fill: #1f77b4; stroke: #1f77b4"/>
     <use xlink:href="#m43c4759f51" x="167.544709" y="46.781472" style="fill: #1f77b4; stroke: #1f77b4"/>
     <use xlink:href="#m43c4759f51" x="108.737671" y="82.690058" style="fill: #1f77b4; stroke: #1f77b4"/>
     <use xlink:href="#m43c4759f51" x="132.422405" y="81.100261" style="fill: #1f77b4; stroke: #1f77b4"/>
     <use xlink:href="#m43c4759f51" x="106.202325" y="111.688504" style="fill: #1f77b4; stroke: #1f77b4"/>
     <use xlink:href="#m43c4759f51" x="127.268875" y="74.043964" style="fill: #1f77b4; stroke: #1f77b4"/>
     <use xlink:href="#m43c4759f51" x="93.184692" y="115.159069" style="fill: #1f77b4; stroke: #1f77b4"/>
     <use xlink:href="#m43c4759f51" x="93.949764" y="115.229389" style="fill: #1f77b4; stroke: #1f77b4"/>
     <use xlink:href="#m43c4759f51" x="157.701162" y="55.877413" style="fill: #1f77b4; stroke: #1f77b4"/>
     <use xlink:href="#m43c4759f51" x="170.61041" y="51.351981" style="fill: #1f77b4; stroke: #1f77b4"/>
     <use xlink:href="#m43c4759f51" x="82.660821" y="107.390251" style="fill: #1f77b4; stroke: #1f77b4"/>
     <use xlink:href="#m43c4759f51" x="103.638846" y="105.680702" style="fill: #1f77b4; stroke: #1f77b4"/>
     <use xlink:href="#m43c4759f51" x="153.365475" y="45.756904" style="fill: #1f77b4; stroke: #1f77b4"/>
     <use xlink:href="#m43c4759f51" x="125.673408" y="91.338099" style="fill: #1f77b4; stroke: #1f77b4"/>
     <use xlink:href="#m43c4759f51" x="154.753795" y="73.094579" style="fill: #1f77b4; stroke: #1f77b4"/>
     <use xlink:href="#m43c4759f51" x="92.435019" y="110.530661" style="fill: #1f77b4; stroke: #1f77b4"/>
     <use xlink:href="#m43c4759f51" x="146.018895" y="68.4176" style="fill: #1f77b4; stroke: #1f77b4"/>
     <use xlink:href="#m43c4759f51" x="104.163024" y="89.353411" style="fill: #1f77b4; stroke: #1f77b4"/>
     <use xlink:href="#m43c4759f51" x="93.155062" y="120.565632" style="fill: #1f77b4; stroke: #1f77b4"/>
     <use xlink:href="#m43c4759f51" x="123.295287" y="96.816001" style="fill: #1f77b4; stroke: #1f77b4"/>
     <use xlink:href="#m43c4759f51" x="142.577346" y="59.127355" style="fill: #1f77b4; stroke: #1f77b4"/>
     <use xlink:href="#m43c4759f51" x="142.575765" y="68.485812" style="fill: #1f77b4; stroke: #1f77b4"/>
     <use xlink:href="#m43c4759f51" x="135.197608" y="79.590325" style="fill: #1f77b4; stroke: #1f77b4"/>
     <use xlink:href="#m43c4759f51" x="127.56973" y="65.951798" style="fill: #1f77b4; stroke: #1f77b4"/>
     <use xlink:href="#m43c4759f51" x="130.767403" y="76.335785" style="fill: #1f77b4; stroke: #1f77b4"/>
     <use xlink:href="#m43c4759f51" x="120.407144" y="87.702892" style="fill: #1f77b4; stroke: #1f77b4"/>
     <use xlink:href="#m43c4759f51" x="119.428333" y="61.111645" style="fill: #1f77b4; stroke: #1f77b4"/>
     <use xlink:href="#m43c4759f51" x="128.88377" y="87.895088" style="fill: #1f77b4; stroke: #1f77b4"/>
     <use xlink:href="#m43c4759f51" x="72.769653" y="127.592045" style="fill: #1f77b4; stroke: #1f77b4"/>
     <use xlink:href="#m43c4759f51" x="154.387193" y="50.256242" style="fill: #1f77b4; stroke: #1f77b4"/>
     <use xlink:href="#m43c4759f51" x="133.075759" y="78.085692" style="fill: #1f77b4; stroke: #1f77b4"/>
     <use xlink:href="#m43c4759f51" x="111.491878" y="86.874853" style="fill: #1f77b4; stroke: #1f77b4"/>
     <use xlink:href="#m43c4759f51" x="194.713428" y="38.463081" style="fill: #1f77b4; stroke: #1f77b4"/>
     <use xlink:href="#m43c4759f51" x="73.997345" y="126.055637" style="fill: #1f77b4; stroke: #1f77b4"/>
     <use xlink:href="#m43c4759f51" x="103.412251" y="111.866724" style="fill: #1f77b4; stroke: #1f77b4"/>
     <use xlink:href="#m43c4759f51" x="147.555336" y="63.471356" style="fill: #1f77b4; stroke: #1f77b4"/>
     <use xlink:href="#m43c4759f51" x="168.328268" y="41.25572" style="fill: #1f77b4; stroke: #1f77b4"/>
     <use xlink:href="#m43c4759f51" x="95.474224" y="119.717976" style="fill: #1f77b4; stroke: #1f77b4"/>
     <use xlink:href="#m43c4759f51" x="161.813033" y="64.107241" style="fill: #1f77b4; stroke: #1f77b4"/>
     <use xlink:href="#m43c4759f51" x="171.204116" y="47.53438" style="fill: #1f77b4; stroke: #1f77b4"/>
     <use xlink:href="#m43c4759f51" x="116.02522" y="79.475792" style="fill: #1f77b4; stroke: #1f77b4"/>
     <use xlink:href="#m43c4759f51" x="150.088428" y="55.387163" style="fill: #1f77b4; stroke: #1f77b4"/>
     <use xlink:href="#m43c4759f51" x="112.3319" y="66.616673" style="fill: #1f77b4; stroke: #1f77b4"/>
     <use xlink:href="#m43c4759f51" x="101.053779" y="108.392832" style="fill: #1f77b4; stroke: #1f77b4"/>
     <use xlink:href="#m43c4759f51" x="177.374842" y="44.295311" style="fill: #1f77b4; stroke: #1f77b4"/>
     <use xlink:href="#m43c4759f51" x="126.053983" y="78.782553" style="fill: #1f77b4; stroke: #1f77b4"/>
     <use xlink:href="#m43c4759f51" x="131.799671" y="105.435685" style="fill: #1f77b4; stroke: #1f77b4"/>
     <use xlink:href="#m43c4759f51" x="134.278562" y="60.003546" style="fill: #1f77b4; stroke: #1f77b4"/>
     <use xlink:href="#m43c4759f51" x="117.273169" y="83.63863" style="fill: #1f77b4; stroke: #1f77b4"/>
     <use xlink:href="#m43c4759f51" x="77.164979" y="139.5" style="fill: #1f77b4; stroke: #1f77b4"/>
     <use xlink:href="#m43c4759f51" x="200.684067" y="29.504901" style="fill: #1f77b4; stroke: #1f77b4"/>
     <use xlink:href="#m43c4759f51" x="125.866716" y="87.675638" style="fill: #1f77b4; stroke: #1f77b4"/>
     <use xlink:href="#m43c4759f51" x="100.372384" y="99.64273" style="fill: #1f77b4; stroke: #1f77b4"/>
     <use xlink:href="#m43c4759f51" x="106.405862" y="101.268412" style="fill: #1f77b4; stroke: #1f77b4"/>
     <use xlink:href="#m43c4759f51" x="137.045937" y="76.21572" style="fill: #1f77b4; stroke: #1f77b4"/>
     <use xlink:href="#m43c4759f51" x="136.740134" y="59.146332" style="fill: #1f77b4; stroke: #1f77b4"/>
     <use xlink:href="#m43c4759f51" x="146.846068" y="85.151226" style="fill: #1f77b4; stroke: #1f77b4"/>
     <use xlink:href="#m43c4759f51" x="138.743735" y="64.134993" style="fill: #1f77b4; stroke: #1f77b4"/>
    </g>
   </g>
   <g id="matplotlib.axis_1">
    <g id="xtick_1">
     <g id="line2d_1">
      <defs>
       <path id="m574ef3f7ff" d="M 0 0 
L 0 3.5 
" style="stroke: #000000; stroke-width: 0.8"/>
      </defs>
      <g>
       <use xlink:href="#m574ef3f7ff" x="56.524633" y="145.8" style="stroke: #000000; stroke-width: 0.8"/>
      </g>
     </g>
     <g id="text_1">
      <!-- −1 -->
      <g transform="translate(49.15354 160.398438) scale(0.1 -0.1)">
       <defs>
        <path id="DejaVuSans-2212" d="M 678 2272 
L 4684 2272 
L 4684 1741 
L 678 1741 
L 678 2272 
z
" transform="scale(0.015625)"/>
        <path id="DejaVuSans-31" d="M 794 531 
L 1825 531 
L 1825 4091 
L 703 3866 
L 703 4441 
L 1819 4666 
L 2450 4666 
L 2450 531 
L 3481 531 
L 3481 0 
L 794 0 
L 794 531 
z
" transform="scale(0.015625)"/>
       </defs>
       <use xlink:href="#DejaVuSans-2212"/>
       <use xlink:href="#DejaVuSans-31" x="83.789062"/>
      </g>
     </g>
    </g>
    <g id="xtick_2">
     <g id="line2d_2">
      <g>
       <use xlink:href="#m574ef3f7ff" x="91.137438" y="145.8" style="stroke: #000000; stroke-width: 0.8"/>
      </g>
     </g>
     <g id="text_2">
      <!-- 0 -->
      <g transform="translate(87.956188 160.398438) scale(0.1 -0.1)">
       <defs>
        <path id="DejaVuSans-30" d="M 2034 4250 
Q 1547 4250 1301 3770 
Q 1056 3291 1056 2328 
Q 1056 1369 1301 889 
Q 1547 409 2034 409 
Q 2525 409 2770 889 
Q 3016 1369 3016 2328 
Q 3016 3291 2770 3770 
Q 2525 4250 2034 4250 
z
M 2034 4750 
Q 2819 4750 3233 4129 
Q 3647 3509 3647 2328 
Q 3647 1150 3233 529 
Q 2819 -91 2034 -91 
Q 1250 -91 836 529 
Q 422 1150 422 2328 
Q 422 3509 836 4129 
Q 1250 4750 2034 4750 
z
" transform="scale(0.015625)"/>
       </defs>
       <use xlink:href="#DejaVuSans-30"/>
      </g>
     </g>
    </g>
    <g id="xtick_3">
     <g id="line2d_3">
      <g>
       <use xlink:href="#m574ef3f7ff" x="125.750243" y="145.8" style="stroke: #000000; stroke-width: 0.8"/>
      </g>
     </g>
     <g id="text_3">
      <!-- 1 -->
      <g transform="translate(122.568993 160.398438) scale(0.1 -0.1)">
       <use xlink:href="#DejaVuSans-31"/>
      </g>
     </g>
    </g>
    <g id="xtick_4">
     <g id="line2d_4">
      <g>
       <use xlink:href="#m574ef3f7ff" x="160.363048" y="145.8" style="stroke: #000000; stroke-width: 0.8"/>
      </g>
     </g>
     <g id="text_4">
      <!-- 2 -->
      <g transform="translate(157.181798 160.398438) scale(0.1 -0.1)">
       <defs>
        <path id="DejaVuSans-32" d="M 1228 531 
L 3431 531 
L 3431 0 
L 469 0 
L 469 531 
Q 828 903 1448 1529 
Q 2069 2156 2228 2338 
Q 2531 2678 2651 2914 
Q 2772 3150 2772 3378 
Q 2772 3750 2511 3984 
Q 2250 4219 1831 4219 
Q 1534 4219 1204 4116 
Q 875 4013 500 3803 
L 500 4441 
Q 881 4594 1212 4672 
Q 1544 4750 1819 4750 
Q 2544 4750 2975 4387 
Q 3406 4025 3406 3419 
Q 3406 3131 3298 2873 
Q 3191 2616 2906 2266 
Q 2828 2175 2409 1742 
Q 1991 1309 1228 531 
z
" transform="scale(0.015625)"/>
       </defs>
       <use xlink:href="#DejaVuSans-32"/>
      </g>
     </g>
    </g>
    <g id="xtick_5">
     <g id="line2d_5">
      <g>
       <use xlink:href="#m574ef3f7ff" x="194.975852" y="145.8" style="stroke: #000000; stroke-width: 0.8"/>
      </g>
     </g>
     <g id="text_5">
      <!-- 3 -->
      <g transform="translate(191.794602 160.398438) scale(0.1 -0.1)">
       <defs>
        <path id="DejaVuSans-33" d="M 2597 2516 
Q 3050 2419 3304 2112 
Q 3559 1806 3559 1356 
Q 3559 666 3084 287 
Q 2609 -91 1734 -91 
Q 1441 -91 1130 -33 
Q 819 25 488 141 
L 488 750 
Q 750 597 1062 519 
Q 1375 441 1716 441 
Q 2309 441 2620 675 
Q 2931 909 2931 1356 
Q 2931 1769 2642 2001 
Q 2353 2234 1838 2234 
L 1294 2234 
L 1294 2753 
L 1863 2753 
Q 2328 2753 2575 2939 
Q 2822 3125 2822 3475 
Q 2822 3834 2567 4026 
Q 2313 4219 1838 4219 
Q 1578 4219 1281 4162 
Q 984 4106 628 3988 
L 628 4550 
Q 988 4650 1302 4700 
Q 1616 4750 1894 4750 
Q 2613 4750 3031 4423 
Q 3450 4097 3450 3541 
Q 3450 3153 3228 2886 
Q 3006 2619 2597 2516 
z
" transform="scale(0.015625)"/>
       </defs>
       <use xlink:href="#DejaVuSans-33"/>
      </g>
     </g>
    </g>
   </g>
   <g id="matplotlib.axis_2">
    <g id="ytick_1">
     <g id="line2d_6">
      <defs>
       <path id="m0a09c8bc49" d="M 0 0 
L -3.5 0 
" style="stroke: #000000; stroke-width: 0.8"/>
      </defs>
      <g>
       <use xlink:href="#m0a09c8bc49" x="28.942188" y="142.618385" style="stroke: #000000; stroke-width: 0.8"/>
      </g>
     </g>
     <g id="text_6">
      <!-- −2 -->
      <g transform="translate(7.2 146.417603) scale(0.1 -0.1)">
       <use xlink:href="#DejaVuSans-2212"/>
       <use xlink:href="#DejaVuSans-32" x="83.789062"/>
      </g>
     </g>
    </g>
    <g id="ytick_2">
     <g id="line2d_7">
      <g>
       <use xlink:href="#m0a09c8bc49" x="28.942188" y="112.598914" style="stroke: #000000; stroke-width: 0.8"/>
      </g>
     </g>
     <g id="text_7">
      <!-- 0 -->
      <g transform="translate(15.579688 116.398133) scale(0.1 -0.1)">
       <use xlink:href="#DejaVuSans-30"/>
      </g>
     </g>
    </g>
    <g id="ytick_3">
     <g id="line2d_8">
      <g>
       <use xlink:href="#m0a09c8bc49" x="28.942188" y="82.579443" style="stroke: #000000; stroke-width: 0.8"/>
      </g>
     </g>
     <g id="text_8">
      <!-- 2 -->
      <g transform="translate(15.579688 86.378662) scale(0.1 -0.1)">
       <use xlink:href="#DejaVuSans-32"/>
      </g>
     </g>
    </g>
    <g id="ytick_4">
     <g id="line2d_9">
      <g>
       <use xlink:href="#m0a09c8bc49" x="28.942188" y="52.559973" style="stroke: #000000; stroke-width: 0.8"/>
      </g>
     </g>
     <g id="text_9">
      <!-- 4 -->
      <g transform="translate(15.579688 56.359191) scale(0.1 -0.1)">
       <defs>
        <path id="DejaVuSans-34" d="M 2419 4116 
L 825 1625 
L 2419 1625 
L 2419 4116 
z
M 2253 4666 
L 3047 4666 
L 3047 1625 
L 3713 1625 
L 3713 1100 
L 3047 1100 
L 3047 0 
L 2419 0 
L 2419 1100 
L 313 1100 
L 313 1709 
L 2253 4666 
z
" transform="scale(0.015625)"/>
       </defs>
       <use xlink:href="#DejaVuSans-34"/>
      </g>
     </g>
    </g>
    <g id="ytick_5">
     <g id="line2d_10">
      <g>
       <use xlink:href="#m0a09c8bc49" x="28.942188" y="22.540502" style="stroke: #000000; stroke-width: 0.8"/>
      </g>
     </g>
     <g id="text_10">
      <!-- 6 -->
      <g transform="translate(15.579688 26.339721) scale(0.1 -0.1)">
       <defs>
        <path id="DejaVuSans-36" d="M 2113 2584 
Q 1688 2584 1439 2293 
Q 1191 2003 1191 1497 
Q 1191 994 1439 701 
Q 1688 409 2113 409 
Q 2538 409 2786 701 
Q 3034 994 3034 1497 
Q 3034 2003 2786 2293 
Q 2538 2584 2113 2584 
z
M 3366 4563 
L 3366 3988 
Q 3128 4100 2886 4159 
Q 2644 4219 2406 4219 
Q 1781 4219 1451 3797 
Q 1122 3375 1075 2522 
Q 1259 2794 1537 2939 
Q 1816 3084 2150 3084 
Q 2853 3084 3261 2657 
Q 3669 2231 3669 1497 
Q 3669 778 3244 343 
Q 2819 -91 2113 -91 
Q 1303 -91 875 529 
Q 447 1150 447 2328 
Q 447 3434 972 4092 
Q 1497 4750 2381 4750 
Q 2619 4750 2861 4703 
Q 3103 4656 3366 4563 
z
" transform="scale(0.015625)"/>
       </defs>
       <use xlink:href="#DejaVuSans-36"/>
      </g>
     </g>
    </g>
   </g>
   <g id="patch_3">
    <path d="M 28.942188 145.8 
L 28.942188 7.2 
" style="fill: none; stroke: #000000; stroke-width: 0.8; stroke-linejoin: miter; stroke-linecap: square"/>
   </g>
   <g id="patch_4">
    <path d="M 224.242188 145.8 
L 224.242188 7.2 
" style="fill: none; stroke: #000000; stroke-width: 0.8; stroke-linejoin: miter; stroke-linecap: square"/>
   </g>
   <g id="patch_5">
    <path d="M 28.942187 145.8 
L 224.242188 145.8 
" style="fill: none; stroke: #000000; stroke-width: 0.8; stroke-linejoin: miter; stroke-linecap: square"/>
   </g>
   <g id="patch_6">
    <path d="M 28.942187 7.2 
L 224.242188 7.2 
" style="fill: none; stroke: #000000; stroke-width: 0.8; stroke-linejoin: miter; stroke-linecap: square"/>
   </g>
  </g>
 </g>
 <defs>
  <clipPath id="pb27fa325eb">
   <rect x="28.942188" y="7.2" width="195.3" height="138.6"/>
  </clipPath>
 </defs>
</svg>
