<?xml version="1.0" encoding="utf-8" standalone="no"?>
<!DOCTYPE svg PUBLIC "-//W3C//DTD SVG 1.1//EN"
  "http://www.w3.org/Graphics/SVG/1.1/DTD/svg11.dtd">
<svg xmlns:xlink="http://www.w3.org/1999/xlink" width="231.442187pt" height="170.177526pt" viewBox="0 0 231.442187 170.177526" xmlns="http://www.w3.org/2000/svg" version="1.1">
 <metadata>
  <rdf:RDF xmlns:dc="http://purl.org/dc/elements/1.1/" xmlns:cc="http://creativecommons.org/ns#" xmlns:rdf="http://www.w3.org/1999/02/22-rdf-syntax-ns#">
   <cc:Work>
    <dc:type rdf:resource="http://purl.org/dc/dcmitype/StillImage"/>
    <dc:date>2025-07-01T15:50:15.906715</dc:date>
    <dc:format>image/svg+xml</dc:format>
    <dc:creator>
     <cc:Agent>
      <dc:title>Matplotlib v3.7.2, https://matplotlib.org/</dc:title>
     </cc:Agent>
    </dc:creator>
   </cc:Work>
  </rdf:RDF>
 </metadata>
 <defs>
  <style type="text/css">*{stroke-linejoin: round; stroke-linecap: butt}</style>
 </defs>
 <g id="figure_1">
  <g id="patch_1">
   <path d="M 0 170.177526 
L 231.442187 170.177526 
L 231.442187 0 
L 0 0 
z
" style="fill: #ffffff"/>
  </g>
  <g id="axes_1">
   <g id="patch_2">
    <path d="M 28.942188 146.299401 
L 224.242188 146.299401 
L 224.242188 7.699401 
L 28.942188 7.699401 
z
" style="fill: #ffffff"/>
   </g>
   <g id="PathCollection_1">
    <defs>
     <path id="m45c79fc2cd" d="M 0 3 
C 0.795609 3 1.55874 2.683901 2.12132 2.12132 
C 2.683901 1.55874 3 0.795609 3 0 
C 3 -0.795609 2.683901 -1.55874 2.12132 -2.12132 
C 1.55874 -2.683901 0.795609 -3 0 -3 
C -0.795609 -3 -1.55874 -2.683901 -2.12132 -2.12132 
C -2.683901 -1.55874 -3 -0.795609 -3 0 
C -3 0.795609 -2.683901 1.55874 -2.12132 2.12132 
C -1.55874 2.683901 -0.795609 3 0 3 
z
" style="stroke: #1f77b4"/>
    </defs>
    <g clip-path="url(#p80c29f83b3)">
     <use xlink:href="#m45c79fc2cd" x="103.766377" y="83.763667" style="fill: #1f77b4; stroke: #1f77b4"/>
     <use xlink:href="#m45c79fc2cd" x="198.806944" y="20.800593" style="fill: #1f77b4; stroke: #1f77b4"/>
     <use xlink:href="#m45c79fc2cd" x="60.230373" y="131.561678" style="fill: #1f77b4; stroke: #1f77b4"/>
     <use xlink:href="#m45c79fc2cd" x="163.995391" y="56.695448" style="fill: #1f77b4; stroke: #1f77b4"/>
     <use xlink:href="#m45c79fc2cd" x="146.395412" y="76.443191" style="fill: #1f77b4; stroke: #1f77b4"/>
     <use xlink:href="#m45c79fc2cd" x="79.972441" y="106.007515" style="fill: #1f77b4; stroke: #1f77b4"/>
     <use xlink:href="#m45c79fc2cd" x="146.436032" y="70.41318" style="fill: #1f77b4; stroke: #1f77b4"/>
     <use xlink:href="#m45c79fc2cd" x="118.567806" y="72.739834" style="fill: #1f77b4; stroke: #1f77b4"/>
     <use xlink:href="#m45c79fc2cd" x="121.797611" y="57.807533" style="fill: #1f77b4; stroke: #1f77b4"/>
     <use xlink:href="#m45c79fc2cd" x="118.435752" y="74.444732" style="fill: #1f77b4; stroke: #1f77b4"/>
     <use xlink:href="#m45c79fc2cd" x="148.906631" y="42.663819" style="fill: #1f77b4; stroke: #1f77b4"/>
     <use xlink:href="#m45c79fc2cd" x="88.151679" y="98.021421" style="fill: #1f77b4; stroke: #1f77b4"/>
     <use xlink:href="#m45c79fc2cd" x="96.170721" y="91.205256" style="fill: #1f77b4; stroke: #1f77b4"/>
     <use xlink:href="#m45c79fc2cd" x="121.232003" y="61.413419" style="fill: #1f77b4; stroke: #1f77b4"/>
     <use xlink:href="#m45c79fc2cd" x="175.252594" y="49.053569" style="fill: #1f77b4; stroke: #1f77b4"/>
     <use xlink:href="#m45c79fc2cd" x="77.899742" y="87.543824" style="fill: #1f77b4; stroke: #1f77b4"/>
     <use xlink:href="#m45c79fc2cd" x="160.404044" y="43.082268" style="fill: #1f77b4; stroke: #1f77b4"/>
     <use xlink:href="#m45c79fc2cd" x="125.917374" y="67.003881" style="fill: #1f77b4; stroke: #1f77b4"/>
     <use xlink:href="#m45c79fc2cd" x="143.53779" y="63.151958" style="fill: #1f77b4; stroke: #1f77b4"/>
     <use xlink:href="#m45c79fc2cd" x="83.859035" y="110.05609" style="fill: #1f77b4; stroke: #1f77b4"/>
     <use xlink:href="#m45c79fc2cd" x="102.682561" y="103.437463" style="fill: #1f77b4; stroke: #1f77b4"/>
     <use xlink:href="#m45c79fc2cd" x="188.466032" y="40.434181" style="fill: #1f77b4; stroke: #1f77b4"/>
     <use xlink:href="#m45c79fc2cd" x="115.237204" y="69.342606" style="fill: #1f77b4; stroke: #1f77b4"/>
     <use xlink:href="#m45c79fc2cd" x="159.705365" y="24.978353" style="fill: #1f77b4; stroke: #1f77b4"/>
     <use xlink:href="#m45c79fc2cd" x="150.363945" y="64.774621" style="fill: #1f77b4; stroke: #1f77b4"/>
     <use xlink:href="#m45c79fc2cd" x="124.333942" y="61.684187" style="fill: #1f77b4; stroke: #1f77b4"/>
     <use xlink:href="#m45c79fc2cd" x="126.377652" y="85.202742" style="fill: #1f77b4; stroke: #1f77b4"/>
     <use xlink:href="#m45c79fc2cd" x="181.217031" y="43.950466" style="fill: #1f77b4; stroke: #1f77b4"/>
     <use xlink:href="#m45c79fc2cd" x="37.81946" y="139.999401" style="fill: #1f77b4; stroke: #1f77b4"/>
     <use xlink:href="#m45c79fc2cd" x="95.252007" y="84.405991" style="fill: #1f77b4; stroke: #1f77b4"/>
     <use xlink:href="#m45c79fc2cd" x="112.115598" y="97.445545" style="fill: #1f77b4; stroke: #1f77b4"/>
     <use xlink:href="#m45c79fc2cd" x="106.963141" y="79.0897" style="fill: #1f77b4; stroke: #1f77b4"/>
     <use xlink:href="#m45c79fc2cd" x="66.081225" y="128.043257" style="fill: #1f77b4; stroke: #1f77b4"/>
     <use xlink:href="#m45c79fc2cd" x="83.369398" y="123.717935" style="fill: #1f77b4; stroke: #1f77b4"/>
     <use xlink:href="#m45c79fc2cd" x="155.534457" y="65.469126" style="fill: #1f77b4; stroke: #1f77b4"/>
     <use xlink:href="#m45c79fc2cd" x="116.37992" y="84.463134" style="fill: #1f77b4; stroke: #1f77b4"/>
     <use xlink:href="#m45c79fc2cd" x="93.4717" y="110.350414" style="fill: #1f77b4; stroke: #1f77b4"/>
     <use xlink:href="#m45c79fc2cd" x="108.551878" y="87.62974" style="fill: #1f77b4; stroke: #1f77b4"/>
     <use xlink:href="#m45c79fc2cd" x="165.482055" y="54.298675" style="fill: #1f77b4; stroke: #1f77b4"/>
     <use xlink:href="#m45c79fc2cd" x="116.998224" y="82.539163" style="fill: #1f77b4; stroke: #1f77b4"/>
     <use xlink:href="#m45c79fc2cd" x="71.982328" y="121.424745" style="fill: #1f77b4; stroke: #1f77b4"/>
     <use xlink:href="#m45c79fc2cd" x="180.011159" y="30.261777" style="fill: #1f77b4; stroke: #1f77b4"/>
     <use xlink:href="#m45c79fc2cd" x="118.937828" y="65.201466" style="fill: #1f77b4; stroke: #1f77b4"/>
     <use xlink:href="#m45c79fc2cd" x="61.366325" y="101.233643" style="fill: #1f77b4; stroke: #1f77b4"/>
     <use xlink:href="#m45c79fc2cd" x="154.530493" y="50.616484" style="fill: #1f77b4; stroke: #1f77b4"/>
     <use xlink:href="#m45c79fc2cd" x="73.692953" y="114.799501" style="fill: #1f77b4; stroke: #1f77b4"/>
     <use xlink:href="#m45c79fc2cd" x="161.781892" y="56.078996" style="fill: #1f77b4; stroke: #1f77b4"/>
     <use xlink:href="#m45c79fc2cd" x="72.720049" y="121.39057" style="fill: #1f77b4; stroke: #1f77b4"/>
     <use xlink:href="#m45c79fc2cd" x="89.702908" y="101.628487" style="fill: #1f77b4; stroke: #1f77b4"/>
     <use xlink:href="#m45c79fc2cd" x="150.682598" y="48.007362" style="fill: #1f77b4; stroke: #1f77b4"/>
     <use xlink:href="#m45c79fc2cd" x="89.066093" y="99.024442" style="fill: #1f77b4; stroke: #1f77b4"/>
     <use xlink:href="#m45c79fc2cd" x="215.364915" y="14.409338" style="fill: #1f77b4; stroke: #1f77b4"/>
     <use xlink:href="#m45c79fc2cd" x="173.803225" y="20.658355" style="fill: #1f77b4; stroke: #1f77b4"/>
     <use xlink:href="#m45c79fc2cd" x="176.630409" y="31.66345" style="fill: #1f77b4; stroke: #1f77b4"/>
     <use xlink:href="#m45c79fc2cd" x="73.14349" y="126.480129" style="fill: #1f77b4; stroke: #1f77b4"/>
     <use xlink:href="#m45c79fc2cd" x="176.148979" y="55.307505" style="fill: #1f77b4; stroke: #1f77b4"/>
     <use xlink:href="#m45c79fc2cd" x="137.521022" y="68.081468" style="fill: #1f77b4; stroke: #1f77b4"/>
     <use xlink:href="#m45c79fc2cd" x="146.903663" y="53.78201" style="fill: #1f77b4; stroke: #1f77b4"/>
     <use xlink:href="#m45c79fc2cd" x="136.013205" y="69.038722" style="fill: #1f77b4; stroke: #1f77b4"/>
     <use xlink:href="#m45c79fc2cd" x="104.669641" y="88.871188" style="fill: #1f77b4; stroke: #1f77b4"/>
     <use xlink:href="#m45c79fc2cd" x="158.486851" y="64.492961" style="fill: #1f77b4; stroke: #1f77b4"/>
     <use xlink:href="#m45c79fc2cd" x="124.339771" y="92.561527" style="fill: #1f77b4; stroke: #1f77b4"/>
     <use xlink:href="#m45c79fc2cd" x="153.1281" y="54.650792" style="fill: #1f77b4; stroke: #1f77b4"/>
     <use xlink:href="#m45c79fc2cd" x="57.850153" y="123.067186" style="fill: #1f77b4; stroke: #1f77b4"/>
     <use xlink:href="#m45c79fc2cd" x="115.369632" y="78.779205" style="fill: #1f77b4; stroke: #1f77b4"/>
     <use xlink:href="#m45c79fc2cd" x="42.695053" y="135.589802" style="fill: #1f77b4; stroke: #1f77b4"/>
     <use xlink:href="#m45c79fc2cd" x="141.722125" y="73.230735" style="fill: #1f77b4; stroke: #1f77b4"/>
     <use xlink:href="#m45c79fc2cd" x="149.706917" y="45.190541" style="fill: #1f77b4; stroke: #1f77b4"/>
     <use xlink:href="#m45c79fc2cd" x="186.349574" y="18.965217" style="fill: #1f77b4; stroke: #1f77b4"/>
     <use xlink:href="#m45c79fc2cd" x="110.356461" y="83.630141" style="fill: #1f77b4; stroke: #1f77b4"/>
     <use xlink:href="#m45c79fc2cd" x="125.136792" y="79.972187" style="fill: #1f77b4; stroke: #1f77b4"/>
     <use xlink:href="#m45c79fc2cd" x="200.861769" y="22.813059" style="fill: #1f77b4; stroke: #1f77b4"/>
     <use xlink:href="#m45c79fc2cd" x="200.865338" y="18.515745" style="fill: #1f77b4; stroke: #1f77b4"/>
     <use xlink:href="#m45c79fc2cd" x="84.70026" y="115.15469" style="fill: #1f77b4; stroke: #1f77b4"/>
     <use xlink:href="#m45c79fc2cd" x="63.500822" y="121.207832" style="fill: #1f77b4; stroke: #1f77b4"/>
     <use xlink:href="#m45c79fc2cd" x="127.88635" y="82.132364" style="fill: #1f77b4; stroke: #1f77b4"/>
     <use xlink:href="#m45c79fc2cd" x="126.39231" y="82.359748" style="fill: #1f77b4; stroke: #1f77b4"/>
     <use xlink:href="#m45c79fc2cd" x="98.203601" y="93.74486" style="fill: #1f77b4; stroke: #1f77b4"/>
     <use xlink:href="#m45c79fc2cd" x="129.928366" y="62.181268" style="fill: #1f77b4; stroke: #1f77b4"/>
     <use xlink:href="#m45c79fc2cd" x="128.263758" y="67.291841" style="fill: #1f77b4; stroke: #1f77b4"/>
     <use xlink:href="#m45c79fc2cd" x="112.110874" y="96.966649" style="fill: #1f77b4; stroke: #1f77b4"/>
     <use xlink:href="#m45c79fc2cd" x="76.61995" y="97.343614" style="fill: #1f77b4; stroke: #1f77b4"/>
     <use xlink:href="#m45c79fc2cd" x="101.515884" y="73.170948" style="fill: #1f77b4; stroke: #1f77b4"/>
     <use xlink:href="#m45c79fc2cd" x="122.403322" y="71.362834" style="fill: #1f77b4; stroke: #1f77b4"/>
     <use xlink:href="#m45c79fc2cd" x="131.368093" y="57.895095" style="fill: #1f77b4; stroke: #1f77b4"/>
     <use xlink:href="#m45c79fc2cd" x="116.759293" y="84.814084" style="fill: #1f77b4; stroke: #1f77b4"/>
     <use xlink:href="#m45c79fc2cd" x="175.182698" y="46.705335" style="fill: #1f77b4; stroke: #1f77b4"/>
     <use xlink:href="#m45c79fc2cd" x="143.830531" y="64.475261" style="fill: #1f77b4; stroke: #1f77b4"/>
     <use xlink:href="#m45c79fc2cd" x="188.77106" y="13.999401" style="fill: #1f77b4; stroke: #1f77b4"/>
     <use xlink:href="#m45c79fc2cd" x="138.324353" y="66.696525" style="fill: #1f77b4; stroke: #1f77b4"/>
     <use xlink:href="#m45c79fc2cd" x="101.546937" y="110.963567" style="fill: #1f77b4; stroke: #1f77b4"/>
     <use xlink:href="#m45c79fc2cd" x="169.977749" y="40.070859" style="fill: #1f77b4; stroke: #1f77b4"/>
     <use xlink:href="#m45c79fc2cd" x="121.124266" y="87.364765" style="fill: #1f77b4; stroke: #1f77b4"/>
     <use xlink:href="#m45c79fc2cd" x="93.418285" y="94.229841" style="fill: #1f77b4; stroke: #1f77b4"/>
     <use xlink:href="#m45c79fc2cd" x="105.46027" y="93.864365" style="fill: #1f77b4; stroke: #1f77b4"/>
     <use xlink:href="#m45c79fc2cd" x="81.740713" y="117.643372" style="fill: #1f77b4; stroke: #1f77b4"/>
     <use xlink:href="#m45c79fc2cd" x="93.704621" y="102.795852" style="fill: #1f77b4; stroke: #1f77b4"/>
     <use xlink:href="#m45c79fc2cd" x="146.498321" y="45.701007" style="fill: #1f77b4; stroke: #1f77b4"/>
     <use xlink:href="#m45c79fc2cd" x="149.21335" y="54.698416" style="fill: #1f77b4; stroke: #1f77b4"/>
     <use xlink:href="#m45c79fc2cd" x="101.947204" y="101.157769" style="fill: #1f77b4; stroke: #1f77b4"/>
    </g>
   </g>
   <g id="matplotlib.axis_1">
    <g id="xtick_1">
     <g id="line2d_1">
      <defs>
       <path id="m360c0f032c" d="M 0 0 
L 0 3.5 
" style="stroke: #000000; stroke-width: 0.8"/>
      </defs>
      <g>
       <use xlink:href="#m360c0f032c" x="51.967955" y="146.299401" style="stroke: #000000; stroke-width: 0.8"/>
      </g>
     </g>
     <g id="text_1">
      <!-- −1 -->
      <g transform="translate(44.596861 160.897838) scale(0.1 -0.1)">
       <defs>
        <path id="DejaVuSans-2212" d="M 678 2272 
L 4684 2272 
L 4684 1741 
L 678 1741 
L 678 2272 
z
" transform="scale(0.015625)"/>
        <path id="DejaVuSans-31" d="M 794 531 
L 1825 531 
L 1825 4091 
L 703 3866 
L 703 4441 
L 1819 4666 
L 2450 4666 
L 2450 531 
L 3481 531 
L 3481 0 
L 794 0 
L 794 531 
z
" transform="scale(0.015625)"/>
       </defs>
       <use xlink:href="#DejaVuSans-2212"/>
       <use xlink:href="#DejaVuSans-31" x="83.789062"/>
      </g>
     </g>
    </g>
    <g id="xtick_2">
     <g id="line2d_2">
      <g>
       <use xlink:href="#m360c0f032c" x="91.260935" y="146.299401" style="stroke: #000000; stroke-width: 0.8"/>
      </g>
     </g>
     <g id="text_2">
      <!-- 0 -->
      <g transform="translate(88.079685 160.897838) scale(0.1 -0.1)">
       <defs>
        <path id="DejaVuSans-30" d="M 2034 4250 
Q 1547 4250 1301 3770 
Q 1056 3291 1056 2328 
Q 1056 1369 1301 889 
Q 1547 409 2034 409 
Q 2525 409 2770 889 
Q 3016 1369 3016 2328 
Q 3016 3291 2770 3770 
Q 2525 4250 2034 4250 
z
M 2034 4750 
Q 2819 4750 3233 4129 
Q 3647 3509 3647 2328 
Q 3647 1150 3233 529 
Q 2819 -91 2034 -91 
Q 1250 -91 836 529 
Q 422 1150 422 2328 
Q 422 3509 836 4129 
Q 1250 4750 2034 4750 
z
" transform="scale(0.015625)"/>
       </defs>
       <use xlink:href="#DejaVuSans-30"/>
      </g>
     </g>
    </g>
    <g id="xtick_3">
     <g id="line2d_3">
      <g>
       <use xlink:href="#m360c0f032c" x="130.553914" y="146.299401" style="stroke: #000000; stroke-width: 0.8"/>
      </g>
     </g>
     <g id="text_3">
      <!-- 1 -->
      <g transform="translate(127.372664 160.897838) scale(0.1 -0.1)">
       <use xlink:href="#DejaVuSans-31"/>
      </g>
     </g>
    </g>
    <g id="xtick_4">
     <g id="line2d_4">
      <g>
       <use xlink:href="#m360c0f032c" x="169.846894" y="146.299401" style="stroke: #000000; stroke-width: 0.8"/>
      </g>
     </g>
     <g id="text_4">
      <!-- 2 -->
      <g transform="translate(166.665644 160.897838) scale(0.1 -0.1)">
       <defs>
        <path id="DejaVuSans-32" d="M 1228 531 
L 3431 531 
L 3431 0 
L 469 0 
L 469 531 
Q 828 903 1448 1529 
Q 2069 2156 2228 2338 
Q 2531 2678 2651 2914 
Q 2772 3150 2772 3378 
Q 2772 3750 2511 3984 
Q 2250 4219 1831 4219 
Q 1534 4219 1204 4116 
Q 875 4013 500 3803 
L 500 4441 
Q 881 4594 1212 4672 
Q 1544 4750 1819 4750 
Q 2544 4750 2975 4387 
Q 3406 4025 3406 3419 
Q 3406 3131 3298 2873 
Q 3191 2616 2906 2266 
Q 2828 2175 2409 1742 
Q 1991 1309 1228 531 
z
" transform="scale(0.015625)"/>
       </defs>
       <use xlink:href="#DejaVuSans-32"/>
      </g>
     </g>
    </g>
    <g id="xtick_5">
     <g id="line2d_5">
      <g>
       <use xlink:href="#m360c0f032c" x="209.139874" y="146.299401" style="stroke: #000000; stroke-width: 0.8"/>
      </g>
     </g>
     <g id="text_5">
      <!-- 3 -->
      <g transform="translate(205.958624 160.897838) scale(0.1 -0.1)">
       <defs>
        <path id="DejaVuSans-33" d="M 2597 2516 
Q 3050 2419 3304 2112 
Q 3559 1806 3559 1356 
Q 3559 666 3084 287 
Q 2609 -91 1734 -91 
Q 1441 -91 1130 -33 
Q 819 25 488 141 
L 488 750 
Q 750 597 1062 519 
Q 1375 441 1716 441 
Q 2309 441 2620 675 
Q 2931 909 2931 1356 
Q 2931 1769 2642 2001 
Q 2353 2234 1838 2234 
L 1294 2234 
L 1294 2753 
L 1863 2753 
Q 2328 2753 2575 2939 
Q 2822 3125 2822 3475 
Q 2822 3834 2567 4026 
Q 2313 4219 1838 4219 
Q 1578 4219 1281 4162 
Q 984 4106 628 3988 
L 628 4550 
Q 988 4650 1302 4700 
Q 1616 4750 1894 4750 
Q 2613 4750 3031 4423 
Q 3450 4097 3450 3541 
Q 3450 3153 3228 2886 
Q 3006 2619 2597 2516 
z
" transform="scale(0.015625)"/>
       </defs>
       <use xlink:href="#DejaVuSans-33"/>
      </g>
     </g>
    </g>
   </g>
   <g id="matplotlib.axis_2">
    <g id="ytick_1">
     <g id="line2d_6">
      <defs>
       <path id="m204d12da19" d="M 0 0 
L -3.5 0 
" style="stroke: #000000; stroke-width: 0.8"/>
      </defs>
      <g>
       <use xlink:href="#m204d12da19" x="28.942188" y="131.858387" style="stroke: #000000; stroke-width: 0.8"/>
      </g>
     </g>
     <g id="text_6">
      <!-- −2 -->
      <g transform="translate(7.2 135.657605) scale(0.1 -0.1)">
       <use xlink:href="#DejaVuSans-2212"/>
       <use xlink:href="#DejaVuSans-32" x="83.789062"/>
      </g>
     </g>
    </g>
    <g id="ytick_2">
     <g id="line2d_7">
      <g>
       <use xlink:href="#m204d12da19" x="28.942188" y="101.643595" style="stroke: #000000; stroke-width: 0.8"/>
      </g>
     </g>
     <g id="text_7">
      <!-- 0 -->
      <g transform="translate(15.579688 105.442813) scale(0.1 -0.1)">
       <use xlink:href="#DejaVuSans-30"/>
      </g>
     </g>
    </g>
    <g id="ytick_3">
     <g id="line2d_8">
      <g>
       <use xlink:href="#m204d12da19" x="28.942188" y="71.428803" style="stroke: #000000; stroke-width: 0.8"/>
      </g>
     </g>
     <g id="text_8">
      <!-- 2 -->
      <g transform="translate(15.579688 75.228021) scale(0.1 -0.1)">
       <use xlink:href="#DejaVuSans-32"/>
      </g>
     </g>
    </g>
    <g id="ytick_4">
     <g id="line2d_9">
      <g>
       <use xlink:href="#m204d12da19" x="28.942188" y="41.214011" style="stroke: #000000; stroke-width: 0.8"/>
      </g>
     </g>
     <g id="text_9">
      <!-- 4 -->
      <g transform="translate(15.579688 45.013229) scale(0.1 -0.1)">
       <defs>
        <path id="DejaVuSans-34" d="M 2419 4116 
L 825 1625 
L 2419 1625 
L 2419 4116 
z
M 2253 4666 
L 3047 4666 
L 3047 1625 
L 3713 1625 
L 3713 1100 
L 3047 1100 
L 3047 0 
L 2419 0 
L 2419 1100 
L 313 1100 
L 313 1709 
L 2253 4666 
z
" transform="scale(0.015625)"/>
       </defs>
       <use xlink:href="#DejaVuSans-34"/>
      </g>
     </g>
    </g>
    <g id="ytick_5">
     <g id="line2d_10">
      <g>
       <use xlink:href="#m204d12da19" x="28.942188" y="10.999219" style="stroke: #000000; stroke-width: 0.8"/>
      </g>
     </g>
     <g id="text_10">
      <!-- 6 -->
      <g transform="translate(15.579688 14.798438) scale(0.1 -0.1)">
       <defs>
        <path id="DejaVuSans-36" d="M 2113 2584 
Q 1688 2584 1439 2293 
Q 1191 2003 1191 1497 
Q 1191 994 1439 701 
Q 1688 409 2113 409 
Q 2538 409 2786 701 
Q 3034 994 3034 1497 
Q 3034 2003 2786 2293 
Q 2538 2584 2113 2584 
z
M 3366 4563 
L 3366 3988 
Q 3128 4100 2886 4159 
Q 2644 4219 2406 4219 
Q 1781 4219 1451 3797 
Q 1122 3375 1075 2522 
Q 1259 2794 1537 2939 
Q 1816 3084 2150 3084 
Q 2853 3084 3261 2657 
Q 3669 2231 3669 1497 
Q 3669 778 3244 343 
Q 2819 -91 2113 -91 
Q 1303 -91 875 529 
Q 447 1150 447 2328 
Q 447 3434 972 4092 
Q 1497 4750 2381 4750 
Q 2619 4750 2861 4703 
Q 3103 4656 3366 4563 
z
" transform="scale(0.015625)"/>
       </defs>
       <use xlink:href="#DejaVuSans-36"/>
      </g>
     </g>
    </g>
   </g>
   <g id="patch_3">
    <path d="M 28.942188 146.299401 
L 28.942188 7.699401 
" style="fill: none; stroke: #000000; stroke-width: 0.8; stroke-linejoin: miter; stroke-linecap: square"/>
   </g>
   <g id="patch_4">
    <path d="M 224.242188 146.299401 
L 224.242188 7.699401 
" style="fill: none; stroke: #000000; stroke-width: 0.8; stroke-linejoin: miter; stroke-linecap: square"/>
   </g>
   <g id="patch_5">
    <path d="M 28.942188 146.299401 
L 224.242188 146.299401 
" style="fill: none; stroke: #000000; stroke-width: 0.8; stroke-linejoin: miter; stroke-linecap: square"/>
   </g>
   <g id="patch_6">
    <path d="M 28.942188 7.699401 
L 224.242188 7.699401 
" style="fill: none; stroke: #000000; stroke-width: 0.8; stroke-linejoin: miter; stroke-linecap: square"/>
   </g>
  </g>
 </g>
 <defs>
  <clipPath id="p80c29f83b3">
   <rect x="28.942188" y="7.699401" width="195.3" height="138.6"/>
  </clipPath>
 </defs>
</svg>
