<?xml version="1.0" encoding="utf-8" standalone="no"?>
<!DOCTYPE svg PUBLIC "-//W3C//DTD SVG 1.1//EN"
  "http://www.w3.org/Graphics/SVG/1.1/DTD/svg11.dtd">
<svg xmlns:xlink="http://www.w3.org/1999/xlink" width="231.442187pt" height="169.678125pt" viewBox="0 0 231.442187 169.678125" xmlns="http://www.w3.org/2000/svg" version="1.1">
 <metadata>
  <rdf:RDF xmlns:dc="http://purl.org/dc/elements/1.1/" xmlns:cc="http://creativecommons.org/ns#" xmlns:rdf="http://www.w3.org/1999/02/22-rdf-syntax-ns#">
   <cc:Work>
    <dc:type rdf:resource="http://purl.org/dc/dcmitype/StillImage"/>
    <dc:date>2025-07-08T14:27:15.792378</dc:date>
    <dc:format>image/svg+xml</dc:format>
    <dc:creator>
     <cc:Agent>
      <dc:title>Matplotlib v3.7.2, https://matplotlib.org/</dc:title>
     </cc:Agent>
    </dc:creator>
   </cc:Work>
  </rdf:RDF>
 </metadata>
 <defs>
  <style type="text/css">*{stroke-linejoin: round; stroke-linecap: butt}</style>
 </defs>
 <g id="figure_1">
  <g id="patch_1">
   <path d="M 0 169.678125 
L 231.442187 169.678125 
L 231.442187 0 
L 0 0 
z
" style="fill: #ffffff"/>
  </g>
  <g id="axes_1">
   <g id="patch_2">
    <path d="M 28.942188 145.8 
L 224.242188 145.8 
L 224.242188 7.2 
L 28.942188 7.2 
z
" style="fill: #ffffff"/>
   </g>
   <g id="PathCollection_1">
    <defs>
     <path id="m380c7f180b" d="M 0 3 
C 0.795609 3 1.55874 2.683901 2.12132 2.12132 
C 2.683901 1.55874 3 0.795609 3 0 
C 3 -0.795609 2.683901 -1.55874 2.12132 -2.12132 
C 1.55874 -2.683901 0.795609 -3 0 -3 
C -0.795609 -3 -1.55874 -2.683901 -2.12132 -2.12132 
C -2.683901 -1.55874 -3 -0.795609 -3 0 
C -3 0.795609 -2.683901 1.55874 -2.12132 2.12132 
C -1.55874 2.683901 -0.795609 3 0 3 
z
" style="stroke: #1f77b4"/>
    </defs>
    <g clip-path="url(#p274d1b37f1)">
     <use xlink:href="#m380c7f180b" x="72.415166" y="123.30248" style="fill: #1f77b4; stroke: #1f77b4"/>
     <use xlink:href="#m380c7f180b" x="80.44174" y="108.185025" style="fill: #1f77b4; stroke: #1f77b4"/>
     <use xlink:href="#m380c7f180b" x="148.527692" y="69.042544" style="fill: #1f77b4; stroke: #1f77b4"/>
     <use xlink:href="#m380c7f180b" x="197.673269" y="44.66788" style="fill: #1f77b4; stroke: #1f77b4"/>
     <use xlink:href="#m380c7f180b" x="187.260501" y="27.438966" style="fill: #1f77b4; stroke: #1f77b4"/>
     <use xlink:href="#m380c7f180b" x="115.690384" y="88.923772" style="fill: #1f77b4; stroke: #1f77b4"/>
     <use xlink:href="#m380c7f180b" x="137.674158" y="58.790526" style="fill: #1f77b4; stroke: #1f77b4"/>
     <use xlink:href="#m380c7f180b" x="114.643013" y="69.365784" style="fill: #1f77b4; stroke: #1f77b4"/>
     <use xlink:href="#m380c7f180b" x="100.646948" y="86.371642" style="fill: #1f77b4; stroke: #1f77b4"/>
     <use xlink:href="#m380c7f180b" x="125.027031" y="73.031885" style="fill: #1f77b4; stroke: #1f77b4"/>
     <use xlink:href="#m380c7f180b" x="192.296029" y="34.227106" style="fill: #1f77b4; stroke: #1f77b4"/>
     <use xlink:href="#m380c7f180b" x="131.388926" y="66.767538" style="fill: #1f77b4; stroke: #1f77b4"/>
     <use xlink:href="#m380c7f180b" x="103.056651" y="106.142227" style="fill: #1f77b4; stroke: #1f77b4"/>
     <use xlink:href="#m380c7f180b" x="82.299622" y="115.920363" style="fill: #1f77b4; stroke: #1f77b4"/>
     <use xlink:href="#m380c7f180b" x="106.75822" y="75.710705" style="fill: #1f77b4; stroke: #1f77b4"/>
     <use xlink:href="#m380c7f180b" x="155.585104" y="57.912112" style="fill: #1f77b4; stroke: #1f77b4"/>
     <use xlink:href="#m380c7f180b" x="121.429655" y="78.660686" style="fill: #1f77b4; stroke: #1f77b4"/>
     <use xlink:href="#m380c7f180b" x="136.473455" y="66.413015" style="fill: #1f77b4; stroke: #1f77b4"/>
     <use xlink:href="#m380c7f180b" x="81.207868" y="105.167863" style="fill: #1f77b4; stroke: #1f77b4"/>
     <use xlink:href="#m380c7f180b" x="50.585342" y="115.128695" style="fill: #1f77b4; stroke: #1f77b4"/>
     <use xlink:href="#m380c7f180b" x="138.31513" y="62.315726" style="fill: #1f77b4; stroke: #1f77b4"/>
     <use xlink:href="#m380c7f180b" x="124.0661" y="78.00553" style="fill: #1f77b4; stroke: #1f77b4"/>
     <use xlink:href="#m380c7f180b" x="52.824803" y="125.407658" style="fill: #1f77b4; stroke: #1f77b4"/>
     <use xlink:href="#m380c7f180b" x="64.788078" y="109.793577" style="fill: #1f77b4; stroke: #1f77b4"/>
     <use xlink:href="#m380c7f180b" x="102.299086" y="78.832739" style="fill: #1f77b4; stroke: #1f77b4"/>
     <use xlink:href="#m380c7f180b" x="129.727066" y="66.013523" style="fill: #1f77b4; stroke: #1f77b4"/>
     <use xlink:href="#m380c7f180b" x="37.81946" y="139.5" style="fill: #1f77b4; stroke: #1f77b4"/>
     <use xlink:href="#m380c7f180b" x="133.518962" y="83.948405" style="fill: #1f77b4; stroke: #1f77b4"/>
     <use xlink:href="#m380c7f180b" x="120.699556" y="76.051178" style="fill: #1f77b4; stroke: #1f77b4"/>
     <use xlink:href="#m380c7f180b" x="84.981047" y="114.992339" style="fill: #1f77b4; stroke: #1f77b4"/>
     <use xlink:href="#m380c7f180b" x="140.644237" y="48.091392" style="fill: #1f77b4; stroke: #1f77b4"/>
     <use xlink:href="#m380c7f180b" x="104.99133" y="116.231378" style="fill: #1f77b4; stroke: #1f77b4"/>
     <use xlink:href="#m380c7f180b" x="152.210533" y="67.571543" style="fill: #1f77b4; stroke: #1f77b4"/>
     <use xlink:href="#m380c7f180b" x="80.038842" y="110.303064" style="fill: #1f77b4; stroke: #1f77b4"/>
     <use xlink:href="#m380c7f180b" x="58.195778" y="126.829521" style="fill: #1f77b4; stroke: #1f77b4"/>
     <use xlink:href="#m380c7f180b" x="145.854982" y="56.693324" style="fill: #1f77b4; stroke: #1f77b4"/>
     <use xlink:href="#m380c7f180b" x="95.117707" y="104.099598" style="fill: #1f77b4; stroke: #1f77b4"/>
     <use xlink:href="#m380c7f180b" x="84.786258" y="118.063599" style="fill: #1f77b4; stroke: #1f77b4"/>
     <use xlink:href="#m380c7f180b" x="154.43083" y="43.821576" style="fill: #1f77b4; stroke: #1f77b4"/>
     <use xlink:href="#m380c7f180b" x="151.577124" y="52.809798" style="fill: #1f77b4; stroke: #1f77b4"/>
     <use xlink:href="#m380c7f180b" x="75.489712" y="125.290969" style="fill: #1f77b4; stroke: #1f77b4"/>
     <use xlink:href="#m380c7f180b" x="105.167458" y="95.141898" style="fill: #1f77b4; stroke: #1f77b4"/>
     <use xlink:href="#m380c7f180b" x="38.450293" y="121.99264" style="fill: #1f77b4; stroke: #1f77b4"/>
     <use xlink:href="#m380c7f180b" x="174.236142" y="55.217778" style="fill: #1f77b4; stroke: #1f77b4"/>
     <use xlink:href="#m380c7f180b" x="40.468831" y="135.844564" style="fill: #1f77b4; stroke: #1f77b4"/>
     <use xlink:href="#m380c7f180b" x="174.765219" y="41.48632" style="fill: #1f77b4; stroke: #1f77b4"/>
     <use xlink:href="#m380c7f180b" x="108.438359" y="72.226758" style="fill: #1f77b4; stroke: #1f77b4"/>
     <use xlink:href="#m380c7f180b" x="215.364915" y="13.5" style="fill: #1f77b4; stroke: #1f77b4"/>
     <use xlink:href="#m380c7f180b" x="140.387684" y="63.764773" style="fill: #1f77b4; stroke: #1f77b4"/>
     <use xlink:href="#m380c7f180b" x="123.463306" y="87.985983" style="fill: #1f77b4; stroke: #1f77b4"/>
     <use xlink:href="#m380c7f180b" x="98.142444" y="96.068279" style="fill: #1f77b4; stroke: #1f77b4"/>
     <use xlink:href="#m380c7f180b" x="140.955533" y="66.260192" style="fill: #1f77b4; stroke: #1f77b4"/>
     <use xlink:href="#m380c7f180b" x="145.916723" y="64.167943" style="fill: #1f77b4; stroke: #1f77b4"/>
     <use xlink:href="#m380c7f180b" x="61.786952" y="104.690885" style="fill: #1f77b4; stroke: #1f77b4"/>
     <use xlink:href="#m380c7f180b" x="190.084648" y="34.366903" style="fill: #1f77b4; stroke: #1f77b4"/>
     <use xlink:href="#m380c7f180b" x="147.124776" y="46.116528" style="fill: #1f77b4; stroke: #1f77b4"/>
     <use xlink:href="#m380c7f180b" x="119.882856" y="87.550799" style="fill: #1f77b4; stroke: #1f77b4"/>
     <use xlink:href="#m380c7f180b" x="196.637454" y="29.134982" style="fill: #1f77b4; stroke: #1f77b4"/>
     <use xlink:href="#m380c7f180b" x="61.777711" y="132.378188" style="fill: #1f77b4; stroke: #1f77b4"/>
     <use xlink:href="#m380c7f180b" x="138.766023" y="55.633426" style="fill: #1f77b4; stroke: #1f77b4"/>
     <use xlink:href="#m380c7f180b" x="191.887421" y="41.219273" style="fill: #1f77b4; stroke: #1f77b4"/>
     <use xlink:href="#m380c7f180b" x="140.150257" y="61.297933" style="fill: #1f77b4; stroke: #1f77b4"/>
     <use xlink:href="#m380c7f180b" x="169.6833" y="40.485718" style="fill: #1f77b4; stroke: #1f77b4"/>
     <use xlink:href="#m380c7f180b" x="171.240369" y="39.64319" style="fill: #1f77b4; stroke: #1f77b4"/>
     <use xlink:href="#m380c7f180b" x="158.971215" y="59.367991" style="fill: #1f77b4; stroke: #1f77b4"/>
     <use xlink:href="#m380c7f180b" x="106.637498" y="90.449163" style="fill: #1f77b4; stroke: #1f77b4"/>
     <use xlink:href="#m380c7f180b" x="149.427939" y="71.051644" style="fill: #1f77b4; stroke: #1f77b4"/>
     <use xlink:href="#m380c7f180b" x="198.489195" y="17.675872" style="fill: #1f77b4; stroke: #1f77b4"/>
     <use xlink:href="#m380c7f180b" x="96.583736" y="105.238409" style="fill: #1f77b4; stroke: #1f77b4"/>
     <use xlink:href="#m380c7f180b" x="79.318499" y="99.110251" style="fill: #1f77b4; stroke: #1f77b4"/>
     <use xlink:href="#m380c7f180b" x="84.096734" y="112.908173" style="fill: #1f77b4; stroke: #1f77b4"/>
     <use xlink:href="#m380c7f180b" x="109.04214" y="92.727051" style="fill: #1f77b4; stroke: #1f77b4"/>
     <use xlink:href="#m380c7f180b" x="61.723473" y="118.115528" style="fill: #1f77b4; stroke: #1f77b4"/>
     <use xlink:href="#m380c7f180b" x="119.332683" y="83.701024" style="fill: #1f77b4; stroke: #1f77b4"/>
     <use xlink:href="#m380c7f180b" x="98.929909" y="87.101192" style="fill: #1f77b4; stroke: #1f77b4"/>
     <use xlink:href="#m380c7f180b" x="113.859456" y="86.976812" style="fill: #1f77b4; stroke: #1f77b4"/>
     <use xlink:href="#m380c7f180b" x="96.787486" y="83.517355" style="fill: #1f77b4; stroke: #1f77b4"/>
     <use xlink:href="#m380c7f180b" x="48.144632" y="137.751797" style="fill: #1f77b4; stroke: #1f77b4"/>
     <use xlink:href="#m380c7f180b" x="143.809907" y="70.958707" style="fill: #1f77b4; stroke: #1f77b4"/>
     <use xlink:href="#m380c7f180b" x="133.803535" y="77.383421" style="fill: #1f77b4; stroke: #1f77b4"/>
     <use xlink:href="#m380c7f180b" x="115.462908" y="78.078481" style="fill: #1f77b4; stroke: #1f77b4"/>
     <use xlink:href="#m380c7f180b" x="132.985259" y="65.075318" style="fill: #1f77b4; stroke: #1f77b4"/>
     <use xlink:href="#m380c7f180b" x="72.812052" y="106.887953" style="fill: #1f77b4; stroke: #1f77b4"/>
     <use xlink:href="#m380c7f180b" x="132.049985" y="63.491612" style="fill: #1f77b4; stroke: #1f77b4"/>
     <use xlink:href="#m380c7f180b" x="120.701099" y="83.748245" style="fill: #1f77b4; stroke: #1f77b4"/>
     <use xlink:href="#m380c7f180b" x="66.892513" y="130.328915" style="fill: #1f77b4; stroke: #1f77b4"/>
     <use xlink:href="#m380c7f180b" x="115.796098" y="90.203187" style="fill: #1f77b4; stroke: #1f77b4"/>
     <use xlink:href="#m380c7f180b" x="87.702315" y="84.634569" style="fill: #1f77b4; stroke: #1f77b4"/>
     <use xlink:href="#m380c7f180b" x="86.894435" y="107.89479" style="fill: #1f77b4; stroke: #1f77b4"/>
     <use xlink:href="#m380c7f180b" x="171.328397" y="34.944413" style="fill: #1f77b4; stroke: #1f77b4"/>
     <use xlink:href="#m380c7f180b" x="118.774438" y="81.359093" style="fill: #1f77b4; stroke: #1f77b4"/>
     <use xlink:href="#m380c7f180b" x="131.620852" y="54.412781" style="fill: #1f77b4; stroke: #1f77b4"/>
     <use xlink:href="#m380c7f180b" x="146.352758" y="70.954452" style="fill: #1f77b4; stroke: #1f77b4"/>
     <use xlink:href="#m380c7f180b" x="74.481402" y="120.734088" style="fill: #1f77b4; stroke: #1f77b4"/>
     <use xlink:href="#m380c7f180b" x="91.427298" y="86.823267" style="fill: #1f77b4; stroke: #1f77b4"/>
     <use xlink:href="#m380c7f180b" x="140.52798" y="62.923272" style="fill: #1f77b4; stroke: #1f77b4"/>
     <use xlink:href="#m380c7f180b" x="132.773499" y="60.723843" style="fill: #1f77b4; stroke: #1f77b4"/>
     <use xlink:href="#m380c7f180b" x="78.858499" y="105.954308" style="fill: #1f77b4; stroke: #1f77b4"/>
     <use xlink:href="#m380c7f180b" x="161.599962" y="38.786015" style="fill: #1f77b4; stroke: #1f77b4"/>
     <use xlink:href="#m380c7f180b" x="88.822567" y="105.676168" style="fill: #1f77b4; stroke: #1f77b4"/>
    </g>
   </g>
   <g id="matplotlib.axis_1">
    <g id="xtick_1">
     <g id="line2d_1">
      <defs>
       <path id="m2348a97e3e" d="M 0 0 
L 0 3.5 
" style="stroke: #000000; stroke-width: 0.8"/>
      </defs>
      <g>
       <use xlink:href="#m2348a97e3e" x="42.920761" y="145.8" style="stroke: #000000; stroke-width: 0.8"/>
      </g>
     </g>
     <g id="text_1">
      <!-- −1 -->
      <g transform="translate(35.549668 160.398438) scale(0.1 -0.1)">
       <defs>
        <path id="DejaVuSans-2212" d="M 678 2272 
L 4684 2272 
L 4684 1741 
L 678 1741 
L 678 2272 
z
" transform="scale(0.015625)"/>
        <path id="DejaVuSans-31" d="M 794 531 
L 1825 531 
L 1825 4091 
L 703 3866 
L 703 4441 
L 1819 4666 
L 2450 4666 
L 2450 531 
L 3481 531 
L 3481 0 
L 794 0 
L 794 531 
z
" transform="scale(0.015625)"/>
       </defs>
       <use xlink:href="#DejaVuSans-2212"/>
       <use xlink:href="#DejaVuSans-31" x="83.789062"/>
      </g>
     </g>
    </g>
    <g id="xtick_2">
     <g id="line2d_2">
      <g>
       <use xlink:href="#m2348a97e3e" x="81.797944" y="145.8" style="stroke: #000000; stroke-width: 0.8"/>
      </g>
     </g>
     <g id="text_2">
      <!-- 0 -->
      <g transform="translate(78.616694 160.398438) scale(0.1 -0.1)">
       <defs>
        <path id="DejaVuSans-30" d="M 2034 4250 
Q 1547 4250 1301 3770 
Q 1056 3291 1056 2328 
Q 1056 1369 1301 889 
Q 1547 409 2034 409 
Q 2525 409 2770 889 
Q 3016 1369 3016 2328 
Q 3016 3291 2770 3770 
Q 2525 4250 2034 4250 
z
M 2034 4750 
Q 2819 4750 3233 4129 
Q 3647 3509 3647 2328 
Q 3647 1150 3233 529 
Q 2819 -91 2034 -91 
Q 1250 -91 836 529 
Q 422 1150 422 2328 
Q 422 3509 836 4129 
Q 1250 4750 2034 4750 
z
" transform="scale(0.015625)"/>
       </defs>
       <use xlink:href="#DejaVuSans-30"/>
      </g>
     </g>
    </g>
    <g id="xtick_3">
     <g id="line2d_3">
      <g>
       <use xlink:href="#m2348a97e3e" x="120.675127" y="145.8" style="stroke: #000000; stroke-width: 0.8"/>
      </g>
     </g>
     <g id="text_3">
      <!-- 1 -->
      <g transform="translate(117.493877 160.398438) scale(0.1 -0.1)">
       <use xlink:href="#DejaVuSans-31"/>
      </g>
     </g>
    </g>
    <g id="xtick_4">
     <g id="line2d_4">
      <g>
       <use xlink:href="#m2348a97e3e" x="159.55231" y="145.8" style="stroke: #000000; stroke-width: 0.8"/>
      </g>
     </g>
     <g id="text_4">
      <!-- 2 -->
      <g transform="translate(156.37106 160.398438) scale(0.1 -0.1)">
       <defs>
        <path id="DejaVuSans-32" d="M 1228 531 
L 3431 531 
L 3431 0 
L 469 0 
L 469 531 
Q 828 903 1448 1529 
Q 2069 2156 2228 2338 
Q 2531 2678 2651 2914 
Q 2772 3150 2772 3378 
Q 2772 3750 2511 3984 
Q 2250 4219 1831 4219 
Q 1534 4219 1204 4116 
Q 875 4013 500 3803 
L 500 4441 
Q 881 4594 1212 4672 
Q 1544 4750 1819 4750 
Q 2544 4750 2975 4387 
Q 3406 4025 3406 3419 
Q 3406 3131 3298 2873 
Q 3191 2616 2906 2266 
Q 2828 2175 2409 1742 
Q 1991 1309 1228 531 
z
" transform="scale(0.015625)"/>
       </defs>
       <use xlink:href="#DejaVuSans-32"/>
      </g>
     </g>
    </g>
    <g id="xtick_5">
     <g id="line2d_5">
      <g>
       <use xlink:href="#m2348a97e3e" x="198.429493" y="145.8" style="stroke: #000000; stroke-width: 0.8"/>
      </g>
     </g>
     <g id="text_5">
      <!-- 3 -->
      <g transform="translate(195.248243 160.398438) scale(0.1 -0.1)">
       <defs>
        <path id="DejaVuSans-33" d="M 2597 2516 
Q 3050 2419 3304 2112 
Q 3559 1806 3559 1356 
Q 3559 666 3084 287 
Q 2609 -91 1734 -91 
Q 1441 -91 1130 -33 
Q 819 25 488 141 
L 488 750 
Q 750 597 1062 519 
Q 1375 441 1716 441 
Q 2309 441 2620 675 
Q 2931 909 2931 1356 
Q 2931 1769 2642 2001 
Q 2353 2234 1838 2234 
L 1294 2234 
L 1294 2753 
L 1863 2753 
Q 2328 2753 2575 2939 
Q 2822 3125 2822 3475 
Q 2822 3834 2567 4026 
Q 2313 4219 1838 4219 
Q 1578 4219 1281 4162 
Q 984 4106 628 3988 
L 628 4550 
Q 988 4650 1302 4700 
Q 1616 4750 1894 4750 
Q 2613 4750 3031 4423 
Q 3450 4097 3450 3541 
Q 3450 3153 3228 2886 
Q 3006 2619 2597 2516 
z
" transform="scale(0.015625)"/>
       </defs>
       <use xlink:href="#DejaVuSans-33"/>
      </g>
     </g>
    </g>
   </g>
   <g id="matplotlib.axis_2">
    <g id="ytick_1">
     <g id="line2d_6">
      <defs>
       <path id="mf69e21bb73" d="M 0 0 
L -3.5 0 
" style="stroke: #000000; stroke-width: 0.8"/>
      </defs>
      <g>
       <use xlink:href="#mf69e21bb73" x="28.942188" y="133.871174" style="stroke: #000000; stroke-width: 0.8"/>
      </g>
     </g>
     <g id="text_6">
      <!-- −2 -->
      <g transform="translate(7.2 137.670392) scale(0.1 -0.1)">
       <use xlink:href="#DejaVuSans-2212"/>
       <use xlink:href="#DejaVuSans-32" x="83.789062"/>
      </g>
     </g>
    </g>
    <g id="ytick_2">
     <g id="line2d_7">
      <g>
       <use xlink:href="#mf69e21bb73" x="28.942188" y="107.115421" style="stroke: #000000; stroke-width: 0.8"/>
      </g>
     </g>
     <g id="text_7">
      <!-- 0 -->
      <g transform="translate(15.579688 110.91464) scale(0.1 -0.1)">
       <use xlink:href="#DejaVuSans-30"/>
      </g>
     </g>
    </g>
    <g id="ytick_3">
     <g id="line2d_8">
      <g>
       <use xlink:href="#mf69e21bb73" x="28.942188" y="80.359668" style="stroke: #000000; stroke-width: 0.8"/>
      </g>
     </g>
     <g id="text_8">
      <!-- 2 -->
      <g transform="translate(15.579688 84.158887) scale(0.1 -0.1)">
       <use xlink:href="#DejaVuSans-32"/>
      </g>
     </g>
    </g>
    <g id="ytick_4">
     <g id="line2d_9">
      <g>
       <use xlink:href="#mf69e21bb73" x="28.942188" y="53.603915" style="stroke: #000000; stroke-width: 0.8"/>
      </g>
     </g>
     <g id="text_9">
      <!-- 4 -->
      <g transform="translate(15.579688 57.403134) scale(0.1 -0.1)">
       <defs>
        <path id="DejaVuSans-34" d="M 2419 4116 
L 825 1625 
L 2419 1625 
L 2419 4116 
z
M 2253 4666 
L 3047 4666 
L 3047 1625 
L 3713 1625 
L 3713 1100 
L 3047 1100 
L 3047 0 
L 2419 0 
L 2419 1100 
L 313 1100 
L 313 1709 
L 2253 4666 
z
" transform="scale(0.015625)"/>
       </defs>
       <use xlink:href="#DejaVuSans-34"/>
      </g>
     </g>
    </g>
    <g id="ytick_5">
     <g id="line2d_10">
      <g>
       <use xlink:href="#mf69e21bb73" x="28.942188" y="26.848163" style="stroke: #000000; stroke-width: 0.8"/>
      </g>
     </g>
     <g id="text_10">
      <!-- 6 -->
      <g transform="translate(15.579688 30.647381) scale(0.1 -0.1)">
       <defs>
        <path id="DejaVuSans-36" d="M 2113 2584 
Q 1688 2584 1439 2293 
Q 1191 2003 1191 1497 
Q 1191 994 1439 701 
Q 1688 409 2113 409 
Q 2538 409 2786 701 
Q 3034 994 3034 1497 
Q 3034 2003 2786 2293 
Q 2538 2584 2113 2584 
z
M 3366 4563 
L 3366 3988 
Q 3128 4100 2886 4159 
Q 2644 4219 2406 4219 
Q 1781 4219 1451 3797 
Q 1122 3375 1075 2522 
Q 1259 2794 1537 2939 
Q 1816 3084 2150 3084 
Q 2853 3084 3261 2657 
Q 3669 2231 3669 1497 
Q 3669 778 3244 343 
Q 2819 -91 2113 -91 
Q 1303 -91 875 529 
Q 447 1150 447 2328 
Q 447 3434 972 4092 
Q 1497 4750 2381 4750 
Q 2619 4750 2861 4703 
Q 3103 4656 3366 4563 
z
" transform="scale(0.015625)"/>
       </defs>
       <use xlink:href="#DejaVuSans-36"/>
      </g>
     </g>
    </g>
   </g>
   <g id="patch_3">
    <path d="M 28.942188 145.8 
L 28.942188 7.2 
" style="fill: none; stroke: #000000; stroke-width: 0.8; stroke-linejoin: miter; stroke-linecap: square"/>
   </g>
   <g id="patch_4">
    <path d="M 224.242188 145.8 
L 224.242188 7.2 
" style="fill: none; stroke: #000000; stroke-width: 0.8; stroke-linejoin: miter; stroke-linecap: square"/>
   </g>
   <g id="patch_5">
    <path d="M 28.942187 145.8 
L 224.242188 145.8 
" style="fill: none; stroke: #000000; stroke-width: 0.8; stroke-linejoin: miter; stroke-linecap: square"/>
   </g>
   <g id="patch_6">
    <path d="M 28.942187 7.2 
L 224.242188 7.2 
" style="fill: none; stroke: #000000; stroke-width: 0.8; stroke-linejoin: miter; stroke-linecap: square"/>
   </g>
  </g>
 </g>
 <defs>
  <clipPath id="p274d1b37f1">
   <rect x="28.942188" y="7.2" width="195.3" height="138.6"/>
  </clipPath>
 </defs>
</svg>
