<?xml version="1.0" encoding="utf-8" standalone="no"?>
<!DOCTYPE svg PUBLIC "-//W3C//DTD SVG 1.1//EN"
  "http://www.w3.org/Graphics/SVG/1.1/DTD/svg11.dtd">
<svg xmlns:xlink="http://www.w3.org/1999/xlink" width="705.742188pt" height="308.278125pt" viewBox="0 0 705.742188 308.278125" xmlns="http://www.w3.org/2000/svg" version="1.1">
 <metadata>
  <rdf:RDF xmlns:dc="http://purl.org/dc/elements/1.1/" xmlns:cc="http://creativecommons.org/ns#" xmlns:rdf="http://www.w3.org/1999/02/22-rdf-syntax-ns#">
   <cc:Work>
    <dc:type rdf:resource="http://purl.org/dc/dcmitype/StillImage"/>
    <dc:date>2025-07-01T15:22:02.800957</dc:date>
    <dc:format>image/svg+xml</dc:format>
    <dc:creator>
     <cc:Agent>
      <dc:title>Matplotlib v3.7.2, https://matplotlib.org/</dc:title>
     </cc:Agent>
    </dc:creator>
   </cc:Work>
  </rdf:RDF>
 </metadata>
 <defs>
  <style type="text/css">*{stroke-linejoin: round; stroke-linecap: butt}</style>
 </defs>
 <g id="figure_1">
  <g id="patch_1">
   <path d="M 0 308.278125 
L 705.742188 308.278125 
L 705.742188 0 
L 0 0 
z
" style="fill: #ffffff"/>
  </g>
  <g id="axes_1">
   <g id="patch_2">
    <path d="M 28.942188 284.4 
L 698.542188 284.4 
L 698.542188 7.2 
L 28.942188 7.2 
z
" style="fill: #ffffff"/>
   </g>
   <g id="matplotlib.axis_1">
    <g id="xtick_1">
     <g id="line2d_1">
      <defs>
       <path id="mdf625c6b3b" d="M 0 0 
L 0 3.5 
" style="stroke: #000000; stroke-width: 0.8"/>
      </defs>
      <g>
       <use xlink:href="#mdf625c6b3b" x="59.378551" y="284.4" style="stroke: #000000; stroke-width: 0.8"/>
      </g>
     </g>
     <g id="text_1">
      <!-- 0 -->
      <g transform="translate(56.197301 298.998438) scale(0.1 -0.1)">
       <defs>
        <path id="DejaVuSans-30" d="M 2034 4250 
Q 1547 4250 1301 3770 
Q 1056 3291 1056 2328 
Q 1056 1369 1301 889 
Q 1547 409 2034 409 
Q 2525 409 2770 889 
Q 3016 1369 3016 2328 
Q 3016 3291 2770 3770 
Q 2525 4250 2034 4250 
z
M 2034 4750 
Q 2819 4750 3233 4129 
Q 3647 3509 3647 2328 
Q 3647 1150 3233 529 
Q 2819 -91 2034 -91 
Q 1250 -91 836 529 
Q 422 1150 422 2328 
Q 422 3509 836 4129 
Q 1250 4750 2034 4750 
z
" transform="scale(0.015625)"/>
       </defs>
       <use xlink:href="#DejaVuSans-30"/>
      </g>
     </g>
    </g>
    <g id="xtick_2">
     <g id="line2d_2">
      <g>
       <use xlink:href="#mdf625c6b3b" x="181.124006" y="284.4" style="stroke: #000000; stroke-width: 0.8"/>
      </g>
     </g>
     <g id="text_2">
      <!-- 1 -->
      <g transform="translate(177.942756 298.998438) scale(0.1 -0.1)">
       <defs>
        <path id="DejaVuSans-31" d="M 794 531 
L 1825 531 
L 1825 4091 
L 703 3866 
L 703 4441 
L 1819 4666 
L 2450 4666 
L 2450 531 
L 3481 531 
L 3481 0 
L 794 0 
L 794 531 
z
" transform="scale(0.015625)"/>
       </defs>
       <use xlink:href="#DejaVuSans-31"/>
      </g>
     </g>
    </g>
    <g id="xtick_3">
     <g id="line2d_3">
      <g>
       <use xlink:href="#mdf625c6b3b" x="302.86946" y="284.4" style="stroke: #000000; stroke-width: 0.8"/>
      </g>
     </g>
     <g id="text_3">
      <!-- 2 -->
      <g transform="translate(299.68821 298.998438) scale(0.1 -0.1)">
       <defs>
        <path id="DejaVuSans-32" d="M 1228 531 
L 3431 531 
L 3431 0 
L 469 0 
L 469 531 
Q 828 903 1448 1529 
Q 2069 2156 2228 2338 
Q 2531 2678 2651 2914 
Q 2772 3150 2772 3378 
Q 2772 3750 2511 3984 
Q 2250 4219 1831 4219 
Q 1534 4219 1204 4116 
Q 875 4013 500 3803 
L 500 4441 
Q 881 4594 1212 4672 
Q 1544 4750 1819 4750 
Q 2544 4750 2975 4387 
Q 3406 4025 3406 3419 
Q 3406 3131 3298 2873 
Q 3191 2616 2906 2266 
Q 2828 2175 2409 1742 
Q 1991 1309 1228 531 
z
" transform="scale(0.015625)"/>
       </defs>
       <use xlink:href="#DejaVuSans-32"/>
      </g>
     </g>
    </g>
    <g id="xtick_4">
     <g id="line2d_4">
      <g>
       <use xlink:href="#mdf625c6b3b" x="424.614915" y="284.4" style="stroke: #000000; stroke-width: 0.8"/>
      </g>
     </g>
     <g id="text_4">
      <!-- 3 -->
      <g transform="translate(421.433665 298.998438) scale(0.1 -0.1)">
       <defs>
        <path id="DejaVuSans-33" d="M 2597 2516 
Q 3050 2419 3304 2112 
Q 3559 1806 3559 1356 
Q 3559 666 3084 287 
Q 2609 -91 1734 -91 
Q 1441 -91 1130 -33 
Q 819 25 488 141 
L 488 750 
Q 750 597 1062 519 
Q 1375 441 1716 441 
Q 2309 441 2620 675 
Q 2931 909 2931 1356 
Q 2931 1769 2642 2001 
Q 2353 2234 1838 2234 
L 1294 2234 
L 1294 2753 
L 1863 2753 
Q 2328 2753 2575 2939 
Q 2822 3125 2822 3475 
Q 2822 3834 2567 4026 
Q 2313 4219 1838 4219 
Q 1578 4219 1281 4162 
Q 984 4106 628 3988 
L 628 4550 
Q 988 4650 1302 4700 
Q 1616 4750 1894 4750 
Q 2613 4750 3031 4423 
Q 3450 4097 3450 3541 
Q 3450 3153 3228 2886 
Q 3006 2619 2597 2516 
z
" transform="scale(0.015625)"/>
       </defs>
       <use xlink:href="#DejaVuSans-33"/>
      </g>
     </g>
    </g>
    <g id="xtick_5">
     <g id="line2d_5">
      <g>
       <use xlink:href="#mdf625c6b3b" x="546.360369" y="284.4" style="stroke: #000000; stroke-width: 0.8"/>
      </g>
     </g>
     <g id="text_5">
      <!-- 4 -->
      <g transform="translate(543.179119 298.998438) scale(0.1 -0.1)">
       <defs>
        <path id="DejaVuSans-34" d="M 2419 4116 
L 825 1625 
L 2419 1625 
L 2419 4116 
z
M 2253 4666 
L 3047 4666 
L 3047 1625 
L 3713 1625 
L 3713 1100 
L 3047 1100 
L 3047 0 
L 2419 0 
L 2419 1100 
L 313 1100 
L 313 1709 
L 2253 4666 
z
" transform="scale(0.015625)"/>
       </defs>
       <use xlink:href="#DejaVuSans-34"/>
      </g>
     </g>
    </g>
    <g id="xtick_6">
     <g id="line2d_6">
      <g>
       <use xlink:href="#mdf625c6b3b" x="668.105824" y="284.4" style="stroke: #000000; stroke-width: 0.8"/>
      </g>
     </g>
     <g id="text_6">
      <!-- 5 -->
      <g transform="translate(664.924574 298.998438) scale(0.1 -0.1)">
       <defs>
        <path id="DejaVuSans-35" d="M 691 4666 
L 3169 4666 
L 3169 4134 
L 1269 4134 
L 1269 2991 
Q 1406 3038 1543 3061 
Q 1681 3084 1819 3084 
Q 2600 3084 3056 2656 
Q 3513 2228 3513 1497 
Q 3513 744 3044 326 
Q 2575 -91 1722 -91 
Q 1428 -91 1123 -41 
Q 819 9 494 109 
L 494 744 
Q 775 591 1075 516 
Q 1375 441 1709 441 
Q 2250 441 2565 725 
Q 2881 1009 2881 1497 
Q 2881 1984 2565 2268 
Q 2250 2553 1709 2553 
Q 1456 2553 1204 2497 
Q 953 2441 691 2322 
L 691 4666 
z
" transform="scale(0.015625)"/>
       </defs>
       <use xlink:href="#DejaVuSans-35"/>
      </g>
     </g>
    </g>
   </g>
   <g id="matplotlib.axis_2">
    <g id="ytick_1">
     <g id="line2d_7">
      <defs>
       <path id="m774dbec6aa" d="M 0 0 
L -3.5 0 
" style="stroke: #000000; stroke-width: 0.8"/>
      </defs>
      <g>
       <use xlink:href="#m774dbec6aa" x="28.942188" y="265.177025" style="stroke: #000000; stroke-width: 0.8"/>
      </g>
     </g>
     <g id="text_7">
      <!-- −3 -->
      <g transform="translate(7.2 268.976244) scale(0.1 -0.1)">
       <defs>
        <path id="DejaVuSans-2212" d="M 678 2272 
L 4684 2272 
L 4684 1741 
L 678 1741 
L 678 2272 
z
" transform="scale(0.015625)"/>
       </defs>
       <use xlink:href="#DejaVuSans-2212"/>
       <use xlink:href="#DejaVuSans-33" x="83.789062"/>
      </g>
     </g>
    </g>
    <g id="ytick_2">
     <g id="line2d_8">
      <g>
       <use xlink:href="#m774dbec6aa" x="28.942188" y="219.649486" style="stroke: #000000; stroke-width: 0.8"/>
      </g>
     </g>
     <g id="text_8">
      <!-- −2 -->
      <g transform="translate(7.2 223.448705) scale(0.1 -0.1)">
       <use xlink:href="#DejaVuSans-2212"/>
       <use xlink:href="#DejaVuSans-32" x="83.789062"/>
      </g>
     </g>
    </g>
    <g id="ytick_3">
     <g id="line2d_9">
      <g>
       <use xlink:href="#m774dbec6aa" x="28.942188" y="174.121947" style="stroke: #000000; stroke-width: 0.8"/>
      </g>
     </g>
     <g id="text_9">
      <!-- −1 -->
      <g transform="translate(7.2 177.921166) scale(0.1 -0.1)">
       <use xlink:href="#DejaVuSans-2212"/>
       <use xlink:href="#DejaVuSans-31" x="83.789062"/>
      </g>
     </g>
    </g>
    <g id="ytick_4">
     <g id="line2d_10">
      <g>
       <use xlink:href="#m774dbec6aa" x="28.942188" y="128.594408" style="stroke: #000000; stroke-width: 0.8"/>
      </g>
     </g>
     <g id="text_10">
      <!-- 0 -->
      <g transform="translate(15.579688 132.393627) scale(0.1 -0.1)">
       <use xlink:href="#DejaVuSans-30"/>
      </g>
     </g>
    </g>
    <g id="ytick_5">
     <g id="line2d_11">
      <g>
       <use xlink:href="#m774dbec6aa" x="28.942188" y="83.066869" style="stroke: #000000; stroke-width: 0.8"/>
      </g>
     </g>
     <g id="text_11">
      <!-- 1 -->
      <g transform="translate(15.579688 86.866088) scale(0.1 -0.1)">
       <use xlink:href="#DejaVuSans-31"/>
      </g>
     </g>
    </g>
    <g id="ytick_6">
     <g id="line2d_12">
      <g>
       <use xlink:href="#m774dbec6aa" x="28.942188" y="37.53933" style="stroke: #000000; stroke-width: 0.8"/>
      </g>
     </g>
     <g id="text_12">
      <!-- 2 -->
      <g transform="translate(15.579688 41.338549) scale(0.1 -0.1)">
       <use xlink:href="#DejaVuSans-32"/>
      </g>
     </g>
    </g>
   </g>
   <g id="line2d_13">
    <path d="M 59.378551 28.158293 
L 71.801557 23.982565 
L 84.224562 21.284496 
L 96.647568 19.937975 
L 109.070573 19.8 
L 121.493579 20.731628 
L 133.916585 22.611694 
L 146.33959 25.341991 
L 158.762596 28.844043 
L 171.185601 33.049367 
L 183.608607 37.886116 
L 196.031612 43.265557 
L 208.454618 49.071688 
L 220.877623 55.156542 
L 233.300629 61.342455 
L 245.723635 67.431425 
L 258.14664 73.220023 
L 270.569646 78.517629 
L 282.992651 83.164883 
L 295.415657 87.049398 
L 307.838662 90.11621 
L 320.261668 92.37136 
L 332.684674 93.878169 
L 345.107679 94.747102 
L 357.530685 95.121015 
L 369.95369 95.158333 
L 382.376696 95.016971 
L 394.799701 94.841202 
L 407.222707 94.753215 
L 419.645713 94.849913 
L 432.068718 95.204287 
L 444.491724 95.870096 
L 456.914729 96.887662 
L 469.337735 98.288917 
L 481.76074 100.099863 
L 494.183746 102.339777 
L 506.606752 105.017153 
L 519.029757 108.123492 
L 531.452763 111.626774 
L 543.875768 115.466501 
L 556.298774 119.552292 
L 568.721779 123.767222 
L 581.144785 127.976046 
L 593.56779 132.037743 
L 605.990796 135.820486 
L 618.413802 139.216889 
L 630.836807 142.156845 
L 643.259813 144.616081 
L 655.682818 146.618695 
L 668.105824 148.233632 
" clip-path="url(#padb4c8e923)" style="fill: none; stroke: #1f77b4; stroke-opacity: 0.5; stroke-width: 1.5; stroke-linecap: square"/>
   </g>
   <g id="line2d_14">
    <path d="M 59.378551 56.367036 
L 71.801557 53.379056 
L 84.224562 51.476017 
L 96.647568 50.62363 
L 109.070573 50.761533 
L 121.493579 51.81198 
L 133.916585 53.68996 
L 146.33959 56.312378 
L 158.762596 59.604172 
L 171.185601 63.499792 
L 183.608607 67.939261 
L 196.031612 72.859369 
L 208.454618 78.181575 
L 220.877623 83.799102 
L 233.300629 89.56614 
L 245.723635 95.292156 
L 258.14664 100.743366 
L 270.569646 105.652749 
L 282.992651 109.738255 
L 295.415657 112.727668 
L 307.838662 114.387019 
L 320.261668 114.54878 
L 332.684674 113.135441 
L 345.107679 110.174634 
L 357.530685 105.802691 
L 369.95369 100.255292 
L 382.376696 93.845584 
L 394.799701 86.932127 
L 407.222707 79.880932 
L 419.645713 73.026561 
L 432.068718 66.638156 
L 444.491724 60.895194 
L 456.914729 55.87678 
L 469.337735 51.565963 
L 481.76074 47.868385 
L 494.183746 44.64217 
L 506.606752 41.734232 
L 519.029757 39.017054 
L 531.452763 36.420004 
L 543.875768 33.949988 
L 556.298774 31.698176 
L 568.721779 29.831602 
L 581.144785 28.570861 
L 593.56779 28.157396 
L 605.990796 28.815357 
L 618.413802 30.713719 
L 630.836807 33.934422 
L 643.259813 38.451124 
L 655.682818 44.121567 
L 668.105824 50.694646 
" clip-path="url(#padb4c8e923)" style="fill: none; stroke: #ff7f0e; stroke-opacity: 0.5; stroke-width: 1.5; stroke-linecap: square"/>
   </g>
   <g id="line2d_15">
    <path d="M 59.378551 236.608662 
L 71.801557 247.200305 
L 84.224562 256.408147 
L 96.647568 263.781274 
L 109.070573 268.953944 
L 121.493579 271.670342 
L 133.916585 271.8 
L 146.33959 269.342792 
L 158.762596 264.423466 
L 171.185601 257.276913 
L 183.608607 248.226279 
L 196.031612 237.656811 
L 208.454618 225.988438 
L 220.877623 213.649976 
L 233.300629 201.057257 
L 245.723635 188.59637 
L 258.14664 176.612427 
L 270.569646 165.403117 
L 282.992651 155.21581 
L 295.415657 146.246581 
L 307.838662 138.639801 
L 320.261668 132.487352 
L 332.684674 127.827185 
L 345.107679 124.641697 
L 357.530685 122.85686 
L 369.95369 122.343252 
L 382.376696 122.919989 
L 394.799701 124.362161 
L 407.222707 126.411829 
L 419.645713 128.791837 
L 432.068718 131.221474 
L 444.491724 133.432506 
L 456.914729 135.184365 
L 469.337735 136.277199 
L 481.76074 136.562157 
L 494.183746 135.948412 
L 506.606752 134.406952 
L 519.029757 131.971131 
L 531.452763 128.734133 
L 543.875768 124.843414 
L 556.298774 120.492105 
L 568.721779 115.907373 
L 581.144785 111.335827 
L 593.56779 107.026484 
L 605.990796 103.212016 
L 618.413802 100.089626 
L 630.836807 97.803238 
L 643.259813 96.428803 
L 655.682818 95.964687 
L 668.105824 96.328555 
" clip-path="url(#padb4c8e923)" style="fill: none; stroke: #2ca02c; stroke-opacity: 0.5; stroke-width: 1.5; stroke-linecap: square"/>
   </g>
   <g id="line2d_16">
    <path d="M 59.378551 163.409475 
L 71.801557 165.933074 
L 84.224562 168.385236 
L 96.647568 170.789849 
L 109.070573 173.175677 
L 121.493579 175.573089 
L 133.916585 178.009993 
L 146.33959 180.507446 
L 158.762596 183.075312 
L 171.185601 185.708723 
L 183.608607 188.385742 
L 196.031612 191.066833 
L 208.454618 193.696363 
L 220.877623 196.206151 
L 233.300629 198.520744 
L 245.723635 200.563872 
L 258.14664 202.265237 
L 270.569646 203.566763 
L 282.992651 204.427321 
L 295.415657 204.82537 
L 307.838662 204.759008 
L 320.261668 204.243513 
L 332.684674 203.306795 
L 345.107679 201.983416 
L 357.530685 200.308319 
L 369.95369 198.311133 
L 382.376696 196.01207 
L 394.799701 193.420112 
L 407.222707 190.533677 
L 419.645713 187.34378 
L 432.068718 183.83909 
L 444.491724 180.012182 
L 456.914729 175.866038 
L 469.337735 171.419831 
L 481.76074 166.713175 
L 494.183746 161.808265 
L 506.606752 156.789521 
L 519.029757 151.76062 
L 531.452763 146.839127 
L 543.875768 142.148887 
L 556.298774 137.810833 
L 568.721779 133.932611 
L 581.144785 130.598032 
L 593.56779 127.857251 
L 605.990796 125.718867 
L 618.413802 124.145295 
L 630.836807 123.052456 
L 643.259813 122.314786 
L 655.682818 121.775697 
L 668.105824 121.262959 
" clip-path="url(#padb4c8e923)" style="fill: none; stroke: #d62728; stroke-opacity: 0.5; stroke-width: 1.5; stroke-linecap: square"/>
   </g>
   <g id="line2d_17">
    <path d="M 59.378551 97.01732 
L 71.801557 91.549204 
L 84.224562 86.337041 
L 96.647568 81.556349 
L 109.070573 77.351643 
L 121.493579 73.826239 
L 133.916585 71.036924 
L 146.33959 68.994275 
L 158.762596 67.66864 
L 171.185601 67.000825 
L 183.608607 66.915817 
L 196.031612 67.337603 
L 208.454618 68.202782 
L 220.877623 69.471239 
L 233.300629 71.132251 
L 245.723635 73.205427 
L 258.14664 75.736356 
L 270.569646 78.787732 
L 282.992651 82.427246 
L 295.415657 86.713967 
L 307.838662 91.685044 
L 320.261668 97.344671 
L 332.684674 103.656738 
L 345.107679 110.542162 
L 357.530685 117.88133 
L 369.95369 125.521252 
L 382.376696 133.286498 
L 394.799701 140.992389 
L 407.222707 148.458816 
L 419.645713 155.522887 
L 432.068718 162.048932 
L 444.491724 167.934929 
L 456.914729 173.114883 
L 469.337735 177.557294 
L 481.76074 181.260353 
L 494.183746 184.244831 
L 506.606752 186.545699 
L 519.029757 188.203605 
L 531.452763 189.257118 
L 543.875768 189.736668 
L 556.298774 189.660746 
L 568.721779 189.03496 
L 581.144785 187.85421 
L 593.56779 186.108039 
L 605.990796 183.788753 
L 618.413802 180.901608 
L 630.836807 177.475678 
L 643.259813 173.57398 
L 655.682818 169.300917 
L 668.105824 164.805664 
" clip-path="url(#padb4c8e923)" style="fill: none; stroke: #9467bd; stroke-opacity: 0.5; stroke-width: 1.5; stroke-linecap: square"/>
   </g>
   <g id="patch_3">
    <path d="M 28.942188 284.4 
L 28.942188 7.2 
" style="fill: none; stroke: #000000; stroke-width: 0.8; stroke-linejoin: miter; stroke-linecap: square"/>
   </g>
   <g id="patch_4">
    <path d="M 698.542188 284.4 
L 698.542188 7.2 
" style="fill: none; stroke: #000000; stroke-width: 0.8; stroke-linejoin: miter; stroke-linecap: square"/>
   </g>
   <g id="patch_5">
    <path d="M 28.942188 284.4 
L 698.542188 284.4 
" style="fill: none; stroke: #000000; stroke-width: 0.8; stroke-linejoin: miter; stroke-linecap: square"/>
   </g>
   <g id="patch_6">
    <path d="M 28.942188 7.2 
L 698.542188 7.2 
" style="fill: none; stroke: #000000; stroke-width: 0.8; stroke-linejoin: miter; stroke-linecap: square"/>
   </g>
  </g>
 </g>
 <defs>
  <clipPath id="padb4c8e923">
   <rect x="28.942188" y="7.2" width="669.6" height="277.2"/>
  </clipPath>
 </defs>
</svg>
