<?xml version="1.0" encoding="utf-8" standalone="no"?>
<!DOCTYPE svg PUBLIC "-//W3C//DTD SVG 1.1//EN"
  "http://www.w3.org/Graphics/SVG/1.1/DTD/svg11.dtd">
<svg xmlns:xlink="http://www.w3.org/1999/xlink" width="745.001562pt" height="331.634375pt" viewBox="0 0 745.001562 331.634375" xmlns="http://www.w3.org/2000/svg" version="1.1">
 <metadata>
  <rdf:RDF xmlns:dc="http://purl.org/dc/elements/1.1/" xmlns:cc="http://creativecommons.org/ns#" xmlns:rdf="http://www.w3.org/1999/02/22-rdf-syntax-ns#">
   <cc:Work>
    <dc:type rdf:resource="http://purl.org/dc/dcmitype/StillImage"/>
    <dc:date>2025-07-01T15:22:02.684039</dc:date>
    <dc:format>image/svg+xml</dc:format>
    <dc:creator>
     <cc:Agent>
      <dc:title>Matplotlib v3.7.2, https://matplotlib.org/</dc:title>
     </cc:Agent>
    </dc:creator>
   </cc:Work>
  </rdf:RDF>
 </metadata>
 <defs>
  <style type="text/css">*{stroke-linejoin: round; stroke-linecap: butt}</style>
 </defs>
 <g id="figure_1">
  <g id="patch_1">
   <path d="M 0 331.634375 
L 745.001562 331.634375 
L 745.001562 0 
L 0 0 
z
" style="fill: #ffffff"/>
  </g>
  <g id="axes_1">
   <g id="patch_2">
    <path d="M 68.201563 284.4 
L 737.801563 284.4 
L 737.801563 7.2 
L 68.201563 7.2 
z
" style="fill: #ffffff"/>
   </g>
   <g id="PolyCollection_1">
    <path d="M 98.637926 19.8 
L 98.637926 271.8 
L 111.060932 266.858985 
L 123.483937 261.926737 
L 135.906943 257.004424 
L 148.329948 252.093424 
L 160.752954 247.195382 
L 173.17596 242.312271 
L 185.598965 237.446478 
L 198.021971 232.600914 
L 210.444976 227.779168 
L 222.867982 222.985702 
L 235.290987 218.226133 
L 247.713993 213.507609 
L 260.136998 208.839346 
L 272.560004 204.233394 
L 284.98301 199.705726 
L 297.406015 195.277839 
L 309.829021 190.979079 
L 322.252026 186.850033 
L 334.675032 182.947337 
L 347.098037 179.350075 
L 359.521043 176.166986 
L 371.944049 173.541009 
L 384.367054 171.642537 
L 396.79006 170.638947 
L 409.213065 170.638947 
L 421.636071 171.642537 
L 434.059076 173.541009 
L 446.482082 176.166986 
L 458.905088 179.350075 
L 471.328093 182.947337 
L 483.751099 186.850033 
L 496.174104 190.979079 
L 508.59711 195.277839 
L 521.020115 199.705726 
L 533.443121 204.233394 
L 545.866127 208.839346 
L 558.289132 213.507609 
L 570.712138 218.226133 
L 583.135143 222.985702 
L 595.558149 227.779168 
L 607.981154 232.600914 
L 620.40416 237.446478 
L 632.827165 242.312271 
L 645.250171 247.195382 
L 657.673177 252.093424 
L 670.096182 257.004424 
L 682.519188 261.926737 
L 694.942193 266.858985 
L 707.365199 271.8 
L 707.365199 19.8 
L 707.365199 19.8 
L 694.942193 24.741015 
L 682.519188 29.673263 
L 670.096182 34.595576 
L 657.673177 39.506576 
L 645.250171 44.404618 
L 632.827165 49.287729 
L 620.40416 54.153522 
L 607.981154 58.999086 
L 595.558149 63.820832 
L 583.135143 68.614298 
L 570.712138 73.373867 
L 558.289132 78.092391 
L 545.866127 82.760654 
L 533.443121 87.366606 
L 521.020115 91.894274 
L 508.59711 96.322161 
L 496.174104 100.620921 
L 483.751099 104.749967 
L 471.328093 108.652663 
L 458.905088 112.249925 
L 446.482082 115.433014 
L 434.059076 118.058991 
L 421.636071 119.957463 
L 409.213065 120.961053 
L 396.79006 120.961053 
L 384.367054 119.957463 
L 371.944049 118.058991 
L 359.521043 115.433014 
L 347.098037 112.249925 
L 334.675032 108.652663 
L 322.252026 104.749967 
L 309.829021 100.620921 
L 297.406015 96.322161 
L 284.98301 91.894274 
L 272.560004 87.366606 
L 260.136998 82.760654 
L 247.713993 78.092391 
L 235.290987 73.373867 
L 222.867982 68.614298 
L 210.444976 63.820832 
L 198.021971 58.999086 
L 185.598965 54.153522 
L 173.17596 49.287729 
L 160.752954 44.404618 
L 148.329948 39.506576 
L 135.906943 34.595576 
L 123.483937 29.673263 
L 111.060932 24.741015 
L 98.637926 19.8 
z
" clip-path="url(#p84cc725add)" style="fill: #1f77b4; fill-opacity: 0.25"/>
   </g>
   <g id="matplotlib.axis_1">
    <g id="xtick_1">
     <g id="line2d_1">
      <defs>
       <path id="m481a992958" d="M 0 0 
L 0 3.5 
" style="stroke: #000000; stroke-width: 0.8"/>
      </defs>
      <g>
       <use xlink:href="#m481a992958" x="159.510653" y="284.4" style="stroke: #000000; stroke-width: 0.8"/>
      </g>
     </g>
     <g id="text_1">
      <!-- −4 -->
      <g transform="translate(152.13956 298.998437) scale(0.1 -0.1)">
       <defs>
        <path id="DejaVuSans-2212" d="M 678 2272 
L 4684 2272 
L 4684 1741 
L 678 1741 
L 678 2272 
z
" transform="scale(0.015625)"/>
        <path id="DejaVuSans-34" d="M 2419 4116 
L 825 1625 
L 2419 1625 
L 2419 4116 
z
M 2253 4666 
L 3047 4666 
L 3047 1625 
L 3713 1625 
L 3713 1100 
L 3047 1100 
L 3047 0 
L 2419 0 
L 2419 1100 
L 313 1100 
L 313 1709 
L 2253 4666 
z
" transform="scale(0.015625)"/>
       </defs>
       <use xlink:href="#DejaVuSans-2212"/>
       <use xlink:href="#DejaVuSans-34" x="83.789062"/>
      </g>
     </g>
    </g>
    <g id="xtick_2">
     <g id="line2d_2">
      <g>
       <use xlink:href="#m481a992958" x="281.256108" y="284.4" style="stroke: #000000; stroke-width: 0.8"/>
      </g>
     </g>
     <g id="text_2">
      <!-- −2 -->
      <g transform="translate(273.885014 298.998437) scale(0.1 -0.1)">
       <defs>
        <path id="DejaVuSans-32" d="M 1228 531 
L 3431 531 
L 3431 0 
L 469 0 
L 469 531 
Q 828 903 1448 1529 
Q 2069 2156 2228 2338 
Q 2531 2678 2651 2914 
Q 2772 3150 2772 3378 
Q 2772 3750 2511 3984 
Q 2250 4219 1831 4219 
Q 1534 4219 1204 4116 
Q 875 4013 500 3803 
L 500 4441 
Q 881 4594 1212 4672 
Q 1544 4750 1819 4750 
Q 2544 4750 2975 4387 
Q 3406 4025 3406 3419 
Q 3406 3131 3298 2873 
Q 3191 2616 2906 2266 
Q 2828 2175 2409 1742 
Q 1991 1309 1228 531 
z
" transform="scale(0.015625)"/>
       </defs>
       <use xlink:href="#DejaVuSans-2212"/>
       <use xlink:href="#DejaVuSans-32" x="83.789062"/>
      </g>
     </g>
    </g>
    <g id="xtick_3">
     <g id="line2d_3">
      <g>
       <use xlink:href="#m481a992958" x="403.001563" y="284.4" style="stroke: #000000; stroke-width: 0.8"/>
      </g>
     </g>
     <g id="text_3">
      <!-- 0 -->
      <g transform="translate(399.820313 298.998437) scale(0.1 -0.1)">
       <defs>
        <path id="DejaVuSans-30" d="M 2034 4250 
Q 1547 4250 1301 3770 
Q 1056 3291 1056 2328 
Q 1056 1369 1301 889 
Q 1547 409 2034 409 
Q 2525 409 2770 889 
Q 3016 1369 3016 2328 
Q 3016 3291 2770 3770 
Q 2525 4250 2034 4250 
z
M 2034 4750 
Q 2819 4750 3233 4129 
Q 3647 3509 3647 2328 
Q 3647 1150 3233 529 
Q 2819 -91 2034 -91 
Q 1250 -91 836 529 
Q 422 1150 422 2328 
Q 422 3509 836 4129 
Q 1250 4750 2034 4750 
z
" transform="scale(0.015625)"/>
       </defs>
       <use xlink:href="#DejaVuSans-30"/>
      </g>
     </g>
    </g>
    <g id="xtick_4">
     <g id="line2d_4">
      <g>
       <use xlink:href="#m481a992958" x="524.747017" y="284.4" style="stroke: #000000; stroke-width: 0.8"/>
      </g>
     </g>
     <g id="text_4">
      <!-- 2 -->
      <g transform="translate(521.565767 298.998437) scale(0.1 -0.1)">
       <use xlink:href="#DejaVuSans-32"/>
      </g>
     </g>
    </g>
    <g id="xtick_5">
     <g id="line2d_5">
      <g>
       <use xlink:href="#m481a992958" x="646.492472" y="284.4" style="stroke: #000000; stroke-width: 0.8"/>
      </g>
     </g>
     <g id="text_5">
      <!-- 4 -->
      <g transform="translate(643.311222 298.998437) scale(0.1 -0.1)">
       <use xlink:href="#DejaVuSans-34"/>
      </g>
     </g>
    </g>
    <g id="text_6">
     <!-- x -->
     <g transform="translate(397.082813 320.275) scale(0.2 -0.2)">
      <defs>
       <path id="DejaVuSans-78" d="M 3513 3500 
L 2247 1797 
L 3578 0 
L 2900 0 
L 1881 1375 
L 863 0 
L 184 0 
L 1544 1831 
L 300 3500 
L 978 3500 
L 1906 2253 
L 2834 3500 
L 3513 3500 
z
" transform="scale(0.015625)"/>
      </defs>
      <use xlink:href="#DejaVuSans-78"/>
     </g>
    </g>
   </g>
   <g id="matplotlib.axis_2">
    <g id="ytick_1">
     <g id="line2d_6">
      <defs>
       <path id="m5c9f294fac" d="M 0 0 
L -3.5 0 
" style="stroke: #000000; stroke-width: 0.8"/>
      </defs>
      <g>
       <use xlink:href="#m5c9f294fac" x="68.201563" y="269.353165" style="stroke: #000000; stroke-width: 0.8"/>
      </g>
     </g>
     <g id="text_7">
      <!-- −10.0 -->
      <g transform="translate(30.55625 273.152384) scale(0.1 -0.1)">
       <defs>
        <path id="DejaVuSans-31" d="M 794 531 
L 1825 531 
L 1825 4091 
L 703 3866 
L 703 4441 
L 1819 4666 
L 2450 4666 
L 2450 531 
L 3481 531 
L 3481 0 
L 794 0 
L 794 531 
z
" transform="scale(0.015625)"/>
        <path id="DejaVuSans-2e" d="M 684 794 
L 1344 794 
L 1344 0 
L 684 0 
L 684 794 
z
" transform="scale(0.015625)"/>
       </defs>
       <use xlink:href="#DejaVuSans-2212"/>
       <use xlink:href="#DejaVuSans-31" x="83.789062"/>
       <use xlink:href="#DejaVuSans-30" x="147.412109"/>
       <use xlink:href="#DejaVuSans-2e" x="211.035156"/>
       <use xlink:href="#DejaVuSans-30" x="242.822266"/>
      </g>
     </g>
    </g>
    <g id="ytick_2">
     <g id="line2d_7">
      <g>
       <use xlink:href="#m5c9f294fac" x="68.201563" y="238.464874" style="stroke: #000000; stroke-width: 0.8"/>
      </g>
     </g>
     <g id="text_8">
      <!-- −7.5 -->
      <g transform="translate(36.91875 242.264093) scale(0.1 -0.1)">
       <defs>
        <path id="DejaVuSans-37" d="M 525 4666 
L 3525 4666 
L 3525 4397 
L 1831 0 
L 1172 0 
L 2766 4134 
L 525 4134 
L 525 4666 
z
" transform="scale(0.015625)"/>
        <path id="DejaVuSans-35" d="M 691 4666 
L 3169 4666 
L 3169 4134 
L 1269 4134 
L 1269 2991 
Q 1406 3038 1543 3061 
Q 1681 3084 1819 3084 
Q 2600 3084 3056 2656 
Q 3513 2228 3513 1497 
Q 3513 744 3044 326 
Q 2575 -91 1722 -91 
Q 1428 -91 1123 -41 
Q 819 9 494 109 
L 494 744 
Q 775 591 1075 516 
Q 1375 441 1709 441 
Q 2250 441 2565 725 
Q 2881 1009 2881 1497 
Q 2881 1984 2565 2268 
Q 2250 2553 1709 2553 
Q 1456 2553 1204 2497 
Q 953 2441 691 2322 
L 691 4666 
z
" transform="scale(0.015625)"/>
       </defs>
       <use xlink:href="#DejaVuSans-2212"/>
       <use xlink:href="#DejaVuSans-37" x="83.789062"/>
       <use xlink:href="#DejaVuSans-2e" x="147.412109"/>
       <use xlink:href="#DejaVuSans-35" x="179.199219"/>
      </g>
     </g>
    </g>
    <g id="ytick_3">
     <g id="line2d_8">
      <g>
       <use xlink:href="#m5c9f294fac" x="68.201563" y="207.576583" style="stroke: #000000; stroke-width: 0.8"/>
      </g>
     </g>
     <g id="text_9">
      <!-- −5.0 -->
      <g transform="translate(36.91875 211.375801) scale(0.1 -0.1)">
       <use xlink:href="#DejaVuSans-2212"/>
       <use xlink:href="#DejaVuSans-35" x="83.789062"/>
       <use xlink:href="#DejaVuSans-2e" x="147.412109"/>
       <use xlink:href="#DejaVuSans-30" x="179.199219"/>
      </g>
     </g>
    </g>
    <g id="ytick_4">
     <g id="line2d_9">
      <g>
       <use xlink:href="#m5c9f294fac" x="68.201563" y="176.688291" style="stroke: #000000; stroke-width: 0.8"/>
      </g>
     </g>
     <g id="text_10">
      <!-- −2.5 -->
      <g transform="translate(36.91875 180.48751) scale(0.1 -0.1)">
       <use xlink:href="#DejaVuSans-2212"/>
       <use xlink:href="#DejaVuSans-32" x="83.789062"/>
       <use xlink:href="#DejaVuSans-2e" x="147.412109"/>
       <use xlink:href="#DejaVuSans-35" x="179.199219"/>
      </g>
     </g>
    </g>
    <g id="ytick_5">
     <g id="line2d_10">
      <g>
       <use xlink:href="#m5c9f294fac" x="68.201563" y="145.8" style="stroke: #000000; stroke-width: 0.8"/>
      </g>
     </g>
     <g id="text_11">
      <!-- 0.0 -->
      <g transform="translate(45.298438 149.599219) scale(0.1 -0.1)">
       <use xlink:href="#DejaVuSans-30"/>
       <use xlink:href="#DejaVuSans-2e" x="63.623047"/>
       <use xlink:href="#DejaVuSans-30" x="95.410156"/>
      </g>
     </g>
    </g>
    <g id="ytick_6">
     <g id="line2d_11">
      <g>
       <use xlink:href="#m5c9f294fac" x="68.201563" y="114.911709" style="stroke: #000000; stroke-width: 0.8"/>
      </g>
     </g>
     <g id="text_12">
      <!-- 2.5 -->
      <g transform="translate(45.298438 118.710927) scale(0.1 -0.1)">
       <use xlink:href="#DejaVuSans-32"/>
       <use xlink:href="#DejaVuSans-2e" x="63.623047"/>
       <use xlink:href="#DejaVuSans-35" x="95.410156"/>
      </g>
     </g>
    </g>
    <g id="ytick_7">
     <g id="line2d_12">
      <g>
       <use xlink:href="#m5c9f294fac" x="68.201563" y="84.023417" style="stroke: #000000; stroke-width: 0.8"/>
      </g>
     </g>
     <g id="text_13">
      <!-- 5.0 -->
      <g transform="translate(45.298438 87.822636) scale(0.1 -0.1)">
       <use xlink:href="#DejaVuSans-35"/>
       <use xlink:href="#DejaVuSans-2e" x="63.623047"/>
       <use xlink:href="#DejaVuSans-30" x="95.410156"/>
      </g>
     </g>
    </g>
    <g id="ytick_8">
     <g id="line2d_13">
      <g>
       <use xlink:href="#m5c9f294fac" x="68.201563" y="53.135126" style="stroke: #000000; stroke-width: 0.8"/>
      </g>
     </g>
     <g id="text_14">
      <!-- 7.5 -->
      <g transform="translate(45.298438 56.934345) scale(0.1 -0.1)">
       <use xlink:href="#DejaVuSans-37"/>
       <use xlink:href="#DejaVuSans-2e" x="63.623047"/>
       <use xlink:href="#DejaVuSans-35" x="95.410156"/>
      </g>
     </g>
    </g>
    <g id="ytick_9">
     <g id="line2d_14">
      <g>
       <use xlink:href="#m5c9f294fac" x="68.201563" y="22.246835" style="stroke: #000000; stroke-width: 0.8"/>
      </g>
     </g>
     <g id="text_15">
      <!-- 10.0 -->
      <g transform="translate(38.935938 26.046054) scale(0.1 -0.1)">
       <use xlink:href="#DejaVuSans-31"/>
       <use xlink:href="#DejaVuSans-30" x="63.623047"/>
       <use xlink:href="#DejaVuSans-2e" x="127.246094"/>
       <use xlink:href="#DejaVuSans-30" x="159.033203"/>
      </g>
     </g>
    </g>
    <g id="text_16">
     <!-- f(x) -->
     <g transform="translate(22.396875 163.042187) rotate(-90) scale(0.2 -0.2)">
      <defs>
       <path id="DejaVuSans-66" d="M 2375 4863 
L 2375 4384 
L 1825 4384 
Q 1516 4384 1395 4259 
Q 1275 4134 1275 3809 
L 1275 3500 
L 2222 3500 
L 2222 3053 
L 1275 3053 
L 1275 0 
L 697 0 
L 697 3053 
L 147 3053 
L 147 3500 
L 697 3500 
L 697 3744 
Q 697 4328 969 4595 
Q 1241 4863 1831 4863 
L 2375 4863 
z
" transform="scale(0.015625)"/>
       <path id="DejaVuSans-28" d="M 1984 4856 
Q 1566 4138 1362 3434 
Q 1159 2731 1159 2009 
Q 1159 1288 1364 580 
Q 1569 -128 1984 -844 
L 1484 -844 
Q 1016 -109 783 600 
Q 550 1309 550 2009 
Q 550 2706 781 3412 
Q 1013 4119 1484 4856 
L 1984 4856 
z
" transform="scale(0.015625)"/>
       <path id="DejaVuSans-29" d="M 513 4856 
L 1013 4856 
Q 1481 4119 1714 3412 
Q 1947 2706 1947 2009 
Q 1947 1309 1714 600 
Q 1481 -109 1013 -844 
L 513 -844 
Q 928 -128 1133 580 
Q 1338 1288 1338 2009 
Q 1338 2731 1133 3434 
Q 928 4138 513 4856 
z
" transform="scale(0.015625)"/>
      </defs>
      <use xlink:href="#DejaVuSans-66"/>
      <use xlink:href="#DejaVuSans-28" x="35.205078"/>
      <use xlink:href="#DejaVuSans-78" x="74.21875"/>
      <use xlink:href="#DejaVuSans-29" x="133.398438"/>
     </g>
    </g>
   </g>
   <g id="line2d_15">
    <path d="M 98.637926 145.8 
L 111.060932 145.8 
L 123.483937 145.8 
L 135.906943 145.8 
L 148.329948 145.8 
L 160.752954 145.8 
L 173.17596 145.8 
L 185.598965 145.8 
L 198.021971 145.8 
L 210.444976 145.8 
L 222.867982 145.8 
L 235.290987 145.8 
L 247.713993 145.8 
L 260.136998 145.8 
L 272.560004 145.8 
L 284.98301 145.8 
L 297.406015 145.8 
L 309.829021 145.8 
L 322.252026 145.8 
L 334.675032 145.8 
L 347.098037 145.8 
L 359.521043 145.8 
L 371.944049 145.8 
L 384.367054 145.8 
L 396.79006 145.8 
L 409.213065 145.8 
L 421.636071 145.8 
L 434.059076 145.8 
L 446.482082 145.8 
L 458.905088 145.8 
L 471.328093 145.8 
L 483.751099 145.8 
L 496.174104 145.8 
L 508.59711 145.8 
L 521.020115 145.8 
L 533.443121 145.8 
L 545.866127 145.8 
L 558.289132 145.8 
L 570.712138 145.8 
L 583.135143 145.8 
L 595.558149 145.8 
L 607.981154 145.8 
L 620.40416 145.8 
L 632.827165 145.8 
L 645.250171 145.8 
L 657.673177 145.8 
L 670.096182 145.8 
L 682.519188 145.8 
L 694.942193 145.8 
L 707.365199 145.8 
" clip-path="url(#p84cc725add)" style="fill: none; stroke: #000000; stroke-width: 4; stroke-linecap: square"/>
   </g>
   <g id="line2d_16">
    <path d="M 98.637926 196.306379 
L 111.060932 194.036306 
L 123.483937 191.766233 
L 135.906943 189.496161 
L 148.329948 187.226088 
L 160.752954 184.956016 
L 173.17596 182.685943 
L 185.598965 180.41587 
L 198.021971 178.145798 
L 210.444976 175.875725 
L 222.867982 173.605652 
L 235.290987 171.33558 
L 247.713993 169.065507 
L 260.136998 166.795435 
L 272.560004 164.525362 
L 284.98301 162.255289 
L 297.406015 159.985217 
L 309.829021 157.715144 
L 322.252026 155.445072 
L 334.675032 153.174999 
L 347.098037 150.904926 
L 359.521043 148.634854 
L 371.944049 146.364781 
L 384.367054 144.094709 
L 396.79006 141.824636 
L 409.213065 139.554563 
L 421.636071 137.284491 
L 434.059076 135.014418 
L 446.482082 132.744345 
L 458.905088 130.474273 
L 471.328093 128.2042 
L 483.751099 125.934128 
L 496.174104 123.664055 
L 508.59711 121.393982 
L 521.020115 119.12391 
L 533.443121 116.853837 
L 545.866127 114.583765 
L 558.289132 112.313692 
L 570.712138 110.043619 
L 583.135143 107.773547 
L 595.558149 105.503474 
L 607.981154 103.233401 
L 620.40416 100.963329 
L 632.827165 98.693256 
L 645.250171 96.423184 
L 657.673177 94.153111 
L 670.096182 91.883038 
L 682.519188 89.612966 
L 694.942193 87.342893 
L 707.365199 85.072821 
" clip-path="url(#p84cc725add)" style="fill: none; stroke: #1f77b4; stroke-width: 1.5; stroke-linecap: square"/>
   </g>
   <g id="line2d_17">
    <path d="M 98.637926 226.296549 
L 111.060932 222.560455 
L 123.483937 218.82436 
L 135.906943 215.088265 
L 148.329948 211.35217 
L 160.752954 207.616075 
L 173.17596 203.87998 
L 185.598965 200.143885 
L 198.021971 196.407791 
L 210.444976 192.671696 
L 222.867982 188.935601 
L 235.290987 185.199506 
L 247.713993 181.463411 
L 260.136998 177.727316 
L 272.560004 173.991222 
L 284.98301 170.255127 
L 297.406015 166.519032 
L 309.829021 162.782937 
L 322.252026 159.046842 
L 334.675032 155.310747 
L 347.098037 151.574653 
L 359.521043 147.838558 
L 371.944049 144.102463 
L 384.367054 140.366368 
L 396.79006 136.630273 
L 409.213065 132.894178 
L 421.636071 129.158084 
L 434.059076 125.421989 
L 446.482082 121.685894 
L 458.905088 117.949799 
L 471.328093 114.213704 
L 483.751099 110.477609 
L 496.174104 106.741514 
L 508.59711 103.00542 
L 521.020115 99.269325 
L 533.443121 95.53323 
L 545.866127 91.797135 
L 558.289132 88.06104 
L 570.712138 84.324945 
L 583.135143 80.588851 
L 595.558149 76.852756 
L 607.981154 73.116661 
L 620.40416 69.380566 
L 632.827165 65.644471 
L 645.250171 61.908376 
L 657.673177 58.172282 
L 670.096182 54.436187 
L 682.519188 50.700092 
L 694.942193 46.963997 
L 707.365199 43.227902 
" clip-path="url(#p84cc725add)" style="fill: none; stroke: #ff7f0e; stroke-width: 1.5; stroke-linecap: square"/>
   </g>
   <g id="line2d_18">
    <path d="M 98.637926 70.852279 
L 111.060932 73.208696 
L 123.483937 75.565114 
L 135.906943 77.921531 
L 148.329948 80.277948 
L 160.752954 82.634366 
L 173.17596 84.990783 
L 185.598965 87.3472 
L 198.021971 89.703617 
L 210.444976 92.060035 
L 222.867982 94.416452 
L 235.290987 96.772869 
L 247.713993 99.129287 
L 260.136998 101.485704 
L 272.560004 103.842121 
L 284.98301 106.198538 
L 297.406015 108.554956 
L 309.829021 110.911373 
L 322.252026 113.26779 
L 334.675032 115.624207 
L 347.098037 117.980625 
L 359.521043 120.337042 
L 371.944049 122.693459 
L 384.367054 125.049877 
L 396.79006 127.406294 
L 409.213065 129.762711 
L 421.636071 132.119128 
L 434.059076 134.475546 
L 446.482082 136.831963 
L 458.905088 139.18838 
L 471.328093 141.544798 
L 483.751099 143.901215 
L 496.174104 146.257632 
L 508.59711 148.614049 
L 521.020115 150.970467 
L 533.443121 153.326884 
L 545.866127 155.683301 
L 558.289132 158.039719 
L 570.712138 160.396136 
L 583.135143 162.752553 
L 595.558149 165.10897 
L 607.981154 167.465388 
L 620.40416 169.821805 
L 632.827165 172.178222 
L 645.250171 174.534639 
L 657.673177 176.891057 
L 670.096182 179.247474 
L 682.519188 181.603891 
L 694.942193 183.960309 
L 707.365199 186.316726 
" clip-path="url(#p84cc725add)" style="fill: none; stroke: #2ca02c; stroke-width: 1.5; stroke-linecap: square"/>
   </g>
   <g id="line2d_19">
    <path d="M 98.637926 105.588372 
L 111.060932 107.422064 
L 123.483937 109.255757 
L 135.906943 111.089449 
L 148.329948 112.923141 
L 160.752954 114.756833 
L 173.17596 116.590525 
L 185.598965 118.424217 
L 198.021971 120.257909 
L 210.444976 122.091601 
L 222.867982 123.925293 
L 235.290987 125.758985 
L 247.713993 127.592677 
L 260.136998 129.426369 
L 272.560004 131.260061 
L 284.98301 133.093754 
L 297.406015 134.927446 
L 309.829021 136.761138 
L 322.252026 138.59483 
L 334.675032 140.428522 
L 347.098037 142.262214 
L 359.521043 144.095906 
L 371.944049 145.929598 
L 384.367054 147.76329 
L 396.79006 149.596982 
L 409.213065 151.430674 
L 421.636071 153.264366 
L 434.059076 155.098058 
L 446.482082 156.931751 
L 458.905088 158.765443 
L 471.328093 160.599135 
L 483.751099 162.432827 
L 496.174104 164.266519 
L 508.59711 166.100211 
L 521.020115 167.933903 
L 533.443121 169.767595 
L 545.866127 171.601287 
L 558.289132 173.434979 
L 570.712138 175.268671 
L 583.135143 177.102363 
L 595.558149 178.936055 
L 607.981154 180.769747 
L 620.40416 182.60344 
L 632.827165 184.437132 
L 645.250171 186.270824 
L 657.673177 188.104516 
L 670.096182 189.938208 
L 682.519188 191.7719 
L 694.942193 193.605592 
L 707.365199 195.439284 
" clip-path="url(#p84cc725add)" style="fill: none; stroke: #d62728; stroke-width: 1.5; stroke-linecap: square"/>
   </g>
   <g id="line2d_20">
    <path d="M 98.637926 108.664737 
L 111.060932 110.16448 
L 123.483937 111.664223 
L 135.906943 113.163966 
L 148.329948 114.663709 
L 160.752954 116.163451 
L 173.17596 117.663194 
L 185.598965 119.162937 
L 198.021971 120.66268 
L 210.444976 122.162423 
L 222.867982 123.662166 
L 235.290987 125.161908 
L 247.713993 126.661651 
L 260.136998 128.161394 
L 272.560004 129.661137 
L 284.98301 131.16088 
L 297.406015 132.660623 
L 309.829021 134.160365 
L 322.252026 135.660108 
L 334.675032 137.159851 
L 347.098037 138.659594 
L 359.521043 140.159337 
L 371.944049 141.659079 
L 384.367054 143.158822 
L 396.79006 144.658565 
L 409.213065 146.158308 
L 421.636071 147.658051 
L 434.059076 149.157794 
L 446.482082 150.657536 
L 458.905088 152.157279 
L 471.328093 153.657022 
L 483.751099 155.156765 
L 496.174104 156.656508 
L 508.59711 158.156251 
L 521.020115 159.655993 
L 533.443121 161.155736 
L 545.866127 162.655479 
L 558.289132 164.155222 
L 570.712138 165.654965 
L 583.135143 167.154708 
L 595.558149 168.65445 
L 607.981154 170.154193 
L 620.40416 171.653936 
L 632.827165 173.153679 
L 645.250171 174.653422 
L 657.673177 176.153165 
L 670.096182 177.652907 
L 682.519188 179.15265 
L 694.942193 180.652393 
L 707.365199 182.152136 
" clip-path="url(#p84cc725add)" style="fill: none; stroke: #9467bd; stroke-width: 1.5; stroke-linecap: square"/>
   </g>
   <g id="line2d_21">
    <path d="M 98.637926 142.710172 
L 111.060932 143.259394 
L 123.483937 143.808616 
L 135.906943 144.357838 
L 148.329948 144.90706 
L 160.752954 145.456282 
L 173.17596 146.005504 
L 185.598965 146.554726 
L 198.021971 147.103947 
L 210.444976 147.653169 
L 222.867982 148.202391 
L 235.290987 148.751613 
L 247.713993 149.300835 
L 260.136998 149.850057 
L 272.560004 150.399279 
L 284.98301 150.948501 
L 297.406015 151.497723 
L 309.829021 152.046944 
L 322.252026 152.596166 
L 334.675032 153.145388 
L 347.098037 153.69461 
L 359.521043 154.243832 
L 371.944049 154.793054 
L 384.367054 155.342276 
L 396.79006 155.891498 
L 409.213065 156.44072 
L 421.636071 156.989941 
L 434.059076 157.539163 
L 446.482082 158.088385 
L 458.905088 158.637607 
L 471.328093 159.186829 
L 483.751099 159.736051 
L 496.174104 160.285273 
L 508.59711 160.834495 
L 521.020115 161.383717 
L 533.443121 161.932938 
L 545.866127 162.48216 
L 558.289132 163.031382 
L 570.712138 163.580604 
L 583.135143 164.129826 
L 595.558149 164.679048 
L 607.981154 165.22827 
L 620.40416 165.777492 
L 632.827165 166.326714 
L 645.250171 166.875935 
L 657.673177 167.425157 
L 670.096182 167.974379 
L 682.519188 168.523601 
L 694.942193 169.072823 
L 707.365199 169.622045 
" clip-path="url(#p84cc725add)" style="fill: none; stroke: #8c564b; stroke-width: 1.5; stroke-linecap: square"/>
   </g>
   <g id="line2d_22">
    <path d="M 98.637926 112.661952 
L 111.060932 113.864384 
L 123.483937 115.066817 
L 135.906943 116.269249 
L 148.329948 117.471681 
L 160.752954 118.674114 
L 173.17596 119.876546 
L 185.598965 121.078979 
L 198.021971 122.281411 
L 210.444976 123.483843 
L 222.867982 124.686276 
L 235.290987 125.888708 
L 247.713993 127.09114 
L 260.136998 128.293573 
L 272.560004 129.496005 
L 284.98301 130.698437 
L 297.406015 131.90087 
L 309.829021 133.103302 
L 322.252026 134.305734 
L 334.675032 135.508167 
L 347.098037 136.710599 
L 359.521043 137.913031 
L 371.944049 139.115464 
L 384.367054 140.317896 
L 396.79006 141.520328 
L 409.213065 142.722761 
L 421.636071 143.925193 
L 434.059076 145.127625 
L 446.482082 146.330058 
L 458.905088 147.53249 
L 471.328093 148.734923 
L 483.751099 149.937355 
L 496.174104 151.139787 
L 508.59711 152.34222 
L 521.020115 153.544652 
L 533.443121 154.747084 
L 545.866127 155.949517 
L 558.289132 157.151949 
L 570.712138 158.354381 
L 583.135143 159.556814 
L 595.558149 160.759246 
L 607.981154 161.961678 
L 620.40416 163.164111 
L 632.827165 164.366543 
L 645.250171 165.568975 
L 657.673177 166.771408 
L 670.096182 167.97384 
L 682.519188 169.176272 
L 694.942193 170.378705 
L 707.365199 171.581137 
" clip-path="url(#p84cc725add)" style="fill: none; stroke: #e377c2; stroke-width: 1.5; stroke-linecap: square"/>
   </g>
   <g id="line2d_23">
    <path d="M 98.637926 87.600201 
L 111.060932 90.635749 
L 123.483937 93.671296 
L 135.906943 96.706843 
L 148.329948 99.742391 
L 160.752954 102.777938 
L 173.17596 105.813486 
L 185.598965 108.849033 
L 198.021971 111.884581 
L 210.444976 114.920128 
L 222.867982 117.955676 
L 235.290987 120.991223 
L 247.713993 124.026771 
L 260.136998 127.062318 
L 272.560004 130.097866 
L 284.98301 133.133413 
L 297.406015 136.168961 
L 309.829021 139.204508 
L 322.252026 142.240056 
L 334.675032 145.275603 
L 347.098037 148.311151 
L 359.521043 151.346698 
L 371.944049 154.382246 
L 384.367054 157.417793 
L 396.79006 160.453341 
L 409.213065 163.488888 
L 421.636071 166.524436 
L 434.059076 169.559983 
L 446.482082 172.595531 
L 458.905088 175.631078 
L 471.328093 178.666626 
L 483.751099 181.702173 
L 496.174104 184.737721 
L 508.59711 187.773268 
L 521.020115 190.808816 
L 533.443121 193.844363 
L 545.866127 196.879911 
L 558.289132 199.915458 
L 570.712138 202.951006 
L 583.135143 205.986553 
L 595.558149 209.022101 
L 607.981154 212.057648 
L 620.40416 215.093196 
L 632.827165 218.128743 
L 645.250171 221.164291 
L 657.673177 224.199838 
L 670.096182 227.235386 
L 682.519188 230.270933 
L 694.942193 233.306481 
L 707.365199 236.342028 
" clip-path="url(#p84cc725add)" style="fill: none; stroke: #7f7f7f; stroke-width: 1.5; stroke-linecap: square"/>
   </g>
   <g id="line2d_24">
    <path d="M 98.637926 161.678451 
L 111.060932 161.017222 
L 123.483937 160.355993 
L 135.906943 159.694764 
L 148.329948 159.033536 
L 160.752954 158.372307 
L 173.17596 157.711078 
L 185.598965 157.049849 
L 198.021971 156.38862 
L 210.444976 155.727391 
L 222.867982 155.066162 
L 235.290987 154.404934 
L 247.713993 153.743705 
L 260.136998 153.082476 
L 272.560004 152.421247 
L 284.98301 151.760018 
L 297.406015 151.098789 
L 309.829021 150.437561 
L 322.252026 149.776332 
L 334.675032 149.115103 
L 347.098037 148.453874 
L 359.521043 147.792645 
L 371.944049 147.131416 
L 384.367054 146.470188 
L 396.79006 145.808959 
L 409.213065 145.14773 
L 421.636071 144.486501 
L 434.059076 143.825272 
L 446.482082 143.164043 
L 458.905088 142.502815 
L 471.328093 141.841586 
L 483.751099 141.180357 
L 496.174104 140.519128 
L 508.59711 139.857899 
L 521.020115 139.19667 
L 533.443121 138.535442 
L 545.866127 137.874213 
L 558.289132 137.212984 
L 570.712138 136.551755 
L 583.135143 135.890526 
L 595.558149 135.229297 
L 607.981154 134.568069 
L 620.40416 133.90684 
L 632.827165 133.245611 
L 645.250171 132.584382 
L 657.673177 131.923153 
L 670.096182 131.261924 
L 682.519188 130.600696 
L 694.942193 129.939467 
L 707.365199 129.278238 
" clip-path="url(#p84cc725add)" style="fill: none; stroke: #bcbd22; stroke-width: 1.5; stroke-linecap: square"/>
   </g>
   <g id="line2d_25">
    <path d="M 98.637926 168.101534 
L 111.060932 167.243241 
L 123.483937 166.384949 
L 135.906943 165.526657 
L 148.329948 164.668364 
L 160.752954 163.810072 
L 173.17596 162.951779 
L 185.598965 162.093487 
L 198.021971 161.235194 
L 210.444976 160.376902 
L 222.867982 159.518609 
L 235.290987 158.660317 
L 247.713993 157.802024 
L 260.136998 156.943732 
L 272.560004 156.085439 
L 284.98301 155.227147 
L 297.406015 154.368854 
L 309.829021 153.510562 
L 322.252026 152.65227 
L 334.675032 151.793977 
L 347.098037 150.935685 
L 359.521043 150.077392 
L 371.944049 149.2191 
L 384.367054 148.360807 
L 396.79006 147.502515 
L 409.213065 146.644222 
L 421.636071 145.78593 
L 434.059076 144.927637 
L 446.482082 144.069345 
L 458.905088 143.211052 
L 471.328093 142.35276 
L 483.751099 141.494467 
L 496.174104 140.636175 
L 508.59711 139.777883 
L 521.020115 138.91959 
L 533.443121 138.061298 
L 545.866127 137.203005 
L 558.289132 136.344713 
L 570.712138 135.48642 
L 583.135143 134.628128 
L 595.558149 133.769835 
L 607.981154 132.911543 
L 620.40416 132.05325 
L 632.827165 131.194958 
L 645.250171 130.336665 
L 657.673177 129.478373 
L 670.096182 128.62008 
L 682.519188 127.761788 
L 694.942193 126.903495 
L 707.365199 126.045203 
" clip-path="url(#p84cc725add)" style="fill: none; stroke: #17becf; stroke-width: 1.5; stroke-linecap: square"/>
   </g>
   <g id="patch_3">
    <path d="M 68.201563 284.4 
L 68.201563 7.2 
" style="fill: none; stroke: #000000; stroke-width: 0.8; stroke-linejoin: miter; stroke-linecap: square"/>
   </g>
   <g id="patch_4">
    <path d="M 737.801563 284.4 
L 737.801563 7.2 
" style="fill: none; stroke: #000000; stroke-width: 0.8; stroke-linejoin: miter; stroke-linecap: square"/>
   </g>
   <g id="patch_5">
    <path d="M 68.201563 284.4 
L 737.801563 284.4 
" style="fill: none; stroke: #000000; stroke-width: 0.8; stroke-linejoin: miter; stroke-linecap: square"/>
   </g>
   <g id="patch_6">
    <path d="M 68.201563 7.2 
L 737.801563 7.2 
" style="fill: none; stroke: #000000; stroke-width: 0.8; stroke-linejoin: miter; stroke-linecap: square"/>
   </g>
  </g>
 </g>
 <defs>
  <clipPath id="p84cc725add">
   <rect x="68.201563" y="7.2" width="669.6" height="277.2"/>
  </clipPath>
 </defs>
</svg>
