<?xml version="1.0" encoding="utf-8" standalone="no"?>
<!DOCTYPE svg PUBLIC "-//W3C//DTD SVG 1.1//EN"
  "http://www.w3.org/Graphics/SVG/1.1/DTD/svg11.dtd">
<svg xmlns:xlink="http://www.w3.org/1999/xlink" width="735.460937pt" height="331.634375pt" viewBox="0 0 735.460937 331.634375" xmlns="http://www.w3.org/2000/svg" version="1.1">
 <metadata>
  <rdf:RDF xmlns:dc="http://purl.org/dc/elements/1.1/" xmlns:cc="http://creativecommons.org/ns#" xmlns:rdf="http://www.w3.org/1999/02/22-rdf-syntax-ns#">
   <cc:Work>
    <dc:type rdf:resource="http://purl.org/dc/dcmitype/StillImage"/>
    <dc:date>2025-07-11T19:44:41.431109</dc:date>
    <dc:format>image/svg+xml</dc:format>
    <dc:creator>
     <cc:Agent>
      <dc:title>Matplotlib v3.6.1, https://matplotlib.org/</dc:title>
     </cc:Agent>
    </dc:creator>
   </cc:Work>
  </rdf:RDF>
 </metadata>
 <defs>
  <style type="text/css">*{stroke-linejoin: round; stroke-linecap: butt}</style>
 </defs>
 <g id="figure_1">
  <g id="patch_1">
   <path d="M 0 331.634375 
L 735.460937 331.634375 
L 735.460937 0 
L 0 0 
z
" style="fill: #ffffff"/>
  </g>
  <g id="axes_1">
   <g id="patch_2">
    <path d="M 58.660938 284.4 
L 728.260938 284.4 
L 728.260938 7.2 
L 58.660938 7.2 
z
" style="fill: #ffffff"/>
   </g>
   <g id="PolyCollection_1">
    <path d="M 89.097301 19.8 
L 89.097301 266.67828 
L 101.520307 261.837688 
L 113.943312 257.005684 
L 126.366318 252.183413 
L 138.789323 247.372226 
L 151.212329 242.573734 
L 163.635335 237.789868 
L 176.05834 233.022969 
L 188.481346 228.275888 
L 200.904351 223.55214 
L 213.327357 218.856098 
L 225.750362 214.193264 
L 238.173368 209.57064 
L 250.596373 204.997257 
L 263.019379 200.484917 
L 275.442385 196.049271 
L 287.86539 191.711377 
L 300.288396 187.499986 
L 312.711401 183.45486 
L 325.134407 179.631484 
L 337.557412 176.107334 
L 349.980418 172.988939 
L 362.403424 170.416333 
L 374.826429 168.556446 
L 387.249435 167.573254 
L 399.67244 167.573254 
L 412.095446 168.556446 
L 424.518451 170.416333 
L 436.941457 172.988939 
L 449.364463 176.107334 
L 461.787468 179.631484 
L 474.210474 183.45486 
L 486.633479 187.499986 
L 499.056485 191.711377 
L 511.47949 196.049271 
L 523.902496 200.484917 
L 536.325502 204.997257 
L 548.748507 209.57064 
L 561.171513 214.193264 
L 573.594518 218.856098 
L 586.017524 223.55214 
L 598.440529 228.275888 
L 610.863535 233.022969 
L 623.28654 237.789868 
L 635.709546 242.573734 
L 648.132552 247.372226 
L 660.555557 252.183413 
L 672.978563 257.005684 
L 685.401568 261.837688 
L 697.824574 266.67828 
L 697.824574 19.8 
L 697.824574 19.8 
L 685.401568 24.640592 
L 672.978563 29.472596 
L 660.555557 34.294867 
L 648.132552 39.106054 
L 635.709546 43.904546 
L 623.28654 48.688412 
L 610.863535 53.455311 
L 598.440529 58.202392 
L 586.017524 62.92614 
L 573.594518 67.622182 
L 561.171513 72.285016 
L 548.748507 76.90764 
L 536.325502 81.481023 
L 523.902496 85.993363 
L 511.47949 90.429009 
L 499.056485 94.766903 
L 486.633479 98.978294 
L 474.210474 103.02342 
L 461.787468 106.846796 
L 449.364463 110.370946 
L 436.941457 113.489341 
L 424.518451 116.061947 
L 412.095446 117.921834 
L 399.67244 118.905026 
L 387.249435 118.905026 
L 374.826429 117.921834 
L 362.403424 116.061947 
L 349.980418 113.489341 
L 337.557412 110.370946 
L 325.134407 106.846796 
L 312.711401 103.02342 
L 300.288396 98.978294 
L 287.86539 94.766903 
L 275.442385 90.429009 
L 263.019379 85.993363 
L 250.596373 81.481023 
L 238.173368 76.90764 
L 225.750362 72.285016 
L 213.327357 67.622182 
L 200.904351 62.92614 
L 188.481346 58.202392 
L 176.05834 53.455311 
L 163.635335 48.688412 
L 151.212329 43.904546 
L 138.789323 39.106054 
L 126.366318 34.294867 
L 113.943312 29.472596 
L 101.520307 24.640592 
L 89.097301 19.8 
z
" clip-path="url(#pe738b81b6e)" style="fill: #1f77b4; fill-opacity: 0.25"/>
   </g>
   <g id="matplotlib.axis_1">
    <g id="xtick_1">
     <g id="line2d_1">
      <defs>
       <path id="m29498edd88" d="M 0 0 
L 0 3.5 
" style="stroke: #000000; stroke-width: 0.8"/>
      </defs>
      <g>
       <use xlink:href="#m29498edd88" x="149.970028" y="284.4" style="stroke: #000000; stroke-width: 0.8"/>
      </g>
     </g>
     <g id="text_1">
      <!-- −4 -->
      <g transform="translate(142.598935 298.998437) scale(0.1 -0.1)">
       <defs>
        <path id="DejaVuSans-2212" d="M 678 2272 
L 4684 2272 
L 4684 1741 
L 678 1741 
L 678 2272 
z
" transform="scale(0.015625)"/>
        <path id="DejaVuSans-34" d="M 2419 4116 
L 825 1625 
L 2419 1625 
L 2419 4116 
z
M 2253 4666 
L 3047 4666 
L 3047 1625 
L 3713 1625 
L 3713 1100 
L 3047 1100 
L 3047 0 
L 2419 0 
L 2419 1100 
L 313 1100 
L 313 1709 
L 2253 4666 
z
" transform="scale(0.015625)"/>
       </defs>
       <use xlink:href="#DejaVuSans-2212"/>
       <use xlink:href="#DejaVuSans-34" x="83.789062"/>
      </g>
     </g>
    </g>
    <g id="xtick_2">
     <g id="line2d_2">
      <g>
       <use xlink:href="#m29498edd88" x="271.715483" y="284.4" style="stroke: #000000; stroke-width: 0.8"/>
      </g>
     </g>
     <g id="text_2">
      <!-- −2 -->
      <g transform="translate(264.344389 298.998437) scale(0.1 -0.1)">
       <defs>
        <path id="DejaVuSans-32" d="M 1228 531 
L 3431 531 
L 3431 0 
L 469 0 
L 469 531 
Q 828 903 1448 1529 
Q 2069 2156 2228 2338 
Q 2531 2678 2651 2914 
Q 2772 3150 2772 3378 
Q 2772 3750 2511 3984 
Q 2250 4219 1831 4219 
Q 1534 4219 1204 4116 
Q 875 4013 500 3803 
L 500 4441 
Q 881 4594 1212 4672 
Q 1544 4750 1819 4750 
Q 2544 4750 2975 4387 
Q 3406 4025 3406 3419 
Q 3406 3131 3298 2873 
Q 3191 2616 2906 2266 
Q 2828 2175 2409 1742 
Q 1991 1309 1228 531 
z
" transform="scale(0.015625)"/>
       </defs>
       <use xlink:href="#DejaVuSans-2212"/>
       <use xlink:href="#DejaVuSans-32" x="83.789062"/>
      </g>
     </g>
    </g>
    <g id="xtick_3">
     <g id="line2d_3">
      <g>
       <use xlink:href="#m29498edd88" x="393.460938" y="284.4" style="stroke: #000000; stroke-width: 0.8"/>
      </g>
     </g>
     <g id="text_3">
      <!-- 0 -->
      <g transform="translate(390.279688 298.998437) scale(0.1 -0.1)">
       <defs>
        <path id="DejaVuSans-30" d="M 2034 4250 
Q 1547 4250 1301 3770 
Q 1056 3291 1056 2328 
Q 1056 1369 1301 889 
Q 1547 409 2034 409 
Q 2525 409 2770 889 
Q 3016 1369 3016 2328 
Q 3016 3291 2770 3770 
Q 2525 4250 2034 4250 
z
M 2034 4750 
Q 2819 4750 3233 4129 
Q 3647 3509 3647 2328 
Q 3647 1150 3233 529 
Q 2819 -91 2034 -91 
Q 1250 -91 836 529 
Q 422 1150 422 2328 
Q 422 3509 836 4129 
Q 1250 4750 2034 4750 
z
" transform="scale(0.015625)"/>
       </defs>
       <use xlink:href="#DejaVuSans-30"/>
      </g>
     </g>
    </g>
    <g id="xtick_4">
     <g id="line2d_4">
      <g>
       <use xlink:href="#m29498edd88" x="515.206392" y="284.4" style="stroke: #000000; stroke-width: 0.8"/>
      </g>
     </g>
     <g id="text_4">
      <!-- 2 -->
      <g transform="translate(512.025142 298.998437) scale(0.1 -0.1)">
       <use xlink:href="#DejaVuSans-32"/>
      </g>
     </g>
    </g>
    <g id="xtick_5">
     <g id="line2d_5">
      <g>
       <use xlink:href="#m29498edd88" x="636.951847" y="284.4" style="stroke: #000000; stroke-width: 0.8"/>
      </g>
     </g>
     <g id="text_5">
      <!-- 4 -->
      <g transform="translate(633.770597 298.998437) scale(0.1 -0.1)">
       <use xlink:href="#DejaVuSans-34"/>
      </g>
     </g>
    </g>
    <g id="text_6">
     <!-- x -->
     <g transform="translate(387.542188 320.275) scale(0.2 -0.2)">
      <defs>
       <path id="DejaVuSans-78" d="M 3513 3500 
L 2247 1797 
L 3578 0 
L 2900 0 
L 1881 1375 
L 863 0 
L 184 0 
L 1544 1831 
L 300 3500 
L 978 3500 
L 1906 2253 
L 2834 3500 
L 3513 3500 
z
" transform="scale(0.015625)"/>
      </defs>
      <use xlink:href="#DejaVuSans-78"/>
     </g>
    </g>
   </g>
   <g id="matplotlib.axis_2">
    <g id="ytick_1">
     <g id="line2d_6">
      <defs>
       <path id="m3338d6600a" d="M 0 0 
L -3.5 0 
" style="stroke: #000000; stroke-width: 0.8"/>
      </defs>
      <g>
       <use xlink:href="#m3338d6600a" x="58.660938" y="264.281175" style="stroke: #000000; stroke-width: 0.8"/>
      </g>
     </g>
     <g id="text_7">
      <!-- −10 -->
      <g transform="translate(30.55625 268.080394) scale(0.1 -0.1)">
       <defs>
        <path id="DejaVuSans-31" d="M 794 531 
L 1825 531 
L 1825 4091 
L 703 3866 
L 703 4441 
L 1819 4666 
L 2450 4666 
L 2450 531 
L 3481 531 
L 3481 0 
L 794 0 
L 794 531 
z
" transform="scale(0.015625)"/>
       </defs>
       <use xlink:href="#DejaVuSans-2212"/>
       <use xlink:href="#DejaVuSans-31" x="83.789062"/>
       <use xlink:href="#DejaVuSans-30" x="147.412109"/>
      </g>
     </g>
    </g>
    <g id="ytick_2">
     <g id="line2d_7">
      <g>
       <use xlink:href="#m3338d6600a" x="58.660938" y="203.760158" style="stroke: #000000; stroke-width: 0.8"/>
      </g>
     </g>
     <g id="text_8">
      <!-- −5 -->
      <g transform="translate(36.91875 207.559376) scale(0.1 -0.1)">
       <defs>
        <path id="DejaVuSans-35" d="M 691 4666 
L 3169 4666 
L 3169 4134 
L 1269 4134 
L 1269 2991 
Q 1406 3038 1543 3061 
Q 1681 3084 1819 3084 
Q 2600 3084 3056 2656 
Q 3513 2228 3513 1497 
Q 3513 744 3044 326 
Q 2575 -91 1722 -91 
Q 1428 -91 1123 -41 
Q 819 9 494 109 
L 494 744 
Q 775 591 1075 516 
Q 1375 441 1709 441 
Q 2250 441 2565 725 
Q 2881 1009 2881 1497 
Q 2881 1984 2565 2268 
Q 2250 2553 1709 2553 
Q 1456 2553 1204 2497 
Q 953 2441 691 2322 
L 691 4666 
z
" transform="scale(0.015625)"/>
       </defs>
       <use xlink:href="#DejaVuSans-2212"/>
       <use xlink:href="#DejaVuSans-35" x="83.789062"/>
      </g>
     </g>
    </g>
    <g id="ytick_3">
     <g id="line2d_8">
      <g>
       <use xlink:href="#m3338d6600a" x="58.660938" y="143.23914" style="stroke: #000000; stroke-width: 0.8"/>
      </g>
     </g>
     <g id="text_9">
      <!-- 0 -->
      <g transform="translate(45.298438 147.038359) scale(0.1 -0.1)">
       <use xlink:href="#DejaVuSans-30"/>
      </g>
     </g>
    </g>
    <g id="ytick_4">
     <g id="line2d_9">
      <g>
       <use xlink:href="#m3338d6600a" x="58.660938" y="82.718122" style="stroke: #000000; stroke-width: 0.8"/>
      </g>
     </g>
     <g id="text_10">
      <!-- 5 -->
      <g transform="translate(45.298438 86.517341) scale(0.1 -0.1)">
       <use xlink:href="#DejaVuSans-35"/>
      </g>
     </g>
    </g>
    <g id="ytick_5">
     <g id="line2d_10">
      <g>
       <use xlink:href="#m3338d6600a" x="58.660938" y="22.197105" style="stroke: #000000; stroke-width: 0.8"/>
      </g>
     </g>
     <g id="text_11">
      <!-- 10 -->
      <g transform="translate(38.935938 25.996323) scale(0.1 -0.1)">
       <use xlink:href="#DejaVuSans-31"/>
       <use xlink:href="#DejaVuSans-30" x="63.623047"/>
      </g>
     </g>
    </g>
    <g id="text_12">
     <!-- f(x) -->
     <g transform="translate(22.396875 163.042187) rotate(-90) scale(0.2 -0.2)">
      <defs>
       <path id="DejaVuSans-66" d="M 2375 4863 
L 2375 4384 
L 1825 4384 
Q 1516 4384 1395 4259 
Q 1275 4134 1275 3809 
L 1275 3500 
L 2222 3500 
L 2222 3053 
L 1275 3053 
L 1275 0 
L 697 0 
L 697 3053 
L 147 3053 
L 147 3500 
L 697 3500 
L 697 3744 
Q 697 4328 969 4595 
Q 1241 4863 1831 4863 
L 2375 4863 
z
" transform="scale(0.015625)"/>
       <path id="DejaVuSans-28" d="M 1984 4856 
Q 1566 4138 1362 3434 
Q 1159 2731 1159 2009 
Q 1159 1288 1364 580 
Q 1569 -128 1984 -844 
L 1484 -844 
Q 1016 -109 783 600 
Q 550 1309 550 2009 
Q 550 2706 781 3412 
Q 1013 4119 1484 4856 
L 1984 4856 
z
" transform="scale(0.015625)"/>
       <path id="DejaVuSans-29" d="M 513 4856 
L 1013 4856 
Q 1481 4119 1714 3412 
Q 1947 2706 1947 2009 
Q 1947 1309 1714 600 
Q 1481 -109 1013 -844 
L 513 -844 
Q 928 -128 1133 580 
Q 1338 1288 1338 2009 
Q 1338 2731 1133 3434 
Q 928 4138 513 4856 
z
" transform="scale(0.015625)"/>
      </defs>
      <use xlink:href="#DejaVuSans-66"/>
      <use xlink:href="#DejaVuSans-28" x="35.205078"/>
      <use xlink:href="#DejaVuSans-78" x="74.21875"/>
      <use xlink:href="#DejaVuSans-29" x="133.398438"/>
     </g>
    </g>
   </g>
   <g id="line2d_11">
    <path d="M 89.097301 143.23914 
L 101.520307 143.23914 
L 113.943312 143.23914 
L 126.366318 143.23914 
L 138.789323 143.23914 
L 151.212329 143.23914 
L 163.635335 143.23914 
L 176.05834 143.23914 
L 188.481346 143.23914 
L 200.904351 143.23914 
L 213.327357 143.23914 
L 225.750362 143.23914 
L 238.173368 143.23914 
L 250.596373 143.23914 
L 263.019379 143.23914 
L 275.442385 143.23914 
L 287.86539 143.23914 
L 300.288396 143.23914 
L 312.711401 143.23914 
L 325.134407 143.23914 
L 337.557412 143.23914 
L 349.980418 143.23914 
L 362.403424 143.23914 
L 374.826429 143.23914 
L 387.249435 143.23914 
L 399.67244 143.23914 
L 412.095446 143.23914 
L 424.518451 143.23914 
L 436.941457 143.23914 
L 449.364463 143.23914 
L 461.787468 143.23914 
L 474.210474 143.23914 
L 486.633479 143.23914 
L 499.056485 143.23914 
L 511.47949 143.23914 
L 523.902496 143.23914 
L 536.325502 143.23914 
L 548.748507 143.23914 
L 561.171513 143.23914 
L 573.594518 143.23914 
L 586.017524 143.23914 
L 598.440529 143.23914 
L 610.863535 143.23914 
L 623.28654 143.23914 
L 635.709546 143.23914 
L 648.132552 143.23914 
L 660.555557 143.23914 
L 672.978563 143.23914 
L 685.401568 143.23914 
L 697.824574 143.23914 
" clip-path="url(#pe738b81b6e)" style="fill: none; stroke: #000000; stroke-width: 4; stroke-linecap: square"/>
   </g>
   <g id="line2d_12">
    <path d="M 89.097301 111.503779 
L 101.520307 113.117547 
L 113.943312 114.731316 
L 126.366318 116.345084 
L 138.789323 117.958852 
L 151.212329 119.57262 
L 163.635335 121.186388 
L 176.05834 122.800156 
L 188.481346 124.413924 
L 200.904351 126.027693 
L 213.327357 127.641461 
L 225.750362 129.255229 
L 238.173368 130.868997 
L 250.596373 132.482765 
L 263.019379 134.096533 
L 275.442385 135.710302 
L 287.86539 137.32407 
L 300.288396 138.937838 
L 312.711401 140.551606 
L 325.134407 142.165374 
L 337.557412 143.779142 
L 349.980418 145.39291 
L 362.403424 147.006679 
L 374.826429 148.620447 
L 387.249435 150.234215 
L 399.67244 151.847983 
L 412.095446 153.461751 
L 424.518451 155.075519 
L 436.941457 156.689288 
L 449.364463 158.303056 
L 461.787468 159.916824 
L 474.210474 161.530592 
L 486.633479 163.14436 
L 499.056485 164.758128 
L 511.47949 166.371896 
L 523.902496 167.985665 
L 536.325502 169.599433 
L 548.748507 171.213201 
L 561.171513 172.826969 
L 573.594518 174.440737 
L 586.017524 176.054505 
L 598.440529 177.668274 
L 610.863535 179.282042 
L 623.28654 180.89581 
L 635.709546 182.509578 
L 648.132552 184.123346 
L 660.555557 185.737114 
L 672.978563 187.350882 
L 685.401568 188.964651 
L 697.824574 190.578419 
" clip-path="url(#pe738b81b6e)" style="fill: none; stroke: #1f77b4; stroke-width: 1.5; stroke-linecap: square"/>
   </g>
   <g id="line2d_13">
    <path d="M 89.097301 146.098046 
L 101.520307 146.002821 
L 113.943312 145.907597 
L 126.366318 145.812372 
L 138.789323 145.717147 
L 151.212329 145.621923 
L 163.635335 145.526698 
L 176.05834 145.431474 
L 188.481346 145.336249 
L 200.904351 145.241025 
L 213.327357 145.1458 
L 225.750362 145.050576 
L 238.173368 144.955351 
L 250.596373 144.860127 
L 263.019379 144.764902 
L 275.442385 144.669678 
L 287.86539 144.574453 
L 300.288396 144.479228 
L 312.711401 144.384004 
L 325.134407 144.288779 
L 337.557412 144.193555 
L 349.980418 144.09833 
L 362.403424 144.003106 
L 374.826429 143.907881 
L 387.249435 143.812657 
L 399.67244 143.717432 
L 412.095446 143.622208 
L 424.518451 143.526983 
L 436.941457 143.431759 
L 449.364463 143.336534 
L 461.787468 143.241309 
L 474.210474 143.146085 
L 486.633479 143.05086 
L 499.056485 142.955636 
L 511.47949 142.860411 
L 523.902496 142.765187 
L 536.325502 142.669962 
L 548.748507 142.574738 
L 561.171513 142.479513 
L 573.594518 142.384289 
L 586.017524 142.289064 
L 598.440529 142.19384 
L 610.863535 142.098615 
L 623.28654 142.00339 
L 635.709546 141.908166 
L 648.132552 141.812941 
L 660.555557 141.717717 
L 672.978563 141.622492 
L 685.401568 141.527268 
L 697.824574 141.432043 
" clip-path="url(#pe738b81b6e)" style="fill: none; stroke: #ff7f0e; stroke-width: 1.5; stroke-linecap: square"/>
   </g>
   <g id="line2d_14">
    <path d="M 89.097301 176.898364 
L 101.520307 176.158465 
L 113.943312 175.418565 
L 126.366318 174.678666 
L 138.789323 173.938766 
L 151.212329 173.198866 
L 163.635335 172.458967 
L 176.05834 171.719067 
L 188.481346 170.979168 
L 200.904351 170.239268 
L 213.327357 169.499369 
L 225.750362 168.759469 
L 238.173368 168.019569 
L 250.596373 167.27967 
L 263.019379 166.53977 
L 275.442385 165.799871 
L 287.86539 165.059971 
L 300.288396 164.320072 
L 312.711401 163.580172 
L 325.134407 162.840273 
L 337.557412 162.100373 
L 349.980418 161.360473 
L 362.403424 160.620574 
L 374.826429 159.880674 
L 387.249435 159.140775 
L 399.67244 158.400875 
L 412.095446 157.660976 
L 424.518451 156.921076 
L 436.941457 156.181176 
L 449.364463 155.441277 
L 461.787468 154.701377 
L 474.210474 153.961478 
L 486.633479 153.221578 
L 499.056485 152.481679 
L 511.47949 151.741779 
L 523.902496 151.001879 
L 536.325502 150.26198 
L 548.748507 149.52208 
L 561.171513 148.782181 
L 573.594518 148.042281 
L 586.017524 147.302382 
L 598.440529 146.562482 
L 610.863535 145.822583 
L 623.28654 145.082683 
L 635.709546 144.342783 
L 648.132552 143.602884 
L 660.555557 142.862984 
L 672.978563 142.123085 
L 685.401568 141.383185 
L 697.824574 140.643286 
" clip-path="url(#pe738b81b6e)" style="fill: none; stroke: #2ca02c; stroke-width: 1.5; stroke-linecap: square"/>
   </g>
   <g id="line2d_15">
    <path d="M 89.097301 110.2096 
L 101.520307 111.864027 
L 113.943312 113.518453 
L 126.366318 115.17288 
L 138.789323 116.827307 
L 151.212329 118.481734 
L 163.635335 120.13616 
L 176.05834 121.790587 
L 188.481346 123.445014 
L 200.904351 125.099441 
L 213.327357 126.753868 
L 225.750362 128.408294 
L 238.173368 130.062721 
L 250.596373 131.717148 
L 263.019379 133.371575 
L 275.442385 135.026001 
L 287.86539 136.680428 
L 300.288396 138.334855 
L 312.711401 139.989282 
L 325.134407 141.643709 
L 337.557412 143.298135 
L 349.980418 144.952562 
L 362.403424 146.606989 
L 374.826429 148.261416 
L 387.249435 149.915842 
L 399.67244 151.570269 
L 412.095446 153.224696 
L 424.518451 154.879123 
L 436.941457 156.533549 
L 449.364463 158.187976 
L 461.787468 159.842403 
L 474.210474 161.49683 
L 486.633479 163.151257 
L 499.056485 164.805683 
L 511.47949 166.46011 
L 523.902496 168.114537 
L 536.325502 169.768964 
L 548.748507 171.42339 
L 561.171513 173.077817 
L 573.594518 174.732244 
L 586.017524 176.386671 
L 598.440529 178.041098 
L 610.863535 179.695524 
L 623.28654 181.349951 
L 635.709546 183.004378 
L 648.132552 184.658805 
L 660.555557 186.313231 
L 672.978563 187.967658 
L 685.401568 189.622085 
L 697.824574 191.276512 
" clip-path="url(#pe738b81b6e)" style="fill: none; stroke: #d62728; stroke-width: 1.5; stroke-linecap: square"/>
   </g>
   <g id="line2d_16">
    <path d="M 89.097301 160.437598 
L 101.520307 159.014866 
L 113.943312 157.592133 
L 126.366318 156.1694 
L 138.789323 154.746668 
L 151.212329 153.323935 
L 163.635335 151.901202 
L 176.05834 150.47847 
L 188.481346 149.055737 
L 200.904351 147.633005 
L 213.327357 146.210272 
L 225.750362 144.787539 
L 238.173368 143.364807 
L 250.596373 141.942074 
L 263.019379 140.519341 
L 275.442385 139.096609 
L 287.86539 137.673876 
L 300.288396 136.251143 
L 312.711401 134.828411 
L 325.134407 133.405678 
L 337.557412 131.982945 
L 349.980418 130.560213 
L 362.403424 129.13748 
L 374.826429 127.714747 
L 387.249435 126.292015 
L 399.67244 124.869282 
L 412.095446 123.446549 
L 424.518451 122.023817 
L 436.941457 120.601084 
L 449.364463 119.178351 
L 461.787468 117.755619 
L 474.210474 116.332886 
L 486.633479 114.910153 
L 499.056485 113.487421 
L 511.47949 112.064688 
L 523.902496 110.641956 
L 536.325502 109.219223 
L 548.748507 107.79649 
L 561.171513 106.373758 
L 573.594518 104.951025 
L 586.017524 103.528292 
L 598.440529 102.10556 
L 610.863535 100.682827 
L 623.28654 99.260094 
L 635.709546 97.837362 
L 648.132552 96.414629 
L 660.555557 94.991896 
L 672.978563 93.569164 
L 685.401568 92.146431 
L 697.824574 90.723698 
" clip-path="url(#pe738b81b6e)" style="fill: none; stroke: #9467bd; stroke-width: 1.5; stroke-linecap: square"/>
   </g>
   <g id="line2d_17">
    <path d="M 89.097301 148.83297 
L 101.520307 148.301611 
L 113.943312 147.770253 
L 126.366318 147.238894 
L 138.789323 146.707535 
L 151.212329 146.176176 
L 163.635335 145.644817 
L 176.05834 145.113459 
L 188.481346 144.5821 
L 200.904351 144.050741 
L 213.327357 143.519382 
L 225.750362 142.988024 
L 238.173368 142.456665 
L 250.596373 141.925306 
L 263.019379 141.393947 
L 275.442385 140.862588 
L 287.86539 140.33123 
L 300.288396 139.799871 
L 312.711401 139.268512 
L 325.134407 138.737153 
L 337.557412 138.205794 
L 349.980418 137.674436 
L 362.403424 137.143077 
L 374.826429 136.611718 
L 387.249435 136.080359 
L 399.67244 135.549001 
L 412.095446 135.017642 
L 424.518451 134.486283 
L 436.941457 133.954924 
L 449.364463 133.423565 
L 461.787468 132.892207 
L 474.210474 132.360848 
L 486.633479 131.829489 
L 499.056485 131.29813 
L 511.47949 130.766771 
L 523.902496 130.235413 
L 536.325502 129.704054 
L 548.748507 129.172695 
L 561.171513 128.641336 
L 573.594518 128.109978 
L 586.017524 127.578619 
L 598.440529 127.04726 
L 610.863535 126.515901 
L 623.28654 125.984542 
L 635.709546 125.453184 
L 648.132552 124.921825 
L 660.555557 124.390466 
L 672.978563 123.859107 
L 685.401568 123.327748 
L 697.824574 122.79639 
" clip-path="url(#pe738b81b6e)" style="fill: none; stroke: #8c564b; stroke-width: 1.5; stroke-linecap: square"/>
   </g>
   <g id="line2d_18">
    <path d="M 89.097301 144.73754 
L 101.520307 145.022167 
L 113.943312 145.306794 
L 126.366318 145.591422 
L 138.789323 145.876049 
L 151.212329 146.160676 
L 163.635335 146.445303 
L 176.05834 146.72993 
L 188.481346 147.014557 
L 200.904351 147.299184 
L 213.327357 147.583811 
L 225.750362 147.868439 
L 238.173368 148.153066 
L 250.596373 148.437693 
L 263.019379 148.72232 
L 275.442385 149.006947 
L 287.86539 149.291574 
L 300.288396 149.576201 
L 312.711401 149.860829 
L 325.134407 150.145456 
L 337.557412 150.430083 
L 349.980418 150.71471 
L 362.403424 150.999337 
L 374.826429 151.283964 
L 387.249435 151.568591 
L 399.67244 151.853218 
L 412.095446 152.137846 
L 424.518451 152.422473 
L 436.941457 152.7071 
L 449.364463 152.991727 
L 461.787468 153.276354 
L 474.210474 153.560981 
L 486.633479 153.845608 
L 499.056485 154.130235 
L 511.47949 154.414863 
L 523.902496 154.69949 
L 536.325502 154.984117 
L 548.748507 155.268744 
L 561.171513 155.553371 
L 573.594518 155.837998 
L 586.017524 156.122625 
L 598.440529 156.407252 
L 610.863535 156.69188 
L 623.28654 156.976507 
L 635.709546 157.261134 
L 648.132552 157.545761 
L 660.555557 157.830388 
L 672.978563 158.115015 
L 685.401568 158.399642 
L 697.824574 158.684269 
" clip-path="url(#pe738b81b6e)" style="fill: none; stroke: #e377c2; stroke-width: 1.5; stroke-linecap: square"/>
   </g>
   <g id="line2d_19">
    <path d="M 89.097301 247.449531 
L 101.520307 243.725341 
L 113.943312 240.001151 
L 126.366318 236.276961 
L 138.789323 232.552771 
L 151.212329 228.828582 
L 163.635335 225.104392 
L 176.05834 221.380202 
L 188.481346 217.656012 
L 200.904351 213.931822 
L 213.327357 210.207632 
L 225.750362 206.483442 
L 238.173368 202.759252 
L 250.596373 199.035062 
L 263.019379 195.310872 
L 275.442385 191.586682 
L 287.86539 187.862492 
L 300.288396 184.138302 
L 312.711401 180.414113 
L 325.134407 176.689923 
L 337.557412 172.965733 
L 349.980418 169.241543 
L 362.403424 165.517353 
L 374.826429 161.793163 
L 387.249435 158.068973 
L 399.67244 154.344783 
L 412.095446 150.620593 
L 424.518451 146.896403 
L 436.941457 143.172213 
L 449.364463 139.448023 
L 461.787468 135.723833 
L 474.210474 131.999644 
L 486.633479 128.275454 
L 499.056485 124.551264 
L 511.47949 120.827074 
L 523.902496 117.102884 
L 536.325502 113.378694 
L 548.748507 109.654504 
L 561.171513 105.930314 
L 573.594518 102.206124 
L 586.017524 98.481934 
L 598.440529 94.757744 
L 610.863535 91.033554 
L 623.28654 87.309365 
L 635.709546 83.585175 
L 648.132552 79.860985 
L 660.555557 76.136795 
L 672.978563 72.412605 
L 685.401568 68.688415 
L 697.824574 64.964225 
" clip-path="url(#pe738b81b6e)" style="fill: none; stroke: #7f7f7f; stroke-width: 1.5; stroke-linecap: square"/>
   </g>
   <g id="line2d_20">
    <path d="M 89.097301 191.83273 
L 101.520307 190.341021 
L 113.943312 188.849311 
L 126.366318 187.357601 
L 138.789323 185.865891 
L 151.212329 184.374182 
L 163.635335 182.882472 
L 176.05834 181.390762 
L 188.481346 179.899052 
L 200.904351 178.407343 
L 213.327357 176.915633 
L 225.750362 175.423923 
L 238.173368 173.932213 
L 250.596373 172.440503 
L 263.019379 170.948794 
L 275.442385 169.457084 
L 287.86539 167.965374 
L 300.288396 166.473664 
L 312.711401 164.981955 
L 325.134407 163.490245 
L 337.557412 161.998535 
L 349.980418 160.506825 
L 362.403424 159.015115 
L 374.826429 157.523406 
L 387.249435 156.031696 
L 399.67244 154.539986 
L 412.095446 153.048276 
L 424.518451 151.556567 
L 436.941457 150.064857 
L 449.364463 148.573147 
L 461.787468 147.081437 
L 474.210474 145.589728 
L 486.633479 144.098018 
L 499.056485 142.606308 
L 511.47949 141.114598 
L 523.902496 139.622888 
L 536.325502 138.131179 
L 548.748507 136.639469 
L 561.171513 135.147759 
L 573.594518 133.656049 
L 586.017524 132.16434 
L 598.440529 130.67263 
L 610.863535 129.18092 
L 623.28654 127.68921 
L 635.709546 126.1975 
L 648.132552 124.705791 
L 660.555557 123.214081 
L 672.978563 121.722371 
L 685.401568 120.230661 
L 697.824574 118.738952 
" clip-path="url(#pe738b81b6e)" style="fill: none; stroke: #bcbd22; stroke-width: 1.5; stroke-linecap: square"/>
   </g>
   <g id="line2d_21">
    <path d="M 89.097301 271.8 
L 101.520307 267.333618 
L 113.943312 262.867237 
L 126.366318 258.400855 
L 138.789323 253.934474 
L 151.212329 249.468092 
L 163.635335 245.00171 
L 176.05834 240.535329 
L 188.481346 236.068947 
L 200.904351 231.602566 
L 213.327357 227.136184 
L 225.750362 222.669803 
L 238.173368 218.203421 
L 250.596373 213.737039 
L 263.019379 209.270658 
L 275.442385 204.804276 
L 287.86539 200.337895 
L 300.288396 195.871513 
L 312.711401 191.405131 
L 325.134407 186.93875 
L 337.557412 182.472368 
L 349.980418 178.005987 
L 362.403424 173.539605 
L 374.826429 169.073223 
L 387.249435 164.606842 
L 399.67244 160.14046 
L 412.095446 155.674079 
L 424.518451 151.207697 
L 436.941457 146.741316 
L 449.364463 142.274934 
L 461.787468 137.808552 
L 474.210474 133.342171 
L 486.633479 128.875789 
L 499.056485 124.409408 
L 511.47949 119.943026 
L 523.902496 115.476644 
L 536.325502 111.010263 
L 548.748507 106.543881 
L 561.171513 102.0775 
L 573.594518 97.611118 
L 586.017524 93.144736 
L 598.440529 88.678355 
L 610.863535 84.211973 
L 623.28654 79.745592 
L 635.709546 75.27921 
L 648.132552 70.812829 
L 660.555557 66.346447 
L 672.978563 61.880065 
L 685.401568 57.413684 
L 697.824574 52.947302 
" clip-path="url(#pe738b81b6e)" style="fill: none; stroke: #17becf; stroke-width: 1.5; stroke-linecap: square"/>
   </g>
   <g id="patch_3">
    <path d="M 58.660938 284.4 
L 58.660938 7.2 
" style="fill: none; stroke: #000000; stroke-width: 0.8; stroke-linejoin: miter; stroke-linecap: square"/>
   </g>
   <g id="patch_4">
    <path d="M 728.260938 284.4 
L 728.260938 7.2 
" style="fill: none; stroke: #000000; stroke-width: 0.8; stroke-linejoin: miter; stroke-linecap: square"/>
   </g>
   <g id="patch_5">
    <path d="M 58.660937 284.4 
L 728.260937 284.4 
" style="fill: none; stroke: #000000; stroke-width: 0.8; stroke-linejoin: miter; stroke-linecap: square"/>
   </g>
   <g id="patch_6">
    <path d="M 58.660937 7.2 
L 728.260937 7.2 
" style="fill: none; stroke: #000000; stroke-width: 0.8; stroke-linejoin: miter; stroke-linecap: square"/>
   </g>
  </g>
 </g>
 <defs>
  <clipPath id="pe738b81b6e">
   <rect x="58.660938" y="7.2" width="669.6" height="277.2"/>
  </clipPath>
 </defs>
</svg>
