<?xml version="1.0" encoding="utf-8" standalone="no"?>
<!DOCTYPE svg PUBLIC "-//W3C//DTD SVG 1.1//EN"
  "http://www.w3.org/Graphics/SVG/1.1/DTD/svg11.dtd">
<svg xmlns:xlink="http://www.w3.org/1999/xlink" width="705.742188pt" height="308.278125pt" viewBox="0 0 705.742188 308.278125" xmlns="http://www.w3.org/2000/svg" version="1.1">
 <metadata>
  <rdf:RDF xmlns:dc="http://purl.org/dc/elements/1.1/" xmlns:cc="http://creativecommons.org/ns#" xmlns:rdf="http://www.w3.org/1999/02/22-rdf-syntax-ns#">
   <cc:Work>
    <dc:type rdf:resource="http://purl.org/dc/dcmitype/StillImage"/>
    <dc:date>2025-07-08T14:30:07.983555</dc:date>
    <dc:format>image/svg+xml</dc:format>
    <dc:creator>
     <cc:Agent>
      <dc:title>Matplotlib v3.7.2, https://matplotlib.org/</dc:title>
     </cc:Agent>
    </dc:creator>
   </cc:Work>
  </rdf:RDF>
 </metadata>
 <defs>
  <style type="text/css">*{stroke-linejoin: round; stroke-linecap: butt}</style>
 </defs>
 <g id="figure_1">
  <g id="patch_1">
   <path d="M 0 308.278125 
L 705.742188 308.278125 
L 705.742188 0 
L 0 0 
z
" style="fill: #ffffff"/>
  </g>
  <g id="axes_1">
   <g id="patch_2">
    <path d="M 28.942188 284.4 
L 698.542188 284.4 
L 698.542188 7.2 
L 28.942188 7.2 
z
" style="fill: #ffffff"/>
   </g>
   <g id="matplotlib.axis_1">
    <g id="xtick_1">
     <g id="line2d_1">
      <defs>
       <path id="m07d10fe520" d="M 0 0 
L 0 3.5 
" style="stroke: #000000; stroke-width: 0.8"/>
      </defs>
      <g>
       <use xlink:href="#m07d10fe520" x="59.378551" y="284.4" style="stroke: #000000; stroke-width: 0.8"/>
      </g>
     </g>
     <g id="text_1">
      <!-- 0 -->
      <g transform="translate(56.197301 298.998438) scale(0.1 -0.1)">
       <defs>
        <path id="DejaVuSans-30" d="M 2034 4250 
Q 1547 4250 1301 3770 
Q 1056 3291 1056 2328 
Q 1056 1369 1301 889 
Q 1547 409 2034 409 
Q 2525 409 2770 889 
Q 3016 1369 3016 2328 
Q 3016 3291 2770 3770 
Q 2525 4250 2034 4250 
z
M 2034 4750 
Q 2819 4750 3233 4129 
Q 3647 3509 3647 2328 
Q 3647 1150 3233 529 
Q 2819 -91 2034 -91 
Q 1250 -91 836 529 
Q 422 1150 422 2328 
Q 422 3509 836 4129 
Q 1250 4750 2034 4750 
z
" transform="scale(0.015625)"/>
       </defs>
       <use xlink:href="#DejaVuSans-30"/>
      </g>
     </g>
    </g>
    <g id="xtick_2">
     <g id="line2d_2">
      <g>
       <use xlink:href="#m07d10fe520" x="181.124006" y="284.4" style="stroke: #000000; stroke-width: 0.8"/>
      </g>
     </g>
     <g id="text_2">
      <!-- 1 -->
      <g transform="translate(177.942756 298.998438) scale(0.1 -0.1)">
       <defs>
        <path id="DejaVuSans-31" d="M 794 531 
L 1825 531 
L 1825 4091 
L 703 3866 
L 703 4441 
L 1819 4666 
L 2450 4666 
L 2450 531 
L 3481 531 
L 3481 0 
L 794 0 
L 794 531 
z
" transform="scale(0.015625)"/>
       </defs>
       <use xlink:href="#DejaVuSans-31"/>
      </g>
     </g>
    </g>
    <g id="xtick_3">
     <g id="line2d_3">
      <g>
       <use xlink:href="#m07d10fe520" x="302.86946" y="284.4" style="stroke: #000000; stroke-width: 0.8"/>
      </g>
     </g>
     <g id="text_3">
      <!-- 2 -->
      <g transform="translate(299.68821 298.998438) scale(0.1 -0.1)">
       <defs>
        <path id="DejaVuSans-32" d="M 1228 531 
L 3431 531 
L 3431 0 
L 469 0 
L 469 531 
Q 828 903 1448 1529 
Q 2069 2156 2228 2338 
Q 2531 2678 2651 2914 
Q 2772 3150 2772 3378 
Q 2772 3750 2511 3984 
Q 2250 4219 1831 4219 
Q 1534 4219 1204 4116 
Q 875 4013 500 3803 
L 500 4441 
Q 881 4594 1212 4672 
Q 1544 4750 1819 4750 
Q 2544 4750 2975 4387 
Q 3406 4025 3406 3419 
Q 3406 3131 3298 2873 
Q 3191 2616 2906 2266 
Q 2828 2175 2409 1742 
Q 1991 1309 1228 531 
z
" transform="scale(0.015625)"/>
       </defs>
       <use xlink:href="#DejaVuSans-32"/>
      </g>
     </g>
    </g>
    <g id="xtick_4">
     <g id="line2d_4">
      <g>
       <use xlink:href="#m07d10fe520" x="424.614915" y="284.4" style="stroke: #000000; stroke-width: 0.8"/>
      </g>
     </g>
     <g id="text_4">
      <!-- 3 -->
      <g transform="translate(421.433665 298.998438) scale(0.1 -0.1)">
       <defs>
        <path id="DejaVuSans-33" d="M 2597 2516 
Q 3050 2419 3304 2112 
Q 3559 1806 3559 1356 
Q 3559 666 3084 287 
Q 2609 -91 1734 -91 
Q 1441 -91 1130 -33 
Q 819 25 488 141 
L 488 750 
Q 750 597 1062 519 
Q 1375 441 1716 441 
Q 2309 441 2620 675 
Q 2931 909 2931 1356 
Q 2931 1769 2642 2001 
Q 2353 2234 1838 2234 
L 1294 2234 
L 1294 2753 
L 1863 2753 
Q 2328 2753 2575 2939 
Q 2822 3125 2822 3475 
Q 2822 3834 2567 4026 
Q 2313 4219 1838 4219 
Q 1578 4219 1281 4162 
Q 984 4106 628 3988 
L 628 4550 
Q 988 4650 1302 4700 
Q 1616 4750 1894 4750 
Q 2613 4750 3031 4423 
Q 3450 4097 3450 3541 
Q 3450 3153 3228 2886 
Q 3006 2619 2597 2516 
z
" transform="scale(0.015625)"/>
       </defs>
       <use xlink:href="#DejaVuSans-33"/>
      </g>
     </g>
    </g>
    <g id="xtick_5">
     <g id="line2d_5">
      <g>
       <use xlink:href="#m07d10fe520" x="546.360369" y="284.4" style="stroke: #000000; stroke-width: 0.8"/>
      </g>
     </g>
     <g id="text_5">
      <!-- 4 -->
      <g transform="translate(543.179119 298.998438) scale(0.1 -0.1)">
       <defs>
        <path id="DejaVuSans-34" d="M 2419 4116 
L 825 1625 
L 2419 1625 
L 2419 4116 
z
M 2253 4666 
L 3047 4666 
L 3047 1625 
L 3713 1625 
L 3713 1100 
L 3047 1100 
L 3047 0 
L 2419 0 
L 2419 1100 
L 313 1100 
L 313 1709 
L 2253 4666 
z
" transform="scale(0.015625)"/>
       </defs>
       <use xlink:href="#DejaVuSans-34"/>
      </g>
     </g>
    </g>
    <g id="xtick_6">
     <g id="line2d_6">
      <g>
       <use xlink:href="#m07d10fe520" x="668.105824" y="284.4" style="stroke: #000000; stroke-width: 0.8"/>
      </g>
     </g>
     <g id="text_6">
      <!-- 5 -->
      <g transform="translate(664.924574 298.998438) scale(0.1 -0.1)">
       <defs>
        <path id="DejaVuSans-35" d="M 691 4666 
L 3169 4666 
L 3169 4134 
L 1269 4134 
L 1269 2991 
Q 1406 3038 1543 3061 
Q 1681 3084 1819 3084 
Q 2600 3084 3056 2656 
Q 3513 2228 3513 1497 
Q 3513 744 3044 326 
Q 2575 -91 1722 -91 
Q 1428 -91 1123 -41 
Q 819 9 494 109 
L 494 744 
Q 775 591 1075 516 
Q 1375 441 1709 441 
Q 2250 441 2565 725 
Q 2881 1009 2881 1497 
Q 2881 1984 2565 2268 
Q 2250 2553 1709 2553 
Q 1456 2553 1204 2497 
Q 953 2441 691 2322 
L 691 4666 
z
" transform="scale(0.015625)"/>
       </defs>
       <use xlink:href="#DejaVuSans-35"/>
      </g>
     </g>
    </g>
   </g>
   <g id="matplotlib.axis_2">
    <g id="ytick_1">
     <g id="line2d_7">
      <defs>
       <path id="mc95d8c445a" d="M 0 0 
L -3.5 0 
" style="stroke: #000000; stroke-width: 0.8"/>
      </defs>
      <g>
       <use xlink:href="#mc95d8c445a" x="28.942188" y="255.876849" style="stroke: #000000; stroke-width: 0.8"/>
      </g>
     </g>
     <g id="text_7">
      <!-- −2 -->
      <g transform="translate(7.2 259.676068) scale(0.1 -0.1)">
       <defs>
        <path id="DejaVuSans-2212" d="M 678 2272 
L 4684 2272 
L 4684 1741 
L 678 1741 
L 678 2272 
z
" transform="scale(0.015625)"/>
       </defs>
       <use xlink:href="#DejaVuSans-2212"/>
       <use xlink:href="#DejaVuSans-32" x="83.789062"/>
      </g>
     </g>
    </g>
    <g id="ytick_2">
     <g id="line2d_8">
      <g>
       <use xlink:href="#mc95d8c445a" x="28.942188" y="202.74412" style="stroke: #000000; stroke-width: 0.8"/>
      </g>
     </g>
     <g id="text_8">
      <!-- −1 -->
      <g transform="translate(7.2 206.543339) scale(0.1 -0.1)">
       <use xlink:href="#DejaVuSans-2212"/>
       <use xlink:href="#DejaVuSans-31" x="83.789062"/>
      </g>
     </g>
    </g>
    <g id="ytick_3">
     <g id="line2d_9">
      <g>
       <use xlink:href="#mc95d8c445a" x="28.942188" y="149.611391" style="stroke: #000000; stroke-width: 0.8"/>
      </g>
     </g>
     <g id="text_9">
      <!-- 0 -->
      <g transform="translate(15.579688 153.41061) scale(0.1 -0.1)">
       <use xlink:href="#DejaVuSans-30"/>
      </g>
     </g>
    </g>
    <g id="ytick_4">
     <g id="line2d_10">
      <g>
       <use xlink:href="#mc95d8c445a" x="28.942188" y="96.478662" style="stroke: #000000; stroke-width: 0.8"/>
      </g>
     </g>
     <g id="text_10">
      <!-- 1 -->
      <g transform="translate(15.579688 100.277881) scale(0.1 -0.1)">
       <use xlink:href="#DejaVuSans-31"/>
      </g>
     </g>
    </g>
    <g id="ytick_5">
     <g id="line2d_11">
      <g>
       <use xlink:href="#mc95d8c445a" x="28.942188" y="43.345933" style="stroke: #000000; stroke-width: 0.8"/>
      </g>
     </g>
     <g id="text_11">
      <!-- 2 -->
      <g transform="translate(15.579688 47.145152) scale(0.1 -0.1)">
       <use xlink:href="#DejaVuSans-32"/>
      </g>
     </g>
    </g>
   </g>
   <g id="line2d_12">
    <path d="M 59.378551 220.677136 
L 71.801557 228.496759 
L 84.224562 234.869065 
L 96.647568 239.450515 
L 109.070573 241.944915 
L 121.493579 242.126095 
L 133.916585 239.857965 
L 146.33959 235.110168 
L 158.762596 227.967298 
L 171.185601 218.63072 
L 183.608607 207.412053 
L 196.031612 194.718725 
L 208.454618 181.032496 
L 220.877623 166.882748 
L 233.300629 152.816793 
L 245.723635 139.369546 
L 258.14664 127.035026 
L 270.569646 116.241554 
L 282.992651 107.332226 
L 295.415657 100.551556 
L 307.838662 96.038646 
L 320.261668 93.826819 
L 332.684674 93.849275 
L 345.107679 95.949934 
L 357.530685 99.898459 
L 369.95369 105.40813 
L 382.376696 112.155044 
L 394.799701 119.796981 
L 407.222707 127.990358 
L 419.645713 136.403799 
L 432.068718 144.727619 
L 444.491724 152.678835 
L 456.914729 160.002593 
L 469.337735 166.471239 
L 481.76074 171.882852 
L 494.183746 176.061308 
L 506.606752 178.859219 
L 519.029757 180.164433 
L 531.452763 179.909784 
L 543.875768 178.084334 
L 556.298774 174.743953 
L 568.721779 170.018438 
L 581.144785 164.112704 
L 593.56779 157.300656 
L 605.990796 149.91128 
L 618.413802 142.308239 
L 630.836807 134.865257 
L 643.259813 127.940402 
L 655.682818 121.852521 
L 668.105824 116.862628 
" clip-path="url(#p2a491d36e6)" style="fill: none; stroke: #1f77b4; stroke-opacity: 0.5; stroke-width: 1.5; stroke-linecap: square"/>
   </g>
   <g id="line2d_13">
    <path d="M 59.378551 47.835816 
L 71.801557 49.168623 
L 84.224562 51.171422 
L 96.647568 53.865247 
L 109.070573 57.262512 
L 121.493579 61.363635 
L 133.916585 66.156835 
L 146.33959 71.621004 
L 158.762596 77.730754 
L 171.185601 84.461813 
L 183.608607 91.794666 
L 196.031612 99.714822 
L 208.454618 108.20852 
L 220.877623 117.254177 
L 233.300629 126.810867 
L 245.723635 136.806207 
L 258.14664 147.126602 
L 270.569646 157.612672 
L 282.992651 168.061952 
L 295.415657 178.239668 
L 307.838662 187.896951 
L 320.261668 196.794134 
L 332.684674 204.725853 
L 345.107679 211.543755 
L 357.530685 217.173153 
L 369.95369 221.620443 
L 382.376696 224.969956 
L 394.799701 227.370415 
L 407.222707 229.013129 
L 419.645713 230.105442 
L 432.068718 230.84369 
L 444.491724 231.390029 
L 456.914729 231.856541 
L 469.337735 232.298787 
L 481.76074 232.71902 
L 494.183746 233.077612 
L 506.606752 233.309861 
L 519.029757 233.344431 
L 531.452763 233.11989 
L 543.875768 232.596367 
L 556.298774 231.760626 
L 568.721779 230.624441 
L 581.144785 229.217546 
L 593.56779 227.577466 
L 605.990796 225.739004 
L 618.413802 223.726122 
L 630.836807 221.547963 
L 643.259813 219.200002 
L 655.682818 216.669672 
L 668.105824 213.945095 
" clip-path="url(#p2a491d36e6)" style="fill: none; stroke: #ff7f0e; stroke-opacity: 0.5; stroke-width: 1.5; stroke-linecap: square"/>
   </g>
   <g id="line2d_14">
    <path d="M 59.378551 75.862469 
L 71.801557 74.29588 
L 84.224562 73.942808 
L 96.647568 74.709968 
L 109.070573 76.504533 
L 121.493579 79.248038 
L 133.916585 82.884559 
L 146.33959 87.382369 
L 158.762596 92.728684 
L 171.185601 98.918183 
L 183.608607 105.936628 
L 196.031612 113.74207 
L 208.454618 122.246234 
L 220.877623 131.29959 
L 233.300629 140.682857 
L 245.723635 150.107677 
L 258.14664 159.227543 
L 270.569646 167.659201 
L 282.992651 175.012727 
L 295.415657 180.927296 
L 307.838662 185.108423 
L 320.261668 187.361969 
L 332.684674 187.62037 
L 345.107679 185.957315 
L 357.530685 182.588693 
L 369.95369 177.859217 
L 382.376696 172.216069 
L 394.799701 166.172441 
L 407.222707 160.265093 
L 419.645713 155.010453 
L 432.068718 150.863821 
L 444.491724 148.185458 
L 456.914729 147.216315 
L 469.337735 148.064932 
L 481.76074 150.705517 
L 494.183746 154.986312 
L 506.606752 160.64644 
L 519.029757 167.338822 
L 531.452763 174.656974 
L 543.875768 182.163277 
L 556.298774 189.416882 
L 568.721779 195.999853 
L 581.144785 201.540395 
L 593.56779 205.732345 
L 605.990796 208.35049 
L 618.413802 209.261134 
L 630.836807 208.427594 
L 643.259813 205.910437 
L 655.682818 201.862282 
L 668.105824 196.517364 
" clip-path="url(#p2a491d36e6)" style="fill: none; stroke: #2ca02c; stroke-opacity: 0.5; stroke-width: 1.5; stroke-linecap: square"/>
   </g>
   <g id="line2d_15">
    <path d="M 59.378551 183.064412 
L 71.801557 175.570989 
L 84.224562 167.87689 
L 96.647568 160.063317 
L 109.070573 152.177003 
L 121.493579 144.255829 
L 133.916585 136.354624 
L 146.33959 128.566454 
L 158.762596 121.035997 
L 171.185601 113.96285 
L 183.608607 107.594505 
L 196.031612 102.210146 
L 208.454618 98.097737 
L 220.877623 95.527516 
L 233.300629 94.725359 
L 245.723635 95.848886 
L 258.14664 98.968772 
L 270.569646 104.056707 
L 282.992651 110.980559 
L 295.415657 119.506567 
L 307.838662 129.307775 
L 320.261668 139.977683 
L 332.684674 151.047849 
L 345.107679 162.00845 
L 357.530685 172.330638 
L 369.95369 181.490119 
L 382.376696 188.990998 
L 394.799701 194.38943 
L 407.222707 197.316115 
L 419.645713 197.496912 
L 432.068718 194.770322 
L 444.491724 189.100795 
L 456.914729 180.586324 
L 469.337735 169.459348 
L 481.76074 156.079866 
L 494.183746 140.920567 
L 506.606752 124.544252 
L 519.029757 107.574828 
L 531.452763 90.663943 
L 543.875768 74.456013 
L 556.298774 59.554541 
L 568.721779 46.492773 
L 581.144785 35.710954 
L 593.56779 27.541572 
L 605.990796 22.202903 
L 618.413802 19.8 
L 630.836807 20.331418 
L 643.259813 23.699463 
L 655.682818 29.72191 
L 668.105824 38.143428 
" clip-path="url(#p2a491d36e6)" style="fill: none; stroke: #d62728; stroke-opacity: 0.5; stroke-width: 1.5; stroke-linecap: square"/>
   </g>
   <g id="line2d_16">
    <path d="M 59.378551 174.632564 
L 71.801557 169.803535 
L 84.224562 164.431589 
L 96.647568 158.611187 
L 109.070573 152.464418 
L 121.493579 146.133153 
L 133.916585 139.770742 
L 146.33959 133.534435 
L 158.762596 127.579134 
L 171.185601 122.05266 
L 183.608607 117.09199 
L 196.031612 112.819612 
L 208.454618 109.339245 
L 220.877623 106.730298 
L 233.300629 105.041362 
L 245.723635 104.283579 
L 258.14664 104.425669 
L 270.569646 105.39224 
L 282.992651 107.067265 
L 295.415657 109.303415 
L 307.838662 111.936817 
L 320.261668 114.805678 
L 332.684674 117.769847 
L 345.107679 120.727874 
L 357.530685 123.62839 
L 369.95369 126.473225 
L 382.376696 129.31148 
L 394.799701 132.225367 
L 407.222707 135.310372 
L 419.645713 138.653711 
L 432.068718 142.315361 
L 444.491724 146.315712 
L 456.914729 150.632554 
L 469.337735 155.208313 
L 481.76074 159.966343 
L 494.183746 164.832986 
L 506.606752 169.761002 
L 519.029757 174.749128 
L 531.452763 179.853383 
L 543.875768 185.186838 
L 556.298774 190.906779 
L 568.721779 197.190722 
L 581.144785 204.204449 
L 593.56779 212.067222 
L 605.990796 220.819608 
L 618.413802 230.399132 
L 630.836807 240.627579 
L 643.259813 251.21195 
L 655.682818 261.758814 
L 668.105824 271.8 
" clip-path="url(#p2a491d36e6)" style="fill: none; stroke: #9467bd; stroke-opacity: 0.5; stroke-width: 1.5; stroke-linecap: square"/>
   </g>
   <g id="patch_3">
    <path d="M 28.942188 284.4 
L 28.942188 7.2 
" style="fill: none; stroke: #000000; stroke-width: 0.8; stroke-linejoin: miter; stroke-linecap: square"/>
   </g>
   <g id="patch_4">
    <path d="M 698.542188 284.4 
L 698.542188 7.2 
" style="fill: none; stroke: #000000; stroke-width: 0.8; stroke-linejoin: miter; stroke-linecap: square"/>
   </g>
   <g id="patch_5">
    <path d="M 28.942188 284.4 
L 698.542188 284.4 
" style="fill: none; stroke: #000000; stroke-width: 0.8; stroke-linejoin: miter; stroke-linecap: square"/>
   </g>
   <g id="patch_6">
    <path d="M 28.942188 7.2 
L 698.542188 7.2 
" style="fill: none; stroke: #000000; stroke-width: 0.8; stroke-linejoin: miter; stroke-linecap: square"/>
   </g>
  </g>
 </g>
 <defs>
  <clipPath id="p2a491d36e6">
   <rect x="28.942188" y="7.2" width="669.6" height="277.2"/>
  </clipPath>
 </defs>
</svg>
