<?xml version="1.0" encoding="utf-8" standalone="no"?>
<!DOCTYPE svg PUBLIC "-//W3C//DTD SVG 1.1//EN"
  "http://www.w3.org/Graphics/SVG/1.1/DTD/svg11.dtd">
<svg xmlns:xlink="http://www.w3.org/1999/xlink" width="705.742188pt" height="308.278125pt" viewBox="0 0 705.742188 308.278125" xmlns="http://www.w3.org/2000/svg" version="1.1">
 <metadata>
  <rdf:RDF xmlns:dc="http://purl.org/dc/elements/1.1/" xmlns:cc="http://creativecommons.org/ns#" xmlns:rdf="http://www.w3.org/1999/02/22-rdf-syntax-ns#">
   <cc:Work>
    <dc:type rdf:resource="http://purl.org/dc/dcmitype/StillImage"/>
    <dc:date>2025-06-02T21:00:52.859142</dc:date>
    <dc:format>image/svg+xml</dc:format>
    <dc:creator>
     <cc:Agent>
      <dc:title>Matplotlib v3.6.1, https://matplotlib.org/</dc:title>
     </cc:Agent>
    </dc:creator>
   </cc:Work>
  </rdf:RDF>
 </metadata>
 <defs>
  <style type="text/css">*{stroke-linejoin: round; stroke-linecap: butt}</style>
 </defs>
 <g id="figure_1">
  <g id="patch_1">
   <path d="M 0 308.278125 
L 705.742188 308.278125 
L 705.742188 0 
L 0 0 
z
" style="fill: #ffffff"/>
  </g>
  <g id="axes_1">
   <g id="patch_2">
    <path d="M 28.942188 284.4 
L 698.542188 284.4 
L 698.542188 7.2 
L 28.942188 7.2 
z
" style="fill: #ffffff"/>
   </g>
   <g id="matplotlib.axis_1">
    <g id="xtick_1">
     <g id="line2d_1">
      <defs>
       <path id="mbe12a4d065" d="M 0 0 
L 0 3.5 
" style="stroke: #000000; stroke-width: 0.8"/>
      </defs>
      <g>
       <use xlink:href="#mbe12a4d065" x="59.378551" y="284.4" style="stroke: #000000; stroke-width: 0.8"/>
      </g>
     </g>
     <g id="text_1">
      <!-- 0 -->
      <g transform="translate(56.197301 298.998438) scale(0.1 -0.1)">
       <defs>
        <path id="DejaVuSans-30" d="M 2034 4250 
Q 1547 4250 1301 3770 
Q 1056 3291 1056 2328 
Q 1056 1369 1301 889 
Q 1547 409 2034 409 
Q 2525 409 2770 889 
Q 3016 1369 3016 2328 
Q 3016 3291 2770 3770 
Q 2525 4250 2034 4250 
z
M 2034 4750 
Q 2819 4750 3233 4129 
Q 3647 3509 3647 2328 
Q 3647 1150 3233 529 
Q 2819 -91 2034 -91 
Q 1250 -91 836 529 
Q 422 1150 422 2328 
Q 422 3509 836 4129 
Q 1250 4750 2034 4750 
z
" transform="scale(0.015625)"/>
       </defs>
       <use xlink:href="#DejaVuSans-30"/>
      </g>
     </g>
    </g>
    <g id="xtick_2">
     <g id="line2d_2">
      <g>
       <use xlink:href="#mbe12a4d065" x="181.124006" y="284.4" style="stroke: #000000; stroke-width: 0.8"/>
      </g>
     </g>
     <g id="text_2">
      <!-- 1 -->
      <g transform="translate(177.942756 298.998438) scale(0.1 -0.1)">
       <defs>
        <path id="DejaVuSans-31" d="M 794 531 
L 1825 531 
L 1825 4091 
L 703 3866 
L 703 4441 
L 1819 4666 
L 2450 4666 
L 2450 531 
L 3481 531 
L 3481 0 
L 794 0 
L 794 531 
z
" transform="scale(0.015625)"/>
       </defs>
       <use xlink:href="#DejaVuSans-31"/>
      </g>
     </g>
    </g>
    <g id="xtick_3">
     <g id="line2d_3">
      <g>
       <use xlink:href="#mbe12a4d065" x="302.86946" y="284.4" style="stroke: #000000; stroke-width: 0.8"/>
      </g>
     </g>
     <g id="text_3">
      <!-- 2 -->
      <g transform="translate(299.68821 298.998438) scale(0.1 -0.1)">
       <defs>
        <path id="DejaVuSans-32" d="M 1228 531 
L 3431 531 
L 3431 0 
L 469 0 
L 469 531 
Q 828 903 1448 1529 
Q 2069 2156 2228 2338 
Q 2531 2678 2651 2914 
Q 2772 3150 2772 3378 
Q 2772 3750 2511 3984 
Q 2250 4219 1831 4219 
Q 1534 4219 1204 4116 
Q 875 4013 500 3803 
L 500 4441 
Q 881 4594 1212 4672 
Q 1544 4750 1819 4750 
Q 2544 4750 2975 4387 
Q 3406 4025 3406 3419 
Q 3406 3131 3298 2873 
Q 3191 2616 2906 2266 
Q 2828 2175 2409 1742 
Q 1991 1309 1228 531 
z
" transform="scale(0.015625)"/>
       </defs>
       <use xlink:href="#DejaVuSans-32"/>
      </g>
     </g>
    </g>
    <g id="xtick_4">
     <g id="line2d_4">
      <g>
       <use xlink:href="#mbe12a4d065" x="424.614915" y="284.4" style="stroke: #000000; stroke-width: 0.8"/>
      </g>
     </g>
     <g id="text_4">
      <!-- 3 -->
      <g transform="translate(421.433665 298.998438) scale(0.1 -0.1)">
       <defs>
        <path id="DejaVuSans-33" d="M 2597 2516 
Q 3050 2419 3304 2112 
Q 3559 1806 3559 1356 
Q 3559 666 3084 287 
Q 2609 -91 1734 -91 
Q 1441 -91 1130 -33 
Q 819 25 488 141 
L 488 750 
Q 750 597 1062 519 
Q 1375 441 1716 441 
Q 2309 441 2620 675 
Q 2931 909 2931 1356 
Q 2931 1769 2642 2001 
Q 2353 2234 1838 2234 
L 1294 2234 
L 1294 2753 
L 1863 2753 
Q 2328 2753 2575 2939 
Q 2822 3125 2822 3475 
Q 2822 3834 2567 4026 
Q 2313 4219 1838 4219 
Q 1578 4219 1281 4162 
Q 984 4106 628 3988 
L 628 4550 
Q 988 4650 1302 4700 
Q 1616 4750 1894 4750 
Q 2613 4750 3031 4423 
Q 3450 4097 3450 3541 
Q 3450 3153 3228 2886 
Q 3006 2619 2597 2516 
z
" transform="scale(0.015625)"/>
       </defs>
       <use xlink:href="#DejaVuSans-33"/>
      </g>
     </g>
    </g>
    <g id="xtick_5">
     <g id="line2d_5">
      <g>
       <use xlink:href="#mbe12a4d065" x="546.360369" y="284.4" style="stroke: #000000; stroke-width: 0.8"/>
      </g>
     </g>
     <g id="text_5">
      <!-- 4 -->
      <g transform="translate(543.179119 298.998438) scale(0.1 -0.1)">
       <defs>
        <path id="DejaVuSans-34" d="M 2419 4116 
L 825 1625 
L 2419 1625 
L 2419 4116 
z
M 2253 4666 
L 3047 4666 
L 3047 1625 
L 3713 1625 
L 3713 1100 
L 3047 1100 
L 3047 0 
L 2419 0 
L 2419 1100 
L 313 1100 
L 313 1709 
L 2253 4666 
z
" transform="scale(0.015625)"/>
       </defs>
       <use xlink:href="#DejaVuSans-34"/>
      </g>
     </g>
    </g>
    <g id="xtick_6">
     <g id="line2d_6">
      <g>
       <use xlink:href="#mbe12a4d065" x="668.105824" y="284.4" style="stroke: #000000; stroke-width: 0.8"/>
      </g>
     </g>
     <g id="text_6">
      <!-- 5 -->
      <g transform="translate(664.924574 298.998438) scale(0.1 -0.1)">
       <defs>
        <path id="DejaVuSans-35" d="M 691 4666 
L 3169 4666 
L 3169 4134 
L 1269 4134 
L 1269 2991 
Q 1406 3038 1543 3061 
Q 1681 3084 1819 3084 
Q 2600 3084 3056 2656 
Q 3513 2228 3513 1497 
Q 3513 744 3044 326 
Q 2575 -91 1722 -91 
Q 1428 -91 1123 -41 
Q 819 9 494 109 
L 494 744 
Q 775 591 1075 516 
Q 1375 441 1709 441 
Q 2250 441 2565 725 
Q 2881 1009 2881 1497 
Q 2881 1984 2565 2268 
Q 2250 2553 1709 2553 
Q 1456 2553 1204 2497 
Q 953 2441 691 2322 
L 691 4666 
z
" transform="scale(0.015625)"/>
       </defs>
       <use xlink:href="#DejaVuSans-35"/>
      </g>
     </g>
    </g>
   </g>
   <g id="matplotlib.axis_2">
    <g id="ytick_1">
     <g id="line2d_7">
      <defs>
       <path id="mf6a1d5a372" d="M 0 0 
L -3.5 0 
" style="stroke: #000000; stroke-width: 0.8"/>
      </defs>
      <g>
       <use xlink:href="#mf6a1d5a372" x="28.942188" y="262.476126" style="stroke: #000000; stroke-width: 0.8"/>
      </g>
     </g>
     <g id="text_7">
      <!-- −2 -->
      <g transform="translate(7.2 266.275345) scale(0.1 -0.1)">
       <defs>
        <path id="DejaVuSans-2212" d="M 678 2272 
L 4684 2272 
L 4684 1741 
L 678 1741 
L 678 2272 
z
" transform="scale(0.015625)"/>
       </defs>
       <use xlink:href="#DejaVuSans-2212"/>
       <use xlink:href="#DejaVuSans-32" x="83.789062"/>
      </g>
     </g>
    </g>
    <g id="ytick_2">
     <g id="line2d_8">
      <g>
       <use xlink:href="#mf6a1d5a372" x="28.942188" y="216.066246" style="stroke: #000000; stroke-width: 0.8"/>
      </g>
     </g>
     <g id="text_8">
      <!-- −1 -->
      <g transform="translate(7.2 219.865464) scale(0.1 -0.1)">
       <use xlink:href="#DejaVuSans-2212"/>
       <use xlink:href="#DejaVuSans-31" x="83.789062"/>
      </g>
     </g>
    </g>
    <g id="ytick_3">
     <g id="line2d_9">
      <g>
       <use xlink:href="#mf6a1d5a372" x="28.942188" y="169.656365" style="stroke: #000000; stroke-width: 0.8"/>
      </g>
     </g>
     <g id="text_9">
      <!-- 0 -->
      <g transform="translate(15.579688 173.455584) scale(0.1 -0.1)">
       <use xlink:href="#DejaVuSans-30"/>
      </g>
     </g>
    </g>
    <g id="ytick_4">
     <g id="line2d_10">
      <g>
       <use xlink:href="#mf6a1d5a372" x="28.942188" y="123.246484" style="stroke: #000000; stroke-width: 0.8"/>
      </g>
     </g>
     <g id="text_10">
      <!-- 1 -->
      <g transform="translate(15.579688 127.045703) scale(0.1 -0.1)">
       <use xlink:href="#DejaVuSans-31"/>
      </g>
     </g>
    </g>
    <g id="ytick_5">
     <g id="line2d_11">
      <g>
       <use xlink:href="#mf6a1d5a372" x="28.942188" y="76.836604" style="stroke: #000000; stroke-width: 0.8"/>
      </g>
     </g>
     <g id="text_11">
      <!-- 2 -->
      <g transform="translate(15.579688 80.635823) scale(0.1 -0.1)">
       <use xlink:href="#DejaVuSans-32"/>
      </g>
     </g>
    </g>
    <g id="ytick_6">
     <g id="line2d_12">
      <g>
       <use xlink:href="#mf6a1d5a372" x="28.942188" y="30.426723" style="stroke: #000000; stroke-width: 0.8"/>
      </g>
     </g>
     <g id="text_12">
      <!-- 3 -->
      <g transform="translate(15.579688 34.225942) scale(0.1 -0.1)">
       <use xlink:href="#DejaVuSans-33"/>
      </g>
     </g>
    </g>
   </g>
   <g id="line2d_13">
    <path d="M 59.378551 50.844172 
L 71.801557 44.77781 
L 84.224562 39.010254 
L 96.647568 33.665379 
L 109.070573 28.906706 
L 121.493579 24.927759 
L 133.916585 21.940351 
L 146.33959 20.161622 
L 158.762596 19.8 
L 171.185601 21.040302 
L 183.608607 24.027914 
L 196.031612 28.852422 
L 208.454618 35.531688 
L 220.877623 43.99784 
L 233.300629 54.087193 
L 245.723635 65.536494 
L 258.14664 77.987392 
L 270.569646 91.000404 
L 282.992651 104.078404 
L 295.415657 116.698382 
L 307.838662 128.348592 
L 320.261668 138.567436 
L 332.684674 146.97961 
L 345.107679 153.325304 
L 357.530685 157.478951 
L 369.95369 159.455444 
L 382.376696 159.4031 
L 394.799701 157.584801 
L 407.222707 154.349668 
L 419.645713 150.099076 
L 432.068718 145.251058 
L 444.491724 140.206927 
L 456.914729 135.323526 
L 469.337735 130.893099 
L 481.76074 127.131901 
L 494.183746 124.17716 
L 506.606752 122.091136 
L 519.029757 120.870234 
L 531.452763 120.45695 
L 543.875768 120.752354 
L 556.298774 121.627587 
L 568.721779 122.933359 
L 581.144785 124.507403 
L 593.56779 126.180601 
L 605.990796 127.783025 
L 618.413802 129.151183 
L 630.836807 130.137602 
L 643.259813 130.623048 
L 655.682818 130.530823 
L 668.105824 129.841509 
" clip-path="url(#p90fb3c0bf4)" style="fill: none; stroke: #1f77b4; stroke-opacity: 0.5; stroke-width: 1.5; stroke-linecap: square"/>
   </g>
   <g id="line2d_14">
    <path d="M 59.378551 134.516015 
L 71.801557 141.384434 
L 84.224562 147.654851 
L 96.647568 153.180772 
L 109.070573 157.847406 
L 121.493579 161.574061 
L 133.916585 164.317196 
L 146.33959 166.073748 
L 158.762596 166.883948 
L 171.185601 166.832285 
L 183.608607 166.045498 
L 196.031612 164.686621 
L 208.454618 162.94472 
L 220.877623 161.020715 
L 233.300629 159.110651 
L 245.723635 157.388139 
L 258.14664 155.988351 
L 270.569646 154.995734 
L 282.992651 154.437265 
L 295.415657 154.282344 
L 307.838662 154.44942 
L 320.261668 154.818669 
L 332.684674 155.24917 
L 345.107679 155.598389 
L 357.530685 155.741818 
L 369.95369 155.590412 
L 382.376696 155.103862 
L 394.799701 154.298298 
L 407.222707 153.247495 
L 419.645713 152.077325 
L 432.068718 150.953889 
L 444.491724 150.06634 
L 456.914729 149.605996 
L 469.337735 149.743866 
L 481.76074 150.608856 
L 494.183746 152.269182 
L 506.606752 154.71921 
L 519.029757 157.873476 
L 531.452763 161.56893 
L 543.875768 165.57563 
L 556.298774 169.614974 
L 568.721779 173.383921 
L 581.144785 176.582711 
L 593.56779 178.943233 
L 605.990796 180.255141 
L 618.413802 180.386869 
L 630.836807 179.299252 
L 643.259813 177.050186 
L 655.682818 173.789694 
L 668.105824 169.745635 
" clip-path="url(#p90fb3c0bf4)" style="fill: none; stroke: #ff7f0e; stroke-opacity: 0.5; stroke-width: 1.5; stroke-linecap: square"/>
   </g>
   <g id="line2d_15">
    <path d="M 59.378551 234.503341 
L 71.801557 244.665095 
L 84.224562 253.44355 
L 96.647568 260.607099 
L 109.070573 266.017845 
L 121.493579 269.63664 
L 133.916585 271.518658 
L 146.33959 271.8 
L 158.762596 270.677067 
L 171.185601 268.381401 
L 183.608607 265.153361 
L 196.031612 261.218292 
L 208.454618 256.768163 
L 220.877623 251.950958 
L 233.300629 246.868712 
L 245.723635 241.583687 
L 258.14664 236.131017 
L 270.569646 230.535173 
L 282.992651 224.827184 
L 295.415657 219.059655 
L 307.838662 213.3171 
L 320.261668 207.719993 
L 332.684674 202.421902 
L 345.107679 197.600237 
L 357.530685 193.441717 
L 369.95369 190.124614 
L 382.376696 187.799977 
L 394.799701 186.574224 
L 407.222707 186.495215 
L 419.645713 187.543627 
L 432.068718 189.630711 
L 444.491724 192.602878 
L 456.914729 196.252779 
L 469.337735 200.335636 
L 481.76074 204.589088 
L 494.183746 208.754147 
L 506.606752 212.594897 
L 519.029757 215.914486 
L 531.452763 218.565601 
L 543.875768 220.454431 
L 556.298774 221.537937 
L 568.721779 221.815291 
L 581.144785 221.315244 
L 593.56779 220.081535 
L 605.990796 218.158742 
L 618.413802 215.580718 
L 630.836807 212.362987 
L 643.259813 208.49999 
L 655.682818 203.966924 
L 668.105824 198.725368 
" clip-path="url(#p90fb3c0bf4)" style="fill: none; stroke: #2ca02c; stroke-opacity: 0.5; stroke-width: 1.5; stroke-linecap: square"/>
   </g>
   <g id="line2d_16">
    <path d="M 59.378551 181.647306 
L 71.801557 180.395846 
L 84.224562 179.303272 
L 96.647568 178.366265 
L 109.070573 177.543911 
L 121.493579 176.772061 
L 133.916585 175.98016 
L 146.33959 175.107883 
L 158.762596 174.119017 
L 171.185601 173.010505 
L 183.608607 171.815339 
L 196.031612 170.598947 
L 208.454618 169.449704 
L 220.877623 168.465194 
L 233.300629 167.736443 
L 245.723635 167.332834 
L 258.14664 167.290162 
L 270.569646 167.603803 
L 282.992651 168.227979 
L 295.415657 169.081008 
L 307.838662 170.05527 
L 320.261668 171.029943 
L 332.684674 171.884046 
L 345.107679 172.507614 
L 357.530685 172.809441 
L 369.95369 172.720643 
L 382.376696 172.194436 
L 394.799701 171.203191 
L 407.222707 169.734417 
L 419.645713 167.787219 
L 432.068718 165.370502 
L 444.491724 162.503647 
L 456.914729 159.219456 
L 469.337735 155.568825 
L 481.76074 151.626041 
L 494.183746 147.493554 
L 506.606752 143.305128 
L 519.029757 139.226529 
L 531.452763 135.453259 
L 543.875768 132.205073 
L 556.298774 129.717266 
L 568.721779 128.228846 
L 581.144785 127.968134 
L 593.56779 129.136249 
L 605.990796 131.889559 
L 618.413802 136.322457 
L 630.836807 142.452054 
L 643.259813 150.206709 
L 655.682818 159.42037 
L 668.105824 169.834014 
" clip-path="url(#p90fb3c0bf4)" style="fill: none; stroke: #d62728; stroke-opacity: 0.5; stroke-width: 1.5; stroke-linecap: square"/>
   </g>
   <g id="line2d_17">
    <path d="M 59.378551 99.452998 
L 71.801557 98.291708 
L 84.224562 98.603909 
L 96.647568 100.427465 
L 109.070573 103.717716 
L 121.493579 108.349678 
L 133.916585 114.128491 
L 146.33959 120.806059 
L 158.762596 128.101416 
L 171.185601 135.7219 
L 183.608607 143.382488 
L 196.031612 150.821334 
L 208.454618 157.810467 
L 220.877623 164.161535 
L 233.300629 169.72727 
L 245.723635 174.399855 
L 258.14664 178.107373 
L 270.569646 180.809664 
L 282.992651 182.494256 
L 295.415657 183.17297 
L 307.838662 182.879229 
L 320.261668 181.666113 
L 332.684674 179.605006 
L 345.107679 176.784676 
L 357.530685 173.310775 
L 369.95369 169.305498 
L 382.376696 164.907263 
L 394.799701 160.27003 
L 407.222707 155.561749 
L 419.645713 150.961552 
L 432.068718 146.655232 
L 444.491724 142.829012 
L 456.914729 139.661729 
L 469.337735 137.316146 
L 481.76074 135.930147 
L 494.183746 135.608827 
L 506.606752 136.418337 
L 519.029757 138.382144 
L 531.452763 141.479869 
L 543.875768 145.648663 
L 556.298774 150.786682 
L 568.721779 156.758053 
L 581.144785 163.398857 
L 593.56779 170.523675 
L 605.990796 177.93246 
L 618.413802 185.417772 
L 630.836807 192.772303 
L 643.259813 199.79679 
L 655.682818 206.308043 
L 668.105824 212.146742 
" clip-path="url(#p90fb3c0bf4)" style="fill: none; stroke: #9467bd; stroke-opacity: 0.5; stroke-width: 1.5; stroke-linecap: square"/>
   </g>
   <g id="patch_3">
    <path d="M 28.942188 284.4 
L 28.942188 7.2 
" style="fill: none; stroke: #000000; stroke-width: 0.8; stroke-linejoin: miter; stroke-linecap: square"/>
   </g>
   <g id="patch_4">
    <path d="M 698.542188 284.4 
L 698.542188 7.2 
" style="fill: none; stroke: #000000; stroke-width: 0.8; stroke-linejoin: miter; stroke-linecap: square"/>
   </g>
   <g id="patch_5">
    <path d="M 28.942188 284.4 
L 698.542188 284.4 
" style="fill: none; stroke: #000000; stroke-width: 0.8; stroke-linejoin: miter; stroke-linecap: square"/>
   </g>
   <g id="patch_6">
    <path d="M 28.942188 7.2 
L 698.542188 7.2 
" style="fill: none; stroke: #000000; stroke-width: 0.8; stroke-linejoin: miter; stroke-linecap: square"/>
   </g>
  </g>
 </g>
 <defs>
  <clipPath id="p90fb3c0bf4">
   <rect x="28.942188" y="7.2" width="669.6" height="277.2"/>
  </clipPath>
 </defs>
</svg>
