<?xml version="1.0" encoding="utf-8" standalone="no"?>
<!DOCTYPE svg PUBLIC "-//W3C//DTD SVG 1.1//EN"
  "http://www.w3.org/Graphics/SVG/1.1/DTD/svg11.dtd">
<svg xmlns:xlink="http://www.w3.org/1999/xlink" width="745.001562pt" height="331.634375pt" viewBox="0 0 745.001562 331.634375" xmlns="http://www.w3.org/2000/svg" version="1.1">
 <metadata>
  <rdf:RDF xmlns:dc="http://purl.org/dc/elements/1.1/" xmlns:cc="http://creativecommons.org/ns#" xmlns:rdf="http://www.w3.org/1999/02/22-rdf-syntax-ns#">
   <cc:Work>
    <dc:type rdf:resource="http://purl.org/dc/dcmitype/StillImage"/>
    <dc:date>2025-06-14T14:42:16.126690</dc:date>
    <dc:format>image/svg+xml</dc:format>
    <dc:creator>
     <cc:Agent>
      <dc:title>Matplotlib v3.6.1, https://matplotlib.org/</dc:title>
     </cc:Agent>
    </dc:creator>
   </cc:Work>
  </rdf:RDF>
 </metadata>
 <defs>
  <style type="text/css">*{stroke-linejoin: round; stroke-linecap: butt}</style>
 </defs>
 <g id="figure_1">
  <g id="patch_1">
   <path d="M 0 331.634375 
L 745.001562 331.634375 
L 745.001562 0 
L 0 0 
z
" style="fill: #ffffff"/>
  </g>
  <g id="axes_1">
   <g id="patch_2">
    <path d="M 68.201563 284.4 
L 737.801563 284.4 
L 737.801563 7.2 
L 68.201563 7.2 
z
" style="fill: #ffffff"/>
   </g>
   <g id="PolyCollection_1">
    <path d="M 98.637926 19.8 
L 98.637926 271.8 
L 111.060932 266.858985 
L 123.483937 261.926737 
L 135.906943 257.004424 
L 148.329948 252.093424 
L 160.752954 247.195382 
L 173.17596 242.312271 
L 185.598965 237.446478 
L 198.021971 232.600914 
L 210.444976 227.779168 
L 222.867982 222.985702 
L 235.290987 218.226133 
L 247.713993 213.507609 
L 260.136998 208.839346 
L 272.560004 204.233394 
L 284.98301 199.705726 
L 297.406015 195.277839 
L 309.829021 190.979079 
L 322.252026 186.850033 
L 334.675032 182.947337 
L 347.098037 179.350075 
L 359.521043 176.166986 
L 371.944049 173.541009 
L 384.367054 171.642537 
L 396.79006 170.638947 
L 409.213065 170.638947 
L 421.636071 171.642537 
L 434.059076 173.541009 
L 446.482082 176.166986 
L 458.905088 179.350075 
L 471.328093 182.947337 
L 483.751099 186.850033 
L 496.174104 190.979079 
L 508.59711 195.277839 
L 521.020115 199.705726 
L 533.443121 204.233394 
L 545.866127 208.839346 
L 558.289132 213.507609 
L 570.712138 218.226133 
L 583.135143 222.985702 
L 595.558149 227.779168 
L 607.981154 232.600914 
L 620.40416 237.446478 
L 632.827165 242.312271 
L 645.250171 247.195382 
L 657.673177 252.093424 
L 670.096182 257.004424 
L 682.519188 261.926737 
L 694.942193 266.858985 
L 707.365199 271.8 
L 707.365199 19.8 
L 707.365199 19.8 
L 694.942193 24.741015 
L 682.519188 29.673263 
L 670.096182 34.595576 
L 657.673177 39.506576 
L 645.250171 44.404618 
L 632.827165 49.287729 
L 620.40416 54.153522 
L 607.981154 58.999086 
L 595.558149 63.820832 
L 583.135143 68.614298 
L 570.712138 73.373867 
L 558.289132 78.092391 
L 545.866127 82.760654 
L 533.443121 87.366606 
L 521.020115 91.894274 
L 508.59711 96.322161 
L 496.174104 100.620921 
L 483.751099 104.749967 
L 471.328093 108.652663 
L 458.905088 112.249925 
L 446.482082 115.433014 
L 434.059076 118.058991 
L 421.636071 119.957463 
L 409.213065 120.961053 
L 396.79006 120.961053 
L 384.367054 119.957463 
L 371.944049 118.058991 
L 359.521043 115.433014 
L 347.098037 112.249925 
L 334.675032 108.652663 
L 322.252026 104.749967 
L 309.829021 100.620921 
L 297.406015 96.322161 
L 284.98301 91.894274 
L 272.560004 87.366606 
L 260.136998 82.760654 
L 247.713993 78.092391 
L 235.290987 73.373867 
L 222.867982 68.614298 
L 210.444976 63.820832 
L 198.021971 58.999086 
L 185.598965 54.153522 
L 173.17596 49.287729 
L 160.752954 44.404618 
L 148.329948 39.506576 
L 135.906943 34.595576 
L 123.483937 29.673263 
L 111.060932 24.741015 
L 98.637926 19.8 
z
" clip-path="url(#pa5adf3a167)" style="fill: #1f77b4; fill-opacity: 0.25"/>
   </g>
   <g id="matplotlib.axis_1">
    <g id="xtick_1">
     <g id="line2d_1">
      <defs>
       <path id="m5dbb5d81ee" d="M 0 0 
L 0 3.5 
" style="stroke: #000000; stroke-width: 0.8"/>
      </defs>
      <g>
       <use xlink:href="#m5dbb5d81ee" x="159.510653" y="284.4" style="stroke: #000000; stroke-width: 0.8"/>
      </g>
     </g>
     <g id="text_1">
      <!-- −4 -->
      <g transform="translate(152.13956 298.998437) scale(0.1 -0.1)">
       <defs>
        <path id="DejaVuSans-2212" d="M 678 2272 
L 4684 2272 
L 4684 1741 
L 678 1741 
L 678 2272 
z
" transform="scale(0.015625)"/>
        <path id="DejaVuSans-34" d="M 2419 4116 
L 825 1625 
L 2419 1625 
L 2419 4116 
z
M 2253 4666 
L 3047 4666 
L 3047 1625 
L 3713 1625 
L 3713 1100 
L 3047 1100 
L 3047 0 
L 2419 0 
L 2419 1100 
L 313 1100 
L 313 1709 
L 2253 4666 
z
" transform="scale(0.015625)"/>
       </defs>
       <use xlink:href="#DejaVuSans-2212"/>
       <use xlink:href="#DejaVuSans-34" x="83.789062"/>
      </g>
     </g>
    </g>
    <g id="xtick_2">
     <g id="line2d_2">
      <g>
       <use xlink:href="#m5dbb5d81ee" x="281.256108" y="284.4" style="stroke: #000000; stroke-width: 0.8"/>
      </g>
     </g>
     <g id="text_2">
      <!-- −2 -->
      <g transform="translate(273.885014 298.998437) scale(0.1 -0.1)">
       <defs>
        <path id="DejaVuSans-32" d="M 1228 531 
L 3431 531 
L 3431 0 
L 469 0 
L 469 531 
Q 828 903 1448 1529 
Q 2069 2156 2228 2338 
Q 2531 2678 2651 2914 
Q 2772 3150 2772 3378 
Q 2772 3750 2511 3984 
Q 2250 4219 1831 4219 
Q 1534 4219 1204 4116 
Q 875 4013 500 3803 
L 500 4441 
Q 881 4594 1212 4672 
Q 1544 4750 1819 4750 
Q 2544 4750 2975 4387 
Q 3406 4025 3406 3419 
Q 3406 3131 3298 2873 
Q 3191 2616 2906 2266 
Q 2828 2175 2409 1742 
Q 1991 1309 1228 531 
z
" transform="scale(0.015625)"/>
       </defs>
       <use xlink:href="#DejaVuSans-2212"/>
       <use xlink:href="#DejaVuSans-32" x="83.789062"/>
      </g>
     </g>
    </g>
    <g id="xtick_3">
     <g id="line2d_3">
      <g>
       <use xlink:href="#m5dbb5d81ee" x="403.001563" y="284.4" style="stroke: #000000; stroke-width: 0.8"/>
      </g>
     </g>
     <g id="text_3">
      <!-- 0 -->
      <g transform="translate(399.820313 298.998437) scale(0.1 -0.1)">
       <defs>
        <path id="DejaVuSans-30" d="M 2034 4250 
Q 1547 4250 1301 3770 
Q 1056 3291 1056 2328 
Q 1056 1369 1301 889 
Q 1547 409 2034 409 
Q 2525 409 2770 889 
Q 3016 1369 3016 2328 
Q 3016 3291 2770 3770 
Q 2525 4250 2034 4250 
z
M 2034 4750 
Q 2819 4750 3233 4129 
Q 3647 3509 3647 2328 
Q 3647 1150 3233 529 
Q 2819 -91 2034 -91 
Q 1250 -91 836 529 
Q 422 1150 422 2328 
Q 422 3509 836 4129 
Q 1250 4750 2034 4750 
z
" transform="scale(0.015625)"/>
       </defs>
       <use xlink:href="#DejaVuSans-30"/>
      </g>
     </g>
    </g>
    <g id="xtick_4">
     <g id="line2d_4">
      <g>
       <use xlink:href="#m5dbb5d81ee" x="524.747017" y="284.4" style="stroke: #000000; stroke-width: 0.8"/>
      </g>
     </g>
     <g id="text_4">
      <!-- 2 -->
      <g transform="translate(521.565767 298.998437) scale(0.1 -0.1)">
       <use xlink:href="#DejaVuSans-32"/>
      </g>
     </g>
    </g>
    <g id="xtick_5">
     <g id="line2d_5">
      <g>
       <use xlink:href="#m5dbb5d81ee" x="646.492472" y="284.4" style="stroke: #000000; stroke-width: 0.8"/>
      </g>
     </g>
     <g id="text_5">
      <!-- 4 -->
      <g transform="translate(643.311222 298.998437) scale(0.1 -0.1)">
       <use xlink:href="#DejaVuSans-34"/>
      </g>
     </g>
    </g>
    <g id="text_6">
     <!-- x -->
     <g transform="translate(397.082813 320.275) scale(0.2 -0.2)">
      <defs>
       <path id="DejaVuSans-78" d="M 3513 3500 
L 2247 1797 
L 3578 0 
L 2900 0 
L 1881 1375 
L 863 0 
L 184 0 
L 1544 1831 
L 300 3500 
L 978 3500 
L 1906 2253 
L 2834 3500 
L 3513 3500 
z
" transform="scale(0.015625)"/>
      </defs>
      <use xlink:href="#DejaVuSans-78"/>
     </g>
    </g>
   </g>
   <g id="matplotlib.axis_2">
    <g id="ytick_1">
     <g id="line2d_6">
      <defs>
       <path id="ma734b568a5" d="M 0 0 
L -3.5 0 
" style="stroke: #000000; stroke-width: 0.8"/>
      </defs>
      <g>
       <use xlink:href="#ma734b568a5" x="68.201563" y="269.353165" style="stroke: #000000; stroke-width: 0.8"/>
      </g>
     </g>
     <g id="text_7">
      <!-- −10.0 -->
      <g transform="translate(30.55625 273.152384) scale(0.1 -0.1)">
       <defs>
        <path id="DejaVuSans-31" d="M 794 531 
L 1825 531 
L 1825 4091 
L 703 3866 
L 703 4441 
L 1819 4666 
L 2450 4666 
L 2450 531 
L 3481 531 
L 3481 0 
L 794 0 
L 794 531 
z
" transform="scale(0.015625)"/>
        <path id="DejaVuSans-2e" d="M 684 794 
L 1344 794 
L 1344 0 
L 684 0 
L 684 794 
z
" transform="scale(0.015625)"/>
       </defs>
       <use xlink:href="#DejaVuSans-2212"/>
       <use xlink:href="#DejaVuSans-31" x="83.789062"/>
       <use xlink:href="#DejaVuSans-30" x="147.412109"/>
       <use xlink:href="#DejaVuSans-2e" x="211.035156"/>
       <use xlink:href="#DejaVuSans-30" x="242.822266"/>
      </g>
     </g>
    </g>
    <g id="ytick_2">
     <g id="line2d_7">
      <g>
       <use xlink:href="#ma734b568a5" x="68.201563" y="238.464874" style="stroke: #000000; stroke-width: 0.8"/>
      </g>
     </g>
     <g id="text_8">
      <!-- −7.5 -->
      <g transform="translate(36.91875 242.264093) scale(0.1 -0.1)">
       <defs>
        <path id="DejaVuSans-37" d="M 525 4666 
L 3525 4666 
L 3525 4397 
L 1831 0 
L 1172 0 
L 2766 4134 
L 525 4134 
L 525 4666 
z
" transform="scale(0.015625)"/>
        <path id="DejaVuSans-35" d="M 691 4666 
L 3169 4666 
L 3169 4134 
L 1269 4134 
L 1269 2991 
Q 1406 3038 1543 3061 
Q 1681 3084 1819 3084 
Q 2600 3084 3056 2656 
Q 3513 2228 3513 1497 
Q 3513 744 3044 326 
Q 2575 -91 1722 -91 
Q 1428 -91 1123 -41 
Q 819 9 494 109 
L 494 744 
Q 775 591 1075 516 
Q 1375 441 1709 441 
Q 2250 441 2565 725 
Q 2881 1009 2881 1497 
Q 2881 1984 2565 2268 
Q 2250 2553 1709 2553 
Q 1456 2553 1204 2497 
Q 953 2441 691 2322 
L 691 4666 
z
" transform="scale(0.015625)"/>
       </defs>
       <use xlink:href="#DejaVuSans-2212"/>
       <use xlink:href="#DejaVuSans-37" x="83.789062"/>
       <use xlink:href="#DejaVuSans-2e" x="147.412109"/>
       <use xlink:href="#DejaVuSans-35" x="179.199219"/>
      </g>
     </g>
    </g>
    <g id="ytick_3">
     <g id="line2d_8">
      <g>
       <use xlink:href="#ma734b568a5" x="68.201563" y="207.576583" style="stroke: #000000; stroke-width: 0.8"/>
      </g>
     </g>
     <g id="text_9">
      <!-- −5.0 -->
      <g transform="translate(36.91875 211.375801) scale(0.1 -0.1)">
       <use xlink:href="#DejaVuSans-2212"/>
       <use xlink:href="#DejaVuSans-35" x="83.789062"/>
       <use xlink:href="#DejaVuSans-2e" x="147.412109"/>
       <use xlink:href="#DejaVuSans-30" x="179.199219"/>
      </g>
     </g>
    </g>
    <g id="ytick_4">
     <g id="line2d_9">
      <g>
       <use xlink:href="#ma734b568a5" x="68.201563" y="176.688291" style="stroke: #000000; stroke-width: 0.8"/>
      </g>
     </g>
     <g id="text_10">
      <!-- −2.5 -->
      <g transform="translate(36.91875 180.48751) scale(0.1 -0.1)">
       <use xlink:href="#DejaVuSans-2212"/>
       <use xlink:href="#DejaVuSans-32" x="83.789062"/>
       <use xlink:href="#DejaVuSans-2e" x="147.412109"/>
       <use xlink:href="#DejaVuSans-35" x="179.199219"/>
      </g>
     </g>
    </g>
    <g id="ytick_5">
     <g id="line2d_10">
      <g>
       <use xlink:href="#ma734b568a5" x="68.201563" y="145.8" style="stroke: #000000; stroke-width: 0.8"/>
      </g>
     </g>
     <g id="text_11">
      <!-- 0.0 -->
      <g transform="translate(45.298438 149.599219) scale(0.1 -0.1)">
       <use xlink:href="#DejaVuSans-30"/>
       <use xlink:href="#DejaVuSans-2e" x="63.623047"/>
       <use xlink:href="#DejaVuSans-30" x="95.410156"/>
      </g>
     </g>
    </g>
    <g id="ytick_6">
     <g id="line2d_11">
      <g>
       <use xlink:href="#ma734b568a5" x="68.201563" y="114.911709" style="stroke: #000000; stroke-width: 0.8"/>
      </g>
     </g>
     <g id="text_12">
      <!-- 2.5 -->
      <g transform="translate(45.298438 118.710927) scale(0.1 -0.1)">
       <use xlink:href="#DejaVuSans-32"/>
       <use xlink:href="#DejaVuSans-2e" x="63.623047"/>
       <use xlink:href="#DejaVuSans-35" x="95.410156"/>
      </g>
     </g>
    </g>
    <g id="ytick_7">
     <g id="line2d_12">
      <g>
       <use xlink:href="#ma734b568a5" x="68.201563" y="84.023417" style="stroke: #000000; stroke-width: 0.8"/>
      </g>
     </g>
     <g id="text_13">
      <!-- 5.0 -->
      <g transform="translate(45.298438 87.822636) scale(0.1 -0.1)">
       <use xlink:href="#DejaVuSans-35"/>
       <use xlink:href="#DejaVuSans-2e" x="63.623047"/>
       <use xlink:href="#DejaVuSans-30" x="95.410156"/>
      </g>
     </g>
    </g>
    <g id="ytick_8">
     <g id="line2d_13">
      <g>
       <use xlink:href="#ma734b568a5" x="68.201563" y="53.135126" style="stroke: #000000; stroke-width: 0.8"/>
      </g>
     </g>
     <g id="text_14">
      <!-- 7.5 -->
      <g transform="translate(45.298438 56.934345) scale(0.1 -0.1)">
       <use xlink:href="#DejaVuSans-37"/>
       <use xlink:href="#DejaVuSans-2e" x="63.623047"/>
       <use xlink:href="#DejaVuSans-35" x="95.410156"/>
      </g>
     </g>
    </g>
    <g id="ytick_9">
     <g id="line2d_14">
      <g>
       <use xlink:href="#ma734b568a5" x="68.201563" y="22.246835" style="stroke: #000000; stroke-width: 0.8"/>
      </g>
     </g>
     <g id="text_15">
      <!-- 10.0 -->
      <g transform="translate(38.935938 26.046054) scale(0.1 -0.1)">
       <use xlink:href="#DejaVuSans-31"/>
       <use xlink:href="#DejaVuSans-30" x="63.623047"/>
       <use xlink:href="#DejaVuSans-2e" x="127.246094"/>
       <use xlink:href="#DejaVuSans-30" x="159.033203"/>
      </g>
     </g>
    </g>
    <g id="text_16">
     <!-- f(x) -->
     <g transform="translate(22.396875 163.042187) rotate(-90) scale(0.2 -0.2)">
      <defs>
       <path id="DejaVuSans-66" d="M 2375 4863 
L 2375 4384 
L 1825 4384 
Q 1516 4384 1395 4259 
Q 1275 4134 1275 3809 
L 1275 3500 
L 2222 3500 
L 2222 3053 
L 1275 3053 
L 1275 0 
L 697 0 
L 697 3053 
L 147 3053 
L 147 3500 
L 697 3500 
L 697 3744 
Q 697 4328 969 4595 
Q 1241 4863 1831 4863 
L 2375 4863 
z
" transform="scale(0.015625)"/>
       <path id="DejaVuSans-28" d="M 1984 4856 
Q 1566 4138 1362 3434 
Q 1159 2731 1159 2009 
Q 1159 1288 1364 580 
Q 1569 -128 1984 -844 
L 1484 -844 
Q 1016 -109 783 600 
Q 550 1309 550 2009 
Q 550 2706 781 3412 
Q 1013 4119 1484 4856 
L 1984 4856 
z
" transform="scale(0.015625)"/>
       <path id="DejaVuSans-29" d="M 513 4856 
L 1013 4856 
Q 1481 4119 1714 3412 
Q 1947 2706 1947 2009 
Q 1947 1309 1714 600 
Q 1481 -109 1013 -844 
L 513 -844 
Q 928 -128 1133 580 
Q 1338 1288 1338 2009 
Q 1338 2731 1133 3434 
Q 928 4138 513 4856 
z
" transform="scale(0.015625)"/>
      </defs>
      <use xlink:href="#DejaVuSans-66"/>
      <use xlink:href="#DejaVuSans-28" x="35.205078"/>
      <use xlink:href="#DejaVuSans-78" x="74.21875"/>
      <use xlink:href="#DejaVuSans-29" x="133.398438"/>
     </g>
    </g>
   </g>
   <g id="line2d_15">
    <path d="M 98.637926 145.8 
L 111.060932 145.8 
L 123.483937 145.8 
L 135.906943 145.8 
L 148.329948 145.8 
L 160.752954 145.8 
L 173.17596 145.8 
L 185.598965 145.8 
L 198.021971 145.8 
L 210.444976 145.8 
L 222.867982 145.8 
L 235.290987 145.8 
L 247.713993 145.8 
L 260.136998 145.8 
L 272.560004 145.8 
L 284.98301 145.8 
L 297.406015 145.8 
L 309.829021 145.8 
L 322.252026 145.8 
L 334.675032 145.8 
L 347.098037 145.8 
L 359.521043 145.8 
L 371.944049 145.8 
L 384.367054 145.8 
L 396.79006 145.8 
L 409.213065 145.8 
L 421.636071 145.8 
L 434.059076 145.8 
L 446.482082 145.8 
L 458.905088 145.8 
L 471.328093 145.8 
L 483.751099 145.8 
L 496.174104 145.8 
L 508.59711 145.8 
L 521.020115 145.8 
L 533.443121 145.8 
L 545.866127 145.8 
L 558.289132 145.8 
L 570.712138 145.8 
L 583.135143 145.8 
L 595.558149 145.8 
L 607.981154 145.8 
L 620.40416 145.8 
L 632.827165 145.8 
L 645.250171 145.8 
L 657.673177 145.8 
L 670.096182 145.8 
L 682.519188 145.8 
L 694.942193 145.8 
L 707.365199 145.8 
" clip-path="url(#pa5adf3a167)" style="fill: none; stroke: #000000; stroke-width: 4; stroke-linecap: square"/>
   </g>
   <g id="line2d_16">
    <path d="M 98.637926 142.108278 
L 111.060932 142.914826 
L 123.483937 143.721373 
L 135.906943 144.52792 
L 148.329948 145.334467 
L 160.752954 146.141015 
L 173.17596 146.947562 
L 185.598965 147.754109 
L 198.021971 148.560656 
L 210.444976 149.367204 
L 222.867982 150.173751 
L 235.290987 150.980298 
L 247.713993 151.786845 
L 260.136998 152.593393 
L 272.560004 153.39994 
L 284.98301 154.206487 
L 297.406015 155.013034 
L 309.829021 155.819582 
L 322.252026 156.626129 
L 334.675032 157.432676 
L 347.098037 158.239223 
L 359.521043 159.045771 
L 371.944049 159.852318 
L 384.367054 160.658865 
L 396.79006 161.465412 
L 409.213065 162.27196 
L 421.636071 163.078507 
L 434.059076 163.885054 
L 446.482082 164.691601 
L 458.905088 165.498149 
L 471.328093 166.304696 
L 483.751099 167.111243 
L 496.174104 167.91779 
L 508.59711 168.724338 
L 521.020115 169.530885 
L 533.443121 170.337432 
L 545.866127 171.143979 
L 558.289132 171.950527 
L 570.712138 172.757074 
L 583.135143 173.563621 
L 595.558149 174.370168 
L 607.981154 175.176716 
L 620.40416 175.983263 
L 632.827165 176.78981 
L 645.250171 177.596357 
L 657.673177 178.402905 
L 670.096182 179.209452 
L 682.519188 180.015999 
L 694.942193 180.822546 
L 707.365199 181.629094 
" clip-path="url(#pa5adf3a167)" style="fill: none; stroke: #1f77b4; stroke-width: 1.5; stroke-linecap: square"/>
   </g>
   <g id="line2d_17">
    <path d="M 98.637926 134.223421 
L 111.060932 135.204461 
L 123.483937 136.185501 
L 135.906943 137.166541 
L 148.329948 138.147581 
L 160.752954 139.128621 
L 173.17596 140.109661 
L 185.598965 141.090701 
L 198.021971 142.071741 
L 210.444976 143.052781 
L 222.867982 144.033821 
L 235.290987 145.014861 
L 247.713993 145.995901 
L 260.136998 146.976941 
L 272.560004 147.957981 
L 284.98301 148.93902 
L 297.406015 149.92006 
L 309.829021 150.9011 
L 322.252026 151.88214 
L 334.675032 152.86318 
L 347.098037 153.84422 
L 359.521043 154.82526 
L 371.944049 155.8063 
L 384.367054 156.78734 
L 396.79006 157.76838 
L 409.213065 158.74942 
L 421.636071 159.73046 
L 434.059076 160.7115 
L 446.482082 161.69254 
L 458.905088 162.67358 
L 471.328093 163.65462 
L 483.751099 164.63566 
L 496.174104 165.6167 
L 508.59711 166.59774 
L 521.020115 167.57878 
L 533.443121 168.55982 
L 545.866127 169.54086 
L 558.289132 170.5219 
L 570.712138 171.50294 
L 583.135143 172.48398 
L 595.558149 173.46502 
L 607.981154 174.44606 
L 620.40416 175.4271 
L 632.827165 176.40814 
L 645.250171 177.38918 
L 657.673177 178.37022 
L 670.096182 179.35126 
L 682.519188 180.3323 
L 694.942193 181.31334 
L 707.365199 182.29438 
" clip-path="url(#pa5adf3a167)" style="fill: none; stroke: #ff7f0e; stroke-width: 1.5; stroke-linecap: square"/>
   </g>
   <g id="line2d_18">
    <path d="M 98.637926 154.129075 
L 111.060932 154.263273 
L 123.483937 154.397471 
L 135.906943 154.531668 
L 148.329948 154.665866 
L 160.752954 154.800064 
L 173.17596 154.934261 
L 185.598965 155.068459 
L 198.021971 155.202657 
L 210.444976 155.336854 
L 222.867982 155.471052 
L 235.290987 155.60525 
L 247.713993 155.739447 
L 260.136998 155.873645 
L 272.560004 156.007843 
L 284.98301 156.142041 
L 297.406015 156.276238 
L 309.829021 156.410436 
L 322.252026 156.544634 
L 334.675032 156.678831 
L 347.098037 156.813029 
L 359.521043 156.947227 
L 371.944049 157.081424 
L 384.367054 157.215622 
L 396.79006 157.34982 
L 409.213065 157.484017 
L 421.636071 157.618215 
L 434.059076 157.752413 
L 446.482082 157.88661 
L 458.905088 158.020808 
L 471.328093 158.155006 
L 483.751099 158.289204 
L 496.174104 158.423401 
L 508.59711 158.557599 
L 521.020115 158.691797 
L 533.443121 158.825994 
L 545.866127 158.960192 
L 558.289132 159.09439 
L 570.712138 159.228587 
L 583.135143 159.362785 
L 595.558149 159.496983 
L 607.981154 159.63118 
L 620.40416 159.765378 
L 632.827165 159.899576 
L 645.250171 160.033773 
L 657.673177 160.167971 
L 670.096182 160.302169 
L 682.519188 160.436367 
L 694.942193 160.570564 
L 707.365199 160.704762 
" clip-path="url(#pa5adf3a167)" style="fill: none; stroke: #2ca02c; stroke-width: 1.5; stroke-linecap: square"/>
   </g>
   <g id="line2d_19">
    <path d="M 98.637926 240.984147 
L 111.060932 237.229651 
L 123.483937 233.475155 
L 135.906943 229.72066 
L 148.329948 225.966164 
L 160.752954 222.211668 
L 173.17596 218.457172 
L 185.598965 214.702677 
L 198.021971 210.948181 
L 210.444976 207.193685 
L 222.867982 203.439189 
L 235.290987 199.684694 
L 247.713993 195.930198 
L 260.136998 192.175702 
L 272.560004 188.421206 
L 284.98301 184.666711 
L 297.406015 180.912215 
L 309.829021 177.157719 
L 322.252026 173.403223 
L 334.675032 169.648728 
L 347.098037 165.894232 
L 359.521043 162.139736 
L 371.944049 158.38524 
L 384.367054 154.630745 
L 396.79006 150.876249 
L 409.213065 147.121753 
L 421.636071 143.367257 
L 434.059076 139.612762 
L 446.482082 135.858266 
L 458.905088 132.10377 
L 471.328093 128.349274 
L 483.751099 124.594779 
L 496.174104 120.840283 
L 508.59711 117.085787 
L 521.020115 113.331291 
L 533.443121 109.576795 
L 545.866127 105.8223 
L 558.289132 102.067804 
L 570.712138 98.313308 
L 583.135143 94.558812 
L 595.558149 90.804317 
L 607.981154 87.049821 
L 620.40416 83.295325 
L 632.827165 79.540829 
L 645.250171 75.786334 
L 657.673177 72.031838 
L 670.096182 68.277342 
L 682.519188 64.522846 
L 694.942193 60.768351 
L 707.365199 57.013855 
" clip-path="url(#pa5adf3a167)" style="fill: none; stroke: #d62728; stroke-width: 1.5; stroke-linecap: square"/>
   </g>
   <g id="line2d_20">
    <path d="M 98.637926 235.655998 
L 111.060932 232.291559 
L 123.483937 228.927121 
L 135.906943 225.562682 
L 148.329948 222.198243 
L 160.752954 218.833804 
L 173.17596 215.469366 
L 185.598965 212.104927 
L 198.021971 208.740488 
L 210.444976 205.376049 
L 222.867982 202.01161 
L 235.290987 198.647172 
L 247.713993 195.282733 
L 260.136998 191.918294 
L 272.560004 188.553855 
L 284.98301 185.189417 
L 297.406015 181.824978 
L 309.829021 178.460539 
L 322.252026 175.0961 
L 334.675032 171.731662 
L 347.098037 168.367223 
L 359.521043 165.002784 
L 371.944049 161.638345 
L 384.367054 158.273907 
L 396.79006 154.909468 
L 409.213065 151.545029 
L 421.636071 148.18059 
L 434.059076 144.816152 
L 446.482082 141.451713 
L 458.905088 138.087274 
L 471.328093 134.722835 
L 483.751099 131.358397 
L 496.174104 127.993958 
L 508.59711 124.629519 
L 521.020115 121.26508 
L 533.443121 117.900642 
L 545.866127 114.536203 
L 558.289132 111.171764 
L 570.712138 107.807325 
L 583.135143 104.442886 
L 595.558149 101.078448 
L 607.981154 97.714009 
L 620.40416 94.34957 
L 632.827165 90.985131 
L 645.250171 87.620693 
L 657.673177 84.256254 
L 670.096182 80.891815 
L 682.519188 77.527376 
L 694.942193 74.162938 
L 707.365199 70.798499 
" clip-path="url(#pa5adf3a167)" style="fill: none; stroke: #9467bd; stroke-width: 1.5; stroke-linecap: square"/>
   </g>
   <g id="line2d_21">
    <path d="M 98.637926 224.332906 
L 111.060932 220.64455 
L 123.483937 216.956194 
L 135.906943 213.267838 
L 148.329948 209.579482 
L 160.752954 205.891126 
L 173.17596 202.20277 
L 185.598965 198.514414 
L 198.021971 194.826058 
L 210.444976 191.137702 
L 222.867982 187.449346 
L 235.290987 183.76099 
L 247.713993 180.072634 
L 260.136998 176.384278 
L 272.560004 172.695922 
L 284.98301 169.007566 
L 297.406015 165.31921 
L 309.829021 161.630854 
L 322.252026 157.942498 
L 334.675032 154.254142 
L 347.098037 150.565786 
L 359.521043 146.87743 
L 371.944049 143.189074 
L 384.367054 139.500718 
L 396.79006 135.812362 
L 409.213065 132.124006 
L 421.636071 128.43565 
L 434.059076 124.747294 
L 446.482082 121.058938 
L 458.905088 117.370582 
L 471.328093 113.682226 
L 483.751099 109.99387 
L 496.174104 106.305514 
L 508.59711 102.617158 
L 521.020115 98.928802 
L 533.443121 95.240446 
L 545.866127 91.55209 
L 558.289132 87.863734 
L 570.712138 84.175378 
L 583.135143 80.487022 
L 595.558149 76.798666 
L 607.981154 73.11031 
L 620.40416 69.421954 
L 632.827165 65.733598 
L 645.250171 62.045242 
L 657.673177 58.356886 
L 670.096182 54.66853 
L 682.519188 50.980174 
L 694.942193 47.291818 
L 707.365199 43.603462 
" clip-path="url(#pa5adf3a167)" style="fill: none; stroke: #8c564b; stroke-width: 1.5; stroke-linecap: square"/>
   </g>
   <g id="line2d_22">
    <path d="M 98.637926 100.315507 
L 111.060932 101.667777 
L 123.483937 103.020047 
L 135.906943 104.372317 
L 148.329948 105.724587 
L 160.752954 107.076857 
L 173.17596 108.429127 
L 185.598965 109.781397 
L 198.021971 111.133667 
L 210.444976 112.485937 
L 222.867982 113.838207 
L 235.290987 115.190477 
L 247.713993 116.542747 
L 260.136998 117.895017 
L 272.560004 119.247287 
L 284.98301 120.599557 
L 297.406015 121.951827 
L 309.829021 123.304097 
L 322.252026 124.656367 
L 334.675032 126.008637 
L 347.098037 127.360907 
L 359.521043 128.713177 
L 371.944049 130.065447 
L 384.367054 131.417717 
L 396.79006 132.769987 
L 409.213065 134.122257 
L 421.636071 135.474527 
L 434.059076 136.826797 
L 446.482082 138.179067 
L 458.905088 139.531337 
L 471.328093 140.883607 
L 483.751099 142.235877 
L 496.174104 143.588147 
L 508.59711 144.940417 
L 521.020115 146.292687 
L 533.443121 147.644957 
L 545.866127 148.997227 
L 558.289132 150.349497 
L 570.712138 151.701767 
L 583.135143 153.054037 
L 595.558149 154.406307 
L 607.981154 155.758577 
L 620.40416 157.110847 
L 632.827165 158.463117 
L 645.250171 159.815386 
L 657.673177 161.167656 
L 670.096182 162.519926 
L 682.519188 163.872196 
L 694.942193 165.224466 
L 707.365199 166.576736 
" clip-path="url(#pa5adf3a167)" style="fill: none; stroke: #e377c2; stroke-width: 1.5; stroke-linecap: square"/>
   </g>
   <g id="line2d_23">
    <path d="M 98.637926 104.041176 
L 111.060932 106.211728 
L 123.483937 108.38228 
L 135.906943 110.552832 
L 148.329948 112.723383 
L 160.752954 114.893935 
L 173.17596 117.064487 
L 185.598965 119.235039 
L 198.021971 121.405591 
L 210.444976 123.576143 
L 222.867982 125.746695 
L 235.290987 127.917247 
L 247.713993 130.087799 
L 260.136998 132.258351 
L 272.560004 134.428903 
L 284.98301 136.599454 
L 297.406015 138.770006 
L 309.829021 140.940558 
L 322.252026 143.11111 
L 334.675032 145.281662 
L 347.098037 147.452214 
L 359.521043 149.622766 
L 371.944049 151.793318 
L 384.367054 153.96387 
L 396.79006 156.134422 
L 409.213065 158.304974 
L 421.636071 160.475525 
L 434.059076 162.646077 
L 446.482082 164.816629 
L 458.905088 166.987181 
L 471.328093 169.157733 
L 483.751099 171.328285 
L 496.174104 173.498837 
L 508.59711 175.669389 
L 521.020115 177.839941 
L 533.443121 180.010493 
L 545.866127 182.181045 
L 558.289132 184.351596 
L 570.712138 186.522148 
L 583.135143 188.6927 
L 595.558149 190.863252 
L 607.981154 193.033804 
L 620.40416 195.204356 
L 632.827165 197.374908 
L 645.250171 199.54546 
L 657.673177 201.716012 
L 670.096182 203.886564 
L 682.519188 206.057116 
L 694.942193 208.227667 
L 707.365199 210.398219 
" clip-path="url(#pa5adf3a167)" style="fill: none; stroke: #7f7f7f; stroke-width: 1.5; stroke-linecap: square"/>
   </g>
   <g id="line2d_24">
    <path d="M 98.637926 111.398977 
L 111.060932 112.589019 
L 123.483937 113.779061 
L 135.906943 114.969103 
L 148.329948 116.159145 
L 160.752954 117.349187 
L 173.17596 118.539229 
L 185.598965 119.729271 
L 198.021971 120.919313 
L 210.444976 122.109356 
L 222.867982 123.299398 
L 235.290987 124.48944 
L 247.713993 125.679482 
L 260.136998 126.869524 
L 272.560004 128.059566 
L 284.98301 129.249608 
L 297.406015 130.43965 
L 309.829021 131.629692 
L 322.252026 132.819735 
L 334.675032 134.009777 
L 347.098037 135.199819 
L 359.521043 136.389861 
L 371.944049 137.579903 
L 384.367054 138.769945 
L 396.79006 139.959987 
L 409.213065 141.150029 
L 421.636071 142.340071 
L 434.059076 143.530113 
L 446.482082 144.720156 
L 458.905088 145.910198 
L 471.328093 147.10024 
L 483.751099 148.290282 
L 496.174104 149.480324 
L 508.59711 150.670366 
L 521.020115 151.860408 
L 533.443121 153.05045 
L 545.866127 154.240492 
L 558.289132 155.430534 
L 570.712138 156.620577 
L 583.135143 157.810619 
L 595.558149 159.000661 
L 607.981154 160.190703 
L 620.40416 161.380745 
L 632.827165 162.570787 
L 645.250171 163.760829 
L 657.673177 164.950871 
L 670.096182 166.140913 
L 682.519188 167.330955 
L 694.942193 168.520998 
L 707.365199 169.71104 
" clip-path="url(#pa5adf3a167)" style="fill: none; stroke: #bcbd22; stroke-width: 1.5; stroke-linecap: square"/>
   </g>
   <g id="line2d_25">
    <path d="M 98.637926 213.4639 
L 111.060932 210.723563 
L 123.483937 207.983227 
L 135.906943 205.24289 
L 148.329948 202.502554 
L 160.752954 199.762217 
L 173.17596 197.02188 
L 185.598965 194.281544 
L 198.021971 191.541207 
L 210.444976 188.80087 
L 222.867982 186.060534 
L 235.290987 183.320197 
L 247.713993 180.579861 
L 260.136998 177.839524 
L 272.560004 175.099187 
L 284.98301 172.358851 
L 297.406015 169.618514 
L 309.829021 166.878177 
L 322.252026 164.137841 
L 334.675032 161.397504 
L 347.098037 158.657168 
L 359.521043 155.916831 
L 371.944049 153.176494 
L 384.367054 150.436158 
L 396.79006 147.695821 
L 409.213065 144.955484 
L 421.636071 142.215148 
L 434.059076 139.474811 
L 446.482082 136.734474 
L 458.905088 133.994138 
L 471.328093 131.253801 
L 483.751099 128.513465 
L 496.174104 125.773128 
L 508.59711 123.032791 
L 521.020115 120.292455 
L 533.443121 117.552118 
L 545.866127 114.811781 
L 558.289132 112.071445 
L 570.712138 109.331108 
L 583.135143 106.590772 
L 595.558149 103.850435 
L 607.981154 101.110098 
L 620.40416 98.369762 
L 632.827165 95.629425 
L 645.250171 92.889088 
L 657.673177 90.148752 
L 670.096182 87.408415 
L 682.519188 84.668079 
L 694.942193 81.927742 
L 707.365199 79.187405 
" clip-path="url(#pa5adf3a167)" style="fill: none; stroke: #17becf; stroke-width: 1.5; stroke-linecap: square"/>
   </g>
   <g id="patch_3">
    <path d="M 68.201563 284.4 
L 68.201563 7.2 
" style="fill: none; stroke: #000000; stroke-width: 0.8; stroke-linejoin: miter; stroke-linecap: square"/>
   </g>
   <g id="patch_4">
    <path d="M 737.801563 284.4 
L 737.801563 7.2 
" style="fill: none; stroke: #000000; stroke-width: 0.8; stroke-linejoin: miter; stroke-linecap: square"/>
   </g>
   <g id="patch_5">
    <path d="M 68.201563 284.4 
L 737.801563 284.4 
" style="fill: none; stroke: #000000; stroke-width: 0.8; stroke-linejoin: miter; stroke-linecap: square"/>
   </g>
   <g id="patch_6">
    <path d="M 68.201563 7.2 
L 737.801563 7.2 
" style="fill: none; stroke: #000000; stroke-width: 0.8; stroke-linejoin: miter; stroke-linecap: square"/>
   </g>
  </g>
 </g>
 <defs>
  <clipPath id="pa5adf3a167">
   <rect x="68.201563" y="7.2" width="669.6" height="277.2"/>
  </clipPath>
 </defs>
</svg>
