<?xml version="1.0" encoding="utf-8" standalone="no"?>
<!DOCTYPE svg PUBLIC "-//W3C//DTD SVG 1.1//EN"
  "http://www.w3.org/Graphics/SVG/1.1/DTD/svg11.dtd">
<svg xmlns:xlink="http://www.w3.org/1999/xlink" width="705.742188pt" height="308.278125pt" viewBox="0 0 705.742188 308.278125" xmlns="http://www.w3.org/2000/svg" version="1.1">
 <metadata>
  <rdf:RDF xmlns:dc="http://purl.org/dc/elements/1.1/" xmlns:cc="http://creativecommons.org/ns#" xmlns:rdf="http://www.w3.org/1999/02/22-rdf-syntax-ns#">
   <cc:Work>
    <dc:type rdf:resource="http://purl.org/dc/dcmitype/StillImage"/>
    <dc:date>2025-06-14T14:42:16.256816</dc:date>
    <dc:format>image/svg+xml</dc:format>
    <dc:creator>
     <cc:Agent>
      <dc:title>Matplotlib v3.6.1, https://matplotlib.org/</dc:title>
     </cc:Agent>
    </dc:creator>
   </cc:Work>
  </rdf:RDF>
 </metadata>
 <defs>
  <style type="text/css">*{stroke-linejoin: round; stroke-linecap: butt}</style>
 </defs>
 <g id="figure_1">
  <g id="patch_1">
   <path d="M 0 308.278125 
L 705.742188 308.278125 
L 705.742188 0 
L 0 0 
z
" style="fill: #ffffff"/>
  </g>
  <g id="axes_1">
   <g id="patch_2">
    <path d="M 28.942188 284.4 
L 698.542188 284.4 
L 698.542188 7.2 
L 28.942188 7.2 
z
" style="fill: #ffffff"/>
   </g>
   <g id="matplotlib.axis_1">
    <g id="xtick_1">
     <g id="line2d_1">
      <defs>
       <path id="m9ad0b101cb" d="M 0 0 
L 0 3.5 
" style="stroke: #000000; stroke-width: 0.8"/>
      </defs>
      <g>
       <use xlink:href="#m9ad0b101cb" x="59.378551" y="284.4" style="stroke: #000000; stroke-width: 0.8"/>
      </g>
     </g>
     <g id="text_1">
      <!-- 0 -->
      <g transform="translate(56.197301 298.998438) scale(0.1 -0.1)">
       <defs>
        <path id="DejaVuSans-30" d="M 2034 4250 
Q 1547 4250 1301 3770 
Q 1056 3291 1056 2328 
Q 1056 1369 1301 889 
Q 1547 409 2034 409 
Q 2525 409 2770 889 
Q 3016 1369 3016 2328 
Q 3016 3291 2770 3770 
Q 2525 4250 2034 4250 
z
M 2034 4750 
Q 2819 4750 3233 4129 
Q 3647 3509 3647 2328 
Q 3647 1150 3233 529 
Q 2819 -91 2034 -91 
Q 1250 -91 836 529 
Q 422 1150 422 2328 
Q 422 3509 836 4129 
Q 1250 4750 2034 4750 
z
" transform="scale(0.015625)"/>
       </defs>
       <use xlink:href="#DejaVuSans-30"/>
      </g>
     </g>
    </g>
    <g id="xtick_2">
     <g id="line2d_2">
      <g>
       <use xlink:href="#m9ad0b101cb" x="181.124006" y="284.4" style="stroke: #000000; stroke-width: 0.8"/>
      </g>
     </g>
     <g id="text_2">
      <!-- 1 -->
      <g transform="translate(177.942756 298.998438) scale(0.1 -0.1)">
       <defs>
        <path id="DejaVuSans-31" d="M 794 531 
L 1825 531 
L 1825 4091 
L 703 3866 
L 703 4441 
L 1819 4666 
L 2450 4666 
L 2450 531 
L 3481 531 
L 3481 0 
L 794 0 
L 794 531 
z
" transform="scale(0.015625)"/>
       </defs>
       <use xlink:href="#DejaVuSans-31"/>
      </g>
     </g>
    </g>
    <g id="xtick_3">
     <g id="line2d_3">
      <g>
       <use xlink:href="#m9ad0b101cb" x="302.86946" y="284.4" style="stroke: #000000; stroke-width: 0.8"/>
      </g>
     </g>
     <g id="text_3">
      <!-- 2 -->
      <g transform="translate(299.68821 298.998438) scale(0.1 -0.1)">
       <defs>
        <path id="DejaVuSans-32" d="M 1228 531 
L 3431 531 
L 3431 0 
L 469 0 
L 469 531 
Q 828 903 1448 1529 
Q 2069 2156 2228 2338 
Q 2531 2678 2651 2914 
Q 2772 3150 2772 3378 
Q 2772 3750 2511 3984 
Q 2250 4219 1831 4219 
Q 1534 4219 1204 4116 
Q 875 4013 500 3803 
L 500 4441 
Q 881 4594 1212 4672 
Q 1544 4750 1819 4750 
Q 2544 4750 2975 4387 
Q 3406 4025 3406 3419 
Q 3406 3131 3298 2873 
Q 3191 2616 2906 2266 
Q 2828 2175 2409 1742 
Q 1991 1309 1228 531 
z
" transform="scale(0.015625)"/>
       </defs>
       <use xlink:href="#DejaVuSans-32"/>
      </g>
     </g>
    </g>
    <g id="xtick_4">
     <g id="line2d_4">
      <g>
       <use xlink:href="#m9ad0b101cb" x="424.614915" y="284.4" style="stroke: #000000; stroke-width: 0.8"/>
      </g>
     </g>
     <g id="text_4">
      <!-- 3 -->
      <g transform="translate(421.433665 298.998438) scale(0.1 -0.1)">
       <defs>
        <path id="DejaVuSans-33" d="M 2597 2516 
Q 3050 2419 3304 2112 
Q 3559 1806 3559 1356 
Q 3559 666 3084 287 
Q 2609 -91 1734 -91 
Q 1441 -91 1130 -33 
Q 819 25 488 141 
L 488 750 
Q 750 597 1062 519 
Q 1375 441 1716 441 
Q 2309 441 2620 675 
Q 2931 909 2931 1356 
Q 2931 1769 2642 2001 
Q 2353 2234 1838 2234 
L 1294 2234 
L 1294 2753 
L 1863 2753 
Q 2328 2753 2575 2939 
Q 2822 3125 2822 3475 
Q 2822 3834 2567 4026 
Q 2313 4219 1838 4219 
Q 1578 4219 1281 4162 
Q 984 4106 628 3988 
L 628 4550 
Q 988 4650 1302 4700 
Q 1616 4750 1894 4750 
Q 2613 4750 3031 4423 
Q 3450 4097 3450 3541 
Q 3450 3153 3228 2886 
Q 3006 2619 2597 2516 
z
" transform="scale(0.015625)"/>
       </defs>
       <use xlink:href="#DejaVuSans-33"/>
      </g>
     </g>
    </g>
    <g id="xtick_5">
     <g id="line2d_5">
      <g>
       <use xlink:href="#m9ad0b101cb" x="546.360369" y="284.4" style="stroke: #000000; stroke-width: 0.8"/>
      </g>
     </g>
     <g id="text_5">
      <!-- 4 -->
      <g transform="translate(543.179119 298.998438) scale(0.1 -0.1)">
       <defs>
        <path id="DejaVuSans-34" d="M 2419 4116 
L 825 1625 
L 2419 1625 
L 2419 4116 
z
M 2253 4666 
L 3047 4666 
L 3047 1625 
L 3713 1625 
L 3713 1100 
L 3047 1100 
L 3047 0 
L 2419 0 
L 2419 1100 
L 313 1100 
L 313 1709 
L 2253 4666 
z
" transform="scale(0.015625)"/>
       </defs>
       <use xlink:href="#DejaVuSans-34"/>
      </g>
     </g>
    </g>
    <g id="xtick_6">
     <g id="line2d_6">
      <g>
       <use xlink:href="#m9ad0b101cb" x="668.105824" y="284.4" style="stroke: #000000; stroke-width: 0.8"/>
      </g>
     </g>
     <g id="text_6">
      <!-- 5 -->
      <g transform="translate(664.924574 298.998438) scale(0.1 -0.1)">
       <defs>
        <path id="DejaVuSans-35" d="M 691 4666 
L 3169 4666 
L 3169 4134 
L 1269 4134 
L 1269 2991 
Q 1406 3038 1543 3061 
Q 1681 3084 1819 3084 
Q 2600 3084 3056 2656 
Q 3513 2228 3513 1497 
Q 3513 744 3044 326 
Q 2575 -91 1722 -91 
Q 1428 -91 1123 -41 
Q 819 9 494 109 
L 494 744 
Q 775 591 1075 516 
Q 1375 441 1709 441 
Q 2250 441 2565 725 
Q 2881 1009 2881 1497 
Q 2881 1984 2565 2268 
Q 2250 2553 1709 2553 
Q 1456 2553 1204 2497 
Q 953 2441 691 2322 
L 691 4666 
z
" transform="scale(0.015625)"/>
       </defs>
       <use xlink:href="#DejaVuSans-35"/>
      </g>
     </g>
    </g>
   </g>
   <g id="matplotlib.axis_2">
    <g id="ytick_1">
     <g id="line2d_7">
      <defs>
       <path id="m666b83fb4c" d="M 0 0 
L -3.5 0 
" style="stroke: #000000; stroke-width: 0.8"/>
      </defs>
      <g>
       <use xlink:href="#m666b83fb4c" x="28.942188" y="256.343026" style="stroke: #000000; stroke-width: 0.8"/>
      </g>
     </g>
     <g id="text_7">
      <!-- −3 -->
      <g transform="translate(7.2 260.142245) scale(0.1 -0.1)">
       <defs>
        <path id="DejaVuSans-2212" d="M 678 2272 
L 4684 2272 
L 4684 1741 
L 678 1741 
L 678 2272 
z
" transform="scale(0.015625)"/>
       </defs>
       <use xlink:href="#DejaVuSans-2212"/>
       <use xlink:href="#DejaVuSans-33" x="83.789062"/>
      </g>
     </g>
    </g>
    <g id="ytick_2">
     <g id="line2d_8">
      <g>
       <use xlink:href="#m666b83fb4c" x="28.942188" y="200.722071" style="stroke: #000000; stroke-width: 0.8"/>
      </g>
     </g>
     <g id="text_8">
      <!-- −2 -->
      <g transform="translate(7.2 204.521289) scale(0.1 -0.1)">
       <use xlink:href="#DejaVuSans-2212"/>
       <use xlink:href="#DejaVuSans-32" x="83.789062"/>
      </g>
     </g>
    </g>
    <g id="ytick_3">
     <g id="line2d_9">
      <g>
       <use xlink:href="#m666b83fb4c" x="28.942188" y="145.101115" style="stroke: #000000; stroke-width: 0.8"/>
      </g>
     </g>
     <g id="text_9">
      <!-- −1 -->
      <g transform="translate(7.2 148.900334) scale(0.1 -0.1)">
       <use xlink:href="#DejaVuSans-2212"/>
       <use xlink:href="#DejaVuSans-31" x="83.789062"/>
      </g>
     </g>
    </g>
    <g id="ytick_4">
     <g id="line2d_10">
      <g>
       <use xlink:href="#m666b83fb4c" x="28.942188" y="89.48016" style="stroke: #000000; stroke-width: 0.8"/>
      </g>
     </g>
     <g id="text_10">
      <!-- 0 -->
      <g transform="translate(15.579688 93.279379) scale(0.1 -0.1)">
       <use xlink:href="#DejaVuSans-30"/>
      </g>
     </g>
    </g>
    <g id="ytick_5">
     <g id="line2d_11">
      <g>
       <use xlink:href="#m666b83fb4c" x="28.942188" y="33.859205" style="stroke: #000000; stroke-width: 0.8"/>
      </g>
     </g>
     <g id="text_11">
      <!-- 1 -->
      <g transform="translate(15.579688 37.658423) scale(0.1 -0.1)">
       <use xlink:href="#DejaVuSans-31"/>
      </g>
     </g>
    </g>
   </g>
   <g id="line2d_12">
    <path d="M 59.378551 108.5034 
L 71.801557 94.156461 
L 84.224562 81.808077 
L 96.647568 71.928698 
L 109.070573 64.836249 
L 121.493579 60.685619 
L 133.916585 59.470158 
L 146.33959 61.034608 
L 158.762596 65.097673 
L 171.185601 71.281793 
L 183.608607 79.147103 
L 196.031612 88.226564 
L 208.454618 98.059042 
L 220.877623 108.217916 
L 233.300629 118.333014 
L 245.723635 128.104759 
L 258.14664 137.309856 
L 270.569646 145.799015 
L 282.992651 153.487673 
L 295.415657 160.34131 
L 307.838662 166.357585 
L 320.261668 171.547358 
L 332.684674 175.916974 
L 345.107679 179.453789 
L 357.530685 182.116502 
L 369.95369 183.831457 
L 382.376696 184.495224 
L 394.799701 183.983574 
L 407.222707 182.165743 
L 419.645713 178.922841 
L 432.068718 174.168534 
L 444.491724 167.869702 
L 456.914729 160.064609 
L 469.337735 150.876195 
L 481.76074 140.518304 
L 494.183746 129.293257 
L 506.606752 117.580222 
L 519.029757 105.814682 
L 531.452763 94.46075 
L 543.875768 83.979026 
L 556.298774 74.793241 
L 568.721779 67.25962 
L 581.144785 61.642068 
L 593.56779 58.095981 
L 605.990796 56.661975 
L 618.413802 57.269689 
L 630.836807 59.750395 
L 643.259813 63.85633 
L 655.682818 69.283987 
L 668.105824 75.698625 
" clip-path="url(#p4b7ea3c919)" style="fill: none; stroke: #1f77b4; stroke-opacity: 0.5; stroke-width: 1.5; stroke-linecap: square"/>
   </g>
   <g id="line2d_13">
    <path d="M 59.378551 262.648641 
L 71.801557 267.953657 
L 84.224562 271.070277 
L 96.647568 271.8 
L 109.070573 270.078008 
L 121.493579 265.972634 
L 133.916585 259.671652 
L 146.33959 251.457089 
L 158.762596 241.671895 
L 171.185601 230.682675 
L 183.608607 218.843322 
L 196.031612 206.464084 
L 208.454618 193.79004 
L 220.877623 180.991266 
L 233.300629 168.165834 
L 245.723635 155.354288 
L 258.14664 142.563122 
L 270.569646 129.793189 
L 282.992651 117.068212 
L 295.415657 104.458831 
L 307.838662 92.098088 
L 320.261668 80.18573 
L 332.684674 68.98045 
L 345.107679 58.781007 
L 357.530685 49.898886 
L 369.95369 42.626428 
L 382.376696 37.204885 
L 394.799701 33.796888 
L 407.222707 32.466987 
L 419.645713 33.172789 
L 432.068718 35.767493 
L 444.491724 40.013345 
L 456.914729 45.603758 
L 469.337735 52.191098 
L 481.76074 59.416322 
L 494.183746 66.936723 
L 506.606752 74.448653 
L 519.029757 81.702667 
L 531.452763 88.510159 
L 543.875768 94.741749 
L 556.298774 100.318809 
L 568.721779 105.20077 
L 581.144785 109.370963 
L 593.56779 112.824102 
L 605.990796 115.557414 
L 618.413802 117.566815 
L 630.836807 118.84798 
L 643.259813 119.401119 
L 655.682818 119.237244 
L 668.105824 118.383508 
" clip-path="url(#p4b7ea3c919)" style="fill: none; stroke: #ff7f0e; stroke-opacity: 0.5; stroke-width: 1.5; stroke-linecap: square"/>
   </g>
   <g id="line2d_14">
    <path d="M 59.378551 52.280405 
L 71.801557 51.49087 
L 84.224562 51.762685 
L 96.647568 53.266364 
L 109.070573 56.075772 
L 121.493579 60.168839 
L 133.916585 65.436777 
L 146.33959 71.699729 
L 158.762596 78.726193 
L 171.185601 86.25331 
L 183.608607 94.005638 
L 196.031612 101.710534 
L 208.454618 109.109142 
L 220.877623 115.962935 
L 233.300629 122.05665 
L 245.723635 127.199008 
L 258.14664 131.222783 
L 270.569646 133.985977 
L 282.992651 135.375289 
L 295.415657 135.312475 
L 307.838662 133.763428 
L 320.261668 130.749093 
L 332.684674 126.356365 
L 345.107679 120.747063 
L 357.530685 114.162519 
L 369.95369 106.921805 
L 382.376696 99.412133 
L 394.799701 92.070912 
L 407.222707 85.359961 
L 419.645713 79.733677 
L 432.068718 75.603932 
L 444.491724 73.305235 
L 456.914729 73.064006 
L 469.337735 74.975641 
L 481.76074 78.992351 
L 494.183746 84.923534 
L 506.606752 92.449196 
L 519.029757 101.145189 
L 531.452763 110.517811 
L 543.875768 120.043991 
L 556.298774 129.212878 
L 568.721779 137.564211 
L 581.144785 144.719552 
L 593.56779 150.4034 
L 605.990796 154.452309 
L 618.413802 156.812004 
L 630.836807 157.523852 
L 643.259813 156.703383 
L 655.682818 154.514359 
L 668.105824 151.142547 
" clip-path="url(#p4b7ea3c919)" style="fill: none; stroke: #2ca02c; stroke-opacity: 0.5; stroke-width: 1.5; stroke-linecap: square"/>
   </g>
   <g id="line2d_15">
    <path d="M 59.378551 47.18075 
L 71.801557 47.834175 
L 84.224562 49.554776 
L 96.647568 52.392627 
L 109.070573 56.345781 
L 121.493579 61.359748 
L 133.916585 67.33178 
L 146.33959 74.119606 
L 158.762596 81.553594 
L 171.185601 89.450825 
L 183.608607 97.62927 
L 196.031612 105.919937 
L 208.454618 114.175294 
L 220.877623 122.27267 
L 233.300629 130.112385 
L 245.723635 137.611133 
L 258.14664 144.692496 
L 270.569646 151.277084 
L 282.992651 157.274756 
L 295.415657 162.58165 
L 307.838662 167.083205 
L 320.261668 170.663582 
L 332.684674 173.220079 
L 345.107679 174.68011 
L 357.530685 175.017399 
L 369.95369 174.263942 
L 382.376696 172.514958 
L 394.799701 169.925022 
L 407.222707 166.695365 
L 419.645713 163.053812 
L 432.068718 159.230159 
L 444.491724 155.43081 
L 456.914729 151.816677 
L 469.337735 148.487694 
L 481.76074 145.476656 
L 494.183746 142.753195 
L 506.606752 140.237322 
L 519.029757 137.820394 
L 531.452763 135.390019 
L 543.875768 132.854927 
L 556.298774 130.165682 
L 568.721779 127.327828 
L 581.144785 124.405334 
L 593.56779 121.513696 
L 605.990796 118.803978 
L 618.413802 116.440381 
L 630.836807 114.575374 
L 643.259813 113.326448 
L 655.682818 112.758652 
L 668.105824 112.875885 
" clip-path="url(#p4b7ea3c919)" style="fill: none; stroke: #d62728; stroke-opacity: 0.5; stroke-width: 1.5; stroke-linecap: square"/>
   </g>
   <g id="line2d_16">
    <path d="M 59.378551 207.537214 
L 71.801557 198.309794 
L 84.224562 186.094269 
L 96.647568 171.402187 
L 109.070573 154.844822 
L 121.493579 137.087387 
L 133.916585 118.807077 
L 146.33959 100.658877 
L 158.762596 83.251221 
L 171.185601 67.131816 
L 183.608607 52.781742 
L 196.031612 40.615237 
L 208.454618 30.981656 
L 220.877623 24.166663 
L 233.300629 20.390171 
L 245.723635 19.8 
L 258.14664 22.461445 
L 270.569646 28.344164 
L 282.992651 37.308852 
L 295.415657 49.096791 
L 307.838662 63.325295 
L 320.261668 79.49176 
L 332.684674 96.988134 
L 345.107679 115.126239 
L 357.530685 133.17289 
L 369.95369 150.39239 
L 382.376696 166.092496 
L 394.799701 179.669341 
L 407.222707 190.64638 
L 419.645713 198.70324 
L 432.068718 203.691149 
L 444.491724 205.633668 
L 456.914729 204.713123 
L 469.337735 201.244897 
L 481.76074 195.643344 
L 494.183746 188.383618 
L 506.606752 179.963846 
L 519.029757 170.871261 
L 531.452763 161.554958 
L 543.875768 152.406399 
L 556.298774 143.747476 
L 568.721779 135.825182 
L 581.144785 128.811324 
L 593.56779 122.805756 
L 605.990796 117.842048 
L 618.413802 113.894908 
L 630.836807 110.889359 
L 643.259813 108.711655 
L 655.682818 107.222077 
L 668.105824 106.269192 
" clip-path="url(#p4b7ea3c919)" style="fill: none; stroke: #9467bd; stroke-opacity: 0.5; stroke-width: 1.5; stroke-linecap: square"/>
   </g>
   <g id="patch_3">
    <path d="M 28.942188 284.4 
L 28.942188 7.2 
" style="fill: none; stroke: #000000; stroke-width: 0.8; stroke-linejoin: miter; stroke-linecap: square"/>
   </g>
   <g id="patch_4">
    <path d="M 698.542188 284.4 
L 698.542188 7.2 
" style="fill: none; stroke: #000000; stroke-width: 0.8; stroke-linejoin: miter; stroke-linecap: square"/>
   </g>
   <g id="patch_5">
    <path d="M 28.942188 284.4 
L 698.542188 284.4 
" style="fill: none; stroke: #000000; stroke-width: 0.8; stroke-linejoin: miter; stroke-linecap: square"/>
   </g>
   <g id="patch_6">
    <path d="M 28.942188 7.2 
L 698.542188 7.2 
" style="fill: none; stroke: #000000; stroke-width: 0.8; stroke-linejoin: miter; stroke-linecap: square"/>
   </g>
  </g>
 </g>
 <defs>
  <clipPath id="p4b7ea3c919">
   <rect x="28.942188" y="7.2" width="669.6" height="277.2"/>
  </clipPath>
 </defs>
</svg>
