<?xml version="1.0" encoding="utf-8" standalone="no"?>
<!DOCTYPE svg PUBLIC "-//W3C//DTD SVG 1.1//EN"
  "http://www.w3.org/Graphics/SVG/1.1/DTD/svg11.dtd">
<svg xmlns:xlink="http://www.w3.org/1999/xlink" width="745.001562pt" height="331.634375pt" viewBox="0 0 745.001562 331.634375" xmlns="http://www.w3.org/2000/svg" version="1.1">
 <metadata>
  <rdf:RDF xmlns:dc="http://purl.org/dc/elements/1.1/" xmlns:cc="http://creativecommons.org/ns#" xmlns:rdf="http://www.w3.org/1999/02/22-rdf-syntax-ns#">
   <cc:Work>
    <dc:type rdf:resource="http://purl.org/dc/dcmitype/StillImage"/>
    <dc:date>2025-07-01T15:53:05.150142</dc:date>
    <dc:format>image/svg+xml</dc:format>
    <dc:creator>
     <cc:Agent>
      <dc:title>Matplotlib v3.7.2, https://matplotlib.org/</dc:title>
     </cc:Agent>
    </dc:creator>
   </cc:Work>
  </rdf:RDF>
 </metadata>
 <defs>
  <style type="text/css">*{stroke-linejoin: round; stroke-linecap: butt}</style>
 </defs>
 <g id="figure_1">
  <g id="patch_1">
   <path d="M 0 331.634375 
L 745.001562 331.634375 
L 745.001562 0 
L 0 0 
z
" style="fill: #ffffff"/>
  </g>
  <g id="axes_1">
   <g id="patch_2">
    <path d="M 68.201563 284.4 
L 737.801563 284.4 
L 737.801563 7.2 
L 68.201563 7.2 
z
" style="fill: #ffffff"/>
   </g>
   <g id="PolyCollection_1">
    <path d="M 98.637926 19.8 
L 98.637926 271.8 
L 111.060932 266.858985 
L 123.483937 261.926737 
L 135.906943 257.004424 
L 148.329948 252.093424 
L 160.752954 247.195382 
L 173.17596 242.312271 
L 185.598965 237.446478 
L 198.021971 232.600914 
L 210.444976 227.779168 
L 222.867982 222.985702 
L 235.290987 218.226133 
L 247.713993 213.507609 
L 260.136998 208.839346 
L 272.560004 204.233394 
L 284.98301 199.705726 
L 297.406015 195.277839 
L 309.829021 190.979079 
L 322.252026 186.850033 
L 334.675032 182.947337 
L 347.098037 179.350075 
L 359.521043 176.166986 
L 371.944049 173.541009 
L 384.367054 171.642537 
L 396.79006 170.638947 
L 409.213065 170.638947 
L 421.636071 171.642537 
L 434.059076 173.541009 
L 446.482082 176.166986 
L 458.905088 179.350075 
L 471.328093 182.947337 
L 483.751099 186.850033 
L 496.174104 190.979079 
L 508.59711 195.277839 
L 521.020115 199.705726 
L 533.443121 204.233394 
L 545.866127 208.839346 
L 558.289132 213.507609 
L 570.712138 218.226133 
L 583.135143 222.985702 
L 595.558149 227.779168 
L 607.981154 232.600914 
L 620.40416 237.446478 
L 632.827165 242.312271 
L 645.250171 247.195382 
L 657.673177 252.093424 
L 670.096182 257.004424 
L 682.519188 261.926737 
L 694.942193 266.858985 
L 707.365199 271.8 
L 707.365199 19.8 
L 707.365199 19.8 
L 694.942193 24.741015 
L 682.519188 29.673263 
L 670.096182 34.595576 
L 657.673177 39.506576 
L 645.250171 44.404618 
L 632.827165 49.287729 
L 620.40416 54.153522 
L 607.981154 58.999086 
L 595.558149 63.820832 
L 583.135143 68.614298 
L 570.712138 73.373867 
L 558.289132 78.092391 
L 545.866127 82.760654 
L 533.443121 87.366606 
L 521.020115 91.894274 
L 508.59711 96.322161 
L 496.174104 100.620921 
L 483.751099 104.749967 
L 471.328093 108.652663 
L 458.905088 112.249925 
L 446.482082 115.433014 
L 434.059076 118.058991 
L 421.636071 119.957463 
L 409.213065 120.961053 
L 396.79006 120.961053 
L 384.367054 119.957463 
L 371.944049 118.058991 
L 359.521043 115.433014 
L 347.098037 112.249925 
L 334.675032 108.652663 
L 322.252026 104.749967 
L 309.829021 100.620921 
L 297.406015 96.322161 
L 284.98301 91.894274 
L 272.560004 87.366606 
L 260.136998 82.760654 
L 247.713993 78.092391 
L 235.290987 73.373867 
L 222.867982 68.614298 
L 210.444976 63.820832 
L 198.021971 58.999086 
L 185.598965 54.153522 
L 173.17596 49.287729 
L 160.752954 44.404618 
L 148.329948 39.506576 
L 135.906943 34.595576 
L 123.483937 29.673263 
L 111.060932 24.741015 
L 98.637926 19.8 
z
" clip-path="url(#p88e7d6dff9)" style="fill: #1f77b4; fill-opacity: 0.25"/>
   </g>
   <g id="matplotlib.axis_1">
    <g id="xtick_1">
     <g id="line2d_1">
      <defs>
       <path id="md10b7a1e61" d="M 0 0 
L 0 3.5 
" style="stroke: #000000; stroke-width: 0.8"/>
      </defs>
      <g>
       <use xlink:href="#md10b7a1e61" x="159.510653" y="284.4" style="stroke: #000000; stroke-width: 0.8"/>
      </g>
     </g>
     <g id="text_1">
      <!-- −4 -->
      <g transform="translate(152.13956 298.998437) scale(0.1 -0.1)">
       <defs>
        <path id="DejaVuSans-2212" d="M 678 2272 
L 4684 2272 
L 4684 1741 
L 678 1741 
L 678 2272 
z
" transform="scale(0.015625)"/>
        <path id="DejaVuSans-34" d="M 2419 4116 
L 825 1625 
L 2419 1625 
L 2419 4116 
z
M 2253 4666 
L 3047 4666 
L 3047 1625 
L 3713 1625 
L 3713 1100 
L 3047 1100 
L 3047 0 
L 2419 0 
L 2419 1100 
L 313 1100 
L 313 1709 
L 2253 4666 
z
" transform="scale(0.015625)"/>
       </defs>
       <use xlink:href="#DejaVuSans-2212"/>
       <use xlink:href="#DejaVuSans-34" x="83.789062"/>
      </g>
     </g>
    </g>
    <g id="xtick_2">
     <g id="line2d_2">
      <g>
       <use xlink:href="#md10b7a1e61" x="281.256108" y="284.4" style="stroke: #000000; stroke-width: 0.8"/>
      </g>
     </g>
     <g id="text_2">
      <!-- −2 -->
      <g transform="translate(273.885014 298.998437) scale(0.1 -0.1)">
       <defs>
        <path id="DejaVuSans-32" d="M 1228 531 
L 3431 531 
L 3431 0 
L 469 0 
L 469 531 
Q 828 903 1448 1529 
Q 2069 2156 2228 2338 
Q 2531 2678 2651 2914 
Q 2772 3150 2772 3378 
Q 2772 3750 2511 3984 
Q 2250 4219 1831 4219 
Q 1534 4219 1204 4116 
Q 875 4013 500 3803 
L 500 4441 
Q 881 4594 1212 4672 
Q 1544 4750 1819 4750 
Q 2544 4750 2975 4387 
Q 3406 4025 3406 3419 
Q 3406 3131 3298 2873 
Q 3191 2616 2906 2266 
Q 2828 2175 2409 1742 
Q 1991 1309 1228 531 
z
" transform="scale(0.015625)"/>
       </defs>
       <use xlink:href="#DejaVuSans-2212"/>
       <use xlink:href="#DejaVuSans-32" x="83.789062"/>
      </g>
     </g>
    </g>
    <g id="xtick_3">
     <g id="line2d_3">
      <g>
       <use xlink:href="#md10b7a1e61" x="403.001563" y="284.4" style="stroke: #000000; stroke-width: 0.8"/>
      </g>
     </g>
     <g id="text_3">
      <!-- 0 -->
      <g transform="translate(399.820313 298.998437) scale(0.1 -0.1)">
       <defs>
        <path id="DejaVuSans-30" d="M 2034 4250 
Q 1547 4250 1301 3770 
Q 1056 3291 1056 2328 
Q 1056 1369 1301 889 
Q 1547 409 2034 409 
Q 2525 409 2770 889 
Q 3016 1369 3016 2328 
Q 3016 3291 2770 3770 
Q 2525 4250 2034 4250 
z
M 2034 4750 
Q 2819 4750 3233 4129 
Q 3647 3509 3647 2328 
Q 3647 1150 3233 529 
Q 2819 -91 2034 -91 
Q 1250 -91 836 529 
Q 422 1150 422 2328 
Q 422 3509 836 4129 
Q 1250 4750 2034 4750 
z
" transform="scale(0.015625)"/>
       </defs>
       <use xlink:href="#DejaVuSans-30"/>
      </g>
     </g>
    </g>
    <g id="xtick_4">
     <g id="line2d_4">
      <g>
       <use xlink:href="#md10b7a1e61" x="524.747017" y="284.4" style="stroke: #000000; stroke-width: 0.8"/>
      </g>
     </g>
     <g id="text_4">
      <!-- 2 -->
      <g transform="translate(521.565767 298.998437) scale(0.1 -0.1)">
       <use xlink:href="#DejaVuSans-32"/>
      </g>
     </g>
    </g>
    <g id="xtick_5">
     <g id="line2d_5">
      <g>
       <use xlink:href="#md10b7a1e61" x="646.492472" y="284.4" style="stroke: #000000; stroke-width: 0.8"/>
      </g>
     </g>
     <g id="text_5">
      <!-- 4 -->
      <g transform="translate(643.311222 298.998437) scale(0.1 -0.1)">
       <use xlink:href="#DejaVuSans-34"/>
      </g>
     </g>
    </g>
    <g id="text_6">
     <!-- x -->
     <g transform="translate(397.082813 320.275) scale(0.2 -0.2)">
      <defs>
       <path id="DejaVuSans-78" d="M 3513 3500 
L 2247 1797 
L 3578 0 
L 2900 0 
L 1881 1375 
L 863 0 
L 184 0 
L 1544 1831 
L 300 3500 
L 978 3500 
L 1906 2253 
L 2834 3500 
L 3513 3500 
z
" transform="scale(0.015625)"/>
      </defs>
      <use xlink:href="#DejaVuSans-78"/>
     </g>
    </g>
   </g>
   <g id="matplotlib.axis_2">
    <g id="ytick_1">
     <g id="line2d_6">
      <defs>
       <path id="m7eca1e78d2" d="M 0 0 
L -3.5 0 
" style="stroke: #000000; stroke-width: 0.8"/>
      </defs>
      <g>
       <use xlink:href="#m7eca1e78d2" x="68.201563" y="269.353165" style="stroke: #000000; stroke-width: 0.8"/>
      </g>
     </g>
     <g id="text_7">
      <!-- −10.0 -->
      <g transform="translate(30.55625 273.152384) scale(0.1 -0.1)">
       <defs>
        <path id="DejaVuSans-31" d="M 794 531 
L 1825 531 
L 1825 4091 
L 703 3866 
L 703 4441 
L 1819 4666 
L 2450 4666 
L 2450 531 
L 3481 531 
L 3481 0 
L 794 0 
L 794 531 
z
" transform="scale(0.015625)"/>
        <path id="DejaVuSans-2e" d="M 684 794 
L 1344 794 
L 1344 0 
L 684 0 
L 684 794 
z
" transform="scale(0.015625)"/>
       </defs>
       <use xlink:href="#DejaVuSans-2212"/>
       <use xlink:href="#DejaVuSans-31" x="83.789062"/>
       <use xlink:href="#DejaVuSans-30" x="147.412109"/>
       <use xlink:href="#DejaVuSans-2e" x="211.035156"/>
       <use xlink:href="#DejaVuSans-30" x="242.822266"/>
      </g>
     </g>
    </g>
    <g id="ytick_2">
     <g id="line2d_7">
      <g>
       <use xlink:href="#m7eca1e78d2" x="68.201563" y="238.464874" style="stroke: #000000; stroke-width: 0.8"/>
      </g>
     </g>
     <g id="text_8">
      <!-- −7.5 -->
      <g transform="translate(36.91875 242.264093) scale(0.1 -0.1)">
       <defs>
        <path id="DejaVuSans-37" d="M 525 4666 
L 3525 4666 
L 3525 4397 
L 1831 0 
L 1172 0 
L 2766 4134 
L 525 4134 
L 525 4666 
z
" transform="scale(0.015625)"/>
        <path id="DejaVuSans-35" d="M 691 4666 
L 3169 4666 
L 3169 4134 
L 1269 4134 
L 1269 2991 
Q 1406 3038 1543 3061 
Q 1681 3084 1819 3084 
Q 2600 3084 3056 2656 
Q 3513 2228 3513 1497 
Q 3513 744 3044 326 
Q 2575 -91 1722 -91 
Q 1428 -91 1123 -41 
Q 819 9 494 109 
L 494 744 
Q 775 591 1075 516 
Q 1375 441 1709 441 
Q 2250 441 2565 725 
Q 2881 1009 2881 1497 
Q 2881 1984 2565 2268 
Q 2250 2553 1709 2553 
Q 1456 2553 1204 2497 
Q 953 2441 691 2322 
L 691 4666 
z
" transform="scale(0.015625)"/>
       </defs>
       <use xlink:href="#DejaVuSans-2212"/>
       <use xlink:href="#DejaVuSans-37" x="83.789062"/>
       <use xlink:href="#DejaVuSans-2e" x="147.412109"/>
       <use xlink:href="#DejaVuSans-35" x="179.199219"/>
      </g>
     </g>
    </g>
    <g id="ytick_3">
     <g id="line2d_8">
      <g>
       <use xlink:href="#m7eca1e78d2" x="68.201563" y="207.576583" style="stroke: #000000; stroke-width: 0.8"/>
      </g>
     </g>
     <g id="text_9">
      <!-- −5.0 -->
      <g transform="translate(36.91875 211.375801) scale(0.1 -0.1)">
       <use xlink:href="#DejaVuSans-2212"/>
       <use xlink:href="#DejaVuSans-35" x="83.789062"/>
       <use xlink:href="#DejaVuSans-2e" x="147.412109"/>
       <use xlink:href="#DejaVuSans-30" x="179.199219"/>
      </g>
     </g>
    </g>
    <g id="ytick_4">
     <g id="line2d_9">
      <g>
       <use xlink:href="#m7eca1e78d2" x="68.201563" y="176.688291" style="stroke: #000000; stroke-width: 0.8"/>
      </g>
     </g>
     <g id="text_10">
      <!-- −2.5 -->
      <g transform="translate(36.91875 180.48751) scale(0.1 -0.1)">
       <use xlink:href="#DejaVuSans-2212"/>
       <use xlink:href="#DejaVuSans-32" x="83.789062"/>
       <use xlink:href="#DejaVuSans-2e" x="147.412109"/>
       <use xlink:href="#DejaVuSans-35" x="179.199219"/>
      </g>
     </g>
    </g>
    <g id="ytick_5">
     <g id="line2d_10">
      <g>
       <use xlink:href="#m7eca1e78d2" x="68.201563" y="145.8" style="stroke: #000000; stroke-width: 0.8"/>
      </g>
     </g>
     <g id="text_11">
      <!-- 0.0 -->
      <g transform="translate(45.298438 149.599219) scale(0.1 -0.1)">
       <use xlink:href="#DejaVuSans-30"/>
       <use xlink:href="#DejaVuSans-2e" x="63.623047"/>
       <use xlink:href="#DejaVuSans-30" x="95.410156"/>
      </g>
     </g>
    </g>
    <g id="ytick_6">
     <g id="line2d_11">
      <g>
       <use xlink:href="#m7eca1e78d2" x="68.201563" y="114.911709" style="stroke: #000000; stroke-width: 0.8"/>
      </g>
     </g>
     <g id="text_12">
      <!-- 2.5 -->
      <g transform="translate(45.298438 118.710927) scale(0.1 -0.1)">
       <use xlink:href="#DejaVuSans-32"/>
       <use xlink:href="#DejaVuSans-2e" x="63.623047"/>
       <use xlink:href="#DejaVuSans-35" x="95.410156"/>
      </g>
     </g>
    </g>
    <g id="ytick_7">
     <g id="line2d_12">
      <g>
       <use xlink:href="#m7eca1e78d2" x="68.201563" y="84.023417" style="stroke: #000000; stroke-width: 0.8"/>
      </g>
     </g>
     <g id="text_13">
      <!-- 5.0 -->
      <g transform="translate(45.298438 87.822636) scale(0.1 -0.1)">
       <use xlink:href="#DejaVuSans-35"/>
       <use xlink:href="#DejaVuSans-2e" x="63.623047"/>
       <use xlink:href="#DejaVuSans-30" x="95.410156"/>
      </g>
     </g>
    </g>
    <g id="ytick_8">
     <g id="line2d_13">
      <g>
       <use xlink:href="#m7eca1e78d2" x="68.201563" y="53.135126" style="stroke: #000000; stroke-width: 0.8"/>
      </g>
     </g>
     <g id="text_14">
      <!-- 7.5 -->
      <g transform="translate(45.298438 56.934345) scale(0.1 -0.1)">
       <use xlink:href="#DejaVuSans-37"/>
       <use xlink:href="#DejaVuSans-2e" x="63.623047"/>
       <use xlink:href="#DejaVuSans-35" x="95.410156"/>
      </g>
     </g>
    </g>
    <g id="ytick_9">
     <g id="line2d_14">
      <g>
       <use xlink:href="#m7eca1e78d2" x="68.201563" y="22.246835" style="stroke: #000000; stroke-width: 0.8"/>
      </g>
     </g>
     <g id="text_15">
      <!-- 10.0 -->
      <g transform="translate(38.935938 26.046054) scale(0.1 -0.1)">
       <use xlink:href="#DejaVuSans-31"/>
       <use xlink:href="#DejaVuSans-30" x="63.623047"/>
       <use xlink:href="#DejaVuSans-2e" x="127.246094"/>
       <use xlink:href="#DejaVuSans-30" x="159.033203"/>
      </g>
     </g>
    </g>
    <g id="text_16">
     <!-- f(x) -->
     <g transform="translate(22.396875 163.042187) rotate(-90) scale(0.2 -0.2)">
      <defs>
       <path id="DejaVuSans-66" d="M 2375 4863 
L 2375 4384 
L 1825 4384 
Q 1516 4384 1395 4259 
Q 1275 4134 1275 3809 
L 1275 3500 
L 2222 3500 
L 2222 3053 
L 1275 3053 
L 1275 0 
L 697 0 
L 697 3053 
L 147 3053 
L 147 3500 
L 697 3500 
L 697 3744 
Q 697 4328 969 4595 
Q 1241 4863 1831 4863 
L 2375 4863 
z
" transform="scale(0.015625)"/>
       <path id="DejaVuSans-28" d="M 1984 4856 
Q 1566 4138 1362 3434 
Q 1159 2731 1159 2009 
Q 1159 1288 1364 580 
Q 1569 -128 1984 -844 
L 1484 -844 
Q 1016 -109 783 600 
Q 550 1309 550 2009 
Q 550 2706 781 3412 
Q 1013 4119 1484 4856 
L 1984 4856 
z
" transform="scale(0.015625)"/>
       <path id="DejaVuSans-29" d="M 513 4856 
L 1013 4856 
Q 1481 4119 1714 3412 
Q 1947 2706 1947 2009 
Q 1947 1309 1714 600 
Q 1481 -109 1013 -844 
L 513 -844 
Q 928 -128 1133 580 
Q 1338 1288 1338 2009 
Q 1338 2731 1133 3434 
Q 928 4138 513 4856 
z
" transform="scale(0.015625)"/>
      </defs>
      <use xlink:href="#DejaVuSans-66"/>
      <use xlink:href="#DejaVuSans-28" x="35.205078"/>
      <use xlink:href="#DejaVuSans-78" x="74.21875"/>
      <use xlink:href="#DejaVuSans-29" x="133.398438"/>
     </g>
    </g>
   </g>
   <g id="line2d_15">
    <path d="M 98.637926 145.8 
L 111.060932 145.8 
L 123.483937 145.8 
L 135.906943 145.8 
L 148.329948 145.8 
L 160.752954 145.8 
L 173.17596 145.8 
L 185.598965 145.8 
L 198.021971 145.8 
L 210.444976 145.8 
L 222.867982 145.8 
L 235.290987 145.8 
L 247.713993 145.8 
L 260.136998 145.8 
L 272.560004 145.8 
L 284.98301 145.8 
L 297.406015 145.8 
L 309.829021 145.8 
L 322.252026 145.8 
L 334.675032 145.8 
L 347.098037 145.8 
L 359.521043 145.8 
L 371.944049 145.8 
L 384.367054 145.8 
L 396.79006 145.8 
L 409.213065 145.8 
L 421.636071 145.8 
L 434.059076 145.8 
L 446.482082 145.8 
L 458.905088 145.8 
L 471.328093 145.8 
L 483.751099 145.8 
L 496.174104 145.8 
L 508.59711 145.8 
L 521.020115 145.8 
L 533.443121 145.8 
L 545.866127 145.8 
L 558.289132 145.8 
L 570.712138 145.8 
L 583.135143 145.8 
L 595.558149 145.8 
L 607.981154 145.8 
L 620.40416 145.8 
L 632.827165 145.8 
L 645.250171 145.8 
L 657.673177 145.8 
L 670.096182 145.8 
L 682.519188 145.8 
L 694.942193 145.8 
L 707.365199 145.8 
" clip-path="url(#p88e7d6dff9)" style="fill: none; stroke: #000000; stroke-width: 4; stroke-linecap: square"/>
   </g>
   <g id="line2d_16">
    <path d="M 98.637926 130.180099 
L 111.060932 130.13511 
L 123.483937 130.090121 
L 135.906943 130.045132 
L 148.329948 130.000143 
L 160.752954 129.955154 
L 173.17596 129.910165 
L 185.598965 129.865176 
L 198.021971 129.820188 
L 210.444976 129.775199 
L 222.867982 129.73021 
L 235.290987 129.685221 
L 247.713993 129.640232 
L 260.136998 129.595243 
L 272.560004 129.550254 
L 284.98301 129.505265 
L 297.406015 129.460276 
L 309.829021 129.415287 
L 322.252026 129.370299 
L 334.675032 129.32531 
L 347.098037 129.280321 
L 359.521043 129.235332 
L 371.944049 129.190343 
L 384.367054 129.145354 
L 396.79006 129.100365 
L 409.213065 129.055376 
L 421.636071 129.010387 
L 434.059076 128.965398 
L 446.482082 128.92041 
L 458.905088 128.875421 
L 471.328093 128.830432 
L 483.751099 128.785443 
L 496.174104 128.740454 
L 508.59711 128.695465 
L 521.020115 128.650476 
L 533.443121 128.605487 
L 545.866127 128.560498 
L 558.289132 128.515509 
L 570.712138 128.470521 
L 583.135143 128.425532 
L 595.558149 128.380543 
L 607.981154 128.335554 
L 620.40416 128.290565 
L 632.827165 128.245576 
L 645.250171 128.200587 
L 657.673177 128.155598 
L 670.096182 128.110609 
L 682.519188 128.06562 
L 694.942193 128.020632 
L 707.365199 127.975643 
" clip-path="url(#p88e7d6dff9)" style="fill: none; stroke: #1f77b4; stroke-width: 1.5; stroke-linecap: square"/>
   </g>
   <g id="line2d_17">
    <path d="M 98.637926 186.684565 
L 111.060932 185.000239 
L 123.483937 183.315913 
L 135.906943 181.631588 
L 148.329948 179.947262 
L 160.752954 178.262936 
L 173.17596 176.57861 
L 185.598965 174.894284 
L 198.021971 173.209958 
L 210.444976 171.525633 
L 222.867982 169.841307 
L 235.290987 168.156981 
L 247.713993 166.472655 
L 260.136998 164.788329 
L 272.560004 163.104004 
L 284.98301 161.419678 
L 297.406015 159.735352 
L 309.829021 158.051026 
L 322.252026 156.3667 
L 334.675032 154.682374 
L 347.098037 152.998049 
L 359.521043 151.313723 
L 371.944049 149.629397 
L 384.367054 147.945071 
L 396.79006 146.260745 
L 409.213065 144.57642 
L 421.636071 142.892094 
L 434.059076 141.207768 
L 446.482082 139.523442 
L 458.905088 137.839116 
L 471.328093 136.15479 
L 483.751099 134.470465 
L 496.174104 132.786139 
L 508.59711 131.101813 
L 521.020115 129.417487 
L 533.443121 127.733161 
L 545.866127 126.048836 
L 558.289132 124.36451 
L 570.712138 122.680184 
L 583.135143 120.995858 
L 595.558149 119.311532 
L 607.981154 117.627206 
L 620.40416 115.942881 
L 632.827165 114.258555 
L 645.250171 112.574229 
L 657.673177 110.889903 
L 670.096182 109.205577 
L 682.519188 107.521252 
L 694.942193 105.836926 
L 707.365199 104.1526 
" clip-path="url(#p88e7d6dff9)" style="fill: none; stroke: #ff7f0e; stroke-width: 1.5; stroke-linecap: square"/>
   </g>
   <g id="line2d_18">
    <path d="M 98.637926 63.559009 
L 111.060932 67.300858 
L 123.483937 71.042708 
L 135.906943 74.784557 
L 148.329948 78.526407 
L 160.752954 82.268257 
L 173.17596 86.010106 
L 185.598965 89.751956 
L 198.021971 93.493805 
L 210.444976 97.235655 
L 222.867982 100.977504 
L 235.290987 104.719354 
L 247.713993 108.461203 
L 260.136998 112.203053 
L 272.560004 115.944903 
L 284.98301 119.686752 
L 297.406015 123.428602 
L 309.829021 127.170451 
L 322.252026 130.912301 
L 334.675032 134.65415 
L 347.098037 138.396 
L 359.521043 142.137849 
L 371.944049 145.879699 
L 384.367054 149.621548 
L 396.79006 153.363398 
L 409.213065 157.105248 
L 421.636071 160.847097 
L 434.059076 164.588947 
L 446.482082 168.330796 
L 458.905088 172.072646 
L 471.328093 175.814495 
L 483.751099 179.556345 
L 496.174104 183.298194 
L 508.59711 187.040044 
L 521.020115 190.781894 
L 533.443121 194.523743 
L 545.866127 198.265593 
L 558.289132 202.007442 
L 570.712138 205.749292 
L 583.135143 209.491141 
L 595.558149 213.232991 
L 607.981154 216.97484 
L 620.40416 220.71669 
L 632.827165 224.458539 
L 645.250171 228.200389 
L 657.673177 231.942239 
L 670.096182 235.684088 
L 682.519188 239.425938 
L 694.942193 243.167787 
L 707.365199 246.909637 
" clip-path="url(#p88e7d6dff9)" style="fill: none; stroke: #2ca02c; stroke-width: 1.5; stroke-linecap: square"/>
   </g>
   <g id="line2d_19">
    <path d="M 98.637926 175.451254 
L 111.060932 174.150113 
L 123.483937 172.848971 
L 135.906943 171.54783 
L 148.329948 170.246688 
L 160.752954 168.945547 
L 173.17596 167.644405 
L 185.598965 166.343264 
L 198.021971 165.042123 
L 210.444976 163.740981 
L 222.867982 162.43984 
L 235.290987 161.138698 
L 247.713993 159.837557 
L 260.136998 158.536415 
L 272.560004 157.235274 
L 284.98301 155.934133 
L 297.406015 154.632991 
L 309.829021 153.33185 
L 322.252026 152.030708 
L 334.675032 150.729567 
L 347.098037 149.428426 
L 359.521043 148.127284 
L 371.944049 146.826143 
L 384.367054 145.525001 
L 396.79006 144.22386 
L 409.213065 142.922718 
L 421.636071 141.621577 
L 434.059076 140.320436 
L 446.482082 139.019294 
L 458.905088 137.718153 
L 471.328093 136.417011 
L 483.751099 135.11587 
L 496.174104 133.814728 
L 508.59711 132.513587 
L 521.020115 131.212446 
L 533.443121 129.911304 
L 545.866127 128.610163 
L 558.289132 127.309021 
L 570.712138 126.00788 
L 583.135143 124.706739 
L 595.558149 123.405597 
L 607.981154 122.104456 
L 620.40416 120.803314 
L 632.827165 119.502173 
L 645.250171 118.201031 
L 657.673177 116.89989 
L 670.096182 115.598749 
L 682.519188 114.297607 
L 694.942193 112.996466 
L 707.365199 111.695324 
" clip-path="url(#p88e7d6dff9)" style="fill: none; stroke: #d62728; stroke-width: 1.5; stroke-linecap: square"/>
   </g>
   <g id="line2d_20">
    <path d="M 98.637926 209.048637 
L 111.060932 205.962121 
L 123.483937 202.875605 
L 135.906943 199.789089 
L 148.329948 196.702572 
L 160.752954 193.616056 
L 173.17596 190.52954 
L 185.598965 187.443024 
L 198.021971 184.356508 
L 210.444976 181.269992 
L 222.867982 178.183476 
L 235.290987 175.09696 
L 247.713993 172.010443 
L 260.136998 168.923927 
L 272.560004 165.837411 
L 284.98301 162.750895 
L 297.406015 159.664379 
L 309.829021 156.577863 
L 322.252026 153.491347 
L 334.675032 150.404831 
L 347.098037 147.318314 
L 359.521043 144.231798 
L 371.944049 141.145282 
L 384.367054 138.058766 
L 396.79006 134.97225 
L 409.213065 131.885734 
L 421.636071 128.799218 
L 434.059076 125.712702 
L 446.482082 122.626185 
L 458.905088 119.539669 
L 471.328093 116.453153 
L 483.751099 113.366637 
L 496.174104 110.280121 
L 508.59711 107.193605 
L 521.020115 104.107089 
L 533.443121 101.020573 
L 545.866127 97.934056 
L 558.289132 94.84754 
L 570.712138 91.761024 
L 583.135143 88.674508 
L 595.558149 85.587992 
L 607.981154 82.501476 
L 620.40416 79.41496 
L 632.827165 76.328444 
L 645.250171 73.241927 
L 657.673177 70.155411 
L 670.096182 67.068895 
L 682.519188 63.982379 
L 694.942193 60.895863 
L 707.365199 57.809347 
" clip-path="url(#p88e7d6dff9)" style="fill: none; stroke: #9467bd; stroke-width: 1.5; stroke-linecap: square"/>
   </g>
   <g id="line2d_21">
    <path d="M 98.637926 183.704968 
L 111.060932 181.481156 
L 123.483937 179.257344 
L 135.906943 177.033531 
L 148.329948 174.809719 
L 160.752954 172.585907 
L 173.17596 170.362095 
L 185.598965 168.138282 
L 198.021971 165.91447 
L 210.444976 163.690658 
L 222.867982 161.466845 
L 235.290987 159.243033 
L 247.713993 157.019221 
L 260.136998 154.795408 
L 272.560004 152.571596 
L 284.98301 150.347784 
L 297.406015 148.123972 
L 309.829021 145.900159 
L 322.252026 143.676347 
L 334.675032 141.452535 
L 347.098037 139.228722 
L 359.521043 137.00491 
L 371.944049 134.781098 
L 384.367054 132.557286 
L 396.79006 130.333473 
L 409.213065 128.109661 
L 421.636071 125.885849 
L 434.059076 123.662036 
L 446.482082 121.438224 
L 458.905088 119.214412 
L 471.328093 116.9906 
L 483.751099 114.766787 
L 496.174104 112.542975 
L 508.59711 110.319163 
L 521.020115 108.09535 
L 533.443121 105.871538 
L 545.866127 103.647726 
L 558.289132 101.423914 
L 570.712138 99.200101 
L 583.135143 96.976289 
L 595.558149 94.752477 
L 607.981154 92.528664 
L 620.40416 90.304852 
L 632.827165 88.08104 
L 645.250171 85.857227 
L 657.673177 83.633415 
L 670.096182 81.409603 
L 682.519188 79.185791 
L 694.942193 76.961978 
L 707.365199 74.738166 
" clip-path="url(#p88e7d6dff9)" style="fill: none; stroke: #8c564b; stroke-width: 1.5; stroke-linecap: square"/>
   </g>
   <g id="line2d_22">
    <path d="M 98.637926 120.862563 
L 111.060932 122.406719 
L 123.483937 123.950875 
L 135.906943 125.495031 
L 148.329948 127.039187 
L 160.752954 128.583344 
L 173.17596 130.1275 
L 185.598965 131.671656 
L 198.021971 133.215812 
L 210.444976 134.759968 
L 222.867982 136.304124 
L 235.290987 137.84828 
L 247.713993 139.392436 
L 260.136998 140.936592 
L 272.560004 142.480749 
L 284.98301 144.024905 
L 297.406015 145.569061 
L 309.829021 147.113217 
L 322.252026 148.657373 
L 334.675032 150.201529 
L 347.098037 151.745685 
L 359.521043 153.289841 
L 371.944049 154.833998 
L 384.367054 156.378154 
L 396.79006 157.92231 
L 409.213065 159.466466 
L 421.636071 161.010622 
L 434.059076 162.554778 
L 446.482082 164.098934 
L 458.905088 165.64309 
L 471.328093 167.187246 
L 483.751099 168.731403 
L 496.174104 170.275559 
L 508.59711 171.819715 
L 521.020115 173.363871 
L 533.443121 174.908027 
L 545.866127 176.452183 
L 558.289132 177.996339 
L 570.712138 179.540495 
L 583.135143 181.084651 
L 595.558149 182.628808 
L 607.981154 184.172964 
L 620.40416 185.71712 
L 632.827165 187.261276 
L 645.250171 188.805432 
L 657.673177 190.349588 
L 670.096182 191.893744 
L 682.519188 193.4379 
L 694.942193 194.982056 
L 707.365199 196.526213 
" clip-path="url(#p88e7d6dff9)" style="fill: none; stroke: #e377c2; stroke-width: 1.5; stroke-linecap: square"/>
   </g>
   <g id="line2d_23">
    <path d="M 98.637926 216.482532 
L 111.060932 215.429337 
L 123.483937 214.376142 
L 135.906943 213.322947 
L 148.329948 212.269752 
L 160.752954 211.216557 
L 173.17596 210.163362 
L 185.598965 209.110167 
L 198.021971 208.056972 
L 210.444976 207.003777 
L 222.867982 205.950582 
L 235.290987 204.897387 
L 247.713993 203.844191 
L 260.136998 202.790996 
L 272.560004 201.737801 
L 284.98301 200.684606 
L 297.406015 199.631411 
L 309.829021 198.578216 
L 322.252026 197.525021 
L 334.675032 196.471826 
L 347.098037 195.418631 
L 359.521043 194.365436 
L 371.944049 193.312241 
L 384.367054 192.259046 
L 396.79006 191.205851 
L 409.213065 190.152656 
L 421.636071 189.099461 
L 434.059076 188.046266 
L 446.482082 186.993071 
L 458.905088 185.939876 
L 471.328093 184.88668 
L 483.751099 183.833485 
L 496.174104 182.78029 
L 508.59711 181.727095 
L 521.020115 180.6739 
L 533.443121 179.620705 
L 545.866127 178.56751 
L 558.289132 177.514315 
L 570.712138 176.46112 
L 583.135143 175.407925 
L 595.558149 174.35473 
L 607.981154 173.301535 
L 620.40416 172.24834 
L 632.827165 171.195145 
L 645.250171 170.14195 
L 657.673177 169.088755 
L 670.096182 168.03556 
L 682.519188 166.982365 
L 694.942193 165.92917 
L 707.365199 164.875974 
" clip-path="url(#p88e7d6dff9)" style="fill: none; stroke: #7f7f7f; stroke-width: 1.5; stroke-linecap: square"/>
   </g>
   <g id="line2d_24">
    <path d="M 98.637926 271.392155 
L 111.060932 266.824503 
L 123.483937 262.256852 
L 135.906943 257.689201 
L 148.329948 253.12155 
L 160.752954 248.553899 
L 173.17596 243.986248 
L 185.598965 239.418597 
L 198.021971 234.850946 
L 210.444976 230.283295 
L 222.867982 225.715644 
L 235.290987 221.147993 
L 247.713993 216.580341 
L 260.136998 212.01269 
L 272.560004 207.445039 
L 284.98301 202.877388 
L 297.406015 198.309737 
L 309.829021 193.742086 
L 322.252026 189.174435 
L 334.675032 184.606784 
L 347.098037 180.039133 
L 359.521043 175.471482 
L 371.944049 170.903831 
L 384.367054 166.336179 
L 396.79006 161.768528 
L 409.213065 157.200877 
L 421.636071 152.633226 
L 434.059076 148.065575 
L 446.482082 143.497924 
L 458.905088 138.930273 
L 471.328093 134.362622 
L 483.751099 129.794971 
L 496.174104 125.22732 
L 508.59711 120.659668 
L 521.020115 116.092017 
L 533.443121 111.524366 
L 545.866127 106.956715 
L 558.289132 102.389064 
L 570.712138 97.821413 
L 583.135143 93.253762 
L 595.558149 88.686111 
L 607.981154 84.11846 
L 620.40416 79.550809 
L 632.827165 74.983158 
L 645.250171 70.415506 
L 657.673177 65.847855 
L 670.096182 61.280204 
L 682.519188 56.712553 
L 694.942193 52.144902 
L 707.365199 47.577251 
" clip-path="url(#p88e7d6dff9)" style="fill: none; stroke: #bcbd22; stroke-width: 1.5; stroke-linecap: square"/>
   </g>
   <g id="line2d_25">
    <path d="M 98.637926 183.53888 
L 111.060932 181.794214 
L 123.483937 180.049547 
L 135.906943 178.30488 
L 148.329948 176.560214 
L 160.752954 174.815547 
L 173.17596 173.070881 
L 185.598965 171.326214 
L 198.021971 169.581547 
L 210.444976 167.836881 
L 222.867982 166.092214 
L 235.290987 164.347547 
L 247.713993 162.602881 
L 260.136998 160.858214 
L 272.560004 159.113547 
L 284.98301 157.368881 
L 297.406015 155.624214 
L 309.829021 153.879548 
L 322.252026 152.134881 
L 334.675032 150.390214 
L 347.098037 148.645548 
L 359.521043 146.900881 
L 371.944049 145.156214 
L 384.367054 143.411548 
L 396.79006 141.666881 
L 409.213065 139.922215 
L 421.636071 138.177548 
L 434.059076 136.432881 
L 446.482082 134.688215 
L 458.905088 132.943548 
L 471.328093 131.198881 
L 483.751099 129.454215 
L 496.174104 127.709548 
L 508.59711 125.964881 
L 521.020115 124.220215 
L 533.443121 122.475548 
L 545.866127 120.730882 
L 558.289132 118.986215 
L 570.712138 117.241548 
L 583.135143 115.496882 
L 595.558149 113.752215 
L 607.981154 112.007548 
L 620.40416 110.262882 
L 632.827165 108.518215 
L 645.250171 106.773549 
L 657.673177 105.028882 
L 670.096182 103.284215 
L 682.519188 101.539549 
L 694.942193 99.794882 
L 707.365199 98.050215 
" clip-path="url(#p88e7d6dff9)" style="fill: none; stroke: #17becf; stroke-width: 1.5; stroke-linecap: square"/>
   </g>
   <g id="patch_3">
    <path d="M 68.201563 284.4 
L 68.201563 7.2 
" style="fill: none; stroke: #000000; stroke-width: 0.8; stroke-linejoin: miter; stroke-linecap: square"/>
   </g>
   <g id="patch_4">
    <path d="M 737.801563 284.4 
L 737.801563 7.2 
" style="fill: none; stroke: #000000; stroke-width: 0.8; stroke-linejoin: miter; stroke-linecap: square"/>
   </g>
   <g id="patch_5">
    <path d="M 68.201563 284.4 
L 737.801563 284.4 
" style="fill: none; stroke: #000000; stroke-width: 0.8; stroke-linejoin: miter; stroke-linecap: square"/>
   </g>
   <g id="patch_6">
    <path d="M 68.201563 7.2 
L 737.801563 7.2 
" style="fill: none; stroke: #000000; stroke-width: 0.8; stroke-linejoin: miter; stroke-linecap: square"/>
   </g>
  </g>
 </g>
 <defs>
  <clipPath id="p88e7d6dff9">
   <rect x="68.201563" y="7.2" width="669.6" height="277.2"/>
  </clipPath>
 </defs>
</svg>
