<?xml version="1.0" encoding="utf-8" standalone="no"?>
<!DOCTYPE svg PUBLIC "-//W3C//DTD SVG 1.1//EN"
  "http://www.w3.org/Graphics/SVG/1.1/DTD/svg11.dtd">
<svg xmlns:xlink="http://www.w3.org/1999/xlink" width="705.742188pt" height="308.278125pt" viewBox="0 0 705.742188 308.278125" xmlns="http://www.w3.org/2000/svg" version="1.1">
 <metadata>
  <rdf:RDF xmlns:dc="http://purl.org/dc/elements/1.1/" xmlns:cc="http://creativecommons.org/ns#" xmlns:rdf="http://www.w3.org/1999/02/22-rdf-syntax-ns#">
   <cc:Work>
    <dc:type rdf:resource="http://purl.org/dc/dcmitype/StillImage"/>
    <dc:date>2025-07-01T15:53:05.269942</dc:date>
    <dc:format>image/svg+xml</dc:format>
    <dc:creator>
     <cc:Agent>
      <dc:title>Matplotlib v3.7.2, https://matplotlib.org/</dc:title>
     </cc:Agent>
    </dc:creator>
   </cc:Work>
  </rdf:RDF>
 </metadata>
 <defs>
  <style type="text/css">*{stroke-linejoin: round; stroke-linecap: butt}</style>
 </defs>
 <g id="figure_1">
  <g id="patch_1">
   <path d="M 0 308.278125 
L 705.742188 308.278125 
L 705.742188 0 
L 0 0 
z
" style="fill: #ffffff"/>
  </g>
  <g id="axes_1">
   <g id="patch_2">
    <path d="M 28.942188 284.4 
L 698.542188 284.4 
L 698.542188 7.2 
L 28.942188 7.2 
z
" style="fill: #ffffff"/>
   </g>
   <g id="matplotlib.axis_1">
    <g id="xtick_1">
     <g id="line2d_1">
      <defs>
       <path id="m45cab89acc" d="M 0 0 
L 0 3.5 
" style="stroke: #000000; stroke-width: 0.8"/>
      </defs>
      <g>
       <use xlink:href="#m45cab89acc" x="59.378551" y="284.4" style="stroke: #000000; stroke-width: 0.8"/>
      </g>
     </g>
     <g id="text_1">
      <!-- 0 -->
      <g transform="translate(56.197301 298.998438) scale(0.1 -0.1)">
       <defs>
        <path id="DejaVuSans-30" d="M 2034 4250 
Q 1547 4250 1301 3770 
Q 1056 3291 1056 2328 
Q 1056 1369 1301 889 
Q 1547 409 2034 409 
Q 2525 409 2770 889 
Q 3016 1369 3016 2328 
Q 3016 3291 2770 3770 
Q 2525 4250 2034 4250 
z
M 2034 4750 
Q 2819 4750 3233 4129 
Q 3647 3509 3647 2328 
Q 3647 1150 3233 529 
Q 2819 -91 2034 -91 
Q 1250 -91 836 529 
Q 422 1150 422 2328 
Q 422 3509 836 4129 
Q 1250 4750 2034 4750 
z
" transform="scale(0.015625)"/>
       </defs>
       <use xlink:href="#DejaVuSans-30"/>
      </g>
     </g>
    </g>
    <g id="xtick_2">
     <g id="line2d_2">
      <g>
       <use xlink:href="#m45cab89acc" x="181.124006" y="284.4" style="stroke: #000000; stroke-width: 0.8"/>
      </g>
     </g>
     <g id="text_2">
      <!-- 1 -->
      <g transform="translate(177.942756 298.998438) scale(0.1 -0.1)">
       <defs>
        <path id="DejaVuSans-31" d="M 794 531 
L 1825 531 
L 1825 4091 
L 703 3866 
L 703 4441 
L 1819 4666 
L 2450 4666 
L 2450 531 
L 3481 531 
L 3481 0 
L 794 0 
L 794 531 
z
" transform="scale(0.015625)"/>
       </defs>
       <use xlink:href="#DejaVuSans-31"/>
      </g>
     </g>
    </g>
    <g id="xtick_3">
     <g id="line2d_3">
      <g>
       <use xlink:href="#m45cab89acc" x="302.86946" y="284.4" style="stroke: #000000; stroke-width: 0.8"/>
      </g>
     </g>
     <g id="text_3">
      <!-- 2 -->
      <g transform="translate(299.68821 298.998438) scale(0.1 -0.1)">
       <defs>
        <path id="DejaVuSans-32" d="M 1228 531 
L 3431 531 
L 3431 0 
L 469 0 
L 469 531 
Q 828 903 1448 1529 
Q 2069 2156 2228 2338 
Q 2531 2678 2651 2914 
Q 2772 3150 2772 3378 
Q 2772 3750 2511 3984 
Q 2250 4219 1831 4219 
Q 1534 4219 1204 4116 
Q 875 4013 500 3803 
L 500 4441 
Q 881 4594 1212 4672 
Q 1544 4750 1819 4750 
Q 2544 4750 2975 4387 
Q 3406 4025 3406 3419 
Q 3406 3131 3298 2873 
Q 3191 2616 2906 2266 
Q 2828 2175 2409 1742 
Q 1991 1309 1228 531 
z
" transform="scale(0.015625)"/>
       </defs>
       <use xlink:href="#DejaVuSans-32"/>
      </g>
     </g>
    </g>
    <g id="xtick_4">
     <g id="line2d_4">
      <g>
       <use xlink:href="#m45cab89acc" x="424.614915" y="284.4" style="stroke: #000000; stroke-width: 0.8"/>
      </g>
     </g>
     <g id="text_4">
      <!-- 3 -->
      <g transform="translate(421.433665 298.998438) scale(0.1 -0.1)">
       <defs>
        <path id="DejaVuSans-33" d="M 2597 2516 
Q 3050 2419 3304 2112 
Q 3559 1806 3559 1356 
Q 3559 666 3084 287 
Q 2609 -91 1734 -91 
Q 1441 -91 1130 -33 
Q 819 25 488 141 
L 488 750 
Q 750 597 1062 519 
Q 1375 441 1716 441 
Q 2309 441 2620 675 
Q 2931 909 2931 1356 
Q 2931 1769 2642 2001 
Q 2353 2234 1838 2234 
L 1294 2234 
L 1294 2753 
L 1863 2753 
Q 2328 2753 2575 2939 
Q 2822 3125 2822 3475 
Q 2822 3834 2567 4026 
Q 2313 4219 1838 4219 
Q 1578 4219 1281 4162 
Q 984 4106 628 3988 
L 628 4550 
Q 988 4650 1302 4700 
Q 1616 4750 1894 4750 
Q 2613 4750 3031 4423 
Q 3450 4097 3450 3541 
Q 3450 3153 3228 2886 
Q 3006 2619 2597 2516 
z
" transform="scale(0.015625)"/>
       </defs>
       <use xlink:href="#DejaVuSans-33"/>
      </g>
     </g>
    </g>
    <g id="xtick_5">
     <g id="line2d_5">
      <g>
       <use xlink:href="#m45cab89acc" x="546.360369" y="284.4" style="stroke: #000000; stroke-width: 0.8"/>
      </g>
     </g>
     <g id="text_5">
      <!-- 4 -->
      <g transform="translate(543.179119 298.998438) scale(0.1 -0.1)">
       <defs>
        <path id="DejaVuSans-34" d="M 2419 4116 
L 825 1625 
L 2419 1625 
L 2419 4116 
z
M 2253 4666 
L 3047 4666 
L 3047 1625 
L 3713 1625 
L 3713 1100 
L 3047 1100 
L 3047 0 
L 2419 0 
L 2419 1100 
L 313 1100 
L 313 1709 
L 2253 4666 
z
" transform="scale(0.015625)"/>
       </defs>
       <use xlink:href="#DejaVuSans-34"/>
      </g>
     </g>
    </g>
    <g id="xtick_6">
     <g id="line2d_6">
      <g>
       <use xlink:href="#m45cab89acc" x="668.105824" y="284.4" style="stroke: #000000; stroke-width: 0.8"/>
      </g>
     </g>
     <g id="text_6">
      <!-- 5 -->
      <g transform="translate(664.924574 298.998438) scale(0.1 -0.1)">
       <defs>
        <path id="DejaVuSans-35" d="M 691 4666 
L 3169 4666 
L 3169 4134 
L 1269 4134 
L 1269 2991 
Q 1406 3038 1543 3061 
Q 1681 3084 1819 3084 
Q 2600 3084 3056 2656 
Q 3513 2228 3513 1497 
Q 3513 744 3044 326 
Q 2575 -91 1722 -91 
Q 1428 -91 1123 -41 
Q 819 9 494 109 
L 494 744 
Q 775 591 1075 516 
Q 1375 441 1709 441 
Q 2250 441 2565 725 
Q 2881 1009 2881 1497 
Q 2881 1984 2565 2268 
Q 2250 2553 1709 2553 
Q 1456 2553 1204 2497 
Q 953 2441 691 2322 
L 691 4666 
z
" transform="scale(0.015625)"/>
       </defs>
       <use xlink:href="#DejaVuSans-35"/>
      </g>
     </g>
    </g>
   </g>
   <g id="matplotlib.axis_2">
    <g id="ytick_1">
     <g id="line2d_7">
      <defs>
       <path id="mf4ac66b879" d="M 0 0 
L -3.5 0 
" style="stroke: #000000; stroke-width: 0.8"/>
      </defs>
      <g>
       <use xlink:href="#mf4ac66b879" x="28.942188" y="274.835847" style="stroke: #000000; stroke-width: 0.8"/>
      </g>
     </g>
     <g id="text_7">
      <!-- −3 -->
      <g transform="translate(7.2 278.635066) scale(0.1 -0.1)">
       <defs>
        <path id="DejaVuSans-2212" d="M 678 2272 
L 4684 2272 
L 4684 1741 
L 678 1741 
L 678 2272 
z
" transform="scale(0.015625)"/>
       </defs>
       <use xlink:href="#DejaVuSans-2212"/>
       <use xlink:href="#DejaVuSans-33" x="83.789062"/>
      </g>
     </g>
    </g>
    <g id="ytick_2">
     <g id="line2d_8">
      <g>
       <use xlink:href="#mf4ac66b879" x="28.942188" y="220.546588" style="stroke: #000000; stroke-width: 0.8"/>
      </g>
     </g>
     <g id="text_8">
      <!-- −2 -->
      <g transform="translate(7.2 224.345806) scale(0.1 -0.1)">
       <use xlink:href="#DejaVuSans-2212"/>
       <use xlink:href="#DejaVuSans-32" x="83.789062"/>
      </g>
     </g>
    </g>
    <g id="ytick_3">
     <g id="line2d_9">
      <g>
       <use xlink:href="#mf4ac66b879" x="28.942188" y="166.257328" style="stroke: #000000; stroke-width: 0.8"/>
      </g>
     </g>
     <g id="text_9">
      <!-- −1 -->
      <g transform="translate(7.2 170.056547) scale(0.1 -0.1)">
       <use xlink:href="#DejaVuSans-2212"/>
       <use xlink:href="#DejaVuSans-31" x="83.789062"/>
      </g>
     </g>
    </g>
    <g id="ytick_4">
     <g id="line2d_10">
      <g>
       <use xlink:href="#mf4ac66b879" x="28.942188" y="111.968069" style="stroke: #000000; stroke-width: 0.8"/>
      </g>
     </g>
     <g id="text_10">
      <!-- 0 -->
      <g transform="translate(15.579688 115.767287) scale(0.1 -0.1)">
       <use xlink:href="#DejaVuSans-30"/>
      </g>
     </g>
    </g>
    <g id="ytick_5">
     <g id="line2d_11">
      <g>
       <use xlink:href="#mf4ac66b879" x="28.942188" y="57.678809" style="stroke: #000000; stroke-width: 0.8"/>
      </g>
     </g>
     <g id="text_11">
      <!-- 1 -->
      <g transform="translate(15.579688 61.478028) scale(0.1 -0.1)">
       <use xlink:href="#DejaVuSans-31"/>
      </g>
     </g>
    </g>
   </g>
   <g id="line2d_12">
    <path d="M 59.378551 173.487814 
L 71.801557 167.12173 
L 84.224562 160.678691 
L 96.647568 154.208141 
L 109.070573 147.764424 
L 121.493579 141.406035 
L 133.916585 135.191864 
L 146.33959 129.175176 
L 158.762596 123.396642 
L 171.185601 117.877632 
L 183.608607 112.615191 
L 196.031612 107.579513 
L 208.454618 102.714696 
L 220.877623 97.942857 
L 233.300629 93.171425 
L 245.723635 88.303155 
L 258.14664 83.247793 
L 270.569646 77.934474 
L 282.992651 72.323389 
L 295.415657 66.415527 
L 307.838662 60.25909 
L 320.261668 53.951545 
L 332.684674 47.636749 
L 345.107679 41.496933 
L 357.530685 35.740305 
L 369.95369 30.585447 
L 382.376696 26.244273 
L 394.799701 22.905704 
L 407.222707 20.722105 
L 419.645713 19.8 
L 432.068718 20.196186 
L 444.491724 21.919292 
L 456.914729 24.935906 
L 469.337735 29.179733 
L 481.76074 34.561809 
L 494.183746 40.979598 
L 506.606752 48.323206 
L 519.029757 56.477662 
L 531.452763 65.321056 
L 543.875768 74.719275 
L 556.298774 84.519016 
L 568.721779 94.541079 
L 581.144785 104.576375 
L 593.56779 114.386403 
L 605.990796 123.709739 
L 618.413802 132.274565 
L 630.836807 139.816532 
L 643.259813 146.099963 
L 655.682818 150.939631 
L 668.105824 154.219938 
" clip-path="url(#p780395964b)" style="fill: none; stroke: #1f77b4; stroke-opacity: 0.5; stroke-width: 1.5; stroke-linecap: square"/>
   </g>
   <g id="line2d_13">
    <path d="M 59.378551 237.749428 
L 71.801557 248.342624 
L 84.224562 257.476353 
L 96.647568 264.6663 
L 109.070573 269.527297 
L 121.493579 271.8 
L 133.916585 271.367615 
L 146.33959 268.261574 
L 158.762596 262.656038 
L 171.185601 254.852028 
L 183.608607 245.252915 
L 196.031612 234.333556 
L 208.454618 222.605778 
L 220.877623 210.583127 
L 233.300629 198.747584 
L 245.723635 187.52058 
L 258.14664 177.240303 
L 270.569646 168.146513 
L 282.992651 160.373444 
L 295.415657 153.950875 
L 307.838662 148.812655 
L 320.261668 144.811599 
L 332.684674 141.739156 
L 345.107679 139.347946 
L 357.530685 137.375222 
L 369.95369 135.565143 
L 382.376696 133.688042 
L 394.799701 131.555158 
L 407.222707 129.027895 
L 419.645713 126.021173 
L 432.068718 122.501259 
L 444.491724 118.478992 
L 456.914729 113.999942 
L 469.337735 109.133353 
L 481.76074 103.961675 
L 494.183746 98.572367 
L 506.606752 93.053034 
L 519.029757 87.490184 
L 531.452763 81.971226 
L 543.875768 76.588331 
L 556.298774 71.442599 
L 568.721779 66.646449 
L 581.144785 62.322729 
L 593.56779 58.599324 
L 605.990796 55.599191 
L 618.413802 53.426567 
L 630.836807 52.151201 
L 643.259813 51.792968 
L 655.682818 52.309728 
L 668.105824 53.590987 
" clip-path="url(#p780395964b)" style="fill: none; stroke: #ff7f0e; stroke-opacity: 0.5; stroke-width: 1.5; stroke-linecap: square"/>
   </g>
   <g id="line2d_14">
    <path d="M 59.378551 142.102191 
L 71.801557 140.133854 
L 84.224562 137.036 
L 96.647568 132.912987 
L 109.070573 127.933307 
L 121.493579 122.319312 
L 133.916585 116.33133 
L 146.33959 110.247715 
L 158.762596 104.342964 
L 171.185601 98.866331 
L 183.608607 94.023631 
L 196.031612 89.964205 
L 208.454618 86.774598 
L 220.877623 84.479211 
L 233.300629 83.047111 
L 245.723635 82.403264 
L 258.14664 82.441786 
L 270.569646 83.038549 
L 282.992651 84.061223 
L 295.415657 85.375582 
L 307.838662 86.848074 
L 320.261668 88.345976 
L 332.684674 89.737155 
L 345.107679 90.891593 
L 357.530685 91.686544 
L 369.95369 92.016043 
L 382.376696 91.804076 
L 394.799701 91.019527 
L 407.222707 89.689806 
L 419.645713 87.909991 
L 432.068718 85.844452 
L 444.491724 83.719386 
L 456.914729 81.805878 
L 469.337735 80.395068 
L 481.76074 79.768299 
L 494.183746 80.165908 
L 506.606752 81.758735 
L 519.029757 84.625763 
L 531.452763 88.740427 
L 543.875768 93.966906 
L 556.298774 100.066374 
L 568.721779 106.71218 
L 581.144785 113.512081 
L 593.56779 120.035328 
L 605.990796 125.842178 
L 618.413802 130.51351 
L 630.836807 133.678592 
L 643.259813 135.039214 
L 655.682818 134.388752 
L 668.105824 131.625216 
" clip-path="url(#p780395964b)" style="fill: none; stroke: #2ca02c; stroke-opacity: 0.5; stroke-width: 1.5; stroke-linecap: square"/>
   </g>
   <g id="line2d_15">
    <path d="M 59.378551 95.504564 
L 71.801557 85.681106 
L 84.224562 76.675739 
L 96.647568 68.783028 
L 109.070573 62.294924 
L 121.493579 57.479664 
L 133.916585 54.560086 
L 146.33959 53.694185 
L 158.762596 54.960188 
L 171.185601 58.347826 
L 183.608607 63.756544 
L 196.031612 71.000295 
L 208.454618 79.817905 
L 220.877623 89.88731 
L 233.300629 100.841827 
L 245.723635 112.286898 
L 258.14664 123.815973 
L 270.569646 135.025053 
L 282.992651 145.525744 
L 295.415657 154.957313 
L 307.838662 162.998311 
L 320.261668 169.378292 
L 332.684674 173.88984 
L 345.107679 176.400628 
L 357.530685 176.864711 
L 369.95369 175.331863 
L 382.376696 171.953288 
L 394.799701 166.982268 
L 407.222707 160.768194 
L 419.645713 153.743137 
L 432.068718 146.400666 
L 444.491724 139.267556 
L 456.914729 132.869891 
L 469.337735 127.695981 
L 481.76074 124.159391 
L 494.183746 122.565495 
L 506.606752 123.08541 
L 519.029757 125.740358 
L 531.452763 130.398751 
L 543.875768 136.786958 
L 556.298774 144.512834 
L 568.721779 153.099908 
L 581.144785 162.028257 
L 593.56779 170.777541 
L 605.990796 178.86721 
L 618.413802 185.889495 
L 630.836807 191.531867 
L 643.259813 195.587239 
L 655.682818 197.952136 
L 668.105824 198.614563 
" clip-path="url(#p780395964b)" style="fill: none; stroke: #d62728; stroke-opacity: 0.5; stroke-width: 1.5; stroke-linecap: square"/>
   </g>
   <g id="line2d_16">
    <path d="M 59.378551 75.69561 
L 71.801557 67.580563 
L 84.224562 61.28843 
L 96.647568 56.878632 
L 109.070573 54.327427 
L 121.493579 53.535182 
L 133.916585 54.339593 
L 146.33959 56.532941 
L 158.762596 59.880714 
L 171.185601 64.139177 
L 183.608607 69.06965 
L 196.031612 74.448321 
L 208.454618 80.071378 
L 220.877623 85.756201 
L 233.300629 91.340306 
L 245.723635 96.680035 
L 258.14664 101.650786 
L 270.569646 106.150098 
L 282.992651 110.103812 
L 295.415657 113.474551 
L 307.838662 116.270696 
L 320.261668 118.553479 
L 332.684674 120.43965 
L 345.107679 122.097909 
L 357.530685 123.737908 
L 369.95369 125.592231 
L 382.376696 127.892944 
L 394.799701 130.845438 
L 407.222707 134.602958 
L 419.645713 139.245389 
L 432.068718 144.765369 
L 444.491724 151.063873 
L 456.914729 157.956158 
L 469.337735 165.187673 
L 481.76074 172.45815 
L 494.183746 179.451177 
L 506.606752 185.865882 
L 519.029757 191.447061 
L 531.452763 196.010455 
L 543.875768 199.460267 
L 556.298774 201.797093 
L 568.721779 203.115317 
L 581.144785 203.590548 
L 593.56779 203.458386 
L 605.990796 202.987238 
L 618.413802 202.448124 
L 630.836807 202.085031 
L 643.259813 202.089075 
L 655.682818 202.579026 
L 668.105824 203.590207 
" clip-path="url(#p780395964b)" style="fill: none; stroke: #9467bd; stroke-opacity: 0.5; stroke-width: 1.5; stroke-linecap: square"/>
   </g>
   <g id="patch_3">
    <path d="M 28.942188 284.4 
L 28.942188 7.2 
" style="fill: none; stroke: #000000; stroke-width: 0.8; stroke-linejoin: miter; stroke-linecap: square"/>
   </g>
   <g id="patch_4">
    <path d="M 698.542188 284.4 
L 698.542188 7.2 
" style="fill: none; stroke: #000000; stroke-width: 0.8; stroke-linejoin: miter; stroke-linecap: square"/>
   </g>
   <g id="patch_5">
    <path d="M 28.942188 284.4 
L 698.542188 284.4 
" style="fill: none; stroke: #000000; stroke-width: 0.8; stroke-linejoin: miter; stroke-linecap: square"/>
   </g>
   <g id="patch_6">
    <path d="M 28.942188 7.2 
L 698.542188 7.2 
" style="fill: none; stroke: #000000; stroke-width: 0.8; stroke-linejoin: miter; stroke-linecap: square"/>
   </g>
  </g>
 </g>
 <defs>
  <clipPath id="p780395964b">
   <rect x="28.942188" y="7.2" width="669.6" height="277.2"/>
  </clipPath>
 </defs>
</svg>
