<?xml version="1.0" encoding="utf-8" standalone="no"?>
<!DOCTYPE svg PUBLIC "-//W3C//DTD SVG 1.1//EN"
  "http://www.w3.org/Graphics/SVG/1.1/DTD/svg11.dtd">
<svg xmlns:xlink="http://www.w3.org/1999/xlink" width="231.442188pt" height="169.678125pt" viewBox="0 0 231.442188 169.678125" xmlns="http://www.w3.org/2000/svg" version="1.1">
 <metadata>
  <rdf:RDF xmlns:dc="http://purl.org/dc/elements/1.1/" xmlns:cc="http://creativecommons.org/ns#" xmlns:rdf="http://www.w3.org/1999/02/22-rdf-syntax-ns#">
   <cc:Work>
    <dc:type rdf:resource="http://purl.org/dc/dcmitype/StillImage"/>
    <dc:date>2025-07-11T19:44:53.953603</dc:date>
    <dc:format>image/svg+xml</dc:format>
    <dc:creator>
     <cc:Agent>
      <dc:title>Matplotlib v3.6.1, https://matplotlib.org/</dc:title>
     </cc:Agent>
    </dc:creator>
   </cc:Work>
  </rdf:RDF>
 </metadata>
 <defs>
  <style type="text/css">*{stroke-linejoin: round; stroke-linecap: butt}</style>
 </defs>
 <g id="figure_1">
  <g id="patch_1">
   <path d="M 0 169.678125 
L 231.442188 169.678125 
L 231.442188 0 
L 0 0 
z
" style="fill: #ffffff"/>
  </g>
  <g id="axes_1">
   <g id="patch_2">
    <path d="M 28.942188 145.8 
L 224.242188 145.8 
L 224.242188 7.2 
L 28.942188 7.2 
z
" style="fill: #ffffff"/>
   </g>
   <g id="PathCollection_1">
    <defs>
     <path id="m720a62bc9a" d="M 0 3 
C 0.795609 3 1.55874 2.683901 2.12132 2.12132 
C 2.683901 1.55874 3 0.795609 3 0 
C 3 -0.795609 2.683901 -1.55874 2.12132 -2.12132 
C 1.55874 -2.683901 0.795609 -3 0 -3 
C -0.795609 -3 -1.55874 -2.683901 -2.12132 -2.12132 
C -2.683901 -1.55874 -3 -0.795609 -3 0 
C -3 0.795609 -2.683901 1.55874 -2.12132 2.12132 
C -1.55874 2.683901 -0.795609 3 0 3 
z
" style="stroke: #1f77b4"/>
    </defs>
    <g clip-path="url(#p7ae4c4d03a)">
     <use xlink:href="#m720a62bc9a" x="158.955549" y="56.637939" style="fill: #1f77b4; stroke: #1f77b4"/>
     <use xlink:href="#m720a62bc9a" x="199.355199" y="23.010062" style="fill: #1f77b4; stroke: #1f77b4"/>
     <use xlink:href="#m720a62bc9a" x="102.643337" y="89.7383" style="fill: #1f77b4; stroke: #1f77b4"/>
     <use xlink:href="#m720a62bc9a" x="138.951089" y="73.899407" style="fill: #1f77b4; stroke: #1f77b4"/>
     <use xlink:href="#m720a62bc9a" x="158.794799" y="63.112626" style="fill: #1f77b4; stroke: #1f77b4"/>
     <use xlink:href="#m720a62bc9a" x="150.47862" y="56.253963" style="fill: #1f77b4; stroke: #1f77b4"/>
     <use xlink:href="#m720a62bc9a" x="37.81946" y="130.458291" style="fill: #1f77b4; stroke: #1f77b4"/>
     <use xlink:href="#m720a62bc9a" x="119.442133" y="75.815201" style="fill: #1f77b4; stroke: #1f77b4"/>
     <use xlink:href="#m720a62bc9a" x="133.455406" y="74.351912" style="fill: #1f77b4; stroke: #1f77b4"/>
     <use xlink:href="#m720a62bc9a" x="116.06776" y="65.262057" style="fill: #1f77b4; stroke: #1f77b4"/>
     <use xlink:href="#m720a62bc9a" x="119.799036" y="90.294028" style="fill: #1f77b4; stroke: #1f77b4"/>
     <use xlink:href="#m720a62bc9a" x="152.366185" y="60.757481" style="fill: #1f77b4; stroke: #1f77b4"/>
     <use xlink:href="#m720a62bc9a" x="155.870631" y="32.975771" style="fill: #1f77b4; stroke: #1f77b4"/>
     <use xlink:href="#m720a62bc9a" x="197.048401" y="14.887898" style="fill: #1f77b4; stroke: #1f77b4"/>
     <use xlink:href="#m720a62bc9a" x="118.100648" y="97.457262" style="fill: #1f77b4; stroke: #1f77b4"/>
     <use xlink:href="#m720a62bc9a" x="64.813613" y="123.937429" style="fill: #1f77b4; stroke: #1f77b4"/>
     <use xlink:href="#m720a62bc9a" x="149.298759" y="54.537143" style="fill: #1f77b4; stroke: #1f77b4"/>
     <use xlink:href="#m720a62bc9a" x="80.396429" y="102.65594" style="fill: #1f77b4; stroke: #1f77b4"/>
     <use xlink:href="#m720a62bc9a" x="135.824035" y="76.868313" style="fill: #1f77b4; stroke: #1f77b4"/>
     <use xlink:href="#m720a62bc9a" x="170.970118" y="44.361832" style="fill: #1f77b4; stroke: #1f77b4"/>
     <use xlink:href="#m720a62bc9a" x="143.88879" y="66.670025" style="fill: #1f77b4; stroke: #1f77b4"/>
     <use xlink:href="#m720a62bc9a" x="119.491708" y="83.206427" style="fill: #1f77b4; stroke: #1f77b4"/>
     <use xlink:href="#m720a62bc9a" x="144.08304" y="66.530261" style="fill: #1f77b4; stroke: #1f77b4"/>
     <use xlink:href="#m720a62bc9a" x="111.523166" y="84.321319" style="fill: #1f77b4; stroke: #1f77b4"/>
     <use xlink:href="#m720a62bc9a" x="81.785865" y="118.32112" style="fill: #1f77b4; stroke: #1f77b4"/>
     <use xlink:href="#m720a62bc9a" x="172.894155" y="26.683178" style="fill: #1f77b4; stroke: #1f77b4"/>
     <use xlink:href="#m720a62bc9a" x="160.471806" y="50.561325" style="fill: #1f77b4; stroke: #1f77b4"/>
     <use xlink:href="#m720a62bc9a" x="84.392548" y="116.371507" style="fill: #1f77b4; stroke: #1f77b4"/>
     <use xlink:href="#m720a62bc9a" x="202.03196" y="20.304486" style="fill: #1f77b4; stroke: #1f77b4"/>
     <use xlink:href="#m720a62bc9a" x="103.997293" y="91.570402" style="fill: #1f77b4; stroke: #1f77b4"/>
     <use xlink:href="#m720a62bc9a" x="105.622714" y="88.027334" style="fill: #1f77b4; stroke: #1f77b4"/>
     <use xlink:href="#m720a62bc9a" x="82.888744" y="119.407437" style="fill: #1f77b4; stroke: #1f77b4"/>
     <use xlink:href="#m720a62bc9a" x="58.481314" y="112.405982" style="fill: #1f77b4; stroke: #1f77b4"/>
     <use xlink:href="#m720a62bc9a" x="76.922248" y="113.768323" style="fill: #1f77b4; stroke: #1f77b4"/>
     <use xlink:href="#m720a62bc9a" x="110.177264" y="75.591695" style="fill: #1f77b4; stroke: #1f77b4"/>
     <use xlink:href="#m720a62bc9a" x="163.895498" y="47.680724" style="fill: #1f77b4; stroke: #1f77b4"/>
     <use xlink:href="#m720a62bc9a" x="129.334237" y="82.754247" style="fill: #1f77b4; stroke: #1f77b4"/>
     <use xlink:href="#m720a62bc9a" x="124.837966" y="72.961409" style="fill: #1f77b4; stroke: #1f77b4"/>
     <use xlink:href="#m720a62bc9a" x="154.338819" y="43.078226" style="fill: #1f77b4; stroke: #1f77b4"/>
     <use xlink:href="#m720a62bc9a" x="131.022888" y="64.924542" style="fill: #1f77b4; stroke: #1f77b4"/>
     <use xlink:href="#m720a62bc9a" x="140.185405" y="61.046877" style="fill: #1f77b4; stroke: #1f77b4"/>
     <use xlink:href="#m720a62bc9a" x="182.124895" y="30.709735" style="fill: #1f77b4; stroke: #1f77b4"/>
     <use xlink:href="#m720a62bc9a" x="171.018007" y="31.72601" style="fill: #1f77b4; stroke: #1f77b4"/>
     <use xlink:href="#m720a62bc9a" x="71.348406" y="117.229256" style="fill: #1f77b4; stroke: #1f77b4"/>
     <use xlink:href="#m720a62bc9a" x="135.105479" y="54.965408" style="fill: #1f77b4; stroke: #1f77b4"/>
     <use xlink:href="#m720a62bc9a" x="140.685771" y="69.172786" style="fill: #1f77b4; stroke: #1f77b4"/>
     <use xlink:href="#m720a62bc9a" x="134.804143" y="68.552984" style="fill: #1f77b4; stroke: #1f77b4"/>
     <use xlink:href="#m720a62bc9a" x="109.497541" y="100.815737" style="fill: #1f77b4; stroke: #1f77b4"/>
     <use xlink:href="#m720a62bc9a" x="103.436198" y="80.401339" style="fill: #1f77b4; stroke: #1f77b4"/>
     <use xlink:href="#m720a62bc9a" x="84.095541" y="104.338663" style="fill: #1f77b4; stroke: #1f77b4"/>
     <use xlink:href="#m720a62bc9a" x="90.144814" y="83.851451" style="fill: #1f77b4; stroke: #1f77b4"/>
     <use xlink:href="#m720a62bc9a" x="155.934028" y="59.253906" style="fill: #1f77b4; stroke: #1f77b4"/>
     <use xlink:href="#m720a62bc9a" x="139.499101" y="80.560781" style="fill: #1f77b4; stroke: #1f77b4"/>
     <use xlink:href="#m720a62bc9a" x="189.200097" y="40.346813" style="fill: #1f77b4; stroke: #1f77b4"/>
     <use xlink:href="#m720a62bc9a" x="150.332663" y="52.527418" style="fill: #1f77b4; stroke: #1f77b4"/>
     <use xlink:href="#m720a62bc9a" x="121.814914" y="79.868223" style="fill: #1f77b4; stroke: #1f77b4"/>
     <use xlink:href="#m720a62bc9a" x="107.243281" y="87.558713" style="fill: #1f77b4; stroke: #1f77b4"/>
     <use xlink:href="#m720a62bc9a" x="145.598882" y="46.102123" style="fill: #1f77b4; stroke: #1f77b4"/>
     <use xlink:href="#m720a62bc9a" x="45.594656" y="139.5" style="fill: #1f77b4; stroke: #1f77b4"/>
     <use xlink:href="#m720a62bc9a" x="188.956749" y="29.521102" style="fill: #1f77b4; stroke: #1f77b4"/>
     <use xlink:href="#m720a62bc9a" x="116.095383" y="79.352654" style="fill: #1f77b4; stroke: #1f77b4"/>
     <use xlink:href="#m720a62bc9a" x="119.909507" y="64.873381" style="fill: #1f77b4; stroke: #1f77b4"/>
     <use xlink:href="#m720a62bc9a" x="151.210486" y="63.410801" style="fill: #1f77b4; stroke: #1f77b4"/>
     <use xlink:href="#m720a62bc9a" x="206.962151" y="13.5" style="fill: #1f77b4; stroke: #1f77b4"/>
     <use xlink:href="#m720a62bc9a" x="165.934766" y="60.160923" style="fill: #1f77b4; stroke: #1f77b4"/>
     <use xlink:href="#m720a62bc9a" x="157.90862" y="52.146125" style="fill: #1f77b4; stroke: #1f77b4"/>
     <use xlink:href="#m720a62bc9a" x="199.909387" y="27.631017" style="fill: #1f77b4; stroke: #1f77b4"/>
     <use xlink:href="#m720a62bc9a" x="117.740431" y="72.051338" style="fill: #1f77b4; stroke: #1f77b4"/>
     <use xlink:href="#m720a62bc9a" x="71.997437" y="107.671629" style="fill: #1f77b4; stroke: #1f77b4"/>
     <use xlink:href="#m720a62bc9a" x="123.175765" y="81.591983" style="fill: #1f77b4; stroke: #1f77b4"/>
     <use xlink:href="#m720a62bc9a" x="109.548709" y="75.393369" style="fill: #1f77b4; stroke: #1f77b4"/>
     <use xlink:href="#m720a62bc9a" x="155.96693" y="56.456319" style="fill: #1f77b4; stroke: #1f77b4"/>
     <use xlink:href="#m720a62bc9a" x="95.512581" y="109.355236" style="fill: #1f77b4; stroke: #1f77b4"/>
     <use xlink:href="#m720a62bc9a" x="161.364873" y="40.834064" style="fill: #1f77b4; stroke: #1f77b4"/>
     <use xlink:href="#m720a62bc9a" x="80.679808" y="127.068256" style="fill: #1f77b4; stroke: #1f77b4"/>
     <use xlink:href="#m720a62bc9a" x="146.322494" y="72.453193" style="fill: #1f77b4; stroke: #1f77b4"/>
     <use xlink:href="#m720a62bc9a" x="91.777836" y="91.241612" style="fill: #1f77b4; stroke: #1f77b4"/>
     <use xlink:href="#m720a62bc9a" x="82.150208" y="83.368773" style="fill: #1f77b4; stroke: #1f77b4"/>
     <use xlink:href="#m720a62bc9a" x="117.623359" y="80.300279" style="fill: #1f77b4; stroke: #1f77b4"/>
     <use xlink:href="#m720a62bc9a" x="166.134276" y="42.442489" style="fill: #1f77b4; stroke: #1f77b4"/>
     <use xlink:href="#m720a62bc9a" x="86.409793" y="105.017171" style="fill: #1f77b4; stroke: #1f77b4"/>
     <use xlink:href="#m720a62bc9a" x="180.832318" y="34.067202" style="fill: #1f77b4; stroke: #1f77b4"/>
     <use xlink:href="#m720a62bc9a" x="126.091607" y="70.846217" style="fill: #1f77b4; stroke: #1f77b4"/>
     <use xlink:href="#m720a62bc9a" x="83.276492" y="103.307057" style="fill: #1f77b4; stroke: #1f77b4"/>
     <use xlink:href="#m720a62bc9a" x="76.743995" y="98.024161" style="fill: #1f77b4; stroke: #1f77b4"/>
     <use xlink:href="#m720a62bc9a" x="137.328378" y="64.098632" style="fill: #1f77b4; stroke: #1f77b4"/>
     <use xlink:href="#m720a62bc9a" x="135.718074" y="59.854812" style="fill: #1f77b4; stroke: #1f77b4"/>
     <use xlink:href="#m720a62bc9a" x="167.154331" y="42.185246" style="fill: #1f77b4; stroke: #1f77b4"/>
     <use xlink:href="#m720a62bc9a" x="143.243542" y="62.737365" style="fill: #1f77b4; stroke: #1f77b4"/>
     <use xlink:href="#m720a62bc9a" x="137.171155" y="60.859202" style="fill: #1f77b4; stroke: #1f77b4"/>
     <use xlink:href="#m720a62bc9a" x="132.129877" y="63.118406" style="fill: #1f77b4; stroke: #1f77b4"/>
     <use xlink:href="#m720a62bc9a" x="112.556085" y="84.613218" style="fill: #1f77b4; stroke: #1f77b4"/>
     <use xlink:href="#m720a62bc9a" x="173.688335" y="44.206605" style="fill: #1f77b4; stroke: #1f77b4"/>
     <use xlink:href="#m720a62bc9a" x="138.351715" y="90.890473" style="fill: #1f77b4; stroke: #1f77b4"/>
     <use xlink:href="#m720a62bc9a" x="105.506492" y="103.443247" style="fill: #1f77b4; stroke: #1f77b4"/>
     <use xlink:href="#m720a62bc9a" x="116.186629" y="80.002633" style="fill: #1f77b4; stroke: #1f77b4"/>
     <use xlink:href="#m720a62bc9a" x="89.386645" y="109.371298" style="fill: #1f77b4; stroke: #1f77b4"/>
     <use xlink:href="#m720a62bc9a" x="164.835223" y="46.789376" style="fill: #1f77b4; stroke: #1f77b4"/>
     <use xlink:href="#m720a62bc9a" x="215.364915" y="24.801401" style="fill: #1f77b4; stroke: #1f77b4"/>
     <use xlink:href="#m720a62bc9a" x="161.796742" y="55.461282" style="fill: #1f77b4; stroke: #1f77b4"/>
    </g>
   </g>
   <g id="matplotlib.axis_1">
    <g id="xtick_1">
     <g id="line2d_1">
      <defs>
       <path id="m562eb03221" d="M 0 0 
L 0 3.5 
" style="stroke: #000000; stroke-width: 0.8"/>
      </defs>
      <g>
       <use xlink:href="#m562eb03221" x="37.353003" y="145.8" style="stroke: #000000; stroke-width: 0.8"/>
      </g>
     </g>
     <g id="text_1">
      <!-- −2 -->
      <g transform="translate(29.981909 160.398438) scale(0.1 -0.1)">
       <defs>
        <path id="DejaVuSans-2212" d="M 678 2272 
L 4684 2272 
L 4684 1741 
L 678 1741 
L 678 2272 
z
" transform="scale(0.015625)"/>
        <path id="DejaVuSans-32" d="M 1228 531 
L 3431 531 
L 3431 0 
L 469 0 
L 469 531 
Q 828 903 1448 1529 
Q 2069 2156 2228 2338 
Q 2531 2678 2651 2914 
Q 2772 3150 2772 3378 
Q 2772 3750 2511 3984 
Q 2250 4219 1831 4219 
Q 1534 4219 1204 4116 
Q 875 4013 500 3803 
L 500 4441 
Q 881 4594 1212 4672 
Q 1544 4750 1819 4750 
Q 2544 4750 2975 4387 
Q 3406 4025 3406 3419 
Q 3406 3131 3298 2873 
Q 3191 2616 2906 2266 
Q 2828 2175 2409 1742 
Q 1991 1309 1228 531 
z
" transform="scale(0.015625)"/>
       </defs>
       <use xlink:href="#DejaVuSans-2212"/>
       <use xlink:href="#DejaVuSans-32" x="83.789062"/>
      </g>
     </g>
    </g>
    <g id="xtick_2">
     <g id="line2d_2">
      <g>
       <use xlink:href="#m562eb03221" x="69.939574" y="145.8" style="stroke: #000000; stroke-width: 0.8"/>
      </g>
     </g>
     <g id="text_2">
      <!-- −1 -->
      <g transform="translate(62.56848 160.398438) scale(0.1 -0.1)">
       <defs>
        <path id="DejaVuSans-31" d="M 794 531 
L 1825 531 
L 1825 4091 
L 703 3866 
L 703 4441 
L 1819 4666 
L 2450 4666 
L 2450 531 
L 3481 531 
L 3481 0 
L 794 0 
L 794 531 
z
" transform="scale(0.015625)"/>
       </defs>
       <use xlink:href="#DejaVuSans-2212"/>
       <use xlink:href="#DejaVuSans-31" x="83.789062"/>
      </g>
     </g>
    </g>
    <g id="xtick_3">
     <g id="line2d_3">
      <g>
       <use xlink:href="#m562eb03221" x="102.526146" y="145.8" style="stroke: #000000; stroke-width: 0.8"/>
      </g>
     </g>
     <g id="text_3">
      <!-- 0 -->
      <g transform="translate(99.344896 160.398438) scale(0.1 -0.1)">
       <defs>
        <path id="DejaVuSans-30" d="M 2034 4250 
Q 1547 4250 1301 3770 
Q 1056 3291 1056 2328 
Q 1056 1369 1301 889 
Q 1547 409 2034 409 
Q 2525 409 2770 889 
Q 3016 1369 3016 2328 
Q 3016 3291 2770 3770 
Q 2525 4250 2034 4250 
z
M 2034 4750 
Q 2819 4750 3233 4129 
Q 3647 3509 3647 2328 
Q 3647 1150 3233 529 
Q 2819 -91 2034 -91 
Q 1250 -91 836 529 
Q 422 1150 422 2328 
Q 422 3509 836 4129 
Q 1250 4750 2034 4750 
z
" transform="scale(0.015625)"/>
       </defs>
       <use xlink:href="#DejaVuSans-30"/>
      </g>
     </g>
    </g>
    <g id="xtick_4">
     <g id="line2d_4">
      <g>
       <use xlink:href="#m562eb03221" x="135.112718" y="145.8" style="stroke: #000000; stroke-width: 0.8"/>
      </g>
     </g>
     <g id="text_4">
      <!-- 1 -->
      <g transform="translate(131.931468 160.398438) scale(0.1 -0.1)">
       <use xlink:href="#DejaVuSans-31"/>
      </g>
     </g>
    </g>
    <g id="xtick_5">
     <g id="line2d_5">
      <g>
       <use xlink:href="#m562eb03221" x="167.699289" y="145.8" style="stroke: #000000; stroke-width: 0.8"/>
      </g>
     </g>
     <g id="text_5">
      <!-- 2 -->
      <g transform="translate(164.518039 160.398438) scale(0.1 -0.1)">
       <use xlink:href="#DejaVuSans-32"/>
      </g>
     </g>
    </g>
    <g id="xtick_6">
     <g id="line2d_6">
      <g>
       <use xlink:href="#m562eb03221" x="200.285861" y="145.8" style="stroke: #000000; stroke-width: 0.8"/>
      </g>
     </g>
     <g id="text_6">
      <!-- 3 -->
      <g transform="translate(197.104611 160.398438) scale(0.1 -0.1)">
       <defs>
        <path id="DejaVuSans-33" d="M 2597 2516 
Q 3050 2419 3304 2112 
Q 3559 1806 3559 1356 
Q 3559 666 3084 287 
Q 2609 -91 1734 -91 
Q 1441 -91 1130 -33 
Q 819 25 488 141 
L 488 750 
Q 750 597 1062 519 
Q 1375 441 1716 441 
Q 2309 441 2620 675 
Q 2931 909 2931 1356 
Q 2931 1769 2642 2001 
Q 2353 2234 1838 2234 
L 1294 2234 
L 1294 2753 
L 1863 2753 
Q 2328 2753 2575 2939 
Q 2822 3125 2822 3475 
Q 2822 3834 2567 4026 
Q 2313 4219 1838 4219 
Q 1578 4219 1281 4162 
Q 984 4106 628 3988 
L 628 4550 
Q 988 4650 1302 4700 
Q 1616 4750 1894 4750 
Q 2613 4750 3031 4423 
Q 3450 4097 3450 3541 
Q 3450 3153 3228 2886 
Q 3006 2619 2597 2516 
z
" transform="scale(0.015625)"/>
       </defs>
       <use xlink:href="#DejaVuSans-33"/>
      </g>
     </g>
    </g>
   </g>
   <g id="matplotlib.axis_2">
    <g id="ytick_1">
     <g id="line2d_7">
      <defs>
       <path id="mb2f86cc224" d="M 0 0 
L -3.5 0 
" style="stroke: #000000; stroke-width: 0.8"/>
      </defs>
      <g>
       <use xlink:href="#mb2f86cc224" x="28.942188" y="140.327595" style="stroke: #000000; stroke-width: 0.8"/>
      </g>
     </g>
     <g id="text_7">
      <!-- −4 -->
      <g transform="translate(7.2 144.126813) scale(0.1 -0.1)">
       <defs>
        <path id="DejaVuSans-34" d="M 2419 4116 
L 825 1625 
L 2419 1625 
L 2419 4116 
z
M 2253 4666 
L 3047 4666 
L 3047 1625 
L 3713 1625 
L 3713 1100 
L 3047 1100 
L 3047 0 
L 2419 0 
L 2419 1100 
L 313 1100 
L 313 1709 
L 2253 4666 
z
" transform="scale(0.015625)"/>
       </defs>
       <use xlink:href="#DejaVuSans-2212"/>
       <use xlink:href="#DejaVuSans-34" x="83.789062"/>
      </g>
     </g>
    </g>
    <g id="ytick_2">
     <g id="line2d_8">
      <g>
       <use xlink:href="#mb2f86cc224" x="28.942188" y="116.094424" style="stroke: #000000; stroke-width: 0.8"/>
      </g>
     </g>
     <g id="text_8">
      <!-- −2 -->
      <g transform="translate(7.2 119.893642) scale(0.1 -0.1)">
       <use xlink:href="#DejaVuSans-2212"/>
       <use xlink:href="#DejaVuSans-32" x="83.789062"/>
      </g>
     </g>
    </g>
    <g id="ytick_3">
     <g id="line2d_9">
      <g>
       <use xlink:href="#mb2f86cc224" x="28.942188" y="91.861252" style="stroke: #000000; stroke-width: 0.8"/>
      </g>
     </g>
     <g id="text_9">
      <!-- 0 -->
      <g transform="translate(15.579688 95.660471) scale(0.1 -0.1)">
       <use xlink:href="#DejaVuSans-30"/>
      </g>
     </g>
    </g>
    <g id="ytick_4">
     <g id="line2d_10">
      <g>
       <use xlink:href="#mb2f86cc224" x="28.942188" y="67.628081" style="stroke: #000000; stroke-width: 0.8"/>
      </g>
     </g>
     <g id="text_10">
      <!-- 2 -->
      <g transform="translate(15.579688 71.4273) scale(0.1 -0.1)">
       <use xlink:href="#DejaVuSans-32"/>
      </g>
     </g>
    </g>
    <g id="ytick_5">
     <g id="line2d_11">
      <g>
       <use xlink:href="#mb2f86cc224" x="28.942188" y="43.39491" style="stroke: #000000; stroke-width: 0.8"/>
      </g>
     </g>
     <g id="text_11">
      <!-- 4 -->
      <g transform="translate(15.579688 47.194129) scale(0.1 -0.1)">
       <use xlink:href="#DejaVuSans-34"/>
      </g>
     </g>
    </g>
    <g id="ytick_6">
     <g id="line2d_12">
      <g>
       <use xlink:href="#mb2f86cc224" x="28.942188" y="19.161739" style="stroke: #000000; stroke-width: 0.8"/>
      </g>
     </g>
     <g id="text_12">
      <!-- 6 -->
      <g transform="translate(15.579688 22.960958) scale(0.1 -0.1)">
       <defs>
        <path id="DejaVuSans-36" d="M 2113 2584 
Q 1688 2584 1439 2293 
Q 1191 2003 1191 1497 
Q 1191 994 1439 701 
Q 1688 409 2113 409 
Q 2538 409 2786 701 
Q 3034 994 3034 1497 
Q 3034 2003 2786 2293 
Q 2538 2584 2113 2584 
z
M 3366 4563 
L 3366 3988 
Q 3128 4100 2886 4159 
Q 2644 4219 2406 4219 
Q 1781 4219 1451 3797 
Q 1122 3375 1075 2522 
Q 1259 2794 1537 2939 
Q 1816 3084 2150 3084 
Q 2853 3084 3261 2657 
Q 3669 2231 3669 1497 
Q 3669 778 3244 343 
Q 2819 -91 2113 -91 
Q 1303 -91 875 529 
Q 447 1150 447 2328 
Q 447 3434 972 4092 
Q 1497 4750 2381 4750 
Q 2619 4750 2861 4703 
Q 3103 4656 3366 4563 
z
" transform="scale(0.015625)"/>
       </defs>
       <use xlink:href="#DejaVuSans-36"/>
      </g>
     </g>
    </g>
   </g>
   <g id="patch_3">
    <path d="M 28.942188 145.8 
L 28.942188 7.2 
" style="fill: none; stroke: #000000; stroke-width: 0.8; stroke-linejoin: miter; stroke-linecap: square"/>
   </g>
   <g id="patch_4">
    <path d="M 224.242188 145.8 
L 224.242188 7.2 
" style="fill: none; stroke: #000000; stroke-width: 0.8; stroke-linejoin: miter; stroke-linecap: square"/>
   </g>
   <g id="patch_5">
    <path d="M 28.942188 145.8 
L 224.242188 145.8 
" style="fill: none; stroke: #000000; stroke-width: 0.8; stroke-linejoin: miter; stroke-linecap: square"/>
   </g>
   <g id="patch_6">
    <path d="M 28.942188 7.2 
L 224.242188 7.2 
" style="fill: none; stroke: #000000; stroke-width: 0.8; stroke-linejoin: miter; stroke-linecap: square"/>
   </g>
  </g>
 </g>
 <defs>
  <clipPath id="p7ae4c4d03a">
   <rect x="28.942188" y="7.2" width="195.3" height="138.6"/>
  </clipPath>
 </defs>
</svg>
