<?xml version="1.0" encoding="utf-8" standalone="no"?>
<!DOCTYPE svg PUBLIC "-//W3C//DTD SVG 1.1//EN"
  "http://www.w3.org/Graphics/SVG/1.1/DTD/svg11.dtd">
<svg xmlns:xlink="http://www.w3.org/1999/xlink" width="231.442187pt" height="172.711354pt" viewBox="0 0 231.442187 172.711354" xmlns="http://www.w3.org/2000/svg" version="1.1">
 <metadata>
  <rdf:RDF xmlns:dc="http://purl.org/dc/elements/1.1/" xmlns:cc="http://creativecommons.org/ns#" xmlns:rdf="http://www.w3.org/1999/02/22-rdf-syntax-ns#">
   <cc:Work>
    <dc:type rdf:resource="http://purl.org/dc/dcmitype/StillImage"/>
    <dc:date>2025-06-14T14:42:24.367700</dc:date>
    <dc:format>image/svg+xml</dc:format>
    <dc:creator>
     <cc:Agent>
      <dc:title>Matplotlib v3.6.1, https://matplotlib.org/</dc:title>
     </cc:Agent>
    </dc:creator>
   </cc:Work>
  </rdf:RDF>
 </metadata>
 <defs>
  <style type="text/css">*{stroke-linejoin: round; stroke-linecap: butt}</style>
 </defs>
 <g id="figure_1">
  <g id="patch_1">
   <path d="M 0 172.711354 
L 231.442187 172.711354 
L 231.442187 0 
L 0 0 
z
" style="fill: #ffffff"/>
  </g>
  <g id="axes_1">
   <g id="patch_2">
    <path d="M 28.942188 148.833229 
L 224.242188 148.833229 
L 224.242188 10.233229 
L 28.942188 10.233229 
z
" style="fill: #ffffff"/>
   </g>
   <g id="PathCollection_1">
    <defs>
     <path id="m0867c49020" d="M 0 3 
C 0.795609 3 1.55874 2.683901 2.12132 2.12132 
C 2.683901 1.55874 3 0.795609 3 0 
C 3 -0.795609 2.683901 -1.55874 2.12132 -2.12132 
C 1.55874 -2.683901 0.795609 -3 0 -3 
C -0.795609 -3 -1.55874 -2.683901 -2.12132 -2.12132 
C -2.683901 -1.55874 -3 -0.795609 -3 0 
C -3 0.795609 -2.683901 1.55874 -2.12132 2.12132 
C -1.55874 2.683901 -0.795609 3 0 3 
z
" style="stroke: #1f77b4"/>
    </defs>
    <g clip-path="url(#p785db6b3d4)">
     <use xlink:href="#m0867c49020" x="139.297166" y="65.468496" style="fill: #1f77b4; stroke: #1f77b4"/>
     <use xlink:href="#m0867c49020" x="141.320315" y="73.437315" style="fill: #1f77b4; stroke: #1f77b4"/>
     <use xlink:href="#m0867c49020" x="150.145658" y="70.27231" style="fill: #1f77b4; stroke: #1f77b4"/>
     <use xlink:href="#m0867c49020" x="110.807931" y="70.382515" style="fill: #1f77b4; stroke: #1f77b4"/>
     <use xlink:href="#m0867c49020" x="130.515305" y="73.412513" style="fill: #1f77b4; stroke: #1f77b4"/>
     <use xlink:href="#m0867c49020" x="51.547586" y="123.30161" style="fill: #1f77b4; stroke: #1f77b4"/>
     <use xlink:href="#m0867c49020" x="106.799872" y="102.352663" style="fill: #1f77b4; stroke: #1f77b4"/>
     <use xlink:href="#m0867c49020" x="52.681091" y="123.25739" style="fill: #1f77b4; stroke: #1f77b4"/>
     <use xlink:href="#m0867c49020" x="117.699086" y="90.413452" style="fill: #1f77b4; stroke: #1f77b4"/>
     <use xlink:href="#m0867c49020" x="106.127113" y="115.677422" style="fill: #1f77b4; stroke: #1f77b4"/>
     <use xlink:href="#m0867c49020" x="85.945707" y="104.588448" style="fill: #1f77b4; stroke: #1f77b4"/>
     <use xlink:href="#m0867c49020" x="104.184843" y="101.034107" style="fill: #1f77b4; stroke: #1f77b4"/>
     <use xlink:href="#m0867c49020" x="174.80718" y="35.951945" style="fill: #1f77b4; stroke: #1f77b4"/>
     <use xlink:href="#m0867c49020" x="137.382301" y="73.271405" style="fill: #1f77b4; stroke: #1f77b4"/>
     <use xlink:href="#m0867c49020" x="117.398033" y="61.991556" style="fill: #1f77b4; stroke: #1f77b4"/>
     <use xlink:href="#m0867c49020" x="142.907111" y="48.562238" style="fill: #1f77b4; stroke: #1f77b4"/>
     <use xlink:href="#m0867c49020" x="154.885997" y="60.007064" style="fill: #1f77b4; stroke: #1f77b4"/>
     <use xlink:href="#m0867c49020" x="151.20157" y="56.400617" style="fill: #1f77b4; stroke: #1f77b4"/>
     <use xlink:href="#m0867c49020" x="96.46473" y="89.270077" style="fill: #1f77b4; stroke: #1f77b4"/>
     <use xlink:href="#m0867c49020" x="194.814233" y="24.247823" style="fill: #1f77b4; stroke: #1f77b4"/>
     <use xlink:href="#m0867c49020" x="101.521817" y="87.218254" style="fill: #1f77b4; stroke: #1f77b4"/>
     <use xlink:href="#m0867c49020" x="126.24135" y="76.546198" style="fill: #1f77b4; stroke: #1f77b4"/>
     <use xlink:href="#m0867c49020" x="200.164371" y="16.533229" style="fill: #1f77b4; stroke: #1f77b4"/>
     <use xlink:href="#m0867c49020" x="186.983397" y="55.447167" style="fill: #1f77b4; stroke: #1f77b4"/>
     <use xlink:href="#m0867c49020" x="169.703017" y="32.009983" style="fill: #1f77b4; stroke: #1f77b4"/>
     <use xlink:href="#m0867c49020" x="162.445106" y="46.903701" style="fill: #1f77b4; stroke: #1f77b4"/>
     <use xlink:href="#m0867c49020" x="171.668113" y="55.683676" style="fill: #1f77b4; stroke: #1f77b4"/>
     <use xlink:href="#m0867c49020" x="215.364915" y="20.756258" style="fill: #1f77b4; stroke: #1f77b4"/>
     <use xlink:href="#m0867c49020" x="159.166523" y="34.078012" style="fill: #1f77b4; stroke: #1f77b4"/>
     <use xlink:href="#m0867c49020" x="132.238264" y="80.394911" style="fill: #1f77b4; stroke: #1f77b4"/>
     <use xlink:href="#m0867c49020" x="116.034428" y="86.32157" style="fill: #1f77b4; stroke: #1f77b4"/>
     <use xlink:href="#m0867c49020" x="122.954629" y="72.305371" style="fill: #1f77b4; stroke: #1f77b4"/>
     <use xlink:href="#m0867c49020" x="153.011567" y="65.852033" style="fill: #1f77b4; stroke: #1f77b4"/>
     <use xlink:href="#m0867c49020" x="195.2711" y="20.998336" style="fill: #1f77b4; stroke: #1f77b4"/>
     <use xlink:href="#m0867c49020" x="187.83746" y="25.630083" style="fill: #1f77b4; stroke: #1f77b4"/>
     <use xlink:href="#m0867c49020" x="152.699685" y="68.184637" style="fill: #1f77b4; stroke: #1f77b4"/>
     <use xlink:href="#m0867c49020" x="131.769373" y="71.75119" style="fill: #1f77b4; stroke: #1f77b4"/>
     <use xlink:href="#m0867c49020" x="142.304623" y="83.080545" style="fill: #1f77b4; stroke: #1f77b4"/>
     <use xlink:href="#m0867c49020" x="71.47361" y="124.264326" style="fill: #1f77b4; stroke: #1f77b4"/>
     <use xlink:href="#m0867c49020" x="105.145958" y="95.581917" style="fill: #1f77b4; stroke: #1f77b4"/>
     <use xlink:href="#m0867c49020" x="171.8133" y="39.794052" style="fill: #1f77b4; stroke: #1f77b4"/>
     <use xlink:href="#m0867c49020" x="152.724579" y="77.205529" style="fill: #1f77b4; stroke: #1f77b4"/>
     <use xlink:href="#m0867c49020" x="108.496364" y="88.064843" style="fill: #1f77b4; stroke: #1f77b4"/>
     <use xlink:href="#m0867c49020" x="37.81946" y="137.627235" style="fill: #1f77b4; stroke: #1f77b4"/>
     <use xlink:href="#m0867c49020" x="142.954888" y="59.469637" style="fill: #1f77b4; stroke: #1f77b4"/>
     <use xlink:href="#m0867c49020" x="151.359247" y="45.229427" style="fill: #1f77b4; stroke: #1f77b4"/>
     <use xlink:href="#m0867c49020" x="159.774996" y="57.259969" style="fill: #1f77b4; stroke: #1f77b4"/>
     <use xlink:href="#m0867c49020" x="168.940047" y="32.447588" style="fill: #1f77b4; stroke: #1f77b4"/>
     <use xlink:href="#m0867c49020" x="174.943679" y="39.479012" style="fill: #1f77b4; stroke: #1f77b4"/>
     <use xlink:href="#m0867c49020" x="181.321889" y="32.644718" style="fill: #1f77b4; stroke: #1f77b4"/>
     <use xlink:href="#m0867c49020" x="108.559684" y="102.355317" style="fill: #1f77b4; stroke: #1f77b4"/>
     <use xlink:href="#m0867c49020" x="173.748678" y="43.815898" style="fill: #1f77b4; stroke: #1f77b4"/>
     <use xlink:href="#m0867c49020" x="148.796202" y="61.340794" style="fill: #1f77b4; stroke: #1f77b4"/>
     <use xlink:href="#m0867c49020" x="59.477369" y="142.533229" style="fill: #1f77b4; stroke: #1f77b4"/>
     <use xlink:href="#m0867c49020" x="131.054795" y="94.978782" style="fill: #1f77b4; stroke: #1f77b4"/>
     <use xlink:href="#m0867c49020" x="152.068868" y="64.064442" style="fill: #1f77b4; stroke: #1f77b4"/>
     <use xlink:href="#m0867c49020" x="92.44528" y="105.615265" style="fill: #1f77b4; stroke: #1f77b4"/>
     <use xlink:href="#m0867c49020" x="156.166204" y="59.582871" style="fill: #1f77b4; stroke: #1f77b4"/>
     <use xlink:href="#m0867c49020" x="86.2243" y="115.912153" style="fill: #1f77b4; stroke: #1f77b4"/>
     <use xlink:href="#m0867c49020" x="103.506602" y="94.470965" style="fill: #1f77b4; stroke: #1f77b4"/>
     <use xlink:href="#m0867c49020" x="94.181885" y="128.096723" style="fill: #1f77b4; stroke: #1f77b4"/>
     <use xlink:href="#m0867c49020" x="162.346113" y="48.157696" style="fill: #1f77b4; stroke: #1f77b4"/>
     <use xlink:href="#m0867c49020" x="93.030658" y="102.726285" style="fill: #1f77b4; stroke: #1f77b4"/>
     <use xlink:href="#m0867c49020" x="85.086142" y="103.687169" style="fill: #1f77b4; stroke: #1f77b4"/>
     <use xlink:href="#m0867c49020" x="190.416477" y="32.360803" style="fill: #1f77b4; stroke: #1f77b4"/>
     <use xlink:href="#m0867c49020" x="126.918585" y="68.061774" style="fill: #1f77b4; stroke: #1f77b4"/>
     <use xlink:href="#m0867c49020" x="166.07067" y="48.914099" style="fill: #1f77b4; stroke: #1f77b4"/>
     <use xlink:href="#m0867c49020" x="127.892019" y="67.83488" style="fill: #1f77b4; stroke: #1f77b4"/>
     <use xlink:href="#m0867c49020" x="119.016529" y="87.459988" style="fill: #1f77b4; stroke: #1f77b4"/>
     <use xlink:href="#m0867c49020" x="140.874303" y="46.469487" style="fill: #1f77b4; stroke: #1f77b4"/>
     <use xlink:href="#m0867c49020" x="158.163504" y="47.177726" style="fill: #1f77b4; stroke: #1f77b4"/>
     <use xlink:href="#m0867c49020" x="155.226651" y="58.174455" style="fill: #1f77b4; stroke: #1f77b4"/>
     <use xlink:href="#m0867c49020" x="128.855444" y="84.917075" style="fill: #1f77b4; stroke: #1f77b4"/>
     <use xlink:href="#m0867c49020" x="117.453735" y="88.205306" style="fill: #1f77b4; stroke: #1f77b4"/>
     <use xlink:href="#m0867c49020" x="111.032196" y="85.634367" style="fill: #1f77b4; stroke: #1f77b4"/>
     <use xlink:href="#m0867c49020" x="123.96068" y="61.714145" style="fill: #1f77b4; stroke: #1f77b4"/>
     <use xlink:href="#m0867c49020" x="180.922086" y="54.980999" style="fill: #1f77b4; stroke: #1f77b4"/>
     <use xlink:href="#m0867c49020" x="127.09499" y="72.055058" style="fill: #1f77b4; stroke: #1f77b4"/>
     <use xlink:href="#m0867c49020" x="154.944028" y="70.16292" style="fill: #1f77b4; stroke: #1f77b4"/>
     <use xlink:href="#m0867c49020" x="150.351085" y="79.683885" style="fill: #1f77b4; stroke: #1f77b4"/>
     <use xlink:href="#m0867c49020" x="155.603029" y="52.891805" style="fill: #1f77b4; stroke: #1f77b4"/>
     <use xlink:href="#m0867c49020" x="150.982916" y="68.703901" style="fill: #1f77b4; stroke: #1f77b4"/>
     <use xlink:href="#m0867c49020" x="185.453693" y="39.549895" style="fill: #1f77b4; stroke: #1f77b4"/>
     <use xlink:href="#m0867c49020" x="129.025029" y="88.624837" style="fill: #1f77b4; stroke: #1f77b4"/>
     <use xlink:href="#m0867c49020" x="113.913525" y="105.569902" style="fill: #1f77b4; stroke: #1f77b4"/>
     <use xlink:href="#m0867c49020" x="192.250054" y="44.549719" style="fill: #1f77b4; stroke: #1f77b4"/>
     <use xlink:href="#m0867c49020" x="53.636001" y="141.979685" style="fill: #1f77b4; stroke: #1f77b4"/>
     <use xlink:href="#m0867c49020" x="64.375452" y="116.000122" style="fill: #1f77b4; stroke: #1f77b4"/>
     <use xlink:href="#m0867c49020" x="171.99754" y="36.298882" style="fill: #1f77b4; stroke: #1f77b4"/>
     <use xlink:href="#m0867c49020" x="101.566256" y="91.536118" style="fill: #1f77b4; stroke: #1f77b4"/>
     <use xlink:href="#m0867c49020" x="131.644215" y="78.054543" style="fill: #1f77b4; stroke: #1f77b4"/>
     <use xlink:href="#m0867c49020" x="141.761775" y="60.685891" style="fill: #1f77b4; stroke: #1f77b4"/>
     <use xlink:href="#m0867c49020" x="134.387051" y="61.243277" style="fill: #1f77b4; stroke: #1f77b4"/>
     <use xlink:href="#m0867c49020" x="123.236118" y="88.791986" style="fill: #1f77b4; stroke: #1f77b4"/>
     <use xlink:href="#m0867c49020" x="185.821161" y="37.724199" style="fill: #1f77b4; stroke: #1f77b4"/>
     <use xlink:href="#m0867c49020" x="127.15607" y="71.223178" style="fill: #1f77b4; stroke: #1f77b4"/>
     <use xlink:href="#m0867c49020" x="164.723285" y="45.880224" style="fill: #1f77b4; stroke: #1f77b4"/>
     <use xlink:href="#m0867c49020" x="128.46418" y="78.307082" style="fill: #1f77b4; stroke: #1f77b4"/>
     <use xlink:href="#m0867c49020" x="138.273258" y="62.212019" style="fill: #1f77b4; stroke: #1f77b4"/>
     <use xlink:href="#m0867c49020" x="150.795691" y="45.951167" style="fill: #1f77b4; stroke: #1f77b4"/>
    </g>
   </g>
   <g id="matplotlib.axis_1">
    <g id="xtick_1">
     <g id="line2d_1">
      <defs>
       <path id="mb35f3702d8" d="M 0 0 
L 0 3.5 
" style="stroke: #000000; stroke-width: 0.8"/>
      </defs>
      <g>
       <use xlink:href="#mb35f3702d8" x="41.270776" y="148.833229" style="stroke: #000000; stroke-width: 0.8"/>
      </g>
     </g>
     <g id="text_1">
      <!-- −2 -->
      <g transform="translate(33.899682 163.431667) scale(0.1 -0.1)">
       <defs>
        <path id="DejaVuSans-2212" d="M 678 2272 
L 4684 2272 
L 4684 1741 
L 678 1741 
L 678 2272 
z
" transform="scale(0.015625)"/>
        <path id="DejaVuSans-32" d="M 1228 531 
L 3431 531 
L 3431 0 
L 469 0 
L 469 531 
Q 828 903 1448 1529 
Q 2069 2156 2228 2338 
Q 2531 2678 2651 2914 
Q 2772 3150 2772 3378 
Q 2772 3750 2511 3984 
Q 2250 4219 1831 4219 
Q 1534 4219 1204 4116 
Q 875 4013 500 3803 
L 500 4441 
Q 881 4594 1212 4672 
Q 1544 4750 1819 4750 
Q 2544 4750 2975 4387 
Q 3406 4025 3406 3419 
Q 3406 3131 3298 2873 
Q 3191 2616 2906 2266 
Q 2828 2175 2409 1742 
Q 1991 1309 1228 531 
z
" transform="scale(0.015625)"/>
       </defs>
       <use xlink:href="#DejaVuSans-2212"/>
       <use xlink:href="#DejaVuSans-32" x="83.789062"/>
      </g>
     </g>
    </g>
    <g id="xtick_2">
     <g id="line2d_2">
      <g>
       <use xlink:href="#mb35f3702d8" x="76.373149" y="148.833229" style="stroke: #000000; stroke-width: 0.8"/>
      </g>
     </g>
     <g id="text_2">
      <!-- −1 -->
      <g transform="translate(69.002055 163.431667) scale(0.1 -0.1)">
       <defs>
        <path id="DejaVuSans-31" d="M 794 531 
L 1825 531 
L 1825 4091 
L 703 3866 
L 703 4441 
L 1819 4666 
L 2450 4666 
L 2450 531 
L 3481 531 
L 3481 0 
L 794 0 
L 794 531 
z
" transform="scale(0.015625)"/>
       </defs>
       <use xlink:href="#DejaVuSans-2212"/>
       <use xlink:href="#DejaVuSans-31" x="83.789062"/>
      </g>
     </g>
    </g>
    <g id="xtick_3">
     <g id="line2d_3">
      <g>
       <use xlink:href="#mb35f3702d8" x="111.475522" y="148.833229" style="stroke: #000000; stroke-width: 0.8"/>
      </g>
     </g>
     <g id="text_3">
      <!-- 0 -->
      <g transform="translate(108.294272 163.431667) scale(0.1 -0.1)">
       <defs>
        <path id="DejaVuSans-30" d="M 2034 4250 
Q 1547 4250 1301 3770 
Q 1056 3291 1056 2328 
Q 1056 1369 1301 889 
Q 1547 409 2034 409 
Q 2525 409 2770 889 
Q 3016 1369 3016 2328 
Q 3016 3291 2770 3770 
Q 2525 4250 2034 4250 
z
M 2034 4750 
Q 2819 4750 3233 4129 
Q 3647 3509 3647 2328 
Q 3647 1150 3233 529 
Q 2819 -91 2034 -91 
Q 1250 -91 836 529 
Q 422 1150 422 2328 
Q 422 3509 836 4129 
Q 1250 4750 2034 4750 
z
" transform="scale(0.015625)"/>
       </defs>
       <use xlink:href="#DejaVuSans-30"/>
      </g>
     </g>
    </g>
    <g id="xtick_4">
     <g id="line2d_4">
      <g>
       <use xlink:href="#mb35f3702d8" x="146.577895" y="148.833229" style="stroke: #000000; stroke-width: 0.8"/>
      </g>
     </g>
     <g id="text_4">
      <!-- 1 -->
      <g transform="translate(143.396645 163.431667) scale(0.1 -0.1)">
       <use xlink:href="#DejaVuSans-31"/>
      </g>
     </g>
    </g>
    <g id="xtick_5">
     <g id="line2d_5">
      <g>
       <use xlink:href="#mb35f3702d8" x="181.680268" y="148.833229" style="stroke: #000000; stroke-width: 0.8"/>
      </g>
     </g>
     <g id="text_5">
      <!-- 2 -->
      <g transform="translate(178.499018 163.431667) scale(0.1 -0.1)">
       <use xlink:href="#DejaVuSans-32"/>
      </g>
     </g>
    </g>
    <g id="xtick_6">
     <g id="line2d_6">
      <g>
       <use xlink:href="#mb35f3702d8" x="216.782642" y="148.833229" style="stroke: #000000; stroke-width: 0.8"/>
      </g>
     </g>
     <g id="text_6">
      <!-- 3 -->
      <g transform="translate(213.601392 163.431667) scale(0.1 -0.1)">
       <defs>
        <path id="DejaVuSans-33" d="M 2597 2516 
Q 3050 2419 3304 2112 
Q 3559 1806 3559 1356 
Q 3559 666 3084 287 
Q 2609 -91 1734 -91 
Q 1441 -91 1130 -33 
Q 819 25 488 141 
L 488 750 
Q 750 597 1062 519 
Q 1375 441 1716 441 
Q 2309 441 2620 675 
Q 2931 909 2931 1356 
Q 2931 1769 2642 2001 
Q 2353 2234 1838 2234 
L 1294 2234 
L 1294 2753 
L 1863 2753 
Q 2328 2753 2575 2939 
Q 2822 3125 2822 3475 
Q 2822 3834 2567 4026 
Q 2313 4219 1838 4219 
Q 1578 4219 1281 4162 
Q 984 4106 628 3988 
L 628 4550 
Q 988 4650 1302 4700 
Q 1616 4750 1894 4750 
Q 2613 4750 3031 4423 
Q 3450 4097 3450 3541 
Q 3450 3153 3228 2886 
Q 3006 2619 2597 2516 
z
" transform="scale(0.015625)"/>
       </defs>
       <use xlink:href="#DejaVuSans-33"/>
      </g>
     </g>
    </g>
   </g>
   <g id="matplotlib.axis_2">
    <g id="ytick_1">
     <g id="line2d_7">
      <defs>
       <path id="mcc32af3cda" d="M 0 0 
L -3.5 0 
" style="stroke: #000000; stroke-width: 0.8"/>
      </defs>
      <g>
       <use xlink:href="#mcc32af3cda" x="28.942188" y="144.932427" style="stroke: #000000; stroke-width: 0.8"/>
      </g>
     </g>
     <g id="text_7">
      <!-- −4 -->
      <g transform="translate(7.2 148.731645) scale(0.1 -0.1)">
       <defs>
        <path id="DejaVuSans-34" d="M 2419 4116 
L 825 1625 
L 2419 1625 
L 2419 4116 
z
M 2253 4666 
L 3047 4666 
L 3047 1625 
L 3713 1625 
L 3713 1100 
L 3047 1100 
L 3047 0 
L 2419 0 
L 2419 1100 
L 313 1100 
L 313 1709 
L 2253 4666 
z
" transform="scale(0.015625)"/>
       </defs>
       <use xlink:href="#DejaVuSans-2212"/>
       <use xlink:href="#DejaVuSans-34" x="83.789062"/>
      </g>
     </g>
    </g>
    <g id="ytick_2">
     <g id="line2d_8">
      <g>
       <use xlink:href="#mcc32af3cda" x="28.942188" y="118.145785" style="stroke: #000000; stroke-width: 0.8"/>
      </g>
     </g>
     <g id="text_8">
      <!-- −2 -->
      <g transform="translate(7.2 121.945004) scale(0.1 -0.1)">
       <use xlink:href="#DejaVuSans-2212"/>
       <use xlink:href="#DejaVuSans-32" x="83.789062"/>
      </g>
     </g>
    </g>
    <g id="ytick_3">
     <g id="line2d_9">
      <g>
       <use xlink:href="#mcc32af3cda" x="28.942188" y="91.359144" style="stroke: #000000; stroke-width: 0.8"/>
      </g>
     </g>
     <g id="text_9">
      <!-- 0 -->
      <g transform="translate(15.579688 95.158362) scale(0.1 -0.1)">
       <use xlink:href="#DejaVuSans-30"/>
      </g>
     </g>
    </g>
    <g id="ytick_4">
     <g id="line2d_10">
      <g>
       <use xlink:href="#mcc32af3cda" x="28.942188" y="64.572502" style="stroke: #000000; stroke-width: 0.8"/>
      </g>
     </g>
     <g id="text_10">
      <!-- 2 -->
      <g transform="translate(15.579688 68.371721) scale(0.1 -0.1)">
       <use xlink:href="#DejaVuSans-32"/>
      </g>
     </g>
    </g>
    <g id="ytick_5">
     <g id="line2d_11">
      <g>
       <use xlink:href="#mcc32af3cda" x="28.942188" y="37.78586" style="stroke: #000000; stroke-width: 0.8"/>
      </g>
     </g>
     <g id="text_11">
      <!-- 4 -->
      <g transform="translate(15.579688 41.585079) scale(0.1 -0.1)">
       <use xlink:href="#DejaVuSans-34"/>
      </g>
     </g>
    </g>
    <g id="ytick_6">
     <g id="line2d_12">
      <g>
       <use xlink:href="#mcc32af3cda" x="28.942188" y="10.999219" style="stroke: #000000; stroke-width: 0.8"/>
      </g>
     </g>
     <g id="text_12">
      <!-- 6 -->
      <g transform="translate(15.579688 14.798437) scale(0.1 -0.1)">
       <defs>
        <path id="DejaVuSans-36" d="M 2113 2584 
Q 1688 2584 1439 2293 
Q 1191 2003 1191 1497 
Q 1191 994 1439 701 
Q 1688 409 2113 409 
Q 2538 409 2786 701 
Q 3034 994 3034 1497 
Q 3034 2003 2786 2293 
Q 2538 2584 2113 2584 
z
M 3366 4563 
L 3366 3988 
Q 3128 4100 2886 4159 
Q 2644 4219 2406 4219 
Q 1781 4219 1451 3797 
Q 1122 3375 1075 2522 
Q 1259 2794 1537 2939 
Q 1816 3084 2150 3084 
Q 2853 3084 3261 2657 
Q 3669 2231 3669 1497 
Q 3669 778 3244 343 
Q 2819 -91 2113 -91 
Q 1303 -91 875 529 
Q 447 1150 447 2328 
Q 447 3434 972 4092 
Q 1497 4750 2381 4750 
Q 2619 4750 2861 4703 
Q 3103 4656 3366 4563 
z
" transform="scale(0.015625)"/>
       </defs>
       <use xlink:href="#DejaVuSans-36"/>
      </g>
     </g>
    </g>
   </g>
   <g id="patch_3">
    <path d="M 28.942188 148.833229 
L 28.942188 10.233229 
" style="fill: none; stroke: #000000; stroke-width: 0.8; stroke-linejoin: miter; stroke-linecap: square"/>
   </g>
   <g id="patch_4">
    <path d="M 224.242188 148.833229 
L 224.242188 10.233229 
" style="fill: none; stroke: #000000; stroke-width: 0.8; stroke-linejoin: miter; stroke-linecap: square"/>
   </g>
   <g id="patch_5">
    <path d="M 28.942188 148.833229 
L 224.242188 148.833229 
" style="fill: none; stroke: #000000; stroke-width: 0.8; stroke-linejoin: miter; stroke-linecap: square"/>
   </g>
   <g id="patch_6">
    <path d="M 28.942188 10.233229 
L 224.242188 10.233229 
" style="fill: none; stroke: #000000; stroke-width: 0.8; stroke-linejoin: miter; stroke-linecap: square"/>
   </g>
  </g>
 </g>
 <defs>
  <clipPath id="p785db6b3d4">
   <rect x="28.942188" y="10.233229" width="195.3" height="138.6"/>
  </clipPath>
 </defs>
</svg>
