<?xml version="1.0" encoding="utf-8" standalone="no"?>
<!DOCTYPE svg PUBLIC "-//W3C//DTD SVG 1.1//EN"
  "http://www.w3.org/Graphics/SVG/1.1/DTD/svg11.dtd">
<svg xmlns:xlink="http://www.w3.org/1999/xlink" width="231.442187pt" height="169.678125pt" viewBox="0 0 231.442187 169.678125" xmlns="http://www.w3.org/2000/svg" version="1.1">
 <metadata>
  <rdf:RDF xmlns:dc="http://purl.org/dc/elements/1.1/" xmlns:cc="http://creativecommons.org/ns#" xmlns:rdf="http://www.w3.org/1999/02/22-rdf-syntax-ns#">
   <cc:Work>
    <dc:type rdf:resource="http://purl.org/dc/dcmitype/StillImage"/>
    <dc:date>2025-06-14T14:36:24.483516</dc:date>
    <dc:format>image/svg+xml</dc:format>
    <dc:creator>
     <cc:Agent>
      <dc:title>Matplotlib v3.7.2, https://matplotlib.org/</dc:title>
     </cc:Agent>
    </dc:creator>
   </cc:Work>
  </rdf:RDF>
 </metadata>
 <defs>
  <style type="text/css">*{stroke-linejoin: round; stroke-linecap: butt}</style>
 </defs>
 <g id="figure_1">
  <g id="patch_1">
   <path d="M 0 169.678125 
L 231.442187 169.678125 
L 231.442187 0 
L 0 0 
z
" style="fill: #ffffff"/>
  </g>
  <g id="axes_1">
   <g id="patch_2">
    <path d="M 28.942188 145.8 
L 224.242188 145.8 
L 224.242188 7.2 
L 28.942188 7.2 
z
" style="fill: #ffffff"/>
   </g>
   <g id="PathCollection_1">
    <defs>
     <path id="md1ef9e5acb" d="M 0 3 
C 0.795609 3 1.55874 2.683901 2.12132 2.12132 
C 2.683901 1.55874 3 0.795609 3 0 
C 3 -0.795609 2.683901 -1.55874 2.12132 -2.12132 
C 1.55874 -2.683901 0.795609 -3 0 -3 
C -0.795609 -3 -1.55874 -2.683901 -2.12132 -2.12132 
C -2.683901 -1.55874 -3 -0.795609 -3 0 
C -3 0.795609 -2.683901 1.55874 -2.12132 2.12132 
C -1.55874 2.683901 -0.795609 3 0 3 
z
" style="stroke: #1f77b4"/>
    </defs>
    <g clip-path="url(#p1bc3c46c8a)">
     <use xlink:href="#md1ef9e5acb" x="142.595939" y="49.619638" style="fill: #1f77b4; stroke: #1f77b4"/>
     <use xlink:href="#md1ef9e5acb" x="130.464825" y="61.166216" style="fill: #1f77b4; stroke: #1f77b4"/>
     <use xlink:href="#md1ef9e5acb" x="132.120845" y="73.583254" style="fill: #1f77b4; stroke: #1f77b4"/>
     <use xlink:href="#md1ef9e5acb" x="81.13953" y="102.140755" style="fill: #1f77b4; stroke: #1f77b4"/>
     <use xlink:href="#md1ef9e5acb" x="37.81946" y="139.5" style="fill: #1f77b4; stroke: #1f77b4"/>
     <use xlink:href="#md1ef9e5acb" x="105.005757" y="104.675588" style="fill: #1f77b4; stroke: #1f77b4"/>
     <use xlink:href="#md1ef9e5acb" x="109.436983" y="84.757171" style="fill: #1f77b4; stroke: #1f77b4"/>
     <use xlink:href="#md1ef9e5acb" x="155.985271" y="42.691461" style="fill: #1f77b4; stroke: #1f77b4"/>
     <use xlink:href="#md1ef9e5acb" x="72.107598" y="107.140737" style="fill: #1f77b4; stroke: #1f77b4"/>
     <use xlink:href="#md1ef9e5acb" x="142.888128" y="37.783306" style="fill: #1f77b4; stroke: #1f77b4"/>
     <use xlink:href="#md1ef9e5acb" x="176.165713" y="44.535845" style="fill: #1f77b4; stroke: #1f77b4"/>
     <use xlink:href="#md1ef9e5acb" x="166.573727" y="37.680786" style="fill: #1f77b4; stroke: #1f77b4"/>
     <use xlink:href="#md1ef9e5acb" x="101.365295" y="89.752594" style="fill: #1f77b4; stroke: #1f77b4"/>
     <use xlink:href="#md1ef9e5acb" x="98.198426" y="95.094334" style="fill: #1f77b4; stroke: #1f77b4"/>
     <use xlink:href="#md1ef9e5acb" x="150.575698" y="50.114696" style="fill: #1f77b4; stroke: #1f77b4"/>
     <use xlink:href="#md1ef9e5acb" x="147.378958" y="53.638682" style="fill: #1f77b4; stroke: #1f77b4"/>
     <use xlink:href="#md1ef9e5acb" x="197.560265" y="28.848256" style="fill: #1f77b4; stroke: #1f77b4"/>
     <use xlink:href="#md1ef9e5acb" x="175.593761" y="34.98349" style="fill: #1f77b4; stroke: #1f77b4"/>
     <use xlink:href="#md1ef9e5acb" x="102.304636" y="75.760096" style="fill: #1f77b4; stroke: #1f77b4"/>
     <use xlink:href="#md1ef9e5acb" x="114.991702" y="88.138801" style="fill: #1f77b4; stroke: #1f77b4"/>
     <use xlink:href="#md1ef9e5acb" x="122.102561" y="57.945898" style="fill: #1f77b4; stroke: #1f77b4"/>
     <use xlink:href="#md1ef9e5acb" x="180.034198" y="41.338038" style="fill: #1f77b4; stroke: #1f77b4"/>
     <use xlink:href="#md1ef9e5acb" x="124.187659" y="67.554288" style="fill: #1f77b4; stroke: #1f77b4"/>
     <use xlink:href="#md1ef9e5acb" x="133.401435" y="58.119425" style="fill: #1f77b4; stroke: #1f77b4"/>
     <use xlink:href="#md1ef9e5acb" x="168.83549" y="50.481809" style="fill: #1f77b4; stroke: #1f77b4"/>
     <use xlink:href="#md1ef9e5acb" x="46.557472" y="122.910064" style="fill: #1f77b4; stroke: #1f77b4"/>
     <use xlink:href="#md1ef9e5acb" x="154.697987" y="53.428912" style="fill: #1f77b4; stroke: #1f77b4"/>
     <use xlink:href="#md1ef9e5acb" x="78.285357" y="106.73075" style="fill: #1f77b4; stroke: #1f77b4"/>
     <use xlink:href="#md1ef9e5acb" x="126.756497" y="54.752699" style="fill: #1f77b4; stroke: #1f77b4"/>
     <use xlink:href="#md1ef9e5acb" x="60.956394" y="102.071602" style="fill: #1f77b4; stroke: #1f77b4"/>
     <use xlink:href="#md1ef9e5acb" x="157.63305" y="46.047916" style="fill: #1f77b4; stroke: #1f77b4"/>
     <use xlink:href="#md1ef9e5acb" x="67.285845" y="97.408617" style="fill: #1f77b4; stroke: #1f77b4"/>
     <use xlink:href="#md1ef9e5acb" x="162.198395" y="29.784128" style="fill: #1f77b4; stroke: #1f77b4"/>
     <use xlink:href="#md1ef9e5acb" x="169.974792" y="34.548448" style="fill: #1f77b4; stroke: #1f77b4"/>
     <use xlink:href="#md1ef9e5acb" x="150.237452" y="47.766801" style="fill: #1f77b4; stroke: #1f77b4"/>
     <use xlink:href="#md1ef9e5acb" x="105.031932" y="75.542826" style="fill: #1f77b4; stroke: #1f77b4"/>
     <use xlink:href="#md1ef9e5acb" x="110.463041" y="56.071533" style="fill: #1f77b4; stroke: #1f77b4"/>
     <use xlink:href="#md1ef9e5acb" x="131.461446" y="69.710952" style="fill: #1f77b4; stroke: #1f77b4"/>
     <use xlink:href="#md1ef9e5acb" x="74.160696" y="107.638044" style="fill: #1f77b4; stroke: #1f77b4"/>
     <use xlink:href="#md1ef9e5acb" x="66.625099" y="111.270243" style="fill: #1f77b4; stroke: #1f77b4"/>
     <use xlink:href="#md1ef9e5acb" x="162.136175" y="54.421168" style="fill: #1f77b4; stroke: #1f77b4"/>
     <use xlink:href="#md1ef9e5acb" x="132.807812" y="64.177276" style="fill: #1f77b4; stroke: #1f77b4"/>
     <use xlink:href="#md1ef9e5acb" x="136.251396" y="68.544194" style="fill: #1f77b4; stroke: #1f77b4"/>
     <use xlink:href="#md1ef9e5acb" x="138.210987" y="61.200087" style="fill: #1f77b4; stroke: #1f77b4"/>
     <use xlink:href="#md1ef9e5acb" x="146.335674" y="51.087411" style="fill: #1f77b4; stroke: #1f77b4"/>
     <use xlink:href="#md1ef9e5acb" x="132.158908" y="51.0149" style="fill: #1f77b4; stroke: #1f77b4"/>
     <use xlink:href="#md1ef9e5acb" x="138.980002" y="60.283817" style="fill: #1f77b4; stroke: #1f77b4"/>
     <use xlink:href="#md1ef9e5acb" x="105.54116" y="90.103738" style="fill: #1f77b4; stroke: #1f77b4"/>
     <use xlink:href="#md1ef9e5acb" x="128.331582" y="68.892372" style="fill: #1f77b4; stroke: #1f77b4"/>
     <use xlink:href="#md1ef9e5acb" x="165.857945" y="28.951717" style="fill: #1f77b4; stroke: #1f77b4"/>
     <use xlink:href="#md1ef9e5acb" x="113.16975" y="81.204114" style="fill: #1f77b4; stroke: #1f77b4"/>
     <use xlink:href="#md1ef9e5acb" x="114.192499" y="81.890058" style="fill: #1f77b4; stroke: #1f77b4"/>
     <use xlink:href="#md1ef9e5acb" x="129.820681" y="57.581537" style="fill: #1f77b4; stroke: #1f77b4"/>
     <use xlink:href="#md1ef9e5acb" x="128.119093" y="62.909747" style="fill: #1f77b4; stroke: #1f77b4"/>
     <use xlink:href="#md1ef9e5acb" x="117.495828" y="80.638471" style="fill: #1f77b4; stroke: #1f77b4"/>
     <use xlink:href="#md1ef9e5acb" x="127.936289" y="65.325866" style="fill: #1f77b4; stroke: #1f77b4"/>
     <use xlink:href="#md1ef9e5acb" x="65.787119" y="109.100136" style="fill: #1f77b4; stroke: #1f77b4"/>
     <use xlink:href="#md1ef9e5acb" x="129.69583" y="59.461888" style="fill: #1f77b4; stroke: #1f77b4"/>
     <use xlink:href="#md1ef9e5acb" x="119.233847" y="64.713509" style="fill: #1f77b4; stroke: #1f77b4"/>
     <use xlink:href="#md1ef9e5acb" x="63.95835" y="94.059865" style="fill: #1f77b4; stroke: #1f77b4"/>
     <use xlink:href="#md1ef9e5acb" x="124.124727" y="68.360431" style="fill: #1f77b4; stroke: #1f77b4"/>
     <use xlink:href="#md1ef9e5acb" x="121.237641" y="83.874421" style="fill: #1f77b4; stroke: #1f77b4"/>
     <use xlink:href="#md1ef9e5acb" x="120.429576" y="66.70812" style="fill: #1f77b4; stroke: #1f77b4"/>
     <use xlink:href="#md1ef9e5acb" x="94.079776" y="100.377948" style="fill: #1f77b4; stroke: #1f77b4"/>
     <use xlink:href="#md1ef9e5acb" x="159.331375" y="46.647155" style="fill: #1f77b4; stroke: #1f77b4"/>
     <use xlink:href="#md1ef9e5acb" x="179.865912" y="28.936777" style="fill: #1f77b4; stroke: #1f77b4"/>
     <use xlink:href="#md1ef9e5acb" x="175.083687" y="42.409534" style="fill: #1f77b4; stroke: #1f77b4"/>
     <use xlink:href="#md1ef9e5acb" x="134.256819" y="86.768855" style="fill: #1f77b4; stroke: #1f77b4"/>
     <use xlink:href="#md1ef9e5acb" x="131.794643" y="70.449315" style="fill: #1f77b4; stroke: #1f77b4"/>
     <use xlink:href="#md1ef9e5acb" x="176.9029" y="31.798901" style="fill: #1f77b4; stroke: #1f77b4"/>
     <use xlink:href="#md1ef9e5acb" x="176.910612" y="41.071084" style="fill: #1f77b4; stroke: #1f77b4"/>
     <use xlink:href="#md1ef9e5acb" x="114.072935" y="83.427929" style="fill: #1f77b4; stroke: #1f77b4"/>
     <use xlink:href="#md1ef9e5acb" x="154.823877" y="43.499028" style="fill: #1f77b4; stroke: #1f77b4"/>
     <use xlink:href="#md1ef9e5acb" x="152.379966" y="60.342006" style="fill: #1f77b4; stroke: #1f77b4"/>
     <use xlink:href="#md1ef9e5acb" x="180.372845" y="31.229327" style="fill: #1f77b4; stroke: #1f77b4"/>
     <use xlink:href="#md1ef9e5acb" x="215.364915" y="13.5" style="fill: #1f77b4; stroke: #1f77b4"/>
     <use xlink:href="#md1ef9e5acb" x="167.464719" y="45.474341" style="fill: #1f77b4; stroke: #1f77b4"/>
     <use xlink:href="#md1ef9e5acb" x="135.962857" y="59.953308" style="fill: #1f77b4; stroke: #1f77b4"/>
     <use xlink:href="#md1ef9e5acb" x="79.579503" y="87.91448" style="fill: #1f77b4; stroke: #1f77b4"/>
     <use xlink:href="#md1ef9e5acb" x="172.423466" y="39.593394" style="fill: #1f77b4; stroke: #1f77b4"/>
     <use xlink:href="#md1ef9e5acb" x="172.139023" y="44.508476" style="fill: #1f77b4; stroke: #1f77b4"/>
     <use xlink:href="#md1ef9e5acb" x="155.06646" y="58.378203" style="fill: #1f77b4; stroke: #1f77b4"/>
     <use xlink:href="#md1ef9e5acb" x="130.882526" y="73.169135" style="fill: #1f77b4; stroke: #1f77b4"/>
     <use xlink:href="#md1ef9e5acb" x="115.1351" y="82.101068" style="fill: #1f77b4; stroke: #1f77b4"/>
     <use xlink:href="#md1ef9e5acb" x="162.859976" y="39.670253" style="fill: #1f77b4; stroke: #1f77b4"/>
     <use xlink:href="#md1ef9e5acb" x="105.665444" y="98.119323" style="fill: #1f77b4; stroke: #1f77b4"/>
     <use xlink:href="#md1ef9e5acb" x="136.544328" y="62.496596" style="fill: #1f77b4; stroke: #1f77b4"/>
     <use xlink:href="#md1ef9e5acb" x="147.075451" y="69.404421" style="fill: #1f77b4; stroke: #1f77b4"/>
     <use xlink:href="#md1ef9e5acb" x="129.252796" y="71.136832" style="fill: #1f77b4; stroke: #1f77b4"/>
     <use xlink:href="#md1ef9e5acb" x="112.516289" y="71.787568" style="fill: #1f77b4; stroke: #1f77b4"/>
     <use xlink:href="#md1ef9e5acb" x="138.420855" y="85.282658" style="fill: #1f77b4; stroke: #1f77b4"/>
     <use xlink:href="#md1ef9e5acb" x="117.057141" y="73.302929" style="fill: #1f77b4; stroke: #1f77b4"/>
     <use xlink:href="#md1ef9e5acb" x="133.271592" y="66.740882" style="fill: #1f77b4; stroke: #1f77b4"/>
     <use xlink:href="#md1ef9e5acb" x="121.77495" y="77.191727" style="fill: #1f77b4; stroke: #1f77b4"/>
     <use xlink:href="#md1ef9e5acb" x="138.958592" y="60.679784" style="fill: #1f77b4; stroke: #1f77b4"/>
     <use xlink:href="#md1ef9e5acb" x="181.547089" y="25.207965" style="fill: #1f77b4; stroke: #1f77b4"/>
     <use xlink:href="#md1ef9e5acb" x="85.483241" y="92.248687" style="fill: #1f77b4; stroke: #1f77b4"/>
     <use xlink:href="#md1ef9e5acb" x="66.840169" y="118.472207" style="fill: #1f77b4; stroke: #1f77b4"/>
     <use xlink:href="#md1ef9e5acb" x="137.882762" y="52.958023" style="fill: #1f77b4; stroke: #1f77b4"/>
     <use xlink:href="#md1ef9e5acb" x="178.95517" y="31.256446" style="fill: #1f77b4; stroke: #1f77b4"/>
    </g>
   </g>
   <g id="matplotlib.axis_1">
    <g id="xtick_1">
     <g id="line2d_1">
      <defs>
       <path id="me39b343532" d="M 0 0 
L 0 3.5 
" style="stroke: #000000; stroke-width: 0.8"/>
      </defs>
      <g>
       <use xlink:href="#me39b343532" x="37.375508" y="145.8" style="stroke: #000000; stroke-width: 0.8"/>
      </g>
     </g>
     <g id="text_1">
      <!-- −2 -->
      <g transform="translate(30.004414 160.398438) scale(0.1 -0.1)">
       <defs>
        <path id="DejaVuSans-2212" d="M 678 2272 
L 4684 2272 
L 4684 1741 
L 678 1741 
L 678 2272 
z
" transform="scale(0.015625)"/>
        <path id="DejaVuSans-32" d="M 1228 531 
L 3431 531 
L 3431 0 
L 469 0 
L 469 531 
Q 828 903 1448 1529 
Q 2069 2156 2228 2338 
Q 2531 2678 2651 2914 
Q 2772 3150 2772 3378 
Q 2772 3750 2511 3984 
Q 2250 4219 1831 4219 
Q 1534 4219 1204 4116 
Q 875 4013 500 3803 
L 500 4441 
Q 881 4594 1212 4672 
Q 1544 4750 1819 4750 
Q 2544 4750 2975 4387 
Q 3406 4025 3406 3419 
Q 3406 3131 3298 2873 
Q 3191 2616 2906 2266 
Q 2828 2175 2409 1742 
Q 1991 1309 1228 531 
z
" transform="scale(0.015625)"/>
       </defs>
       <use xlink:href="#DejaVuSans-2212"/>
       <use xlink:href="#DejaVuSans-32" x="83.789062"/>
      </g>
     </g>
    </g>
    <g id="xtick_2">
     <g id="line2d_2">
      <g>
       <use xlink:href="#me39b343532" x="100.248257" y="145.8" style="stroke: #000000; stroke-width: 0.8"/>
      </g>
     </g>
     <g id="text_2">
      <!-- 0 -->
      <g transform="translate(97.067007 160.398438) scale(0.1 -0.1)">
       <defs>
        <path id="DejaVuSans-30" d="M 2034 4250 
Q 1547 4250 1301 3770 
Q 1056 3291 1056 2328 
Q 1056 1369 1301 889 
Q 1547 409 2034 409 
Q 2525 409 2770 889 
Q 3016 1369 3016 2328 
Q 3016 3291 2770 3770 
Q 2525 4250 2034 4250 
z
M 2034 4750 
Q 2819 4750 3233 4129 
Q 3647 3509 3647 2328 
Q 3647 1150 3233 529 
Q 2819 -91 2034 -91 
Q 1250 -91 836 529 
Q 422 1150 422 2328 
Q 422 3509 836 4129 
Q 1250 4750 2034 4750 
z
" transform="scale(0.015625)"/>
       </defs>
       <use xlink:href="#DejaVuSans-30"/>
      </g>
     </g>
    </g>
    <g id="xtick_3">
     <g id="line2d_3">
      <g>
       <use xlink:href="#me39b343532" x="163.121005" y="145.8" style="stroke: #000000; stroke-width: 0.8"/>
      </g>
     </g>
     <g id="text_3">
      <!-- 2 -->
      <g transform="translate(159.939755 160.398438) scale(0.1 -0.1)">
       <use xlink:href="#DejaVuSans-32"/>
      </g>
     </g>
    </g>
   </g>
   <g id="matplotlib.axis_2">
    <g id="ytick_1">
     <g id="line2d_4">
      <defs>
       <path id="m2a11417fad" d="M 0 0 
L -3.5 0 
" style="stroke: #000000; stroke-width: 0.8"/>
      </defs>
      <g>
       <use xlink:href="#m2a11417fad" x="28.942188" y="138.130545" style="stroke: #000000; stroke-width: 0.8"/>
      </g>
     </g>
     <g id="text_4">
      <!-- −4 -->
      <g transform="translate(7.2 141.929764) scale(0.1 -0.1)">
       <defs>
        <path id="DejaVuSans-34" d="M 2419 4116 
L 825 1625 
L 2419 1625 
L 2419 4116 
z
M 2253 4666 
L 3047 4666 
L 3047 1625 
L 3713 1625 
L 3713 1100 
L 3047 1100 
L 3047 0 
L 2419 0 
L 2419 1100 
L 313 1100 
L 313 1709 
L 2253 4666 
z
" transform="scale(0.015625)"/>
       </defs>
       <use xlink:href="#DejaVuSans-2212"/>
       <use xlink:href="#DejaVuSans-34" x="83.789062"/>
      </g>
     </g>
    </g>
    <g id="ytick_2">
     <g id="line2d_5">
      <g>
       <use xlink:href="#m2a11417fad" x="28.942188" y="114.512007" style="stroke: #000000; stroke-width: 0.8"/>
      </g>
     </g>
     <g id="text_5">
      <!-- −2 -->
      <g transform="translate(7.2 118.311226) scale(0.1 -0.1)">
       <use xlink:href="#DejaVuSans-2212"/>
       <use xlink:href="#DejaVuSans-32" x="83.789062"/>
      </g>
     </g>
    </g>
    <g id="ytick_3">
     <g id="line2d_6">
      <g>
       <use xlink:href="#m2a11417fad" x="28.942188" y="90.89347" style="stroke: #000000; stroke-width: 0.8"/>
      </g>
     </g>
     <g id="text_6">
      <!-- 0 -->
      <g transform="translate(15.579688 94.692689) scale(0.1 -0.1)">
       <use xlink:href="#DejaVuSans-30"/>
      </g>
     </g>
    </g>
    <g id="ytick_4">
     <g id="line2d_7">
      <g>
       <use xlink:href="#m2a11417fad" x="28.942188" y="67.274932" style="stroke: #000000; stroke-width: 0.8"/>
      </g>
     </g>
     <g id="text_7">
      <!-- 2 -->
      <g transform="translate(15.579688 71.074151) scale(0.1 -0.1)">
       <use xlink:href="#DejaVuSans-32"/>
      </g>
     </g>
    </g>
    <g id="ytick_5">
     <g id="line2d_8">
      <g>
       <use xlink:href="#m2a11417fad" x="28.942188" y="43.656395" style="stroke: #000000; stroke-width: 0.8"/>
      </g>
     </g>
     <g id="text_8">
      <!-- 4 -->
      <g transform="translate(15.579688 47.455613) scale(0.1 -0.1)">
       <use xlink:href="#DejaVuSans-34"/>
      </g>
     </g>
    </g>
    <g id="ytick_6">
     <g id="line2d_9">
      <g>
       <use xlink:href="#m2a11417fad" x="28.942188" y="20.037857" style="stroke: #000000; stroke-width: 0.8"/>
      </g>
     </g>
     <g id="text_9">
      <!-- 6 -->
      <g transform="translate(15.579688 23.837076) scale(0.1 -0.1)">
       <defs>
        <path id="DejaVuSans-36" d="M 2113 2584 
Q 1688 2584 1439 2293 
Q 1191 2003 1191 1497 
Q 1191 994 1439 701 
Q 1688 409 2113 409 
Q 2538 409 2786 701 
Q 3034 994 3034 1497 
Q 3034 2003 2786 2293 
Q 2538 2584 2113 2584 
z
M 3366 4563 
L 3366 3988 
Q 3128 4100 2886 4159 
Q 2644 4219 2406 4219 
Q 1781 4219 1451 3797 
Q 1122 3375 1075 2522 
Q 1259 2794 1537 2939 
Q 1816 3084 2150 3084 
Q 2853 3084 3261 2657 
Q 3669 2231 3669 1497 
Q 3669 778 3244 343 
Q 2819 -91 2113 -91 
Q 1303 -91 875 529 
Q 447 1150 447 2328 
Q 447 3434 972 4092 
Q 1497 4750 2381 4750 
Q 2619 4750 2861 4703 
Q 3103 4656 3366 4563 
z
" transform="scale(0.015625)"/>
       </defs>
       <use xlink:href="#DejaVuSans-36"/>
      </g>
     </g>
    </g>
   </g>
   <g id="patch_3">
    <path d="M 28.942188 145.8 
L 28.942188 7.2 
" style="fill: none; stroke: #000000; stroke-width: 0.8; stroke-linejoin: miter; stroke-linecap: square"/>
   </g>
   <g id="patch_4">
    <path d="M 224.242188 145.8 
L 224.242188 7.2 
" style="fill: none; stroke: #000000; stroke-width: 0.8; stroke-linejoin: miter; stroke-linecap: square"/>
   </g>
   <g id="patch_5">
    <path d="M 28.942188 145.8 
L 224.242188 145.8 
" style="fill: none; stroke: #000000; stroke-width: 0.8; stroke-linejoin: miter; stroke-linecap: square"/>
   </g>
   <g id="patch_6">
    <path d="M 28.942188 7.2 
L 224.242188 7.2 
" style="fill: none; stroke: #000000; stroke-width: 0.8; stroke-linejoin: miter; stroke-linecap: square"/>
   </g>
  </g>
 </g>
 <defs>
  <clipPath id="p1bc3c46c8a">
   <rect x="28.942188" y="7.2" width="195.3" height="138.6"/>
  </clipPath>
 </defs>
</svg>
